# Blender 4.0.0
# www.blender.org
o Microwave011_Body001
v -0.19867800 0.19226100 -0.13333350
v -0.19867800 0.19289400 0.14149250
v 0.16082500 0.19289400 -0.13333350
v 0.16082500 0.19046500 -0.13576150
v -0.19867800 0.19046500 -0.13576150
v -0.20110600 0.19046500 0.14149250
v -0.20110600 0.19046500 -0.13333350
v 0.16082500 0.19289400 0.14149250
v 0.16325400 0.19046500 -0.13333350
v -0.19867800 0.19046500 0.14392050
v 0.16082500 0.19046500 0.14392050
v 0.16325400 0.19046500 0.14149250
v 0.16082500 -0.18942000 -0.13576150
v -0.19867800 -0.18942000 -0.13576150
v 0.16325400 -0.18942000 -0.13333350
v -0.20110600 -0.18942000 -0.13333350
v -0.19867800 -0.18942000 0.14392050
v -0.20110600 -0.18942000 0.14149250
v 0.16082500 -0.18942000 0.14392050
v 0.16325400 -0.18942000 0.14149250
v 0.16568200 -0.19184800 -0.13819050
v -0.20353500 -0.19184800 -0.13819050
v -0.20353500 -0.19184800 0.14634950
v 0.16568200 -0.19184800 0.14634950
v -0.27693300 -0.19184800 0.15368250
v -0.27693300 -0.19184800 -0.14671050
v -0.28250800 -0.19184800 -0.14113550
v -0.27979800 -0.19184800 0.15291450
v 0.18648000 -0.19184800 0.15368250
v -0.27979800 -0.19184800 -0.14594250
v 0.18648000 -0.19184800 -0.14671050
v -0.28174000 -0.19184800 -0.14400050
v -0.28250800 -0.19184800 0.14810750
v -0.28174000 -0.19184800 0.15097150
v -0.27714400 -0.19024300 0.15528750
v 0.18969100 -0.19024300 0.15528750
v -0.27714400 -0.19024300 -0.14831550
v -0.28062900 -0.19024300 -0.14738150
v 0.18969100 -0.19024300 -0.14831550
v -0.28411300 -0.19024300 -0.14134650
v -0.28318000 -0.19024300 -0.14483150
v -0.28411300 -0.19024300 0.14831850
v -0.28318000 -0.19024300 0.15180350
v -0.28062900 -0.19024300 0.15435350
v 0.18808500 -0.19345400 0.15368250
v -0.27714400 0.23608300 0.15528750
v 0.18808500 0.23608300 0.15528750
v -0.28062900 0.23608300 -0.14738250
v -0.27714400 0.23608300 -0.14831550
v 0.18808500 0.23608300 -0.14831550
v 0.18808500 -0.19345400 -0.14671050
v -0.28411300 0.23608300 -0.14134650
v -0.28318000 0.23608300 -0.14483150
v -0.28062900 0.23608300 0.15435350
v 0.18808500 -0.20589700 0.15368250
v 0.18969100 -0.20559600 0.15528750
v 0.18808500 0.23944900 0.15192250
v -0.27670100 0.23944900 0.15192250
v 0.27759300 -0.19184800 0.15528750
v 0.27759300 0.23608300 0.15528750
v -0.27670100 0.23944900 -0.14495050
v -0.27888700 0.23944900 -0.14436450
v 0.18808500 0.23944900 -0.14495050
v 0.27759300 -0.19184800 -0.14831550
v 0.27759300 0.23608300 -0.14831550
v 0.18969100 -0.20685800 -0.14831550
v -0.28074800 0.23944900 -0.14090350
v -0.28016200 0.23944900 -0.14308950
v -0.28411300 0.23608300 0.14831850
v -0.28318000 0.23608300 0.15180250
v -0.27888700 0.23944900 0.15133650
v 0.18808500 -0.20665000 -0.10016050
v 0.18808500 -0.20665000 0.10553750
v 0.18808500 -0.20880800 0.15368250
v 0.18969100 -0.20880800 0.15528750
v 0.27759300 -0.20574600 0.15528750
v 0.27715000 0.23944900 0.15192250
v -0.28074800 0.23944900 0.14787550
v -0.28016200 0.23944900 0.15006050
v 0.28107800 -0.19184800 0.15435350
v 0.28107800 0.23608300 0.15435350
v 0.27715000 0.23944900 -0.14495050
v 0.28107800 0.23608300 -0.14738250
v 0.28107800 -0.19184800 -0.14738150
v 0.27759300 -0.20665000 -0.14831550
v 0.18808500 -0.20685800 -0.14671050
v 0.18969100 -0.20825500 0.10490550
v 0.18969100 -0.20825500 -0.09952850
v 0.18808500 -0.20913100 0.10763950
v 0.18969100 -0.21057500 0.15368250
v 0.27759300 -0.20880800 0.15528750
v 0.28107800 -0.20574600 0.15435350
v 0.27933600 0.23944900 0.15133650
v 0.28061100 0.23944900 0.15006050
v 0.28119700 0.23944900 0.14787550
v 0.28119700 0.23944900 -0.14090350
v 0.28061100 0.23944900 -0.14308950
v 0.27933600 0.23944900 -0.14436450
v 0.28362900 -0.19184800 0.15180350
v 0.28362900 0.23608300 0.15180250
v 0.28362900 0.23608300 -0.14483150
v 0.28362900 -0.19184800 -0.14483150
v 0.28107800 -0.20665000 -0.14738150
v 0.18969100 -0.20880800 -0.14831550
v 0.27759300 -0.20880800 -0.14831550
v 0.18808500 -0.20880800 -0.10248050
v 0.28295700 -0.20822500 0.10490550
v 0.18969100 -0.21057500 0.10700850
v 0.18969100 -0.21041400 -0.10184950
v 0.27738200 -0.21057500 0.15368250
v 0.28107800 -0.20880800 0.15435350
v 0.28362900 -0.20574600 0.15180350
v 0.28456200 0.23608300 0.14831850
v 0.28456200 0.23608300 -0.14134650
v 0.28456200 -0.19184800 0.14831850
v 0.28456200 -0.19184800 -0.14134650
v 0.28362900 -0.20665000 -0.14483150
v 0.28107800 -0.20880800 -0.14738150
v 0.18969100 -0.21041400 -0.14671050
v 0.27738200 -0.21041400 -0.14671050
v 0.18808500 -0.20880800 -0.14671050
v 0.28295700 -0.21057500 0.10700750
v 0.28295700 -0.20825600 -0.09952950
v 0.28295700 -0.21057500 0.14810750
v 0.28218900 -0.21057500 0.15097150
v 0.28024700 -0.21057500 0.15291450
v 0.28362900 -0.20880800 0.15180350
v 0.28456200 -0.20574600 0.14831850
v 0.28456200 -0.19184800 -0.10184950
v 0.28456200 -0.20665000 -0.14134650
v 0.28362900 -0.20880800 -0.14483150
v 0.28024700 -0.21041400 -0.14594250
v 0.28218900 -0.21041400 -0.14399950
v 0.28295700 -0.21041400 -0.14113550
v 0.28295700 -0.21041400 -0.10184950
v 0.28456200 -0.20912800 0.10764550
v 0.28456200 -0.20661900 0.10554350
v 0.28456200 -0.20665000 -0.10016050
v 0.28456200 -0.20880800 0.14831850
v 0.28456200 -0.20880800 -0.14134650
v 0.28456200 -0.20880800 -0.10248050
v 0.16568200 0.23944900 0.14334450
v 0.16568200 0.23944900 -0.13701450
v -0.20353500 0.23944900 -0.13701450
v -0.20353500 0.23944900 0.14334450
v 0.15523700 0.24656700 0.13566150
v 0.15523700 0.24656600 -0.12933250
v -0.19309000 0.24656600 -0.12933250
v -0.19309000 0.24656700 0.13566150
v -0.27714400 -0.07863300 0.15528750
v 0.18927100 -0.07863300 0.15528750
v 0.27759300 -0.07981800 0.15528750
v 0.28107800 -0.07981800 0.15435350
v 0.28362900 -0.07981800 0.15180250
v 0.28456200 -0.07981800 0.14831850
v 0.28456200 -0.07981800 -0.14134650
v 0.28362900 -0.07981800 -0.14483150
v 0.28107800 -0.07981800 -0.14738250
v 0.27759300 -0.07981800 -0.14831550
v 0.18927100 -0.07863300 -0.14831550
v -0.27714400 -0.07863300 -0.14831550
v -0.28062900 -0.07863300 -0.14738250
v -0.28318000 -0.07863300 -0.14483150
v -0.28411300 -0.07863300 -0.14134650
v -0.28411300 -0.07863300 0.14831850
v -0.28318000 -0.07863300 0.15180250
v -0.28062900 -0.07863300 0.15435350
v -0.28411300 -0.07863300 0.07139650
v -0.28411300 -0.15782700 0.07139650
v -0.28411300 -0.15782700 -0.14134650
v -0.28411300 -0.07863300 -0.10842550
v -0.28411300 -0.15782700 -0.10842550
v -0.25207900 -0.19024300 -0.14831550
v -0.25207900 -0.07863300 -0.14831550
v -0.25207900 0.23608300 -0.14831550
v -0.20704300 -0.19024300 -0.14831550
v -0.20704300 -0.07863300 -0.14831550
v -0.20704300 0.23608300 -0.14831550
v 0.21194500 -0.19064900 -0.14831550
v 0.21194500 -0.07893700 -0.14831550
v 0.21194500 0.23608300 -0.14831550
v 0.25554800 -0.19144600 -0.14831550
v 0.25705000 -0.07954300 -0.14831550
v 0.25705000 0.23608300 -0.14831550
v -0.24440000 -0.17985900 -0.15585750
v -0.24440000 -0.06918500 -0.15585750
v -0.21472200 -0.06918500 -0.15585750
v -0.21472100 -0.17985900 -0.15585750
v -0.21472200 0.20680200 -0.15585750
v -0.24440000 0.20680200 -0.15585750
v 0.24824700 -0.18091900 -0.15585750
v 0.24930100 -0.06999400 -0.15585750
v 0.21951300 -0.18027100 -0.15585750
v 0.21957700 -0.06950100 -0.15585750
v 0.24936600 0.20674600 -0.15585750
v 0.21964200 0.20674600 -0.15585750
v -0.15572000 0.19289400 -0.12628350
v 0.11785200 0.19289400 -0.12626550
v -0.16944100 0.19289400 -0.12357050
v -0.18124100 0.19289400 -0.11567950
v 0.13158200 0.19289400 -0.12355350
v -0.18909500 0.19289400 0.09880750
v -0.19181000 0.19289400 0.08509750
v -0.19178600 0.19289400 -0.09014050
v -0.18909200 0.19289400 -0.10386350
v 0.14340200 0.19289400 -0.11569250
v -0.18120300 0.19289400 0.11058450
v 0.15129500 0.19289400 -0.10388650
v -0.16940300 0.19289400 0.11841950
v 0.15399600 0.19289400 -0.09015950
v -0.15571100 0.19289400 0.12112850
v 0.11786600 0.19289400 0.12118750
v 0.15396600 0.19289400 0.08509850
v 0.13157700 0.19289400 0.11848550
v 0.15125500 0.19289400 0.09881250
v 0.14338100 0.19289400 0.11061450
v -0.28313800 -0.21019100 -0.11384050
v -0.28456200 -0.20950000 -0.11384050
v -0.28456200 -0.20950000 0.12164550
v -0.28313800 -0.21019100 0.12164550
v -0.28453800 -0.19224100 -0.11384050
v -0.28311100 -0.19155200 -0.11384050
v -0.28453700 -0.19224100 0.12164550
v -0.28311100 -0.19155200 0.12164550
v -0.28456200 -0.20950000 0.14823550
v -0.28313800 -0.21019100 0.14804750
v -0.28311100 -0.19155200 0.14804750
v -0.28453700 -0.19224100 0.14823550
v -0.21641300 -0.19155700 -0.14631950
v -0.27672600 -0.19155400 -0.14631950
v -0.27691500 -0.19224400 -0.14774550
v -0.21495000 -0.20950500 -0.14774550
v -0.21644000 -0.21019500 -0.14631950
v -0.21644000 -0.21019500 0.15443250
v -0.21489700 -0.20950500 0.15585750
v -0.21487200 -0.19224600 0.15585750
v -0.21641300 -0.19155700 0.15443250
v -0.27675300 -0.21019300 0.15443250
v -0.27694000 -0.20950300 0.15585750
v -0.27691500 -0.19224400 0.15585750
v -0.27672600 -0.19155400 0.15443250
v -0.27694000 -0.20950300 -0.14774550
v -0.27675300 -0.21019300 -0.14631950
v -0.28313800 -0.21019100 -0.13993450
v -0.28456200 -0.20950000 -0.14012250
v -0.28453700 -0.19224100 -0.14012250
v -0.28311100 -0.19155200 -0.13993450
v -0.28354100 -0.20950100 0.15204650
v -0.28226400 -0.21019100 0.15130850
v -0.28223700 -0.19155200 0.15130850
v -0.28351600 -0.19224200 0.15204650
v -0.28075100 -0.20950100 0.15483650
v -0.28001400 -0.21019200 0.15355850
v -0.27998700 -0.19155300 0.15355850
v -0.28072600 -0.19224200 0.15483650
v -0.28075100 -0.20950200 -0.14672450
v -0.28001400 -0.21019200 -0.14544550
v -0.27998700 -0.19155300 -0.14544550
v -0.28072600 -0.19224300 -0.14672450
v -0.28354100 -0.20950100 -0.14393350
v -0.28226400 -0.21019100 -0.14319550
v -0.28223700 -0.19155200 -0.14319550
v -0.28351600 -0.19224200 -0.14393350
v -0.27693800 -0.20873400 0.15585750
v -0.28075000 -0.20873300 0.15483650
v -0.28354000 -0.20873200 0.15204650
v -0.28456100 -0.20873200 0.14823550
v -0.28456100 -0.20873200 0.12164550
v -0.28456100 -0.20873200 -0.11384050
v -0.28456100 -0.20873200 -0.14012250
v -0.28354000 -0.20873200 -0.14393350
v -0.28075000 -0.20873300 -0.14672450
v -0.27693800 -0.20873400 -0.14774550
v -0.21488600 -0.19297700 -0.14774550
v -0.27691600 -0.19297500 -0.14774550
v -0.28072700 -0.19297300 -0.14672450
v -0.28351700 -0.19297200 -0.14393350
v -0.28453900 -0.19297200 -0.14012250
v -0.28453900 -0.19297200 -0.11384050
v -0.28453900 -0.19297200 0.12164550
v -0.28453900 -0.19297200 0.14823550
v -0.28351700 -0.19297200 0.15204650
v -0.28072700 -0.19297300 0.15483650
v -0.27691600 -0.19297400 0.15585750
vn -0.0000 -0.7077 0.7065
vn 0.0014 -0.8034 0.5954
vn -0.0000 -0.7071 0.7071
vn 0.7064 -0.7078 -0.0000
vn 0.5956 -0.8033 0.0018
vn 0.5947 -0.8040 0.0018
vn -0.5774 -0.5773 0.5773
vn 0.5111 -0.6910 0.5111
vn 0.5774 -0.5774 -0.5774
vn -0.0000 -0.7071 -0.7071
vn -0.7071 -0.7071 -0.0000
vn -0.7071 -0.0000 0.7071
vn 0.7071 -0.0000 0.7071
vn 0.7071 -0.0000 -0.7071
vn -0.5773 -0.5773 -0.5774
vn -0.0000 -0.0000 -1.0000
vn -1.0000 -0.0000 -0.0000
vn -0.3015 -0.9045 0.3015
vn 0.3015 -0.9045 0.3015
vn 0.3015 -0.9045 -0.3015
vn -0.7071 -0.0000 -0.7071
vn 0.7071 -0.7071 -0.0000
vn -0.3015 -0.9045 -0.3015
vn -0.0000 -1.0000 -0.0000
vn -0.3474 -0.7193 0.6017
vn -0.0919 -0.7101 0.6980
vn -0.0919 -0.7101 -0.6980
vn -0.3474 -0.7193 -0.6017
vn -0.3474 -0.7192 -0.6017
vn -0.6980 -0.7101 -0.0919
vn -0.6017 -0.7193 -0.3474
vn -0.6980 -0.7101 0.0919
vn -0.6017 -0.7193 0.3474
vn -0.3015 -0.3015 0.9045
vn -0.1305 -0.0000 0.9914
vn -0.0000 -0.0000 1.0000
vn -0.1305 -0.0000 -0.9914
vn -0.5000 -0.0000 -0.8660
vn -0.3015 -0.3015 -0.9045
vn -0.9659 -0.0000 -0.2588
vn -0.9914 -0.0000 -0.1305
vn -0.5000 -0.0000 0.8660
vn -0.0000 0.7071 0.7071
vn -0.0919 0.7101 0.6980
vn 0.1305 -0.0000 0.9914
vn -0.0919 0.7101 -0.6980
vn -0.3474 0.7193 -0.6017
vn -0.0000 0.7071 -0.7071
vn 0.1305 -0.0000 -0.9914
vn -0.6980 0.7101 -0.0919
vn -0.6017 0.7193 -0.3474
vn -0.6017 0.7192 -0.3474
vn -0.9914 -0.0000 0.1305
vn -0.9659 -0.0000 0.2588
vn -0.3474 0.7192 0.6017
vn 0.0919 0.7101 0.6980
vn -0.0000 1.0000 -0.0000
vn 0.5000 -0.0000 0.8660
vn 0.0919 0.7101 -0.6980
vn 0.2588 -0.0000 -0.9659
vn -0.6980 0.7101 0.0919
vn -0.6017 0.7192 0.3474
vn -0.3474 0.7193 0.6017
vn -0.6017 0.7193 0.3474
vn -0.7071 -0.7072 -0.0000
vn -0.7320 -0.6340 0.2493
vn -0.5949 -0.5405 0.5949
vn 0.3474 0.7192 0.6017
vn 0.8660 -0.0000 0.5000
vn 0.3474 0.7192 -0.6017
vn 0.5000 -0.0000 -0.8660
vn 0.0002 -1.0000 -0.0000
vn 0.0001 -1.0000 0.0001
vn -0.0000 -1.0000 0.0002
vn -0.6751 -0.4883 -0.5530
vn -0.6798 -0.4811 -0.5535
vn -0.6670 -0.5003 -0.5521
vn -0.7381 -0.6747 0.0046
vn -0.6708 -0.7416 0.0001
vn -0.6687 -0.7435 -0.0000
vn -0.0000 -0.6725 0.7401
vn 0.0962 -0.6756 0.7309
vn 0.3474 0.7193 0.6017
vn 0.6017 0.7192 0.3474
vn 0.6980 0.7101 0.0919
vn 0.6017 0.7193 0.3474
vn 0.6980 0.7101 -0.0919
vn 0.6981 0.7101 0.0919
vn 0.6017 0.7193 -0.3474
vn 0.9914 -0.0000 0.1305
vn 0.9914 -0.0000 -0.1305
vn 0.9659 -0.0000 -0.2588
vn 0.0919 -0.7101 -0.6980
vn -0.0000 -0.6714 -0.7411
vn 0.0002 -0.6667 -0.7453
vn -0.0000 -0.6715 -0.7410
vn -0.0000 -0.7321 0.6812
vn 0.3642 -0.6852 0.6308
vn 0.9659 -0.0000 0.2588
vn 0.3474 -0.7192 -0.6017
vn -0.5774 -0.5773 -0.5774
vn 0.6756 -0.4847 -0.5556
vn 0.6803 -0.4776 -0.5561
vn 0.6876 -0.4663 -0.5566
vn 0.7072 -0.7071 0.0001
vn 0.7321 -0.6340 0.2493
vn 0.6718 -0.7407 0.0002
vn 0.7295 -0.6768 0.0988
vn 0.6695 -0.7428 -0.0000
vn 0.7305 -0.6756 0.0990
vn 0.6308 -0.6852 0.3642
vn 0.9915 -0.0000 0.1302
vn 1.0000 -0.0000 -0.0000
vn 0.6017 -0.7193 -0.3474
vn 0.6980 -0.7101 -0.0919
vn 0.7321 -0.6340 0.2494
vn 0.5631 0.8264 -0.0000
vn -0.0000 0.7335 -0.6796
vn -0.5631 0.8264 -0.0000
vn -0.0000 0.7335 0.6796
vn -0.7007 -0.0000 -0.7134
vn 0.7007 -0.0000 -0.7134
vn -0.0000 -0.5877 -0.8091
vn -0.0000 0.2494 -0.9684
vn 0.6951 -0.0049 -0.7189
vn 0.7109 -0.0094 -0.7032
vn 0.6963 -0.0019 -0.7178
vn -0.0123 -0.5834 -0.8121
vn -0.0111 -0.5863 -0.8100
vn -0.0107 -0.5873 -0.8093
vn -0.7031 0.0003 -0.7111
vn -0.7058 -0.0000 -0.7085
vn -0.7059 -0.0000 -0.7083
vn 0.7004 -0.0000 -0.7137
vn 0.7005 -0.0000 -0.7137
vn -0.6999 -0.0000 -0.7142
vn -0.7030 0.0002 -0.7112
vn -0.0000 0.2490 -0.9685
vn 0.0236 -0.9994 0.0239
vn 0.0013 -0.9992 0.0394
vn 0.0054 -0.9998 0.0201
vn 0.0102 -0.9999 0.0101
vn -0.0000 -1.0000 0.0011
vn 0.0015 -1.0000 0.0002
vn 0.0094 -1.0000 0.0011
vn 0.0203 -0.9998 0.0054
vn 0.0457 -0.9990 0.0005
vn 0.0014 -0.8040 0.5947
vn 0.2588 -0.0000 0.9659
vn -0.7320 -0.6340 0.2494
vn 0.0003 -1.0000 -0.0000
vn -0.6874 -0.4695 -0.5542
vn -0.7401 -0.6725 0.0047
vn 0.0002 -0.6666 -0.7454
vn 0.6677 -0.4962 -0.5549
vn 0.7118 -0.0096 -0.7024
vn -0.0131 -0.5815 -0.8134
vn -0.6999 -0.0000 -0.7143
vn -0.4360 -0.8999 -0.0000
vn -0.4293 -0.9014 -0.0565
vn -0.4293 -0.9014 0.0565
vn -0.4351 0.9004 -0.0000
vn -0.4284 0.9018 -0.0564
vn -0.4283 0.9019 0.0564
vn -0.3671 -0.9057 0.2118
vn -0.3662 0.9061 0.2116
vn 0.0003 0.7148 -0.6993
vn -0.0511 0.9003 -0.4323
vn -0.0000 0.7084 -0.7058
vn -0.0509 0.9016 -0.4295
vn -0.2113 0.9060 -0.3666
vn -0.0000 -0.9002 -0.4356
vn -0.0567 -0.9016 -0.4289
vn -0.0566 -0.9016 -0.4289
vn -0.0000 -0.9002 0.4356
vn -0.0567 -0.9016 0.4289
vn -0.0000 0.9002 0.4355
vn -0.0563 0.9017 0.4288
vn -0.0566 -0.9016 0.4289
vn -0.2121 -0.9058 0.3668
vn -0.2113 0.9061 0.3666
vn -0.2114 0.9061 0.3666
vn -0.2121 -0.9058 -0.3668
vn -0.2120 -0.9058 -0.3668
vn -0.3671 -0.9057 -0.2118
vn -0.3663 0.9061 -0.2116
vn -0.2120 -0.9058 0.3668
vn -1.0000 0.0015 -0.0000
vn -1.0000 0.0014 -0.0000
vn -0.9914 0.0014 -0.1305
vn -0.9914 0.0014 0.1305
vn -0.1306 0.0002 -0.9914
vn -0.1305 0.0002 -0.9914
vn 0.0001 1.0000 -0.0000
vn -0.0001 -1.0000 -0.0000
vn -0.9659 0.0014 0.2588
vn -0.7071 0.0010 0.7071
vn -0.1305 0.0002 0.9914
vn -0.2588 0.0004 0.9659
vn -0.1306 0.0002 0.9914
vn -0.5001 0.0007 -0.8659
vn -0.5000 0.0007 -0.8660
vn -0.7071 0.0010 -0.7071
vn -0.9659 0.0014 -0.2588
vn -0.0001 -1.0000 -0.0002
vn -0.0003 -1.0000 -0.0000
vn -0.0004 -1.0000 -0.0000
vn 0.0003 1.0000 -0.0000
vn 0.0001 1.0000 0.0002
vn 0.0001 1.0000 0.0001
vn -0.0001 -1.0000 0.0001
vn 0.0001 1.0000 -0.0001
vn 0.0001 1.0000 -0.0002
vn 0.4199 -0.9076 -0.0001
vn 0.4081 -0.9129 -0.0000
vn 0.4080 -0.9130 -0.0000
vn -0.1304 0.0002 0.9915
vn -0.5000 0.0007 0.8660
vn -0.8660 0.0013 0.5001
vn -0.4999 0.0007 0.8661
vn -0.8660 0.0013 0.5000
vn -0.8660 0.0012 -0.5000
vn -0.8660 0.0012 -0.5001
vn -0.1309 0.0002 -0.9914
vn -0.4998 0.0007 -0.8661
vn 0.4108 0.9117 -0.0000
vn 0.6795 0.7337 -0.0018
vn 0.4084 0.9128 -0.0000
vn 1.0000 -0.0038 -0.0000
vn 1.0000 -0.0015 -0.0002
vn 1.0000 -0.0014 -0.0002
vn -0.3663 0.9061 0.2116
vn -0.2114 0.9060 -0.3666
vn -0.0001 -1.0000 -0.0001
vn -0.0001 -1.0000 0.0002
vn 0.0004 1.0000 -0.0000
vn 0.6801 0.7331 -0.0018
vn 1.0000 -0.0039 -0.0000
vt 0.780931 0.742977
vt 0.811417 0.743187
vt 0.780934 0.743187
vt 0.781609 0.746424
vt 0.801730 0.747050
vt 0.801718 0.747306
vt 0.780725 0.743183
vt 0.801937 0.747228
vt 0.781422 0.746296
vt 0.781626 0.746137
vt 0.779282 0.776504
vt 0.809764 0.776713
vt 0.779280 0.776713
vt 0.784018 0.745490
vt 0.804204 0.745696
vt 0.784020 0.745696
vt 0.780716 0.775394
vt 0.780926 0.775398
vt 0.811408 0.775398
vt 0.811619 0.743183
vt 0.811611 0.775394
vt 0.809966 0.744294
vt 0.809767 0.776504
vt 0.809763 0.744291
vt 0.779074 0.776507
vt 0.779278 0.744291
vt 0.804204 0.777911
vt 0.659449 0.270009
vt 0.661962 0.272342
vt 0.659449 0.275789
vt 0.871645 0.717497
vt 0.869921 0.715987
vt 0.873531 0.713767
vt 0.701000 0.706798
vt 0.699277 0.708121
vt 0.697716 0.704203
vt 0.779070 0.744294
vt 0.778868 0.744083
vt 0.784020 0.777911
vt 0.804618 0.778117
vt 0.783611 0.778117
vt 0.811823 0.775607
vt 0.780517 0.775607
vt 0.710409 0.272665
vt 0.707835 0.275206
vt 0.707835 0.270009
vt 0.679032 0.930649
vt 0.679032 0.660380
vt 0.892216 0.942246
vt 0.873531 0.929100
vt 0.682989 0.657344
vt 0.888259 0.668510
vt 0.679577 0.658739
vt 0.891671 0.670276
vt 0.892216 0.671977
vt 0.890292 0.669069
vt 0.680956 0.657681
vt 0.985956 0.592311
vt 0.982928 0.590462
vt 0.986866 0.590479
vt 0.461359 0.592297
vt 0.982719 0.592297
vt 0.352272 0.588189
vt 0.349256 0.590025
vt 0.348339 0.588201
vt 0.380474 0.588189
vt 0.431145 0.588189
vt 0.352490 0.590016
vt 0.407113 0.493549
vt 0.405307 0.496564
vt 0.405307 0.493331
vt 0.407113 0.167640
vt 0.988177 0.592346
vt 0.989782 0.590525
vt 0.459552 0.594103
vt 0.457717 0.590462
vt 0.982961 0.464896
vt 0.459649 0.110825
vt 0.983054 0.110825
vt 0.345437 0.588233
vt 0.347046 0.590050
vt 0.352211 0.108520
vt 0.348323 0.462626
vt 0.348278 0.108532
vt 0.431128 0.462615
vt 0.875650 0.108520
vt 0.877029 0.462615
vt 0.875692 0.591822
vt 0.873885 0.590016
vt 0.877518 0.588189
vt 0.886813 0.497482
vt 0.532695 0.493549
vt 0.886813 0.493549
vt 0.532695 0.456509
vt 0.405307 0.164683
vt 0.407113 0.163731
vt 0.986899 0.464913
vt 0.683545 0.512439
vt 0.685351 0.174440
vt 0.685352 0.512419
vt 0.162747 0.237108
vt 0.162837 0.237129
vt 0.162744 0.237125
vt 0.982618 0.107100
vt 0.458223 0.464896
vt 0.358949 0.110825
vt 0.345421 0.462659
vt 0.345375 0.108565
vt 0.350199 0.104784
vt 0.352666 0.104777
vt 0.380412 0.108520
vt 0.953289 0.463638
vt 0.976357 0.108520
vt 0.976403 0.463948
vt 0.162844 0.236200
vt 0.162744 0.236215
vt 0.162744 0.236198
vt 0.890599 0.495558
vt 0.886813 0.167640
vt 0.532696 0.163731
vt 0.886813 0.163731
vt 0.989908 0.110889
vt 0.986991 0.110842
vt 0.985087 0.107111
vt 0.162739 0.234771
vt 0.162836 0.234501
vt 0.162743 0.234499
vt 0.162720 0.234759
vt 0.162722 0.234499
vt 0.162723 0.237107
vt 0.162723 0.237124
vt 0.162836 0.236653
vt 0.162732 0.236649
vt 0.359510 0.107100
vt 0.740247 0.428799
vt 0.439200 0.172038
vt 0.740247 0.172038
vt 0.354953 0.466246
vt 0.358856 0.466229
vt 0.886813 0.500383
vt 0.902495 0.108520
vt 0.975815 0.104777
vt 0.953244 0.108520
vt 0.980312 0.463960
vt 0.162860 0.236326
vt 0.162844 0.236540
vt 0.890599 0.168180
vt 0.890599 0.493092
vt 0.890599 0.165728
vt 0.986546 0.107134
vt 0.162744 0.235935
vt 0.004166 0.850871
vt 0.009976 0.168910
vt 0.009977 0.849154
vt 0.162709 0.237115
vt 0.162709 0.236648
vt 0.162683 0.236870
vt 0.162706 0.236768
vt 0.162706 0.236871
vt 0.850740 0.466409
vt 0.773765 0.466409
vt 0.854238 0.461855
vt 0.357062 0.107111
vt 0.352129 0.466292
vt 0.355046 0.110842
vt 0.978267 0.104784
vt 0.980266 0.108532
vt 0.983104 0.108565
vt 0.163142 0.236226
vt 0.163253 0.236245
vt 0.163143 0.236248
vt 0.162709 0.236646
vt 0.162729 0.236215
vt 0.162730 0.236198
vt 0.162728 0.235948
vt 0.320062 0.846981
vt 0.320071 0.166744
vt 0.162727 0.234783
vt 0.162709 0.234770
vt 0.161656 0.236771
vt 0.161673 0.236789
vt 0.161656 0.236792
vt 0.010659 1.012063
vt 0.004896 0.858517
vt 0.010659 0.856758
vt 0.010139 1.016942
vt 0.302217 1.010027
vt 0.302400 1.014901
vt 0.162683 0.236893
vt 0.162706 0.236894
vt 0.162656 0.236870
vt 0.162683 0.236767
vt 0.856560 0.129634
vt 0.853732 0.134464
vt 0.852629 0.133029
vt 0.859571 0.136425
vt 0.858764 0.132504
vt 0.859571 0.462354
vt 0.854238 0.136923
vt 0.853732 0.464314
vt 0.852629 0.465750
vt 0.858764 0.466275
vt 0.856560 0.469145
vt 0.738809 0.191917
vt 0.510398 0.187996
vt 0.738002 0.187996
vt 0.511205 0.517846
vt 0.738002 0.521767
vt 0.510398 0.521767
vt 0.163141 0.236199
vt 0.163252 0.236223
vt 0.163268 0.236222
vt 0.163270 0.236244
vt 0.010139 0.006720
vt 0.302170 0.010448
vt 0.010612 0.012483
vt 0.320754 0.854592
vt 0.320706 0.159591
vt 0.004801 0.159271
vt 0.004801 0.012100
vt 0.162679 0.236907
vt 0.162656 0.236893
vt 0.162632 0.236871
vt 0.162656 0.236767
vt 0.738809 0.517846
vt 0.163140 0.236174
vt 0.163251 0.236196
vt 0.302400 0.004680
vt 0.311695 0.012936
vt 0.162717 0.236206
vt 0.163270 0.234733
vt 0.163263 0.234757
vt 0.163251 0.234746
vt 0.324936 0.164185
vt 0.324927 0.848645
vt 0.325666 0.856298
vt 0.320754 0.991347
vt 0.162632 0.236894
vt 0.162659 0.236907
vt 0.162639 0.236908
vt 0.163244 0.234499
vt 0.163140 0.234502
vt 0.163140 0.235946
vt 0.163251 0.235933
vt 0.163251 0.236171
vt 0.163267 0.236195
vt 0.163280 0.236197
vt 0.163281 0.236217
vt 0.163267 0.236171
vt 0.325572 0.157032
vt 0.320706 0.028870
vt 0.325572 0.027708
vt 0.161606 0.236789
vt 0.161622 0.236771
vt 0.161622 0.236792
vt 0.163267 0.234499
vt 0.163267 0.235946
vt 0.754403 0.163395
vt 0.773765 0.132370
vt 0.435301 0.437443
vt 0.754403 0.437443
vt 0.413715 0.388631
vt 0.414035 0.387073
vt 0.415931 0.385746
vt 0.435301 0.163395
vt 0.372066 0.466409
vt 0.625529 0.131177
vt 0.633439 0.534740
vt 0.625529 0.546591
vt 0.651440 0.270009
vt 0.659449 0.535526
vt 0.651440 0.544041
vt 0.633439 0.546563
vt 0.641307 0.143070
vt 0.641307 0.534954
vt 0.318154 0.019355
vt 0.318201 1.000898
vt 0.311742 1.007407
vt 0.010611 0.161756
vt 0.358823 0.592268
vt 0.354920 0.592285
vt 0.352096 0.592331
vt 0.819525 0.191917
vt 0.818718 0.187996
vt 0.819525 0.473404
vt 0.818719 0.521767
vt 0.983149 0.463993
vt 0.980328 0.590007
vt 0.976419 0.589995
vt 0.951616 0.589542
vt 0.352256 0.462615
vt 0.407113 0.497481
vt 0.443587 0.493549
vt 0.532696 0.167640
vt 0.989815 0.464959
vt 0.443587 0.254186
vt 0.443587 0.456509
vt 0.532696 0.254186
vt 0.380457 0.462615
vt 0.160791 0.234576
vt 0.160646 0.235400
vt 0.160646 0.234572
vt 0.160791 0.237469
vt 0.160646 0.237465
vt 0.902540 0.462957
vt 0.160336 0.235397
vt 0.160482 0.234576
vt 0.160482 0.235405
vt 0.160336 0.237467
vt 0.160481 0.237471
vt 0.160872 0.235334
vt 0.160872 0.234499
vt 0.160872 0.235333
vt 0.160952 0.234576
vt 0.160952 0.235404
vt 0.162192 0.236767
vt 0.162254 0.237039
vt 0.162192 0.237102
vt 0.160952 0.237468
vt 0.160872 0.237687
vt 0.160791 0.235404
vt 0.160872 0.237688
vt 0.160562 0.235336
vt 0.160646 0.234577
vt 0.160642 0.235407
vt 0.162254 0.236767
vt 0.162317 0.237031
vt 0.162254 0.237092
vt 0.160562 0.235334
vt 0.160562 0.234499
vt 0.160646 0.237477
vt 0.160566 0.237696
vt 0.160341 0.237685
vt 0.160562 0.237691
vt 0.801144 0.750290
vt 0.800907 0.749328
vt 0.800233 0.748479
vt 0.801937 0.772278
vt 0.801092 0.770212
vt 0.801313 0.769270
vt 0.786376 0.747116
vt 0.785220 0.747252
vt 0.799230 0.747889
vt 0.800436 0.771002
vt 0.784230 0.747755
vt 0.798069 0.747649
vt 0.799443 0.771504
vt 0.783576 0.748543
vt 0.798286 0.771639
vt 0.783356 0.749483
vt 0.781832 0.771365
vt 0.783521 0.768463
vt 0.783757 0.769424
vt 0.785431 0.770865
vt 0.786591 0.771106
vt 0.784430 0.770273
vt 0.697716 0.919536
vt 0.804202 0.745490
vt 0.809970 0.776507
vt 0.810177 0.744083
vt 0.405307 0.167897
vt 0.431083 0.108520
vt 0.532695 0.497482
vt 0.683545 0.174459
vt 0.162862 0.237113
vt 0.459712 0.107100
vt 0.875607 0.104777
vt 0.162868 0.236218
vt 0.439200 0.428799
vt 0.890599 0.497009
vt 0.162836 0.236648
vt 0.162725 0.236646
vt 0.004166 0.166425
vt 0.850740 0.132370
vt 0.752088 0.542394
vt 0.753977 0.543053
vt 0.755079 0.544488
vt 0.721404 0.594487
vt 0.721083 0.596045
vt 0.720385 0.596955
vt 0.719188 0.597372
vt 0.352222 0.110889
vt 0.161673 0.236768
vt 0.004801 1.011637
vt 0.511205 0.191917
vt 0.162698 0.236908
vt 0.162632 0.236768
vt 0.313986 0.007706
vt 0.163281 0.234744
vt 0.325571 0.991550
vt 0.163280 0.236177
vt 0.161606 0.236768
vt 0.633439 0.142830
vt 0.659449 0.278781
vt 0.633439 0.131177
vt 0.819525 0.517846
vt 0.983165 0.590040
vt 0.902556 0.588646
vt 0.160341 0.234567
vt 0.162254 0.236817
vt 0.160651 0.237682
vt 0.160567 0.234499
vt 0.162317 0.236817
vt 0.805413 0.773000
vt 0.785228 0.752372
vt 0.805413 0.752372
vt 0.162192 0.236510
vt 0.162181 0.236705
vt 0.162181 0.236510
vt 0.162181 0.234753
vt 0.162192 0.234754
vt 0.162181 0.234556
vt 0.162192 0.234555
vt 0.162192 0.236507
vt 0.162203 0.236702
vt 0.162192 0.236703
vt 0.162203 0.236507
vt 0.162192 0.234753
vt 0.162203 0.234753
vt 0.162203 0.234556
vt 0.162174 0.234532
vt 0.162184 0.234527
vt 0.162192 0.234555
vt 0.162210 0.234532
vt 0.162708 0.236767
vt 0.162250 0.236750
vt 0.162698 0.236755
vt 0.162248 0.236761
vt 0.162226 0.236743
vt 0.161673 0.236767
vt 0.162133 0.236753
vt 0.162135 0.236764
vt 0.161673 0.234502
vt 0.162133 0.234509
vt 0.161684 0.234512
vt 0.162709 0.234504
vt 0.162250 0.234509
vt 0.162248 0.234499
vt 0.162135 0.234499
vt 0.162157 0.234515
vt 0.162226 0.234515
vt 0.162220 0.234506
vt 0.162157 0.236746
vt 0.162163 0.236756
vt 0.162192 0.236706
vt 0.162174 0.236729
vt 0.162210 0.236726
vt 0.162199 0.236732
vt 0.162163 0.234506
vt 0.162184 0.236735
vt 0.162887 0.235981
vt 0.162869 0.234649
vt 0.162875 0.234649
vt 0.162888 0.236130
vt 0.162881 0.235981
vt 0.162868 0.234499
vt 0.162874 0.234499
vt 0.162868 0.236514
vt 0.162881 0.236210
vt 0.162887 0.236211
vt 0.161684 0.236756
vt 0.162867 0.237053
vt 0.162864 0.237027
vt 0.162870 0.237027
vt 0.162866 0.236998
vt 0.162872 0.236998
vt 0.162872 0.236972
vt 0.162866 0.236972
vt 0.162882 0.236186
vt 0.162888 0.236186
vt 0.162888 0.236157
vt 0.162882 0.236157
vt 0.162882 0.236130
vt 0.162995 0.236979
vt 0.162989 0.237004
vt 0.162989 0.236979
vt 0.162993 0.237034
vt 0.162994 0.237005
vt 0.162985 0.237060
vt 0.162987 0.237034
vt 0.162998 0.234651
vt 0.162992 0.234500
vt 0.162997 0.234501
vt 0.163010 0.235983
vt 0.162993 0.234651
vt 0.163011 0.236132
vt 0.163005 0.235983
vt 0.163006 0.236158
vt 0.163006 0.236132
vt 0.163011 0.236158
vt 0.163005 0.236188
vt 0.163010 0.236212
vt 0.163011 0.236188
vt 0.162992 0.236516
vt 0.163005 0.236212
vt 0.162698 0.234514
vt 0.163135 0.236251
vt 0.163011 0.234502
vt 0.163140 0.234499
vt 0.162990 0.236655
vt 0.162862 0.236648
vt 0.162199 0.234527
vt 0.162220 0.236753
vt 0.162862 0.237053
vt 0.162990 0.237060
vt 0.163011 0.236254
vt 0.785228 0.773000
vt 0.414734 0.386164
vt 0.372066 0.132370
vt 0.368569 0.461855
vt 0.370177 0.465750
vt 0.414734 0.596955
vt 0.414035 0.596045
vt 0.413715 0.594487
vt 0.368569 0.136923
s 1
f 3/1/1 5/2/2 4/3/3
f 2/4/4 7/5/5 1/6/6
f 9/7/7 3/1/7 4/3/7
f 1/6/8 7/5/8 5/8/8
f 10/9/9 6/10/9 2/4/9
f 11/11/10 2/12/10 8/13/10
f 8/14/11 9/15/11 12/16/11
f 15/17/12 4/3/12 13/18/12
f 14/19/13 7/20/13 16/21/13
f 18/22/14 10/23/14 17/24/14
f 12/25/15 11/11/15 8/13/15
f 17/24/16 11/11/16 19/26/16
f 15/27/17 12/16/17 9/15/17
f 15/28/18 13/29/18 21/30/18
f 14/31/19 16/32/19 22/33/19
f 18/34/20 17/35/20 23/36/20
f 19/26/21 12/25/21 20/37/21
f 24/38/10 17/24/10 19/26/10
f 20/39/11 21/40/11 24/41/11
f 13/18/3 22/42/3 21/43/3
f 23/36/22 16/32/22 18/34/22
f 19/44/23 20/45/23 24/46/23
f 23/36/24 29/47/24 25/48/24
f 22/33/24 31/49/24 21/50/24
f 22/33/24 33/51/24 27/52/24
f 23/36/24 25/48/24 28/53/24
f 22/33/24 30/54/24 26/55/24
f 22/33/24 27/52/24 32/56/24
f 23/36/24 28/53/24 34/57/24
f 28/58/25 35/59/26 44/60/25
f 29/61/3 35/59/26 25/62/26
f 22/33/24 32/56/24 30/54/24
f 37/63/27 30/64/28 38/65/29
f 173/66/10 176/67/10 26/68/27
f 40/69/30 32/70/31 27/71/30
f 27/71/30 42/72/32 40/69/30
f 23/36/24 34/57/24 33/51/24
f 34/73/33 44/60/25 43/74/33
f 29/61/34 45/75/34 36/76/34
f 150/77/35 47/78/36 46/79/35
f 41/80/31 30/64/28 32/81/31
f 49/82/37 162/83/38 48/84/38
f 177/85/16 50/86/16 160/87/16
f 51/88/39 31/89/39 39/90/39
f 53/91/40 164/92/41 52/93/41
f 52/93/41 164/92/41 171/94/17
f 42/72/32 34/95/33 43/96/33
f 46/79/35 167/97/42 150/77/35
f 51/98/11 29/99/11 31/100/11
f 56/101/12 45/102/12 55/103/12
f 47/78/43 58/104/44 46/79/44
f 151/105/36 60/106/45 47/78/36
f 48/84/38 163/107/21 53/108/21
f 49/82/46 62/109/47 61/110/46
f 175/111/48 49/82/46 61/110/46
f 183/112/16 65/113/49 159/114/49
f 51/115/21 66/116/21 86/117/21
f 52/93/50 68/118/51 53/91/52
f 69/119/53 166/120/54 70/121/54
f 70/122/12 167/97/42 54/123/42
f 71/124/55 46/79/44 58/104/44
f 51/115/17 73/125/17 45/126/17
f 55/127/17 89/128/17 74/129/17
f 75/130/12 55/103/12 74/131/12
f 59/132/45 56/101/36 76/133/45
f 77/134/56 47/78/43 60/106/56
f 147/135/57 149/136/57 146/137/57
f 153/138/58 60/106/45 152/139/45
f 68/118/51 48/140/47 53/91/52
f 181/141/48 82/142/59 184/143/48
f 65/113/49 158/144/60 159/114/49
f 66/116/16 179/145/16 182/146/16
f 52/93/50 78/147/61 67/148/50
f 69/119/61 79/149/62 78/147/61
f 54/123/63 79/150/62 70/122/64
f 72/151/17 51/115/17 86/117/17
f 73/152/65 88/153/66 87/154/65
f 74/131/67 90/155/67 75/130/67
f 76/133/45 75/130/36 91/156/45
f 92/157/58 59/158/45 76/159/45
f 82/160/57 63/161/57 96/162/57
f 60/106/56 93/163/68 77/134/56
f 154/164/69 81/165/13 153/138/58
f 65/113/59 98/166/70 83/167/70
f 101/168/14 158/144/14 83/167/14
f 84/169/71 85/170/49 64/171/49
f 66/116/16 105/172/49 104/173/16
f 66/116/21 121/174/21 86/117/21
f 106/175/17 86/117/17 121/174/17
f 107/176/72 88/153/73 123/177/74
f 89/128/75 87/178/76 108/179/77
f 88/180/66 106/181/66 109/182/66
f 90/183/78 89/184/79 108/185/80
f 75/186/81 110/187/82 91/188/82
f 111/189/58 76/159/45 91/190/45
f 112/191/13 80/192/58 92/157/58
f 81/193/83 94/194/84 93/195/68
f 113/196/85 94/194/84 100/197/86
f 114/198/87 95/199/88 113/196/85
f 114/198/87 97/200/89 96/162/87
f 98/201/70 101/202/89 83/203/70
f 155/204/90 100/205/69 154/206/69
f 114/207/91 157/208/92 101/209/92
f 102/210/14 103/211/71 84/169/71
f 85/170/49 118/212/71 105/213/49
f 104/214/10 120/215/93 119/216/10
f 87/154/94 122/217/95 108/185/96
f 88/153/97 135/218/97 123/177/97
f 119/216/11 106/219/66 121/220/11
f 91/190/82 126/221/98 111/189/98
f 127/222/13 92/157/58 111/189/58
f 128/223/90 99/224/69 112/191/99
f 114/207/91 155/204/90 156/225/91
f 116/226/91 117/227/92 102/210/92
f 117/227/14 118/212/71 103/211/71
f 105/228/93 132/229/100 120/215/93
f 121/174/101 104/173/101 119/230/101
f 136/231/102 107/232/103 137/233/104
f 107/176/105 138/234/106 137/235/105
f 136/236/107 124/237/108 122/217/109
f 139/238/110 125/239/111 124/240/108
f 111/189/98 125/239/111 127/222/111
f 139/238/112 112/191/99 127/222/99
f 128/241/90 137/233/113 115/242/90
f 137/233/113 129/243/113 115/242/90
f 138/244/113 116/226/91 129/243/113
f 138/244/113 130/245/91 116/226/91
f 130/245/91 131/246/92 117/227/92
f 118/212/100 133/247/114 132/248/100
f 140/249/115 133/247/114 131/246/114
f 141/250/106 134/251/115 140/252/115
f 141/253/106 123/254/116 135/255/106
f 136/231/113 128/241/90 139/256/112
f 130/245/91 141/257/113 140/249/91
f 63/161/57 142/258/57 57/259/57
f 63/161/57 144/260/57 143/261/57
f 78/262/57 79/263/57 58/264/57
f 145/265/57 144/260/57 61/266/57
f 143/261/117 146/137/117 142/258/117
f 144/267/118 147/268/118 143/269/118
f 145/270/119 148/271/119 144/272/119
f 145/273/120 146/274/120 149/275/120
f 55/127/17 45/126/17 73/125/17
f 135/218/24 133/276/24 134/251/24
f 110/187/24 125/277/24 126/278/24
f 125/277/24 122/217/24 124/237/24
f 108/185/24 110/187/24 90/183/24
f 109/279/24 120/215/24 135/218/24
f 120/215/24 133/276/24 135/218/24
f 151/105/36 35/59/35 36/76/36
f 152/139/45 36/76/36 59/280/45
f 80/281/58 152/139/45 59/280/45
f 99/282/69 153/138/58 80/281/58
f 115/283/90 154/206/69 99/284/69
f 155/204/90 115/283/90 129/285/113
f 156/225/91 102/286/92 157/208/92
f 157/287/14 84/288/71 158/144/14
f 158/144/60 64/289/49 159/114/49
f 182/290/16 159/114/49 64/289/49
f 176/67/16 160/87/16 39/90/16
f 161/291/37 38/65/38 162/83/38
f 163/107/21 38/65/38 41/80/21
f 41/292/40 40/69/41 170/293/41
f 165/294/53 43/96/54 166/120/54
f 166/295/12 44/60/42 167/97/42
f 167/97/42 35/59/35 150/77/35
f 169/296/17 40/69/41 42/72/53
f 172/297/17 168/298/17 171/94/17
f 172/297/17 164/92/41 170/293/41
f 40/69/41 172/297/17 170/293/41
f 37/63/37 174/299/16 173/66/16
f 174/299/16 49/82/37 175/111/16
f 185/300/16 187/301/16 188/302/16
f 187/301/16 190/303/16 189/304/16
f 180/305/16 39/90/16 160/87/16
f 181/141/16 160/87/16 50/86/16
f 192/306/16 193/307/16 194/308/16
f 195/309/16 194/308/16 196/310/16
f 174/311/121 185/300/121 173/312/121
f 177/313/122 188/314/122 187/315/122
f 173/316/123 188/317/123 176/318/123
f 177/313/122 189/319/122 178/320/122
f 174/311/121 190/303/121 186/321/121
f 175/322/124 189/304/124 190/303/124
f 183/323/125 191/324/126 192/325/127
f 179/326/128 191/327/129 182/328/130
f 180/329/131 193/307/132 179/330/133
f 183/323/125 195/331/134 184/332/135
f 180/329/131 196/310/136 194/308/137
f 184/333/138 196/310/138 181/334/138
f 165/294/53 169/296/17 42/72/53
f 69/119/53 168/298/17 165/294/53
f 52/93/41 168/298/17 69/119/53
f 1/6/139 197/335/140 199/336/141
f 1/6/139 199/336/141 200/337/142
f 3/338/143 201/339/24 198/340/24
f 2/4/144 203/341/145 202/342/24
f 1/6/139 200/337/142 205/343/146
f 3/338/143 206/344/24 201/339/24
f 2/4/144 202/342/24 207/345/24
f 1/6/139 205/343/146 204/346/147
f 3/338/143 208/347/24 206/344/24
f 2/4/144 207/345/24 209/348/24
f 3/338/143 210/349/24 208/347/24
f 2/4/144 209/348/24 211/350/24
f 8/351/24 212/352/24 214/353/24
f 8/351/24 215/354/24 213/355/24
f 8/351/24 214/353/24 216/356/24
f 8/351/24 216/356/24 215/354/24
f 5/2/36 13/18/36 4/3/36
f 21/50/24 29/47/24 24/357/24
f 3/338/1 1/6/148 5/8/2
f 2/4/4 6/10/22 7/5/5
f 11/11/10 10/23/10 2/12/10
f 8/14/11 3/358/11 9/15/11
f 15/17/12 9/7/12 4/3/12
f 14/19/13 5/2/13 7/20/13
f 18/22/14 6/359/14 10/23/14
f 17/24/16 10/23/16 11/11/16
f 15/27/17 20/39/17 12/16/17
f 19/26/21 11/11/21 12/25/21
f 24/38/10 23/360/10 17/24/10
f 20/39/11 15/27/11 21/40/11
f 13/18/3 14/19/3 22/42/3
f 23/36/22 22/33/22 16/32/22
f 23/36/24 24/357/24 29/47/24
f 22/33/24 26/55/24 31/49/24
f 22/33/24 23/36/24 33/51/24
f 28/58/25 25/62/26 35/59/26
f 29/61/3 36/76/3 35/59/26
f 37/63/27 26/68/27 30/64/28
f 176/67/10 39/90/10 31/89/10
f 31/89/10 26/68/27 176/67/10
f 26/68/27 37/63/27 173/66/10
f 40/69/30 41/292/31 32/70/31
f 27/71/30 33/361/32 42/72/32
f 34/73/33 28/58/25 44/60/25
f 150/77/35 151/105/36 47/78/36
f 41/80/31 38/65/29 30/64/28
f 49/82/37 161/291/37 162/83/38
f 177/85/16 178/362/16 50/86/16
f 53/91/40 163/363/40 164/92/41
f 42/72/32 33/361/32 34/95/33
f 46/79/35 54/123/42 167/97/42
f 51/98/11 45/364/11 29/99/11
f 56/101/12 36/365/12 45/102/12
f 47/78/43 57/366/43 58/104/44
f 151/105/36 152/139/45 60/106/45
f 48/84/38 162/83/38 163/107/21
f 49/82/46 48/84/47 62/109/47
f 61/110/46 63/367/48 178/362/48
f 63/367/48 50/86/48 178/362/48
f 178/362/48 175/111/48 61/110/46
f 183/112/16 184/143/16 65/113/49
f 51/115/21 39/368/21 66/116/21
f 52/93/50 67/148/50 68/118/51
f 69/119/53 165/294/53 166/120/54
f 70/122/12 166/295/12 167/97/42
f 71/124/55 54/123/63 46/79/44
f 51/115/17 72/151/17 73/125/17
f 55/127/17 73/125/17 89/128/17
f 75/130/12 56/101/12 55/103/12
f 59/132/45 36/365/36 56/101/36
f 77/134/56 57/366/43 47/78/43
f 147/135/57 148/369/57 149/136/57
f 153/138/58 81/165/149 60/106/45
f 68/118/51 62/370/47 48/140/47
f 181/141/48 50/86/48 63/367/48
f 63/367/48 82/142/59 181/141/48
f 82/142/59 65/113/59 184/143/48
f 65/113/49 83/167/60 158/144/60
f 64/371/49 85/372/49 182/146/16
f 85/372/49 66/116/16 182/146/16
f 66/116/16 39/368/16 179/145/16
f 52/93/50 69/119/61 78/147/61
f 69/119/61 70/121/64 79/149/62
f 54/123/63 71/124/55 79/150/62
f 73/152/65 72/373/150 88/153/66
f 76/133/45 56/101/36 75/130/36
f 92/157/58 80/192/58 59/158/45
f 63/161/57 57/259/57 95/199/57
f 57/259/57 77/374/57 95/199/57
f 95/199/57 77/374/57 94/194/57
f 77/375/57 93/376/57 94/377/57
f 95/199/57 96/162/57 63/161/57
f 96/378/57 97/379/57 98/380/57
f 98/380/57 82/381/57 96/378/57
f 60/106/56 81/165/83 93/163/68
f 154/164/69 100/382/69 81/165/13
f 65/113/59 82/142/59 98/166/70
f 101/168/14 157/287/14 158/144/14
f 84/169/71 103/211/71 85/170/49
f 66/116/16 85/372/49 105/172/49
f 66/116/21 104/173/21 121/174/21
f 106/175/17 72/151/17 86/117/17
f 107/176/72 87/154/151 88/153/73
f 89/128/75 73/125/152 87/178/76
f 88/180/66 72/383/150 106/181/66
f 90/183/78 74/384/153 89/184/79
f 75/186/81 90/183/81 110/187/82
f 111/189/58 92/157/58 76/159/45
f 112/191/13 99/224/69 80/192/58
f 81/193/83 100/197/86 94/194/84
f 113/196/85 95/199/88 94/194/84
f 114/198/87 96/162/87 95/199/88
f 114/198/87 101/202/89 97/200/89
f 98/201/70 97/200/89 101/202/89
f 155/204/90 113/385/90 100/205/69
f 114/207/91 156/225/91 157/208/92
f 102/210/14 117/227/14 103/211/71
f 85/170/49 103/211/71 118/212/71
f 104/214/10 105/228/93 120/215/93
f 87/154/94 107/176/154 122/217/95
f 88/153/97 109/279/97 135/218/97
f 119/216/11 109/279/66 106/219/66
f 91/190/82 110/386/82 126/221/98
f 127/222/13 112/191/13 92/157/58
f 128/223/90 115/387/90 99/224/69
f 114/207/91 113/385/90 155/204/90
f 116/226/91 130/245/91 117/227/92
f 117/227/14 131/246/14 118/212/71
f 105/228/93 118/388/100 132/229/100
f 136/231/102 122/389/155 107/232/103
f 107/176/105 123/177/116 138/234/106
f 136/236/107 139/390/110 124/237/108
f 139/238/110 127/222/111 125/239/111
f 111/189/98 126/221/98 125/239/111
f 139/238/112 128/223/90 112/191/99
f 137/233/113 138/244/113 129/243/113
f 130/245/91 140/249/91 131/246/92
f 118/212/100 131/246/114 133/247/114
f 140/249/115 134/391/115 133/247/114
f 141/250/106 135/218/106 134/251/115
f 141/253/106 138/392/106 123/254/116
f 136/231/113 137/233/113 128/241/90
f 130/245/91 138/244/113 141/257/113
f 63/161/57 143/261/57 142/258/57
f 57/259/57 142/258/57 145/265/57
f 143/261/117 147/135/117 146/137/117
f 144/267/118 148/393/118 147/268/118
f 145/270/119 149/394/119 148/271/119
f 145/273/120 142/395/120 146/274/120
f 110/187/24 122/217/24 125/277/24
f 108/185/24 122/217/24 110/187/24
f 109/279/24 119/216/24 120/215/24
f 120/215/24 132/229/24 133/276/24
f 151/105/36 150/77/35 35/59/35
f 152/139/45 151/105/36 36/76/36
f 80/281/58 153/138/58 152/139/45
f 99/282/69 154/164/69 153/138/58
f 115/283/90 155/204/90 154/206/69
f 116/396/91 156/225/91 129/285/113
f 156/225/91 155/204/90 129/285/113
f 156/225/91 116/396/91 102/286/92
f 157/287/14 102/397/14 84/288/71
f 158/144/60 84/288/71 64/289/49
f 182/290/16 183/112/16 159/114/49
f 176/67/16 177/85/16 160/87/16
f 161/291/37 37/63/37 38/65/38
f 163/107/21 162/83/38 38/65/38
f 170/293/41 164/92/41 163/363/40
f 163/363/40 41/292/40 170/293/41
f 165/294/53 42/72/53 43/96/54
f 166/295/12 43/74/12 44/60/42
f 167/97/42 44/60/42 35/59/35
f 169/296/17 172/297/17 40/69/41
f 172/297/17 169/296/17 168/298/17
f 172/297/17 171/94/17 164/92/41
f 37/63/37 161/291/37 174/299/16
f 174/299/16 161/291/37 49/82/37
f 185/300/16 186/321/16 187/301/16
f 187/301/16 186/321/16 190/303/16
f 180/305/16 179/398/16 39/90/16
f 181/141/16 180/305/16 160/87/16
f 192/306/16 191/399/16 193/307/16
f 195/309/16 192/306/16 194/308/16
f 174/311/121 186/321/121 185/300/121
f 177/313/122 176/312/122 188/314/122
f 173/316/123 185/400/123 188/317/123
f 177/313/122 187/315/122 189/319/122
f 174/311/121 175/322/121 190/303/121
f 175/322/124 178/401/124 189/304/124
f 183/323/125 182/402/156 191/324/126
f 179/326/128 193/403/157 191/327/129
f 180/329/131 194/308/137 193/307/132
f 183/323/125 192/325/127 195/331/134
f 180/329/131 181/334/158 196/310/136
f 184/333/138 195/309/138 196/310/138
f 165/294/53 168/298/17 169/296/17
f 52/93/41 171/94/17 168/298/17
f 3/338/143 198/340/24 197/335/140
f 3/338/143 197/335/140 1/6/139
f 1/6/139 204/346/147 203/341/145
f 1/6/139 203/341/145 2/4/144
f 8/351/24 2/4/144 212/352/24
f 212/352/24 2/4/144 211/350/24
f 213/355/24 210/349/24 3/338/143
f 8/351/24 213/355/24 3/338/143
f 213/355/24 216/356/24 212/352/24
f 200/337/142 199/336/141 197/335/140
f 204/346/147 205/343/146 200/337/142
f 203/341/145 204/346/147 211/350/24
f 207/345/24 202/342/24 203/341/145
f 209/348/24 207/345/24 203/341/145
f 197/335/140 211/350/24 204/346/147
f 211/350/24 209/348/24 203/341/145
f 212/352/24 211/350/24 198/340/24
f 216/356/24 214/353/24 212/352/24
f 213/355/24 215/354/24 216/356/24
f 210/349/24 213/355/24 198/340/24
f 206/344/24 208/347/24 210/349/24
f 201/339/24 206/344/24 210/349/24
f 212/352/24 198/340/24 213/355/24
f 198/340/24 201/339/24 210/349/24
f 197/335/140 198/340/24 211/350/24
f 204/346/147 200/337/142 197/335/140
f 5/2/36 14/19/36 13/18/36
f 21/50/24 31/49/24 29/47/24
f 7/404/113 18/405/113 16/406/113
f 218/407/159 244/408/160 217/409/159
f 218/407/159 220/410/159 219/411/159
f 219/411/159 226/412/161 225/413/161
f 221/414/162 247/415/163 246/416/163
f 222/417/162 223/418/162 224/419/162
f 223/418/162 227/420/164 224/419/162
f 225/413/161 249/421/165 248/422/165
f 228/423/164 250/424/166 227/420/164
f 274/425/167 230/426/168 229/427/169
f 231/428/170 258/429/171 230/426/168
f 232/430/172 243/431/173 242/432/174
f 235/433/175 238/434/176 234/435/175
f 236/436/177 241/437/178 240/438/178
f 239/439/179 253/440/180 238/434/176
f 240/438/178 254/441/181 255/442/182
f 242/432/174 257/443/183 256/444/184
f 245/445/160 261/446/185 244/408/160
f 246/416/163 262/447/186 263/448/186
f 249/421/165 252/449/187 248/422/165
f 250/424/166 255/442/182 254/441/181
f 256/444/184 261/446/185 260/450/185
f 258/429/171 263/448/186 262/447/186
f 269/451/188 219/452/189 268/453/189
f 270/454/190 218/455/188 269/451/188
f 268/453/189 225/456/191 267/457/191
f 232/458/16 242/459/192 273/460/193
f 224/419/194 229/427/194 222/417/194
f 233/461/195 220/410/195 217/409/195
f 267/462/191 248/463/196 266/464/196
f 266/464/197 252/465/197 265/466/197
f 264/467/198 252/465/199 239/468/200
f 273/460/193 256/469/201 272/470/202
f 271/471/203 256/469/201 260/472/203
f 270/454/190 260/472/204 245/473/190
f 238/434/205 253/440/206 249/421/207
f 254/441/208 241/437/209 227/420/210
f 233/461/195 217/409/195 244/408/211
f 262/447/208 247/415/212 230/426/213
f 233/461/214 235/433/215 234/435/216
f 240/474/217 283/475/218 284/476/198
f 251/477/219 283/475/218 255/478/220
f 251/477/219 281/479/191 282/480/221
f 223/481/189 281/482/191 228/483/191
f 221/484/188 280/485/189 223/481/189
f 246/486/190 279/487/188 221/484/188
f 246/486/190 277/488/222 278/489/190
f 263/490/223 276/491/202 277/488/222
f 231/492/224 276/491/202 259/493/225
f 231/492/224 274/494/16 275/495/193
f 236/436/226 229/427/227 237/496/228
f 232/497/229 236/498/230 235/499/231
f 274/494/16 273/460/193 275/495/193
f 275/495/193 272/470/202 276/491/202
f 277/488/222 272/470/202 271/471/203
f 278/489/190 271/471/204 270/454/190
f 278/489/190 269/451/188 279/487/188
f 279/487/188 268/453/189 280/485/189
f 281/482/191 268/453/189 267/457/191
f 281/479/191 266/464/196 282/480/221
f 282/480/221 265/466/197 283/475/218
f 284/476/198 265/466/199 264/467/198
f 236/500/36 264/467/198 235/501/36
f 218/407/159 245/445/160 244/408/160
f 218/407/159 217/409/159 220/410/159
f 219/411/159 220/410/159 226/412/161
f 221/414/162 222/417/162 247/415/163
f 222/417/162 221/414/162 223/418/162
f 223/418/162 228/423/164 227/420/164
f 225/413/161 226/412/161 249/421/165
f 228/423/164 251/502/232 250/424/166
f 274/425/167 231/428/170 230/426/168
f 231/428/170 259/503/233 258/429/171
f 232/430/172 233/461/172 243/431/173
f 235/433/175 239/439/179 238/434/176
f 236/436/177 237/496/177 241/437/178
f 239/439/179 252/449/187 253/440/180
f 240/438/178 241/437/178 254/441/181
f 242/432/174 243/431/173 257/443/183
f 245/445/160 260/450/185 261/446/185
f 246/416/163 247/415/163 262/447/186
f 249/421/165 253/440/180 252/449/187
f 250/424/166 251/502/232 255/442/182
f 256/444/184 257/443/183 261/446/185
f 258/429/171 259/503/233 263/448/186
f 269/451/188 218/455/188 219/452/189
f 270/454/190 245/473/190 218/455/188
f 268/453/189 219/452/189 225/456/191
f 224/419/194 237/496/194 229/427/194
f 235/501/36 264/467/198 239/468/200
f 233/461/195 234/435/195 220/410/195
f 267/462/191 225/504/191 248/463/196
f 266/464/197 248/463/197 252/465/197
f 264/467/198 265/466/199 252/465/199
f 273/460/193 242/459/192 256/469/201
f 271/471/203 272/470/202 256/469/201
f 270/454/190 271/471/204 260/472/204
f 249/421/207 226/412/234 238/434/205
f 226/412/234 220/410/195 234/435/195
f 234/435/195 238/434/205 226/412/234
f 241/437/209 237/496/194 227/420/210
f 237/496/194 224/419/194 227/420/210
f 227/420/210 250/424/208 254/441/208
f 244/408/211 261/446/207 257/443/206
f 257/443/206 243/431/235 244/408/211
f 243/431/235 233/461/195 244/408/211
f 247/415/212 222/417/194 229/427/194
f 229/427/194 230/426/213 247/415/212
f 230/426/213 258/429/236 262/447/208
f 233/461/214 232/430/214 235/433/215
f 240/474/217 284/476/198 236/500/36
f 240/474/217 255/478/220 283/475/218
f 251/477/219 282/480/221 283/475/218
f 251/477/219 228/505/191 281/479/191
f 223/481/189 280/485/189 281/482/191
f 221/484/188 279/487/188 280/485/189
f 246/486/190 278/489/190 279/487/188
f 246/486/190 263/490/223 277/488/222
f 263/490/223 259/493/225 276/491/202
f 231/492/224 275/495/193 276/491/202
f 236/436/226 274/425/237 229/427/227
f 232/497/229 274/506/238 236/498/230
f 274/494/16 232/458/16 273/460/193
f 275/495/193 273/460/193 272/470/202
f 277/488/222 276/491/202 272/470/202
f 278/489/190 277/488/222 271/471/204
f 278/489/190 270/454/190 269/451/188
f 279/487/188 269/451/188 268/453/189
f 281/482/191 280/485/189 268/453/189
f 281/479/191 267/462/191 266/464/196
f 282/480/221 266/464/197 265/466/197
f 284/476/198 283/475/218 265/466/199
f 236/500/36 284/476/198 264/467/198
f 7/404/113 6/507/113 18/405/113
f 79/263/57 71/508/57 58/264/57
f 58/509/57 61/266/57 67/510/57
f 61/266/57 62/511/57 67/510/57
f 62/512/57 68/513/57 67/514/57
f 67/510/57 78/515/57 58/509/57
f 58/509/57 57/259/57 145/265/57
f 144/260/57 63/161/57 61/266/57
f 58/509/57 145/265/57 61/266/57
