# Blender 4.0.0
# www.blender.org
mtllib Microwave011_Button5.mtl
o Microwave011_Button5
v 0.161276 -0.128910 0.135997
v 0.178480 -0.128910 0.133801
v 0.161691 -0.129560 0.136194
v 0.161338 -0.129475 0.133805
v 0.178060 -0.129560 0.133592
v 0.178414 -0.129475 0.135981
v 0.161809 -0.129588 0.136161
v 0.161372 -0.129588 0.133890
v 0.177946 -0.129588 0.133625
v 0.178379 -0.129588 0.135907
v 0.161346 -0.129576 0.135973
v 0.161694 -0.129576 0.133599
v 0.178405 -0.129576 0.133813
v 0.178058 -0.129576 0.136187
v 0.161686 -0.129020 0.136198
v 0.161336 -0.129023 0.133803
v 0.178067 -0.128940 0.133587
v 0.178416 -0.129023 0.135983
v 0.161328 -0.128923 0.135992
v 0.161674 -0.128923 0.133581
v 0.178426 -0.128923 0.133796
v 0.178076 -0.128923 0.136208
v 0.179265 -0.128755 0.138537
v 0.160480 -0.128742 0.132118
v 0.179255 -0.128742 0.132118
v 0.162212 -0.129023 0.133582
v 0.177539 -0.129023 0.133582
v 0.177531 -0.129041 0.136205
v 0.162215 -0.129039 0.136205
v 0.162214 -0.129475 0.133584
v 0.177538 -0.129475 0.133584
v 0.177544 -0.129561 0.136201
v 0.162214 -0.129475 0.136202
v 0.162222 -0.129576 0.133593
v 0.177530 -0.129576 0.133593
v 0.177530 -0.129576 0.136194
v 0.162222 -0.129576 0.136194
v 0.161451 -0.128910 0.133543
v 0.178061 -0.128910 0.133537
v 0.178294 -0.128910 0.136265
v 0.161442 -0.128910 0.136262
v 0.162203 -0.128923 0.133574
v 0.177548 -0.128923 0.133574
v 0.177546 -0.128923 0.136214
v 0.162206 -0.128923 0.136214
v 0.159431 -0.128749 0.137822
v 0.180320 -0.128762 0.132841
v 0.180321 -0.128744 0.137806
v 0.161329 -0.129013 0.135855
v 0.161329 -0.129023 0.133934
v 0.178422 -0.129026 0.133937
v 0.178422 -0.129023 0.135853
v 0.161331 -0.129475 0.135851
v 0.161331 -0.129475 0.133935
v 0.178420 -0.129475 0.133935
v 0.178420 -0.129475 0.135851
v 0.161340 -0.129576 0.135844
v 0.161340 -0.129576 0.133942
v 0.178412 -0.129576 0.133942
v 0.178412 -0.129576 0.135844
v 0.161321 -0.128923 0.135860
v 0.161320 -0.128923 0.133928
v 0.178432 -0.128923 0.133935
v 0.178431 -0.128923 0.135850
v 0.178252 -0.129589 0.136127
v 0.159437 -0.128726 0.132433
v 0.179921 -0.128742 0.132124
v 0.159830 -0.128741 0.138531
v 0.180315 -0.128714 0.138223
v 0.161271 -0.128910 0.133790
v 0.178475 -0.128910 0.136014
v 0.161338 -0.129475 0.135981
v 0.161685 -0.129475 0.133590
v 0.178414 -0.129475 0.133805
v 0.178066 -0.129475 0.136196
v 0.161372 -0.129588 0.135908
v 0.161748 -0.129588 0.133629
v 0.178379 -0.129588 0.133875
v 0.177947 -0.129588 0.136162
v 0.161694 -0.129576 0.136187
v 0.161346 -0.129576 0.133813
v 0.178058 -0.129576 0.133599
v 0.178405 -0.129576 0.135973
v 0.161336 -0.129023 0.135983
v 0.161681 -0.128940 0.133587
v 0.178416 -0.129023 0.133803
v 0.178074 -0.128939 0.136200
v 0.161676 -0.128923 0.136208
v 0.161326 -0.128923 0.133796
v 0.178078 -0.128923 0.133581
v 0.178424 -0.128923 0.135992
v 0.159542 -0.128907 0.132256
v 0.180215 -0.128907 0.132266
v 0.159526 -0.128907 0.138362
v 0.180163 -0.128907 0.138428
v 0.161313 -0.128910 0.136178
v 0.161315 -0.128910 0.133616
v 0.178443 -0.128910 0.133626
v 0.178433 -0.128910 0.136189
v 0.161395 -0.129475 0.136139
v 0.161395 -0.129475 0.133647
v 0.178357 -0.129475 0.133647
v 0.178357 -0.129475 0.136139
v 0.161423 -0.129589 0.136077
v 0.161444 -0.129589 0.133691
v 0.178331 -0.129589 0.133708
v 0.178337 -0.129589 0.136066
v 0.161404 -0.129576 0.136130
v 0.161404 -0.129576 0.133656
v 0.178348 -0.129576 0.133656
v 0.178348 -0.129576 0.136130
v 0.161393 -0.129023 0.136141
v 0.161393 -0.129023 0.133645
v 0.178359 -0.129023 0.133645
v 0.178359 -0.129021 0.136141
v 0.161385 -0.128923 0.136151
v 0.161383 -0.128923 0.133638
v 0.178369 -0.128923 0.133638
v 0.178367 -0.128923 0.136151
v 0.159827 -0.128043 0.132123
v 0.180316 -0.128043 0.132429
v 0.159436 -0.128043 0.138227
v 0.179924 -0.128043 0.138532
v 0.179266 -0.128043 0.138539
v 0.160485 -0.128043 0.138539
v 0.160486 -0.128043 0.132117
v 0.179265 -0.128043 0.132117
v 0.159430 -0.128043 0.137823
v 0.159430 -0.128043 0.132832
v 0.180322 -0.128043 0.132832
v 0.180322 -0.128043 0.137823
v 0.159436 -0.128043 0.132429
v 0.179924 -0.128043 0.132123
v 0.159827 -0.128043 0.138532
v 0.180316 -0.128043 0.138227
v 0.159493 -0.128043 0.132180
v 0.180258 -0.128043 0.132180
v 0.159493 -0.128043 0.138475
v 0.180258 -0.128043 0.138475
v 0.159826 -0.128740 0.132124
v 0.180315 -0.128721 0.132427
v 0.159437 -0.128740 0.138227
v 0.179928 -0.128742 0.138531
v 0.179802 -0.128907 0.138458
v 0.159656 -0.128907 0.138452
v 0.159963 -0.128907 0.132176
v 0.179799 -0.128907 0.132176
v 0.159498 -0.128907 0.138115
v 0.159506 -0.128907 0.132502
v 0.180244 -0.128907 0.132500
v 0.180250 -0.128907 0.138293
v 0.159494 -0.128730 0.132181
v 0.180257 -0.128742 0.132180
v 0.159494 -0.128743 0.138475
v 0.180258 -0.128740 0.138474
v 0.159842 -0.128891 0.132135
v 0.180301 -0.128891 0.132439
v 0.159448 -0.128891 0.138213
v 0.179913 -0.128891 0.138518
v 0.179315 -0.128891 0.138523
v 0.160450 -0.128891 0.138524
v 0.160507 -0.128891 0.132129
v 0.179251 -0.128891 0.132129
v 0.159443 -0.128892 0.137846
v 0.159446 -0.128891 0.132832
v 0.180306 -0.128891 0.132826
v 0.180309 -0.128891 0.137808
v 0.159451 -0.128891 0.132439
v 0.179910 -0.128891 0.132135
v 0.159839 -0.128891 0.138518
v 0.180304 -0.128891 0.138213
v 0.159508 -0.128891 0.132192
v 0.180244 -0.128891 0.132192
v 0.159505 -0.128891 0.138461
v 0.180247 -0.128891 0.138461
v 0.159602 -0.128909 0.138320
v 0.180148 -0.128909 0.138327
v 0.161200 -0.128909 0.133491
v 0.161225 -0.128909 0.136361
v 0.178545 -0.128909 0.133484
v 0.161402 -0.129589 0.133757
v 0.161350 -0.129584 0.133950
v 0.177521 -0.129584 0.133602
v 0.178402 -0.129584 0.135836
v 0.177520 -0.129584 0.136184
v 0.161334 -0.129562 0.133938
v 0.162217 -0.129562 0.133587
v 0.178417 -0.129562 0.133938
v 0.162217 -0.129562 0.136200
v 0.161327 -0.128937 0.135854
v 0.177541 -0.128937 0.133579
v 0.178426 -0.128937 0.133933
v 0.177541 -0.128937 0.136208
v 0.161312 -0.128914 0.135872
v 0.177558 -0.128914 0.133566
v 0.178440 -0.128914 0.135858
v 0.162197 -0.128914 0.136225
v 0.178245 -0.129589 0.133656
v 0.161506 -0.129589 0.136130
v 0.162231 -0.129584 0.133602
v 0.162232 -0.129584 0.136184
v 0.177535 -0.129562 0.133587
v 0.162209 -0.128937 0.133579
v 0.162211 -0.128937 0.136208
v 0.162193 -0.128914 0.133566
v 0.177555 -0.128914 0.136225
v 0.161350 -0.129584 0.135836
v 0.178402 -0.129584 0.133950
v 0.161334 -0.129562 0.135849
v 0.178417 -0.129562 0.135849
v 0.161326 -0.128937 0.133932
v 0.178425 -0.128937 0.135855
v 0.161309 -0.128914 0.133914
v 0.178443 -0.128914 0.133917
v 0.161456 -0.129023 0.136179
v 0.161357 -0.129475 0.133711
v 0.178295 -0.129023 0.133607
v 0.178395 -0.129477 0.136075
v 0.161375 -0.129584 0.136057
v 0.161477 -0.129584 0.133628
v 0.178376 -0.129584 0.133729
v 0.178275 -0.129584 0.136159
v 0.161360 -0.129562 0.136073
v 0.161461 -0.129562 0.133612
v 0.178392 -0.129562 0.133714
v 0.178290 -0.129562 0.136174
v 0.161352 -0.128937 0.136081
v 0.161453 -0.128937 0.133605
v 0.178400 -0.128937 0.133706
v 0.178298 -0.128937 0.136182
v 0.161338 -0.128914 0.136098
v 0.161435 -0.128914 0.133591
v 0.178418 -0.128914 0.133693
v 0.178312 -0.128914 0.136199
v 0.161357 -0.129477 0.136075
v 0.161456 -0.129023 0.133607
v 0.178397 -0.129023 0.133709
v 0.178295 -0.129023 0.136179
v 0.161477 -0.129584 0.136159
v 0.161375 -0.129584 0.133729
v 0.178275 -0.129584 0.133628
v 0.178376 -0.129584 0.136057
v 0.161461 -0.129562 0.136174
v 0.161360 -0.129562 0.133714
v 0.178290 -0.129562 0.133612
v 0.178392 -0.129562 0.136073
v 0.161454 -0.128937 0.136182
v 0.161351 -0.128937 0.133706
v 0.178299 -0.128937 0.133605
v 0.178400 -0.128937 0.136081
v 0.161440 -0.128914 0.136199
v 0.161334 -0.128914 0.133693
v 0.178316 -0.128914 0.133591
v 0.178414 -0.128914 0.136098
v 0.180322 -0.128445 0.132831
v 0.179265 -0.128447 0.138539
v 0.160473 -0.128726 0.138538
v 0.159431 -0.128745 0.132848
v 0.159456 -0.128724 0.132245
v 0.180194 -0.128738 0.132143
v 0.159558 -0.128741 0.138512
v 0.180296 -0.128706 0.138411
v 0.159557 -0.128742 0.132143
v 0.180296 -0.128727 0.132244
v 0.159456 -0.128737 0.138411
v 0.180195 -0.128741 0.138512
v 0.159456 -0.128902 0.137820
v 0.179280 -0.128902 0.138509
v 0.180288 -0.128902 0.132474
v 0.160447 -0.128902 0.138509
v 0.160442 -0.128902 0.132142
v 0.179289 -0.128902 0.132141
v 0.159463 -0.128902 0.132768
v 0.180296 -0.128902 0.137818
v 0.159484 -0.128902 0.132266
v 0.180166 -0.128902 0.132165
v 0.159580 -0.128902 0.138485
v 0.180273 -0.128902 0.138383
v 0.159586 -0.128902 0.132165
v 0.180267 -0.128902 0.132266
v 0.159478 -0.128902 0.138383
v 0.180172 -0.128902 0.138485
v 0.159435 -0.128873 0.137802
v 0.180315 -0.128872 0.132803
v 0.179252 -0.128872 0.138533
v 0.160490 -0.128872 0.138533
v 0.160492 -0.128872 0.132122
v 0.179261 -0.128872 0.132122
v 0.159436 -0.128872 0.132833
v 0.180317 -0.128872 0.137837
v 0.159461 -0.128872 0.132248
v 0.180189 -0.128872 0.132147
v 0.159561 -0.128872 0.138508
v 0.180292 -0.128872 0.138406
v 0.159563 -0.128872 0.132147
v 0.180291 -0.128872 0.132248
v 0.159460 -0.128872 0.138406
v 0.180190 -0.128872 0.138508
v 0.180131 -0.128909 0.132265
v 0.178542 -0.128909 0.136352
v 0.159623 -0.128909 0.132259
v 0.161356 -0.129584 0.135964
v 0.161703 -0.129584 0.133609
v 0.178395 -0.129584 0.133823
v 0.178048 -0.129584 0.136178
v 0.161341 -0.129562 0.135978
v 0.161688 -0.129562 0.133593
v 0.178411 -0.129562 0.133808
v 0.178063 -0.129562 0.136193
v 0.161333 -0.128937 0.135986
v 0.178419 -0.128937 0.133801
v 0.161319 -0.128914 0.136003
v 0.161663 -0.128914 0.133572
v 0.178437 -0.128914 0.133788
v 0.178084 -0.128914 0.136219
v 0.180124 -0.128907 0.132197
v 0.178355 -0.128910 0.133561
v 0.161458 -0.129475 0.133609
v 0.178395 -0.129475 0.133711
v 0.178293 -0.129475 0.136177
v 0.161498 -0.129588 0.133649
v 0.161467 -0.129576 0.136168
v 0.161365 -0.129576 0.133720
v 0.178285 -0.129576 0.133618
v 0.178386 -0.129576 0.136067
v 0.161355 -0.129023 0.136078
v 0.161449 -0.128923 0.136189
v 0.161345 -0.128923 0.133701
v 0.178305 -0.128923 0.133600
v 0.178405 -0.128923 0.136087
v 0.161703 -0.129584 0.136178
v 0.161356 -0.129584 0.133823
v 0.178048 -0.129584 0.133609
v 0.178395 -0.129584 0.135964
v 0.161341 -0.129562 0.133808
v 0.178411 -0.129562 0.135978
v 0.161681 -0.128937 0.136201
v 0.161332 -0.128937 0.133801
v 0.178419 -0.128937 0.135986
v 0.161667 -0.128914 0.136219
v 0.161315 -0.128914 0.133788
v 0.178089 -0.128914 0.133572
v 0.178433 -0.128914 0.136003
v 0.159628 -0.128907 0.132197
v 0.161458 -0.129475 0.136177
v 0.178293 -0.129475 0.133609
v 0.161365 -0.129576 0.136067
v 0.161467 -0.129576 0.133618
v 0.178386 -0.129576 0.133720
v 0.178285 -0.129576 0.136168
v 0.161355 -0.129023 0.133709
v 0.178397 -0.129023 0.136078
v 0.161347 -0.128923 0.136087
v 0.161446 -0.128923 0.133600
v 0.178407 -0.128923 0.133701
v 0.178303 -0.128923 0.136189
v 0.161413 -0.129584 0.136120
v 0.161413 -0.129584 0.133666
v 0.178338 -0.129584 0.133666
v 0.178338 -0.129584 0.136120
v 0.161398 -0.129562 0.136136
v 0.161398 -0.129562 0.133650
v 0.178354 -0.129562 0.133650
v 0.178354 -0.129562 0.136136
v 0.161390 -0.128937 0.136144
v 0.161389 -0.128937 0.133643
v 0.178362 -0.128937 0.133643
v 0.178361 -0.128937 0.136144
v 0.161376 -0.128914 0.136161
v 0.161372 -0.128914 0.133629
v 0.178380 -0.128914 0.133629
v 0.178375 -0.128914 0.136161
v 0.159455 -0.128043 0.132244
v 0.180195 -0.128043 0.132142
v 0.159557 -0.128043 0.138513
v 0.180297 -0.128043 0.138412
v 0.159557 -0.128043 0.132142
v 0.180297 -0.128043 0.132244
v 0.159455 -0.128043 0.138412
v 0.180195 -0.128043 0.138513
v 0.159833 -0.128872 0.132128
v 0.180310 -0.128872 0.132433
v 0.159441 -0.128872 0.138221
v 0.179920 -0.128872 0.138527
v 0.159466 -0.128902 0.132450
v 0.179896 -0.128902 0.132146
v 0.159850 -0.128902 0.138504
v 0.180292 -0.128902 0.138199
v 0.159499 -0.128872 0.132185
v 0.180253 -0.128872 0.132185
v 0.159498 -0.128872 0.138469
v 0.180254 -0.128872 0.138469
v 0.159856 -0.128902 0.132146
v 0.159460 -0.128902 0.138199
v 0.179902 -0.128902 0.138503
v 0.159442 -0.128872 0.132433
v 0.179919 -0.128872 0.132128
v 0.159832 -0.128872 0.138527
v 0.180311 -0.128872 0.138221
v 0.159522 -0.128902 0.132203
v 0.180229 -0.128902 0.132203
v 0.159516 -0.128902 0.138447
v 0.180235 -0.128902 0.138447
v 0.159470 -0.128891 0.132255
v 0.180180 -0.128891 0.132153
v 0.159568 -0.128891 0.138499
v 0.180285 -0.128891 0.138397
v 0.159571 -0.128891 0.132153
v 0.180282 -0.128891 0.132255
v 0.159467 -0.128891 0.138397
v 0.180183 -0.128891 0.138499
vn -0.9994 -0.0202 -0.0284
vn -0.9995 -0.0152 0.0263
vn -0.9994 -0.0214 -0.0254
vn -0.9995 -0.0189 0.0265
vn 0.0054 -0.0192 -0.9998
vn -0.0072 -0.0168 -0.9998
vn 0.0061 -0.0159 -0.9999
vn 0.9995 -0.0194 0.0230
vn 0.9994 -0.0246 -0.0248
vn 0.9996 -0.0183 0.0237
vn 0.0072 -0.0192 0.9998
vn -0.0115 -0.0156 0.9998
vn 0.0040 -0.2096 0.9778
vn -0.0802 -0.9964 -0.0270
vn -0.1191 -0.9929 0.0078
vn -0.1146 -0.9934 0.0011
vn 0.0166 -0.9964 -0.0826
vn 0.0187 -0.9973 0.0708
vn -0.0506 -0.9975 -0.0496
vn 0.0771 -0.9961 0.0434
vn 0.1168 -0.9931 -0.0138
vn 0.1100 -0.9939 -0.0005
vn 0.0694 -0.9962 -0.0529
vn -0.0235 -0.9964 0.0808
vn 0.0069 -0.9914 0.1309
vn 0.0045 -0.9930 0.1180
vn -0.4306 -0.9025 -0.0052
vn -0.7959 -0.6045 0.0340
vn -0.8016 -0.5975 -0.0212
vn -0.4282 -0.9036 0.0063
vn 0.0014 -0.9026 -0.4306
vn 0.0034 -0.5913 -0.8064
vn 0.0041 -0.5941 -0.8043
vn 0.4289 -0.9034 0.0059
vn 0.8062 -0.5916 -0.0080
vn 0.8010 -0.5984 0.0199
vn -0.0011 -0.9048 0.4259
vn 0.0199 -0.6018 0.7984
vn -0.0068 -0.5937 0.8046
vn 0.0168 -0.9101 0.4141
vn -0.9756 -0.2181 -0.0254
vn -0.0052 -0.2209 -0.9753
vn -0.0058 -0.0194 -0.9998
vn 0.9753 -0.2190 -0.0274
vn 0.9995 -0.0204 -0.0240
vn -0.0063 -0.2175 0.9760
vn -0.9722 -0.2331 -0.0218
vn -0.8200 -0.5723 -0.0029
vn -0.7806 -0.6249 -0.0144
vn -0.9751 -0.2200 0.0272
vn 0.0060 -0.1904 -0.9817
vn 0.0163 -0.5383 -0.8426
vn 0.0134 -0.4796 -0.8774
vn -0.0060 -0.1902 -0.9817
vn 0.9739 -0.2260 -0.0210
vn 0.7877 -0.6160 0.0095
vn 0.8391 -0.5429 0.0341
vn -0.0057 -0.2348 0.9720
vn -0.0251 -0.6055 0.7954
vn -0.0037 -0.6253 0.7804
vn 0.0226 -0.2196 0.9753
vn -0.0074 -0.0190 0.9998
vn -0.3636 -0.9315 -0.0127
vn -0.0565 -0.9984 0.0074
vn -0.0536 -0.9985 -0.0085
vn -0.4252 -0.9040 0.0455
vn 0.0037 -0.8981 -0.4398
vn -0.0104 -0.9986 -0.0527
vn 0.0060 -0.9976 -0.0695
vn -0.0031 -0.8913 -0.4534
vn 0.4004 -0.9163 0.0125
vn 0.0553 -0.9984 -0.0073
vn 0.0537 -0.9985 0.0079
vn 0.3602 -0.9328 -0.0112
vn -0.0027 -0.9284 0.3715
vn 0.0089 -0.9993 0.0356
vn -0.0105 -0.9994 0.0334
vn -0.0624 -0.9968 0.0498
vn -0.0475 -0.1803 -0.9825
vn -0.0483 -0.0204 -0.9986
vn -0.0478 -0.2102 0.9765
vn -0.0061 -0.9935 -0.1133
vn -0.0053 -0.9914 -0.1310
vn 0.0179 -0.9077 -0.4193
vn 0.0410 -0.6049 -0.7953
vn -0.0012 -0.9076 -0.4198
vn -0.0385 -0.6062 -0.7944
vn -0.0178 -0.9078 0.4191
vn -0.0410 -0.6058 0.7946
vn 0.0385 -0.6064 0.7942
vn 0.0053 -0.2214 -0.9752
vn -0.0499 -0.2248 -0.9731
vn 0.0502 -0.2252 0.9730
vn 0.0446 -0.1799 -0.9827
vn 0.0380 -0.5604 -0.8273
vn -0.0376 -0.5590 -0.8283
vn -0.0438 -0.2417 0.9694
vn -0.0360 -0.6379 0.7693
vn -0.0465 -0.0209 0.9987
vn 0.0344 -0.6352 0.7716
vn -0.0230 -0.9103 -0.4132
vn 0.0188 -0.9380 0.3461
vn -0.9914 -0.0236 -0.1285
vn -0.9921 -0.0228 -0.1230
vn 0.9920 -0.0220 0.1241
vn 0.9922 -0.0199 0.1230
vn 0.9922 -0.0209 -0.1230
vn 0.9920 -0.0213 -0.1243
vn -0.4055 -0.9130 -0.0455
vn -0.7750 -0.6244 -0.0973
vn -0.7755 -0.6238 0.0972
vn 0.4026 -0.9142 0.0463
vn 0.7750 -0.6244 0.0974
vn 0.3945 -0.9189 -0.0063
vn 0.7751 -0.6243 -0.0972
vn -0.9634 -0.2365 -0.1264
vn -0.9635 -0.2361 0.1263
vn -0.9739 -0.2247 0.0314
vn -0.9914 -0.0208 0.1291
vn 0.9633 -0.2366 0.1265
vn 0.9857 -0.1668 0.0252
vn 0.9634 -0.2363 -0.1263
vn -0.9606 -0.2534 -0.1138
vn -0.7485 -0.6569 -0.0904
vn -0.9687 -0.2215 0.1124
vn -0.9917 -0.0200 0.1266
vn -0.7899 -0.6058 0.0951
vn 0.9684 -0.2222 0.1136
vn 0.7894 -0.6064 0.0955
vn 0.9816 -0.1904 0.0171
vn 0.9607 -0.2531 -0.1139
vn 0.7483 -0.6571 -0.0907
vn -0.3615 -0.9308 0.0543
vn 0.3348 -0.9411 -0.0481
vn -0.7079 -0.0241 0.7059
vn -0.3061 -0.0246 0.9517
vn -0.7069 -0.0268 0.7068
vn -0.3073 -0.0231 0.9513
vn -0.9317 -0.0247 -0.3623
vn -0.9324 -0.0257 -0.3606
vn -0.7072 -0.0293 -0.7064
vn -0.7066 -0.0267 -0.7071
vn 0.3024 -0.0169 -0.9530
vn 0.7068 -0.0274 -0.7069
vn 0.3072 -0.0232 -0.9513
vn 0.0470 -0.2104 -0.9765
vn 0.9318 -0.0244 0.3622
vn 0.9326 -0.0235 0.3601
vn -0.3546 -0.9271 0.1215
vn -0.5126 -0.6888 0.5126
vn -0.6959 -0.6667 0.2671
vn -0.3759 -0.9258 0.0390
vn -0.1037 -0.9172 -0.3847
vn -0.0237 -0.9942 -0.1049
vn -0.2529 -0.9341 -0.2519
vn -0.5126 -0.6888 -0.5126
vn -0.2265 -0.6536 -0.7221
vn -0.0169 -0.9183 -0.3956
vn 0.3562 -0.9266 -0.1210
vn 0.5126 -0.6888 -0.5126
vn 0.6958 -0.6667 -0.2671
vn 0.3752 -0.9260 -0.0418
vn 0.1014 -0.9185 0.3822
vn 0.2474 -0.9350 0.2541
vn 0.5126 -0.6888 0.5126
vn 0.2265 -0.6537 0.7221
vn 0.0172 -0.9012 0.4331
vn -0.8959 -0.2651 0.3564
vn -0.6787 -0.2800 0.6789
vn -0.9332 -0.0207 0.3588
vn -0.3078 -0.2585 -0.9156
vn -0.6788 -0.2800 -0.6789
vn -0.3083 -0.0240 -0.9510
vn 0.8959 -0.2651 -0.3564
vn 0.6788 -0.2801 -0.6788
vn 0.9317 -0.0246 -0.3623
vn 0.3078 -0.2585 0.9157
vn 0.6788 -0.2800 0.6789
vn 0.7070 -0.0273 0.7066
vn 0.3082 -0.0240 0.9510
vn 0.0484 -0.0206 0.9986
vn -0.9041 -0.2626 0.3372
vn -0.9325 -0.0234 0.3603
vn -0.6770 -0.3001 0.6720
vn -0.4879 -0.7255 0.4854
vn -0.6907 -0.6742 0.2614
vn -0.2749 -0.2491 -0.9286
vn -0.3041 -0.0200 -0.9524
vn -0.6718 -0.2978 -0.6783
vn -0.4871 -0.7227 -0.4903
vn -0.2195 -0.6530 -0.7249
vn 0.8966 -0.2844 -0.3394
vn 0.9322 -0.0248 -0.3611
vn 0.6718 -0.2978 -0.6782
vn 0.7075 -0.0237 -0.7064
vn 0.4871 -0.7227 -0.4904
vn 0.6637 -0.7038 -0.2532
vn 0.2856 -0.2812 0.9162
vn 0.0393 -0.2384 0.9704
vn 0.3073 -0.0234 0.9513
vn 0.6769 -0.3002 0.6721
vn 0.7040 -0.0237 0.7099
vn 0.4879 -0.7254 0.4855
vn 0.2123 -0.7001 0.6818
vn -0.2866 -0.9509 0.1167
vn -0.1866 -0.9629 0.1947
vn -0.0279 -0.9994 0.0194
vn -0.1164 -0.9483 -0.2954
vn -0.1956 -0.9605 -0.1981
vn -0.0310 -0.9993 -0.0211
vn 0.2798 -0.9540 -0.1079
vn 0.1968 -0.9603 -0.1978
vn 0.0322 -0.9993 -0.0213
vn 0.0984 -0.9592 0.2650
vn 0.1854 -0.9635 0.1932
vn 0.0266 -0.9995 0.0182
vn -0.1023 -0.9194 0.3799
vn -0.2263 -0.6535 0.7223
vn -0.2512 -0.9360 0.2466
vn -0.3549 -0.9261 -0.1276
vn -0.6960 -0.6666 -0.2669
vn 0.1023 -0.9196 -0.3794
vn 0.2262 -0.6532 -0.7226
vn 0.2362 -0.9440 -0.2304
vn 0.3315 -0.9358 0.1203
vn 0.6960 -0.6666 0.2669
vn -0.3085 -0.2592 0.9152
vn -0.8960 -0.2650 -0.3562
vn 0.3083 -0.2589 -0.9154
vn 0.8960 -0.2651 0.3563
vn -0.2823 -0.2803 0.9175
vn -0.2121 -0.7001 0.6818
vn -0.8968 -0.2842 -0.3392
vn -0.6639 -0.7037 -0.2529
vn 0.2768 -0.2483 -0.9283
vn 0.2193 -0.6530 -0.7250
vn 0.9042 -0.2624 0.3370
vn 0.6908 -0.6742 0.2612
vn -0.0971 -0.9598 0.2634
vn -0.0206 -0.9287 0.3703
vn -0.2806 -0.9535 -0.1096
vn -0.3555 -0.9334 -0.0494
vn 0.1067 -0.9473 -0.3021
vn 0.0262 -0.9085 -0.4170
vn 0.0176 -0.9988 -0.0457
vn 0.2875 -0.9505 0.1179
vn 0.3851 -0.9212 0.0550
vn -0.9998 -0.0197 0.0078
vn -0.9983 -0.0010 0.0591
vn -1.0000 -0.0011 0.0074
vn 0.0052 -0.0037 1.0000
vn 0.0405 -0.0008 0.9992
vn 0.0052 -0.0000 1.0000
vn 1.0000 -0.0032 -0.0072
vn 0.9982 -0.0012 -0.0593
vn 1.0000 -0.0001 -0.0074
vn -0.0047 -0.0181 -0.9998
vn -0.0397 -0.0009 -0.9992
vn -0.0045 -0.0009 -1.0000
vn -0.0059 -0.0173 0.9998
vn 0.0054 -0.0216 0.9998
vn -0.0050 -0.0016 1.0000
vn -0.0389 -0.0188 0.9991
vn -0.0405 -0.0008 0.9992
vn 0.0040 -0.0167 -0.9999
vn 0.0045 -0.0009 -1.0000
vn 0.0408 -0.0179 -0.9990
vn 0.0399 -0.0009 -0.9992
vn -0.9997 -0.0222 -0.0083
vn -1.0000 -0.0012 -0.0079
vn -0.9981 -0.0190 -0.0587
vn -0.9983 -0.0016 -0.0590
vn 0.9998 -0.0187 0.0085
vn 0.9997 -0.0251 -0.0052
vn 1.0000 -0.0012 0.0080
vn 0.9981 -0.0152 0.0591
vn 0.9983 -0.0015 0.0591
vn -0.9498 -0.0222 -0.3120
vn -0.9488 -0.0017 -0.3159
vn -0.7097 -0.0229 -0.7041
vn -0.7074 -0.0015 -0.7068
vn 0.3012 -0.0197 -0.9533
vn 0.3006 -0.0011 -0.9537
vn 0.7053 -0.0261 -0.7084
vn 0.7071 -0.0014 -0.7071
vn -0.2968 -0.0230 0.9547
vn -0.3004 -0.0010 0.9538
vn -0.7068 -0.0250 0.7069
vn -0.7070 -0.0013 0.7072
vn 0.9471 -0.0149 0.3206
vn 0.9488 -0.0014 0.3159
vn 0.7102 -0.0286 0.7034
vn 0.7070 -0.0011 0.7072
vn -0.3016 -0.0216 -0.9532
vn -0.3008 -0.0011 -0.9537
vn -0.0409 -0.0188 -0.9990
vn 0.9468 -0.0203 -0.3210
vn 0.9487 -0.0017 -0.3162
vn 0.9980 -0.0185 -0.0599
vn -0.9473 -0.0203 0.3198
vn -0.9487 -0.0013 0.3162
vn -0.9980 -0.0190 0.0603
vn 0.3055 -0.0231 0.9519
vn 0.3007 -0.0010 0.9537
vn 0.0398 -0.0178 0.9990
vn -0.4016 -0.9158 0.0009
vn -0.0761 -0.9971 -0.0030
vn -0.4176 -0.9084 0.0192
vn -0.7966 -0.6045 0.0081
vn -0.8114 -0.5826 0.0474
vn 0.0007 -0.9308 0.3656
vn -0.0024 -0.9979 0.0641
vn 0.0127 -0.9292 0.3694
vn 0.0060 -0.6378 0.7702
vn 0.0307 -0.6357 0.7713
vn 0.7343 -0.6789 0.0012
vn 0.3777 -0.9258 -0.0146
vn 0.7564 -0.6523 -0.0475
vn -0.0030 -0.8999 -0.4360
vn 0.0062 -0.9956 -0.0933
vn -0.0137 -0.8960 -0.4438
vn -0.0014 -0.5762 -0.8173
vn -0.0332 -0.5633 -0.8256
vn -0.0016 -0.9338 0.3579
vn -0.0155 -0.9974 0.0709
vn -0.0306 -0.6360 0.7711
vn -0.0098 -0.9280 0.3726
vn 0.0065 -0.5619 -0.8272
vn 0.0029 -0.8987 -0.4385
vn 0.0039 -0.9952 -0.0978
vn 0.0332 -0.5634 -0.8255
vn 0.0139 -0.8959 -0.4440
vn -0.3586 -0.9334 -0.0127
vn -0.0738 -0.9973 -0.0041
vn -0.7597 -0.6488 -0.0434
vn -0.3709 -0.9285 -0.0172
vn 0.8119 -0.5838 0.0020
vn 0.3968 -0.9179 0.0028
vn 0.0669 -0.9977 -0.0078
vn 0.0837 -0.9963 0.0179
vn 0.8110 -0.5832 0.0473
vn 0.4252 -0.9050 0.0148
vn -0.3489 -0.9320 -0.0981
vn -0.7035 -0.6727 -0.2290
vn -0.5128 -0.6862 -0.5159
vn -0.2408 -0.9370 -0.2532
vn 0.0969 -0.9095 -0.4042
vn 0.2268 -0.6276 -0.7448
vn 0.5128 -0.6862 -0.5159
vn 0.2411 -0.9372 -0.2521
vn 0.0192 -0.9958 -0.0890
vn 0.0651 -0.9975 -0.0275
vn -0.0943 -0.9315 0.3512
vn -0.2186 -0.6667 0.7126
vn -0.5150 -0.6872 0.5125
vn -0.2423 -0.9405 0.2381
vn -0.0612 -0.9979 0.0212
vn 0.3795 -0.9198 0.0998
vn 0.7331 -0.6376 0.2369
vn 0.5150 -0.6872 0.5125
vn 0.2454 -0.9403 0.2358
vn 0.0225 -0.9982 0.0553
vn -0.0942 -0.9104 -0.4029
vn -0.0578 -0.9978 -0.0317
vn -0.2269 -0.6277 -0.7447
vn -0.0199 -0.9957 -0.0902
vn 0.3487 -0.9316 -0.1031
vn 0.7034 -0.6728 -0.2294
vn -0.3870 -0.9171 0.0953
vn -0.7329 -0.6376 0.2373
vn 0.0910 -0.9306 0.3546
vn 0.2187 -0.6667 0.7125
vn -0.9712 -0.2383 0.0034
vn -0.9755 -0.2112 0.0614
vn -0.0043 -0.2499 0.9683
vn 0.0407 -0.2415 0.9695
vn 0.9636 -0.2673 -0.0062
vn 0.9665 -0.2495 -0.0595
vn -0.0050 -0.2062 -0.9785
vn -0.0419 -0.2004 -0.9788
vn -0.0103 -0.2438 0.9698
vn -0.0070 -0.6365 0.7713
vn -0.0408 -0.2418 0.9695
vn 0.0051 -0.2042 -0.9789
vn 0.0422 -0.2007 -0.9787
vn -0.9656 -0.2596 -0.0124
vn -0.7415 -0.6709 -0.0086
vn -0.9664 -0.2501 -0.0596
vn 0.9762 -0.2162 0.0180
vn 0.9754 -0.2115 0.0615
vn -0.9113 -0.2689 -0.3118
vn -0.6818 -0.2775 -0.6769
vn 0.3063 -0.2431 -0.9204
vn 0.6818 -0.2776 -0.6768
vn -0.2989 -0.2659 0.9165
vn -0.6772 -0.2782 0.6812
vn 0.9149 -0.2479 0.3186
vn 0.6773 -0.2782 0.6811
vn -0.3066 -0.2430 -0.9203
vn 0.9113 -0.2688 -0.3118
vn -0.9147 -0.2483 0.3189
vn 0.2990 -0.2657 0.9165
vn -0.0016 -1.0000 -0.0027
vn -0.0113 -0.9999 0.0090
vn -0.0110 -0.9998 -0.0172
vn -0.0006 -1.0000 0.0023
vn 0.0028 -1.0000 -0.0014
vn 0.0133 -0.9998 -0.0159
vn 0.0010 -1.0000 0.0026
vn 0.0113 -0.9999 0.0100
vn 0.0019 -0.9199 0.3922
vt 0.582259 0.691480
vt 0.582259 0.722608
vt 0.582259 0.691477
vt 0.582259 0.722582
vt 0.622576 0.685774
vt 0.584455 0.685774
vt 0.622577 0.685774
vt 0.624772 0.722581
vt 0.624772 0.691521
vt 0.624772 0.722587
vt 0.622573 0.728288
vt 0.584454 0.728288
vt 0.622576 0.728288
vt 0.582374 0.688330
vt 0.582280 0.723953
vt 0.582278 0.690299
vt 0.624396 0.686585
vt 0.624408 0.727461
vt 0.582510 0.687322
vt 0.624598 0.726182
vt 0.624750 0.690059
vt 0.624751 0.723941
vt 0.624574 0.687709
vt 0.582636 0.727480
vt 0.623677 0.728119
vt 0.583366 0.728121
vt 0.582259 0.691502
vt 0.582259 0.722571
vt 0.582259 0.691489
vt 0.582259 0.722561
vt 0.622575 0.685774
vt 0.584454 0.685774
vt 0.622577 0.685774
vt 0.624772 0.722557
vt 0.624772 0.691493
vt 0.624772 0.722571
vt 0.584458 0.728288
vt 0.622575 0.728288
vt 0.584455 0.728288
vt 0.622574 0.728288
vt 0.582259 0.691484
vt 0.584455 0.685774
vt 0.584454 0.685774
vt 0.624772 0.691483
vt 0.624772 0.691479
vt 0.584456 0.728288
vt 0.582259 0.691474
vt 0.582259 0.722585
vt 0.582259 0.691474
vt 0.582259 0.722573
vt 0.622575 0.685774
vt 0.584456 0.685774
vt 0.622576 0.685774
vt 0.624772 0.691483
vt 0.624772 0.691575
vt 0.624772 0.722419
vt 0.584457 0.728288
vt 0.622576 0.728288
vt 0.584457 0.728288
vt 0.622574 0.728288
vt 0.584456 0.728288
vt 0.582259 0.691336
vt 0.582280 0.723941
vt 0.582283 0.689834
vt 0.582259 0.722634
vt 0.622576 0.685774
vt 0.582763 0.686459
vt 0.623716 0.685961
vt 0.584454 0.685774
vt 0.624772 0.722412
vt 0.624750 0.689997
vt 0.624749 0.724206
vt 0.624772 0.691388
vt 0.584454 0.728288
vt 0.624264 0.727602
vt 0.582728 0.727574
vt 0.582454 0.726340
vt 0.583155 0.685980
vt 0.583155 0.685981
vt 0.583156 0.728081
vt 0.583216 0.685964
vt 0.623675 0.685942
vt 0.623875 0.685984
vt 0.623875 0.685982
vt 0.584456 0.685774
vt 0.583156 0.685982
vt 0.583156 0.728079
vt 0.583156 0.728080
vt 0.623875 0.728080
vt 0.583156 0.685981
vt 0.623876 0.728081
vt 0.623876 0.685980
vt 0.623876 0.685979
vt 0.583155 0.685979
vt 0.583155 0.728083
vt 0.583155 0.728082
vt 0.623876 0.728083
vt 0.583154 0.685978
vt 0.623877 0.728085
vt 0.582290 0.689469
vt 0.582290 0.689465
vt 0.624741 0.724594
vt 0.624741 0.724597
vt 0.624741 0.689465
vt 0.624741 0.689469
vt 0.582291 0.689508
vt 0.582290 0.689487
vt 0.582290 0.724575
vt 0.624741 0.724555
vt 0.624741 0.724575
vt 0.624772 0.691504
vt 0.624741 0.689487
vt 0.582290 0.689475
vt 0.582290 0.724588
vt 0.582259 0.722579
vt 0.582290 0.724594
vt 0.624741 0.724588
vt 0.624772 0.722580
vt 0.624741 0.689475
vt 0.582290 0.689459
vt 0.582290 0.689448
vt 0.582290 0.724603
vt 0.582290 0.724597
vt 0.582290 0.724615
vt 0.624741 0.724603
vt 0.624741 0.724615
vt 0.624772 0.722590
vt 0.624741 0.689459
vt 0.624741 0.689448
vt 0.582290 0.724634
vt 0.624741 0.689429
vt 0.582512 0.726639
vt 0.582638 0.727464
vt 0.582512 0.726641
vt 0.582638 0.727463
vt 0.582385 0.688249
vt 0.582385 0.688245
vt 0.582512 0.687424
vt 0.582512 0.687421
vt 0.624393 0.686598
vt 0.624520 0.687424
vt 0.624393 0.686599
vt 0.623876 0.685981
vt 0.624646 0.725814
vt 0.624646 0.725817
vt 0.582385 0.725778
vt 0.582512 0.726627
vt 0.582385 0.725797
vt 0.582291 0.724555
vt 0.582639 0.686611
vt 0.582632 0.686569
vt 0.582512 0.687448
vt 0.582512 0.687435
vt 0.582638 0.686605
vt 0.583156 0.685984
vt 0.624646 0.688284
vt 0.624519 0.687435
vt 0.624646 0.688265
vt 0.624741 0.689508
vt 0.624392 0.727451
vt 0.624519 0.726615
vt 0.624519 0.726627
vt 0.624393 0.727458
vt 0.623875 0.728079
vt 0.582385 0.725808
vt 0.582512 0.726635
vt 0.582385 0.725814
vt 0.582638 0.686601
vt 0.582512 0.687428
vt 0.582638 0.686599
vt 0.624646 0.688254
vt 0.624520 0.687428
vt 0.624646 0.688249
vt 0.624393 0.727461
vt 0.624520 0.726635
vt 0.624520 0.726639
vt 0.624393 0.727463
vt 0.623876 0.728082
vt 0.582385 0.725823
vt 0.582385 0.725817
vt 0.582511 0.726645
vt 0.582511 0.726652
vt 0.582385 0.725834
vt 0.582638 0.686596
vt 0.582638 0.686598
vt 0.582511 0.687418
vt 0.582511 0.687411
vt 0.582637 0.686593
vt 0.624646 0.688240
vt 0.624646 0.688245
vt 0.624520 0.687418
vt 0.624520 0.687421
vt 0.624520 0.687411
vt 0.624646 0.688229
vt 0.624393 0.727466
vt 0.623876 0.728083
vt 0.624393 0.727464
vt 0.624520 0.726645
vt 0.624520 0.726641
vt 0.624520 0.726652
vt 0.624394 0.727470
vt 0.582385 0.725851
vt 0.582511 0.726663
vt 0.582445 0.726279
vt 0.582637 0.686587
vt 0.582511 0.687399
vt 0.582471 0.687618
vt 0.624646 0.688211
vt 0.624520 0.687399
vt 0.624581 0.687758
vt 0.624394 0.727476
vt 0.624520 0.726663
vt 0.624565 0.726412
vt 0.582639 0.727451
vt 0.582638 0.727458
vt 0.582512 0.726615
vt 0.582385 0.688284
vt 0.582385 0.688265
vt 0.624392 0.686611
vt 0.624393 0.686605
vt 0.624519 0.687448
vt 0.624646 0.725778
vt 0.624646 0.725797
vt 0.582638 0.727461
vt 0.582385 0.688254
vt 0.624393 0.686601
vt 0.624646 0.725808
vt 0.582638 0.727466
vt 0.582638 0.727470
vt 0.582385 0.688240
vt 0.582385 0.688229
vt 0.624394 0.686596
vt 0.624394 0.686593
vt 0.624646 0.725823
vt 0.624646 0.725834
vt 0.582637 0.727476
vt 0.583155 0.728085
vt 0.582385 0.688211
vt 0.582290 0.689429
vt 0.624394 0.686587
vt 0.623877 0.685978
vt 0.624396 0.686574
vt 0.624646 0.725851
vt 0.624741 0.724634
vt 0.582259 0.723506
vt 0.582285 0.726181
vt 0.582259 0.723555
vt 0.622623 0.728288
vt 0.623951 0.728204
vt 0.622624 0.728288
vt 0.624772 0.690504
vt 0.624747 0.687882
vt 0.624772 0.690507
vt 0.584408 0.685774
vt 0.583081 0.685858
vt 0.584409 0.685774
vt 0.584410 0.728288
vt 0.622623 0.728288
vt 0.584408 0.728288
vt 0.583081 0.728204
vt 0.622621 0.685774
vt 0.622622 0.685774
vt 0.623950 0.685859
vt 0.623951 0.685858
vt 0.582259 0.690502
vt 0.582259 0.690506
vt 0.582285 0.687884
vt 0.582285 0.687882
vt 0.624772 0.723538
vt 0.624772 0.690562
vt 0.624772 0.723552
vt 0.624747 0.726179
vt 0.624747 0.726181
vt 0.582362 0.686786
vt 0.582362 0.686783
vt 0.582466 0.686449
vt 0.582466 0.686447
vt 0.624462 0.686111
vt 0.624566 0.686449
vt 0.624566 0.686447
vt 0.582569 0.727951
vt 0.582569 0.727952
vt 0.582466 0.727614
vt 0.582466 0.727615
vt 0.624669 0.727277
vt 0.624669 0.727279
vt 0.624566 0.727614
vt 0.624566 0.727615
vt 0.582569 0.686111
vt 0.583081 0.685859
vt 0.624669 0.686786
vt 0.624669 0.686783
vt 0.624747 0.687884
vt 0.582362 0.727277
vt 0.582362 0.727279
vt 0.582285 0.726179
vt 0.624462 0.727951
vt 0.624462 0.727952
vt 0.623950 0.728204
vt 0.582259 0.723694
vt 0.582282 0.725885
vt 0.582285 0.726158
vt 0.582259 0.723782
vt 0.582285 0.726166
vt 0.622695 0.728288
vt 0.623824 0.728207
vt 0.623949 0.728202
vt 0.622746 0.728288
vt 0.623950 0.728203
vt 0.624772 0.690421
vt 0.624748 0.688066
vt 0.624747 0.687901
vt 0.584263 0.685774
vt 0.583217 0.685856
vt 0.583082 0.685861
vt 0.584425 0.685774
vt 0.583082 0.685860
vt 0.584286 0.728288
vt 0.582642 0.727967
vt 0.583081 0.728203
vt 0.583082 0.728202
vt 0.622622 0.685774
vt 0.622728 0.685774
vt 0.623836 0.685859
vt 0.623950 0.685860
vt 0.623949 0.685861
vt 0.582259 0.689983
vt 0.582284 0.688080
vt 0.582285 0.687901
vt 0.582285 0.687910
vt 0.624772 0.723530
vt 0.624772 0.723681
vt 0.624748 0.688069
vt 0.624684 0.726970
vt 0.624747 0.726166
vt 0.624746 0.726158
vt 0.582363 0.686810
vt 0.582362 0.686801
vt 0.582466 0.686459
vt 0.582466 0.686465
vt 0.624461 0.686120
vt 0.624461 0.686117
vt 0.624565 0.686459
vt 0.624565 0.686465
vt 0.624460 0.686129
vt 0.624622 0.686681
vt 0.582570 0.727945
vt 0.582570 0.727947
vt 0.582466 0.727606
vt 0.582466 0.727601
vt 0.582402 0.727365
vt 0.624669 0.727258
vt 0.624669 0.727265
vt 0.624565 0.727606
vt 0.624565 0.727601
vt 0.624502 0.727792
vt 0.582570 0.686120
vt 0.582426 0.686622
vt 0.582570 0.686117
vt 0.582572 0.686129
vt 0.624669 0.686810
vt 0.624669 0.686801
vt 0.582363 0.727258
vt 0.582362 0.727265
vt 0.624461 0.727945
vt 0.624462 0.727947
vt 0.582259 0.723444
vt 0.582285 0.726173
vt 0.622603 0.728288
vt 0.624772 0.690298
vt 0.624747 0.687891
vt 0.584409 0.685774
vt 0.583081 0.685859
vt 0.584408 0.728288
vt 0.584313 0.728288
vt 0.622624 0.685774
vt 0.623950 0.685859
vt 0.582259 0.690496
vt 0.582259 0.690463
vt 0.582285 0.687891
vt 0.624772 0.723675
vt 0.624747 0.726173
vt 0.582362 0.686792
vt 0.582466 0.686453
vt 0.624462 0.686114
vt 0.624565 0.686453
vt 0.582569 0.727949
vt 0.582466 0.727611
vt 0.624669 0.727272
vt 0.624565 0.727611
vt 0.582569 0.686114
vt 0.624669 0.686792
vt 0.582362 0.727272
vt 0.624462 0.727949
vt 0.582535 0.687614
vt 0.582500 0.727456
vt 0.582498 0.686627
vt 0.582545 0.726653
vt 0.624482 0.687531
vt 0.624537 0.686631
vt 0.624509 0.726455
vt 0.624524 0.727458
vt 0.622581 0.728288
s 1
f 54/1/1 49/2/2 50/3/3
f 49/2/2 54/1/1 53/4/4
f 31/5/5 26/6/6 27/7/7
f 56/8/8 51/9/9 52/10/10
f 28/11/11 33/12/12 32/13/13
f 181/14/14 76/15/15 8/16/16
f 198/17/17 65/18/18 105/19/19
f 107/20/20 78/21/21 10/22/22
f 106/23/23 107/20/20 198/17/17
f 199/24/24 79/25/25 7/26/26
f 199/24/24 105/19/19 65/18/18
f 182/27/27 57/28/28 58/29/29
f 207/30/30 8/16/16 76/15/15
f 183/31/31 34/32/32 35/33/33
f 184/34/34 59/35/35 60/36/36
f 184/34/34 10/22/22 78/21/21
f 201/37/37 36/38/38 37/39/39
f 185/40/40 7/26/26 79/25/25
f 186/41/41 53/4/4 54/1/1
f 186/41/41 58/29/29 57/28/28
f 187/42/42 30/43/43 31/5/5
f 187/42/42 35/33/33 34/32/32
f 188/44/44 55/45/45 56/8/8
f 188/44/44 60/36/36 59/35/35
f 189/46/46 32/13/13 33/12/12
f 189/46/46 37/39/39 36/38/38
f 211/47/47 61/48/48 62/49/49
f 190/50/50 50/3/3 49/2/2
f 191/51/51 42/52/52 43/53/53
f 203/6/54 27/7/7 26/6/6
f 192/54/55 63/55/56 64/56/57
f 192/54/55 52/10/10 51/9/9
f 204/57/58 44/58/59 45/59/60
f 193/60/61 29/61/62 28/11/11
f 213/62/63 1/63/64 70/64/65
f 194/65/66 62/49/49 61/48/48
f 195/66/67 38/67/68 39/68/69
f 205/69/70 43/53/53 42/52/52
f 196/70/71 2/71/72 71/72/73
f 214/73/74 64/56/57 63/55/56
f 197/74/75 40/75/76 41/76/77
f 197/74/75 45/59/60 44/58/59
f 105/19/19 199/24/24 104/77/78
f 85/78/79 30/43/43 73/79/80
f 29/61/62 3/80/81 33/12/12
f 198/17/17 77/81/82 9/82/83
f 333/83/84 35/33/33 82/84/85
f 200/85/86 9/82/83 77/81/82
f 200/85/86 12/86/87 34/32/32
f 331/87/88 37/39/39 80/88/89
f 185/40/40 14/89/90 36/38/38
f 202/66/91 82/84/85 35/33/33
f 307/90/92 34/32/32 12/86/87
f 187/42/42 73/79/80 30/43/43
f 189/46/46 80/88/89 37/39/39
f 309/91/93 36/38/38 14/89/90
f 17/92/94 43/53/53 90/93/95
f 191/51/51 17/92/94 27/7/7
f 203/6/54 20/94/96 42/52/52
f 337/95/97 45/59/60 88/95/98
f 204/57/58 15/96/99 29/61/62
f 193/60/61 22/97/100 44/58/59
f 195/66/67 90/93/95 43/53/53
f 313/98/101 42/52/52 20/94/96
f 197/74/75 88/95/98 45/59/60
f 315/99/102 44/58/59 22/97/100
f 4/100/103 50/3/3 16/101/104
f 6/102/105 52/10/10 18/103/106
f 86/104/107 55/45/45 74/105/108
f 55/45/45 86/104/107 51/9/9
f 332/106/109 58/29/29 81/107/110
f 207/30/30 11/108/111 57/28/28
f 334/109/112 60/36/36 83/110/113
f 208/111/114 13/112/115 59/35/35
f 335/113/116 54/1/1 4/100/103
f 186/41/41 81/107/110 58/29/29
f 306/114/117 57/28/28 11/108/111
f 209/115/118 72/116/119 53/4/4
f 336/117/120 56/8/8 6/102/105
f 210/118/121 83/110/113 60/36/36
f 308/119/122 59/35/35 13/112/115
f 188/44/44 74/105/108 55/45/45
f 338/120/123 62/49/49 89/121/124
f 211/47/47 16/101/104 50/3/3
f 310/122/125 49/2/2 84/123/126
f 190/50/50 19/124/127 61/48/48
f 339/125/128 64/56/57 91/126/129
f 212/127/130 18/103/106 52/10/10
f 311/128/131 51/9/9 86/104/107
f 192/54/55 21/129/132 63/55/56
f 213/62/63 89/121/124 62/49/49
f 312/130/133 61/48/48 19/124/127
f 196/70/71 91/126/129 64/56/57
f 314/131/134 63/55/56 21/129/132
f 100/132/135 215/133/136 112/134/137
f 215/133/136 100/132/135 345/135/138
f 15/96/99 345/135/138 3/80/81
f 216/136/139 16/101/104 351/137/140
f 101/138/141 351/137/140 113/139/142
f 217/140/143 102/141/144 346/142/145
f 17/92/94 346/142/145 5/143/146
f 218/144/147 18/103/106 352/145/148
f 219/146/149 76/15/15 104/77/78
f 219/146/149 108/147/150 347/148/151
f 302/149/152 347/148/151 11/108/111
f 220/150/153 77/81/82 321/151/154
f 358/152/155 321/151/154 105/19/19
f 220/150/153 109/153/156 348/154/157
f 303/155/158 348/154/157 12/86/87
f 221/156/159 78/21/21 106/23/23
f 221/156/159 110/157/160 349/158/161
f 304/159/162 349/158/161 13/112/115
f 222/160/163 79/25/25 65/18/18
f 360/161/164 65/18/18 107/20/20
f 222/160/163 111/162/165 350/163/166
f 305/164/167 350/163/166 14/89/90
f 223/165/168 11/108/111 347/148/151
f 361/166/169 347/148/151 108/147/150
f 223/165/168 100/132/135 235/167/170
f 306/114/117 235/167/170 72/116/119
f 224/168/171 12/86/87 348/154/157
f 362/169/172 348/154/157 109/153/156
f 224/168/171 101/138/141 318/170/173
f 307/90/92 318/170/173 73/79/80
f 225/171/174 13/112/115 349/158/161
f 363/172/175 349/158/161 110/157/160
f 225/171/174 102/141/144 319/173/176
f 308/119/122 319/173/176 74/105/108
f 226/174/177 14/89/90 350/163/166
f 364/175/178 350/163/166 111/162/165
f 226/174/177 103/176/179 320/177/180
f 309/91/93 320/177/180 75/178/181
f 227/179/182 84/123/126 326/180/183
f 365/181/184 326/180/183 112/134/137
f 227/179/182 116/182/185 353/183/186
f 310/122/125 353/183/186 19/124/127
f 228/184/187 85/78/79 236/185/188
f 366/186/189 236/185/188 113/139/142
f 228/184/187 117/187/190 354/188/191
f 85/78/79 354/188/191 20/94/96
f 229/189/192 86/104/107 237/190/193
f 367/191/194 237/190/193 114/192/195
f 229/189/192 118/193/196 355/194/197
f 311/128/131 355/194/197 21/129/132
f 230/195/198 87/196/199 238/197/200
f 368/198/201 238/197/200 115/199/202
f 230/195/198 119/200/203 356/201/204
f 87/196/199 356/201/204 22/97/100
f 231/202/205 19/124/127 353/183/186
f 369/203/206 353/183/186 116/182/185
f 312/130/133 96/204/207 1/63/64
f 232/205/208 20/94/96 354/188/191
f 370/206/209 354/188/191 117/187/190
f 232/205/208 97/207/210 38/67/68
f 233/208/211 21/129/132 355/194/197
f 371/209/212 355/194/197 118/193/196
f 314/131/134 98/210/213 2/71/72
f 234/211/214 22/97/100 356/201/204
f 372/212/215 356/201/204 119/200/203
f 234/211/214 99/213/216 40/75/76
f 235/167/170 112/134/137 326/180/183
f 72/116/119 326/180/183 84/123/126
f 236/185/188 73/79/80 318/170/173
f 237/190/193 74/105/108 319/173/176
f 114/192/195 319/173/176 102/141/144
f 75/178/181 238/197/200 87/196/199
f 238/197/200 75/178/181 320/177/180
f 115/199/202 320/177/180 103/176/179
f 105/19/19 321/151/154 77/81/82
f 239/214/217 104/77/78 199/24/24
f 331/87/88 199/24/24 7/26/26
f 239/214/217 80/88/89 322/215/218
f 357/216/219 322/215/218 108/147/150
f 240/217/220 105/19/19 181/14/14
f 332/106/109 181/14/14 8/16/16
f 240/217/220 81/107/110 323/218/221
f 358/152/155 323/218/221 109/153/156
f 241/219/222 106/23/23 198/17/17
f 333/83/84 198/17/17 9/82/83
f 241/219/222 82/84/85 324/220/223
f 359/221/224 324/220/223 110/157/160
f 334/109/112 107/20/20 10/22/22
f 242/222/225 83/110/113 325/223/226
f 360/161/164 325/223/226 111/162/165
f 243/224/227 108/147/150 322/215/218
f 3/80/81 322/215/218 80/88/89
f 243/224/227 3/80/81 345/135/138
f 361/166/169 345/135/138 100/132/135
f 244/225/228 109/153/156 323/218/221
f 335/113/116 323/218/221 81/107/110
f 244/225/228 4/100/103 216/136/139
f 362/169/172 216/136/139 101/138/141
f 245/226/229 110/157/160 324/220/223
f 5/143/146 324/220/223 82/84/85
f 245/226/229 5/143/146 346/142/145
f 363/172/175 346/142/145 102/141/144
f 246/227/230 111/162/165 325/223/226
f 336/117/120 325/223/226 83/110/113
f 246/227/230 6/102/105 218/144/147
f 364/175/178 218/144/147 103/176/179
f 247/228/231 112/134/137 215/133/136
f 337/95/97 215/133/136 15/96/99
f 247/228/231 88/95/98 327/229/232
f 365/181/184 327/229/232 116/182/185
f 248/230/233 113/139/142 351/137/140
f 338/120/123 351/137/140 16/101/104
f 248/230/233 89/121/124 328/231/234
f 366/186/189 328/231/234 117/187/190
f 249/232/235 114/192/195 217/140/143
f 249/232/235 90/93/95 329/233/236
f 367/191/194 329/233/236 118/193/196
f 250/234/237 115/199/202 352/145/148
f 339/125/128 352/145/148 18/103/106
f 250/234/237 91/126/129 330/235/238
f 368/198/201 330/235/238 119/200/203
f 251/236/239 116/182/185 327/229/232
f 340/237/240 327/229/232 88/95/98
f 369/203/206 41/76/77 96/204/207
f 252/238/241 117/187/190 328/231/234
f 341/239/242 328/231/234 89/121/124
f 252/238/241 70/64/65 97/207/210
f 253/240/243 118/193/196 329/233/236
f 342/241/244 329/233/236 90/93/95
f 253/240/243 39/68/69 317/242/245
f 371/209/212 317/242/245 98/210/213
f 254/243/246 119/200/203 330/235/238
f 343/244/247 330/235/238 91/126/129
f 254/243/246 71/72/73 99/213/216
f 107/20/20 65/18/18 198/17/17
f 46/245/248 122/246/249 128/247/250
f 256/248/251 123/249/252 124/250/253
f 255/251/254 121/252/255 130/253/256
f 24/254/257 120/255/258 126/256/259
f 256/248/251 257/257/260 23/258/261
f 257/257/260 124/250/253 125/259/262
f 68/260/263 125/259/262 134/260/264
f 25/261/265 126/256/259 127/262/266
f 67/263/267 127/262/266 133/264/268
f 258/265/269 128/247/250 129/266/270
f 66/267/271 129/266/270 132/268/272
f 255/251/254 48/269/273 47/270/274
f 48/269/273 130/253/256 131/271/275
f 69/272/276 131/271/275 135/273/277
f 259/274/278 132/268/272 373/275/279
f 152/276/280 373/275/279 136/277/281
f 260/278/282 133/264/268 374/278/283
f 153/279/284 374/278/283 137/280/285
f 261/281/286 134/260/264 375/282/287
f 154/283/288 375/282/287 138/284/289
f 262/285/290 135/273/277 376/286/291
f 155/287/292 376/286/291 139/288/293
f 263/289/294 136/277/281 377/289/295
f 140/290/296 377/289/295 120/255/258
f 264/291/297 137/280/285 378/292/298
f 141/293/299 378/292/298 121/252/255
f 265/294/300 138/284/289 379/295/301
f 142/296/302 379/295/301 122/246/249
f 266/297/303 139/288/293 380/298/304
f 143/299/305 380/298/304 123/249/252
f 267/300/306 148/301/307 394/302/308
f 164/303/309 394/302/308 158/304/310
f 268/305/311 144/306/312 395/307/313
f 160/308/314 395/307/313 159/309/315
f 166/310/316 269/311/317 157/312/318
f 271/313/319 146/314/320 393/315/321
f 162/316/322 393/315/321 156/317/323
f 270/318/324 144/306/312 268/305/311
f 144/306/312 270/318/324 145/319/325
f 270/318/324 170/320/326 387/321/327
f 271/313/319 163/322/328 272/323/329
f 146/314/320 272/323/329 147/324/330
f 272/323/329 169/325/331 386/326/332
f 273/327/333 148/301/307 267/300/306
f 148/301/307 273/327/333 149/328/334
f 273/327/333 168/329/335 385/330/336
f 269/311/317 167/331/337 274/332/338
f 150/333/339 274/332/338 151/334/340
f 274/332/338 171/335/341 388/336/342
f 275/337/343 149/328/334 385/330/336
f 404/338/344 385/330/336 168/329/335
f 275/337/343 172/339/345 400/340/346
f 276/341/347 147/324/330 386/326/332
f 405/342/348 386/326/332 169/325/331
f 276/341/347 173/343/349 401/344/350
f 316/345/351 401/344/350 93/346/352
f 277/347/353 145/319/325 387/321/327
f 406/348/354 387/321/327 170/320/326
f 277/347/353 174/349/355 402/350/356
f 145/319/325 402/350/356 94/351/357
f 278/352/358 151/334/340 388/336/342
f 407/353/359 388/336/342 171/335/341
f 278/352/358 175/354/360 403/355/361
f 151/334/340 403/355/361 95/356/362
f 279/357/363 92/358/364 400/340/346
f 408/359/365 400/340/346 172/339/345
f 279/357/363 156/317/323 393/315/321
f 344/360/366 393/315/321 146/314/320
f 280/361/367 93/346/352 401/344/350
f 409/362/368 401/344/350 173/343/349
f 280/361/367 157/312/318 269/311/317
f 93/346/352 269/311/317 150/333/339
f 281/363/369 94/351/357 402/350/356
f 410/364/370 402/350/356 174/349/355
f 281/363/369 158/304/310 394/302/308
f 94/351/357 394/302/308 148/301/307
f 282/365/371 95/356/362 403/355/361
f 411/366/372 403/355/361 175/354/360
f 282/365/371 159/309/315 395/307/313
f 95/356/362 395/307/313 144/306/312
f 283/367/373 158/304/310 383/368/374
f 46/245/248 383/368/374 142/296/302
f 285/369/375 159/309/315 384/309/376
f 23/258/261 384/309/376 143/299/305
f 284/370/377 157/312/318 382/371/378
f 47/270/274 382/371/378 141/293/299
f 287/372/379 156/317/323 381/373/380
f 24/254/257 381/373/380 140/290/296
f 257/257/260 285/369/375 23/258/261
f 285/369/375 257/257/260 286/374/381
f 160/308/314 286/374/381 161/375/382
f 286/374/381 68/260/263 398/320/383
f 161/375/382 398/320/383 170/320/326
f 25/261/265 287/372/379 24/254/257
f 287/372/379 25/261/265 288/376/384
f 162/316/322 288/376/384 163/322/328
f 288/376/384 67/263/267 397/377/385
f 163/322/328 397/377/385 169/325/331
f 283/367/373 258/265/269 289/378/386
f 164/303/309 289/378/386 165/379/387
f 289/378/386 66/267/271 396/380/388
f 165/379/387 396/380/388 168/329/335
f 48/269/273 284/370/377 47/270/274
f 284/370/377 48/269/273 290/381/389
f 166/310/316 290/381/389 167/331/337
f 290/381/389 69/272/276 399/382/390
f 167/331/337 399/382/390 171/335/341
f 291/383/391 168/329/335 396/380/388
f 259/274/278 396/380/388 66/267/271
f 291/383/391 152/276/280 389/384/392
f 404/338/344 389/384/392 172/339/345
f 292/385/393 169/325/331 397/377/385
f 260/278/282 397/377/385 67/263/267
f 292/385/393 153/279/284 390/386/394
f 405/342/348 390/386/394 173/343/349
f 293/387/395 170/320/326 398/320/383
f 261/281/286 398/320/383 68/260/263
f 293/387/395 154/283/288 391/388/396
f 406/348/354 391/388/396 174/349/355
f 294/389/397 171/335/341 399/382/390
f 262/285/290 399/382/390 69/272/276
f 294/389/397 155/287/292 392/390/398
f 407/353/359 392/390/398 175/354/360
f 295/391/399 172/339/345 389/384/392
f 263/289/294 389/384/392 152/276/280
f 295/391/399 140/290/296 381/373/380
f 408/359/365 381/373/380 156/317/323
f 296/392/400 173/343/349 390/386/394
f 264/291/297 390/386/394 153/279/284
f 296/392/400 141/293/299 382/371/378
f 409/362/368 382/371/378 157/312/318
f 297/393/401 174/349/355 391/388/396
f 265/294/300 391/388/396 154/283/288
f 297/393/401 142/296/302 383/368/374
f 410/364/370 383/368/374 158/304/310
f 298/394/402 175/354/360 392/390/398
f 266/297/303 392/390/398 155/287/292
f 298/394/402 143/299/305 384/309/376
f 411/366/372 384/309/376 159/309/315
f 1/63/64 178/395/403 70/64/65
f 176/396/404 149/328/334 301/397/405
f 179/398/406 301/397/405 178/395/403
f 180/399/407 38/67/68 178/395/403
f 301/397/405 147/324/330 299/400/408
f 2/71/72 300/401/409 71/72/73
f 177/402/410 180/399/407 299/400/408
f 40/75/76 179/398/406 41/76/77
f 179/398/406 40/75/76 300/401/409
f 177/402/410 145/319/325 176/396/404
f 41/76/77 179/398/406 96/204/207
f 92/358/364 301/397/405 149/328/334
f 317/242/245 180/399/407 98/210/213
f 316/345/351 299/400/408 147/324/330
f 96/204/207 179/398/406 1/63/64
f 344/360/366 301/397/405 92/358/364
f 98/210/213 180/399/407 2/71/72
f 31/5/5 30/43/43 26/6/6
f 55/45/45 51/9/9 56/8/8
f 28/11/11 29/61/62 33/12/12
f 181/14/14 104/77/78 76/15/15
f 104/77/78 181/14/14 105/19/19
f 107/20/20 106/23/23 78/21/21
f 182/27/27 207/30/30 57/28/28
f 207/30/30 182/27/27 8/16/16
f 183/31/31 200/85/86 34/32/32
f 200/85/86 183/31/31 9/82/83
f 184/34/34 208/111/114 59/35/35
f 208/111/114 184/34/34 78/21/21
f 201/37/37 185/40/40 36/38/38
f 185/40/40 201/37/37 7/26/26
f 186/41/41 209/115/118 53/4/4
f 209/115/118 186/41/41 57/28/28
f 202/66/91 187/42/42 31/5/5
f 187/42/42 202/66/91 35/33/33
f 210/118/121 188/44/44 56/8/8
f 188/44/44 210/118/121 60/36/36
f 32/13/13 189/46/46 36/38/38
f 211/47/47 190/50/50 61/48/48
f 190/50/50 211/47/47 50/3/3
f 191/51/51 203/6/54 42/52/52
f 203/6/54 191/51/51 27/7/7
f 212/127/130 192/54/55 64/56/57
f 192/54/55 212/127/130 52/10/10
f 204/57/58 193/60/61 44/58/59
f 193/60/61 204/57/58 29/61/62
f 213/62/63 194/65/66 1/63/64
f 194/65/66 213/62/63 62/49/49
f 195/66/67 205/69/70 38/67/68
f 205/69/70 195/66/67 43/53/53
f 196/70/71 214/73/74 2/71/72
f 214/73/74 196/70/71 64/56/57
f 197/74/75 206/403/411 40/75/76
f 206/403/411 197/74/75 44/58/59
f 17/92/94 31/5/5 27/7/7
f 31/5/5 17/92/94 5/143/146
f 85/78/79 26/6/6 30/43/43
f 29/61/62 15/96/99 3/80/81
f 75/178/181 28/11/11 32/13/13
f 28/11/11 75/178/181 87/196/199
f 198/17/17 105/19/19 77/81/82
f 199/24/24 65/18/18 79/25/25
f 333/83/84 183/31/31 35/33/33
f 183/31/31 333/83/84 9/82/83
f 303/155/158 200/85/86 77/81/82
f 200/85/86 303/155/158 12/86/87
f 331/87/88 201/37/37 37/39/39
f 201/37/37 331/87/88 7/26/26
f 305/164/167 185/40/40 79/25/25
f 185/40/40 305/164/167 14/89/90
f 5/143/146 202/66/91 31/5/5
f 202/66/91 5/143/146 82/84/85
f 307/90/92 187/42/42 34/32/32
f 187/42/42 307/90/92 73/79/80
f 3/80/81 189/46/46 33/12/12
f 189/46/46 3/80/81 80/88/89
f 309/91/93 32/13/13 36/38/38
f 32/13/13 309/91/93 75/178/181
f 17/92/94 191/51/51 43/53/53
f 85/78/79 203/6/54 26/6/6
f 203/6/54 85/78/79 20/94/96
f 337/95/97 204/57/58 45/59/60
f 204/57/58 337/95/97 15/96/99
f 87/196/199 193/60/61 28/11/11
f 193/60/61 87/196/199 22/97/100
f 342/241/244 195/66/67 39/68/69
f 195/66/67 342/241/244 90/93/95
f 313/98/101 205/69/70 42/52/52
f 205/69/70 313/98/101 38/67/68
f 340/237/240 197/74/75 41/76/77
f 197/74/75 340/237/240 88/95/98
f 315/99/102 206/403/411 44/58/59
f 206/403/411 315/99/102 40/75/76
f 4/100/103 54/1/1 50/3/3
f 72/116/119 49/2/2 53/4/4
f 49/2/2 72/116/119 84/123/126
f 6/102/105 56/8/8 52/10/10
f 332/106/109 182/27/27 58/29/29
f 182/27/27 332/106/109 8/16/16
f 302/149/152 207/30/30 76/15/15
f 207/30/30 302/149/152 11/108/111
f 334/109/112 184/34/34 60/36/36
f 184/34/34 334/109/112 10/22/22
f 304/159/162 208/111/114 78/21/21
f 208/111/114 304/159/162 13/112/115
f 335/113/116 186/41/41 54/1/1
f 186/41/41 335/113/116 81/107/110
f 306/114/117 209/115/118 57/28/28
f 209/115/118 306/114/117 72/116/119
f 336/117/120 210/118/121 56/8/8
f 210/118/121 336/117/120 83/110/113
f 308/119/122 188/44/44 59/35/35
f 188/44/44 308/119/122 74/105/108
f 338/120/123 211/47/47 62/49/49
f 211/47/47 338/120/123 16/101/104
f 310/122/125 190/50/50 49/2/2
f 190/50/50 310/122/125 19/124/127
f 339/125/128 212/127/130 64/56/57
f 212/127/130 339/125/128 18/103/106
f 311/128/131 192/54/55 51/9/9
f 192/54/55 311/128/131 21/129/132
f 341/239/242 213/62/63 70/64/65
f 213/62/63 341/239/242 89/121/124
f 312/130/133 194/65/66 61/48/48
f 194/65/66 312/130/133 1/63/64
f 343/244/247 196/70/71 71/72/73
f 196/70/71 343/244/247 91/126/129
f 314/131/134 214/73/74 63/55/56
f 214/73/74 314/131/134 2/71/72
f 15/96/99 215/133/136 345/135/138
f 216/136/139 4/100/103 16/101/104
f 101/138/141 216/136/139 351/137/140
f 217/140/143 114/192/195 102/141/144
f 17/92/94 217/140/143 346/142/145
f 218/144/147 6/102/105 18/103/106
f 115/199/202 218/144/147 352/145/148
f 218/144/147 115/199/202 103/176/179
f 219/146/149 302/149/152 76/15/15
f 357/216/219 219/146/149 104/77/78
f 219/146/149 357/216/219 108/147/150
f 302/149/152 219/146/149 347/148/151
f 220/150/153 303/155/158 77/81/82
f 358/152/155 220/150/153 321/151/154
f 220/150/153 358/152/155 109/153/156
f 303/155/158 220/150/153 348/154/157
f 221/156/159 304/159/162 78/21/21
f 359/221/224 221/156/159 106/23/23
f 221/156/159 359/221/224 110/157/160
f 304/159/162 221/156/159 349/158/161
f 222/160/163 305/164/167 79/25/25
f 360/161/164 222/160/163 65/18/18
f 222/160/163 360/161/164 111/162/165
f 305/164/167 222/160/163 350/163/166
f 223/165/168 306/114/117 11/108/111
f 361/166/169 223/165/168 347/148/151
f 223/165/168 361/166/169 100/132/135
f 306/114/117 223/165/168 235/167/170
f 224/168/171 307/90/92 12/86/87
f 362/169/172 224/168/171 348/154/157
f 224/168/171 362/169/172 101/138/141
f 307/90/92 224/168/171 318/170/173
f 225/171/174 308/119/122 13/112/115
f 363/172/175 225/171/174 349/158/161
f 225/171/174 363/172/175 102/141/144
f 308/119/122 225/171/174 319/173/176
f 226/174/177 309/91/93 14/89/90
f 364/175/178 226/174/177 350/163/166
f 226/174/177 364/175/178 103/176/179
f 309/91/93 226/174/177 320/177/180
f 227/179/182 310/122/125 84/123/126
f 365/181/184 227/179/182 326/180/183
f 227/179/182 365/181/184 116/182/185
f 310/122/125 227/179/182 353/183/186
f 366/186/189 228/184/187 236/185/188
f 228/184/187 366/186/189 117/187/190
f 85/78/79 228/184/187 354/188/191
f 229/189/192 311/128/131 86/104/107
f 367/191/194 229/189/192 237/190/193
f 229/189/192 367/191/194 118/193/196
f 311/128/131 229/189/192 355/194/197
f 368/198/201 230/195/198 238/197/200
f 230/195/198 368/198/201 119/200/203
f 87/196/199 230/195/198 356/201/204
f 231/202/205 312/130/133 19/124/127
f 369/203/206 231/202/205 353/183/186
f 231/202/205 369/203/206 96/204/207
f 312/130/133 231/202/205 96/204/207
f 232/205/208 313/98/101 20/94/96
f 370/206/209 232/205/208 354/188/191
f 232/205/208 370/206/209 97/207/210
f 313/98/101 232/205/208 38/67/68
f 233/208/211 314/131/134 21/129/132
f 371/209/212 233/208/211 355/194/197
f 233/208/211 371/209/212 98/210/213
f 314/131/134 233/208/211 98/210/213
f 234/211/214 315/99/102 22/97/100
f 372/212/215 234/211/214 356/201/204
f 234/211/214 372/212/215 99/213/216
f 315/99/102 234/211/214 40/75/76
f 235/167/170 100/132/135 112/134/137
f 72/116/119 235/167/170 326/180/183
f 236/185/188 101/138/141 113/139/142
f 236/185/188 85/78/79 73/79/80
f 101/138/141 236/185/188 318/170/173
f 237/190/193 86/104/107 74/105/108
f 114/192/195 237/190/193 319/173/176
f 115/199/202 238/197/200 320/177/180
f 239/214/217 357/216/219 104/77/78
f 331/87/88 239/214/217 199/24/24
f 239/214/217 331/87/88 80/88/89
f 357/216/219 239/214/217 322/215/218
f 240/217/220 358/152/155 105/19/19
f 332/106/109 240/217/220 181/14/14
f 240/217/220 332/106/109 81/107/110
f 358/152/155 240/217/220 323/218/221
f 241/219/222 359/221/224 106/23/23
f 333/83/84 241/219/222 198/17/17
f 241/219/222 333/83/84 82/84/85
f 359/221/224 241/219/222 324/220/223
f 242/222/225 360/161/164 107/20/20
f 334/109/112 242/222/225 107/20/20
f 242/222/225 334/109/112 83/110/113
f 360/161/164 242/222/225 325/223/226
f 243/224/227 361/166/169 108/147/150
f 3/80/81 243/224/227 322/215/218
f 361/166/169 243/224/227 345/135/138
f 244/225/228 362/169/172 109/153/156
f 335/113/116 244/225/228 323/218/221
f 244/225/228 335/113/116 4/100/103
f 362/169/172 244/225/228 216/136/139
f 245/226/229 363/172/175 110/157/160
f 5/143/146 245/226/229 324/220/223
f 363/172/175 245/226/229 346/142/145
f 246/227/230 364/175/178 111/162/165
f 336/117/120 246/227/230 325/223/226
f 246/227/230 336/117/120 6/102/105
f 364/175/178 246/227/230 218/144/147
f 247/228/231 365/181/184 112/134/137
f 337/95/97 247/228/231 215/133/136
f 247/228/231 337/95/97 88/95/98
f 365/181/184 247/228/231 327/229/232
f 248/230/233 366/186/189 113/139/142
f 338/120/123 248/230/233 351/137/140
f 248/230/233 338/120/123 89/121/124
f 366/186/189 248/230/233 328/231/234
f 249/232/235 367/191/194 114/192/195
f 17/92/94 249/232/235 217/140/143
f 249/232/235 17/92/94 90/93/95
f 367/191/194 249/232/235 329/233/236
f 250/234/237 368/198/201 115/199/202
f 339/125/128 250/234/237 352/145/148
f 250/234/237 339/125/128 91/126/129
f 368/198/201 250/234/237 330/235/238
f 251/236/239 369/203/206 116/182/185
f 340/237/240 251/236/239 327/229/232
f 251/236/239 340/237/240 41/76/77
f 369/203/206 251/236/239 41/76/77
f 252/238/241 370/206/209 117/187/190
f 341/239/242 252/238/241 328/231/234
f 252/238/241 341/239/242 70/64/65
f 370/206/209 252/238/241 97/207/210
f 253/240/243 371/209/212 118/193/196
f 342/241/244 253/240/243 329/233/236
f 253/240/243 342/241/244 39/68/69
f 371/209/212 253/240/243 317/242/245
f 254/243/246 372/212/215 119/200/203
f 343/244/247 254/243/246 330/235/238
f 254/243/246 343/244/247 71/72/73
f 372/212/215 254/243/246 99/213/216
f 46/245/248 142/296/302 122/246/249
f 143/299/305 256/248/251 23/258/261
f 256/248/251 143/299/305 123/249/252
f 141/293/299 255/251/254 47/270/274
f 255/251/254 141/293/299 121/252/255
f 24/254/257 140/290/296 120/255/258
f 257/257/260 256/248/251 124/250/253
f 68/260/263 257/257/260 125/259/262
f 25/261/265 24/254/257 126/256/259
f 67/263/267 25/261/265 127/262/266
f 258/265/269 46/245/248 128/247/250
f 66/267/271 258/265/269 129/266/270
f 48/269/273 255/251/254 130/253/256
f 69/272/276 48/269/273 131/271/275
f 259/274/278 66/267/271 132/268/272
f 152/276/280 259/274/278 373/275/279
f 260/278/282 67/263/267 133/264/268
f 153/279/284 260/278/282 374/278/283
f 261/281/286 68/260/263 134/260/264
f 154/283/288 261/281/286 375/282/287
f 262/285/290 69/272/276 135/273/277
f 155/287/292 262/285/290 376/286/291
f 263/289/294 152/276/280 136/277/281
f 140/290/296 263/289/294 377/289/295
f 264/291/297 153/279/284 137/280/285
f 141/293/299 264/291/297 378/292/298
f 265/294/300 154/283/288 138/284/289
f 142/296/302 265/294/300 379/295/301
f 266/297/303 155/287/292 139/288/293
f 143/299/305 266/297/303 380/298/304
f 164/303/309 267/300/306 394/302/308
f 160/308/314 268/305/311 395/307/313
f 162/316/322 271/313/319 393/315/321
f 160/308/314 270/318/324 268/305/311
f 270/318/324 160/308/314 161/375/382
f 270/318/324 161/375/382 170/320/326
f 145/319/325 270/318/324 387/321/327
f 271/313/319 162/316/322 163/322/328
f 146/314/320 271/313/319 272/323/329
f 272/323/329 163/322/328 169/325/331
f 147/324/330 272/323/329 386/326/332
f 164/303/309 273/327/333 267/300/306
f 273/327/333 164/303/309 165/379/387
f 273/327/333 165/379/387 168/329/335
f 149/328/334 273/327/333 385/330/336
f 269/311/317 166/310/316 167/331/337
f 150/333/339 269/311/317 274/332/338
f 274/332/338 167/331/337 171/335/341
f 151/334/340 274/332/338 388/336/342
f 275/337/343 92/358/364 149/328/334
f 404/338/344 275/337/343 385/330/336
f 275/337/343 404/338/344 172/339/345
f 92/358/364 275/337/343 400/340/346
f 276/341/347 316/345/351 147/324/330
f 405/342/348 276/341/347 386/326/332
f 276/341/347 405/342/348 173/343/349
f 316/345/351 276/341/347 401/344/350
f 406/348/354 277/347/353 387/321/327
f 277/347/353 406/348/354 174/349/355
f 145/319/325 277/347/353 402/350/356
f 407/353/359 278/352/358 388/336/342
f 278/352/358 407/353/359 175/354/360
f 151/334/340 278/352/358 403/355/361
f 279/357/363 344/360/366 92/358/364
f 408/359/365 279/357/363 400/340/346
f 279/357/363 408/359/365 156/317/323
f 344/360/366 279/357/363 393/315/321
f 409/362/368 280/361/367 401/344/350
f 280/361/367 409/362/368 157/312/318
f 93/346/352 280/361/367 269/311/317
f 410/364/370 281/363/369 402/350/356
f 281/363/369 410/364/370 158/304/310
f 94/351/357 281/363/369 394/302/308
f 411/366/372 282/365/371 403/355/361
f 282/365/371 411/366/372 159/309/315
f 95/356/362 282/365/371 395/307/313
f 283/367/373 164/303/309 158/304/310
f 46/245/248 283/367/373 383/368/374
f 285/369/375 160/308/314 159/309/315
f 23/258/261 285/369/375 384/309/376
f 284/370/377 166/310/316 157/312/318
f 47/270/274 284/370/377 382/371/378
f 287/372/379 162/316/322 156/317/323
f 24/254/257 287/372/379 381/373/380
f 160/308/314 285/369/375 286/374/381
f 286/374/381 257/257/260 68/260/263
f 161/375/382 286/374/381 398/320/383
f 162/316/322 287/372/379 288/376/384
f 288/376/384 25/261/265 67/263/267
f 163/322/328 288/376/384 397/377/385
f 283/367/373 46/245/248 258/265/269
f 164/303/309 283/367/373 289/378/386
f 289/378/386 258/265/269 66/267/271
f 165/379/387 289/378/386 396/380/388
f 166/310/316 284/370/377 290/381/389
f 290/381/389 48/269/273 69/272/276
f 167/331/337 290/381/389 399/382/390
f 291/383/391 404/338/344 168/329/335
f 259/274/278 291/383/391 396/380/388
f 291/383/391 259/274/278 152/276/280
f 404/338/344 291/383/391 389/384/392
f 292/385/393 405/342/348 169/325/331
f 260/278/282 292/385/393 397/377/385
f 292/385/393 260/278/282 153/279/284
f 405/342/348 292/385/393 390/386/394
f 293/387/395 406/348/354 170/320/326
f 261/281/286 293/387/395 398/320/383
f 293/387/395 261/281/286 154/283/288
f 406/348/354 293/387/395 391/388/396
f 294/389/397 407/353/359 171/335/341
f 262/285/290 294/389/397 399/382/390
f 294/389/397 262/285/290 155/287/292
f 407/353/359 294/389/397 392/390/398
f 295/391/399 408/359/365 172/339/345
f 263/289/294 295/391/399 389/384/392
f 295/391/399 263/289/294 140/290/296
f 408/359/365 295/391/399 381/373/380
f 296/392/400 409/362/368 173/343/349
f 264/291/297 296/392/400 390/386/394
f 296/392/400 264/291/297 141/293/299
f 409/362/368 296/392/400 382/371/378
f 297/393/401 410/364/370 174/349/355
f 265/294/300 297/393/401 391/388/396
f 297/393/401 265/294/300 142/296/302
f 410/364/370 297/393/401 383/368/374
f 298/394/402 411/366/372 175/354/360
f 266/297/303 298/394/402 392/390/398
f 298/394/402 266/297/303 143/299/305
f 411/366/372 298/394/402 384/309/376
f 176/396/404 148/301/307 149/328/334
f 179/398/406 176/396/404 301/397/405
f 180/399/407 39/68/69 38/67/68
f 301/397/405 180/399/407 178/395/403
f 301/397/405 146/314/320 147/324/330
f 180/399/407 301/397/405 299/400/408
f 180/399/407 177/402/410 300/401/409
f 2/71/72 180/399/407 300/401/409
f 150/333/339 177/402/410 299/400/408
f 177/402/410 150/333/339 151/334/340
f 179/398/406 177/402/410 176/396/404
f 177/402/410 179/398/406 300/401/409
f 177/402/410 144/306/312 145/319/325
f 1/63/64 179/398/406 178/395/403
f 176/396/404 145/319/325 94/351/357
f 178/395/403 97/207/210 70/64/65
f 180/399/407 317/242/245 39/68/69
f 299/400/408 316/345/351 93/346/352
f 300/401/409 99/213/216 71/72/73
f 177/402/410 151/334/340 95/356/362
f 176/396/404 94/351/357 148/301/307
f 178/395/403 38/67/68 97/207/210
f 301/397/405 344/360/366 146/314/320
f 299/400/408 93/346/352 150/333/339
f 300/401/409 40/75/76 99/213/216
f 177/402/410 95/356/362 144/306/312
