# Blender 4.0.0
# www.blender.org
mtllib Microwave011_Button3.mtl
o Microwave011_Button3
v 0.161276 -0.128820 0.157431
v 0.178480 -0.128820 0.155234
v 0.161685 -0.129385 0.157629
v 0.161338 -0.129385 0.155238
v 0.178060 -0.129470 0.155025
v 0.178414 -0.129385 0.157414
v 0.161809 -0.129498 0.157594
v 0.161372 -0.129498 0.155323
v 0.177945 -0.129498 0.155058
v 0.178379 -0.129498 0.157340
v 0.161346 -0.129486 0.157406
v 0.161694 -0.129486 0.155032
v 0.178405 -0.129486 0.155246
v 0.178058 -0.129486 0.157620
v 0.161686 -0.128849 0.157633
v 0.161336 -0.128933 0.155236
v 0.178069 -0.128850 0.155020
v 0.178418 -0.128850 0.157416
v 0.161328 -0.128833 0.157426
v 0.161674 -0.128833 0.155014
v 0.178426 -0.128833 0.155229
v 0.178076 -0.128833 0.157641
v 0.179264 -0.128665 0.159970
v 0.160480 -0.128652 0.153551
v 0.179254 -0.128652 0.153551
v 0.162212 -0.128933 0.155015
v 0.177539 -0.128933 0.157638
v 0.162213 -0.128933 0.157638
v 0.162212 -0.129385 0.155017
v 0.177539 -0.129385 0.155017
v 0.177538 -0.129385 0.157636
v 0.162214 -0.129385 0.157636
v 0.162222 -0.129486 0.155026
v 0.177530 -0.129486 0.155026
v 0.177531 -0.129486 0.157627
v 0.162222 -0.129486 0.157627
v 0.161455 -0.128820 0.154976
v 0.178307 -0.128820 0.154975
v 0.178293 -0.128820 0.157698
v 0.161442 -0.128820 0.157695
v 0.162203 -0.128833 0.155007
v 0.177548 -0.128833 0.155007
v 0.177546 -0.128833 0.157647
v 0.162206 -0.128833 0.157647
v 0.159431 -0.128659 0.159255
v 0.180321 -0.128641 0.154263
v 0.180321 -0.128654 0.159239
v 0.161329 -0.128923 0.157288
v 0.161329 -0.128933 0.155367
v 0.178422 -0.128936 0.155370
v 0.178422 -0.128933 0.157286
v 0.161331 -0.129385 0.157284
v 0.161331 -0.129385 0.155368
v 0.178420 -0.129385 0.155368
v 0.178420 -0.129385 0.157284
v 0.161340 -0.129486 0.157277
v 0.161340 -0.129486 0.155375
v 0.178412 -0.129486 0.155375
v 0.178412 -0.129486 0.157277
v 0.161321 -0.128833 0.157293
v 0.161320 -0.128833 0.155361
v 0.178432 -0.128833 0.155368
v 0.178431 -0.128833 0.157283
v 0.161506 -0.129499 0.157562
v 0.159437 -0.128636 0.153866
v 0.179921 -0.128652 0.153557
v 0.159830 -0.128651 0.159964
v 0.180315 -0.128624 0.159656
v 0.161271 -0.128820 0.155223
v 0.178475 -0.128820 0.157448
v 0.161338 -0.129385 0.157414
v 0.161683 -0.129469 0.155025
v 0.178412 -0.129469 0.155238
v 0.178066 -0.129385 0.157629
v 0.178245 -0.129499 0.155089
v 0.161372 -0.129498 0.157341
v 0.161749 -0.129498 0.155062
v 0.178379 -0.129498 0.155308
v 0.177947 -0.129498 0.157595
v 0.161694 -0.129486 0.157620
v 0.161346 -0.129486 0.155246
v 0.178058 -0.129486 0.155032
v 0.178405 -0.129486 0.157406
v 0.161334 -0.128850 0.157420
v 0.161681 -0.128850 0.155020
v 0.178416 -0.128933 0.155236
v 0.178074 -0.128849 0.157633
v 0.161676 -0.128833 0.157641
v 0.161326 -0.128833 0.155229
v 0.178078 -0.128833 0.155014
v 0.178424 -0.128833 0.157426
v 0.159542 -0.128817 0.153689
v 0.180216 -0.128817 0.153699
v 0.159525 -0.128817 0.159796
v 0.180163 -0.128817 0.159861
v 0.161313 -0.128820 0.157611
v 0.161315 -0.128820 0.155049
v 0.178443 -0.128820 0.155059
v 0.178433 -0.128820 0.157621
v 0.161395 -0.129385 0.157572
v 0.161395 -0.129380 0.155080
v 0.178357 -0.129381 0.155080
v 0.178357 -0.129385 0.157572
v 0.161422 -0.129499 0.157510
v 0.161416 -0.129499 0.155153
v 0.178329 -0.129499 0.155141
v 0.178337 -0.129499 0.157498
v 0.161404 -0.129486 0.157563
v 0.161404 -0.129486 0.155089
v 0.178348 -0.129486 0.155089
v 0.178348 -0.129486 0.157563
v 0.161393 -0.128933 0.157574
v 0.161393 -0.128933 0.155079
v 0.178359 -0.128933 0.155079
v 0.178359 -0.128933 0.157574
v 0.161385 -0.128833 0.157584
v 0.161383 -0.128833 0.155071
v 0.178369 -0.128833 0.155071
v 0.178367 -0.128833 0.157584
v 0.178251 -0.129499 0.157561
v 0.159827 -0.127953 0.153556
v 0.180316 -0.127953 0.153862
v 0.159436 -0.127953 0.159660
v 0.179924 -0.127953 0.159965
v 0.179266 -0.127953 0.159972
v 0.160485 -0.127953 0.159972
v 0.160487 -0.127953 0.153550
v 0.179264 -0.127953 0.153550
v 0.159430 -0.127953 0.159256
v 0.159430 -0.127953 0.154265
v 0.180322 -0.127953 0.154265
v 0.180322 -0.127953 0.159256
v 0.159436 -0.127953 0.153862
v 0.179924 -0.127953 0.153556
v 0.159827 -0.127953 0.159965
v 0.180316 -0.127953 0.159660
v 0.159493 -0.127953 0.153613
v 0.180258 -0.127953 0.153613
v 0.159493 -0.127953 0.159908
v 0.180258 -0.127953 0.159908
v 0.159826 -0.128651 0.153557
v 0.180315 -0.128631 0.153860
v 0.159437 -0.128650 0.159660
v 0.179928 -0.128652 0.159964
v 0.179803 -0.128817 0.159891
v 0.159656 -0.128817 0.159885
v 0.159962 -0.128817 0.153609
v 0.179799 -0.128817 0.153609
v 0.159498 -0.128817 0.159548
v 0.159506 -0.128817 0.153935
v 0.180245 -0.128817 0.153942
v 0.180251 -0.128817 0.159723
v 0.159494 -0.128623 0.153614
v 0.180257 -0.128639 0.153614
v 0.159494 -0.128652 0.159908
v 0.180258 -0.128648 0.159907
v 0.159842 -0.128801 0.153568
v 0.180301 -0.128801 0.153873
v 0.159448 -0.128801 0.159646
v 0.179913 -0.128801 0.159951
v 0.179232 -0.128801 0.159957
v 0.160465 -0.128801 0.159957
v 0.160522 -0.128801 0.153562
v 0.179282 -0.128801 0.153562
v 0.159443 -0.128802 0.159279
v 0.159446 -0.128801 0.154265
v 0.180306 -0.128801 0.154259
v 0.180309 -0.128801 0.159241
v 0.159451 -0.128801 0.153873
v 0.179910 -0.128801 0.153568
v 0.159839 -0.128801 0.159951
v 0.180304 -0.128801 0.159646
v 0.159508 -0.128801 0.153625
v 0.180244 -0.128801 0.153625
v 0.159505 -0.128801 0.159894
v 0.180247 -0.128801 0.159894
v 0.178550 -0.128819 0.157783
v 0.161200 -0.128819 0.154924
v 0.161225 -0.128819 0.157794
v 0.178525 -0.128819 0.154915
v 0.177539 -0.128933 0.155015
v 0.161350 -0.129494 0.155383
v 0.177520 -0.129494 0.155035
v 0.178402 -0.129494 0.157269
v 0.162232 -0.129494 0.157617
v 0.161334 -0.129472 0.155371
v 0.162217 -0.129472 0.155020
v 0.178417 -0.129472 0.155371
v 0.162217 -0.129472 0.157633
v 0.161327 -0.128847 0.157287
v 0.177541 -0.128847 0.155013
v 0.178426 -0.128847 0.155366
v 0.162210 -0.128847 0.157641
v 0.161312 -0.128824 0.157305
v 0.177558 -0.128824 0.154999
v 0.178440 -0.128824 0.157291
v 0.162197 -0.128824 0.157658
v 0.161500 -0.129499 0.155090
v 0.162231 -0.129494 0.155035
v 0.177520 -0.129494 0.157617
v 0.177536 -0.129472 0.155020
v 0.177536 -0.129472 0.157633
v 0.162210 -0.128847 0.155013
v 0.177542 -0.128847 0.157641
v 0.162192 -0.128824 0.154999
v 0.177555 -0.128824 0.157658
v 0.161352 -0.129494 0.157369
v 0.178402 -0.129494 0.155383
v 0.161334 -0.129472 0.157282
v 0.178417 -0.129472 0.157282
v 0.161326 -0.128847 0.155365
v 0.178425 -0.128847 0.157288
v 0.161311 -0.128824 0.155248
v 0.178443 -0.128824 0.155350
v 0.161456 -0.128933 0.157612
v 0.161357 -0.129385 0.155144
v 0.178295 -0.128933 0.155040
v 0.178395 -0.129385 0.157509
v 0.161375 -0.129494 0.157490
v 0.161477 -0.129494 0.155061
v 0.178376 -0.129494 0.155162
v 0.178275 -0.129494 0.157592
v 0.161360 -0.129472 0.157506
v 0.161461 -0.129472 0.155045
v 0.178392 -0.129472 0.155147
v 0.178290 -0.129472 0.157607
v 0.161352 -0.128847 0.157514
v 0.161453 -0.128847 0.155038
v 0.178400 -0.128847 0.155140
v 0.178298 -0.128847 0.157615
v 0.161338 -0.128824 0.157531
v 0.161435 -0.128824 0.155024
v 0.178418 -0.128824 0.155126
v 0.178312 -0.128824 0.157633
v 0.161357 -0.129385 0.157509
v 0.161456 -0.128938 0.155040
v 0.178397 -0.128935 0.155142
v 0.178295 -0.128933 0.157612
v 0.161477 -0.129494 0.157592
v 0.161375 -0.129494 0.155162
v 0.178275 -0.129494 0.155061
v 0.178376 -0.129494 0.157490
v 0.161461 -0.129472 0.157607
v 0.161360 -0.129472 0.155147
v 0.178290 -0.129472 0.155045
v 0.178392 -0.129472 0.157506
v 0.161454 -0.128847 0.157615
v 0.161351 -0.128847 0.155140
v 0.178299 -0.128847 0.155038
v 0.178400 -0.128847 0.157514
v 0.161440 -0.128824 0.157633
v 0.161334 -0.128824 0.155126
v 0.178316 -0.128824 0.155024
v 0.178414 -0.128824 0.157531
v 0.179265 -0.128357 0.159972
v 0.160481 -0.128630 0.159971
v 0.159431 -0.128655 0.154281
v 0.159456 -0.128634 0.153678
v 0.180193 -0.128649 0.153576
v 0.159558 -0.128651 0.159945
v 0.180296 -0.128616 0.159844
v 0.159557 -0.128649 0.153576
v 0.180296 -0.128635 0.153677
v 0.159456 -0.128646 0.159844
v 0.180195 -0.128651 0.159945
v 0.159456 -0.128812 0.159253
v 0.179843 -0.128812 0.159940
v 0.180288 -0.128812 0.153907
v 0.160476 -0.128812 0.153574
v 0.159905 -0.128812 0.159940
v 0.179290 -0.128812 0.153574
v 0.159464 -0.128812 0.153911
v 0.180294 -0.128812 0.159602
v 0.159484 -0.128812 0.153699
v 0.180166 -0.128812 0.153598
v 0.159580 -0.128812 0.159918
v 0.180273 -0.128812 0.159816
v 0.159586 -0.128812 0.153598
v 0.180267 -0.128812 0.153699
v 0.159478 -0.128812 0.159816
v 0.180172 -0.128812 0.159918
v 0.159435 -0.128783 0.159235
v 0.180315 -0.128782 0.154236
v 0.179247 -0.128782 0.159966
v 0.160494 -0.128782 0.159966
v 0.160507 -0.128783 0.153555
v 0.179257 -0.128782 0.153555
v 0.159436 -0.128782 0.154266
v 0.180317 -0.128782 0.159270
v 0.159461 -0.128782 0.153681
v 0.180189 -0.128782 0.153580
v 0.159561 -0.128782 0.159941
v 0.180292 -0.128782 0.159839
v 0.159562 -0.128782 0.153580
v 0.180291 -0.128782 0.153681
v 0.159460 -0.128782 0.159839
v 0.180190 -0.128782 0.159941
v 0.159602 -0.128819 0.159753
v 0.159624 -0.128819 0.153693
v 0.180134 -0.128819 0.153698
v 0.180143 -0.128819 0.159761
v 0.161703 -0.129494 0.155042
v 0.178395 -0.129494 0.155256
v 0.178048 -0.129494 0.157611
v 0.161341 -0.129472 0.157412
v 0.178063 -0.129472 0.157626
v 0.178419 -0.128847 0.155234
v 0.161319 -0.128824 0.157436
v 0.161663 -0.128824 0.155005
v 0.178437 -0.128824 0.155221
v 0.178084 -0.128824 0.157652
v 0.180124 -0.128817 0.153630
v 0.161458 -0.129385 0.155042
v 0.178395 -0.129385 0.155144
v 0.178293 -0.129385 0.157610
v 0.161467 -0.129486 0.157601
v 0.161365 -0.129486 0.155153
v 0.178285 -0.129486 0.155051
v 0.178386 -0.129486 0.157500
v 0.161355 -0.128933 0.157511
v 0.161449 -0.128833 0.157622
v 0.161345 -0.128833 0.155134
v 0.178305 -0.128833 0.155033
v 0.178405 -0.128833 0.157520
v 0.161703 -0.129494 0.157611
v 0.161356 -0.129494 0.155256
v 0.178048 -0.129494 0.155042
v 0.178395 -0.129494 0.157397
v 0.161688 -0.129472 0.157626
v 0.161341 -0.129472 0.155241
v 0.178411 -0.129472 0.157412
v 0.161332 -0.128847 0.155234
v 0.161667 -0.128824 0.157652
v 0.178089 -0.128824 0.155005
v 0.178433 -0.128824 0.157436
v 0.159628 -0.128817 0.153630
v 0.161458 -0.129385 0.157610
v 0.178293 -0.129385 0.155042
v 0.161365 -0.129486 0.157500
v 0.161467 -0.129486 0.155051
v 0.178386 -0.129486 0.155153
v 0.178285 -0.129486 0.157601
v 0.161355 -0.128933 0.155142
v 0.178397 -0.128933 0.157511
v 0.161347 -0.128833 0.157520
v 0.161446 -0.128833 0.155033
v 0.178407 -0.128833 0.155134
v 0.178303 -0.128833 0.157622
v 0.161413 -0.129494 0.157554
v 0.161413 -0.129494 0.155099
v 0.178338 -0.129494 0.155099
v 0.178338 -0.129494 0.157554
v 0.161398 -0.129472 0.157569
v 0.161398 -0.129472 0.155083
v 0.178354 -0.129472 0.155083
v 0.178354 -0.129472 0.157569
v 0.161390 -0.128847 0.157577
v 0.161389 -0.128847 0.155076
v 0.178362 -0.128847 0.155076
v 0.178361 -0.128847 0.157577
v 0.161376 -0.128824 0.157594
v 0.161372 -0.128824 0.155063
v 0.178380 -0.128824 0.155063
v 0.178375 -0.128824 0.157594
v 0.159455 -0.127953 0.153677
v 0.180195 -0.127953 0.153575
v 0.159557 -0.127953 0.159946
v 0.180297 -0.127953 0.159845
v 0.159557 -0.127953 0.153575
v 0.180297 -0.127953 0.153677
v 0.159455 -0.127953 0.159845
v 0.180195 -0.127953 0.159946
v 0.159833 -0.128782 0.153561
v 0.180310 -0.128782 0.153866
v 0.159441 -0.128782 0.159654
v 0.179920 -0.128782 0.159960
v 0.179896 -0.128812 0.153579
v 0.159499 -0.128782 0.153618
v 0.180253 -0.128782 0.153618
v 0.159498 -0.128782 0.159903
v 0.180254 -0.128782 0.159903
v 0.159856 -0.128812 0.153579
v 0.159460 -0.128812 0.159632
v 0.159442 -0.128782 0.153866
v 0.179919 -0.128782 0.153561
v 0.159832 -0.128782 0.159960
v 0.180311 -0.128782 0.159654
v 0.159522 -0.128812 0.153636
v 0.180229 -0.128812 0.153636
v 0.159516 -0.128812 0.159880
v 0.180235 -0.128812 0.159880
v 0.159470 -0.128801 0.153688
v 0.180180 -0.128801 0.153587
v 0.159568 -0.128801 0.159932
v 0.180285 -0.128801 0.159830
v 0.159571 -0.128801 0.153587
v 0.180282 -0.128801 0.153688
v 0.159467 -0.128801 0.159830
v 0.180183 -0.128801 0.159932
vn -0.9994 -0.0195 -0.0282
vn -0.9996 -0.0135 0.0250
vn -0.9994 -0.0213 -0.0255
vn 0.0051 -0.0136 -0.9999
vn 0.0060 -0.0185 -0.9998
vn -0.0059 -0.0195 -0.9998
vn 0.9995 -0.0192 0.0234
vn 0.9994 -0.0243 -0.0251
vn 0.9996 -0.0165 0.0210
vn 0.9995 -0.0183 -0.0254
vn -0.0070 -0.0194 0.9998
vn 0.0074 -0.0188 0.9998
vn -0.0062 -0.0208 0.9998
vn -0.0752 -0.9963 -0.0425
vn -0.1106 -0.9939 0.0044
vn -0.1139 -0.9935 0.0007
vn 0.0172 -0.9963 -0.0841
vn 0.0180 -0.9974 0.0705
vn -0.0185 -0.9965 0.0811
vn 0.0775 -0.9961 0.0430
vn 0.1180 -0.9929 -0.0138
vn 0.1104 -0.9939 -0.0002
vn 0.0071 -0.9914 0.1309
vn 0.0047 -0.9928 0.1201
vn -0.4301 -0.9028 -0.0052
vn -0.7807 -0.6244 0.0251
vn -0.8011 -0.5981 -0.0213
vn -0.4827 -0.8750 0.0361
vn 0.0013 -0.9033 -0.4291
vn 0.0029 -0.5915 -0.8063
vn 0.0039 -0.5942 -0.8043
vn 0.4297 -0.9029 0.0059
vn 0.8056 -0.5924 -0.0086
vn 0.8015 -0.5977 0.0199
vn -0.0011 -0.9052 0.4251
vn 0.0128 -0.5963 0.8026
vn -0.0107 -0.5951 0.8036
vn -0.9755 -0.2185 -0.0254
vn -0.9994 -0.0208 0.0269
vn 0.0057 -0.2170 -0.9762
vn -0.0080 -0.2208 -0.9753
vn 0.9749 -0.2204 0.0307
vn 0.9814 -0.1847 -0.0515
vn -0.0067 -0.2167 0.9762
vn 0.0061 -0.0199 0.9998
vn 0.0067 -0.2170 0.9761
vn -0.9720 -0.2339 -0.0218
vn -0.8197 -0.5728 -0.0030
vn -0.8014 -0.5980 -0.0113
vn -0.9748 -0.2211 0.0291
vn 0.0053 -0.1908 -0.9816
vn -0.0009 -0.5434 -0.8394
vn 0.0061 -0.5318 -0.8468
vn -0.0062 -0.1904 -0.9817
vn -0.0050 -0.0146 -0.9999
vn 0.9739 -0.2258 -0.0214
vn 0.7880 -0.6157 0.0091
vn 0.8390 -0.5431 0.0338
vn -0.0061 -0.2353 0.9719
vn -0.0236 -0.6105 0.7917
vn -0.0035 -0.6258 0.7800
vn 0.0057 -0.2354 0.9719
vn -0.3060 -0.9517 -0.0265
vn -0.0564 -0.9984 0.0076
vn -0.0555 -0.9984 -0.0063
vn -0.4257 -0.9037 0.0455
vn 0.0037 -0.8924 -0.4512
vn -0.0100 -0.9985 -0.0531
vn 0.0134 -0.9988 -0.0469
vn -0.0031 -0.8908 -0.4543
vn 0.4000 -0.9164 0.0125
vn 0.0581 -0.9983 -0.0069
vn 0.0529 -0.9986 0.0080
vn 0.3604 -0.9327 -0.0111
vn -0.0027 -0.9284 0.3716
vn 0.0089 -0.9993 0.0361
vn -0.0107 -0.9994 0.0338
vn -0.0631 -0.9968 0.0487
vn 0.0468 -0.2091 -0.9768
vn -0.0472 -0.1805 -0.9824
vn -0.0533 -0.2129 -0.9756
vn -0.0489 -0.0213 0.9986
vn -0.0353 -0.2388 0.9704
vn 0.0542 -0.2404 0.9692
vn -0.0068 -0.9927 -0.1204
vn -0.0052 -0.9913 -0.1314
vn 0.0179 -0.9073 -0.4202
vn 0.0409 -0.6049 -0.7953
vn -0.0012 -0.9076 -0.4198
vn -0.0367 -0.6026 -0.7972
vn -0.0179 -0.9077 0.4191
vn -0.0385 -0.6063 0.7943
vn 0.0013 -0.9162 0.4007
vn 0.0385 -0.6064 0.7942
vn -0.0499 -0.2247 0.9731
vn 0.0499 -0.2249 0.9731
vn 0.0494 -0.0215 0.9985
vn 0.0448 -0.1843 -0.9818
vn 0.0379 -0.5621 -0.8262
vn -0.0377 -0.5596 -0.8279
vn -0.0379 -0.6366 0.7702
vn 0.0342 -0.6350 0.7718
vn -0.0230 -0.9102 -0.4136
vn 0.0187 -0.9380 0.3461
vn -0.9915 -0.0235 -0.1283
vn -0.9921 -0.0228 -0.1230
vn 0.9921 -0.0236 0.1233
vn 0.9752 -0.1901 0.1132
vn 0.9921 -0.0219 -0.1238
vn 0.9666 -0.2208 -0.1301
vn -0.4014 -0.9147 -0.0461
vn -0.7753 -0.6241 -0.0974
vn -0.7625 -0.6385 0.1047
vn 0.4029 -0.9141 0.0466
vn 0.7748 -0.6247 0.0973
vn 0.3942 -0.9190 -0.0063
vn 0.7799 -0.6187 -0.0953
vn -0.9634 -0.2362 -0.1265
vn -0.9635 -0.2361 0.1263
vn -0.9739 -0.2247 0.0311
vn -0.9917 -0.0205 0.1268
vn 0.9633 -0.2368 0.1264
vn -0.9607 -0.2533 -0.1138
vn -0.7460 -0.6564 -0.1125
vn -0.7929 -0.6021 0.0933
vn 0.7916 -0.6036 0.0953
vn 0.9794 -0.2016 0.0138
vn 0.9607 -0.2530 -0.1139
vn 0.7483 -0.6571 -0.0907
vn -0.3614 -0.9308 0.0542
vn 0.3348 -0.9411 -0.0480
vn -0.3085 -0.0208 0.9510
vn -0.7068 -0.0273 0.7069
vn -0.3081 -0.0240 0.9511
vn -0.9318 -0.0250 -0.3621
vn -0.9323 -0.0259 -0.3608
vn -0.7072 -0.0283 -0.7064
vn -0.7066 -0.0272 -0.7071
vn 0.7070 -0.0268 -0.7067
vn 0.3081 -0.0216 -0.9511
vn 0.7066 -0.0270 -0.7071
vn 0.3068 -0.0236 -0.9515
vn 0.9315 -0.0257 0.3629
vn 0.9308 -0.0196 0.3649
vn -0.3579 -0.9260 0.1198
vn -0.5126 -0.6888 0.5127
vn -0.6961 -0.6669 0.2661
vn -0.1019 -0.9184 -0.3823
vn -0.0176 -0.9965 -0.0815
vn -0.2490 -0.9348 -0.2534
vn -0.5126 -0.6888 -0.5126
vn -0.2265 -0.6537 -0.7221
vn -0.0170 -0.9178 -0.3967
vn 0.3554 -0.9269 -0.1209
vn 0.0667 -0.9967 -0.0455
vn 0.5126 -0.6888 -0.5126
vn 0.6959 -0.6667 -0.2671
vn 0.3762 -0.9256 -0.0420
vn 0.1015 -0.9186 0.3818
vn 0.2488 -0.9348 0.2535
vn 0.5126 -0.6888 0.5126
vn 0.2265 -0.6536 0.7221
vn 0.0173 -0.9002 0.4351
vn -0.8959 -0.2651 0.3564
vn -0.6788 -0.2800 0.6789
vn -0.9316 -0.0245 0.3626
vn -0.3090 -0.2593 -0.9150
vn -0.6788 -0.2799 -0.6789
vn -0.3066 -0.0225 -0.9516
vn 0.8942 -0.2670 -0.3593
vn 0.6789 -0.2799 -0.6788
vn 0.9338 -0.0208 -0.3572
vn 0.3078 -0.2585 0.9157
vn 0.6788 -0.2801 0.6788
vn 0.7017 -0.0281 0.7119
vn 0.3082 -0.0240 0.9510
vn -0.9076 -0.2617 0.3284
vn -0.9751 -0.1924 0.1100
vn -0.9308 -0.0206 0.3651
vn -0.6770 -0.3001 0.6720
vn -0.7062 -0.0273 0.7075
vn -0.4879 -0.7255 0.4854
vn -0.6910 -0.6737 0.2619
vn -0.2750 -0.2486 -0.9287
vn -0.3052 -0.0209 -0.9521
vn -0.6720 -0.2978 -0.6780
vn -0.4871 -0.7227 -0.4903
vn -0.2195 -0.6529 -0.7249
vn 0.8965 -0.2846 -0.3395
vn 0.9321 -0.0255 -0.3612
vn 0.6717 -0.2980 -0.6782
vn 0.4871 -0.7227 -0.4904
vn 0.6637 -0.7038 -0.2532
vn 0.2854 -0.2813 0.9162
vn 0.3072 -0.0235 0.9513
vn 0.6770 -0.3001 0.6720
vn 0.7047 -0.0287 0.7089
vn 0.4879 -0.7254 0.4855
vn 0.2123 -0.7001 0.6818
vn -0.2865 -0.9509 0.1167
vn -0.1865 -0.9629 0.1949
vn -0.0281 -0.9994 0.0195
vn -0.1172 -0.9481 -0.2956
vn -0.1954 -0.9606 -0.1975
vn -0.0310 -0.9993 -0.0209
vn 0.2798 -0.9540 -0.1079
vn 0.1973 -0.9590 -0.2032
vn 0.0318 -0.9993 -0.0220
vn 0.0987 -0.9592 0.2649
vn 0.1854 -0.9635 0.1928
vn 0.0266 -0.9995 0.0179
vn -0.1022 -0.9195 0.3795
vn -0.2265 -0.6537 0.7221
vn -0.2580 -0.9282 0.2682
vn -0.3363 -0.9335 -0.1241
vn -0.6960 -0.6667 -0.2668
vn 0.1026 -0.9194 -0.3796
vn 0.2262 -0.6533 -0.7225
vn 0.2369 -0.9440 -0.2298
vn 0.3316 -0.9360 0.1184
vn 0.6960 -0.6666 0.2669
vn -0.3079 -0.2586 0.9156
vn -0.8960 -0.2652 -0.3562
vn 0.3084 -0.2589 -0.9154
vn 0.8960 -0.2651 0.3562
vn -0.2812 -0.2812 0.9175
vn -0.2121 -0.7002 0.6818
vn -0.8968 -0.2842 -0.3392
vn -0.6652 -0.7030 -0.2515
vn 0.2768 -0.2483 -0.9283
vn 0.2193 -0.6529 -0.7250
vn 0.9046 -0.2645 0.3342
vn 0.6908 -0.6742 0.2612
vn -0.0973 -0.9599 0.2631
vn -0.0205 -0.9289 0.3699
vn -0.2801 -0.9538 -0.1082
vn 0.1161 -0.9496 -0.2911
vn 0.0230 -0.9090 -0.4162
vn 0.2873 -0.9506 0.1178
vn 0.3905 -0.9190 0.0548
vn -0.9998 -0.0197 0.0078
vn -0.9983 -0.0010 0.0589
vn -1.0000 -0.0011 0.0074
vn 0.0057 -0.0035 1.0000
vn 0.0405 -0.0008 0.9992
vn 0.0052 -0.0000 1.0000
vn 0.9998 -0.0205 -0.0062
vn 0.9983 -0.0016 -0.0589
vn 1.0000 -0.0018 -0.0075
vn -0.0047 -0.0185 -0.9998
vn -0.0397 -0.0009 -0.9992
vn -0.0045 -0.0009 -1.0000
vn -0.0058 -0.0173 0.9998
vn 0.0047 -0.0219 0.9997
vn -0.0050 -0.0015 1.0000
vn -0.0389 -0.0189 0.9991
vn -0.0405 -0.0008 0.9992
vn 0.0041 -0.0168 -0.9999
vn 0.0046 -0.0009 -1.0000
vn 0.0405 -0.0179 -0.9990
vn 0.0399 -0.0009 -0.9992
vn -0.9997 -0.0222 -0.0083
vn -1.0000 -0.0012 -0.0079
vn -0.9981 -0.0191 -0.0588
vn -0.9983 -0.0016 -0.0590
vn 0.9998 -0.0188 0.0083
vn 1.0000 -0.0012 0.0080
vn 0.9981 -0.0152 0.0591
vn 0.9983 -0.0015 0.0586
vn -0.9496 -0.0222 -0.3127
vn -0.9487 -0.0018 -0.3162
vn -0.7098 -0.0194 -0.7041
vn -0.7071 -0.0016 -0.7071
vn 0.3027 -0.0249 -0.9528
vn 0.3008 -0.0014 -0.9537
vn 0.7042 -0.0233 -0.7096
vn 0.7070 -0.0018 -0.7072
vn -0.2970 -0.0231 0.9546
vn -0.3006 -0.0010 0.9538
vn -0.7039 -0.0257 0.7098
vn -0.7071 -0.0013 0.7071
vn 0.9470 -0.0150 0.3209
vn 0.9488 -0.0013 0.3159
vn 0.7122 -0.0253 0.7015
vn 0.7071 -0.0011 0.7071
vn -0.3035 -0.0221 -0.9526
vn -0.3006 -0.0010 -0.9537
vn -0.0408 -0.0187 -0.9990
vn 0.9466 -0.0218 -0.3217
vn 0.9487 -0.0017 -0.3161
vn 0.9980 -0.0184 -0.0600
vn -0.9474 -0.0198 0.3195
vn -0.9487 -0.0013 0.3162
vn -0.9980 -0.0189 0.0603
vn 0.3053 -0.0213 0.9520
vn 0.3009 -0.0010 0.9536
vn 0.0400 -0.0178 0.9990
vn -0.4015 -0.9159 0.0008
vn -0.0762 -0.9971 -0.0030
vn -0.4179 -0.9083 0.0191
vn -0.7964 -0.6047 0.0081
vn -0.8114 -0.5825 0.0475
vn -0.0005 -0.6608 0.7505
vn 0.0067 -0.9055 0.4242
vn 0.0343 -0.6430 0.7651
vn 0.7342 -0.6789 0.0014
vn 0.3785 -0.9255 -0.0148
vn 0.7564 -0.6524 -0.0477
vn -0.0030 -0.8998 -0.4363
vn 0.0046 -0.9953 -0.0967
vn -0.0137 -0.8961 -0.4436
vn 0.0046 -0.5689 -0.8224
vn -0.0332 -0.5635 -0.8254
vn -0.0095 -0.9077 0.4196
vn -0.0030 -0.9983 0.0576
vn -0.0034 -0.6509 0.7591
vn -0.0155 -0.9973 0.0724
vn 0.0097 -0.9013 -0.4330
vn 0.0046 -0.5679 -0.8231
vn 0.0039 -0.9952 -0.0978
vn 0.0332 -0.5634 -0.8255
vn 0.0138 -0.8961 -0.4436
vn -0.4014 -0.9158 -0.0153
vn -0.0726 -0.9974 -0.0025
vn 0.7925 -0.6098 -0.0087
vn 0.4609 -0.8874 0.0095
vn -0.3495 -0.9318 -0.0977
vn -0.7037 -0.6727 -0.2287
vn -0.7587 -0.6494 -0.0510
vn -0.5128 -0.6862 -0.5159
vn -0.2408 -0.9370 -0.2531
vn 0.0968 -0.9093 -0.4048
vn 0.2268 -0.6276 -0.7448
vn 0.5128 -0.6862 -0.5159
vn 0.2411 -0.9372 -0.2522
vn 0.0191 -0.9958 -0.0892
vn 0.0656 -0.9975 -0.0278
vn -0.0940 -0.9314 0.3517
vn -0.2185 -0.6667 0.7126
vn -0.0387 -0.6360 0.7707
vn -0.5150 -0.6871 0.5125
vn -0.2423 -0.9406 0.2379
vn -0.0613 -0.9979 0.0215
vn 0.3793 -0.9199 0.0993
vn 0.0823 -0.9965 0.0148
vn 0.7329 -0.6379 0.2367
vn 0.8125 -0.5801 0.0581
vn 0.5150 -0.6872 0.5124
vn 0.2454 -0.9404 0.2356
vn 0.0227 -0.9982 0.0551
vn -0.0970 -0.9102 -0.4027
vn -0.0580 -0.9978 -0.0317
vn -0.2269 -0.6277 -0.7447
vn -0.0198 -0.9957 -0.0902
vn 0.3487 -0.9316 -0.1029
vn 0.7034 -0.6728 -0.2294
vn 0.0717 -0.9974 -0.0054
vn -0.3871 -0.9171 0.0954
vn -0.7329 -0.6377 0.2373
vn 0.0908 -0.9306 0.3545
vn 0.2187 -0.6667 0.7126
vn -0.9712 -0.2383 0.0034
vn -0.9755 -0.2111 0.0614
vn -0.0018 -0.2385 0.9711
vn 0.0407 -0.2414 0.9696
vn 0.9666 -0.2563 -0.0081
vn 0.9665 -0.2495 -0.0595
vn 0.0021 -0.1986 -0.9801
vn -0.0420 -0.2004 -0.9788
vn -0.0031 -0.2499 0.9683
vn -0.0408 -0.2415 0.9695
vn 0.0033 -0.2099 -0.9777
vn 0.0422 -0.2007 -0.9787
vn -0.9658 -0.2592 -0.0124
vn -0.7350 -0.6780 -0.0084
vn -0.9663 -0.2504 -0.0597
vn 0.9762 -0.2161 0.0181
vn 0.9755 -0.2114 0.0615
vn -0.9113 -0.2686 -0.3120
vn -0.6820 -0.2772 -0.6768
vn 0.3064 -0.2431 -0.9203
vn 0.6820 -0.2775 -0.6767
vn -0.2988 -0.2662 0.9164
vn -0.6773 -0.2782 0.6811
vn 0.9149 -0.2478 0.3186
vn 0.6773 -0.2783 0.6810
vn -0.3066 -0.2429 -0.9203
vn 0.9113 -0.2686 -0.3119
vn -0.9148 -0.2481 0.3188
vn 0.2990 -0.2656 0.9165
vn -0.0016 -1.0000 -0.0027
vn -0.0111 -0.9999 0.0090
vn -0.0110 -0.9998 -0.0168
vn -0.0006 -1.0000 0.0023
vn 0.0025 -1.0000 -0.0021
vn 0.0136 -0.9998 -0.0162
vn 0.0003 -1.0000 0.0024
vn 0.0104 -0.9999 0.0098
vn 0.0019 -0.9204 0.3909
vt 0.582259 0.691480
vt 0.582259 0.722608
vt 0.582259 0.691477
vt 0.622576 0.685774
vt 0.622578 0.685774
vt 0.584450 0.685774
vt 0.624772 0.722581
vt 0.624772 0.691521
vt 0.624772 0.722587
vt 0.624772 0.691479
vt 0.584455 0.728288
vt 0.622575 0.728288
vt 0.584457 0.728288
vt 0.582435 0.687869
vt 0.582280 0.723954
vt 0.582278 0.690300
vt 0.624396 0.686585
vt 0.624408 0.727461
vt 0.582636 0.727480
vt 0.624599 0.726173
vt 0.624750 0.690058
vt 0.624752 0.723940
vt 0.623678 0.728119
vt 0.583366 0.728121
vt 0.582259 0.691503
vt 0.582259 0.722571
vt 0.582259 0.691489
vt 0.582284 0.724114
vt 0.622574 0.685774
vt 0.584456 0.685774
vt 0.622576 0.685774
vt 0.624772 0.722557
vt 0.624772 0.691494
vt 0.624772 0.722571
vt 0.584458 0.728288
vt 0.622578 0.728288
vt 0.584455 0.728288
vt 0.582259 0.691484
vt 0.582259 0.722582
vt 0.622577 0.685774
vt 0.584454 0.685774
vt 0.624772 0.722580
vt 0.624772 0.691484
vt 0.584454 0.728288
vt 0.622576 0.728288
vt 0.622578 0.728288
vt 0.582259 0.691474
vt 0.582259 0.722585
vt 0.582259 0.691474
vt 0.582259 0.722573
vt 0.622575 0.685774
vt 0.584455 0.685774
vt 0.622577 0.685774
vt 0.584457 0.685774
vt 0.584455 0.685774
vt 0.624772 0.691483
vt 0.624772 0.691576
vt 0.624772 0.722418
vt 0.584456 0.728288
vt 0.622576 0.728288
vt 0.584457 0.728288
vt 0.622576 0.728288
vt 0.582283 0.689848
vt 0.582280 0.723946
vt 0.582283 0.689834
vt 0.582259 0.722634
vt 0.622577 0.685774
vt 0.582772 0.686449
vt 0.624282 0.686470
vt 0.584452 0.685774
vt 0.624772 0.722411
vt 0.624750 0.689997
vt 0.624749 0.724209
vt 0.624772 0.691388
vt 0.584454 0.728288
vt 0.624263 0.727600
vt 0.582728 0.727571
vt 0.582455 0.726341
vt 0.623876 0.685981
vt 0.583155 0.685980
vt 0.583156 0.685981
vt 0.583155 0.728082
vt 0.583155 0.728083
vt 0.623876 0.728083
vt 0.583216 0.685964
vt 0.623673 0.685942
vt 0.623875 0.685984
vt 0.623875 0.685982
vt 0.584457 0.685774
vt 0.583156 0.685982
vt 0.583156 0.728079
vt 0.583156 0.728080
vt 0.622574 0.728288
vt 0.623875 0.728080
vt 0.583156 0.728081
vt 0.623876 0.728081
vt 0.623876 0.728082
vt 0.623876 0.685980
vt 0.623876 0.685979
vt 0.583155 0.685979
vt 0.583155 0.728083
vt 0.583154 0.685978
vt 0.623877 0.728085
vt 0.582290 0.689469
vt 0.582290 0.689465
vt 0.624741 0.724594
vt 0.624741 0.724603
vt 0.624741 0.689465
vt 0.624741 0.689475
vt 0.582291 0.689508
vt 0.582290 0.689487
vt 0.582290 0.724575
vt 0.624741 0.724555
vt 0.624741 0.724575
vt 0.624772 0.691504
vt 0.624741 0.689487
vt 0.582290 0.689475
vt 0.582290 0.724588
vt 0.582259 0.722579
vt 0.582290 0.724594
vt 0.624741 0.724588
vt 0.582290 0.689459
vt 0.582290 0.689448
vt 0.582290 0.724615
vt 0.624741 0.724615
vt 0.624772 0.722590
vt 0.624741 0.689459
vt 0.624741 0.689448
vt 0.582290 0.724634
vt 0.624741 0.689429
vt 0.582638 0.727464
vt 0.582512 0.726639
vt 0.582638 0.727463
vt 0.582385 0.688249
vt 0.582385 0.688245
vt 0.582512 0.687424
vt 0.582512 0.687421
vt 0.624520 0.687424
vt 0.624393 0.686598
vt 0.624520 0.687421
vt 0.624393 0.686599
vt 0.624646 0.725814
vt 0.624646 0.725817
vt 0.582385 0.725778
vt 0.582512 0.726627
vt 0.582385 0.725797
vt 0.582639 0.686611
vt 0.582625 0.686597
vt 0.582512 0.687448
vt 0.582512 0.687435
vt 0.582638 0.686605
vt 0.583156 0.685984
vt 0.624646 0.688284
vt 0.624575 0.687708
vt 0.624519 0.687435
vt 0.624646 0.688265
vt 0.624741 0.689508
vt 0.624392 0.727451
vt 0.624519 0.726615
vt 0.624519 0.726627
vt 0.624393 0.727458
vt 0.623875 0.728079
vt 0.582385 0.725808
vt 0.582512 0.726635
vt 0.582385 0.725814
vt 0.582638 0.686601
vt 0.582512 0.687428
vt 0.582638 0.686599
vt 0.624646 0.688254
vt 0.624520 0.687428
vt 0.624646 0.688249
vt 0.624393 0.727461
vt 0.624520 0.726635
vt 0.624520 0.726639
vt 0.624393 0.727463
vt 0.582385 0.725823
vt 0.582290 0.724603
vt 0.582385 0.725817
vt 0.582511 0.726645
vt 0.582512 0.726641
vt 0.582511 0.726652
vt 0.582385 0.725834
vt 0.582638 0.686596
vt 0.582638 0.686598
vt 0.582511 0.687418
vt 0.582511 0.687411
vt 0.582637 0.686593
vt 0.624646 0.688240
vt 0.624646 0.688245
vt 0.624520 0.687418
vt 0.624520 0.687411
vt 0.624646 0.688229
vt 0.624393 0.727466
vt 0.624393 0.727464
vt 0.624520 0.726645
vt 0.624520 0.726641
vt 0.624520 0.726652
vt 0.624394 0.727470
vt 0.582385 0.725851
vt 0.582511 0.726663
vt 0.582444 0.726270
vt 0.582637 0.686587
vt 0.582511 0.687399
vt 0.582471 0.687619
vt 0.624646 0.688211
vt 0.624520 0.687399
vt 0.624581 0.687755
vt 0.624394 0.727476
vt 0.624520 0.726663
vt 0.624566 0.726402
vt 0.582639 0.727451
vt 0.582638 0.727458
vt 0.582512 0.726615
vt 0.582385 0.688284
vt 0.582385 0.688265
vt 0.624392 0.686611
vt 0.624393 0.686605
vt 0.624519 0.687448
vt 0.624646 0.725778
vt 0.624646 0.725797
vt 0.582638 0.727461
vt 0.582385 0.688254
vt 0.624393 0.686601
vt 0.624646 0.725808
vt 0.582638 0.727466
vt 0.582638 0.727470
vt 0.582385 0.688240
vt 0.582385 0.688229
vt 0.624394 0.686596
vt 0.624394 0.686593
vt 0.624646 0.725823
vt 0.624646 0.725834
vt 0.582637 0.727476
vt 0.583155 0.728085
vt 0.582385 0.688211
vt 0.624394 0.686587
vt 0.623877 0.685978
vt 0.624646 0.725851
vt 0.624741 0.724634
vt 0.582259 0.723506
vt 0.582285 0.726181
vt 0.582259 0.723555
vt 0.622623 0.728288
vt 0.623951 0.728204
vt 0.622624 0.728288
vt 0.624772 0.690556
vt 0.624747 0.687882
vt 0.624772 0.690507
vt 0.584409 0.685774
vt 0.583081 0.685858
vt 0.584411 0.685774
vt 0.584410 0.728288
vt 0.622622 0.728288
vt 0.584408 0.728288
vt 0.583081 0.728204
vt 0.622620 0.685774
vt 0.622620 0.685774
vt 0.623950 0.685859
vt 0.623951 0.685858
vt 0.582259 0.690502
vt 0.582259 0.690506
vt 0.582285 0.687884
vt 0.582285 0.687882
vt 0.624772 0.723538
vt 0.624772 0.723552
vt 0.624747 0.726179
vt 0.624747 0.726181
vt 0.582362 0.686786
vt 0.582362 0.686783
vt 0.582466 0.686449
vt 0.582466 0.686447
vt 0.624462 0.686111
vt 0.624566 0.686449
vt 0.624566 0.686447
vt 0.582569 0.727951
vt 0.582569 0.727952
vt 0.582466 0.727614
vt 0.582466 0.727615
vt 0.624669 0.727277
vt 0.624669 0.727279
vt 0.624566 0.727614
vt 0.624566 0.727615
vt 0.582569 0.686111
vt 0.583081 0.685859
vt 0.624669 0.686786
vt 0.624669 0.686783
vt 0.624747 0.687884
vt 0.582362 0.727277
vt 0.582362 0.727279
vt 0.582285 0.726179
vt 0.624462 0.727951
vt 0.624462 0.727952
vt 0.623950 0.728204
vt 0.582259 0.723695
vt 0.582282 0.725887
vt 0.582285 0.726158
vt 0.582259 0.723782
vt 0.582285 0.726166
vt 0.622578 0.728288
vt 0.623829 0.728210
vt 0.623950 0.728203
vt 0.624772 0.690421
vt 0.624748 0.688065
vt 0.624747 0.687901
vt 0.584332 0.685774
vt 0.583216 0.685856
vt 0.583082 0.685861
vt 0.584455 0.685774
vt 0.583082 0.685860
vt 0.583194 0.728210
vt 0.623826 0.728207
vt 0.584344 0.728288
vt 0.582642 0.727967
vt 0.622729 0.685774
vt 0.622685 0.685774
vt 0.623836 0.685859
vt 0.623950 0.685860
vt 0.623949 0.685861
vt 0.582283 0.688091
vt 0.582284 0.688082
vt 0.624772 0.723530
vt 0.624748 0.725961
vt 0.582363 0.686810
vt 0.582362 0.686801
vt 0.582285 0.687901
vt 0.582466 0.686459
vt 0.582466 0.686465
vt 0.624461 0.686120
vt 0.624461 0.686117
vt 0.624565 0.686459
vt 0.624565 0.686465
vt 0.624460 0.686129
vt 0.624622 0.686681
vt 0.582570 0.727945
vt 0.582570 0.727947
vt 0.583081 0.728203
vt 0.582466 0.727606
vt 0.582466 0.727601
vt 0.582403 0.727365
vt 0.624669 0.727258
vt 0.624685 0.726956
vt 0.624669 0.727265
vt 0.624747 0.726166
vt 0.624565 0.727606
vt 0.624565 0.727601
vt 0.624503 0.727791
vt 0.582570 0.686120
vt 0.582426 0.686622
vt 0.582570 0.686117
vt 0.582572 0.686129
vt 0.624669 0.686810
vt 0.624669 0.686801
vt 0.624748 0.688127
vt 0.582363 0.727258
vt 0.582362 0.727265
vt 0.624461 0.727945
vt 0.624462 0.727947
vt 0.582259 0.723444
vt 0.582285 0.726173
vt 0.622593 0.728288
vt 0.624772 0.690298
vt 0.624747 0.687891
vt 0.584439 0.685774
vt 0.583081 0.685859
vt 0.584416 0.728288
vt 0.622615 0.685774
vt 0.623950 0.685859
vt 0.582259 0.690496
vt 0.582259 0.690463
vt 0.582285 0.687891
vt 0.624772 0.723675
vt 0.624747 0.726173
vt 0.582362 0.686792
vt 0.582466 0.686453
vt 0.624462 0.686114
vt 0.624565 0.686453
vt 0.582569 0.727949
vt 0.582466 0.727611
vt 0.624669 0.727272
vt 0.624565 0.727611
vt 0.582569 0.686114
vt 0.624669 0.686792
vt 0.582362 0.727272
vt 0.624462 0.727949
vt 0.582535 0.687619
vt 0.582502 0.727455
vt 0.582498 0.686627
vt 0.582545 0.726653
vt 0.624466 0.687412
vt 0.624540 0.686646
vt 0.624512 0.726406
vt 0.624521 0.727471
vt 0.622580 0.728288
s 1
f 53/1/1 48/2/2 49/3/3
f 181/4/4 30/5/5 29/6/6
f 55/7/7 50/8/8 51/9/9
f 50/8/8 55/7/7 54/10/10
f 32/11/11 27/12/12 28/13/13
f 105/14/14 76/15/15 8/16/16
f 75/17/17 120/18/18 64/19/19
f 107/20/20 78/21/21 10/22/22
f 64/19/19 79/23/23 7/24/24
f 182/25/25 56/26/26 57/27/27
f 207/28/28 8/16/16 76/15/15
f 183/29/29 33/30/30 34/31/31
f 184/32/32 58/33/33 59/34/34
f 184/32/32 10/22/22 78/21/21
f 185/35/35 35/36/36 36/37/37
f 185/35/35 7/24/24 79/23/23
f 186/38/38 52/39/39 53/1/1
f 186/38/38 57/27/27 56/26/26
f 201/40/40 29/6/6 30/5/5
f 187/41/41 34/31/31 33/30/30
f 210/42/42 54/10/10 55/7/7
f 188/43/43 59/34/34 58/33/33
f 189/44/44 31/45/45 32/11/11
f 202/46/46 36/37/37 35/36/36
f 211/47/47 60/48/48 61/49/49
f 190/50/50 49/3/3 48/2/2
f 191/51/51 41/52/52 42/53/53
f 203/54/54 181/4/4 26/55/55
f 192/56/56 62/57/57 63/58/58
f 192/56/56 51/9/9 50/8/8
f 193/59/59 43/60/60 44/61/61
f 204/62/62 28/13/13 27/12/12
f 213/63/63 1/64/64 69/65/65
f 194/66/66 61/49/49 60/48/48
f 195/67/67 37/68/68 38/69/69
f 205/70/70 42/53/53 41/52/52
f 196/71/71 2/72/72 70/73/73
f 214/74/74 63/58/58 62/57/57
f 197/75/75 39/76/76 40/77/77
f 197/75/75 44/61/61 43/60/60
f 105/14/14 64/19/19 104/78/78
f 181/4/4 5/79/79 30/5/5
f 85/80/80 29/6/6 72/81/81
f 3/82/82 28/13/13 15/83/83
f 31/45/45 87/84/84 27/12/12
f 75/17/17 77/85/85 9/86/86
f 327/87/87 34/31/31 82/88/88
f 199/89/89 9/86/86 77/85/85
f 199/89/89 12/90/90 33/30/30
f 325/91/91 36/37/37 80/92/92
f 200/93/93 14/94/94 35/36/36
f 201/40/40 82/88/88 34/31/31
f 72/81/81 33/30/30 12/90/90
f 187/41/41 72/81/81 29/6/6
f 329/95/95 32/11/11 3/82/82
f 189/44/44 80/92/92 36/37/37
f 306/96/96 35/36/36 14/94/94
f 202/46/46 74/97/97 31/45/45
f 17/98/98 42/53/53 90/99/99
f 191/51/51 17/98/98 181/4/4
f 203/54/54 20/100/100 41/52/52
f 15/83/83 44/61/61 88/101/101
f 193/59/59 15/83/83 28/13/13
f 204/62/62 22/84/102 43/60/60
f 195/67/67 90/99/99 42/53/53
f 309/102/103 41/52/52 20/100/100
f 197/75/75 88/101/101 44/61/61
f 311/103/104 43/60/60 22/84/102
f 4/104/105 49/3/3 16/105/106
f 6/106/107 51/9/9 18/107/108
f 86/108/109 54/10/10 73/109/110
f 54/10/10 86/108/109 50/8/8
f 326/110/111 57/27/27 81/111/112
f 207/28/28 11/112/113 56/26/26
f 328/113/114 59/34/34 83/114/115
f 208/115/116 13/116/117 58/33/33
f 330/117/118 53/1/1 4/104/105
f 186/38/38 81/111/112 57/27/27
f 305/118/119 56/26/26 11/112/113
f 209/119/120 71/120/121 52/39/39
f 331/121/122 55/7/7 6/106/107
f 210/42/42 83/114/115 59/34/34
f 73/109/110 58/33/33 13/116/117
f 188/43/43 73/109/110 54/10/10
f 332/122/123 61/49/49 89/123/124
f 211/47/47 16/105/106 49/3/3
f 190/50/50 19/124/125 60/48/48
f 18/107/108 63/58/58 91/125/126
f 212/126/127 18/107/108 51/9/9
f 307/127/128 50/8/8 86/108/109
f 192/56/56 21/128/129 62/57/57
f 213/63/63 89/123/124 61/49/49
f 308/129/130 60/48/48 19/124/125
f 196/71/71 91/125/126 63/58/58
f 310/130/131 62/57/57 21/128/129
f 215/131/132 100/132/133 337/133/134
f 216/134/135 16/105/106 343/135/136
f 101/136/137 343/135/136 113/137/138
f 102/138/139 217/139/140 114/140/141
f 217/139/140 102/138/139 338/141/142
f 17/98/98 338/141/142 5/79/79
f 218/142/143 18/107/108 344/143/144
f 219/144/145 76/15/15 104/78/78
f 219/144/145 108/145/146 339/146/147
f 207/28/28 339/146/147 11/112/113
f 220/147/148 77/85/85 198/148/149
f 350/149/150 198/148/149 105/14/14
f 220/147/148 109/150/151 340/151/152
f 302/152/153 340/151/152 12/90/90
f 221/153/154 78/21/21 106/154/155
f 221/153/154 110/155/156 341/156/157
f 303/157/158 341/156/157 13/116/117
f 222/158/159 79/23/23 120/18/18
f 352/159/160 120/18/18 107/20/20
f 222/158/159 111/160/161 342/161/162
f 304/162/163 342/161/162 14/94/94
f 223/163/164 11/112/113 339/146/147
f 353/164/165 339/146/147 108/145/146
f 223/163/164 100/132/133 235/165/166
f 305/118/119 235/165/166 71/120/121
f 224/166/167 12/90/90 340/151/152
f 354/167/168 340/151/152 109/150/151
f 224/166/167 101/136/137 313/168/169
f 225/169/170 13/116/117 341/156/157
f 355/170/171 341/156/157 110/155/156
f 225/169/170 102/138/139 314/171/172
f 226/172/173 14/94/94 342/161/162
f 356/173/174 342/161/162 111/160/161
f 226/172/173 103/174/175 315/175/176
f 306/96/96 315/175/176 74/97/97
f 227/176/177 84/177/178 320/178/179
f 357/179/180 320/178/179 112/180/181
f 227/176/177 116/181/182 345/182/183
f 84/177/178 345/182/183 19/124/125
f 228/183/184 85/80/80 236/184/185
f 358/185/186 236/184/185 113/137/138
f 228/183/184 117/186/187 346/187/188
f 85/80/80 346/187/188 20/100/100
f 229/188/189 86/108/109 237/189/190
f 359/190/191 237/189/190 114/140/141
f 229/188/189 118/191/192 347/192/193
f 307/127/128 347/192/193 21/128/129
f 230/193/194 87/84/84 238/194/195
f 360/195/196 238/194/195 115/196/197
f 230/193/194 119/197/198 348/198/199
f 87/84/84 348/198/199 22/84/102
f 231/199/200 19/124/125 345/182/183
f 361/200/201 345/182/183 116/181/182
f 308/129/130 96/201/202 1/64/64
f 232/202/203 20/100/100 346/187/188
f 362/203/204 346/187/188 117/186/187
f 232/202/203 97/204/205 37/68/68
f 233/205/206 21/128/129 347/192/193
f 363/206/207 347/192/193 118/191/192
f 310/130/131 98/207/208 2/72/72
f 234/208/209 22/84/102 348/198/199
f 364/209/210 348/198/199 119/197/198
f 234/208/209 99/210/211 39/76/76
f 235/165/166 112/180/181 320/178/179
f 71/120/121 320/178/179 84/177/178
f 112/180/181 235/165/166 100/132/133
f 236/184/185 72/81/81 313/168/169
f 237/189/190 73/109/110 314/171/172
f 74/97/97 238/194/195 87/84/84
f 238/194/195 74/97/97 315/175/176
f 115/196/197 315/175/176 103/174/175
f 239/211/212 104/78/78 64/19/19
f 325/91/91 64/19/19 7/24/24
f 239/211/212 80/92/92 316/212/213
f 349/213/214 316/212/213 108/145/146
f 326/110/111 105/14/14 8/16/16
f 240/214/215 81/111/112 317/215/216
f 350/149/150 317/215/216 109/150/151
f 241/216/217 106/154/155 75/17/17
f 327/87/87 75/17/17 9/86/86
f 241/216/217 82/88/88 318/217/218
f 351/218/219 318/217/218 110/155/156
f 328/113/114 107/20/20 10/22/22
f 242/219/220 83/114/115 319/220/221
f 352/159/160 319/220/221 111/160/161
f 243/221/222 108/145/146 316/212/213
f 329/95/95 316/212/213 80/92/92
f 243/221/222 3/82/82 337/133/134
f 353/164/165 337/133/134 100/132/133
f 244/222/223 109/150/151 317/215/216
f 330/117/118 317/215/216 81/111/112
f 244/222/223 4/104/105 216/134/135
f 354/167/168 216/134/135 101/136/137
f 245/223/224 110/155/156 318/217/218
f 5/79/79 318/217/218 82/88/88
f 245/223/224 5/79/79 338/141/142
f 355/170/171 338/141/142 102/138/139
f 246/224/225 111/160/161 319/220/221
f 331/121/122 319/220/221 83/114/115
f 246/224/225 6/106/107 218/142/143
f 356/173/174 218/142/143 103/174/175
f 247/225/226 112/180/181 215/131/132
f 247/225/226 88/101/101 321/226/227
f 357/179/180 321/226/227 116/181/182
f 248/227/228 113/137/138 343/135/136
f 332/122/123 343/135/136 16/105/106
f 248/227/228 89/123/124 322/228/229
f 358/185/186 322/228/229 117/186/187
f 249/229/230 114/140/141 217/139/140
f 249/229/230 90/99/99 323/230/231
f 359/190/191 323/230/231 118/191/192
f 250/231/232 115/196/197 344/143/144
f 250/231/232 91/125/126 324/232/233
f 360/195/196 324/232/233 119/197/198
f 251/233/234 116/181/182 321/226/227
f 333/234/235 321/226/227 88/101/101
f 361/200/201 40/77/77 96/201/202
f 252/235/236 117/186/187 322/228/229
f 213/63/63 322/228/229 89/123/124
f 252/235/236 69/65/65 97/204/205
f 253/236/237 118/191/192 323/230/231
f 334/237/238 323/230/231 90/99/99
f 363/206/207 38/69/69 98/207/208
f 254/238/239 119/197/198 324/232/233
f 335/239/240 324/232/233 91/125/126
f 254/238/239 70/73/73 99/210/211
f 107/20/20 120/18/18 75/17/17
f 107/20/20 75/17/17 106/154/155
f 45/240/241 123/241/242 129/242/243
f 255/243/244 124/244/245 125/245/246
f 46/246/247 122/247/248 131/248/249
f 24/249/250 121/250/251 127/251/252
f 255/243/244 256/252/253 23/253/254
f 256/252/253 125/245/246 126/254/255
f 67/255/256 126/254/255 135/255/257
f 25/256/258 127/251/252 128/257/259
f 66/258/260 128/257/259 134/259/261
f 257/260/262 129/242/243 130/261/263
f 65/262/264 130/261/263 133/263/265
f 47/264/266 131/248/249 132/265/267
f 68/266/268 132/265/267 136/267/269
f 258/268/270 133/263/265 365/269/271
f 153/270/272 365/269/271 137/271/273
f 259/272/274 134/259/261 366/272/275
f 154/273/276 366/272/275 138/274/277
f 260/275/278 135/255/257 367/276/279
f 155/277/280 367/276/279 139/278/281
f 261/279/282 136/267/269 368/280/283
f 156/281/284 368/280/283 140/282/285
f 262/283/286 137/271/273 369/283/287
f 141/284/288 369/283/287 121/250/251
f 263/285/289 138/274/277 370/286/290
f 142/287/291 370/286/290 122/247/248
f 264/288/292 139/278/281 371/289/293
f 143/290/294 371/289/293 123/241/242
f 265/291/295 140/282/285 372/292/296
f 144/293/297 372/292/296 124/244/245
f 266/294/298 149/295/299 383/296/300
f 165/297/301 383/296/300 159/298/302
f 161/299/303 267/300/304 160/301/305
f 167/302/306 268/303/307 158/304/308
f 269/305/309 147/306/310 382/307/311
f 163/308/312 382/307/311 157/309/313
f 270/310/314 145/311/315 267/300/304
f 162/312/316 267/300/304 161/299/303
f 145/311/315 270/310/314 146/313/317
f 271/314/318 147/306/310 269/305/309
f 164/315/319 269/305/309 163/308/312
f 147/306/310 271/314/318 148/316/320
f 271/314/318 170/317/321 377/318/322
f 272/319/323 149/295/299 266/294/298
f 149/295/299 272/319/323 150/320/324
f 268/303/307 168/321/325 273/322/326
f 274/323/327 150/320/324 272/319/323
f 392/324/328 272/319/323 169/325/329
f 274/323/327 173/326/330 388/327/331
f 275/328/332 148/316/320 377/318/322
f 393/329/333 377/318/322 170/317/321
f 275/328/332 174/330/334 389/331/335
f 312/332/336 389/331/335 93/333/337
f 276/334/338 146/313/317 270/310/314
f 394/335/339 270/310/314 171/336/340
f 276/334/338 175/337/341 390/338/342
f 146/313/317 390/338/342 94/339/343
f 277/340/344 152/341/345 273/322/326
f 395/342/346 273/322/326 172/343/347
f 277/340/344 176/344/348 391/345/349
f 152/341/345 391/345/349 95/346/350
f 278/347/351 92/348/352 388/327/331
f 396/349/353 388/327/331 173/326/330
f 278/347/351 157/309/313 382/307/311
f 336/350/354 382/307/311 147/306/310
f 279/351/355 93/333/337 389/331/335
f 397/352/356 389/331/335 174/330/334
f 279/351/355 158/304/308 268/303/307
f 93/333/337 268/303/307 151/353/357
f 280/354/358 94/339/343 390/338/342
f 398/355/359 390/338/342 175/337/341
f 280/354/358 159/298/302 383/296/300
f 94/339/343 383/296/300 149/295/299
f 281/356/360 95/346/350 391/345/349
f 399/357/361 391/345/349 176/344/348
f 281/356/360 160/301/305 267/300/304
f 95/346/350 267/300/304 145/311/315
f 282/358/362 159/298/302 375/359/363
f 45/240/241 375/359/363 143/290/294
f 284/360/364 160/301/305 376/301/365
f 23/253/254 376/301/365 144/293/297
f 283/361/366 158/304/308 374/362/367
f 46/246/247 374/362/367 142/287/291
f 286/363/368 157/309/313 373/364/369
f 24/249/250 373/364/369 141/284/288
f 284/360/364 256/252/253 285/365/370
f 285/365/370 67/255/256 386/336/371
f 162/312/316 386/336/371 171/336/340
f 25/256/258 286/363/368 24/249/250
f 286/363/368 25/256/258 287/366/372
f 287/366/372 66/258/260 385/367/373
f 164/315/319 385/367/373 170/317/321
f 282/358/362 257/260/262 288/368/374
f 165/297/301 288/368/374 166/369/375
f 288/368/374 65/262/264 384/370/376
f 166/369/375 384/370/376 169/325/329
f 47/264/266 283/361/366 46/246/247
f 283/361/366 47/264/266 289/371/377
f 167/302/306 289/371/377 168/321/325
f 289/371/377 68/266/268 387/372/378
f 168/321/325 387/372/378 172/343/347
f 290/373/379 169/325/329 384/370/376
f 258/268/270 384/370/376 65/262/264
f 290/373/379 153/270/272 378/374/380
f 392/324/328 378/374/380 173/326/330
f 291/375/381 170/317/321 385/367/373
f 259/272/274 385/367/373 66/258/260
f 291/375/381 154/273/276 379/376/382
f 393/329/333 379/376/382 174/330/334
f 292/377/383 171/336/340 386/336/371
f 260/275/278 386/336/371 67/255/256
f 292/377/383 155/277/280 380/378/384
f 394/335/339 380/378/384 175/337/341
f 293/379/385 172/343/347 387/372/378
f 261/279/282 387/372/378 68/266/268
f 293/379/385 156/281/284 381/380/386
f 395/342/346 381/380/386 176/344/348
f 294/381/387 173/326/330 378/374/380
f 262/283/286 378/374/380 153/270/272
f 294/381/387 141/284/288 373/364/369
f 396/349/353 373/364/369 157/309/313
f 295/382/388 174/330/334 379/376/382
f 263/285/289 379/376/382 154/273/276
f 295/382/388 142/287/291 374/362/367
f 397/352/356 374/362/367 158/304/308
f 296/383/389 175/337/341 380/378/384
f 264/288/292 380/378/384 155/277/280
f 296/383/389 143/290/294 375/359/363
f 398/355/359 375/359/363 159/298/302
f 297/384/390 176/344/348 381/380/386
f 265/291/295 381/380/386 156/281/284
f 297/384/390 144/293/297 376/301/365
f 399/357/361 376/301/365 160/301/305
f 1/64/64 178/385/391 69/65/65
f 298/386/392 150/320/324 299/387/393
f 179/388/394 299/387/393 178/385/391
f 180/389/395 37/68/68 178/385/391
f 299/387/393 148/316/320 300/390/396
f 2/72/72 177/391/397 70/73/73
f 300/390/396 177/391/397 180/389/395
f 152/341/345 300/390/396 151/353/357
f 300/390/396 152/341/345 301/392/398
f 300/390/396 301/392/398 177/391/397
f 39/76/76 179/388/394 40/77/77
f 179/388/394 39/76/76 177/391/397
f 301/392/398 146/313/317 298/386/392
f 40/77/77 179/388/394 96/201/202
f 92/348/352 299/387/393 150/320/324
f 38/69/69 180/389/395 98/207/208
f 312/332/336 300/390/396 148/316/320
f 96/201/202 179/388/394 1/64/64
f 336/350/354 299/387/393 92/348/352
f 98/207/208 180/389/395 2/72/72
f 52/39/39 48/2/2 53/1/1
f 26/55/55 181/4/4 29/6/6
f 32/11/11 31/45/45 27/12/12
f 105/14/14 104/78/78 76/15/15
f 107/20/20 106/154/155 78/21/21
f 182/25/25 207/28/28 56/26/26
f 207/28/28 182/25/25 8/16/16
f 183/29/29 199/89/89 33/30/30
f 199/89/89 183/29/29 9/86/86
f 184/32/32 208/115/116 58/33/33
f 208/115/116 184/32/32 78/21/21
f 185/35/35 200/93/93 35/36/36
f 200/93/93 185/35/35 79/23/23
f 186/38/38 209/119/120 52/39/39
f 209/119/120 186/38/38 56/26/26
f 201/40/40 187/41/41 29/6/6
f 187/41/41 201/40/40 34/31/31
f 210/42/42 188/43/43 54/10/10
f 188/43/43 210/42/42 59/34/34
f 189/44/44 202/46/46 31/45/45
f 202/46/46 189/44/44 36/37/37
f 211/47/47 190/50/50 60/48/48
f 190/50/50 211/47/47 49/3/3
f 191/51/51 203/54/54 41/52/52
f 203/54/54 191/51/51 181/4/4
f 212/126/127 192/56/56 63/58/58
f 192/56/56 212/126/127 51/9/9
f 193/59/59 204/62/62 43/60/60
f 204/62/62 193/59/59 28/13/13
f 213/63/63 194/66/66 1/64/64
f 194/66/66 213/63/63 61/49/49
f 195/67/67 205/70/70 37/68/68
f 205/70/70 195/67/67 42/53/53
f 196/71/71 214/74/74 2/72/72
f 214/74/74 196/71/71 63/58/58
f 197/75/75 206/393/399 39/76/76
f 206/393/399 197/75/75 43/60/60
f 64/19/19 105/14/14 198/148/149
f 181/4/4 17/98/98 5/79/79
f 85/80/80 26/55/55 29/6/6
f 3/82/82 32/11/11 28/13/13
f 31/45/45 74/97/97 87/84/84
f 198/148/149 75/17/17 64/19/19
f 75/17/17 198/148/149 77/85/85
f 64/19/19 120/18/18 79/23/23
f 327/87/87 183/29/29 34/31/31
f 183/29/29 327/87/87 9/86/86
f 302/152/153 199/89/89 77/85/85
f 199/89/89 302/152/153 12/90/90
f 325/91/91 185/35/35 36/37/37
f 185/35/35 325/91/91 7/24/24
f 304/162/163 200/93/93 79/23/23
f 200/93/93 304/162/163 14/94/94
f 5/79/79 201/40/40 30/5/5
f 201/40/40 5/79/79 82/88/88
f 72/81/81 187/41/41 33/30/30
f 329/95/95 189/44/44 32/11/11
f 189/44/44 329/95/95 80/92/92
f 306/96/96 202/46/46 35/36/36
f 202/46/46 306/96/96 74/97/97
f 17/98/98 191/51/51 42/53/53
f 85/80/80 203/54/54 26/55/55
f 203/54/54 85/80/80 20/100/100
f 15/83/83 193/59/59 44/61/61
f 87/84/84 204/62/62 27/12/12
f 204/62/62 87/84/84 22/84/102
f 334/237/238 195/67/67 38/69/69
f 195/67/67 334/237/238 90/99/99
f 309/102/103 205/70/70 41/52/52
f 205/70/70 309/102/103 37/68/68
f 333/234/235 197/75/75 40/77/77
f 197/75/75 333/234/235 88/101/101
f 311/103/104 206/393/399 43/60/60
f 206/393/399 311/103/104 39/76/76
f 4/104/105 53/1/1 49/3/3
f 71/120/121 48/2/2 52/39/39
f 48/2/2 71/120/121 84/177/178
f 6/106/107 55/7/7 51/9/9
f 326/110/111 182/25/25 57/27/27
f 182/25/25 326/110/111 8/16/16
f 328/113/114 184/32/32 59/34/34
f 184/32/32 328/113/114 10/22/22
f 303/157/158 208/115/116 78/21/21
f 208/115/116 303/157/158 13/116/117
f 330/117/118 186/38/38 53/1/1
f 186/38/38 330/117/118 81/111/112
f 305/118/119 209/119/120 56/26/26
f 209/119/120 305/118/119 71/120/121
f 331/121/122 210/42/42 55/7/7
f 210/42/42 331/121/122 83/114/115
f 73/109/110 188/43/43 58/33/33
f 332/122/123 211/47/47 61/49/49
f 211/47/47 332/122/123 16/105/106
f 84/177/178 190/50/50 48/2/2
f 190/50/50 84/177/178 19/124/125
f 18/107/108 212/126/127 63/58/58
f 307/127/128 192/56/56 50/8/8
f 192/56/56 307/127/128 21/128/129
f 308/129/130 194/66/66 60/48/48
f 194/66/66 308/129/130 1/64/64
f 335/239/240 196/71/71 70/73/73
f 196/71/71 335/239/240 91/125/126
f 310/130/131 214/74/74 62/57/57
f 214/74/74 310/130/131 2/72/72
f 215/131/132 3/82/82 15/83/83
f 215/131/132 112/180/181 100/132/133
f 3/82/82 215/131/132 337/133/134
f 216/134/135 4/104/105 16/105/106
f 101/136/137 216/134/135 343/135/136
f 17/98/98 217/139/140 338/141/142
f 218/142/143 6/106/107 18/107/108
f 115/196/197 218/142/143 344/143/144
f 218/142/143 115/196/197 103/174/175
f 219/144/145 207/28/28 76/15/15
f 349/213/214 219/144/145 104/78/78
f 219/144/145 349/213/214 108/145/146
f 207/28/28 219/144/145 339/146/147
f 220/147/148 302/152/153 77/85/85
f 350/149/150 220/147/148 198/148/149
f 220/147/148 350/149/150 109/150/151
f 302/152/153 220/147/148 340/151/152
f 221/153/154 303/157/158 78/21/21
f 351/218/219 221/153/154 106/154/155
f 221/153/154 351/218/219 110/155/156
f 303/157/158 221/153/154 341/156/157
f 222/158/159 304/162/163 79/23/23
f 352/159/160 222/158/159 120/18/18
f 222/158/159 352/159/160 111/160/161
f 304/162/163 222/158/159 342/161/162
f 223/163/164 305/118/119 11/112/113
f 353/164/165 223/163/164 339/146/147
f 223/163/164 353/164/165 100/132/133
f 305/118/119 223/163/164 235/165/166
f 224/166/167 72/81/81 12/90/90
f 354/167/168 224/166/167 340/151/152
f 224/166/167 354/167/168 101/136/137
f 72/81/81 224/166/167 313/168/169
f 225/169/170 73/109/110 13/116/117
f 355/170/171 225/169/170 341/156/157
f 225/169/170 355/170/171 102/138/139
f 73/109/110 225/169/170 314/171/172
f 226/172/173 306/96/96 14/94/94
f 356/173/174 226/172/173 342/161/162
f 226/172/173 356/173/174 103/174/175
f 306/96/96 226/172/173 315/175/176
f 357/179/180 227/176/177 320/178/179
f 227/176/177 357/179/180 116/181/182
f 84/177/178 227/176/177 345/182/183
f 358/185/186 228/183/184 236/184/185
f 228/183/184 358/185/186 117/186/187
f 85/80/80 228/183/184 346/187/188
f 229/188/189 307/127/128 86/108/109
f 359/190/191 229/188/189 237/189/190
f 229/188/189 359/190/191 118/191/192
f 307/127/128 229/188/189 347/192/193
f 360/195/196 230/193/194 238/194/195
f 230/193/194 360/195/196 119/197/198
f 87/84/84 230/193/194 348/198/199
f 231/199/200 308/129/130 19/124/125
f 361/200/201 231/199/200 345/182/183
f 231/199/200 361/200/201 96/201/202
f 308/129/130 231/199/200 96/201/202
f 232/202/203 309/102/103 20/100/100
f 362/203/204 232/202/203 346/187/188
f 232/202/203 362/203/204 97/204/205
f 309/102/103 232/202/203 37/68/68
f 233/205/206 310/130/131 21/128/129
f 363/206/207 233/205/206 347/192/193
f 233/205/206 363/206/207 98/207/208
f 310/130/131 233/205/206 98/207/208
f 234/208/209 311/103/104 22/84/102
f 364/209/210 234/208/209 348/198/199
f 234/208/209 364/209/210 99/210/211
f 311/103/104 234/208/209 39/76/76
f 71/120/121 235/165/166 320/178/179
f 236/184/185 101/136/137 113/137/138
f 236/184/185 85/80/80 72/81/81
f 101/136/137 236/184/185 313/168/169
f 237/189/190 102/138/139 114/140/141
f 237/189/190 86/108/109 73/109/110
f 102/138/139 237/189/190 314/171/172
f 115/196/197 238/194/195 315/175/176
f 239/211/212 349/213/214 104/78/78
f 325/91/91 239/211/212 64/19/19
f 239/211/212 325/91/91 80/92/92
f 349/213/214 239/211/212 316/212/213
f 240/214/215 350/149/150 105/14/14
f 326/110/111 240/214/215 105/14/14
f 240/214/215 326/110/111 81/111/112
f 350/149/150 240/214/215 317/215/216
f 241/216/217 351/218/219 106/154/155
f 327/87/87 241/216/217 75/17/17
f 241/216/217 327/87/87 82/88/88
f 351/218/219 241/216/217 318/217/218
f 242/219/220 352/159/160 107/20/20
f 328/113/114 242/219/220 107/20/20
f 242/219/220 328/113/114 83/114/115
f 352/159/160 242/219/220 319/220/221
f 243/221/222 353/164/165 108/145/146
f 329/95/95 243/221/222 316/212/213
f 243/221/222 329/95/95 3/82/82
f 353/164/165 243/221/222 337/133/134
f 244/222/223 354/167/168 109/150/151
f 330/117/118 244/222/223 317/215/216
f 244/222/223 330/117/118 4/104/105
f 354/167/168 244/222/223 216/134/135
f 245/223/224 355/170/171 110/155/156
f 5/79/79 245/223/224 318/217/218
f 355/170/171 245/223/224 338/141/142
f 246/224/225 356/173/174 111/160/161
f 331/121/122 246/224/225 319/220/221
f 246/224/225 331/121/122 6/106/107
f 356/173/174 246/224/225 218/142/143
f 247/225/226 357/179/180 112/180/181
f 15/83/83 247/225/226 215/131/132
f 247/225/226 15/83/83 88/101/101
f 357/179/180 247/225/226 321/226/227
f 248/227/228 358/185/186 113/137/138
f 332/122/123 248/227/228 343/135/136
f 248/227/228 332/122/123 89/123/124
f 358/185/186 248/227/228 322/228/229
f 249/229/230 359/190/191 114/140/141
f 17/98/98 249/229/230 217/139/140
f 249/229/230 17/98/98 90/99/99
f 359/190/191 249/229/230 323/230/231
f 250/231/232 360/195/196 115/196/197
f 18/107/108 250/231/232 344/143/144
f 250/231/232 18/107/108 91/125/126
f 360/195/196 250/231/232 324/232/233
f 251/233/234 361/200/201 116/181/182
f 333/234/235 251/233/234 321/226/227
f 251/233/234 333/234/235 40/77/77
f 361/200/201 251/233/234 40/77/77
f 252/235/236 362/203/204 117/186/187
f 213/63/63 252/235/236 322/228/229
f 252/235/236 213/63/63 69/65/65
f 362/203/204 252/235/236 97/204/205
f 253/236/237 363/206/207 118/191/192
f 334/237/238 253/236/237 323/230/231
f 253/236/237 334/237/238 38/69/69
f 363/206/207 253/236/237 38/69/69
f 254/238/239 364/209/210 119/197/198
f 335/239/240 254/238/239 324/232/233
f 254/238/239 335/239/240 70/73/73
f 364/209/210 254/238/239 99/210/211
f 45/240/241 143/290/294 123/241/242
f 144/293/297 255/243/244 23/253/254
f 255/243/244 144/293/297 124/244/245
f 46/246/247 142/287/291 122/247/248
f 24/249/250 141/284/288 121/250/251
f 256/252/253 255/243/244 125/245/246
f 67/255/256 256/252/253 126/254/255
f 25/256/258 24/249/250 127/251/252
f 66/258/260 25/256/258 128/257/259
f 257/260/262 45/240/241 129/242/243
f 65/262/264 257/260/262 130/261/263
f 47/264/266 46/246/247 131/248/249
f 68/266/268 47/264/266 132/265/267
f 258/268/270 65/262/264 133/263/265
f 153/270/272 258/268/270 365/269/271
f 259/272/274 66/258/260 134/259/261
f 154/273/276 259/272/274 366/272/275
f 260/275/278 67/255/256 135/255/257
f 155/277/280 260/275/278 367/276/279
f 261/279/282 68/266/268 136/267/269
f 156/281/284 261/279/282 368/280/283
f 262/283/286 153/270/272 137/271/273
f 141/284/288 262/283/286 369/283/287
f 263/285/289 154/273/276 138/274/277
f 142/287/291 263/285/289 370/286/290
f 264/288/292 155/277/280 139/278/281
f 143/290/294 264/288/292 371/289/293
f 265/291/295 156/281/284 140/282/285
f 144/293/297 265/291/295 372/292/296
f 165/297/301 266/294/298 383/296/300
f 163/308/312 269/305/309 382/307/311
f 162/312/316 270/310/314 267/300/304
f 270/310/314 162/312/316 171/336/340
f 164/315/319 271/314/318 269/305/309
f 271/314/318 164/315/319 170/317/321
f 148/316/320 271/314/318 377/318/322
f 165/297/301 272/319/323 266/294/298
f 272/319/323 165/297/301 166/369/375
f 272/319/323 166/369/375 169/325/329
f 268/303/307 152/341/345 151/353/357
f 268/303/307 167/302/306 168/321/325
f 152/341/345 268/303/307 273/322/326
f 273/322/326 168/321/325 172/343/347
f 274/323/327 92/348/352 150/320/324
f 392/324/328 274/323/327 272/319/323
f 274/323/327 392/324/328 173/326/330
f 92/348/352 274/323/327 388/327/331
f 275/328/332 312/332/336 148/316/320
f 393/329/333 275/328/332 377/318/322
f 275/328/332 393/329/333 174/330/334
f 312/332/336 275/328/332 389/331/335
f 394/335/339 276/334/338 270/310/314
f 276/334/338 394/335/339 175/337/341
f 146/313/317 276/334/338 390/338/342
f 395/342/346 277/340/344 273/322/326
f 277/340/344 395/342/346 176/344/348
f 152/341/345 277/340/344 391/345/349
f 278/347/351 336/350/354 92/348/352
f 396/349/353 278/347/351 388/327/331
f 278/347/351 396/349/353 157/309/313
f 336/350/354 278/347/351 382/307/311
f 397/352/356 279/351/355 389/331/335
f 279/351/355 397/352/356 158/304/308
f 93/333/337 279/351/355 268/303/307
f 398/355/359 280/354/358 390/338/342
f 280/354/358 398/355/359 159/298/302
f 94/339/343 280/354/358 383/296/300
f 399/357/361 281/356/360 391/345/349
f 281/356/360 399/357/361 160/301/305
f 95/346/350 281/356/360 267/300/304
f 282/358/362 165/297/301 159/298/302
f 45/240/241 282/358/362 375/359/363
f 284/360/364 161/299/303 160/301/305
f 23/253/254 284/360/364 376/301/365
f 283/361/366 167/302/306 158/304/308
f 46/246/247 283/361/366 374/362/367
f 286/363/368 163/308/312 157/309/313
f 24/249/250 286/363/368 373/364/369
f 284/360/364 162/312/316 161/299/303
f 284/360/364 23/253/254 256/252/253
f 162/312/316 284/360/364 285/365/370
f 285/365/370 256/252/253 67/255/256
f 162/312/316 285/365/370 386/336/371
f 286/363/368 164/315/319 163/308/312
f 164/315/319 286/363/368 287/366/372
f 287/366/372 25/256/258 66/258/260
f 164/315/319 287/366/372 385/367/373
f 282/358/362 45/240/241 257/260/262
f 165/297/301 282/358/362 288/368/374
f 288/368/374 257/260/262 65/262/264
f 166/369/375 288/368/374 384/370/376
f 167/302/306 283/361/366 289/371/377
f 289/371/377 47/264/266 68/266/268
f 168/321/325 289/371/377 387/372/378
f 290/373/379 392/324/328 169/325/329
f 258/268/270 290/373/379 384/370/376
f 290/373/379 258/268/270 153/270/272
f 392/324/328 290/373/379 378/374/380
f 291/375/381 393/329/333 170/317/321
f 259/272/274 291/375/381 385/367/373
f 291/375/381 259/272/274 154/273/276
f 393/329/333 291/375/381 379/376/382
f 292/377/383 394/335/339 171/336/340
f 260/275/278 292/377/383 386/336/371
f 292/377/383 260/275/278 155/277/280
f 394/335/339 292/377/383 380/378/384
f 293/379/385 395/342/346 172/343/347
f 261/279/282 293/379/385 387/372/378
f 293/379/385 261/279/282 156/281/284
f 395/342/346 293/379/385 381/380/386
f 294/381/387 396/349/353 173/326/330
f 262/283/286 294/381/387 378/374/380
f 294/381/387 262/283/286 141/284/288
f 396/349/353 294/381/387 373/364/369
f 295/382/388 397/352/356 174/330/334
f 263/285/289 295/382/388 379/376/382
f 295/382/388 263/285/289 142/287/291
f 397/352/356 295/382/388 374/362/367
f 296/383/389 398/355/359 175/337/341
f 264/288/292 296/383/389 380/378/384
f 296/383/389 264/288/292 143/290/294
f 398/355/359 296/383/389 375/359/363
f 297/384/390 399/357/361 176/344/348
f 265/291/295 297/384/390 381/380/386
f 297/384/390 265/291/295 144/293/297
f 399/357/361 297/384/390 376/301/365
f 298/386/392 149/295/299 150/320/324
f 179/388/394 298/386/392 299/387/393
f 180/389/395 38/69/69 37/68/68
f 299/387/393 180/389/395 178/385/391
f 299/387/393 147/306/310 148/316/320
f 180/389/395 299/387/393 300/390/396
f 179/388/394 301/392/398 298/386/392
f 301/392/398 179/388/394 177/391/397
f 301/392/398 145/311/315 146/313/317
f 1/64/64 179/388/394 178/385/391
f 2/72/72 180/389/395 177/391/397
f 298/386/392 146/313/317 94/339/343
f 178/385/391 97/204/205 69/65/65
f 300/390/396 312/332/336 93/333/337
f 177/391/397 99/210/211 70/73/73
f 301/392/398 152/341/345 95/346/350
f 298/386/392 94/339/343 149/295/299
f 178/385/391 37/68/68 97/204/205
f 299/387/393 336/350/354 147/306/310
f 300/390/396 93/333/337 151/353/357
f 177/391/397 39/76/76 99/210/211
f 301/392/398 95/346/350 145/311/315
