# Blender 4.0.0
# www.blender.org
mtllib Microwave011_Button8.mtl
o Microwave011_Button8
v 0.182604 -0.128950 0.113097
v 0.199808 -0.128950 0.110901
v 0.183013 -0.129515 0.113296
v 0.182666 -0.129515 0.110905
v 0.199392 -0.129511 0.110690
v 0.199742 -0.129515 0.113081
v 0.199573 -0.129629 0.110756
v 0.183134 -0.129628 0.113261
v 0.182700 -0.129628 0.110988
v 0.199269 -0.129628 0.110725
v 0.199707 -0.129628 0.113004
v 0.182674 -0.129616 0.113072
v 0.183022 -0.129616 0.110699
v 0.199733 -0.129616 0.110913
v 0.199386 -0.129616 0.113287
v 0.183011 -0.129063 0.113298
v 0.182664 -0.129063 0.110903
v 0.199396 -0.129063 0.110688
v 0.199744 -0.129063 0.113083
v 0.182656 -0.128963 0.113092
v 0.183002 -0.128963 0.110680
v 0.199754 -0.128963 0.110896
v 0.199404 -0.128963 0.113307
v 0.181842 -0.128786 0.115637
v 0.181816 -0.128795 0.109218
v 0.200592 -0.128795 0.109218
v 0.183540 -0.129063 0.110682
v 0.198867 -0.129063 0.110682
v 0.198867 -0.129063 0.113304
v 0.183540 -0.129063 0.113304
v 0.183551 -0.129502 0.110683
v 0.198862 -0.129501 0.110683
v 0.183542 -0.129515 0.113302
v 0.183550 -0.129616 0.110692
v 0.198858 -0.129616 0.110692
v 0.198858 -0.129616 0.113293
v 0.183550 -0.129616 0.113293
v 0.183024 -0.128950 0.110638
v 0.199389 -0.128950 0.110637
v 0.199371 -0.128950 0.113369
v 0.182769 -0.128950 0.113362
v 0.183532 -0.128963 0.110674
v 0.198876 -0.128963 0.110674
v 0.198874 -0.128963 0.113314
v 0.183533 -0.128963 0.113314
v 0.180759 -0.128791 0.114925
v 0.180759 -0.128784 0.109950
v 0.201648 -0.128802 0.109942
v 0.201649 -0.128797 0.114922
v 0.182657 -0.129053 0.112953
v 0.182657 -0.129063 0.111033
v 0.199750 -0.129066 0.111036
v 0.199750 -0.129063 0.112952
v 0.182659 -0.129516 0.112951
v 0.182659 -0.129516 0.111035
v 0.199748 -0.129515 0.111035
v 0.199748 -0.129515 0.112951
v 0.182668 -0.129616 0.112944
v 0.182668 -0.129616 0.111042
v 0.199740 -0.129616 0.111042
v 0.199740 -0.129616 0.112944
v 0.182649 -0.128963 0.112959
v 0.182648 -0.128963 0.111028
v 0.199760 -0.128963 0.111034
v 0.199759 -0.128963 0.112949
v 0.182737 -0.129629 0.113140
v 0.180766 -0.128795 0.109529
v 0.201249 -0.128775 0.109224
v 0.181156 -0.128795 0.115630
v 0.201643 -0.128755 0.115323
v 0.182599 -0.128950 0.110890
v 0.199803 -0.128950 0.113114
v 0.182666 -0.129515 0.113081
v 0.183013 -0.129515 0.110690
v 0.199742 -0.129514 0.110905
v 0.199394 -0.129515 0.113296
v 0.182700 -0.129628 0.113004
v 0.183132 -0.129628 0.110724
v 0.199706 -0.129628 0.110972
v 0.199330 -0.129628 0.113257
v 0.183022 -0.129616 0.113287
v 0.182674 -0.129616 0.110913
v 0.199386 -0.129616 0.110699
v 0.199733 -0.129616 0.113072
v 0.182664 -0.129063 0.113083
v 0.183011 -0.129063 0.110688
v 0.199744 -0.129063 0.110903
v 0.199396 -0.129063 0.113298
v 0.183004 -0.128963 0.113307
v 0.182654 -0.128963 0.110896
v 0.199406 -0.128963 0.110680
v 0.199752 -0.128963 0.113092
v 0.180869 -0.128947 0.109356
v 0.201544 -0.128947 0.109367
v 0.180853 -0.128947 0.115461
v 0.201489 -0.128947 0.115528
v 0.182641 -0.128950 0.113278
v 0.182644 -0.128950 0.110714
v 0.199770 -0.128950 0.110725
v 0.199761 -0.128950 0.113289
v 0.182723 -0.129515 0.113239
v 0.182723 -0.129514 0.110747
v 0.199685 -0.129515 0.110747
v 0.199685 -0.129515 0.113239
v 0.182834 -0.129629 0.113231
v 0.182763 -0.129628 0.113199
v 0.182763 -0.129628 0.110787
v 0.199645 -0.129628 0.110787
v 0.199645 -0.129628 0.113199
v 0.182732 -0.129616 0.113230
v 0.182732 -0.129616 0.110756
v 0.199676 -0.129616 0.110756
v 0.199676 -0.129616 0.113230
v 0.182721 -0.129063 0.113241
v 0.182721 -0.129063 0.110745
v 0.199687 -0.129063 0.110745
v 0.199687 -0.129063 0.113241
v 0.182713 -0.128963 0.113250
v 0.182711 -0.128963 0.110737
v 0.199697 -0.128963 0.110737
v 0.199695 -0.128963 0.113250
v 0.181155 -0.128083 0.109223
v 0.201644 -0.128083 0.109528
v 0.180764 -0.128083 0.115326
v 0.201252 -0.128083 0.115632
v 0.200594 -0.128083 0.115638
v 0.181813 -0.128083 0.115638
v 0.181814 -0.128083 0.109216
v 0.200593 -0.128083 0.109216
v 0.180758 -0.128083 0.114923
v 0.180758 -0.128083 0.109932
v 0.201650 -0.128083 0.109931
v 0.201650 -0.128083 0.114925
v 0.180764 -0.128083 0.109528
v 0.201252 -0.128083 0.109223
v 0.181155 -0.128083 0.115632
v 0.201644 -0.128083 0.115326
v 0.180821 -0.128083 0.109280
v 0.201586 -0.128083 0.109280
v 0.180821 -0.128083 0.115575
v 0.201586 -0.128083 0.115575
v 0.181151 -0.128775 0.109224
v 0.201642 -0.128795 0.109529
v 0.180765 -0.128782 0.115327
v 0.201252 -0.128760 0.115631
v 0.201122 -0.128947 0.115557
v 0.181269 -0.128947 0.115557
v 0.181281 -0.128947 0.109275
v 0.201133 -0.128947 0.109275
v 0.180826 -0.128947 0.115214
v 0.180834 -0.128947 0.109601
v 0.201573 -0.128947 0.109608
v 0.201583 -0.128947 0.115220
v 0.180822 -0.128765 0.109281
v 0.201585 -0.128780 0.109280
v 0.180822 -0.128795 0.115573
v 0.201586 -0.128768 0.115573
v 0.181170 -0.128931 0.109234
v 0.201629 -0.128931 0.109539
v 0.180776 -0.128931 0.115312
v 0.201241 -0.128931 0.115617
v 0.200574 -0.128931 0.115623
v 0.181825 -0.128931 0.115623
v 0.181796 -0.128931 0.109228
v 0.200648 -0.128931 0.109229
v 0.180772 -0.128932 0.114908
v 0.180774 -0.128931 0.109931
v 0.201634 -0.128931 0.109946
v 0.201637 -0.128931 0.114907
v 0.180779 -0.128931 0.109539
v 0.201238 -0.128931 0.109234
v 0.181167 -0.128931 0.115617
v 0.201632 -0.128931 0.115312
v 0.180836 -0.128931 0.109291
v 0.201572 -0.128931 0.109291
v 0.180833 -0.128931 0.115560
v 0.201575 -0.128931 0.115560
v 0.199853 -0.128949 0.110581
v 0.182528 -0.128949 0.110590
v 0.180930 -0.128949 0.115419
v 0.199877 -0.128949 0.113456
v 0.182552 -0.128949 0.113457
v 0.198866 -0.129515 0.113302
v 0.182730 -0.129629 0.110855
v 0.199672 -0.129629 0.110846
v 0.199583 -0.129629 0.113227
v 0.182678 -0.129624 0.111050
v 0.198849 -0.129624 0.110702
v 0.199730 -0.129624 0.112936
v 0.183559 -0.129624 0.113284
v 0.182662 -0.129602 0.112948
v 0.198863 -0.129602 0.110686
v 0.199745 -0.129602 0.112948
v 0.198863 -0.129602 0.113299
v 0.182655 -0.128977 0.112954
v 0.198870 -0.128977 0.110679
v 0.199754 -0.128977 0.111031
v 0.198870 -0.128977 0.113307
v 0.182640 -0.128954 0.112970
v 0.198886 -0.128954 0.110666
v 0.199768 -0.128954 0.112956
v 0.198883 -0.128954 0.113324
v 0.182828 -0.129629 0.110758
v 0.183559 -0.129624 0.110702
v 0.198849 -0.129624 0.113284
v 0.183545 -0.129602 0.110686
v 0.183545 -0.129602 0.113299
v 0.183537 -0.128977 0.110679
v 0.183538 -0.128977 0.113307
v 0.183521 -0.128954 0.110666
v 0.183525 -0.128954 0.113324
v 0.182678 -0.129624 0.112936
v 0.199730 -0.129624 0.111050
v 0.182662 -0.129602 0.111037
v 0.199745 -0.129602 0.111037
v 0.182654 -0.128977 0.111031
v 0.199753 -0.128977 0.112955
v 0.182637 -0.128954 0.111013
v 0.199771 -0.128954 0.111017
v 0.182784 -0.129063 0.113279
v 0.182685 -0.129512 0.110810
v 0.199621 -0.129515 0.110709
v 0.199723 -0.129515 0.113175
v 0.199676 -0.129629 0.113128
v 0.182703 -0.129624 0.113157
v 0.182805 -0.129624 0.110727
v 0.199704 -0.129624 0.110829
v 0.199603 -0.129624 0.113258
v 0.182688 -0.129602 0.113172
v 0.182789 -0.129602 0.110712
v 0.199720 -0.129602 0.110813
v 0.199618 -0.129602 0.113274
v 0.182680 -0.128977 0.113180
v 0.182781 -0.128977 0.110704
v 0.199728 -0.128977 0.110806
v 0.199626 -0.128977 0.113282
v 0.182666 -0.128954 0.113197
v 0.182763 -0.128954 0.110691
v 0.199746 -0.128954 0.110793
v 0.199640 -0.128954 0.113299
v 0.182685 -0.129515 0.113175
v 0.182784 -0.129063 0.110707
v 0.199725 -0.129059 0.110809
v 0.199623 -0.129063 0.113279
v 0.182805 -0.129624 0.113258
v 0.182703 -0.129624 0.110829
v 0.199603 -0.129624 0.110727
v 0.199704 -0.129624 0.113157
v 0.182789 -0.129602 0.113274
v 0.182688 -0.129602 0.110813
v 0.199618 -0.129602 0.110712
v 0.199720 -0.129602 0.113172
v 0.182782 -0.128977 0.113282
v 0.182679 -0.128977 0.110806
v 0.199627 -0.128977 0.110704
v 0.199728 -0.128977 0.113180
v 0.182768 -0.128954 0.113299
v 0.182662 -0.128954 0.110793
v 0.199644 -0.128954 0.110691
v 0.199742 -0.128954 0.113197
v 0.201650 -0.128487 0.109931
v 0.181814 -0.128485 0.109216
v 0.200597 -0.128785 0.115637
v 0.200593 -0.128485 0.109216
v 0.201650 -0.128557 0.114911
v 0.180783 -0.128486 0.109343
v 0.201522 -0.128779 0.109243
v 0.180885 -0.128486 0.115613
v 0.201625 -0.128486 0.115511
v 0.180885 -0.128778 0.109243
v 0.201625 -0.128486 0.109343
v 0.180784 -0.128781 0.115511
v 0.201523 -0.128486 0.115613
v 0.180784 -0.128942 0.114925
v 0.201617 -0.128942 0.109927
v 0.181816 -0.128942 0.109240
v 0.200633 -0.128942 0.115608
v 0.181789 -0.128942 0.115609
v 0.200650 -0.128942 0.109241
v 0.180791 -0.128942 0.110931
v 0.180789 -0.128942 0.109949
v 0.201624 -0.128942 0.114918
v 0.180812 -0.128942 0.109366
v 0.201494 -0.128942 0.109264
v 0.180908 -0.128942 0.115584
v 0.201601 -0.128942 0.115483
v 0.180914 -0.128942 0.109264
v 0.201595 -0.128942 0.109366
v 0.180806 -0.128942 0.115483
v 0.201500 -0.128942 0.115584
v 0.201644 -0.128912 0.109934
v 0.200589 -0.128912 0.115632
v 0.181819 -0.128912 0.115632
v 0.181830 -0.128912 0.109221
v 0.200588 -0.128912 0.109221
v 0.180763 -0.128913 0.114910
v 0.180764 -0.128912 0.109932
v 0.201643 -0.128912 0.110841
v 0.201645 -0.128912 0.114938
v 0.180789 -0.128912 0.109348
v 0.201517 -0.128912 0.109246
v 0.180889 -0.128912 0.115607
v 0.201620 -0.128912 0.115506
v 0.180891 -0.128912 0.109246
v 0.201619 -0.128912 0.109348
v 0.180788 -0.128912 0.115506
v 0.201518 -0.128912 0.115607
v 0.181098 -0.128949 0.109350
v 0.201475 -0.128949 0.109467
v 0.201471 -0.128949 0.115427
v 0.201322 -0.128949 0.109352
v 0.180935 -0.128949 0.109455
v 0.182684 -0.129624 0.113063
v 0.183031 -0.129624 0.110708
v 0.199723 -0.129624 0.110922
v 0.199376 -0.129624 0.113277
v 0.182669 -0.129602 0.113078
v 0.183016 -0.129602 0.110693
v 0.199739 -0.129602 0.110907
v 0.199391 -0.129602 0.113293
v 0.182661 -0.128977 0.113086
v 0.183008 -0.128977 0.110685
v 0.199747 -0.128977 0.110900
v 0.199399 -0.128977 0.113301
v 0.182647 -0.128954 0.113102
v 0.182991 -0.128954 0.110672
v 0.199765 -0.128954 0.110888
v 0.199412 -0.128954 0.113318
v 0.201452 -0.128947 0.109297
v 0.180948 -0.128947 0.115536
v 0.201562 -0.128947 0.115434
v 0.199683 -0.128950 0.110661
v 0.182786 -0.129515 0.110709
v 0.199723 -0.129515 0.110810
v 0.199621 -0.129515 0.113277
v 0.182795 -0.129616 0.113268
v 0.182693 -0.129616 0.110819
v 0.199613 -0.129616 0.110718
v 0.199714 -0.129616 0.113166
v 0.182683 -0.129063 0.113177
v 0.182777 -0.128963 0.113288
v 0.182673 -0.128963 0.110801
v 0.199633 -0.128963 0.110699
v 0.199733 -0.128963 0.113187
v 0.183031 -0.129624 0.113277
v 0.182684 -0.129624 0.110922
v 0.199376 -0.129624 0.110708
v 0.199723 -0.129624 0.113063
v 0.183016 -0.129602 0.113293
v 0.182669 -0.129602 0.110907
v 0.199391 -0.129602 0.110693
v 0.199739 -0.129602 0.113078
v 0.183009 -0.128977 0.113301
v 0.182660 -0.128977 0.110900
v 0.199400 -0.128977 0.110685
v 0.199747 -0.128977 0.113086
v 0.182995 -0.128954 0.113318
v 0.182643 -0.128954 0.110888
v 0.199417 -0.128954 0.110672
v 0.199761 -0.128954 0.113102
v 0.180956 -0.128947 0.109297
v 0.182725 -0.128950 0.110661
v 0.199677 -0.128950 0.113345
v 0.182786 -0.129515 0.113277
v 0.182693 -0.129616 0.113166
v 0.182795 -0.129616 0.110718
v 0.199714 -0.129616 0.110819
v 0.199613 -0.129616 0.113268
v 0.182683 -0.129063 0.110809
v 0.199623 -0.129063 0.110707
v 0.199725 -0.129063 0.113177
v 0.182675 -0.128963 0.113187
v 0.182774 -0.128963 0.110699
v 0.199735 -0.128963 0.110801
v 0.199631 -0.128963 0.113288
v 0.182741 -0.129624 0.113220
v 0.182741 -0.129624 0.110765
v 0.199666 -0.129624 0.110765
v 0.199666 -0.129624 0.113220
v 0.182726 -0.129602 0.113236
v 0.182726 -0.129602 0.110750
v 0.199682 -0.129602 0.110750
v 0.199682 -0.129602 0.113236
v 0.182718 -0.128977 0.113244
v 0.182717 -0.128977 0.110743
v 0.199690 -0.128977 0.110743
v 0.199689 -0.128977 0.113244
v 0.182704 -0.128954 0.113261
v 0.182700 -0.128954 0.110729
v 0.199708 -0.128954 0.110729
v 0.199703 -0.128954 0.113261
v 0.201644 -0.128486 0.109528
v 0.180764 -0.128486 0.109528
v 0.181155 -0.128486 0.115632
v 0.180821 -0.128486 0.115575
v 0.180783 -0.128083 0.109343
v 0.201523 -0.128083 0.109242
v 0.180885 -0.128083 0.115613
v 0.201625 -0.128083 0.115511
v 0.180885 -0.128083 0.109242
v 0.201625 -0.128083 0.109343
v 0.180783 -0.128083 0.115511
v 0.201523 -0.128083 0.115613
v 0.181161 -0.128912 0.109227
v 0.201638 -0.128912 0.109533
v 0.180769 -0.128912 0.115321
v 0.201248 -0.128912 0.115626
v 0.180794 -0.128942 0.109550
v 0.201224 -0.128942 0.109246
v 0.181178 -0.128942 0.115603
v 0.201620 -0.128942 0.115298
v 0.180827 -0.128912 0.109284
v 0.201581 -0.128912 0.109284
v 0.180826 -0.128912 0.115569
v 0.201582 -0.128912 0.115569
v 0.180785 -0.128795 0.109345
v 0.180886 -0.128795 0.115611
v 0.201623 -0.128795 0.115510
v 0.201623 -0.128795 0.109345
v 0.201522 -0.128795 0.115611
v 0.181184 -0.128942 0.109246
v 0.201614 -0.128942 0.109550
v 0.180788 -0.128942 0.115298
v 0.201230 -0.128942 0.115603
v 0.180770 -0.128912 0.109533
v 0.201247 -0.128912 0.109227
v 0.181160 -0.128912 0.115626
v 0.201639 -0.128912 0.115321
v 0.180850 -0.128942 0.109302
v 0.201557 -0.128942 0.109302
v 0.180844 -0.128942 0.115546
v 0.201563 -0.128942 0.115546
v 0.201634 -0.128931 0.112425
v 0.180798 -0.128931 0.109355
v 0.201508 -0.128931 0.109253
v 0.180896 -0.128931 0.115599
v 0.201613 -0.128931 0.115497
v 0.180899 -0.128931 0.109253
v 0.201610 -0.128931 0.109355
v 0.180795 -0.128931 0.115497
v 0.201511 -0.128931 0.115599
vn -0.9994 -0.0191 -0.0278
vn -0.9995 -0.0157 0.0257
vn -0.9994 -0.0213 -0.0256
vn 0.0072 -0.0184 -0.9998
vn -0.0065 -0.0177 -0.9998
vn 0.0059 -0.0175 -0.9998
vn 0.9995 -0.0194 0.0230
vn 0.9994 -0.0244 -0.0253
vn 0.9996 -0.0185 0.0235
vn 0.0055 -0.0195 0.9998
vn 0.0048 -0.0207 0.9998
vn -0.0061 -0.0186 0.9998
vn -0.0787 -0.9965 -0.0274
vn -0.1227 -0.9924 0.0112
vn -0.1115 -0.9938 0.0010
vn -0.0255 -0.9968 -0.0761
vn -0.0637 -0.9977 0.0234
vn 0.0224 -0.9966 -0.0789
vn -0.0072 -0.9915 -0.1296
vn -0.0046 -0.9929 -0.1190
vn 0.0201 -0.9971 0.0736
vn 0.0683 -0.9974 -0.0238
vn 0.1223 -0.9925 -0.0093
vn 0.1198 -0.9927 0.0150
vn -0.4286 -0.9035 -0.0053
vn -0.7972 -0.6027 0.0338
vn -0.8007 -0.5987 -0.0207
vn 0.0011 -0.9049 -0.4256
vn -0.0199 -0.6012 -0.7988
vn 0.0060 -0.5933 -0.8049
vn 0.4310 -0.9023 0.0057
vn 0.8017 -0.5975 -0.0140
vn 0.8170 -0.5759 0.0285
vn 0.4278 -0.9038 -0.0067
vn -0.0014 -0.9031 0.4294
vn 0.0008 -0.5930 0.8052
vn -0.0142 -0.5851 0.8108
vn -0.9743 -0.2233 0.0277
vn -0.9994 -0.0213 0.0274
vn 0.0069 -0.2163 -0.9763
vn -0.0056 -0.0182 -0.9998
vn 0.9750 -0.2201 0.0305
vn 0.9995 -0.0203 -0.0232
vn 0.9752 -0.2200 -0.0244
vn -0.0062 -0.2171 0.9761
vn -0.0055 -0.0195 0.9998
vn 0.0078 -0.2178 0.9760
vn -0.9720 -0.2340 -0.0219
vn -0.8196 -0.5729 -0.0033
vn -0.7800 -0.6256 -0.0143
vn -0.9752 -0.2195 0.0275
vn 0.0052 -0.1904 -0.9817
vn 0.0165 -0.5389 -0.8422
vn 0.0109 -0.4787 -0.8779
vn -0.0051 -0.1902 -0.9817
vn 0.9738 -0.2263 -0.0219
vn 0.7877 -0.6160 0.0092
vn 0.8293 -0.5587 -0.0114
vn -0.0052 -0.2351 0.9720
vn -0.0182 -0.6101 0.7921
vn -0.0030 -0.6259 0.7799
vn 0.0165 -0.2414 0.9703
vn -0.3640 -0.9313 -0.0129
vn -0.0563 -0.9984 0.0075
vn -0.0536 -0.9985 -0.0086
vn -0.4245 -0.9043 0.0451
vn 0.0035 -0.8982 -0.4396
vn -0.0017 -0.9973 -0.0737
vn 0.0060 -0.9976 -0.0694
vn -0.0031 -0.8976 -0.4409
vn 0.3998 -0.9165 0.0124
vn 0.0582 -0.9983 -0.0070
vn 0.0530 -0.9986 0.0079
vn 0.3611 -0.9325 -0.0113
vn -0.0032 -0.9291 0.3699
vn 0.0041 -0.9989 0.0471
vn -0.0109 -0.9994 0.0339
vn 0.0371 -0.9128 0.4067
vn 0.0479 -0.0196 -0.9987
vn 0.0476 -0.0174 -0.9987
vn -0.0459 -0.0190 -0.9988
vn -0.0482 -0.0200 -0.9986
vn 0.0475 -0.0217 0.9986
vn 0.0064 -0.9929 0.1192
vn -0.0102 -0.9920 0.1255
vn 0.0179 -0.9074 -0.4198
vn 0.0385 -0.6064 -0.7943
vn -0.0014 -0.9172 -0.3983
vn -0.0385 -0.6064 -0.7942
vn -0.0178 -0.9072 0.4204
vn -0.0385 -0.6064 0.7942
vn 0.0012 -0.9072 0.4208
vn 0.0385 -0.6062 0.7944
vn 0.0499 -0.2251 -0.9731
vn -0.0499 -0.2247 -0.9731
vn -0.0079 -0.2208 -0.9753
vn -0.0499 -0.2248 0.9731
vn -0.0474 -0.0200 0.9987
vn 0.0498 -0.2249 0.9731
vn 0.0478 -0.0202 0.9987
vn 0.0430 -0.1983 -0.9792
vn 0.0379 -0.5622 -0.8261
vn -0.0429 -0.1984 -0.9792
vn -0.0379 -0.5619 -0.8263
vn -0.0435 -0.2419 0.9693
vn -0.0361 -0.6380 0.7692
vn -0.0474 -0.0208 0.9987
vn 0.0435 -0.2417 0.9694
vn 0.0361 -0.6379 0.7693
vn -0.0262 -0.9102 -0.4133
vn 0.0207 -0.9373 0.3478
vn -0.9920 -0.0202 -0.1247
vn -0.9921 -0.0229 -0.1230
vn 0.9920 -0.0225 0.1242
vn 0.9922 -0.0198 0.1231
vn 0.9922 -0.0229 -0.1227
vn -0.4062 -0.9127 -0.0455
vn -0.7750 -0.6244 -0.0973
vn -0.4018 -0.9157 0.0051
vn -0.7744 -0.6252 0.0972
vn 0.4051 -0.9131 0.0460
vn 0.7747 -0.6248 0.0973
vn 0.7754 -0.6239 -0.0972
vn -0.9634 -0.2364 -0.1265
vn -0.9745 -0.2229 -0.0274
vn -0.9633 -0.2368 0.1263
vn -0.9914 -0.0207 0.1291
vn 0.9633 -0.2369 0.1263
vn 0.9635 -0.2361 -0.1263
vn 0.9921 -0.0194 -0.1240
vn -0.9607 -0.2533 -0.1137
vn -0.7487 -0.6567 -0.0904
vn -0.9686 -0.2218 0.1124
vn -0.9916 -0.0192 0.1275
vn -0.7899 -0.6058 0.0951
vn 0.9685 -0.2217 0.1136
vn 0.7897 -0.6060 0.0955
vn 0.9819 -0.1888 0.0178
vn 0.9608 -0.2528 -0.1139
vn 0.7486 -0.6568 -0.0907
vn -0.3615 -0.9308 0.0542
vn 0.3350 -0.9410 -0.0482
vn -0.3069 -0.0213 0.9515
vn -0.7069 -0.0269 0.7068
vn -0.3083 -0.0241 0.9510
vn -0.9317 -0.0242 -0.3623
vn -0.9324 -0.0259 -0.3605
vn -0.7070 -0.0273 -0.7067
vn -0.7066 -0.0267 -0.7071
vn 0.3080 -0.0241 -0.9511
vn 0.3053 -0.0222 -0.9520
vn 0.9318 -0.0249 0.3622
vn 0.9325 -0.0237 0.3604
vn -0.0705 -0.9956 -0.0622
vn -0.3554 -0.9263 0.1252
vn -0.2544 -0.9333 0.2532
vn -0.0620 -0.9961 0.0631
vn -0.5126 -0.6888 0.5126
vn -0.6959 -0.6667 0.2671
vn -0.3760 -0.9258 0.0394
vn -0.1014 -0.9188 -0.3815
vn -0.2540 -0.9334 -0.2535
vn -0.5126 -0.6888 -0.5126
vn -0.2265 -0.6536 -0.7221
vn -0.0182 -0.9005 -0.4344
vn 0.3551 -0.9264 -0.1251
vn 0.2540 -0.9335 -0.2531
vn 0.0624 -0.9961 -0.0623
vn 0.5126 -0.6889 -0.5126
vn 0.6959 -0.6667 -0.2671
vn 0.3761 -0.9256 -0.0431
vn 0.1013 -0.9183 0.3827
vn 0.2521 -0.9336 0.2548
vn 0.0645 -0.9958 0.0650
vn 0.5126 -0.6888 0.5126
vn 0.2265 -0.6536 0.7221
vn 0.0161 -0.9189 0.3943
vn -0.8959 -0.2651 0.3564
vn -0.6788 -0.2800 0.6788
vn -0.9324 -0.0228 0.3607
vn -0.3079 -0.2585 -0.9156
vn -0.6788 -0.2800 -0.6789
vn -0.3082 -0.0241 -0.9510
vn 0.8959 -0.2652 -0.3564
vn 0.6788 -0.2800 -0.6788
vn 0.7019 -0.0278 -0.7117
vn 0.9315 -0.0249 -0.3628
vn 0.3078 -0.2585 0.9157
vn 0.6788 -0.2801 0.6788
vn 0.7069 -0.0275 0.7068
vn 0.3081 -0.0240 0.9510
vn -0.9041 -0.2626 0.3372
vn -0.9325 -0.0237 0.3603
vn -0.6770 -0.3001 0.6720
vn -0.7095 -0.0297 0.7041
vn -0.4879 -0.7255 0.4854
vn -0.6907 -0.6742 0.2614
vn -0.2780 -0.2475 -0.9281
vn -0.3055 -0.0236 -0.9519
vn -0.6718 -0.2978 -0.6782
vn -0.4871 -0.7227 -0.4903
vn -0.2194 -0.6530 -0.7249
vn 0.8966 -0.2845 -0.3393
vn 0.9322 -0.0266 -0.3610
vn 0.6713 -0.2978 -0.6787
vn 0.7091 -0.0251 -0.7047
vn 0.4871 -0.7227 -0.4904
vn 0.6637 -0.7038 -0.2532
vn 0.2823 -0.2804 0.9175
vn 0.3061 -0.0246 0.9517
vn 0.6770 -0.3002 0.6720
vn 0.7063 -0.0243 0.7075
vn 0.4879 -0.7255 0.4855
vn 0.2121 -0.7001 0.6818
vn -0.2866 -0.9509 0.1166
vn -0.1865 -0.9629 0.1948
vn -0.0279 -0.9994 0.0196
vn -0.1074 -0.9473 -0.3017
vn -0.1953 -0.9606 -0.1978
vn -0.0314 -0.9993 -0.0203
vn -0.0174 -0.9988 -0.0457
vn 0.2800 -0.9539 -0.1080
vn 0.1966 -0.9603 -0.1979
vn 0.0325 -0.9992 -0.0217
vn 0.0936 -0.9588 0.2680
vn 0.1854 -0.9635 0.1931
vn 0.0270 -0.9995 0.0174
vn 0.0126 -0.9993 0.0341
vn -0.1020 -0.9186 0.3817
vn -0.0191 -0.9966 0.0799
vn -0.2265 -0.6537 0.7221
vn -0.3563 -0.9258 -0.1259
vn -0.6960 -0.6667 -0.2668
vn 0.1017 -0.9187 -0.3817
vn 0.2265 -0.6537 -0.7221
vn 0.3554 -0.9263 0.1251
vn 0.0695 -0.9973 0.0248
vn 0.6960 -0.6666 0.2669
vn -0.3078 -0.2586 0.9156
vn -0.8960 -0.2651 -0.3562
vn 0.3077 -0.2584 -0.9157
vn 0.8960 -0.2651 0.3562
vn -0.2823 -0.2804 0.9174
vn -0.2121 -0.7002 0.6818
vn -0.8968 -0.2842 -0.3392
vn -0.6639 -0.7037 -0.2529
vn 0.2779 -0.2475 -0.9282
vn 0.2193 -0.6529 -0.7250
vn 0.9041 -0.2626 0.3370
vn 0.6908 -0.6742 0.2612
vn -0.0969 -0.9599 0.2631
vn -0.0204 -0.9295 0.3682
vn -0.2807 -0.9535 -0.1096
vn -0.3557 -0.9333 -0.0493
vn 0.1067 -0.9474 -0.3018
vn 0.0313 -0.8853 -0.4640
vn 0.0176 -0.9988 -0.0455
vn 0.2872 -0.9506 0.1178
vn 0.3913 -0.9187 0.0538
vn -0.9998 -0.0195 0.0080
vn -0.9983 -0.0010 0.0589
vn -1.0000 -0.0011 0.0074
vn 0.0039 -0.0222 0.9997
vn 0.0397 -0.0013 0.9992
vn 0.0046 -0.0009 1.0000
vn 0.9982 -0.0026 -0.0591
vn 0.9998 -0.0200 -0.0057
vn 0.9980 -0.0221 -0.0592
vn 1.0000 -0.0033 -0.0071
vn 0.9983 -0.0000 -0.0589
vn 1.0000 -0.0001 -0.0074
vn -0.0041 -0.0038 -1.0000
vn -0.0402 -0.0008 -0.9992
vn -0.0052 -0.0000 -1.0000
vn -0.0053 -0.0216 0.9998
vn -0.0044 -0.0008 1.0000
vn -0.0401 -0.0023 0.9992
vn -0.0397 -0.0000 0.9992
vn 0.0061 -0.0166 -0.9998
vn -0.0055 -0.0175 -0.9998
vn 0.0055 -0.0040 -1.0000
vn 0.0054 -0.0004 -1.0000
vn 0.0395 -0.0149 -0.9991
vn 0.0403 -0.0008 -0.9992
vn -0.9997 -0.0213 -0.0082
vn -1.0000 -0.0007 -0.0075
vn -0.9982 -0.0022 -0.0593
vn -0.9983 -0.0000 -0.0586
vn 0.9997 -0.0213 0.0096
vn 1.0000 -0.0019 0.0081
vn 1.0000 -0.0006 0.0083
vn 0.9981 -0.0139 0.0600
vn 0.9983 -0.0010 0.0585
vn -0.9466 -0.0013 -0.3225
vn -0.7096 -0.0215 -0.7043
vn -0.9486 -0.0271 -0.3153
vn -0.9980 -0.0213 -0.0590
vn -0.9486 -0.0008 -0.3166
vn -0.7071 -0.0014 -0.7071
vn 0.3032 -0.0196 -0.9527
vn 0.3010 -0.0010 -0.9536
vn 0.7062 -0.0266 -0.7075
vn 0.7070 -0.0007 -0.7072
vn -0.3008 -0.0028 0.9537
vn -0.7056 -0.0274 0.7081
vn -0.3016 -0.0246 0.9531
vn -0.0404 -0.0213 0.9990
vn -0.3006 -0.0000 0.9538
vn -0.7099 -0.0021 0.7043
vn -0.7073 -0.0005 0.7069
vn 0.9472 -0.0009 0.3207
vn 0.7073 -0.0217 0.7065
vn 0.9483 -0.0246 0.3164
vn 0.9486 -0.0007 0.3163
vn 0.7074 -0.0009 0.7068
vn -0.3023 -0.0202 -0.9530
vn -0.3006 -0.0010 -0.9537
vn -0.0418 -0.0138 -0.9990
vn 0.9477 -0.0016 -0.3193
vn 0.9481 -0.0263 -0.3169
vn 0.9488 -0.0000 -0.3160
vn -0.9468 -0.0200 0.3211
vn -0.9487 -0.0011 0.3161
vn -0.9980 -0.0188 0.0602
vn 0.3043 -0.0014 0.9526
vn 0.0401 -0.0174 0.9990
vn 0.3014 -0.0267 0.9531
vn 0.3002 -0.0006 0.9539
vn -0.4051 -0.9143 -0.0036
vn -0.0761 -0.9971 -0.0030
vn -0.4169 -0.9088 0.0192
vn -0.7938 -0.6082 0.0025
vn -0.8112 -0.5828 0.0475
vn -0.0003 -0.9286 0.3710
vn -0.0035 -0.9981 0.0615
vn 0.0127 -0.9291 0.3697
vn 0.0012 -0.6447 0.7645
vn 0.0307 -0.6356 0.7714
vn 0.3316 -0.9434 0.0044
vn 0.0759 -0.9971 -0.0020
vn 0.3684 -0.9295 -0.0189
vn 0.7385 -0.6742 -0.0069
vn 0.7598 -0.6487 -0.0438
vn -0.0007 -0.9028 -0.4300
vn 0.0033 -0.9950 -0.0993
vn -0.0138 -0.8965 -0.4428
vn -0.0015 -0.5647 -0.8253
vn -0.0332 -0.5636 -0.8254
vn -0.0134 -0.6238 0.7814
vn -0.0075 -0.9289 0.3704
vn -0.0032 -0.9979 0.0650
vn -0.0306 -0.6357 0.7713
vn -0.0121 -0.9285 0.3710
vn 0.0017 -0.8992 -0.4374
vn 0.0147 -0.5592 -0.8289
vn 0.0041 -0.9949 -0.1005
vn 0.0332 -0.5635 -0.8254
vn 0.0138 -0.8962 -0.4435
vn -0.3472 -0.9378 -0.0004
vn -0.0749 -0.9972 -0.0041
vn -0.3717 -0.9283 -0.0011
vn -0.7599 -0.6486 -0.0436
vn -0.3708 -0.9285 -0.0178
vn 0.7666 -0.6421 -0.0007
vn 0.8118 -0.5839 0.0015
vn 0.4020 -0.9156 0.0028
vn 0.8112 -0.5828 0.0473
vn 0.4198 -0.9074 0.0183
vn -0.3488 -0.9320 -0.0981
vn -0.7036 -0.6727 -0.2290
vn -0.5128 -0.6862 -0.5159
vn -0.2408 -0.9371 -0.2528
vn 0.0964 -0.9095 -0.4044
vn 0.2268 -0.6276 -0.7448
vn 0.5128 -0.6862 -0.5159
vn 0.2411 -0.9372 -0.2520
vn 0.0189 -0.9963 -0.0836
vn 0.0626 -0.9977 -0.0275
vn -0.0932 -0.9315 0.3517
vn -0.2186 -0.6667 0.7126
vn -0.5150 -0.6871 0.5125
vn -0.2435 -0.9401 0.2384
vn -0.0158 -0.9980 0.0611
vn -0.0620 -0.9979 0.0202
vn 0.3823 -0.9185 0.1008
vn 0.0719 -0.9974 -0.0030
vn 0.7330 -0.6376 0.2370
vn 0.5150 -0.6872 0.5124
vn 0.2458 -0.9399 0.2371
vn 0.0700 -0.9974 0.0175
vn 0.0212 -0.9982 0.0561
vn -0.0969 -0.9101 -0.4028
vn -0.0548 -0.9980 -0.0305
vn -0.2269 -0.6277 -0.7447
vn -0.0193 -0.9963 -0.0838
vn 0.3483 -0.9317 -0.1028
vn 0.7034 -0.6728 -0.2294
vn -0.3875 -0.9169 0.0956
vn -0.7328 -0.6377 0.2373
vn 0.0970 -0.9310 0.3519
vn 0.2187 -0.6667 0.7125
vn -0.9733 -0.2293 -0.0008
vn -0.9755 -0.2112 0.0614
vn 0.0050 -0.2464 0.9692
vn 0.0409 -0.2410 0.9697
vn 0.9658 -0.2591 -0.0073
vn 0.9663 -0.2503 -0.0596
vn 0.9682 -0.2498 0.0138
vn 0.0024 -0.1973 -0.9803
vn -0.0418 -0.2001 -0.9789
vn -0.0051 -0.2439 0.9698
vn -0.0407 -0.2420 0.9694
vn 0.0104 -0.2043 -0.9788
vn 0.0421 -0.2005 -0.9788
vn -0.9656 -0.2598 -0.0125
vn -0.7552 -0.6554 -0.0101
vn -0.9663 -0.2505 -0.0595
vn 0.9758 -0.2178 0.0180
vn 0.9755 -0.2114 0.0613
vn -0.9112 -0.2692 -0.3118
vn -0.6818 -0.2774 -0.6770
vn 0.3064 -0.2432 -0.9203
vn 0.6818 -0.2778 -0.6768
vn -0.2989 -0.2660 0.9165
vn -0.6773 -0.2784 0.6810
vn 0.9147 -0.2484 0.3189
vn 0.6774 -0.2781 0.6810
vn -0.3066 -0.2429 -0.9203
vn 0.9111 -0.2695 -0.3118
vn -0.9147 -0.2483 0.3189
vn 0.2988 -0.2659 0.9165
vn -0.0019 -1.0000 -0.0026
vn -0.0110 -0.9999 0.0086
vn -0.0113 -0.9999 -0.0045
vn 0.0001 -1.0000 0.0014
vn 0.0025 -1.0000 -0.0020
vn -0.0030 -0.9999 -0.0154
vn 0.0030 -0.9999 -0.0149
vn 0.0007 -1.0000 0.0024
vn 0.0114 -0.9999 -0.0044
vn 0.0096 -0.9999 0.0090
vt 0.582259 0.691480
vt 0.582259 0.722609
vt 0.582259 0.691476
vt 0.622575 0.685774
vt 0.584455 0.685774
vt 0.622576 0.685774
vt 0.624772 0.722583
vt 0.624772 0.691520
vt 0.624772 0.722582
vt 0.622576 0.728288
vt 0.622577 0.728288
vt 0.584455 0.728288
vt 0.582375 0.688325
vt 0.582280 0.723901
vt 0.582278 0.690265
vt 0.582624 0.686600
vt 0.582379 0.725808
vt 0.624395 0.686584
vt 0.583353 0.685943
vt 0.623664 0.685941
vt 0.624398 0.727495
vt 0.624652 0.688256
vt 0.624750 0.690001
vt 0.624752 0.723902
vt 0.582259 0.691502
vt 0.582259 0.722568
vt 0.582259 0.691493
vt 0.622576 0.685774
vt 0.584456 0.685774
vt 0.622575 0.685774
vt 0.624772 0.722552
vt 0.624772 0.691489
vt 0.624772 0.722572
vt 0.624772 0.691508
vt 0.584457 0.728288
vt 0.622576 0.728288
vt 0.584455 0.728288
vt 0.582259 0.722575
vt 0.582259 0.722582
vt 0.622576 0.685774
vt 0.584455 0.685774
vt 0.624772 0.722580
vt 0.624772 0.691480
vt 0.624772 0.691483
vt 0.584454 0.728288
vt 0.584455 0.728288
vt 0.622577 0.728288
vt 0.582259 0.691476
vt 0.582259 0.722583
vt 0.582259 0.691476
vt 0.582259 0.722568
vt 0.622577 0.685774
vt 0.584456 0.685774
vt 0.622576 0.685774
vt 0.584456 0.685774
vt 0.624772 0.691482
vt 0.624772 0.691574
vt 0.624772 0.722411
vt 0.584454 0.728288
vt 0.622578 0.728288
vt 0.584454 0.728288
vt 0.622576 0.728288
vt 0.582259 0.691334
vt 0.582280 0.723946
vt 0.582283 0.689839
vt 0.582259 0.722628
vt 0.622577 0.685774
vt 0.583326 0.685954
vt 0.623716 0.685961
vt 0.584454 0.685774
vt 0.624772 0.722401
vt 0.624750 0.690003
vt 0.624749 0.724208
vt 0.624772 0.691386
vt 0.584453 0.728288
vt 0.623687 0.728108
vt 0.582726 0.727573
vt 0.622579 0.728288
vt 0.623876 0.685981
vt 0.623876 0.685980
vt 0.583155 0.685980
vt 0.583155 0.685981
vt 0.623876 0.728082
vt 0.623815 0.728098
vt 0.583357 0.728120
vt 0.623875 0.685984
vt 0.623875 0.685982
vt 0.584456 0.685774
vt 0.583156 0.685982
vt 0.583156 0.728079
vt 0.583156 0.728080
vt 0.622576 0.728288
vt 0.623875 0.728080
vt 0.623876 0.685981
vt 0.583156 0.685981
vt 0.584455 0.685774
vt 0.583156 0.728081
vt 0.583155 0.728082
vt 0.623876 0.728081
vt 0.623876 0.685979
vt 0.583155 0.685979
vt 0.583155 0.728083
vt 0.583155 0.728082
vt 0.623876 0.728083
vt 0.583154 0.685978
vt 0.623877 0.728085
vt 0.582290 0.689469
vt 0.582290 0.689465
vt 0.624741 0.724594
vt 0.624741 0.724597
vt 0.624741 0.689465
vt 0.582291 0.689508
vt 0.582290 0.689487
vt 0.582259 0.722563
vt 0.582290 0.724575
vt 0.624741 0.724555
vt 0.624741 0.724575
vt 0.624741 0.689487
vt 0.582290 0.689475
vt 0.582259 0.691483
vt 0.582290 0.724588
vt 0.582290 0.724594
vt 0.624741 0.724588
vt 0.624741 0.689475
vt 0.624741 0.689469
vt 0.582290 0.689459
vt 0.582290 0.689448
vt 0.582290 0.724603
vt 0.582290 0.724597
vt 0.582290 0.724615
vt 0.624741 0.724603
vt 0.624741 0.724615
vt 0.624772 0.722587
vt 0.624741 0.689459
vt 0.624741 0.689448
vt 0.582290 0.724634
vt 0.624741 0.689429
vt 0.582638 0.727464
vt 0.582512 0.726639
vt 0.582638 0.727463
vt 0.582385 0.688249
vt 0.582385 0.688245
vt 0.582512 0.687424
vt 0.582512 0.687421
vt 0.624393 0.686599
vt 0.624393 0.686598
vt 0.624646 0.725814
vt 0.624646 0.725817
vt 0.582501 0.687391
vt 0.582385 0.725778
vt 0.582512 0.726615
vt 0.582501 0.726671
vt 0.582512 0.726627
vt 0.582385 0.725797
vt 0.582291 0.724555
vt 0.582639 0.686611
vt 0.582512 0.687448
vt 0.582512 0.687435
vt 0.582638 0.686605
vt 0.583156 0.685984
vt 0.624646 0.688284
vt 0.624519 0.687448
vt 0.624530 0.687391
vt 0.624519 0.687435
vt 0.624646 0.688265
vt 0.624741 0.689508
vt 0.624392 0.727451
vt 0.624519 0.726615
vt 0.624530 0.726671
vt 0.624519 0.726627
vt 0.624393 0.727458
vt 0.623875 0.728079
vt 0.582385 0.725808
vt 0.582512 0.726635
vt 0.582385 0.725814
vt 0.582638 0.686601
vt 0.582512 0.687428
vt 0.582638 0.686599
vt 0.624646 0.688254
vt 0.624520 0.687428
vt 0.624520 0.687424
vt 0.624646 0.688249
vt 0.624393 0.727461
vt 0.624520 0.726635
vt 0.624520 0.726639
vt 0.624393 0.727463
vt 0.582385 0.725823
vt 0.582385 0.725817
vt 0.582511 0.726645
vt 0.582512 0.726641
vt 0.582511 0.726652
vt 0.582385 0.725834
vt 0.582638 0.686596
vt 0.582638 0.686598
vt 0.582511 0.687418
vt 0.582511 0.687411
vt 0.582637 0.686593
vt 0.624646 0.688240
vt 0.624646 0.688245
vt 0.624520 0.687418
vt 0.624520 0.687421
vt 0.624520 0.687411
vt 0.624646 0.688229
vt 0.624393 0.727466
vt 0.624393 0.727464
vt 0.624520 0.726645
vt 0.624520 0.726641
vt 0.624520 0.726652
vt 0.624394 0.727470
vt 0.582385 0.725851
vt 0.582511 0.726663
vt 0.582446 0.726281
vt 0.582637 0.686587
vt 0.582511 0.687399
vt 0.582473 0.687608
vt 0.582635 0.686574
vt 0.624646 0.688211
vt 0.624520 0.687399
vt 0.624579 0.687744
vt 0.624394 0.727476
vt 0.624520 0.726663
vt 0.624564 0.726413
vt 0.624395 0.727488
vt 0.582639 0.727451
vt 0.582630 0.727477
vt 0.582638 0.727458
vt 0.582385 0.688284
vt 0.582385 0.688265
vt 0.624392 0.686611
vt 0.624393 0.686605
vt 0.624646 0.725778
vt 0.624654 0.725759
vt 0.624646 0.725797
vt 0.582638 0.727461
vt 0.582385 0.688254
vt 0.624393 0.686601
vt 0.624646 0.725808
vt 0.582638 0.727466
vt 0.582638 0.727470
vt 0.582385 0.688240
vt 0.582385 0.688229
vt 0.624394 0.686596
vt 0.624394 0.686593
vt 0.624646 0.725823
vt 0.624646 0.725834
vt 0.582637 0.727476
vt 0.583155 0.728085
vt 0.582385 0.688211
vt 0.582290 0.689429
vt 0.624394 0.686587
vt 0.623877 0.685978
vt 0.624396 0.686574
vt 0.624646 0.725851
vt 0.624741 0.724634
vt 0.582259 0.723509
vt 0.582285 0.726181
vt 0.582259 0.723555
vt 0.622622 0.728288
vt 0.623951 0.728204
vt 0.622623 0.728288
vt 0.624747 0.687882
vt 0.624772 0.690568
vt 0.624747 0.687884
vt 0.624772 0.690504
vt 0.624772 0.690503
vt 0.584408 0.685774
vt 0.583081 0.685858
vt 0.584409 0.685774
vt 0.584409 0.728288
vt 0.584407 0.728288
vt 0.583081 0.728204
vt 0.622622 0.685774
vt 0.584408 0.685774
vt 0.622623 0.685774
vt 0.622622 0.685774
vt 0.623950 0.685859
vt 0.623951 0.685858
vt 0.582259 0.690505
vt 0.582259 0.690510
vt 0.582285 0.687882
vt 0.624772 0.723548
vt 0.624772 0.723473
vt 0.624772 0.723562
vt 0.624747 0.726179
vt 0.624747 0.726181
vt 0.582362 0.686783
vt 0.582466 0.686449
vt 0.582362 0.686786
vt 0.582285 0.687884
vt 0.582466 0.686447
vt 0.624462 0.686111
vt 0.624566 0.686449
vt 0.624566 0.686447
vt 0.582569 0.727952
vt 0.582466 0.727614
vt 0.582569 0.727951
vt 0.582466 0.727615
vt 0.624669 0.727279
vt 0.624566 0.727614
vt 0.624669 0.727277
vt 0.624566 0.727615
vt 0.582569 0.686111
vt 0.583081 0.685859
vt 0.624669 0.686783
vt 0.624669 0.686786
vt 0.582362 0.727277
vt 0.582362 0.727279
vt 0.582285 0.726179
vt 0.624462 0.727952
vt 0.623950 0.728204
vt 0.624462 0.727951
vt 0.582259 0.723727
vt 0.582282 0.725885
vt 0.582285 0.726158
vt 0.582259 0.723533
vt 0.582285 0.726166
vt 0.622747 0.728288
vt 0.623808 0.728207
vt 0.623949 0.728202
vt 0.622607 0.728288
vt 0.623950 0.728203
vt 0.624772 0.690377
vt 0.624748 0.688128
vt 0.624746 0.687910
vt 0.624772 0.690554
vt 0.624747 0.687901
vt 0.584357 0.685774
vt 0.583197 0.685856
vt 0.583082 0.685861
vt 0.584344 0.685774
vt 0.583082 0.685860
vt 0.584408 0.728288
vt 0.584314 0.728288
vt 0.583189 0.728204
vt 0.583081 0.728203
vt 0.583082 0.728202
vt 0.622794 0.685774
vt 0.622762 0.685774
vt 0.623849 0.685859
vt 0.623950 0.685860
vt 0.623949 0.685861
vt 0.582259 0.697076
vt 0.582284 0.688082
vt 0.582259 0.690521
vt 0.582285 0.687901
vt 0.582285 0.687910
vt 0.624772 0.707031
vt 0.624772 0.723526
vt 0.624772 0.723679
vt 0.624747 0.726166
vt 0.624746 0.726158
vt 0.582363 0.686810
vt 0.582362 0.686801
vt 0.582466 0.686459
vt 0.582466 0.686465
vt 0.624461 0.686120
vt 0.624461 0.686117
vt 0.624565 0.686459
vt 0.624565 0.686465
vt 0.624460 0.686129
vt 0.624624 0.686687
vt 0.582570 0.727945
vt 0.582570 0.727947
vt 0.582466 0.727606
vt 0.582466 0.727601
vt 0.582571 0.727936
vt 0.582401 0.727358
vt 0.624669 0.727258
vt 0.624748 0.725924
vt 0.624669 0.727265
vt 0.624565 0.727606
vt 0.624565 0.727601
vt 0.624668 0.727231
vt 0.624500 0.727800
vt 0.582570 0.686120
vt 0.582425 0.686627
vt 0.582570 0.686117
vt 0.582572 0.686129
vt 0.624669 0.686810
vt 0.624669 0.686801
vt 0.582363 0.727258
vt 0.582362 0.727265
vt 0.624461 0.727945
vt 0.624462 0.727947
vt 0.582259 0.723497
vt 0.582285 0.726173
vt 0.622622 0.728288
vt 0.624772 0.690509
vt 0.624747 0.687891
vt 0.624772 0.696522
vt 0.584430 0.685774
vt 0.584408 0.728288
vt 0.622621 0.685774
vt 0.623950 0.685859
vt 0.582259 0.690497
vt 0.582259 0.690453
vt 0.582285 0.687891
vt 0.624772 0.723678
vt 0.624747 0.726173
vt 0.582362 0.686792
vt 0.582466 0.686453
vt 0.624462 0.686114
vt 0.624565 0.686453
vt 0.582569 0.727949
vt 0.582466 0.727611
vt 0.624669 0.727272
vt 0.624565 0.727611
vt 0.582569 0.686114
vt 0.624669 0.686792
vt 0.582362 0.727272
vt 0.624462 0.727949
vt 0.582536 0.687615
vt 0.582501 0.727453
vt 0.582407 0.686880
vt 0.582533 0.726611
vt 0.624466 0.687406
vt 0.582677 0.686119
vt 0.624380 0.686131
vt 0.624510 0.726409
vt 0.624636 0.686949
vt 0.624521 0.727468
s 1
f 55/1/1 50/2/2 51/3/3
f 32/4/4 27/5/5 28/6/6
f 57/7/7 52/8/8 53/9/9
f 183/10/10 29/11/11 30/12/12
f 184/13/13 77/14/14 9/15/15
f 184/13/13 203/16/16 66/17/17
f 7/18/18 78/19/19 10/20/20
f 7/18/18 186/21/21 66/17/17
f 185/22/22 79/23/23 11/24/24
f 187/25/25 58/26/26 59/27/27
f 187/25/25 9/15/15 77/14/14
f 188/28/28 34/29/29 35/30/30
f 188/28/28 10/20/20 78/19/19
f 189/31/31 60/32/32 61/33/33
f 213/34/34 11/24/24 79/23/23
f 190/35/35 36/36/36 37/37/37
f 191/38/38 54/39/39 55/1/1
f 191/38/38 59/27/27 58/26/26
f 192/40/40 31/41/41 32/4/4
f 192/40/40 35/30/30 34/29/29
f 193/42/42 56/43/43 57/7/7
f 215/44/44 61/33/33 60/32/32
f 207/45/45 183/10/10 33/46/46
f 194/47/47 37/37/37 36/36/36
f 216/48/48 62/49/49 63/50/50
f 195/51/51 51/3/3 50/2/2
f 196/52/52 42/53/53 43/54/54
f 208/55/55 28/6/6 27/5/5
f 197/56/56 64/57/57 65/58/58
f 197/56/56 53/9/9 52/8/8
f 209/59/59 44/60/60 45/61/61
f 198/62/62 30/12/12 29/11/11
f 218/63/63 1/64/64 71/65/65
f 199/66/66 63/50/50 62/49/49
f 200/67/67 38/68/68 39/69/69
f 210/70/70 43/54/54 42/53/53
f 201/71/71 2/72/72 72/73/73
f 219/74/74 65/58/58 64/57/57
f 211/75/75 40/76/76 41/77/77
f 202/78/78 45/61/61 44/60/60
f 5/79/79 28/6/6 18/80/80
f 86/81/81 31/41/41 74/82/82
f 31/41/41 86/81/81 27/5/5
f 183/10/10 88/83/83 29/11/11
f 7/18/18 185/22/22 186/21/21
f 186/21/21 80/84/84 8/85/85
f 347/86/86 35/30/30 83/87/87
f 204/88/88 13/89/89 34/29/29
f 345/90/90 37/37/37 81/91/91
f 205/92/92 8/85/85 80/84/84
f 205/92/92 15/93/93 36/36/36
f 351/94/94 32/4/4 5/79/79
f 192/40/40 83/87/87 35/30/30
f 318/95/95 34/29/29 13/89/89
f 206/96/96 74/82/82 31/41/41
f 349/97/97 33/46/46 3/98/98
f 207/45/45 81/91/91 37/37/37
f 320/99/99 36/36/36 15/93/93
f 194/47/47 76/83/100 183/10/10
f 355/80/101 43/54/54 91/100/102
f 196/52/52 18/80/80 28/6/6
f 322/81/103 27/5/5 86/81/81
f 208/55/55 21/101/104 42/53/53
f 353/102/105 45/61/61 89/102/106
f 209/59/59 16/103/107 30/12/12
f 324/104/108 29/11/11 88/83/83
f 198/62/62 23/104/109 44/60/60
f 200/67/67 91/100/102 43/54/54
f 326/105/110 42/53/53 21/101/104
f 211/75/75 89/102/106 45/61/61
f 328/106/111 44/60/60 23/104/109
f 4/107/112 51/3/3 17/108/113
f 6/109/114 53/9/9 19/110/115
f 56/43/43 87/111/116 52/8/8
f 346/112/117 59/27/27 82/113/118
f 212/114/119 12/115/120 58/26/26
f 348/116/121 61/33/33 84/117/122
f 213/34/34 14/118/123 60/32/32
f 350/119/124 55/1/1 4/107/112
f 214/120/125 82/113/118 59/27/27
f 317/121/126 58/26/26 12/115/120
f 191/38/38 73/122/127 54/39/39
f 352/123/128 57/7/7 6/109/114
f 193/42/42 84/117/122 61/33/33
f 319/124/129 60/32/32 14/118/123
f 215/44/44 75/125/130 56/43/43
f 354/126/131 63/50/50 90/127/132
f 216/48/48 17/108/113 51/3/3
f 321/128/133 50/2/2 85/129/134
f 195/51/51 20/130/135 62/49/49
f 356/131/136 65/58/58 92/132/137
f 217/133/138 19/110/115 53/9/9
f 323/134/139 52/8/8 87/111/116
f 197/56/56 22/135/140 64/57/57
f 218/63/63 90/127/132 63/50/50
f 325/136/141 62/49/49 20/130/135
f 201/71/71 92/132/137 65/58/58
f 327/137/142 64/57/57 22/135/140
f 220/138/143 101/139/144 364/140/145
f 16/103/107 364/140/145 3/98/98
f 221/141/146 17/108/113 369/142/147
f 102/143/148 369/142/147 115/144/149
f 222/145/150 18/80/80 370/146/151
f 223/147/152 19/110/115 371/148/153
f 203/16/16 184/13/13 107/149/154
f 225/150/155 77/14/14 66/17/17
f 376/151/156 66/17/17 106/152/157
f 225/150/155 110/153/158 365/154/159
f 313/155/160 365/154/159 12/115/120
f 226/156/161 78/19/19 203/16/16
f 377/157/162 203/16/16 107/149/154
f 226/156/161 111/158/163 366/159/164
f 314/160/165 366/159/164 13/89/89
f 227/161/166 79/23/23 185/22/22
f 378/162/167 185/22/22 108/163/168
f 227/161/166 112/164/169 367/165/170
f 315/166/171 367/165/170 14/118/123
f 228/167/172 80/84/84 186/21/21
f 379/168/173 186/21/21 109/169/174
f 228/167/172 113/170/175 368/171/176
f 316/172/177 368/171/176 15/93/93
f 229/173/178 12/115/120 365/154/159
f 380/174/179 365/154/159 110/153/158
f 229/173/178 101/139/144 241/175/180
f 317/121/126 241/175/180 73/122/127
f 230/176/181 13/89/89 366/159/164
f 381/177/182 366/159/164 111/158/163
f 230/176/181 102/143/148 333/178/183
f 318/95/95 333/178/183 74/82/82
f 231/179/184 14/118/123 367/165/170
f 382/180/185 367/165/170 112/164/169
f 231/179/184 103/181/186 334/182/187
f 319/124/129 334/182/187 75/125/130
f 232/183/188 15/93/93 368/171/176
f 383/184/189 368/171/176 113/170/175
f 232/183/188 104/185/190 335/186/191
f 320/99/99 335/186/191 76/83/100
f 233/187/192 85/129/134 340/188/193
f 384/189/194 340/188/193 114/190/195
f 233/187/192 118/191/196 372/192/197
f 321/128/133 372/192/197 20/130/135
f 234/193/198 86/81/81 242/194/199
f 385/195/200 242/194/199 115/144/149
f 234/193/198 119/196/201 373/197/202
f 322/81/103 373/197/202 21/101/104
f 235/198/203 87/111/116 243/199/204
f 386/200/205 243/199/204 116/201/206
f 235/198/203 120/202/207 374/203/208
f 323/134/139 374/203/208 22/135/140
f 236/204/209 88/83/83 244/205/210
f 387/206/211 244/205/210 117/207/212
f 236/204/209 121/208/213 375/209/214
f 324/104/108 375/209/214 23/104/109
f 237/210/215 20/130/135 372/192/197
f 388/211/216 372/192/197 118/191/196
f 325/136/141 97/212/217 1/64/64
f 238/213/218 21/101/104 373/197/202
f 389/214/219 373/197/202 119/196/201
f 238/213/218 98/215/220 362/216/221
f 326/105/110 362/216/221 38/68/68
f 239/217/222 22/135/140 374/203/208
f 390/218/223 374/203/208 120/202/207
f 327/137/142 99/219/224 2/72/72
f 240/220/225 23/104/109 375/209/214
f 391/221/226 375/209/214 121/208/213
f 240/220/225 100/222/227 363/223/228
f 328/106/111 363/223/228 40/76/76
f 241/175/180 114/190/195 340/188/193
f 73/122/127 340/188/193 85/129/134
f 114/190/195 241/175/180 101/139/144
f 242/194/199 74/82/82 333/178/183
f 75/125/130 243/199/204 87/111/116
f 243/199/204 75/125/130 334/182/187
f 116/201/206 334/182/187 103/181/186
f 76/83/100 244/205/210 88/83/83
f 244/205/210 76/83/100 335/186/191
f 117/207/212 335/186/191 104/185/190
f 245/224/229 106/152/157 105/225/230
f 345/90/90 105/225/230 8/85/85
f 245/224/229 81/91/91 336/226/231
f 376/151/156 336/226/231 110/153/158
f 246/227/232 107/149/154 184/13/13
f 346/112/117 184/13/13 9/15/15
f 246/227/232 82/113/118 337/228/233
f 377/157/162 337/228/233 111/158/163
f 247/229/234 108/163/168 7/18/18
f 347/86/86 7/18/18 10/20/20
f 247/229/234 83/87/87 338/230/235
f 378/162/167 338/230/235 112/164/169
f 248/231/236 109/169/174 224/232/237
f 348/116/121 224/232/237 11/24/24
f 248/231/236 84/117/122 339/233/238
f 379/168/173 339/233/238 113/170/175
f 249/234/239 110/153/158 336/226/231
f 349/97/97 336/226/231 81/91/91
f 249/234/239 3/98/98 364/140/145
f 380/174/179 364/140/145 101/139/144
f 250/235/240 111/158/163 337/228/233
f 350/119/124 337/228/233 82/113/118
f 250/235/240 4/107/112 221/141/146
f 381/177/182 221/141/146 102/143/148
f 251/236/241 112/164/169 338/230/235
f 351/94/94 338/230/235 83/87/87
f 251/236/241 5/79/79 222/145/150
f 382/180/185 222/145/150 103/181/186
f 252/237/242 113/170/175 339/233/238
f 352/123/128 339/233/238 84/117/122
f 252/237/242 6/109/114 223/147/152
f 383/184/189 223/147/152 104/185/190
f 253/238/243 114/190/195 220/138/143
f 353/102/105 220/138/143 16/103/107
f 253/238/243 89/102/106 341/239/244
f 384/189/194 341/239/244 118/191/196
f 254/240/245 115/144/149 369/142/147
f 354/126/131 369/142/147 17/108/113
f 254/240/245 90/127/132 342/241/246
f 385/195/200 342/241/246 119/196/201
f 255/242/247 116/201/206 370/146/151
f 355/80/101 370/146/151 18/80/80
f 255/242/247 91/100/102 343/243/248
f 386/200/205 343/243/248 120/202/207
f 256/244/249 117/207/212 371/148/153
f 356/131/136 371/148/153 19/110/115
f 256/244/249 92/132/137 344/245/250
f 387/206/211 344/245/250 121/208/213
f 257/246/251 118/191/196 341/239/244
f 357/247/252 341/239/244 89/102/106
f 388/211/216 41/77/77 97/212/217
f 258/248/253 119/196/201 342/241/246
f 358/249/254 342/241/246 90/127/132
f 258/248/253 71/65/65 98/215/220
f 259/250/255 120/202/207 343/243/248
f 359/251/256 343/243/248 91/100/102
f 259/250/255 39/69/69 332/252/257
f 390/218/223 332/252/257 99/219/224
f 260/253/258 121/208/213 344/245/250
f 360/254/259 344/245/250 92/132/137
f 260/253/258 72/73/73 100/222/227
f 46/255/260 124/256/261 130/257/262
f 263/258/263 125/259/264 126/260/265
f 392/261/266 48/262/267 143/263/268
f 261/264/269 123/261/270 132/265/271
f 262/266/272 122/267/273 128/268/274
f 24/269/275 126/260/265 127/270/276
f 394/271/277 127/270/276 136/271/278
f 262/266/272 26/272/279 25/273/280
f 264/274/281 128/268/274 129/275/282
f 264/274/281 68/276/283 26/272/279
f 68/276/283 129/275/282 135/277/284
f 47/278/285 130/257/262 131/279/286
f 393/280/287 131/279/286 134/280/288
f 261/264/269 49/281/289 48/262/267
f 265/282/290 132/265/271 133/283/291
f 265/282/290 70/284/292 49/281/289
f 70/284/292 133/283/291 137/285/293
f 266/286/294 154/287/295 416/288/296
f 393/280/287 416/288/296 67/289/297
f 266/286/294 134/280/288 396/286/298
f 154/287/295 396/286/298 138/290/299
f 267/291/300 135/277/284 397/291/301
f 155/292/302 397/291/301 139/293/303
f 268/294/304 156/295/305 417/296/306
f 394/271/277 417/296/306 69/271/307
f 268/294/304 136/271/278 398/294/308
f 395/297/309 398/294/308 140/297/310
f 269/298/311 157/299/312 418/300/313
f 269/298/311 137/285/293 399/298/314
f 157/299/312 399/298/314 141/301/315
f 270/302/316 138/290/299 400/302/317
f 142/303/318 400/302/317 122/267/273
f 271/304/319 143/263/268 419/305/320
f 271/304/319 139/293/303 401/304/321
f 392/261/266 401/304/321 123/261/270
f 395/297/309 272/306/322 156/295/305
f 272/306/322 140/297/310 402/307/323
f 144/308/324 402/307/323 124/256/261
f 273/309/325 145/310/326 420/311/327
f 273/309/325 141/301/315 403/309/328
f 145/310/326 403/309/328 125/259/264
f 274/312/329 150/313/330 423/314/331
f 166/315/332 423/314/331 160/316/333
f 277/317/334 146/318/335 424/319/336
f 162/320/337 424/319/336 161/321/338
f 275/322/339 152/323/340 422/324/341
f 168/325/342 422/324/341 159/326/343
f 276/327/344 148/328/345 421/329/346
f 164/330/347 421/329/346 158/331/348
f 277/317/334 163/332/349 278/333/350
f 146/318/335 278/333/350 147/334/351
f 278/333/350 172/335/352 410/336/353
f 279/337/354 148/328/345 276/327/344
f 165/338/355 276/327/344 164/330/347
f 148/328/345 279/337/354 149/339/356
f 279/337/354 171/340/357 409/341/358
f 280/342/359 150/313/330 274/312/329
f 150/313/330 280/342/359 151/343/360
f 281/344/361 151/343/360 280/342/359
f 281/344/361 170/345/362 408/346/363
f 433/347/364 275/322/339 168/325/342
f 275/322/339 169/348/365 282/349/366
f 282/349/366 173/350/367 411/351/368
f 283/352/369 151/343/360 408/346/363
f 434/353/370 408/346/363 170/345/362
f 283/352/369 174/354/371 429/355/372
f 284/356/373 149/339/356 409/341/358
f 435/357/374 409/341/358 171/340/357
f 284/356/373 175/358/375 430/359/376
f 329/360/377 430/359/376 94/361/378
f 285/362/379 147/334/351 410/336/353
f 436/363/380 410/336/353 172/335/352
f 285/362/379 176/364/381 431/365/382
f 330/366/383 431/365/382 95/367/384
f 286/368/385 153/369/386 411/351/368
f 437/370/387 411/351/368 173/350/367
f 286/368/385 177/371/388 432/372/389
f 331/373/390 432/372/389 96/374/391
f 287/375/392 93/376/393 429/355/372
f 438/377/394 429/355/372 174/354/371
f 287/375/392 158/331/348 421/329/346
f 361/378/395 421/329/346 148/328/345
f 288/379/396 94/361/378 430/359/376
f 439/380/397 430/359/376 175/358/375
f 288/379/396 159/326/343 422/324/341
f 94/361/378 422/324/341 152/323/340
f 289/381/398 95/367/384 431/365/382
f 440/382/399 431/365/382 176/364/381
f 289/381/398 160/316/333 423/314/331
f 95/367/384 423/314/331 150/313/330
f 290/383/400 96/374/391 432/372/389
f 441/384/401 432/372/389 177/371/388
f 290/383/400 161/321/338 424/319/336
f 96/374/391 424/319/336 146/318/335
f 296/385/402 160/316/333 406/386/403
f 46/255/260 406/386/403 144/308/324
f 292/387/404 161/321/338 407/321/405
f 263/258/263 407/321/405 145/310/326
f 291/388/406 159/326/343 405/389/407
f 48/262/267 405/389/407 143/263/268
f 291/388/406 48/262/267 298/390/408
f 294/391/409 158/331/348 404/303/410
f 25/273/280 404/303/410 142/303/318
f 292/387/404 24/269/275 293/392/411
f 162/320/337 293/392/411 163/332/349
f 293/392/411 69/271/307 427/335/412
f 163/332/349 427/335/412 172/335/352
f 26/272/279 294/391/409 25/273/280
f 294/391/409 26/272/279 295/393/413
f 295/393/413 68/276/283 426/394/414
f 165/338/355 426/394/414 171/340/357
f 296/385/402 47/278/285 297/395/415
f 166/315/332 297/395/415 167/396/416
f 297/395/415 67/289/297 425/397/417
f 167/396/416 425/397/417 170/345/362
f 49/281/289 298/390/408 48/262/267
f 298/390/408 49/281/289 299/398/418
f 433/347/364 299/398/418 169/348/365
f 299/398/418 70/284/292 428/399/419
f 169/348/365 428/399/419 173/350/367
f 300/400/420 170/345/362 425/397/417
f 416/288/296 425/397/417 67/289/297
f 300/400/420 154/287/295 412/401/421
f 434/353/370 412/401/421 174/354/371
f 301/402/422 171/340/357 426/394/414
f 267/291/300 426/394/414 68/276/283
f 301/402/422 155/292/302 413/403/423
f 435/357/374 413/403/423 175/358/375
f 302/404/424 172/335/352 427/335/412
f 417/296/306 427/335/412 69/271/307
f 302/404/424 156/295/305 414/405/425
f 436/363/380 414/405/425 176/364/381
f 303/406/426 173/350/367 428/399/419
f 418/300/313 428/399/419 70/284/292
f 303/406/426 157/299/312 415/407/427
f 437/370/387 415/407/427 177/371/388
f 304/408/428 174/354/371 412/401/421
f 270/302/316 412/401/421 154/287/295
f 304/408/428 142/303/318 404/303/410
f 438/377/394 404/303/410 158/331/348
f 305/409/429 175/358/375 413/403/423
f 419/305/320 413/403/423 155/292/302
f 305/409/429 143/263/268 405/389/407
f 439/380/397 405/389/407 159/326/343
f 306/410/430 176/364/381 414/405/425
f 272/306/322 414/405/425 156/295/305
f 306/410/430 144/308/324 406/386/403
f 440/382/399 406/386/403 160/316/333
f 307/411/431 177/371/388 415/407/427
f 420/311/327 415/407/427 157/299/312
f 307/411/431 145/310/326 407/321/405
f 441/384/401 407/321/405 161/321/338
f 1/64/64 179/412/432 71/65/65
f 180/413/433 151/343/360 312/414/434
f 182/415/435 312/414/434 179/412/432
f 178/416/436 38/68/68 179/412/432
f 308/417/437 149/339/356 311/418/438
f 2/72/72 181/419/439 72/73/73
f 309/420/440 181/419/439 178/416/436
f 153/369/386 309/420/440 152/323/340
f 309/420/440 153/369/386 310/421/441
f 309/420/440 310/421/441 181/419/439
f 181/419/439 180/413/433 182/415/435
f 40/76/76 182/415/435 41/77/77
f 310/421/441 147/334/351 180/413/433
f 311/418/438 309/420/440 178/416/436
f 41/77/77 182/415/435 97/212/217
f 330/366/383 180/413/433 147/334/351
f 93/376/393 312/414/434 151/343/360
f 332/252/257 178/416/436 99/219/224
f 329/360/377 311/418/438 149/339/356
f 311/418/438 94/361/378 309/420/440
f 331/373/390 310/421/441 153/369/386
f 97/212/217 182/415/435 1/64/64
f 362/216/221 179/412/432 38/68/68
f 361/378/395 312/414/434 93/376/393
f 99/219/224 178/416/436 2/72/72
f 363/223/228 181/419/439 40/76/76
f 54/39/39 50/2/2 55/1/1
f 32/4/4 31/41/41 27/5/5
f 56/43/43 52/8/8 57/7/7
f 33/46/46 183/10/10 30/12/12
f 184/13/13 66/17/17 77/14/14
f 224/232/237 185/22/22 11/24/24
f 187/25/25 212/114/119 58/26/26
f 212/114/119 187/25/25 77/14/14
f 188/28/28 204/88/88 34/29/29
f 204/88/88 188/28/28 78/19/19
f 189/31/31 213/34/34 60/32/32
f 213/34/34 189/31/31 11/24/24
f 190/35/35 205/92/92 36/36/36
f 205/92/92 190/35/35 8/85/85
f 214/120/125 191/38/38 55/1/1
f 191/38/38 214/120/125 59/27/27
f 192/40/40 206/96/96 31/41/41
f 206/96/96 192/40/40 34/29/29
f 193/42/42 215/44/44 56/43/43
f 215/44/44 193/42/42 61/33/33
f 207/45/45 194/47/47 183/10/10
f 194/47/47 207/45/45 37/37/37
f 216/48/48 195/51/51 62/49/49
f 195/51/51 216/48/48 51/3/3
f 196/52/52 208/55/55 42/53/53
f 208/55/55 196/52/52 28/6/6
f 217/133/138 197/56/56 65/58/58
f 197/56/56 217/133/138 53/9/9
f 209/59/59 198/62/62 44/60/60
f 198/62/62 209/59/59 30/12/12
f 218/63/63 199/66/66 1/64/64
f 199/66/66 218/63/63 63/50/50
f 200/67/67 210/70/70 38/68/68
f 210/70/70 200/67/67 43/54/54
f 201/71/71 219/74/74 2/72/72
f 219/74/74 201/71/71 65/58/58
f 211/75/75 202/78/78 40/76/76
f 202/78/78 211/75/75 45/61/61
f 185/22/22 224/232/237 186/21/21
f 5/79/79 32/4/4 28/6/6
f 16/103/107 33/46/46 30/12/12
f 33/46/46 16/103/107 3/98/98
f 183/10/10 76/83/100 88/83/83
f 203/16/16 7/18/18 66/17/17
f 7/18/18 203/16/16 78/19/19
f 105/225/230 186/21/21 8/85/85
f 186/21/21 105/225/230 66/17/17
f 347/86/86 188/28/28 35/30/30
f 188/28/28 347/86/86 10/20/20
f 314/160/165 204/88/88 78/19/19
f 204/88/88 314/160/165 13/89/89
f 345/90/90 190/35/35 37/37/37
f 190/35/35 345/90/90 8/85/85
f 316/172/177 205/92/92 80/84/84
f 205/92/92 316/172/177 15/93/93
f 351/94/94 192/40/40 32/4/4
f 192/40/40 351/94/94 83/87/87
f 318/95/95 206/96/96 34/29/29
f 206/96/96 318/95/95 74/82/82
f 349/97/97 207/45/45 33/46/46
f 207/45/45 349/97/97 81/91/91
f 320/99/99 194/47/47 36/36/36
f 194/47/47 320/99/99 76/83/100
f 355/80/101 196/52/52 43/54/54
f 196/52/52 355/80/101 18/80/80
f 322/81/103 208/55/55 27/5/5
f 208/55/55 322/81/103 21/101/104
f 353/102/105 209/59/59 45/61/61
f 209/59/59 353/102/105 16/103/107
f 324/104/108 198/62/62 29/11/11
f 198/62/62 324/104/108 23/104/109
f 359/251/256 200/67/67 39/69/69
f 200/67/67 359/251/256 91/100/102
f 326/105/110 210/70/70 42/53/53
f 210/70/70 326/105/110 38/68/68
f 357/247/252 211/75/75 41/77/77
f 211/75/75 357/247/252 89/102/106
f 328/106/111 202/78/78 44/60/60
f 202/78/78 328/106/111 40/76/76
f 4/107/112 55/1/1 51/3/3
f 73/122/127 50/2/2 54/39/39
f 50/2/2 73/122/127 85/129/134
f 6/109/114 57/7/7 53/9/9
f 56/43/43 75/125/130 87/111/116
f 346/112/117 187/25/25 59/27/27
f 187/25/25 346/112/117 9/15/15
f 313/155/160 212/114/119 77/14/14
f 212/114/119 313/155/160 12/115/120
f 348/116/121 189/31/31 61/33/33
f 189/31/31 348/116/121 11/24/24
f 315/166/171 213/34/34 79/23/23
f 213/34/34 315/166/171 14/118/123
f 350/119/124 214/120/125 55/1/1
f 214/120/125 350/119/124 82/113/118
f 317/121/126 191/38/38 58/26/26
f 191/38/38 317/121/126 73/122/127
f 352/123/128 193/42/42 57/7/7
f 193/42/42 352/123/128 84/117/122
f 319/124/129 215/44/44 60/32/32
f 215/44/44 319/124/129 75/125/130
f 354/126/131 216/48/48 63/50/50
f 216/48/48 354/126/131 17/108/113
f 321/128/133 195/51/51 50/2/2
f 195/51/51 321/128/133 20/130/135
f 356/131/136 217/133/138 65/58/58
f 217/133/138 356/131/136 19/110/115
f 323/134/139 197/56/56 52/8/8
f 197/56/56 323/134/139 22/135/140
f 358/249/254 218/63/63 71/65/65
f 218/63/63 358/249/254 90/127/132
f 325/136/141 199/66/66 62/49/49
f 199/66/66 325/136/141 1/64/64
f 360/254/259 201/71/71 72/73/73
f 201/71/71 360/254/259 92/132/137
f 327/137/142 219/74/74 64/57/57
f 219/74/74 327/137/142 2/72/72
f 220/138/143 114/190/195 101/139/144
f 16/103/107 220/138/143 364/140/145
f 221/141/146 4/107/112 17/108/113
f 102/143/148 221/141/146 369/142/147
f 222/145/150 5/79/79 18/80/80
f 116/201/206 222/145/150 370/146/151
f 222/145/150 116/201/206 103/181/186
f 223/147/152 6/109/114 19/110/115
f 117/207/212 223/147/152 371/148/153
f 223/147/152 117/207/212 104/185/190
f 225/150/155 313/155/160 77/14/14
f 376/151/156 225/150/155 66/17/17
f 225/150/155 376/151/156 110/153/158
f 313/155/160 225/150/155 365/154/159
f 226/156/161 314/160/165 78/19/19
f 377/157/162 226/156/161 203/16/16
f 226/156/161 377/157/162 111/158/163
f 314/160/165 226/156/161 366/159/164
f 227/161/166 315/166/171 79/23/23
f 378/162/167 227/161/166 185/22/22
f 227/161/166 378/162/167 112/164/169
f 315/166/171 227/161/166 367/165/170
f 228/167/172 316/172/177 80/84/84
f 379/168/173 228/167/172 186/21/21
f 228/167/172 379/168/173 113/170/175
f 316/172/177 228/167/172 368/171/176
f 229/173/178 317/121/126 12/115/120
f 380/174/179 229/173/178 365/154/159
f 229/173/178 380/174/179 101/139/144
f 317/121/126 229/173/178 241/175/180
f 230/176/181 318/95/95 13/89/89
f 381/177/182 230/176/181 366/159/164
f 230/176/181 381/177/182 102/143/148
f 318/95/95 230/176/181 333/178/183
f 231/179/184 319/124/129 14/118/123
f 382/180/185 231/179/184 367/165/170
f 231/179/184 382/180/185 103/181/186
f 319/124/129 231/179/184 334/182/187
f 232/183/188 320/99/99 15/93/93
f 383/184/189 232/183/188 368/171/176
f 232/183/188 383/184/189 104/185/190
f 320/99/99 232/183/188 335/186/191
f 233/187/192 321/128/133 85/129/134
f 384/189/194 233/187/192 340/188/193
f 233/187/192 384/189/194 118/191/196
f 321/128/133 233/187/192 372/192/197
f 234/193/198 322/81/103 86/81/81
f 385/195/200 234/193/198 242/194/199
f 234/193/198 385/195/200 119/196/201
f 322/81/103 234/193/198 373/197/202
f 235/198/203 323/134/139 87/111/116
f 386/200/205 235/198/203 243/199/204
f 235/198/203 386/200/205 120/202/207
f 323/134/139 235/198/203 374/203/208
f 236/204/209 324/104/108 88/83/83
f 387/206/211 236/204/209 244/205/210
f 236/204/209 387/206/211 121/208/213
f 324/104/108 236/204/209 375/209/214
f 237/210/215 325/136/141 20/130/135
f 388/211/216 237/210/215 372/192/197
f 237/210/215 388/211/216 97/212/217
f 325/136/141 237/210/215 97/212/217
f 238/213/218 326/105/110 21/101/104
f 389/214/219 238/213/218 373/197/202
f 238/213/218 389/214/219 98/215/220
f 326/105/110 238/213/218 362/216/221
f 239/217/222 327/137/142 22/135/140
f 390/218/223 239/217/222 374/203/208
f 239/217/222 390/218/223 99/219/224
f 327/137/142 239/217/222 99/219/224
f 240/220/225 328/106/111 23/104/109
f 391/221/226 240/220/225 375/209/214
f 240/220/225 391/221/226 100/222/227
f 328/106/111 240/220/225 363/223/228
f 73/122/127 241/175/180 340/188/193
f 242/194/199 102/143/148 115/144/149
f 242/194/199 86/81/81 74/82/82
f 102/143/148 242/194/199 333/178/183
f 116/201/206 243/199/204 334/182/187
f 117/207/212 244/205/210 335/186/191
f 66/17/17 105/225/230 106/152/157
f 185/22/22 7/18/18 108/163/168
f 186/21/21 224/232/237 109/169/174
f 245/224/229 376/151/156 106/152/157
f 345/90/90 245/224/229 105/225/230
f 245/224/229 345/90/90 81/91/91
f 376/151/156 245/224/229 336/226/231
f 246/227/232 377/157/162 107/149/154
f 346/112/117 246/227/232 184/13/13
f 246/227/232 346/112/117 82/113/118
f 377/157/162 246/227/232 337/228/233
f 247/229/234 378/162/167 108/163/168
f 347/86/86 247/229/234 7/18/18
f 247/229/234 347/86/86 83/87/87
f 378/162/167 247/229/234 338/230/235
f 248/231/236 379/168/173 109/169/174
f 348/116/121 248/231/236 224/232/237
f 248/231/236 348/116/121 84/117/122
f 379/168/173 248/231/236 339/233/238
f 249/234/239 380/174/179 110/153/158
f 349/97/97 249/234/239 336/226/231
f 249/234/239 349/97/97 3/98/98
f 380/174/179 249/234/239 364/140/145
f 250/235/240 381/177/182 111/158/163
f 350/119/124 250/235/240 337/228/233
f 250/235/240 350/119/124 4/107/112
f 381/177/182 250/235/240 221/141/146
f 251/236/241 382/180/185 112/164/169
f 351/94/94 251/236/241 338/230/235
f 251/236/241 351/94/94 5/79/79
f 382/180/185 251/236/241 222/145/150
f 252/237/242 383/184/189 113/170/175
f 352/123/128 252/237/242 339/233/238
f 252/237/242 352/123/128 6/109/114
f 383/184/189 252/237/242 223/147/152
f 253/238/243 384/189/194 114/190/195
f 353/102/105 253/238/243 220/138/143
f 253/238/243 353/102/105 89/102/106
f 384/189/194 253/238/243 341/239/244
f 254/240/245 385/195/200 115/144/149
f 354/126/131 254/240/245 369/142/147
f 254/240/245 354/126/131 90/127/132
f 385/195/200 254/240/245 342/241/246
f 255/242/247 386/200/205 116/201/206
f 355/80/101 255/242/247 370/146/151
f 255/242/247 355/80/101 91/100/102
f 386/200/205 255/242/247 343/243/248
f 256/244/249 387/206/211 117/207/212
f 356/131/136 256/244/249 371/148/153
f 256/244/249 356/131/136 92/132/137
f 387/206/211 256/244/249 344/245/250
f 257/246/251 388/211/216 118/191/196
f 357/247/252 257/246/251 341/239/244
f 257/246/251 357/247/252 41/77/77
f 388/211/216 257/246/251 41/77/77
f 258/248/253 389/214/219 119/196/201
f 358/249/254 258/248/253 342/241/246
f 258/248/253 358/249/254 71/65/65
f 389/214/219 258/248/253 98/215/220
f 259/250/255 390/218/223 120/202/207
f 359/251/256 259/250/255 343/243/248
f 259/250/255 359/251/256 39/69/69
f 390/218/223 259/250/255 332/252/257
f 260/253/258 391/221/226 121/208/213
f 360/254/259 260/253/258 344/245/250
f 260/253/258 360/254/259 72/73/73
f 391/221/226 260/253/258 100/222/227
f 46/255/260 144/308/324 124/256/261
f 263/258/263 145/310/326 125/259/264
f 392/261/266 261/264/269 48/262/267
f 261/264/269 392/261/266 123/261/270
f 142/303/318 262/266/272 25/273/280
f 262/266/272 142/303/318 122/267/273
f 24/269/275 263/258/263 126/260/265
f 24/269/275 394/271/277 69/271/307
f 394/271/277 24/269/275 127/270/276
f 262/266/272 264/274/281 26/272/279
f 264/274/281 262/266/272 128/268/274
f 68/276/283 264/274/281 129/275/282
f 47/278/285 46/255/260 130/257/262
f 47/278/285 393/280/287 67/289/297
f 393/280/287 47/278/285 131/279/286
f 261/264/269 265/282/290 49/281/289
f 265/282/290 261/264/269 132/265/271
f 70/284/292 265/282/290 133/283/291
f 393/280/287 266/286/294 416/288/296
f 266/286/294 393/280/287 134/280/288
f 154/287/295 266/286/294 396/286/298
f 267/291/300 68/276/283 135/277/284
f 155/292/302 267/291/300 397/291/301
f 268/294/304 395/297/309 156/295/305
f 394/271/277 268/294/304 417/296/306
f 268/294/304 394/271/277 136/271/278
f 395/297/309 268/294/304 398/294/308
f 70/284/292 269/298/311 418/300/313
f 269/298/311 70/284/292 137/285/293
f 157/299/312 269/298/311 399/298/314
f 270/302/316 154/287/295 138/290/299
f 142/303/318 270/302/316 400/302/317
f 271/304/319 392/261/266 143/263/268
f 155/292/302 271/304/319 419/305/320
f 271/304/319 155/292/302 139/293/303
f 392/261/266 271/304/319 401/304/321
f 272/306/322 395/297/309 140/297/310
f 144/308/324 272/306/322 402/307/323
f 157/299/312 273/309/325 420/311/327
f 273/309/325 157/299/312 141/301/315
f 145/310/326 273/309/325 403/309/328
f 166/315/332 274/312/329 423/314/331
f 162/320/337 277/317/334 424/319/336
f 168/325/342 275/322/339 422/324/341
f 164/330/347 276/327/344 421/329/346
f 277/317/334 162/320/337 163/332/349
f 146/318/335 277/317/334 278/333/350
f 278/333/350 163/332/349 172/335/352
f 147/334/351 278/333/350 410/336/353
f 165/338/355 279/337/354 276/327/344
f 279/337/354 165/338/355 171/340/357
f 149/339/356 279/337/354 409/341/358
f 166/315/332 280/342/359 274/312/329
f 280/342/359 166/315/332 167/396/416
f 167/396/416 281/344/361 280/342/359
f 281/344/361 167/396/416 170/345/362
f 151/343/360 281/344/361 408/346/363
f 275/322/339 153/369/386 152/323/340
f 275/322/339 433/347/364 169/348/365
f 153/369/386 275/322/339 282/349/366
f 282/349/366 169/348/365 173/350/367
f 153/369/386 282/349/366 411/351/368
f 283/352/369 93/376/393 151/343/360
f 434/353/370 283/352/369 408/346/363
f 283/352/369 434/353/370 174/354/371
f 93/376/393 283/352/369 429/355/372
f 284/356/373 329/360/377 149/339/356
f 435/357/374 284/356/373 409/341/358
f 284/356/373 435/357/374 175/358/375
f 329/360/377 284/356/373 430/359/376
f 285/362/379 330/366/383 147/334/351
f 436/363/380 285/362/379 410/336/353
f 285/362/379 436/363/380 176/364/381
f 330/366/383 285/362/379 431/365/382
f 286/368/385 331/373/390 153/369/386
f 437/370/387 286/368/385 411/351/368
f 286/368/385 437/370/387 177/371/388
f 331/373/390 286/368/385 432/372/389
f 287/375/392 361/378/395 93/376/393
f 438/377/394 287/375/392 429/355/372
f 287/375/392 438/377/394 158/331/348
f 361/378/395 287/375/392 421/329/346
f 439/380/397 288/379/396 430/359/376
f 288/379/396 439/380/397 159/326/343
f 94/361/378 288/379/396 422/324/341
f 440/382/399 289/381/398 431/365/382
f 289/381/398 440/382/399 160/316/333
f 95/367/384 289/381/398 423/314/331
f 441/384/401 290/383/400 432/372/389
f 290/383/400 441/384/401 161/321/338
f 96/374/391 290/383/400 424/319/336
f 296/385/402 166/315/332 160/316/333
f 46/255/260 296/385/402 406/386/403
f 292/387/404 162/320/337 161/321/338
f 263/258/263 292/387/404 407/321/405
f 291/388/406 168/325/342 159/326/343
f 48/262/267 291/388/406 405/389/407
f 168/325/342 291/388/406 298/390/408
f 294/391/409 164/330/347 158/331/348
f 25/273/280 294/391/409 404/303/410
f 292/387/404 263/258/263 24/269/275
f 162/320/337 292/387/404 293/392/411
f 293/392/411 24/269/275 69/271/307
f 163/332/349 293/392/411 427/335/412
f 294/391/409 165/338/355 164/330/347
f 165/338/355 294/391/409 295/393/413
f 295/393/413 26/272/279 68/276/283
f 165/338/355 295/393/413 426/394/414
f 296/385/402 46/255/260 47/278/285
f 166/315/332 296/385/402 297/395/415
f 297/395/415 47/278/285 67/289/297
f 167/396/416 297/395/415 425/397/417
f 298/390/408 433/347/364 168/325/342
f 433/347/364 298/390/408 299/398/418
f 299/398/418 49/281/289 70/284/292
f 169/348/365 299/398/418 428/399/419
f 300/400/420 434/353/370 170/345/362
f 416/288/296 300/400/420 425/397/417
f 300/400/420 416/288/296 154/287/295
f 434/353/370 300/400/420 412/401/421
f 301/402/422 435/357/374 171/340/357
f 267/291/300 301/402/422 426/394/414
f 301/402/422 267/291/300 155/292/302
f 435/357/374 301/402/422 413/403/423
f 302/404/424 436/363/380 172/335/352
f 417/296/306 302/404/424 427/335/412
f 302/404/424 417/296/306 156/295/305
f 436/363/380 302/404/424 414/405/425
f 303/406/426 437/370/387 173/350/367
f 418/300/313 303/406/426 428/399/419
f 303/406/426 418/300/313 157/299/312
f 437/370/387 303/406/426 415/407/427
f 304/408/428 438/377/394 174/354/371
f 270/302/316 304/408/428 412/401/421
f 304/408/428 270/302/316 142/303/318
f 438/377/394 304/408/428 404/303/410
f 305/409/429 439/380/397 175/358/375
f 419/305/320 305/409/429 413/403/423
f 305/409/429 419/305/320 143/263/268
f 439/380/397 305/409/429 405/389/407
f 306/410/430 440/382/399 176/364/381
f 272/306/322 306/410/430 414/405/425
f 306/410/430 272/306/322 144/308/324
f 440/382/399 306/410/430 406/386/403
f 307/411/431 441/384/401 177/371/388
f 420/311/327 307/411/431 415/407/427
f 307/411/431 420/311/327 145/310/326
f 441/384/401 307/411/431 407/321/405
f 180/413/433 150/313/330 151/343/360
f 182/415/435 180/413/433 312/414/434
f 178/416/436 39/69/69 38/68/68
f 308/417/437 178/416/436 179/412/432
f 308/417/437 148/328/345 149/339/356
f 178/416/436 308/417/437 311/418/438
f 40/76/76 181/419/439 182/415/435
f 310/421/441 146/318/335 147/334/351
f 181/419/439 310/421/441 180/413/433
f 312/414/434 308/417/437 179/412/432
f 1/64/64 182/415/435 179/412/432
f 2/72/72 178/416/436 181/419/439
f 180/413/433 330/366/383 95/367/384
f 179/412/432 98/215/220 71/65/65
f 178/416/436 332/252/257 39/69/69
f 311/418/438 329/360/377 94/361/378
f 181/419/439 100/222/227 72/73/73
f 310/421/441 331/373/390 96/374/391
f 180/413/433 95/367/384 150/313/330
f 179/412/432 362/216/221 98/215/220
f 361/378/395 308/417/437 312/414/434
f 308/417/437 361/378/395 148/328/345
f 309/420/440 94/361/378 152/323/340
f 181/419/439 363/223/228 100/222/227
f 310/421/441 96/374/391 146/318/335
