# Blender 4.0.0
# www.blender.org
mtllib Microwave011_Button7.mtl
o Microwave011_Button7
v 0.161276 -0.128950 0.113097
v 0.178480 -0.128950 0.110901
v 0.161685 -0.129515 0.113296
v 0.161338 -0.129515 0.110905
v 0.178064 -0.129511 0.110690
v 0.178414 -0.129515 0.113081
v 0.161806 -0.129628 0.113261
v 0.161372 -0.129628 0.110988
v 0.177931 -0.129628 0.110724
v 0.178379 -0.129628 0.113005
v 0.161346 -0.129616 0.113072
v 0.161694 -0.129616 0.110699
v 0.178405 -0.129616 0.110913
v 0.178058 -0.129616 0.113287
v 0.161683 -0.129063 0.113298
v 0.161336 -0.129063 0.110903
v 0.178068 -0.129063 0.110688
v 0.178416 -0.129063 0.113083
v 0.161328 -0.128963 0.113092
v 0.161674 -0.128963 0.110680
v 0.178426 -0.128963 0.110896
v 0.178076 -0.128963 0.113307
v 0.179264 -0.128795 0.115637
v 0.160487 -0.128795 0.115637
v 0.160488 -0.128795 0.109218
v 0.179264 -0.128795 0.109218
v 0.162212 -0.129063 0.110682
v 0.177539 -0.129063 0.110682
v 0.177539 -0.129063 0.113304
v 0.162212 -0.129063 0.113304
v 0.162223 -0.129502 0.110683
v 0.177538 -0.129515 0.110683
v 0.162214 -0.129515 0.113302
v 0.162222 -0.129616 0.110692
v 0.177530 -0.129616 0.110692
v 0.177530 -0.129616 0.113293
v 0.162222 -0.129616 0.113293
v 0.161696 -0.128950 0.110638
v 0.178061 -0.128950 0.110637
v 0.178043 -0.128950 0.113369
v 0.161687 -0.128950 0.113368
v 0.162204 -0.128963 0.110674
v 0.177548 -0.128963 0.110674
v 0.177546 -0.128963 0.113314
v 0.162205 -0.128963 0.113314
v 0.159431 -0.128802 0.114915
v 0.159431 -0.128795 0.109932
v 0.180320 -0.128802 0.109941
v 0.180321 -0.128795 0.114915
v 0.161329 -0.129053 0.112953
v 0.161329 -0.129063 0.111033
v 0.178422 -0.129066 0.111036
v 0.178422 -0.129063 0.112952
v 0.161417 -0.129629 0.113043
v 0.161331 -0.129515 0.112951
v 0.161331 -0.129515 0.111035
v 0.178420 -0.129515 0.111035
v 0.178420 -0.129515 0.112951
v 0.161340 -0.129616 0.112944
v 0.161340 -0.129616 0.111042
v 0.178412 -0.129616 0.111042
v 0.178412 -0.129616 0.112944
v 0.161321 -0.128963 0.112959
v 0.161320 -0.128963 0.111027
v 0.178432 -0.128963 0.111034
v 0.178431 -0.128963 0.112949
v 0.178334 -0.129629 0.110940
v 0.161546 -0.129629 0.113215
v 0.159438 -0.128795 0.109529
v 0.179921 -0.128775 0.109224
v 0.159828 -0.128795 0.115630
v 0.180314 -0.128795 0.115325
v 0.161271 -0.128950 0.110890
v 0.178475 -0.128950 0.113114
v 0.161338 -0.129515 0.113081
v 0.161685 -0.129515 0.110690
v 0.178414 -0.129515 0.110905
v 0.178066 -0.129515 0.113296
v 0.161372 -0.129628 0.113004
v 0.161794 -0.129628 0.110725
v 0.178378 -0.129628 0.110971
v 0.178002 -0.129628 0.113257
v 0.161694 -0.129616 0.113287
v 0.161346 -0.129616 0.110913
v 0.178058 -0.129616 0.110699
v 0.178405 -0.129616 0.113072
v 0.161336 -0.129063 0.113083
v 0.161683 -0.129063 0.110688
v 0.178416 -0.129063 0.110903
v 0.178068 -0.129063 0.113298
v 0.161676 -0.128963 0.113307
v 0.161326 -0.128963 0.110896
v 0.178078 -0.128963 0.110680
v 0.178424 -0.128963 0.113092
v 0.159541 -0.128947 0.109356
v 0.180216 -0.128947 0.109367
v 0.159525 -0.128947 0.115461
v 0.180161 -0.128947 0.115528
v 0.161313 -0.128950 0.113278
v 0.161316 -0.128950 0.110714
v 0.178442 -0.128950 0.110725
v 0.178433 -0.128950 0.113289
v 0.161395 -0.129515 0.113239
v 0.161395 -0.129514 0.110747
v 0.178357 -0.129515 0.110747
v 0.178357 -0.129515 0.113239
v 0.161435 -0.129628 0.113199
v 0.161435 -0.129628 0.110787
v 0.178317 -0.129628 0.110787
v 0.178317 -0.129628 0.113199
v 0.161404 -0.129616 0.113230
v 0.161404 -0.129616 0.110756
v 0.178348 -0.129616 0.110756
v 0.178348 -0.129616 0.113230
v 0.161393 -0.129063 0.113241
v 0.161393 -0.129063 0.110745
v 0.178359 -0.129063 0.110745
v 0.178359 -0.129063 0.113241
v 0.161385 -0.128963 0.113250
v 0.161383 -0.128963 0.110737
v 0.178369 -0.128963 0.110737
v 0.178367 -0.128963 0.113250
v 0.159827 -0.128083 0.109223
v 0.180316 -0.128083 0.109528
v 0.159436 -0.128083 0.115326
v 0.179924 -0.128083 0.115632
v 0.179266 -0.128083 0.115638
v 0.160485 -0.128083 0.115638
v 0.160486 -0.128083 0.109216
v 0.179265 -0.128083 0.109216
v 0.159430 -0.128083 0.114923
v 0.159430 -0.128083 0.109932
v 0.180322 -0.128083 0.109932
v 0.180322 -0.128083 0.114923
v 0.159436 -0.128083 0.109528
v 0.179924 -0.128083 0.109223
v 0.159827 -0.128083 0.115632
v 0.180316 -0.128083 0.115326
v 0.159493 -0.128083 0.109280
v 0.180258 -0.128083 0.109280
v 0.159493 -0.128083 0.115575
v 0.180258 -0.128083 0.115575
v 0.159823 -0.128775 0.109224
v 0.180314 -0.128795 0.109529
v 0.159437 -0.128781 0.115327
v 0.179923 -0.128795 0.115630
v 0.179794 -0.128947 0.115557
v 0.159941 -0.128947 0.115557
v 0.159953 -0.128947 0.109275
v 0.179805 -0.128947 0.109275
v 0.159498 -0.128947 0.115214
v 0.159506 -0.128947 0.109601
v 0.180245 -0.128947 0.109608
v 0.180255 -0.128947 0.115220
v 0.159495 -0.128795 0.109281
v 0.180257 -0.128795 0.109281
v 0.159494 -0.128795 0.115573
v 0.180257 -0.128795 0.115573
v 0.159842 -0.128931 0.109234
v 0.180301 -0.128931 0.109539
v 0.159448 -0.128931 0.115312
v 0.179913 -0.128931 0.115617
v 0.179246 -0.128931 0.115623
v 0.160497 -0.128931 0.115623
v 0.160468 -0.128931 0.109228
v 0.179320 -0.128931 0.109229
v 0.159445 -0.128931 0.113879
v 0.159446 -0.128931 0.109932
v 0.180306 -0.128931 0.109945
v 0.180309 -0.128931 0.114908
v 0.159451 -0.128931 0.109539
v 0.179910 -0.128931 0.109234
v 0.159839 -0.128931 0.115617
v 0.180304 -0.128931 0.115312
v 0.159508 -0.128931 0.109291
v 0.180244 -0.128931 0.109291
v 0.159505 -0.128931 0.115560
v 0.180247 -0.128931 0.115560
v 0.178525 -0.128949 0.110581
v 0.159698 -0.128949 0.115435
v 0.178549 -0.128949 0.113456
v 0.161200 -0.128949 0.110590
v 0.177538 -0.129289 0.110682
v 0.177538 -0.129515 0.113302
v 0.161415 -0.129629 0.110960
v 0.178350 -0.129629 0.113130
v 0.161350 -0.129624 0.111050
v 0.177521 -0.129624 0.110702
v 0.178402 -0.129624 0.112936
v 0.162231 -0.129624 0.113284
v 0.161334 -0.129602 0.112948
v 0.177535 -0.129602 0.110686
v 0.178417 -0.129602 0.112948
v 0.162217 -0.129602 0.113299
v 0.161327 -0.128977 0.112954
v 0.177542 -0.128977 0.110679
v 0.178426 -0.128977 0.111032
v 0.177542 -0.128977 0.113307
v 0.161312 -0.128954 0.112971
v 0.177558 -0.128954 0.110666
v 0.178440 -0.128954 0.112957
v 0.177555 -0.128954 0.113324
v 0.178204 -0.129629 0.110770
v 0.161523 -0.129629 0.110781
v 0.178230 -0.129629 0.113205
v 0.162231 -0.129624 0.110702
v 0.177521 -0.129624 0.113284
v 0.162217 -0.129602 0.110686
v 0.177535 -0.129602 0.113299
v 0.162209 -0.128977 0.110679
v 0.162210 -0.128977 0.113307
v 0.162193 -0.128954 0.110666
v 0.162197 -0.128954 0.113324
v 0.161350 -0.129624 0.112936
v 0.178402 -0.129624 0.111050
v 0.161334 -0.129602 0.111037
v 0.178417 -0.129602 0.111037
v 0.161326 -0.128977 0.111031
v 0.178425 -0.128977 0.112955
v 0.161309 -0.128954 0.111014
v 0.178443 -0.128954 0.111017
v 0.161456 -0.129063 0.113279
v 0.161357 -0.129512 0.110810
v 0.178293 -0.129515 0.110709
v 0.178395 -0.129515 0.113175
v 0.161375 -0.129624 0.113157
v 0.161477 -0.129624 0.110727
v 0.178376 -0.129624 0.110829
v 0.178275 -0.129624 0.113258
v 0.161360 -0.129602 0.113172
v 0.161461 -0.129602 0.110712
v 0.178392 -0.129602 0.110813
v 0.178290 -0.129602 0.113274
v 0.161352 -0.128977 0.113180
v 0.161453 -0.128977 0.110704
v 0.178400 -0.128977 0.110806
v 0.178298 -0.128977 0.113282
v 0.161338 -0.128954 0.113197
v 0.161435 -0.128954 0.110691
v 0.178418 -0.128954 0.110793
v 0.178312 -0.128954 0.113299
v 0.161357 -0.129515 0.113175
v 0.161456 -0.129063 0.110707
v 0.178397 -0.129058 0.110809
v 0.178295 -0.129063 0.113279
v 0.161477 -0.129624 0.113258
v 0.161375 -0.129624 0.110829
v 0.178275 -0.129624 0.110727
v 0.178376 -0.129624 0.113157
v 0.161461 -0.129602 0.113274
v 0.161360 -0.129602 0.110813
v 0.178290 -0.129602 0.110712
v 0.178392 -0.129602 0.113172
v 0.161454 -0.128977 0.113282
v 0.161351 -0.128977 0.110806
v 0.178299 -0.128977 0.110704
v 0.178400 -0.128977 0.113180
v 0.161440 -0.128954 0.113299
v 0.161334 -0.128954 0.110793
v 0.178316 -0.128954 0.110691
v 0.178414 -0.128954 0.113197
v 0.159430 -0.128486 0.114924
v 0.180322 -0.128485 0.109931
v 0.160486 -0.128485 0.109216
v 0.179265 -0.128487 0.115638
v 0.160486 -0.128486 0.115638
v 0.179265 -0.128485 0.109216
v 0.159430 -0.128486 0.109931
v 0.180322 -0.128554 0.114910
v 0.159455 -0.128486 0.109343
v 0.180194 -0.128772 0.109243
v 0.159557 -0.128486 0.115613
v 0.180297 -0.128486 0.115511
v 0.159557 -0.128777 0.109243
v 0.180297 -0.128486 0.109343
v 0.159456 -0.128781 0.115511
v 0.180195 -0.128486 0.115613
v 0.159456 -0.128942 0.114921
v 0.180290 -0.128942 0.109949
v 0.160488 -0.128942 0.109240
v 0.179305 -0.128942 0.115608
v 0.160461 -0.128942 0.115609
v 0.169876 -0.128942 0.109242
v 0.179252 -0.128942 0.109240
v 0.159463 -0.128942 0.110938
v 0.159461 -0.128942 0.109949
v 0.180289 -0.128942 0.111025
v 0.180296 -0.128942 0.114918
v 0.159484 -0.128942 0.109366
v 0.180166 -0.128942 0.109264
v 0.159580 -0.128942 0.115584
v 0.180273 -0.128942 0.115483
v 0.159586 -0.128942 0.109264
v 0.180267 -0.128942 0.109366
v 0.159478 -0.128942 0.115483
v 0.180172 -0.128942 0.115584
v 0.159435 -0.128912 0.114919
v 0.180316 -0.128912 0.109934
v 0.179261 -0.128912 0.115632
v 0.160491 -0.128912 0.115632
v 0.160502 -0.128912 0.109221
v 0.179260 -0.128912 0.109221
v 0.159435 -0.128912 0.113746
v 0.159436 -0.128912 0.109932
v 0.180315 -0.128912 0.110845
v 0.180317 -0.128912 0.114937
v 0.159461 -0.128912 0.109348
v 0.180189 -0.128912 0.109246
v 0.159561 -0.128912 0.115607
v 0.180292 -0.128912 0.115506
v 0.159562 -0.128912 0.109246
v 0.180291 -0.128912 0.109348
v 0.159460 -0.128912 0.115506
v 0.180190 -0.128912 0.115607
v 0.159592 -0.128949 0.115265
v 0.159770 -0.128949 0.109350
v 0.180147 -0.128949 0.109467
v 0.180038 -0.128949 0.115439
v 0.179994 -0.128949 0.109352
v 0.161224 -0.128949 0.113457
v 0.159607 -0.128949 0.109455
v 0.180159 -0.128949 0.115279
v 0.161356 -0.129624 0.113063
v 0.161703 -0.129624 0.110708
v 0.178395 -0.129624 0.110922
v 0.178048 -0.129624 0.113277
v 0.161341 -0.129602 0.113078
v 0.161688 -0.129602 0.110693
v 0.178411 -0.129602 0.110907
v 0.178063 -0.129602 0.113293
v 0.161333 -0.128977 0.113086
v 0.161680 -0.128977 0.110685
v 0.178419 -0.128977 0.110900
v 0.178071 -0.128977 0.113301
v 0.161319 -0.128954 0.113102
v 0.161663 -0.128954 0.110672
v 0.178437 -0.128954 0.110888
v 0.178084 -0.128954 0.113318
v 0.180124 -0.128947 0.109297
v 0.159620 -0.128947 0.115536
v 0.180234 -0.128947 0.115434
v 0.161403 -0.128950 0.113345
v 0.178355 -0.128950 0.110661
v 0.161458 -0.129515 0.110709
v 0.178395 -0.129515 0.110810
v 0.178293 -0.129515 0.113277
v 0.161397 -0.129628 0.113135
v 0.161498 -0.129628 0.110749
v 0.178355 -0.129628 0.110850
v 0.178253 -0.129628 0.113237
v 0.161467 -0.129616 0.113268
v 0.161365 -0.129616 0.110819
v 0.178285 -0.129616 0.110718
v 0.178386 -0.129616 0.113166
v 0.161355 -0.129063 0.113177
v 0.161449 -0.128963 0.113288
v 0.161345 -0.128963 0.110801
v 0.178305 -0.128963 0.110699
v 0.178405 -0.128963 0.113187
v 0.161703 -0.129624 0.113277
v 0.161356 -0.129624 0.110922
v 0.178048 -0.129624 0.110708
v 0.178395 -0.129624 0.113063
v 0.161688 -0.129602 0.113293
v 0.161341 -0.129602 0.110907
v 0.178063 -0.129602 0.110693
v 0.178411 -0.129602 0.113078
v 0.161681 -0.128977 0.113301
v 0.161332 -0.128977 0.110900
v 0.178072 -0.128977 0.110685
v 0.178419 -0.128977 0.113086
v 0.161667 -0.128954 0.113318
v 0.161315 -0.128954 0.110888
v 0.178089 -0.128954 0.110672
v 0.178433 -0.128954 0.113102
v 0.159628 -0.128947 0.109297
v 0.161397 -0.128950 0.110661
v 0.178349 -0.128950 0.113345
v 0.161458 -0.129515 0.113277
v 0.161498 -0.129628 0.113237
v 0.161397 -0.129628 0.110850
v 0.178253 -0.129628 0.110749
v 0.161365 -0.129616 0.113166
v 0.161467 -0.129616 0.110718
v 0.178386 -0.129616 0.110819
v 0.178285 -0.129616 0.113268
v 0.161355 -0.129063 0.110809
v 0.178295 -0.129063 0.110707
v 0.178397 -0.129063 0.113177
v 0.161347 -0.128963 0.113187
v 0.161446 -0.128963 0.110699
v 0.178407 -0.128963 0.110801
v 0.178303 -0.128963 0.113288
v 0.161413 -0.129624 0.113220
v 0.161413 -0.129624 0.110765
v 0.178338 -0.129624 0.110765
v 0.178338 -0.129624 0.113220
v 0.161398 -0.129602 0.113236
v 0.161398 -0.129602 0.110750
v 0.178354 -0.129602 0.110750
v 0.178354 -0.129602 0.113236
v 0.161390 -0.128977 0.113244
v 0.161389 -0.128977 0.110743
v 0.178362 -0.128977 0.110743
v 0.178361 -0.128977 0.113244
v 0.161376 -0.128954 0.113261
v 0.161372 -0.128954 0.110729
v 0.178380 -0.128954 0.110729
v 0.178375 -0.128954 0.113261
v 0.180316 -0.128486 0.109528
v 0.179924 -0.128486 0.115632
v 0.159436 -0.128486 0.109528
v 0.159827 -0.128486 0.115632
v 0.180316 -0.128486 0.115326
v 0.159493 -0.128486 0.109280
v 0.180258 -0.128486 0.109280
v 0.159493 -0.128486 0.115575
v 0.180258 -0.128486 0.115575
v 0.159455 -0.128083 0.109343
v 0.180195 -0.128083 0.109242
v 0.159557 -0.128083 0.115613
v 0.180297 -0.128083 0.115511
v 0.159557 -0.128083 0.109242
v 0.180297 -0.128083 0.109343
v 0.159455 -0.128083 0.115511
v 0.180195 -0.128083 0.115613
v 0.159833 -0.128912 0.109227
v 0.180310 -0.128912 0.109533
v 0.159441 -0.128912 0.115321
v 0.179920 -0.128912 0.115626
v 0.159466 -0.128942 0.109550
v 0.179896 -0.128942 0.109246
v 0.159850 -0.128942 0.115603
v 0.180292 -0.128942 0.115298
v 0.159499 -0.128912 0.109284
v 0.180253 -0.128912 0.109284
v 0.159498 -0.128912 0.115569
v 0.180254 -0.128912 0.115569
v 0.180320 -0.128795 0.112427
v 0.159457 -0.128795 0.109345
v 0.159558 -0.128795 0.115611
v 0.180295 -0.128795 0.115510
v 0.180295 -0.128795 0.109345
v 0.180194 -0.128795 0.115611
v 0.159856 -0.128942 0.109246
v 0.180286 -0.128942 0.109550
v 0.159460 -0.128942 0.115298
v 0.179902 -0.128942 0.115603
v 0.159442 -0.128912 0.109533
v 0.179919 -0.128912 0.109227
v 0.159832 -0.128912 0.115626
v 0.180311 -0.128912 0.115321
v 0.159522 -0.128942 0.109302
v 0.180229 -0.128942 0.109302
v 0.159516 -0.128942 0.115546
v 0.180235 -0.128942 0.115546
v 0.159442 -0.128931 0.114911
v 0.180306 -0.128931 0.112425
v 0.159470 -0.128931 0.109355
v 0.180180 -0.128931 0.109253
v 0.159568 -0.128931 0.115599
v 0.180285 -0.128931 0.115497
v 0.159571 -0.128931 0.109253
v 0.180282 -0.128931 0.109355
v 0.159467 -0.128931 0.115497
v 0.180183 -0.128931 0.115599
vn -0.9994 -0.0190 -0.0278
vn -0.9996 -0.0156 0.0256
vn -0.9994 -0.0213 -0.0256
vn 0.0069 -0.0037 -1.0000
vn -0.0065 -0.0177 -0.9998
vn 0.0061 -0.0169 -0.9998
vn 0.9995 -0.0193 0.0231
vn 0.9994 -0.0246 -0.0250
vn 0.9996 -0.0182 0.0235
vn 0.0055 -0.0195 0.9998
vn 0.0048 -0.0207 0.9998
vn -0.0061 -0.0186 0.9998
vn -0.0156 -0.9999 -0.0005
vn -0.1214 -0.9925 0.0112
vn -0.1162 -0.9932 0.0007
vn 0.0065 -0.9997 -0.0230
vn -0.0036 -0.9923 -0.1240
vn -0.0056 -0.9928 -0.1200
vn 0.0128 -0.9999 -0.0051
vn -0.0037 -0.9997 0.0221
vn 0.0794 -0.9965 0.0276
vn 0.1203 -0.9927 -0.0091
vn 0.1151 -0.9934 -0.0012
vn 0.0056 -0.9998 0.0181
vn -0.4285 -0.9035 -0.0052
vn -0.7973 -0.6027 0.0342
vn -0.8008 -0.5985 -0.0214
vn 0.0011 -0.9038 -0.4280
vn -0.0198 -0.6012 -0.7989
vn 0.0060 -0.5931 -0.8051
vn -0.0014 -0.9052 -0.4249
vn 0.4307 -0.9025 0.0058
vn 0.8055 -0.5926 -0.0077
vn 0.8017 -0.5974 0.0202
vn 0.4283 -0.9036 -0.0069
vn -0.0014 -0.9028 0.4301
vn 0.0009 -0.5935 0.8049
vn -0.0084 -0.5800 0.8145
vn -0.9742 -0.2239 0.0277
vn -0.9994 -0.0212 0.0274
vn 0.0068 -0.2169 -0.9762
vn -0.0056 -0.0184 -0.9998
vn 0.0066 -0.0192 -0.9998
vn 0.9752 -0.2193 0.0303
vn 0.9995 -0.0204 -0.0234
vn -0.0062 -0.2171 0.9761
vn -0.0054 -0.0195 0.9998
vn 0.0062 -0.2167 0.9762
vn -0.9722 -0.2333 -0.0219
vn -0.8193 -0.5734 -0.0038
vn -0.7807 -0.6248 -0.0144
vn -0.9750 -0.2203 0.0276
vn 0.0052 -0.1902 -0.9817
vn 0.0165 -0.5389 -0.8422
vn 0.0110 -0.4786 -0.8779
vn -0.0051 -0.1902 -0.9817
vn 0.9738 -0.2265 -0.0211
vn 0.7874 -0.6163 0.0094
vn 0.8294 -0.5585 -0.0105
vn -0.0052 -0.2351 0.9720
vn -0.0182 -0.6101 0.7921
vn -0.0030 -0.6258 0.7800
vn 0.0165 -0.2414 0.9703
vn -0.3640 -0.9313 -0.0129
vn -0.0563 -0.9984 0.0076
vn -0.0535 -0.9985 -0.0086
vn -0.4254 -0.9039 0.0457
vn 0.0035 -0.8982 -0.4396
vn -0.0017 -0.9973 -0.0737
vn 0.0060 -0.9976 -0.0693
vn -0.0031 -0.8976 -0.4409
vn 0.3999 -0.9165 0.0125
vn 0.0581 -0.9983 -0.0070
vn 0.0530 -0.9986 0.0079
vn 0.3610 -0.9325 -0.0113
vn -0.0032 -0.9314 0.3640
vn 0.0041 -0.9989 0.0471
vn -0.0044 -0.9989 0.0472
vn 0.0371 -0.9128 0.4067
vn -0.0107 -0.9999 0.0049
vn 0.0480 -0.0196 -0.9987
vn 0.0476 -0.0174 -0.9987
vn -0.0459 -0.0190 -0.9988
vn -0.0482 -0.0201 -0.9986
vn 0.0475 -0.0216 0.9986
vn 0.0061 -0.9934 0.1143
vn 0.0052 -0.9921 0.1255
vn 0.0176 -0.9070 -0.4207
vn 0.0385 -0.6064 -0.7943
vn -0.0385 -0.6064 -0.7943
vn -0.0176 -0.9069 0.4210
vn -0.0385 -0.6064 0.7942
vn 0.0012 -0.9075 0.4200
vn 0.0385 -0.6066 0.7941
vn 0.0501 -0.2247 -0.9731
vn -0.0499 -0.2248 -0.9731
vn -0.0079 -0.2208 -0.9753
vn -0.0499 -0.2248 0.9731
vn -0.0474 -0.0200 0.9987
vn 0.0498 -0.2250 0.9731
vn 0.0478 -0.0201 0.9987
vn 0.0430 -0.1983 -0.9792
vn 0.0379 -0.5622 -0.8262
vn -0.0429 -0.1984 -0.9792
vn -0.0379 -0.5619 -0.8263
vn -0.0435 -0.2419 0.9693
vn -0.0361 -0.6380 0.7692
vn -0.0475 -0.0208 0.9987
vn 0.0435 -0.2417 0.9694
vn 0.0361 -0.6379 0.7693
vn -0.0262 -0.9102 -0.4134
vn 0.0207 -0.9374 0.3476
vn -0.9917 -0.0223 -0.1268
vn -0.9921 -0.0229 -0.1230
vn 0.9920 -0.0222 0.1243
vn 0.9922 -0.0199 0.1231
vn 0.9922 -0.0227 -0.1228
vn -0.4067 -0.9124 -0.0453
vn -0.7750 -0.6244 -0.0973
vn -0.4019 -0.9157 0.0050
vn -0.7751 -0.6244 0.0972
vn 0.4065 -0.9125 0.0457
vn 0.7751 -0.6243 0.0973
vn 0.7747 -0.6248 -0.0972
vn -0.9634 -0.2364 -0.1264
vn -0.9747 -0.2217 -0.0273
vn -0.9634 -0.2364 0.1263
vn -0.9914 -0.0207 0.1291
vn 0.9634 -0.2365 0.1264
vn 0.9634 -0.2366 -0.1263
vn 0.9859 -0.1672 -0.0090
vn 0.9921 -0.0195 -0.1240
vn -0.9606 -0.2534 -0.1138
vn -0.7485 -0.6569 -0.0904
vn -0.9686 -0.2216 0.1124
vn -0.9917 -0.0193 0.1275
vn -0.7899 -0.6058 0.0952
vn 0.9684 -0.2220 0.1136
vn 0.7894 -0.6064 0.0955
vn 0.9819 -0.1885 0.0176
vn 0.9608 -0.2526 -0.1139
vn 0.7484 -0.6570 -0.0907
vn -0.3615 -0.9308 0.0542
vn 0.3348 -0.9411 -0.0481
vn -0.3071 -0.0212 0.9515
vn -0.7069 -0.0269 0.7068
vn -0.3083 -0.0240 0.9510
vn -0.9318 -0.0240 -0.3623
vn -0.9324 -0.0258 -0.3605
vn -0.7070 -0.0272 -0.7066
vn -0.7066 -0.0267 -0.7071
vn 0.3080 -0.0241 -0.9511
vn 0.3053 -0.0222 -0.9520
vn 0.9317 -0.0248 0.3623
vn 0.9325 -0.0236 0.3604
vn -0.0273 -0.9945 0.1010
vn -0.0632 -0.9964 0.0567
vn -0.0860 -0.9957 -0.0339
vn -0.0030 -0.9998 -0.0181
vn -0.0646 -0.9963 -0.0561
vn 0.0286 -0.9945 -0.1004
vn 0.0637 -0.9964 -0.0566
vn 0.0648 -0.9960 0.0622
vn -0.3575 -0.9252 0.1276
vn -0.0901 -0.9955 0.0304
vn -0.2538 -0.9334 0.2538
vn -0.5126 -0.6888 0.5126
vn -0.6959 -0.6667 0.2671
vn -0.3760 -0.9258 0.0394
vn -0.1034 -0.9172 -0.3847
vn -0.0253 -0.9944 -0.1026
vn -0.2538 -0.9334 -0.2538
vn -0.5126 -0.6888 -0.5126
vn -0.2266 -0.6536 -0.7221
vn -0.0181 -0.9005 -0.4344
vn 0.3575 -0.9252 -0.1275
vn 0.0901 -0.9955 -0.0305
vn 0.2538 -0.9334 -0.2538
vn 0.5126 -0.6888 -0.5126
vn 0.6959 -0.6667 -0.2671
vn 0.3769 -0.9252 -0.0433
vn 0.1037 -0.9172 0.3848
vn 0.0254 -0.9944 0.1027
vn 0.2538 -0.9334 0.2538
vn 0.5126 -0.6888 0.5126
vn 0.2265 -0.6536 0.7221
vn 0.0161 -0.9186 0.3948
vn -0.8960 -0.2650 0.3564
vn -0.6788 -0.2800 0.6788
vn -0.9324 -0.0227 0.3606
vn -0.3079 -0.2585 -0.9156
vn -0.6788 -0.2801 -0.6789
vn -0.3083 -0.0241 -0.9510
vn 0.8959 -0.2651 -0.3564
vn 0.6788 -0.2800 -0.6788
vn 0.7020 -0.0279 -0.7116
vn 0.9317 -0.0247 -0.3625
vn 0.3078 -0.2585 0.9157
vn 0.6788 -0.2800 0.6788
vn 0.7068 -0.0274 0.7069
vn 0.3081 -0.0240 0.9510
vn -0.9041 -0.2626 0.3372
vn -0.9325 -0.0236 0.3604
vn -0.6770 -0.3001 0.6720
vn -0.7096 -0.0295 0.7040
vn -0.4879 -0.7255 0.4854
vn -0.6907 -0.6742 0.2614
vn -0.2779 -0.2475 -0.9282
vn -0.3055 -0.0236 -0.9519
vn -0.6718 -0.2978 -0.6782
vn -0.4871 -0.7227 -0.4903
vn -0.2194 -0.6530 -0.7249
vn 0.8966 -0.2845 -0.3393
vn 0.9321 -0.0266 -0.3611
vn 0.6713 -0.2979 -0.6787
vn 0.7091 -0.0250 -0.7047
vn 0.4871 -0.7227 -0.4904
vn 0.6637 -0.7038 -0.2532
vn 0.2823 -0.2804 0.9174
vn 0.3061 -0.0246 0.9517
vn 0.6770 -0.3002 0.6720
vn 0.7063 -0.0244 0.7075
vn 0.4879 -0.7255 0.4855
vn 0.2121 -0.7001 0.6818
vn -0.2867 -0.9509 0.1166
vn -0.1864 -0.9634 0.1926
vn -0.0286 -0.9994 0.0193
vn -0.1074 -0.9474 -0.3017
vn -0.1953 -0.9606 -0.1978
vn -0.0315 -0.9993 -0.0203
vn -0.0174 -0.9988 -0.0457
vn 0.2800 -0.9539 -0.1079
vn 0.1966 -0.9603 -0.1978
vn 0.0325 -0.9992 -0.0216
vn 0.0936 -0.9588 0.2681
vn 0.1854 -0.9635 0.1930
vn 0.0270 -0.9995 0.0174
vn 0.0126 -0.9993 0.0342
vn -0.1036 -0.9172 0.3847
vn -0.2265 -0.6537 0.7221
vn -0.3579 -0.9251 -0.1271
vn -0.6960 -0.6667 -0.2668
vn 0.1036 -0.9172 -0.3847
vn 0.2265 -0.6537 -0.7221
vn 0.3564 -0.9258 0.1260
vn 0.6960 -0.6666 0.2669
vn -0.3079 -0.2586 0.9156
vn -0.8960 -0.2650 -0.3562
vn 0.3076 -0.2584 -0.9158
vn 0.8960 -0.2652 0.3561
vn -0.2823 -0.2804 0.9174
vn -0.2121 -0.7001 0.6818
vn -0.8968 -0.2842 -0.3392
vn -0.6639 -0.7037 -0.2529
vn 0.2780 -0.2475 -0.9282
vn 0.2193 -0.6529 -0.7250
vn 0.9041 -0.2626 0.3370
vn 0.6908 -0.6742 0.2612
vn -0.0928 -0.9590 0.2679
vn -0.0222 -0.9299 0.3671
vn -0.0128 -0.9993 0.0347
vn -0.2806 -0.9536 -0.1095
vn -0.3559 -0.9332 -0.0491
vn 0.1067 -0.9474 -0.3016
vn 0.0313 -0.8853 -0.4640
vn 0.0176 -0.9988 -0.0456
vn 0.2873 -0.9506 0.1179
vn 0.3920 -0.9184 0.0540
vn -1.0000 -0.0019 0.0071
vn -0.9982 -0.0007 0.0592
vn -1.0000 -0.0001 0.0074
vn 0.0399 -0.0027 0.9992
vn 0.0040 -0.0243 0.9997
vn 0.0402 -0.0212 0.9990
vn 0.0041 -0.0011 1.0000
vn 0.0396 -0.0000 0.9992
vn 0.0046 -0.0000 1.0000
vn 0.9982 -0.0027 -0.0591
vn 0.9998 -0.0202 -0.0057
vn 0.9980 -0.0221 -0.0592
vn 1.0000 -0.0034 -0.0070
vn 0.9983 -0.0000 -0.0591
vn 1.0000 -0.0002 -0.0074
vn -0.0041 -0.0038 -1.0000
vn -0.0403 -0.0009 -0.9992
vn -0.0052 -0.0000 -1.0000
vn -0.0065 -0.0229 0.9997
vn -0.0054 -0.0018 1.0000
vn -0.0046 -0.0000 1.0000
vn -0.0401 -0.0214 0.9990
vn -0.0400 -0.0024 0.9992
vn -0.0397 -0.0000 0.9992
vn 0.0062 -0.0166 -0.9998
vn -0.0055 -0.0175 -0.9998
vn 0.0055 -0.0040 -1.0000
vn 0.0054 -0.0004 -1.0000
vn 0.0395 -0.0150 -0.9991
vn 0.0403 -0.0008 -0.9992
vn -1.0000 -0.0022 -0.0072
vn -0.9997 -0.0237 -0.0087
vn -0.9998 -0.0196 0.0066
vn -1.0000 -0.0000 -0.0077
vn -0.9980 -0.0223 -0.0592
vn -0.9982 -0.0025 -0.0592
vn -0.9983 -0.0000 -0.0586
vn 1.0000 -0.0021 0.0075
vn 0.9998 -0.0197 0.0097
vn 0.9998 -0.0219 -0.0022
vn 1.0000 -0.0002 0.0077
vn 0.9981 -0.0185 0.0593
vn 0.9982 -0.0020 0.0592
vn 0.9983 -0.0000 0.0589
vn -0.9487 -0.0028 -0.3162
vn -0.7079 -0.0276 -0.7058
vn -0.9482 -0.0250 -0.3167
vn -0.9488 -0.0000 -0.3160
vn -0.7041 -0.0021 -0.7101
vn -0.7068 -0.0005 -0.7074
vn 0.3030 -0.0162 -0.9528
vn 0.3005 -0.0005 -0.9538
vn 0.7043 -0.0028 -0.7099
vn 0.7071 -0.0000 -0.7071
vn -0.3008 -0.0028 0.9537
vn -0.7056 -0.0275 0.7081
vn -0.3016 -0.0246 0.9531
vn -0.3006 -0.0000 0.9538
vn -0.7102 -0.0020 0.7040
vn -0.7073 -0.0005 0.7069
vn 0.9487 -0.0025 0.3162
vn 0.7066 -0.0262 0.7071
vn 0.9481 -0.0223 0.3173
vn 0.9488 -0.0000 0.3160
vn 0.7071 -0.0030 0.7071
vn 0.7071 -0.0000 0.7071
vn -0.3034 -0.0157 -0.9527
vn -0.3006 -0.0010 -0.9538
vn -0.0418 -0.0137 -0.9990
vn 0.9487 -0.0028 -0.3161
vn 0.9482 -0.0249 -0.3167
vn 0.7064 -0.0245 -0.7074
vn 0.9488 -0.0000 -0.3160
vn -0.9468 -0.0201 0.3212
vn -0.9487 -0.0010 0.3160
vn -0.9980 -0.0191 0.0598
vn 0.3009 -0.0029 0.9537
vn 0.3017 -0.0246 0.9531
vn 0.3007 -0.0000 0.9537
vn -0.3977 -0.9175 0.0028
vn -0.0772 -0.9970 -0.0027
vn -0.4173 -0.9086 0.0191
vn -0.8031 -0.5958 0.0029
vn -0.8110 -0.5831 0.0474
vn -0.0003 -0.9286 0.3711
vn -0.0036 -0.9981 0.0623
vn 0.0127 -0.9290 0.3698
vn 0.0012 -0.6443 0.7647
vn 0.0307 -0.6356 0.7714
vn 0.3542 -0.9352 -0.0011
vn 0.0745 -0.9972 0.0011
vn 0.3682 -0.9295 -0.0189
vn 0.7495 -0.6619 -0.0095
vn 0.7597 -0.6488 -0.0438
vn 0.3371 -0.9415 0.0072
vn -0.0007 -0.9025 -0.4307
vn 0.0039 -0.9952 -0.0974
vn -0.0138 -0.8965 -0.4429
vn -0.0015 -0.5646 -0.8253
vn -0.0332 -0.5636 -0.8254
vn -0.0133 -0.6238 0.7815
vn -0.0074 -0.9289 0.3704
vn -0.0032 -0.9978 0.0658
vn -0.0306 -0.6357 0.7713
vn -0.0122 -0.9286 0.3709
vn -0.0000 -0.9172 -0.3983
vn 0.0152 -0.5596 -0.8286
vn 0.0002 -0.8959 -0.4442
vn 0.0042 -0.9949 -0.1007
vn 0.0332 -0.5636 -0.8254
vn 0.0138 -0.8963 -0.4432
vn -0.3488 -0.9372 -0.0003
vn -0.0749 -0.9972 -0.0041
vn -0.3717 -0.9284 -0.0012
vn -0.7599 -0.6486 -0.0436
vn -0.3708 -0.9285 -0.0178
vn 0.7554 -0.6552 -0.0007
vn 0.8120 -0.5837 0.0018
vn 0.4020 -0.9156 0.0028
vn 0.8111 -0.5830 0.0473
vn 0.4198 -0.9074 0.0183
vn -0.3488 -0.9321 -0.0981
vn -0.7036 -0.6727 -0.2290
vn -0.5128 -0.6862 -0.5159
vn -0.2408 -0.9370 -0.2529
vn 0.0965 -0.9095 -0.4043
vn 0.2268 -0.6276 -0.7448
vn 0.5128 -0.6862 -0.5159
vn 0.2411 -0.9372 -0.2519
vn 0.0189 -0.9963 -0.0835
vn 0.0626 -0.9977 -0.0276
vn -0.0932 -0.9315 0.3516
vn -0.2186 -0.6667 0.7126
vn -0.5150 -0.6871 0.5125
vn -0.2435 -0.9402 0.2384
vn -0.0163 -0.9981 0.0597
vn -0.0584 -0.9981 0.0183
vn 0.3822 -0.9185 0.1008
vn 0.0733 -0.9973 -0.0029
vn 0.7330 -0.6376 0.2370
vn 0.5150 -0.6872 0.5124
vn 0.2458 -0.9399 0.2370
vn 0.0665 -0.9976 0.0172
vn 0.0216 -0.9983 0.0542
vn -0.0969 -0.9102 -0.4028
vn -0.0547 -0.9980 -0.0305
vn -0.2270 -0.6276 -0.7447
vn -0.0193 -0.9963 -0.0836
vn 0.3482 -0.9317 -0.1030
vn 0.7034 -0.6728 -0.2294
vn -0.3876 -0.9168 0.0957
vn -0.7328 -0.6377 0.2373
vn 0.0970 -0.9310 0.3519
vn 0.2187 -0.6667 0.7125
vn -0.9766 -0.2150 0.0075
vn -0.9755 -0.2113 0.0614
vn -0.9713 -0.2379 -0.0080
vn -0.7799 -0.6258 -0.0035
vn 0.0051 -0.2466 0.9691
vn 0.0409 -0.2417 0.9695
vn 0.9657 -0.2595 -0.0072
vn 0.9663 -0.2502 -0.0597
vn 0.9692 -0.2460 0.0121
vn 0.0023 -0.1973 -0.9803
vn -0.0418 -0.2000 -0.9789
vn -0.0048 -0.2446 0.9696
vn -0.0407 -0.2420 0.9694
vn 0.0104 -0.2041 -0.9789
vn 0.0422 -0.2004 -0.9788
vn -0.9655 -0.2603 -0.0119
vn -0.7551 -0.6556 -0.0100
vn -0.9663 -0.2504 -0.0595
vn 0.9760 -0.2171 0.0181
vn 0.9754 -0.2119 0.0612
vn -0.9112 -0.2695 -0.3116
vn -0.6816 -0.2779 -0.6769
vn 0.3063 -0.2431 -0.9204
vn 0.6816 -0.2780 -0.6768
vn -0.2989 -0.2660 0.9165
vn -0.6773 -0.2784 0.6810
vn 0.9147 -0.2486 0.3187
vn 0.6772 -0.2785 0.6810
vn -0.3066 -0.2430 -0.9203
vn 0.9111 -0.2695 -0.3118
vn -0.9147 -0.2483 0.3189
vn 0.2989 -0.2660 0.9165
vn -0.0019 -1.0000 -0.0026
vn -0.0111 -0.9999 0.0023
vn -0.0115 -0.9999 -0.0050
vn -0.0001 -1.0000 0.0015
vn 0.0025 -1.0000 -0.0021
vn -0.0030 -0.9999 -0.0154
vn 0.0030 -0.9999 -0.0148
vn 0.0011 -1.0000 0.0023
vn 0.0115 -0.9999 -0.0042
vn 0.0105 -0.9999 0.0018
vn -0.0037 -0.9999 0.0095
vn 0.0036 -0.9999 0.0097
vt 0.582259 0.691480
vt 0.582259 0.722609
vt 0.582259 0.691477
vt 0.622576 0.685774
vt 0.584455 0.685774
vt 0.622576 0.685774
vt 0.624772 0.722582
vt 0.624772 0.691521
vt 0.624772 0.722587
vt 0.622576 0.728288
vt 0.622577 0.728288
vt 0.584455 0.728288
vt 0.582312 0.689322
vt 0.582280 0.723900
vt 0.582278 0.690266
vt 0.624380 0.686649
vt 0.583328 0.685947
vt 0.623640 0.685937
vt 0.624710 0.688989
vt 0.582649 0.727415
vt 0.624656 0.725741
vt 0.624750 0.690000
vt 0.624752 0.723906
vt 0.624440 0.727335
vt 0.582259 0.691504
vt 0.582259 0.722571
vt 0.582259 0.691489
vt 0.622576 0.685774
vt 0.584456 0.685774
vt 0.622575 0.685774
vt 0.584456 0.685774
vt 0.624772 0.722555
vt 0.624772 0.691493
vt 0.624772 0.722571
vt 0.624772 0.691503
vt 0.584457 0.728288
vt 0.622576 0.728288
vt 0.584455 0.728288
vt 0.582259 0.722578
vt 0.582259 0.722582
vt 0.622576 0.685774
vt 0.584455 0.685774
vt 0.622575 0.685774
vt 0.624772 0.722581
vt 0.624772 0.691479
vt 0.584454 0.728288
vt 0.584455 0.728288
vt 0.622577 0.728288
vt 0.582259 0.691474
vt 0.582259 0.722585
vt 0.582259 0.691474
vt 0.582259 0.722573
vt 0.622576 0.685774
vt 0.584456 0.685774
vt 0.622576 0.685774
vt 0.584456 0.685774
vt 0.624772 0.691483
vt 0.624772 0.691575
vt 0.624772 0.722417
vt 0.584454 0.728288
vt 0.622578 0.728288
vt 0.584454 0.728288
vt 0.622576 0.728288
vt 0.582259 0.691335
vt 0.582280 0.723945
vt 0.582283 0.689838
vt 0.582259 0.722634
vt 0.622577 0.685774
vt 0.583326 0.685954
vt 0.623716 0.685961
vt 0.584454 0.685774
vt 0.624772 0.722411
vt 0.624750 0.690001
vt 0.624749 0.724210
vt 0.624772 0.691388
vt 0.584453 0.728288
vt 0.623687 0.728108
vt 0.583290 0.728100
vt 0.622579 0.728288
vt 0.582319 0.725024
vt 0.623876 0.685981
vt 0.623876 0.685980
vt 0.583155 0.685980
vt 0.583155 0.685981
vt 0.623876 0.728082
vt 0.623815 0.728098
vt 0.583357 0.728120
vt 0.623875 0.685984
vt 0.623875 0.685982
vt 0.583156 0.685982
vt 0.583156 0.728079
vt 0.583156 0.728080
vt 0.622576 0.728288
vt 0.623875 0.728080
vt 0.623876 0.685981
vt 0.583156 0.685981
vt 0.583156 0.728081
vt 0.583155 0.728082
vt 0.623876 0.728081
vt 0.623876 0.685979
vt 0.583155 0.685980
vt 0.583155 0.685979
vt 0.583155 0.728083
vt 0.623876 0.728083
vt 0.583154 0.685978
vt 0.623877 0.728085
vt 0.582290 0.689469
vt 0.582290 0.689465
vt 0.624741 0.724594
vt 0.624741 0.724597
vt 0.624741 0.689465
vt 0.582291 0.689508
vt 0.582290 0.689487
vt 0.582259 0.722562
vt 0.582290 0.724575
vt 0.624741 0.724555
vt 0.624741 0.724575
vt 0.624741 0.689487
vt 0.582290 0.689475
vt 0.582259 0.691484
vt 0.582290 0.724588
vt 0.582290 0.724594
vt 0.624741 0.724588
vt 0.624741 0.689475
vt 0.624772 0.691484
vt 0.624741 0.689469
vt 0.582290 0.689459
vt 0.582290 0.689448
vt 0.582290 0.724603
vt 0.582290 0.724597
vt 0.582290 0.724615
vt 0.624741 0.724603
vt 0.624741 0.724615
vt 0.624772 0.722590
vt 0.624741 0.689459
vt 0.624741 0.689448
vt 0.582290 0.724634
vt 0.624741 0.689429
vt 0.582638 0.727464
vt 0.582512 0.726639
vt 0.582638 0.727463
vt 0.582385 0.688249
vt 0.582385 0.688245
vt 0.582512 0.687424
vt 0.582512 0.687421
vt 0.624393 0.686599
vt 0.624393 0.686598
vt 0.624646 0.725814
vt 0.624646 0.725817
vt 0.582632 0.727494
vt 0.582501 0.726671
vt 0.582378 0.688271
vt 0.582593 0.686717
vt 0.582501 0.687391
vt 0.624399 0.686569
vt 0.624530 0.687391
vt 0.624530 0.726671
vt 0.582385 0.725778
vt 0.582378 0.725791
vt 0.582512 0.726615
vt 0.582512 0.726627
vt 0.582385 0.725797
vt 0.582291 0.724555
vt 0.582639 0.686611
vt 0.582632 0.686569
vt 0.582512 0.687448
vt 0.582512 0.687435
vt 0.582638 0.686605
vt 0.583156 0.685984
vt 0.624646 0.688284
vt 0.624653 0.688271
vt 0.624519 0.687448
vt 0.624519 0.687435
vt 0.624646 0.688265
vt 0.624741 0.689508
vt 0.624392 0.727451
vt 0.624399 0.727494
vt 0.624519 0.726615
vt 0.624519 0.726627
vt 0.624393 0.727458
vt 0.623875 0.728079
vt 0.582385 0.725808
vt 0.582512 0.726635
vt 0.582385 0.725814
vt 0.582638 0.686601
vt 0.582512 0.687428
vt 0.582638 0.686599
vt 0.624646 0.688254
vt 0.624520 0.687428
vt 0.624520 0.687424
vt 0.624646 0.688249
vt 0.624393 0.727461
vt 0.624520 0.726635
vt 0.624520 0.726639
vt 0.624393 0.727463
vt 0.582385 0.725823
vt 0.582385 0.725817
vt 0.582511 0.726645
vt 0.582512 0.726641
vt 0.582511 0.726652
vt 0.582385 0.725834
vt 0.582638 0.686596
vt 0.582638 0.686598
vt 0.582511 0.687418
vt 0.582511 0.687411
vt 0.582637 0.686593
vt 0.624646 0.688240
vt 0.624646 0.688245
vt 0.624520 0.687418
vt 0.624520 0.687421
vt 0.624520 0.687411
vt 0.624646 0.688229
vt 0.624393 0.727466
vt 0.624393 0.727464
vt 0.624520 0.726645
vt 0.624520 0.726641
vt 0.624520 0.726652
vt 0.624394 0.727470
vt 0.582385 0.725851
vt 0.582511 0.726663
vt 0.582446 0.726281
vt 0.582637 0.686587
vt 0.582511 0.687399
vt 0.582473 0.687608
vt 0.582635 0.686574
vt 0.624646 0.688211
vt 0.624520 0.687399
vt 0.624579 0.687744
vt 0.624394 0.727476
vt 0.624520 0.726663
vt 0.624564 0.726413
vt 0.624395 0.727488
vt 0.582639 0.727451
vt 0.582638 0.727458
vt 0.582385 0.688284
vt 0.582385 0.688265
vt 0.624392 0.686611
vt 0.624393 0.686605
vt 0.624646 0.725778
vt 0.624646 0.725797
vt 0.582638 0.727461
vt 0.582385 0.688254
vt 0.624393 0.686601
vt 0.624646 0.725808
vt 0.582638 0.727466
vt 0.582638 0.727470
vt 0.582385 0.688240
vt 0.582385 0.688229
vt 0.624394 0.686596
vt 0.624394 0.686593
vt 0.624646 0.725823
vt 0.624646 0.725834
vt 0.582637 0.727476
vt 0.583155 0.728085
vt 0.582636 0.727488
vt 0.582385 0.688211
vt 0.582290 0.689429
vt 0.624394 0.686587
vt 0.623877 0.685978
vt 0.624396 0.686574
vt 0.624646 0.725851
vt 0.624741 0.724634
vt 0.582259 0.723556
vt 0.582285 0.726181
vt 0.582259 0.723555
vt 0.623951 0.728204
vt 0.622622 0.728288
vt 0.623950 0.728204
vt 0.622623 0.728288
vt 0.622623 0.728288
vt 0.624747 0.687882
vt 0.624772 0.690562
vt 0.624747 0.687884
vt 0.624772 0.690504
vt 0.624772 0.690507
vt 0.584408 0.685774
vt 0.583081 0.685858
vt 0.584409 0.685774
vt 0.584409 0.728288
vt 0.584409 0.728288
vt 0.584407 0.728288
vt 0.583081 0.728204
vt 0.622622 0.685774
vt 0.584408 0.685774
vt 0.622622 0.685774
vt 0.622622 0.685774
vt 0.623950 0.685859
vt 0.623951 0.685858
vt 0.582259 0.690506
vt 0.582259 0.690502
vt 0.582259 0.723504
vt 0.582259 0.690506
vt 0.582285 0.687884
vt 0.582285 0.687882
vt 0.624772 0.723467
vt 0.624772 0.723507
vt 0.624772 0.707031
vt 0.624772 0.723552
vt 0.624747 0.726179
vt 0.624747 0.726181
vt 0.582362 0.686783
vt 0.582466 0.686449
vt 0.582362 0.686786
vt 0.582466 0.686447
vt 0.624462 0.686111
vt 0.624566 0.686447
vt 0.582569 0.727952
vt 0.582466 0.727614
vt 0.582569 0.727951
vt 0.582466 0.727615
vt 0.624669 0.727279
vt 0.624566 0.727614
vt 0.624669 0.727277
vt 0.624566 0.727615
vt 0.582569 0.686111
vt 0.583081 0.685859
vt 0.624669 0.686783
vt 0.624669 0.686786
vt 0.624566 0.686449
vt 0.582362 0.727277
vt 0.582362 0.727279
vt 0.582285 0.726179
vt 0.624462 0.727952
vt 0.624462 0.727951
vt 0.582259 0.723695
vt 0.582282 0.725885
vt 0.582285 0.726158
vt 0.582259 0.723550
vt 0.582285 0.726166
vt 0.622747 0.728288
vt 0.623808 0.728207
vt 0.623949 0.728202
vt 0.622607 0.728288
vt 0.623950 0.728203
vt 0.624772 0.690521
vt 0.624748 0.688127
vt 0.624746 0.687910
vt 0.624772 0.690549
vt 0.624747 0.687901
vt 0.624772 0.697700
vt 0.584357 0.685774
vt 0.583197 0.685856
vt 0.583082 0.685861
vt 0.584344 0.685774
vt 0.583082 0.685860
vt 0.584408 0.728288
vt 0.584314 0.728288
vt 0.583189 0.728204
vt 0.583081 0.728203
vt 0.583082 0.728202
vt 0.603516 0.685774
vt 0.622762 0.685774
vt 0.622652 0.685774
vt 0.623849 0.685859
vt 0.623950 0.685860
vt 0.623949 0.685861
vt 0.582259 0.697117
vt 0.582284 0.688081
vt 0.582259 0.690521
vt 0.582285 0.687901
vt 0.582285 0.687910
vt 0.624772 0.723530
vt 0.624772 0.723679
vt 0.624747 0.726166
vt 0.624746 0.726158
vt 0.582363 0.686810
vt 0.582362 0.686801
vt 0.582466 0.686459
vt 0.582466 0.686465
vt 0.624461 0.686120
vt 0.624461 0.686117
vt 0.624565 0.686459
vt 0.624565 0.686465
vt 0.624460 0.686129
vt 0.624624 0.686687
vt 0.582570 0.727945
vt 0.582570 0.727947
vt 0.582466 0.727606
vt 0.582466 0.727601
vt 0.582571 0.727936
vt 0.582401 0.727358
vt 0.624669 0.727258
vt 0.624748 0.725924
vt 0.624669 0.727265
vt 0.624565 0.727606
vt 0.624565 0.727601
vt 0.624668 0.727231
vt 0.624500 0.727800
vt 0.582570 0.686120
vt 0.582425 0.686627
vt 0.582570 0.686117
vt 0.582572 0.686129
vt 0.624669 0.686810
vt 0.624669 0.686801
vt 0.582363 0.727258
vt 0.582362 0.727265
vt 0.624461 0.727945
vt 0.624462 0.727947
vt 0.582259 0.723554
vt 0.582285 0.726173
vt 0.582259 0.715783
vt 0.582259 0.716704
vt 0.622622 0.728288
vt 0.624772 0.690509
vt 0.624747 0.687891
vt 0.624772 0.696545
vt 0.584430 0.685774
vt 0.583081 0.685859
vt 0.584408 0.728288
vt 0.622621 0.685774
vt 0.623950 0.685859
vt 0.582259 0.690496
vt 0.582259 0.690463
vt 0.582285 0.687891
vt 0.624772 0.723675
vt 0.624747 0.726173
vt 0.582362 0.686792
vt 0.582466 0.686453
vt 0.624462 0.686114
vt 0.624565 0.686453
vt 0.582569 0.727949
vt 0.582466 0.727611
vt 0.624669 0.727272
vt 0.624565 0.727611
vt 0.582569 0.686114
vt 0.624669 0.686792
vt 0.582362 0.727272
vt 0.624462 0.727949
vt 0.582536 0.687616
vt 0.582347 0.726790
vt 0.582407 0.686880
vt 0.582533 0.726611
vt 0.624466 0.687407
vt 0.582677 0.686119
vt 0.624380 0.686131
vt 0.624510 0.726409
vt 0.624635 0.686949
vt 0.624679 0.726880
vt 0.582573 0.727764
vt 0.624432 0.727803
s 1
f 56/1/1 50/2/2 51/3/3
f 183/4/4 27/5/5 28/6/6
f 58/7/7 52/8/8 53/9/9
f 184/10/10 29/11/11 30/12/12
f 185/13/13 79/14/14 8/15/15
f 203/16/16 80/17/17 9/18/18
f 203/16/16 67/19/19 68/20/20
f 186/21/21 81/22/22 10/23/23
f 186/21/21 205/24/24 67/19/19
f 187/25/25 59/26/26 60/27/27
f 187/25/25 8/15/15 79/14/14
f 188/28/28 34/29/29 35/30/30
f 206/31/31 9/18/18 80/17/17
f 189/32/32 61/33/33 62/34/34
f 215/35/35 10/23/23 81/22/22
f 190/36/36 36/37/37 37/38/38
f 191/39/39 55/40/40 56/1/1
f 191/39/39 60/27/27 59/26/26
f 192/41/41 31/42/42 32/43/43
f 192/41/41 35/30/30 34/29/29
f 193/44/44 57/45/45 58/7/7
f 193/44/44 62/34/34 61/33/33
f 194/46/46 184/10/10 33/47/47
f 209/48/48 37/38/38 36/37/37
f 218/49/49 63/50/50 64/51/51
f 195/52/52 51/3/3 50/2/2
f 196/53/53 42/54/54 43/55/55
f 210/56/56 28/6/6 27/5/5
f 197/57/57 65/58/58 66/59/59
f 197/57/57 53/9/9 52/8/8
f 211/60/60 44/61/61 45/62/62
f 198/63/63 30/12/12 29/11/11
f 220/64/64 1/65/65 73/66/66
f 199/67/67 64/51/51 63/50/50
f 200/68/68 38/69/69 39/70/70
f 212/71/71 43/55/55 42/54/54
f 201/72/72 2/73/73 74/74/74
f 221/75/75 66/59/59 65/58/58
f 213/76/76 40/77/77 41/78/78
f 202/79/79 45/62/62 44/61/61
f 185/13/13 68/20/20 54/80/80
f 5/81/81 28/6/6 17/82/82
f 183/4/4 5/81/81 32/43/43
f 88/83/83 31/42/42 76/84/84
f 31/42/42 88/83/83 27/5/5
f 184/10/10 90/85/85 29/11/11
f 68/20/20 82/86/86 7/87/87
f 362/88/88 35/30/30 85/89/89
f 206/31/31 12/90/90 34/29/29
f 360/91/91 37/38/38 83/92/92
f 207/93/93 7/87/87 82/86/86
f 207/93/93 14/94/94 36/37/37
f 366/95/95 32/43/43 5/81/81
f 192/41/41 85/89/89 35/30/30
f 328/96/96 34/29/29 12/90/90
f 208/5/97 76/84/84 31/42/42
f 364/97/98 33/47/47 3/98/99
f 194/46/46 83/92/92 37/38/38
f 330/99/100 36/37/37 14/94/94
f 209/48/48 78/85/101 184/10/10
f 370/82/102 43/55/55 93/100/103
f 196/53/53 17/82/82 28/6/6
f 332/101/104 27/5/5 88/83/83
f 210/56/56 20/102/105 42/54/54
f 368/103/106 45/62/62 91/103/107
f 211/60/60 15/98/108 30/12/12
f 334/104/109 29/11/11 90/85/85
f 198/63/63 22/104/110 44/61/61
f 200/68/68 93/100/103 43/55/55
f 336/105/111 42/54/54 20/102/105
f 213/76/76 91/103/107 45/62/62
f 338/106/112 44/61/61 22/104/110
f 4/107/113 51/3/3 16/108/114
f 6/109/115 53/9/9 18/110/116
f 57/45/45 89/111/117 52/8/8
f 361/112/118 60/27/27 84/113/119
f 214/114/120 11/115/121 59/26/26
f 363/116/122 62/34/34 86/117/123
f 215/35/35 13/118/124 61/33/33
f 365/119/125 56/1/1 4/107/113
f 216/120/126 84/113/119 60/27/27
f 327/121/127 59/26/26 11/115/121
f 191/39/39 75/122/128 55/40/40
f 367/123/129 58/7/7 6/109/115
f 193/44/44 86/117/123 62/34/34
f 329/124/130 61/33/33 13/118/124
f 217/125/131 77/126/132 57/45/45
f 369/127/133 64/51/51 92/128/134
f 218/49/49 16/108/114 51/3/3
f 331/129/135 50/2/2 87/130/136
f 195/52/52 19/131/137 63/50/50
f 371/132/138 66/59/59 94/133/139
f 219/134/140 18/110/116 53/9/9
f 333/135/141 52/8/8 89/111/117
f 197/57/57 21/136/142 65/58/58
f 220/64/64 92/128/134 64/51/51
f 335/137/143 63/50/50 19/131/137
f 201/72/72 94/133/139 66/59/59
f 337/138/144 65/58/58 21/136/142
f 222/139/145 103/140/146 379/141/147
f 15/98/108 379/141/147 3/98/99
f 223/142/148 16/108/114 387/143/149
f 104/144/150 387/143/149 116/145/151
f 224/146/152 17/82/82 388/147/153
f 225/148/154 18/110/116 389/149/155
f 68/20/20 7/87/87 380/150/156
f 68/20/20 380/150/156 107/151/157
f 185/13/13 8/15/15 381/152/158
f 204/153/159 381/152/158 108/154/160
f 203/16/16 9/18/18 382/155/161
f 203/16/16 382/155/161 109/156/162
f 205/24/24 186/21/21 110/157/163
f 226/158/164 79/14/14 347/159/165
f 394/160/166 347/159/165 107/151/157
f 226/158/164 111/161/167 383/162/168
f 323/163/169 383/162/168 11/115/121
f 227/164/170 80/17/17 348/165/171
f 395/166/172 348/165/171 108/154/160
f 227/164/170 112/167/173 384/168/174
f 324/169/175 384/168/174 12/90/90
f 228/170/176 81/22/22 349/171/177
f 396/172/178 349/171/177 109/156/162
f 228/170/176 113/173/179 385/174/180
f 325/175/181 385/174/180 13/118/124
f 229/176/182 82/86/86 350/177/183
f 397/178/184 350/177/183 110/157/163
f 229/176/182 114/179/185 386/180/186
f 326/181/187 386/180/186 14/94/94
f 230/182/188 11/115/121 383/162/168
f 398/183/189 383/162/168 111/161/167
f 230/182/188 103/140/146 242/184/190
f 327/121/127 242/184/190 75/122/128
f 231/185/191 12/90/90 384/168/174
f 399/186/192 384/168/174 112/167/173
f 231/185/191 104/144/150 344/187/193
f 328/96/96 344/187/193 76/84/84
f 232/188/194 13/118/124 385/174/180
f 400/189/195 385/174/180 113/173/179
f 232/188/194 105/190/196 345/191/197
f 329/124/130 345/191/197 77/126/132
f 233/192/198 14/94/94 386/180/186
f 401/193/199 386/180/186 114/179/185
f 233/192/198 106/194/200 346/195/201
f 330/99/100 346/195/201 78/85/101
f 234/196/202 87/130/136 355/197/203
f 402/198/204 355/197/203 115/199/205
f 234/196/202 119/200/206 390/201/207
f 331/129/135 390/201/207 19/131/137
f 235/202/208 88/83/83 243/203/209
f 403/204/210 243/203/209 116/145/151
f 235/202/208 120/205/211 391/206/212
f 332/101/104 391/206/212 20/102/105
f 236/207/213 89/111/117 244/208/214
f 404/209/215 244/208/214 117/210/216
f 236/207/213 121/211/217 392/212/218
f 333/135/141 392/212/218 21/136/142
f 237/213/219 90/85/85 245/214/220
f 405/215/221 245/214/220 118/216/222
f 237/213/219 122/217/223 393/218/224
f 334/104/109 393/218/224 22/104/110
f 238/219/225 19/131/137 390/201/207
f 406/220/226 390/201/207 119/200/206
f 335/137/143 99/221/227 1/65/65
f 239/222/228 20/102/105 391/206/212
f 407/223/229 391/206/212 120/205/211
f 239/222/228 100/224/230 377/225/231
f 336/105/111 377/225/231 38/69/69
f 240/226/232 21/136/142 392/212/218
f 408/227/233 392/212/218 121/211/217
f 337/138/144 101/228/234 2/73/73
f 241/229/235 22/104/110 393/218/224
f 409/230/236 393/218/224 122/217/223
f 241/229/235 102/231/237 378/232/238
f 338/106/112 378/232/238 40/77/77
f 242/184/190 115/199/205 355/197/203
f 75/122/128 355/197/203 87/130/136
f 115/199/205 242/184/190 103/140/146
f 243/203/209 76/84/84 344/187/193
f 77/126/132 244/208/214 89/111/117
f 244/208/214 77/126/132 345/191/197
f 117/210/216 345/191/197 105/190/196
f 78/85/101 245/214/220 90/85/85
f 245/214/220 78/85/101 346/195/201
f 118/216/222 346/195/201 106/194/200
f 54/80/80 107/151/157 347/159/165
f 54/80/80 347/159/165 79/14/14
f 204/153/159 108/154/160 348/165/171
f 204/153/159 348/165/171 80/17/17
f 67/19/19 109/156/162 349/171/177
f 67/19/19 349/171/177 81/22/22
f 205/24/24 110/157/163 350/177/183
f 205/24/24 350/177/183 82/86/86
f 246/233/239 107/151/157 380/150/156
f 360/91/91 380/150/156 7/87/87
f 246/233/239 83/92/92 351/234/240
f 394/160/166 351/234/240 111/161/167
f 247/235/241 108/154/160 381/152/158
f 361/112/118 381/152/158 8/15/15
f 247/235/241 84/113/119 352/236/242
f 395/166/172 352/236/242 112/167/173
f 248/237/243 109/156/162 382/155/161
f 362/88/88 382/155/161 9/18/18
f 248/237/243 85/89/89 353/238/244
f 396/172/178 353/238/244 113/173/179
f 249/239/245 110/157/163 186/21/21
f 363/116/122 186/21/21 10/23/23
f 249/239/245 86/117/123 354/240/246
f 397/178/184 354/240/246 114/179/185
f 250/241/247 111/161/167 351/234/240
f 364/97/98 351/234/240 83/92/92
f 250/241/247 3/98/99 379/141/147
f 398/183/189 379/141/147 103/140/146
f 251/242/248 112/167/173 352/236/242
f 365/119/125 352/236/242 84/113/119
f 251/242/248 4/107/113 223/142/148
f 399/186/192 223/142/148 104/144/150
f 252/243/249 113/173/179 353/238/244
f 366/95/95 353/238/244 85/89/89
f 252/243/249 5/81/81 224/146/152
f 400/189/195 224/146/152 105/190/196
f 253/244/250 114/179/185 354/240/246
f 367/123/129 354/240/246 86/117/123
f 253/244/250 6/109/115 225/148/154
f 401/193/199 225/148/154 106/194/200
f 254/245/251 115/199/205 222/139/145
f 368/103/106 222/139/145 15/98/108
f 254/245/251 91/103/107 356/246/252
f 402/198/204 356/246/252 119/200/206
f 255/247/253 116/145/151 387/143/149
f 369/127/133 387/143/149 16/108/114
f 255/247/253 92/128/134 357/248/254
f 403/204/210 357/248/254 120/205/211
f 256/249/255 117/210/216 388/147/153
f 370/82/102 388/147/153 17/82/82
f 256/249/255 93/100/103 358/250/256
f 404/209/215 358/250/256 121/211/217
f 257/251/257 118/216/222 389/149/155
f 371/132/138 389/149/155 18/110/116
f 257/251/257 94/133/139 359/252/258
f 405/215/221 359/252/258 122/217/223
f 258/253/259 119/200/206 356/246/252
f 372/254/260 356/246/252 91/103/107
f 258/253/259 41/78/78 342/255/261
f 406/220/226 342/255/261 99/221/227
f 259/256/262 120/205/211 357/248/254
f 373/257/263 357/248/254 92/128/134
f 259/256/262 73/66/66 100/224/230
f 260/258/264 121/211/217 358/250/256
f 374/259/265 358/250/256 93/100/103
f 260/258/264 39/70/70 343/260/266
f 408/227/233 343/260/266 101/228/234
f 261/261/267 122/217/223 359/252/258
f 375/262/268 359/252/258 94/133/139
f 261/261/267 74/74/74 102/231/237
f 262/263/269 125/264/270 131/265/271
f 411/266/272 23/267/273 146/268/274
f 265/269/275 126/266/276 127/270/277
f 410/271/278 48/272/279 144/273/280
f 263/274/281 124/271/282 133/275/283
f 264/276/284 123/277/285 129/278/286
f 265/269/275 24/279/287 23/267/273
f 266/280/288 127/270/277 128/281/289
f 266/280/288 71/282/290 24/279/287
f 413/282/291 128/281/289 137/282/292
f 264/276/284 26/283/293 25/284/294
f 267/285/295 129/278/286 130/286/296
f 267/285/295 70/287/297 26/283/293
f 70/287/297 130/286/296 136/288/298
f 268/289/299 47/290/300 46/291/301
f 268/289/299 131/265/271 132/292/302
f 268/289/299 69/293/303 47/290/300
f 412/294/304 132/292/302 135/294/305
f 269/295/306 49/296/307 439/297/308
f 263/274/281 439/297/308 48/272/279
f 269/295/306 133/275/283 134/298/309
f 269/295/306 72/299/310 49/296/307
f 414/300/311 134/298/309 138/300/312
f 270/301/313 155/302/314 440/303/315
f 412/294/304 440/303/315 69/293/303
f 270/301/313 135/294/305 419/301/316
f 415/304/317 419/301/316 139/304/318
f 271/305/319 136/288/298 420/305/320
f 416/306/321 420/305/320 140/306/322
f 272/307/323 157/308/324 441/309/325
f 413/282/291 441/309/325 71/282/290
f 272/307/323 137/282/292 421/307/326
f 417/310/327 421/307/326 141/310/328
f 273/311/329 158/312/330 442/313/331
f 414/300/311 442/313/331 72/299/310
f 273/311/329 138/300/312 422/311/332
f 418/314/333 422/311/332 142/314/334
f 415/304/317 274/315/335 155/302/314
f 274/315/335 139/304/318 423/315/336
f 143/316/337 423/315/336 123/277/285
f 275/317/338 144/273/280 443/318/339
f 416/306/321 443/318/339 156/319/340
f 275/317/338 140/306/322 424/317/341
f 410/271/278 424/317/341 124/271/282
f 417/310/327 276/320/342 157/308/324
f 276/320/342 141/310/328 425/321/343
f 145/322/344 425/321/343 125/264/270
f 277/323/345 146/268/274 444/324/346
f 418/314/333 444/324/346 158/312/330
f 277/323/345 142/314/334 426/323/347
f 411/266/272 426/323/347 126/266/276
f 278/325/348 151/326/349 447/327/350
f 457/328/351 447/327/350 161/329/352
f 281/330/353 147/331/354 448/332/355
f 163/333/356 448/332/355 162/334/357
f 279/335/358 153/336/359 446/337/360
f 169/338/361 446/337/360 160/339/362
f 279/335/358 169/338/361 287/340/363
f 280/341/364 149/342/365 445/343/366
f 165/344/367 445/343/366 159/345/368
f 281/330/353 164/346/369 282/347/370
f 147/331/354 282/347/370 148/348/371
f 282/347/370 173/349/372 433/350/373
f 283/351/374 149/342/365 280/341/364
f 166/352/375 280/341/364 165/344/367
f 283/351/374 166/352/375 284/353/376
f 149/342/365 284/353/376 150/354/377
f 284/353/376 172/355/378 432/356/379
f 285/357/380 151/326/349 278/325/348
f 151/326/349 285/357/380 152/358/381
f 286/359/382 152/358/381 285/357/380
f 286/359/382 171/360/383 431/361/384
f 458/297/385 287/340/363 169/338/361
f 287/340/363 170/362/386 288/363/387
f 288/363/387 174/364/388 434/365/389
f 289/366/390 152/358/381 431/361/384
f 459/367/391 431/361/384 171/360/383
f 289/366/390 175/368/392 453/369/393
f 290/370/394 150/354/377 432/356/379
f 460/371/395 432/356/379 172/355/378
f 290/370/394 176/372/396 454/373/397
f 339/374/398 454/373/397 96/375/399
f 291/376/400 148/348/371 433/350/373
f 461/377/401 433/350/373 173/349/372
f 291/376/400 177/378/402 455/379/403
f 340/380/404 455/379/403 97/381/405
f 292/382/406 154/383/407 434/365/389
f 462/384/408 434/365/389 174/364/388
f 292/382/406 178/385/409 456/386/410
f 341/387/411 456/386/410 98/388/412
f 293/389/413 95/390/414 453/369/393
f 463/391/415 453/369/393 175/368/392
f 293/389/413 159/345/368 445/343/366
f 376/392/416 445/343/366 149/342/365
f 294/393/417 96/375/399 454/373/397
f 464/394/418 454/373/397 176/372/396
f 294/393/417 160/339/362 446/337/360
f 96/375/399 446/337/360 153/336/359
f 295/395/419 97/381/405 455/379/403
f 465/396/420 455/379/403 177/378/402
f 295/395/419 161/329/352 447/327/350
f 97/381/405 447/327/350 151/326/349
f 296/397/421 98/388/412 456/386/410
f 466/398/422 456/386/410 178/385/409
f 296/397/421 162/334/357 448/332/355
f 98/388/412 448/332/355 147/331/354
f 297/399/423 161/329/352 429/400/424
f 46/291/301 429/400/424 145/322/344
f 297/399/423 46/291/301 303/401/425
f 457/328/351 303/401/425 167/402/426
f 299/403/427 162/334/357 430/334/428
f 23/267/273 430/334/428 146/268/274
f 298/404/429 160/339/362 428/405/430
f 48/272/279 428/405/430 144/273/280
f 298/404/429 48/272/279 305/406/431
f 301/407/432 159/345/368 427/408/433
f 25/284/294 427/408/433 143/316/337
f 299/403/427 24/279/287 300/409/434
f 163/333/356 300/409/434 164/346/369
f 300/409/434 71/282/290 451/349/435
f 164/346/369 451/349/435 173/349/372
f 26/283/293 301/407/432 25/284/294
f 301/407/432 26/283/293 302/410/436
f 302/410/436 70/287/297 450/411/437
f 166/352/375 450/411/437 172/355/378
f 303/401/425 47/290/300 304/412/438
f 167/402/426 304/412/438 168/413/439
f 304/412/438 69/293/303 449/414/440
f 168/413/439 449/414/440 171/360/383
f 439/297/308 305/406/431 48/272/279
f 305/406/431 49/296/307 306/415/441
f 458/297/385 306/415/441 170/362/386
f 306/415/441 72/299/310 452/416/442
f 170/362/386 452/416/442 174/364/388
f 307/417/443 171/360/383 449/414/440
f 440/303/315 449/414/440 69/293/303
f 307/417/443 155/302/314 435/418/444
f 459/367/391 435/418/444 175/368/392
f 308/419/445 172/355/378 450/411/437
f 271/305/319 450/411/437 70/287/297
f 308/419/445 156/319/340 436/420/446
f 460/371/395 436/420/446 176/372/396
f 309/421/447 173/349/372 451/349/435
f 441/309/325 451/349/435 71/282/290
f 309/421/447 157/308/324 437/422/448
f 461/377/401 437/422/448 177/378/402
f 310/423/449 174/364/388 452/416/442
f 442/313/331 452/416/442 72/299/310
f 310/423/449 158/312/330 438/424/450
f 462/384/408 438/424/450 178/385/409
f 311/425/451 175/368/392 435/418/444
f 274/315/335 435/418/444 155/302/314
f 311/425/451 143/316/337 427/408/433
f 463/391/415 427/408/433 159/345/368
f 312/426/452 176/372/396 436/420/446
f 443/318/339 436/420/446 156/319/340
f 312/426/452 144/273/280 428/405/430
f 464/394/418 428/405/430 160/339/362
f 313/427/453 177/378/402 437/422/448
f 276/320/342 437/422/448 157/308/324
f 313/427/453 145/322/344 429/400/424
f 465/396/420 429/400/424 161/329/352
f 314/428/454 178/385/409 438/424/450
f 444/324/346 438/424/450 158/312/330
f 314/428/454 146/268/274 430/334/428
f 466/398/422 430/334/428 162/334/357
f 1/65/65 182/429/455 73/66/66
f 315/430/456 152/358/381 321/431/457
f 320/432/458 321/431/457 182/429/455
f 179/433/459 38/69/69 182/429/455
f 316/434/460 150/354/377 319/435/461
f 2/73/73 181/436/462 74/74/74
f 317/437/463 181/436/462 179/433/459
f 154/383/407 317/437/463 153/336/359
f 317/437/463 154/383/407 322/438/464
f 317/437/463 322/438/464 181/436/462
f 181/436/462 180/439/465 320/432/458
f 40/77/77 320/432/458 41/78/78
f 318/440/466 148/348/371 180/439/465
f 180/439/465 315/430/456 320/432/458
f 342/255/261 320/432/458 99/221/227
f 340/380/404 180/439/465 148/348/371
f 95/390/414 321/431/457 152/358/381
f 343/260/266 179/433/459 101/228/234
f 339/374/398 319/435/461 150/354/377
f 319/435/461 96/375/399 317/437/463
f 341/387/411 322/438/464 154/383/407
f 322/438/464 98/388/412 318/440/466
f 99/221/227 320/432/458 1/65/65
f 377/225/231 182/429/455 38/69/69
f 376/392/416 321/431/457 95/390/414
f 101/228/234 179/433/459 2/73/73
f 378/232/238 181/436/462 40/77/77
f 55/40/40 50/2/2 56/1/1
f 183/4/4 31/42/42 27/5/5
f 31/42/42 183/4/4 32/43/43
f 57/45/45 52/8/8 58/7/7
f 33/47/47 184/10/10 30/12/12
f 185/13/13 54/80/80 79/14/14
f 186/21/21 67/19/19 81/22/22
f 187/25/25 214/114/120 59/26/26
f 214/114/120 187/25/25 79/14/14
f 188/28/28 206/31/31 34/29/29
f 206/31/31 188/28/28 9/18/18
f 189/32/32 215/35/35 61/33/33
f 215/35/35 189/32/32 10/23/23
f 190/36/36 207/93/93 36/37/37
f 207/93/93 190/36/36 7/87/87
f 216/120/126 191/39/39 56/1/1
f 191/39/39 216/120/126 60/27/27
f 192/41/41 208/5/97 31/42/42
f 208/5/97 192/41/41 34/29/29
f 193/44/44 217/125/131 57/45/45
f 217/125/131 193/44/44 61/33/33
f 194/46/46 209/48/48 184/10/10
f 209/48/48 194/46/46 37/38/38
f 218/49/49 195/52/52 63/50/50
f 195/52/52 218/49/49 51/3/3
f 196/53/53 210/56/56 42/54/54
f 210/56/56 196/53/53 28/6/6
f 219/134/140 197/57/57 66/59/59
f 197/57/57 219/134/140 53/9/9
f 211/60/60 198/63/63 44/61/61
f 198/63/63 211/60/60 30/12/12
f 220/64/64 199/67/67 1/65/65
f 199/67/67 220/64/64 64/51/51
f 200/68/68 212/71/71 38/69/69
f 212/71/71 200/68/68 43/55/55
f 201/72/72 221/75/75 2/73/73
f 221/75/75 201/72/72 66/59/59
f 213/76/76 202/79/79 40/77/77
f 202/79/79 213/76/76 45/62/62
f 68/20/20 185/13/13 204/153/159
f 5/81/81 183/4/4 28/6/6
f 15/98/108 33/47/47 30/12/12
f 33/47/47 15/98/108 3/98/99
f 184/10/10 78/85/101 90/85/85
f 204/153/159 203/16/16 68/20/20
f 203/16/16 204/153/159 80/17/17
f 205/24/24 68/20/20 67/19/19
f 68/20/20 205/24/24 82/86/86
f 362/88/88 188/28/28 35/30/30
f 188/28/28 362/88/88 9/18/18
f 324/169/175 206/31/31 80/17/17
f 206/31/31 324/169/175 12/90/90
f 360/91/91 190/36/36 37/38/38
f 190/36/36 360/91/91 7/87/87
f 326/181/187 207/93/93 82/86/86
f 207/93/93 326/181/187 14/94/94
f 366/95/95 192/41/41 32/43/43
f 192/41/41 366/95/95 85/89/89
f 328/96/96 208/5/97 34/29/29
f 208/5/97 328/96/96 76/84/84
f 364/97/98 194/46/46 33/47/47
f 194/46/46 364/97/98 83/92/92
f 330/99/100 209/48/48 36/37/37
f 209/48/48 330/99/100 78/85/101
f 370/82/102 196/53/53 43/55/55
f 196/53/53 370/82/102 17/82/82
f 332/101/104 210/56/56 27/5/5
f 210/56/56 332/101/104 20/102/105
f 368/103/106 211/60/60 45/62/62
f 211/60/60 368/103/106 15/98/108
f 334/104/109 198/63/63 29/11/11
f 198/63/63 334/104/109 22/104/110
f 374/259/265 200/68/68 39/70/70
f 200/68/68 374/259/265 93/100/103
f 336/105/111 212/71/71 42/54/54
f 212/71/71 336/105/111 38/69/69
f 372/254/260 213/76/76 41/78/78
f 213/76/76 372/254/260 91/103/107
f 338/106/112 202/79/79 44/61/61
f 202/79/79 338/106/112 40/77/77
f 321/431/457 316/434/460 182/429/455
f 4/107/113 56/1/1 51/3/3
f 75/122/128 50/2/2 55/40/40
f 50/2/2 75/122/128 87/130/136
f 6/109/115 58/7/7 53/9/9
f 57/45/45 77/126/132 89/111/117
f 361/112/118 187/25/25 60/27/27
f 187/25/25 361/112/118 8/15/15
f 323/163/169 214/114/120 79/14/14
f 214/114/120 323/163/169 11/115/121
f 363/116/122 189/32/32 62/34/34
f 189/32/32 363/116/122 10/23/23
f 325/175/181 215/35/35 81/22/22
f 215/35/35 325/175/181 13/118/124
f 365/119/125 216/120/126 56/1/1
f 216/120/126 365/119/125 84/113/119
f 327/121/127 191/39/39 59/26/26
f 191/39/39 327/121/127 75/122/128
f 367/123/129 193/44/44 58/7/7
f 193/44/44 367/123/129 86/117/123
f 329/124/130 217/125/131 61/33/33
f 217/125/131 329/124/130 77/126/132
f 369/127/133 218/49/49 64/51/51
f 218/49/49 369/127/133 16/108/114
f 331/129/135 195/52/52 50/2/2
f 195/52/52 331/129/135 19/131/137
f 371/132/138 219/134/140 66/59/59
f 219/134/140 371/132/138 18/110/116
f 333/135/141 197/57/57 52/8/8
f 197/57/57 333/135/141 21/136/142
f 373/257/263 220/64/64 73/66/66
f 220/64/64 373/257/263 92/128/134
f 335/137/143 199/67/67 63/50/50
f 199/67/67 335/137/143 1/65/65
f 375/262/268 201/72/72 74/74/74
f 201/72/72 375/262/268 94/133/139
f 337/138/144 221/75/75 65/58/58
f 221/75/75 337/138/144 2/73/73
f 179/433/459 319/435/461 317/437/463
f 222/139/145 115/199/205 103/140/146
f 15/98/108 222/139/145 379/141/147
f 223/142/148 4/107/113 16/108/114
f 104/144/150 223/142/148 387/143/149
f 224/146/152 5/81/81 17/82/82
f 117/210/216 224/146/152 388/147/153
f 224/146/152 117/210/216 105/190/196
f 225/148/154 6/109/115 18/110/116
f 118/216/222 225/148/154 389/149/155
f 225/148/154 118/216/222 106/194/200
f 204/153/159 185/13/13 381/152/158
f 226/158/164 323/163/169 79/14/14
f 394/160/166 226/158/164 347/159/165
f 226/158/164 394/160/166 111/161/167
f 323/163/169 226/158/164 383/162/168
f 227/164/170 324/169/175 80/17/17
f 395/166/172 227/164/170 348/165/171
f 227/164/170 395/166/172 112/167/173
f 324/169/175 227/164/170 384/168/174
f 228/170/176 325/175/181 81/22/22
f 396/172/178 228/170/176 349/171/177
f 228/170/176 396/172/178 113/173/179
f 325/175/181 228/170/176 385/174/180
f 229/176/182 326/181/187 82/86/86
f 397/178/184 229/176/182 350/177/183
f 229/176/182 397/178/184 114/179/185
f 326/181/187 229/176/182 386/180/186
f 230/182/188 327/121/127 11/115/121
f 398/183/189 230/182/188 383/162/168
f 230/182/188 398/183/189 103/140/146
f 327/121/127 230/182/188 242/184/190
f 231/185/191 328/96/96 12/90/90
f 399/186/192 231/185/191 384/168/174
f 231/185/191 399/186/192 104/144/150
f 328/96/96 231/185/191 344/187/193
f 232/188/194 329/124/130 13/118/124
f 400/189/195 232/188/194 385/174/180
f 232/188/194 400/189/195 105/190/196
f 329/124/130 232/188/194 345/191/197
f 233/192/198 330/99/100 14/94/94
f 401/193/199 233/192/198 386/180/186
f 233/192/198 401/193/199 106/194/200
f 330/99/100 233/192/198 346/195/201
f 234/196/202 331/129/135 87/130/136
f 402/198/204 234/196/202 355/197/203
f 234/196/202 402/198/204 119/200/206
f 331/129/135 234/196/202 390/201/207
f 235/202/208 332/101/104 88/83/83
f 403/204/210 235/202/208 243/203/209
f 235/202/208 403/204/210 120/205/211
f 332/101/104 235/202/208 391/206/212
f 236/207/213 333/135/141 89/111/117
f 404/209/215 236/207/213 244/208/214
f 236/207/213 404/209/215 121/211/217
f 333/135/141 236/207/213 392/212/218
f 237/213/219 334/104/109 90/85/85
f 405/215/221 237/213/219 245/214/220
f 237/213/219 405/215/221 122/217/223
f 334/104/109 237/213/219 393/218/224
f 238/219/225 335/137/143 19/131/137
f 406/220/226 238/219/225 390/201/207
f 238/219/225 406/220/226 99/221/227
f 335/137/143 238/219/225 99/221/227
f 239/222/228 336/105/111 20/102/105
f 407/223/229 239/222/228 391/206/212
f 239/222/228 407/223/229 100/224/230
f 336/105/111 239/222/228 377/225/231
f 240/226/232 337/138/144 21/136/142
f 408/227/233 240/226/232 392/212/218
f 240/226/232 408/227/233 101/228/234
f 337/138/144 240/226/232 101/228/234
f 241/229/235 338/106/112 22/104/110
f 409/230/236 241/229/235 393/218/224
f 241/229/235 409/230/236 102/231/237
f 338/106/112 241/229/235 378/232/238
f 75/122/128 242/184/190 355/197/203
f 243/203/209 104/144/150 116/145/151
f 243/203/209 88/83/83 76/84/84
f 104/144/150 243/203/209 344/187/193
f 117/210/216 244/208/214 345/191/197
f 118/216/222 245/214/220 346/195/201
f 54/80/80 68/20/20 107/151/157
f 67/19/19 203/16/16 109/156/162
f 246/233/239 394/160/166 107/151/157
f 360/91/91 246/233/239 380/150/156
f 246/233/239 360/91/91 83/92/92
f 394/160/166 246/233/239 351/234/240
f 247/235/241 395/166/172 108/154/160
f 361/112/118 247/235/241 381/152/158
f 247/235/241 361/112/118 84/113/119
f 395/166/172 247/235/241 352/236/242
f 248/237/243 396/172/178 109/156/162
f 362/88/88 248/237/243 382/155/161
f 248/237/243 362/88/88 85/89/89
f 396/172/178 248/237/243 353/238/244
f 249/239/245 397/178/184 110/157/163
f 363/116/122 249/239/245 186/21/21
f 249/239/245 363/116/122 86/117/123
f 397/178/184 249/239/245 354/240/246
f 250/241/247 398/183/189 111/161/167
f 364/97/98 250/241/247 351/234/240
f 250/241/247 364/97/98 3/98/99
f 398/183/189 250/241/247 379/141/147
f 251/242/248 399/186/192 112/167/173
f 365/119/125 251/242/248 352/236/242
f 251/242/248 365/119/125 4/107/113
f 399/186/192 251/242/248 223/142/148
f 252/243/249 400/189/195 113/173/179
f 366/95/95 252/243/249 353/238/244
f 252/243/249 366/95/95 5/81/81
f 400/189/195 252/243/249 224/146/152
f 253/244/250 401/193/199 114/179/185
f 367/123/129 253/244/250 354/240/246
f 253/244/250 367/123/129 6/109/115
f 401/193/199 253/244/250 225/148/154
f 254/245/251 402/198/204 115/199/205
f 368/103/106 254/245/251 222/139/145
f 254/245/251 368/103/106 91/103/107
f 402/198/204 254/245/251 356/246/252
f 255/247/253 403/204/210 116/145/151
f 369/127/133 255/247/253 387/143/149
f 255/247/253 369/127/133 92/128/134
f 403/204/210 255/247/253 357/248/254
f 256/249/255 404/209/215 117/210/216
f 370/82/102 256/249/255 388/147/153
f 256/249/255 370/82/102 93/100/103
f 404/209/215 256/249/255 358/250/256
f 257/251/257 405/215/221 118/216/222
f 371/132/138 257/251/257 389/149/155
f 257/251/257 371/132/138 94/133/139
f 405/215/221 257/251/257 359/252/258
f 258/253/259 406/220/226 119/200/206
f 372/254/260 258/253/259 356/246/252
f 258/253/259 372/254/260 41/78/78
f 406/220/226 258/253/259 342/255/261
f 259/256/262 407/223/229 120/205/211
f 373/257/263 259/256/262 357/248/254
f 259/256/262 373/257/263 73/66/66
f 407/223/229 259/256/262 100/224/230
f 260/258/264 408/227/233 121/211/217
f 374/259/265 260/258/264 358/250/256
f 260/258/264 374/259/265 39/70/70
f 408/227/233 260/258/264 343/260/266
f 261/261/267 409/230/236 122/217/223
f 375/262/268 261/261/267 359/252/258
f 261/261/267 375/262/268 74/74/74
f 409/230/236 261/261/267 102/231/237
f 145/322/344 262/263/269 46/291/301
f 262/263/269 145/322/344 125/264/270
f 411/266/272 265/269/275 23/267/273
f 265/269/275 411/266/272 126/266/276
f 410/271/278 263/274/281 48/272/279
f 263/274/281 410/271/278 124/271/282
f 143/316/337 264/276/284 25/284/294
f 264/276/284 143/316/337 123/277/285
f 265/269/275 266/280/288 24/279/287
f 266/280/288 265/269/275 127/270/277
f 266/280/288 413/282/291 71/282/290
f 413/282/291 266/280/288 128/281/289
f 264/276/284 267/285/295 26/283/293
f 267/285/295 264/276/284 129/278/286
f 70/287/297 267/285/295 130/286/296
f 262/263/269 268/289/299 46/291/301
f 268/289/299 262/263/269 131/265/271
f 268/289/299 412/294/304 69/293/303
f 412/294/304 268/289/299 132/292/302
f 263/274/281 269/295/306 439/297/308
f 269/295/306 263/274/281 133/275/283
f 269/295/306 414/300/311 72/299/310
f 414/300/311 269/295/306 134/298/309
f 270/301/313 415/304/317 155/302/314
f 412/294/304 270/301/313 440/303/315
f 270/301/313 412/294/304 135/294/305
f 415/304/317 270/301/313 419/301/316
f 271/305/319 416/306/321 156/319/340
f 271/305/319 70/287/297 136/288/298
f 416/306/321 271/305/319 420/305/320
f 272/307/323 417/310/327 157/308/324
f 413/282/291 272/307/323 441/309/325
f 272/307/323 413/282/291 137/282/292
f 417/310/327 272/307/323 421/307/326
f 273/311/329 418/314/333 158/312/330
f 414/300/311 273/311/329 442/313/331
f 273/311/329 414/300/311 138/300/312
f 418/314/333 273/311/329 422/311/332
f 274/315/335 415/304/317 139/304/318
f 143/316/337 274/315/335 423/315/336
f 275/317/338 410/271/278 144/273/280
f 416/306/321 275/317/338 443/318/339
f 275/317/338 416/306/321 140/306/322
f 410/271/278 275/317/338 424/317/341
f 276/320/342 417/310/327 141/310/328
f 145/322/344 276/320/342 425/321/343
f 277/323/345 411/266/272 146/268/274
f 418/314/333 277/323/345 444/324/346
f 277/323/345 418/314/333 142/314/334
f 411/266/272 277/323/345 426/323/347
f 457/328/351 278/325/348 447/327/350
f 278/325/348 457/328/351 167/402/426
f 163/333/356 281/330/353 448/332/355
f 169/338/361 279/335/358 446/337/360
f 153/336/359 279/335/358 287/340/363
f 165/344/367 280/341/364 445/343/366
f 281/330/353 163/333/356 164/346/369
f 147/331/354 281/330/353 282/347/370
f 282/347/370 164/346/369 173/349/372
f 148/348/371 282/347/370 433/350/373
f 166/352/375 283/351/374 280/341/364
f 149/342/365 283/351/374 284/353/376
f 284/353/376 166/352/375 172/355/378
f 150/354/377 284/353/376 432/356/379
f 167/402/426 285/357/380 278/325/348
f 285/357/380 167/402/426 168/413/439
f 168/413/439 286/359/382 285/357/380
f 286/359/382 168/413/439 171/360/383
f 152/358/381 286/359/382 431/361/384
f 287/340/363 154/383/407 153/336/359
f 287/340/363 458/297/385 170/362/386
f 154/383/407 287/340/363 288/363/387
f 288/363/387 170/362/386 174/364/388
f 154/383/407 288/363/387 434/365/389
f 289/366/390 95/390/414 152/358/381
f 459/367/391 289/366/390 431/361/384
f 289/366/390 459/367/391 175/368/392
f 95/390/414 289/366/390 453/369/393
f 290/370/394 339/374/398 150/354/377
f 460/371/395 290/370/394 432/356/379
f 290/370/394 460/371/395 176/372/396
f 339/374/398 290/370/394 454/373/397
f 291/376/400 340/380/404 148/348/371
f 461/377/401 291/376/400 433/350/373
f 291/376/400 461/377/401 177/378/402
f 340/380/404 291/376/400 455/379/403
f 292/382/406 341/387/411 154/383/407
f 462/384/408 292/382/406 434/365/389
f 292/382/406 462/384/408 178/385/409
f 341/387/411 292/382/406 456/386/410
f 293/389/413 376/392/416 95/390/414
f 463/391/415 293/389/413 453/369/393
f 293/389/413 463/391/415 159/345/368
f 376/392/416 293/389/413 445/343/366
f 464/394/418 294/393/417 454/373/397
f 294/393/417 464/394/418 160/339/362
f 96/375/399 294/393/417 446/337/360
f 465/396/420 295/395/419 455/379/403
f 295/395/419 465/396/420 161/329/352
f 97/381/405 295/395/419 447/327/350
f 466/398/422 296/397/421 456/386/410
f 296/397/421 466/398/422 162/334/357
f 98/388/412 296/397/421 448/332/355
f 297/399/423 457/328/351 161/329/352
f 46/291/301 297/399/423 429/400/424
f 457/328/351 297/399/423 303/401/425
f 299/403/427 163/333/356 162/334/357
f 23/267/273 299/403/427 430/334/428
f 298/404/429 169/338/361 160/339/362
f 48/272/279 298/404/429 428/405/430
f 169/338/361 298/404/429 305/406/431
f 301/407/432 165/344/367 159/345/368
f 25/284/294 301/407/432 427/408/433
f 299/403/427 23/267/273 24/279/287
f 163/333/356 299/403/427 300/409/434
f 300/409/434 24/279/287 71/282/290
f 164/346/369 300/409/434 451/349/435
f 301/407/432 166/352/375 165/344/367
f 166/352/375 301/407/432 302/410/436
f 302/410/436 26/283/293 70/287/297
f 166/352/375 302/410/436 450/411/437
f 303/401/425 46/291/301 47/290/300
f 167/402/426 303/401/425 304/412/438
f 304/412/438 47/290/300 69/293/303
f 168/413/439 304/412/438 449/414/440
f 305/406/431 458/297/385 169/338/361
f 305/406/431 439/297/308 49/296/307
f 458/297/385 305/406/431 306/415/441
f 306/415/441 49/296/307 72/299/310
f 170/362/386 306/415/441 452/416/442
f 307/417/443 459/367/391 171/360/383
f 440/303/315 307/417/443 449/414/440
f 307/417/443 440/303/315 155/302/314
f 459/367/391 307/417/443 435/418/444
f 308/419/445 460/371/395 172/355/378
f 271/305/319 308/419/445 450/411/437
f 308/419/445 271/305/319 156/319/340
f 460/371/395 308/419/445 436/420/446
f 309/421/447 461/377/401 173/349/372
f 441/309/325 309/421/447 451/349/435
f 309/421/447 441/309/325 157/308/324
f 461/377/401 309/421/447 437/422/448
f 310/423/449 462/384/408 174/364/388
f 442/313/331 310/423/449 452/416/442
f 310/423/449 442/313/331 158/312/330
f 462/384/408 310/423/449 438/424/450
f 311/425/451 463/391/415 175/368/392
f 274/315/335 311/425/451 435/418/444
f 311/425/451 274/315/335 143/316/337
f 463/391/415 311/425/451 427/408/433
f 312/426/452 464/394/418 176/372/396
f 443/318/339 312/426/452 436/420/446
f 312/426/452 443/318/339 144/273/280
f 464/394/418 312/426/452 428/405/430
f 313/427/453 465/396/420 177/378/402
f 276/320/342 313/427/453 437/422/448
f 313/427/453 276/320/342 145/322/344
f 465/396/420 313/427/453 429/400/424
f 314/428/454 466/398/422 178/385/409
f 444/324/346 314/428/454 438/424/450
f 314/428/454 444/324/346 146/268/274
f 466/398/422 314/428/454 430/334/428
f 315/430/456 151/326/349 152/358/381
f 320/432/458 315/430/456 321/431/457
f 179/433/459 39/70/70 38/69/69
f 316/434/460 179/433/459 182/429/455
f 316/434/460 149/342/365 150/354/377
f 179/433/459 316/434/460 319/435/461
f 40/77/77 181/436/462 320/432/458
f 318/440/466 147/331/354 148/348/371
f 181/436/462 318/440/466 180/439/465
f 1/65/65 320/432/458 182/429/455
f 322/438/464 318/440/466 181/436/462
f 2/73/73 179/433/459 181/436/462
f 320/432/458 342/255/261 41/78/78
f 180/439/465 340/380/404 97/381/405
f 182/429/455 100/224/230 73/66/66
f 179/433/459 343/260/266 39/70/70
f 319/435/461 339/374/398 96/375/399
f 181/436/462 102/231/237 74/74/74
f 322/438/464 341/387/411 98/388/412
f 97/381/405 315/430/456 180/439/465
f 315/430/456 97/381/405 151/326/349
f 182/429/455 377/225/231 100/224/230
f 376/392/416 316/434/460 321/431/457
f 316/434/460 376/392/416 149/342/365
f 317/437/463 96/375/399 153/336/359
f 181/436/462 378/232/238 102/231/237
f 318/440/466 98/388/412 147/331/354
