# Blender 4.0.0
# www.blender.org
o door
v -0.19831100 -0.19155700 -0.11995950
v -0.19831100 -0.19155700 0.12712150
v -0.19833800 -0.21019500 0.12712150
v -0.19833800 -0.21019500 -0.11995950
v 0.18689600 -0.19171000 -0.11995950
v 0.18687300 -0.21034800 0.15121150
v 0.18829900 -0.20965900 0.15121150
v 0.18687400 -0.20965900 0.15263750
v 0.18829900 -0.20965900 0.12737450
v 0.18687300 -0.21034800 0.12712150
v 0.18832400 -0.19240000 0.15121150
v 0.18690000 -0.19171000 0.15121150
v 0.18687400 -0.20965900 -0.14264350
v 0.18829900 -0.20965900 -0.14121750
v 0.18687300 -0.21034800 -0.14121750
v 0.18832400 -0.19240000 -0.14121750
v 0.18690000 -0.19171000 -0.14121750
v 0.18832400 -0.19240000 -0.11995950
v -0.21215900 -0.21019100 -0.11995950
v -0.21358400 -0.20950000 -0.11995950
v -0.21358400 -0.20950000 0.12712150
v -0.21215900 -0.21019100 0.12712150
v 0.18829900 -0.20965900 -0.12021350
v 0.18687300 -0.21034800 -0.11995950
v -0.21213300 -0.19155200 -0.11995950
v -0.21213200 -0.19155200 0.12712150
v -0.21358400 -0.20950000 0.14501450
v -0.21215900 -0.21019100 0.14482650
v -0.21213200 -0.19155200 0.14482650
v -0.21355900 -0.19224100 0.14501450
v -0.19831100 -0.19155700 -0.14121750
v -0.20574800 -0.19155400 -0.14121750
v -0.19833700 -0.20950500 -0.14264350
v -0.19833800 -0.21019500 -0.14121750
v -0.19833800 -0.21019500 0.15121150
v -0.19833700 -0.20950500 0.15263750
v -0.19831100 -0.19155600 0.15121150
v -0.20577500 -0.21019300 0.15121150
v -0.20596100 -0.20950300 0.15263750
v -0.20574800 -0.19155400 0.15121150
v -0.20596100 -0.20950300 -0.14264350
v -0.20577500 -0.21019300 -0.14121750
v -0.21215900 -0.21019100 -0.13483250
v -0.21358400 -0.20950000 -0.13502050
v -0.21213300 -0.19155200 -0.13483250
v -0.21128600 -0.21019100 0.14808750
v -0.21125900 -0.19155200 0.14808750
v -0.20977300 -0.20950100 0.15161550
v -0.20903600 -0.21019200 0.15033750
v -0.20900900 -0.19155300 0.15033750
v -0.20903600 -0.21019200 -0.14034350
v -0.20900900 -0.19155300 -0.14034350
v -0.21256300 -0.20950100 -0.13883250
v -0.21128600 -0.21019100 -0.13809450
v -0.21125900 -0.19155200 -0.13809450
v -0.21256200 -0.20873200 0.14882550
v -0.20977200 -0.20873300 -0.14162250
v -0.19707000 -0.20901200 -0.11881250
v -0.19707000 -0.20901200 0.12597350
v 0.18832300 -0.19313100 0.12598450
v 0.18689500 -0.19249900 0.12597350
v -0.19704500 -0.19199200 0.12597350
v -0.19704500 -0.19199200 -0.11881250
v 0.18689800 -0.19313000 -0.14264350
v -0.19831300 -0.19297700 -0.14264350
v -0.20593700 -0.19297500 -0.14264350
v -0.20974900 -0.19297300 -0.14162250
v -0.21253900 -0.19297200 -0.13883250
v -0.21356000 -0.19297200 -0.13502050
v -0.21356000 -0.19297200 -0.11995950
v -0.21356000 -0.19297200 0.12712150
v -0.21253900 -0.19297200 0.14882550
v -0.20974900 -0.19297300 0.15161550
v -0.20593700 -0.19297400 0.15263750
v -0.19831300 -0.19297700 0.15263750
v 0.18689800 -0.19313000 0.15263750
v 0.15106200 -0.24656600 0.11662150
v 0.15025200 -0.24640100 0.11661950
v 0.14965900 -0.24594800 0.11661350
v 0.14944200 -0.24532900 0.11660450
v 0.14944200 -0.24398400 0.12283050
v 0.14965900 -0.24456900 0.12307050
v 0.15025200 -0.24499700 0.12324650
v 0.15106200 -0.24515300 0.12331050
v 0.17619600 -0.24532900 0.11660450
v 0.17597900 -0.24594800 0.11661350
v 0.17538600 -0.24640100 0.11661950
v 0.17457600 -0.24656600 0.11662150
v 0.17457600 -0.24515300 0.12331050
v 0.17538600 -0.24499700 0.12324650
v 0.17597900 -0.24456900 0.12307050
v 0.17619600 -0.24398400 0.12283050
v 0.17457600 -0.23604200 0.11677050
v 0.17538600 -0.23620800 0.11677450
v 0.17597900 -0.23666100 0.11678450
v 0.17619600 -0.23728000 0.11679950
v 0.17619600 -0.23573100 0.12217250
v 0.17597900 -0.23518400 0.12184250
v 0.17538600 -0.23478400 0.12160150
v 0.17457600 -0.23463800 0.12151350
v 0.14944200 -0.23728000 0.11679950
v 0.14965900 -0.23666100 0.11678450
v 0.15025200 -0.23620800 0.11677450
v 0.15106200 -0.23604200 0.11677050
v 0.15106200 -0.23463800 0.12151350
v 0.15025200 -0.23478400 0.12160150
v 0.14965900 -0.23518400 0.12184250
v 0.14944200 -0.23573100 0.12217250
v 0.14944200 -0.24000400 0.12977650
v 0.14965900 -0.24048100 0.13020350
v 0.15025200 -0.24083100 0.13051550
v 0.15106200 -0.24095900 0.13063050
v 0.17457600 -0.24095900 0.13063050
v 0.17538600 -0.24083100 0.13051550
v 0.17597900 -0.24048100 0.13020350
v 0.17619600 -0.24000400 0.12977650
v 0.17619600 -0.23274800 0.12581550
v 0.17597900 -0.23233600 0.12532050
v 0.17538600 -0.23203500 0.12495850
v 0.17457600 -0.23192500 0.12482550
v 0.15106200 -0.23192500 0.12482550
v 0.15025200 -0.23203500 0.12495850
v 0.14965900 -0.23233600 0.12532050
v 0.14944200 -0.23274800 0.12581550
v 0.14944200 -0.23485500 0.13443250
v 0.14965900 -0.23511800 0.13502750
v 0.15025200 -0.23531100 0.13546350
v 0.15106200 -0.23538100 0.13562250
v 0.17457600 -0.23538100 0.13562250
v 0.17538600 -0.23531100 0.13546350
v 0.17597900 -0.23511800 0.13502750
v 0.17619600 -0.23485500 0.13443250
v 0.17619600 -0.22918800 0.12806150
v 0.17597900 -0.22899800 0.12743750
v 0.17538600 -0.22885800 0.12698050
v 0.17457600 -0.22880700 0.12681250
v 0.15106200 -0.22880700 0.12681250
v 0.15025200 -0.22885800 0.12698050
v 0.14965900 -0.22899800 0.12743750
v 0.14944200 -0.22918800 0.12806150
v 0.14944200 -0.22682800 0.13742750
v 0.14965900 -0.22695800 0.13808050
v 0.15025200 -0.22705300 0.13855750
v 0.15106200 -0.22708700 0.13873250
v 0.17457600 -0.22708700 0.13873250
v 0.17538600 -0.22705300 0.13855750
v 0.17597900 -0.22695800 0.13808050
v 0.17619600 -0.22682800 0.13742750
v 0.17619600 -0.22477000 0.12920150
v 0.17597900 -0.22467400 0.12855150
v 0.17538600 -0.22460400 0.12807550
v 0.17457600 -0.22457900 0.12790150
v 0.15106200 -0.22457900 0.12790150
v 0.15025200 -0.22460400 0.12807550
v 0.14965900 -0.22467400 0.12855150
v 0.14944200 -0.22477000 0.12920150
v 0.15025200 -0.20941500 0.13700550
v 0.14965900 -0.20986800 0.13701350
v 0.14944200 -0.21048700 0.13702550
v 0.14965900 -0.21048700 0.13767550
v 0.15025200 -0.21048700 0.13815150
v 0.15106200 -0.21048600 0.13832550
v 0.15106200 -0.20986600 0.13814050
v 0.15106200 -0.20941400 0.13765750
v 0.15106200 -0.20924900 0.13700250
v 0.17597900 -0.20986800 0.13701350
v 0.17538600 -0.20941500 0.13700550
v 0.17457600 -0.20924900 0.13700250
v 0.17458000 -0.20941300 0.13765750
v 0.17458500 -0.20986100 0.13814050
v 0.17459000 -0.21047600 0.13832550
v 0.17539200 -0.21047900 0.13815150
v 0.17598000 -0.21048300 0.13767550
v 0.17619600 -0.21048700 0.13702550
v 0.17457600 -0.20986800 0.12807550
v 0.17457600 -0.20941500 0.12855150
v 0.17457600 -0.20924900 0.12920150
v 0.17538600 -0.20941500 0.12920150
v 0.17597900 -0.20986800 0.12920150
v 0.17619600 -0.21048700 0.12920150
v 0.17597900 -0.21048700 0.12855150
v 0.17538600 -0.21048700 0.12807550
v 0.17457600 -0.21048700 0.12790150
v 0.14965900 -0.20986800 0.12920150
v 0.15025200 -0.20941500 0.12920150
v 0.15106200 -0.20924900 0.12920150
v 0.15106200 -0.20941500 0.12855150
v 0.15106200 -0.20986800 0.12807550
v 0.15106200 -0.21048700 0.12790150
v 0.15025200 -0.21048700 0.12807550
v 0.14965900 -0.21048700 0.12855150
v 0.14944200 -0.21048700 0.12920150
v 0.17457600 -0.23604200 -0.11125650
v 0.17538600 -0.23620800 -0.11126750
v 0.17597900 -0.23666100 -0.11129750
v 0.17619600 -0.23728000 -0.11133850
v 0.15106200 -0.23604200 -0.11125650
v 0.15025200 -0.23620800 -0.11126750
v 0.14965900 -0.23666100 -0.11129750
v 0.14944200 -0.23728000 -0.11133850
v 0.17457600 -0.24656700 -0.11082650
v 0.17538600 -0.24640100 -0.11081950
v 0.17597900 -0.24594800 -0.11080150
v 0.17619600 -0.24532900 -0.11077650
v 0.17619600 -0.24398400 -0.11718650
v 0.17597900 -0.24456900 -0.11742650
v 0.17538600 -0.24499700 -0.11760150
v 0.17457600 -0.24515400 -0.11766650
v 0.14944200 -0.24532900 -0.11077650
v 0.14965900 -0.24594800 -0.11080150
v 0.15025200 -0.24640100 -0.11081950
v 0.15106200 -0.24656700 -0.11082650
v 0.15106200 -0.24515400 -0.11766650
v 0.15025200 -0.24499700 -0.11760150
v 0.14965900 -0.24456900 -0.11742650
v 0.14944200 -0.24398400 -0.11718650
v 0.17457600 -0.23463800 -0.11586850
v 0.17538600 -0.23478400 -0.11595750
v 0.17597900 -0.23518400 -0.11619850
v 0.17619600 -0.23573100 -0.11652750
v 0.14944200 -0.23573100 -0.11652750
v 0.14965900 -0.23518400 -0.11619850
v 0.15025200 -0.23478400 -0.11595750
v 0.15106200 -0.23463800 -0.11586850
v 0.17619600 -0.24000400 -0.12413250
v 0.17597900 -0.24048100 -0.12455950
v 0.17538600 -0.24083100 -0.12487150
v 0.17457600 -0.24095900 -0.12498550
v 0.15106200 -0.24095900 -0.12498550
v 0.15025200 -0.24083100 -0.12487150
v 0.14965900 -0.24048100 -0.12455950
v 0.14944200 -0.24000400 -0.12413250
v 0.17457600 -0.23192500 -0.11918150
v 0.17538600 -0.23203500 -0.11931350
v 0.17597900 -0.23233700 -0.11967650
v 0.17619600 -0.23274800 -0.12017050
v 0.14944200 -0.23274800 -0.12017050
v 0.14965900 -0.23233700 -0.11967650
v 0.15025200 -0.23203500 -0.11931350
v 0.15106200 -0.23192500 -0.11918150
v 0.17619600 -0.23474500 -0.12888850
v 0.17597900 -0.23498800 -0.12949350
v 0.17538600 -0.23516600 -0.12993550
v 0.17457600 -0.23523100 -0.13009750
v 0.15106200 -0.23523100 -0.13009750
v 0.15025200 -0.23516600 -0.12993550
v 0.14965900 -0.23498800 -0.12949350
v 0.14944200 -0.23474500 -0.12888850
v 0.17457600 -0.22895800 -0.12104850
v 0.17538600 -0.22900300 -0.12121750
v 0.17597900 -0.22912700 -0.12168050
v 0.17619600 -0.22929700 -0.12231150
v 0.14944200 -0.22929700 -0.12231150
v 0.14965900 -0.22912700 -0.12168050
v 0.15025200 -0.22900300 -0.12121750
v 0.15106200 -0.22895800 -0.12104850
v 0.17619600 -0.22682800 -0.13175850
v 0.17597900 -0.22695800 -0.13241150
v 0.17538600 -0.22705300 -0.13288850
v 0.17457600 -0.22708800 -0.13306350
v 0.15106200 -0.22708800 -0.13306350
v 0.15025200 -0.22705300 -0.13288850
v 0.14965900 -0.22695800 -0.13241150
v 0.14944200 -0.22682800 -0.13175850
v 0.17457600 -0.22457900 -0.12223250
v 0.17538600 -0.22460400 -0.12240650
v 0.17597900 -0.22467400 -0.12288250
v 0.17619600 -0.22477000 -0.12353250
v 0.14944200 -0.22477000 -0.12353250
v 0.14965900 -0.22467400 -0.12288250
v 0.15025200 -0.22460400 -0.12240650
v 0.15106200 -0.22457900 -0.12223250
v 0.17538600 -0.20941500 -0.13133650
v 0.17597900 -0.20986800 -0.13134450
v 0.17619600 -0.21048700 -0.13135650
v 0.17597900 -0.21048700 -0.13200650
v 0.17538600 -0.21048700 -0.13248250
v 0.17457600 -0.21048700 -0.13265650
v 0.17457600 -0.20986600 -0.13247150
v 0.17457600 -0.20941400 -0.13198850
v 0.17457600 -0.20924900 -0.13133350
v 0.14965900 -0.20986800 -0.13134450
v 0.15025200 -0.20941500 -0.13133650
v 0.15106200 -0.20924900 -0.13133350
v 0.15105700 -0.20941300 -0.13198850
v 0.15105200 -0.20986100 -0.13247150
v 0.15104800 -0.21047600 -0.13265650
v 0.15024500 -0.21047900 -0.13248250
v 0.14965700 -0.21048300 -0.13200650
v 0.14944200 -0.21048700 -0.13135650
v 0.17457600 -0.20941500 -0.12288250
v 0.17457600 -0.20986800 -0.12240650
v 0.17457600 -0.21048700 -0.12223250
v 0.17538600 -0.21048700 -0.12240650
v 0.17597900 -0.21048700 -0.12288250
v 0.17619600 -0.21048700 -0.12353250
v 0.17597900 -0.20986800 -0.12353250
v 0.17538600 -0.20941500 -0.12353250
v 0.17457600 -0.20924900 -0.12353250
v 0.15025200 -0.20941500 -0.12353250
v 0.14965900 -0.20986800 -0.12353250
v 0.14944200 -0.21048700 -0.12353250
v 0.14965900 -0.21048700 -0.12288250
v 0.15025200 -0.21048700 -0.12240650
v 0.15106200 -0.21048700 -0.12223250
v 0.15106200 -0.20986800 -0.12240650
v 0.15106200 -0.20941500 -0.12288250
v 0.15106200 -0.20924900 -0.12353250
v 0.15036200 -0.20950700 0.13757050
v 0.14978100 -0.20995100 0.13757750
v 0.15036200 -0.20995000 0.13804450
v 0.17585800 -0.20994900 0.13757750
v 0.17527800 -0.20950600 0.13757050
v 0.17528100 -0.20994600 0.13804450
v 0.17527500 -0.20995200 0.12817350
v 0.17527500 -0.20950800 0.12863950
v 0.17585700 -0.20995200 0.12863950
v 0.14978100 -0.20995200 0.12863950
v 0.15036200 -0.20950800 0.12863950
v 0.15036200 -0.20995200 0.12817350
v 0.17527600 -0.20950700 -0.13190150
v 0.17585700 -0.20995200 -0.13190850
v 0.17527600 -0.20995100 -0.13237550
v 0.14977900 -0.20995000 -0.13190850
v 0.15035900 -0.20950600 -0.13190150
v 0.15035600 -0.20994600 -0.13237550
v 0.17527500 -0.20950800 -0.12297050
v 0.17527500 -0.20995200 -0.12250450
v 0.17585700 -0.20995200 -0.12297050
v 0.15036200 -0.20950800 -0.12297050
v 0.14978100 -0.20995200 -0.12297050
v 0.15036200 -0.20995200 -0.12250450
vn 0.0005 -0.0825 0.9966
vn -0.0003 -0.9002 0.4355
vn -0.0004 -0.9002 0.4356
vn 0.4351 -0.9004 -0.0000
vn -0.0000 0.1457 0.9893
vn 0.0003 0.7084 0.7058
vn -0.0000 0.0421 0.9991
vn 0.4046 0.9140 -0.0287
vn 0.0001 -0.1572 -0.9876
vn -0.0003 -0.9002 -0.4355
vn -0.0000 -0.0434 -0.9991
vn 0.4361 0.8999 -0.0000
vn -0.0003 0.0792 -0.9969
vn 0.0003 0.7084 -0.7058
vn -0.9890 -0.1481 -0.0000
vn -0.4348 -0.9005 -0.0114
vn -0.4360 -0.8999 -0.0000
vn -0.9991 -0.0434 -0.0000
vn -0.4350 -0.9004 0.0098
vn -0.9946 -0.0893 0.0523
vn -0.9989 0.0462 -0.0000
vn -0.7038 0.7101 -0.0185
vn -0.9972 0.0500 -0.0554
vn -0.7052 0.7090 -0.0000
vn -0.9891 0.1473 -0.0002
vn -0.5825 0.8128 -0.0064
vn -0.5216 -0.7989 0.2994
vn -0.9058 -0.0555 0.4202
vn -0.9977 0.0493 0.0474
vn -0.5277 0.7622 0.3750
vn -0.0000 0.0792 -0.9969
vn -0.0333 0.7102 -0.7032
vn -0.1306 0.0782 -0.9884
vn -0.3442 0.7208 -0.6016
vn -0.0210 -0.9010 -0.4333
vn -0.0607 -0.0647 -0.9961
vn -0.0000 -0.0840 0.9965
vn -0.0210 -0.9010 0.4333
vn -0.0333 0.7103 0.7032
vn -0.1320 0.0774 0.9882
vn -0.0557 -0.0652 0.9963
vn -0.1732 -0.9049 0.3887
vn -0.2822 0.7189 0.6353
vn -0.5039 0.1119 0.8565
vn -0.3284 -0.7727 -0.5432
vn -0.5010 -0.0600 -0.8634
vn -0.9939 -0.0955 -0.0552
vn -0.3987 -0.8617 -0.3138
vn -0.6349 0.7191 -0.2824
vn -0.8175 0.0791 -0.5704
vn -0.5043 -0.0601 0.8614
vn -0.9022 -0.0563 -0.4277
vn -0.0004 -1.0000 -0.0000
vn 0.0004 1.0000 -0.0000
vn 0.0014 0.9999 -0.0160
vn 0.0014 0.9999 -0.0157
vn 0.0004 0.9995 -0.0312
vn 0.0003 1.0000 -0.0000
vn -0.0003 -1.0000 -0.0000
vn 0.0014 -0.9999 0.0139
vn 0.9918 -0.0763 0.1022
vn 0.0018 -0.0825 0.9966
vn 0.0065 0.1450 0.9894
vn 0.9987 0.0421 0.0293
vn 0.0037 0.9997 0.0235
vn 0.0070 -0.1564 -0.9877
vn 0.9948 -0.0804 -0.0632
vn 0.0030 -0.9995 -0.0303
vn 0.9972 0.0392 -0.0630
vn 0.0018 0.0792 -0.9969
vn 0.0038 0.9981 -0.0623
vn 0.6822 -0.7311 -0.0000
vn 0.9913 -0.1315 -0.0000
vn 0.0011 0.0658 0.9978
vn 0.0030 0.0319 0.9995
vn 0.0004 0.9351 0.3545
vn 0.9975 0.0713 -0.0000
vn 0.3254 0.9456 -0.0000
vn 0.0933 -0.0734 -0.9929
vn 0.2127 -0.0822 -0.9737
vn 0.0005 -0.0636 -0.9980
vn 0.0014 -0.0000 -1.0000
vn 0.0026 -0.1199 -0.9928
vn 0.9993 -0.0374 -0.0000
vn 0.0029 -0.0312 0.9995
vn 0.0028 -0.0580 0.9983
vn 0.0884 -0.0072 0.9961
vn 0.1818 -0.0147 0.9832
vn 1.0000 -0.0014 -0.0000
vn 0.7071 -0.0010 -0.7071
vn -0.4983 0.0863 -0.8627
vn -0.8148 0.0588 0.5767
vn 0.7071 -0.0010 0.7071
vn 1.0000 -0.0015 -0.0000
vn -0.9997 -0.0257 0.0003
vn -0.9449 -0.3096 0.1064
vn -0.9996 -0.0260 0.0121
vn -0.6079 -0.7939 0.0092
vn -0.4002 -0.8476 0.3485
vn -0.6149 -0.7160 0.3306
vn -0.4692 -0.8831 0.0059
vn -0.0069 -0.9470 0.3212
vn 0.4692 -0.8831 0.0058
vn 0.0064 -0.9099 0.4147
vn 0.0067 -1.0000 0.0060
vn 0.6074 -0.7944 0.0092
vn 0.4002 -0.8476 0.3485
vn 0.9997 -0.0257 0.0003
vn 0.9449 -0.3096 0.1064
vn 0.9436 -0.3310 0.0010
vn 0.9437 0.3307 -0.0042
vn 0.9998 0.0199 -0.0085
vn 0.9997 0.0247 -0.0001
vn 0.3373 0.9414 -0.0053
vn 0.6111 0.7271 -0.3128
vn 0.6071 0.7946 -0.0025
vn 0.0036 1.0000 -0.0032
vn 0.4093 0.8163 -0.4076
vn -0.0068 0.9999 -0.0118
vn -0.4093 0.8163 -0.4076
vn -0.0071 0.8572 -0.5150
vn -0.3373 0.9414 -0.0052
vn -0.6111 0.7271 -0.3128
vn -0.9437 0.3307 -0.0042
vn -0.9998 0.0199 -0.0085
vn -0.9467 0.2761 -0.1656
vn -0.9436 0.3311 0.0088
vn -0.9986 0.0256 -0.0454
vn -0.9999 0.0076 0.0144
vn -0.4699 0.8827 0.0107
vn -0.6070 0.7945 -0.0166
vn -0.6065 0.7944 0.0311
vn -0.0070 0.9999 0.0104
vn -0.3374 0.9413 -0.0104
vn -0.0034 0.9161 0.4009
vn 0.0121 0.9993 0.0348
vn -0.0054 0.6035 0.7973
vn 0.0034 0.8370 0.5472
vn -0.0071 0.0343 0.9994
vn 0.0052 0.4565 0.8897
vn 0.3374 0.9413 -0.0104
vn 0.0037 0.9999 -0.0105
vn 0.4699 0.8827 0.0105
vn 0.6070 0.7945 -0.0167
vn 0.9436 0.3310 0.0087
vn 0.9986 0.0256 -0.0454
vn 0.9435 0.3309 -0.0170
vn 0.0051 0.9127 -0.4086
vn -0.0066 0.9993 -0.0362
vn 0.0027 0.7243 -0.6895
vn -0.0052 0.8311 -0.5561
vn 0.0037 0.0119 -0.9999
vn -0.0024 0.2709 -0.9626
vn 0.0048 0.2709 -0.9626
vn -0.9438 0.3307 0.0022
vn -0.9998 0.0197 0.0086
vn -0.9997 0.0244 0.0002
vn -0.4734 0.8808 0.0054
vn -0.6126 0.7235 0.3183
vn -0.6072 0.7945 0.0050
vn -0.0068 1.0000 0.0060
vn -0.4106 0.8129 0.4130
vn 0.9997 -0.0252 -0.0001
vn 0.9451 -0.3097 -0.1046
vn 0.9996 -0.0264 -0.0121
vn 0.6072 -0.7945 -0.0047
vn 0.6124 -0.7494 -0.2518
vn 0.6149 -0.7170 -0.3284
vn 0.3342 -0.9425 -0.0056
vn 0.0065 -0.9111 -0.4122
vn 0.2045 -0.8903 -0.4068
vn -0.3343 -0.9425 -0.0057
vn -0.0069 -0.9484 -0.3170
vn -0.0035 -1.0000 -0.0031
vn -0.6073 -0.7945 -0.0047
vn -0.6124 -0.7493 -0.2518
vn -0.9997 -0.0253 -0.0001
vn -0.9451 -0.3097 -0.1046
vn -0.9437 -0.3309 -0.0020
vn 0.9436 0.3310 -0.0088
vn 0.9986 0.0256 0.0454
vn 0.9999 0.0076 -0.0144
vn 0.4699 0.8827 -0.0107
vn 0.6071 0.7946 0.0087
vn 0.6065 0.7945 -0.0311
vn 0.0070 0.9999 -0.0103
vn 0.3433 0.9391 0.0154
vn 0.0035 0.9161 -0.4008
vn -0.0121 0.9993 -0.0348
vn 0.0053 0.6035 -0.7973
vn -0.0034 0.8370 -0.5472
vn 0.0071 0.0343 -0.9994
vn -0.0052 0.4565 -0.8897
vn -0.3434 0.9391 0.0154
vn -0.0038 0.9999 0.0105
vn -0.4699 0.8827 -0.0105
vn -0.6071 0.7946 0.0087
vn -0.9436 0.3310 -0.0087
vn -0.9986 0.0257 0.0453
vn -0.9435 0.3309 0.0170
vn 0.0024 0.2709 0.9626
vn -0.0070 0.0225 0.9997
vn 0.0038 0.0063 1.0000
vn 0.0034 0.8320 0.5547
vn -0.0053 0.7242 0.6895
vn 0.0102 0.7242 0.6895
vn 0.0066 0.9993 0.0362
vn -0.0034 0.9140 0.4057
vn -0.0130 -0.9999 0.0059
vn 0.9996 -0.0260 0.0120
vn 0.0067 0.9165 -0.4001
vn -0.9997 0.0248 -0.0001
vn -0.0090 -0.8135 0.5815
vn 0.9998 -0.0155 0.0122
vn 0.0047 0.7091 -0.7051
vn -0.9998 -0.0155 0.0123
vn -0.9996 0.0179 -0.0199
vn 0.0093 -0.7497 0.6617
vn -0.0076 -0.5549 0.8319
vn 0.9996 0.0179 -0.0199
vn 0.9996 -0.0157 0.0234
vn -0.0049 0.6324 -0.7747
vn 0.0072 0.4355 -0.9002
vn -0.9996 -0.0157 0.0233
vn -0.9998 0.0065 -0.0177
vn 0.0072 -0.4514 0.8923
vn -0.0055 -0.1709 0.9853
vn 0.9998 0.0065 -0.0177
vn 0.9992 -0.0042 0.0388
vn -0.0068 0.3417 -0.9398
vn 0.0115 0.0942 -0.9955
vn -0.9992 -0.0042 0.0389
vn -0.9999 0.0008 -0.0137
vn 0.0045 -0.0563 0.9984
vn 0.9999 0.0009 -0.0137
vn 0.9999 0.0077 0.0142
vn -0.0082 0.0345 -0.9994
vn 0.0066 -0.9999 -0.0115
vn 0.9997 0.0244 0.0002
vn 0.0068 0.9134 0.4069
vn 0.0132 0.9999 0.0060
vn -0.9996 -0.0263 -0.0121
vn -0.0090 -0.8122 -0.5833
vn 0.9998 -0.0156 -0.0123
vn 0.9998 0.0196 0.0086
vn 0.0046 0.7105 0.7037
vn -0.0071 0.8545 0.5194
vn -0.9998 -0.0156 -0.0123
vn -0.0074 -0.5546 -0.8321
vn 0.0093 -0.7478 -0.6639
vn 0.9996 -0.0158 -0.0235
vn 0.9997 0.0176 0.0195
vn 0.0072 0.4304 0.9026
vn -0.0049 0.6328 0.7743
vn -0.9997 0.0176 0.0195
vn -0.9996 -0.0158 -0.0235
vn -0.0037 -0.1028 -0.9947
vn 0.0072 -0.4484 -0.8938
vn 0.9992 -0.0039 -0.0387
vn 0.9998 0.0066 0.0179
vn 0.0114 0.1010 0.9948
vn -0.0066 0.3425 0.9395
vn -0.9998 0.0066 0.0179
vn -0.9992 -0.0040 -0.0386
vn 0.0073 -0.1029 -0.9947
vn 0.9999 0.0009 0.0137
vn -0.0082 0.0374 0.9993
vn -0.9999 0.0009 0.0137
vn -0.9999 0.0077 -0.0142
vn -0.2069 -0.7666 0.6079
vn -0.9463 -0.2539 0.2003
vn -0.6171 -0.6170 0.4884
vn -0.6196 -0.6158 0.4867
vn 0.8598 -0.4007 0.3164
vn 0.6149 -0.7160 0.3306
vn 0.6171 -0.6169 0.4885
vn 0.9437 0.3308 0.0022
vn 0.4734 0.8808 0.0054
vn 0.3459 0.6308 -0.6946
vn 0.9467 0.2761 -0.1657
vn 0.6203 0.5266 -0.5813
vn -0.9474 0.2146 -0.2373
vn -0.3458 0.6308 -0.6946
vn -0.6203 0.5266 -0.5813
vn -0.4270 -0.4637 0.7763
vn -0.6237 -0.4366 0.6484
vn 0.8164 -0.3057 0.4899
vn 0.2091 -0.5462 0.8111
vn 0.6272 -0.3515 0.6950
vn 0.2110 0.3317 -0.9195
vn 0.8106 0.2152 -0.5446
vn 0.6246 0.3414 -0.7024
vn -0.9482 0.1394 -0.2856
vn -0.6246 0.3414 -0.7024
vn -0.3546 -0.1008 0.9296
vn -0.9489 -0.1421 0.2817
vn -0.7579 -0.0699 0.6487
vn 0.7586 -0.0701 0.6477
vn 0.2144 -0.1057 0.9710
vn 0.6332 -0.0835 0.7695
vn 0.2116 0.0582 -0.9756
vn 0.8675 0.0300 -0.4965
vn 0.6285 0.0465 -0.7765
vn -0.8675 0.0300 -0.4965
vn -0.2110 0.3317 -0.9195
vn -0.6273 0.2658 -0.7320
vn -0.6284 0.0465 -0.7765
vn -0.2097 0.0307 0.9773
vn -0.8620 0.0214 0.5065
vn -0.6255 0.0234 0.7799
vn 0.8635 0.0213 0.5038
vn 0.0137 0.0342 0.9993
vn 0.6280 0.0231 0.7778
vn 0.2102 0.0041 -0.9777
vn 0.7539 0.0067 -0.6569
vn -0.7539 0.0068 -0.6569
vn -0.2102 0.0041 -0.9776
vn -0.0073 0.0121 -0.9999
vn -0.6258 0.0189 -0.7798
vn 0.9468 0.2751 0.1673
vn 0.4106 0.8129 0.4130
vn 0.6126 0.7235 0.3183
vn -0.6071 0.7946 -0.0026
vn 0.2070 -0.7650 -0.6098
vn 0.9460 -0.2541 -0.2012
vn 0.6162 -0.6163 -0.4904
vn 0.6197 -0.6147 -0.4880
vn -0.9437 -0.3309 0.0010
vn -0.9460 -0.2541 -0.2012
vn -0.2045 -0.8903 -0.4068
vn -0.6149 -0.7170 -0.3284
vn -0.6162 -0.6163 -0.4904
vn 0.9474 0.2147 0.2372
vn 0.3457 0.6318 0.6938
vn 0.6198 0.5273 0.5812
vn -0.3457 0.6318 0.6937
vn -0.9468 0.2751 0.1672
vn -0.6198 0.5274 0.5811
vn 0.4249 -0.4633 -0.7777
vn 0.6229 -0.4368 -0.6490
vn -0.9488 -0.1413 -0.2826
vn -0.4249 -0.4633 -0.7777
vn -0.6229 -0.4368 -0.6490
vn 0.9479 0.1381 0.2869
vn 0.6237 0.3377 0.7049
vn -0.2105 0.3328 0.9192
vn -0.9479 0.1381 0.2869
vn -0.6237 0.3377 0.7049
vn -0.6262 0.2669 0.7325
vn 0.3545 -0.0960 -0.9301
vn 0.9488 -0.1413 -0.2826
vn 0.7578 -0.0667 -0.6491
vn -0.7586 -0.0669 -0.6481
vn -0.3552 -0.0964 -0.9298
vn 0.8676 0.0320 0.4962
vn 0.2105 0.3328 0.9192
vn 0.6262 0.2669 0.7325
vn 0.6288 0.0499 0.7760
vn -0.2117 0.0626 0.9753
vn -0.8676 0.0320 0.4962
vn -0.6288 0.0499 0.7760
vn 0.2097 0.0306 -0.9773
vn 0.8620 0.0214 -0.5065
vn 0.6255 0.0234 -0.7799
vn -0.8636 0.0213 -0.5038
vn -0.0137 0.0342 -0.9993
vn -0.6280 0.0232 -0.7779
vn 0.7539 0.0068 0.6569
vn 0.2102 0.0041 0.9776
vn 0.6257 0.0190 0.7798
vn -0.2102 0.0041 0.9777
vn -0.7539 0.0068 0.6569
vn -0.3835 0.8215 0.4219
vn -0.3420 0.8326 0.4358
vn -0.7154 0.5082 0.4795
vn -0.7369 0.4925 0.4631
vn -0.3496 0.4786 0.8054
vn -0.3894 0.4630 0.7962
vn 0.7386 0.4936 0.4591
vn 0.6058 0.7950 0.0306
vn 0.3429 0.8342 0.4319
vn 0.7169 0.5095 0.4759
vn 0.3846 0.8229 0.4181
vn 0.3523 0.4813 0.8026
vn 0.3916 0.4656 0.7937
vn 0.3905 0.4530 -0.8014
vn 0.3509 0.4684 -0.8108
vn 0.3433 0.8296 -0.4403
vn 0.3846 0.8188 -0.4263
vn 0.7170 0.5028 -0.4828
vn 0.7389 0.4868 -0.4659
vn 0.6258 0.0190 -0.7798
vn -0.7390 0.4867 -0.4659
vn -0.3434 0.8296 -0.4402
vn -0.7171 0.5027 -0.4828
vn -0.3847 0.8188 -0.4262
vn -0.3510 0.4684 -0.8108
vn -0.3906 0.4529 -0.8014
vn 0.3835 0.8215 -0.4219
vn 0.3420 0.8325 -0.4358
vn 0.7154 0.5082 -0.4795
vn 0.7369 0.4925 -0.4631
vn 0.3497 0.4786 -0.8054
vn 0.3894 0.4630 -0.7962
vn -0.7386 0.4937 -0.4591
vn -0.6058 0.7950 -0.0306
vn -0.3429 0.8342 -0.4319
vn -0.7169 0.5095 -0.4759
vn -0.3846 0.8230 -0.4181
vn -0.3522 0.4813 -0.8026
vn -0.3916 0.4656 -0.7937
vn 0.3846 0.8188 0.4263
vn 0.3432 0.8297 0.4402
vn 0.3508 0.4684 0.8109
vn 0.3905 0.4530 0.8014
vn 0.7170 0.5027 0.4828
vn 0.7389 0.4867 0.4659
vn -0.3847 0.8188 0.4262
vn -0.7171 0.5027 0.4828
vn -0.3432 0.8298 0.4401
vn -0.7390 0.4867 0.4659
vn -0.6257 0.0189 0.7798
vn -0.3509 0.4684 0.8109
vn -0.3906 0.4529 0.8014
vn 0.4359 0.8996 -0.0261
vn -0.0004 -0.9002 -0.4356
vn 0.4352 0.9003 0.0001
vn 0.0014 1.0000 -0.0000
vn -0.0003 -0.6961 -0.7179
vn -0.0003 -0.6961 0.7179
vn 0.9975 0.0709 -0.0000
vn 0.0001 0.0656 -0.9978
vn 0.0012 0.9354 -0.3536
vn -0.0210 -0.0641 -0.9977
vn -0.0000 -0.0000 1.0000
vn -0.9435 0.3308 -0.0170
vn -0.0053 0.7243 -0.6895
vn 0.9437 -0.3308 -0.0020
vn 0.9435 0.3308 0.0170
vn -0.0049 0.2709 0.9626
vn 0.2069 -0.7666 0.6079
vn 0.6073 0.7945 0.0050
vn 0.9474 0.2145 -0.2373
vn -0.2116 0.0582 -0.9756
vn 0.2120 0.0307 0.9768
vn -0.2070 -0.7650 -0.6098
vn -0.6197 -0.6147 -0.4880
vn -0.9474 0.2146 0.2372
vn 0.2117 0.0626 0.9753
vn -0.2120 0.0306 -0.9768
vt 0.530904 0.956628
vt 0.531758 0.862186
vt 0.531203 0.956631
vt 0.496012 0.945711
vt 0.505668 0.946170
vt 0.496012 0.946083
vt 0.523478 0.956584
vt 0.523738 0.862140
vt 0.524032 0.862140
vt 0.528227 0.896808
vt 0.518520 0.897180
vt 0.518518 0.896809
vt 0.515334 0.956526
vt 0.515716 0.862081
vt 0.516015 0.862082
vt 0.558622 0.946273
vt 0.549298 0.946561
vt 0.549246 0.946189
vt 0.518816 0.904275
vt 0.528195 0.904646
vt 0.518818 0.904646
vt 0.522761 0.956580
vt 0.523736 0.862139
vt 0.523055 0.956583
vt 0.527768 0.876057
vt 0.528350 0.865040
vt 0.528342 0.876058
vt 0.528300 0.935649
vt 0.527725 0.935648
vt 0.528291 0.947121
vt 0.527717 0.947174
vt 0.529288 0.864847
vt 0.521254 0.865379
vt 0.521206 0.864972
vt 0.521079 0.938030
vt 0.520138 0.860312
vt 0.520867 0.860304
vt 0.517339 0.854423
vt 0.525724 0.854701
vt 0.517348 0.854831
vt 0.528473 0.948049
vt 0.527930 0.948258
vt 0.525753 0.854293
vt 0.526402 0.854847
vt 0.523441 0.862136
vt 0.523747 0.860591
vt 0.519614 0.866354
vt 0.520105 0.865953
vt 0.519921 0.866537
vt 0.515727 0.860533
vt 0.516026 0.860495
vt 0.531458 0.862183
vt 0.531767 0.860638
vt 0.523747 0.860591
vt 0.524041 0.860553
vt 0.531468 0.860596
vt 0.531772 0.859960
vt 0.527334 0.855626
vt 0.526868 0.855240
vt 0.527124 0.854951
vt 0.515730 0.859855
vt 0.516030 0.859702
vt 0.527775 0.864985
vt 0.528533 0.864108
vt 0.520575 0.865545
vt 0.520412 0.865166
vt 0.528513 0.949047
vt 0.528574 0.863095
vt 0.527990 0.863897
vt 0.559852 0.856211
vt 0.550476 0.856127
vt 0.519916 0.867861
vt 0.528987 0.948506
vt 0.519614 0.948651
vt 0.506951 0.855736
vt 0.497242 0.855649
vt 0.517037 0.938081
vt 0.527043 0.857143
vt 0.526741 0.937932
vt 0.525476 0.938102
vt 0.506988 0.852992
vt 0.550513 0.853383
vt 0.497262 0.854173
vt 0.497453 0.853527
vt 0.497928 0.853085
vt 0.527048 0.855818
vt 0.558561 0.853455
vt 0.495719 0.945798
vt 0.528523 0.897092
vt 0.528230 0.897180
vt 0.558922 0.946365
vt 0.558622 0.946645
vt 0.518518 0.904558
vt 0.528331 0.938547
vt 0.527763 0.870419
vt 0.528406 0.870052
vt 0.531915 0.956050
vt 0.532038 0.861867
vt 0.532101 0.956312
vt 0.516754 0.870362
vt 0.516274 0.938484
vt 0.516350 0.869989
vt 0.523659 0.861873
vt 0.516607 0.861571
vt 0.523389 0.861575
vt 0.523444 0.956055
vt 0.516335 0.861868
vt 0.527688 0.938162
vt 0.531700 0.861868
vt 0.524592 0.956055
vt 0.524377 0.861873
vt 0.531428 0.861571
vt 0.524647 0.861576
vt 0.518817 0.904946
vt 0.528356 0.911425
vt 0.518790 0.911425
vt 0.522442 0.956875
vt 0.515665 0.956528
vt 0.522446 0.956577
vt 0.516345 0.862085
vt 0.523127 0.862134
vt 0.516357 0.860497
vt 0.523138 0.860546
vt 0.516361 0.859705
vt 0.523142 0.859754
vt 0.523142 0.859175
vt 0.516361 0.859126
vt 0.521164 0.864888
vt 0.527682 0.863892
vt 0.527468 0.864981
vt 0.527460 0.876052
vt 0.521156 0.875959
vt 0.527418 0.935644
vt 0.521114 0.935551
vt 0.521105 0.947077
vt 0.527410 0.947170
vt 0.527623 0.948254
vt 0.521318 0.948161
vt 0.524370 0.859183
vt 0.531143 0.859801
vt 0.524362 0.859762
vt 0.524356 0.860554
vt 0.531137 0.860594
vt 0.524346 0.862142
vt 0.531128 0.862181
vt 0.530573 0.956626
vt 0.523792 0.956586
vt 0.530574 0.956924
vt 0.523793 0.956884
vt 0.518543 0.903959
vt 0.528228 0.897480
vt 0.528202 0.903958
vt 0.424235 0.906765
vt 0.420430 0.906574
vt 0.420569 0.906251
vt 0.424232 0.907101
vt 0.420332 0.906961
vt 0.424234 0.907497
vt 0.420301 0.907308
vt 0.422865 0.918884
vt 0.418936 0.918806
vt 0.422858 0.918488
vt 0.422876 0.919235
vt 0.418979 0.919200
vt 0.558078 0.889921
vt 0.561879 0.889389
vt 0.558085 0.890256
vt 0.558133 0.884767
vt 0.561301 0.884203
vt 0.558146 0.885162
vt 0.558119 0.884416
vt 0.561102 0.883852
vt 0.552575 0.936119
vt 0.555446 0.936798
vt 0.552573 0.936394
vt 0.552586 0.926610
vt 0.555457 0.926633
vt 0.555408 0.927008
vt 0.552584 0.926229
vt 0.555591 0.926263
vt 0.552581 0.925844
vt 0.555772 0.925997
vt 0.424028 0.870758
vt 0.423807 0.875369
vt 0.423743 0.870764
vt 0.424413 0.870754
vt 0.424092 0.875356
vt 0.424794 0.870754
vt 0.424477 0.875348
vt 0.424736 0.870372
vt 0.434303 0.870804
vt 0.460223 0.868265
vt 0.460347 0.857147
vt 0.460500 0.868260
vt 0.459840 0.868271
vt 0.460072 0.857149
vt 0.434642 0.875401
vt 0.434367 0.875396
vt 0.569876 0.868415
vt 0.565288 0.868830
vt 0.565281 0.868479
vt 0.569889 0.868766
vt 0.565294 0.869226
vt 0.434320 0.875782
vt 0.424858 0.875346
vt 0.481727 0.866702
vt 0.481850 0.855588
vt 0.482005 0.866699
vt 0.481345 0.866707
vt 0.481572 0.855591
vt 0.418345 0.928268
vt 0.415288 0.928533
vt 0.418307 0.927983
vt 0.418372 0.928653
vt 0.415494 0.928793
vt 0.418382 0.929033
vt 0.415645 0.929158
vt 0.424192 0.891783
vt 0.420270 0.891358
vt 0.420409 0.891041
vt 0.556779 0.917352
vt 0.560792 0.917205
vt 0.560696 0.917553
vt 0.556783 0.917000
vt 0.560825 0.916810
vt 0.558155 0.905634
vt 0.562194 0.905335
vt 0.558166 0.905985
vt 0.558139 0.905238
vt 0.562149 0.904989
vt 0.558122 0.904903
vt 0.562040 0.904604
vt 0.411873 0.870964
vt 0.416479 0.871296
vt 0.411872 0.871360
vt 0.411871 0.870613
vt 0.416474 0.870900
vt 0.434450 0.881313
vt 0.434660 0.876726
vt 0.434724 0.881320
vt 0.434402 0.881702
vt 0.424940 0.881263
vt 0.460392 0.880702
vt 0.460516 0.869586
vt 0.460670 0.880699
vt 0.460009 0.880707
vt 0.460241 0.869586
vt 0.424496 0.876673
vt 0.424876 0.876671
vt 0.424559 0.881266
vt 0.424111 0.876681
vt 0.424175 0.881280
vt 0.423825 0.876694
vt 0.481742 0.868030
vt 0.481514 0.879148
vt 0.481360 0.868036
vt 0.482020 0.868025
vt 0.481896 0.879142
vt 0.434386 0.876721
vt 0.424818 0.876292
vt 0.434327 0.876342
vt 0.418836 0.908206
vt 0.422759 0.907889
vt 0.561736 0.889075
vt 0.555398 0.936518
vt 0.424121 0.903384
vt 0.420957 0.902776
vt 0.414574 0.909046
vt 0.565803 0.886666
vt 0.557409 0.937351
vt 0.416479 0.904635
vt 0.418812 0.901552
vt 0.440802 0.857403
vt 0.444430 0.868479
vt 0.440956 0.868514
vt 0.563429 0.882410
vt 0.568515 0.883585
vt 0.467943 0.855773
vt 0.470018 0.866862
vt 0.468098 0.866885
vt 0.413738 0.902508
vt 0.417489 0.900074
vt 0.444275 0.857367
vt 0.449574 0.868415
vt 0.564731 0.880288
vt 0.570232 0.878816
vt 0.469863 0.855751
vt 0.472629 0.866828
vt 0.411975 0.899159
vt 0.416819 0.898226
vt 0.449420 0.857303
vt 0.565376 0.877667
vt 0.569901 0.869162
vt 0.472474 0.855717
vt 0.412212 0.892286
vt 0.416819 0.892222
vt 0.560725 0.906211
vt 0.556781 0.916604
vt 0.556682 0.906005
vt 0.423814 0.887031
vt 0.415689 0.939041
vt 0.418372 0.938543
vt 0.558454 0.901515
vt 0.561897 0.904285
vt 0.565083 0.906928
vt 0.416296 0.888745
vt 0.420749 0.886158
vt 0.468115 0.868228
vt 0.466608 0.879371
vt 0.466453 0.868259
vt 0.561509 0.900821
vt 0.565987 0.902555
vt 0.444539 0.869814
vt 0.441129 0.880987
vt 0.440975 0.869875
vt 0.413465 0.885676
vt 0.418587 0.884425
vt 0.469941 0.868198
vt 0.468269 0.879339
vt 0.563655 0.899537
vt 0.568788 0.900305
vt 0.449589 0.869738
vt 0.444694 0.880926
vt 0.411730 0.881021
vt 0.417307 0.882402
vt 0.472644 0.868158
vt 0.470095 0.879309
vt 0.564915 0.898069
vt 0.570478 0.896954
vt 0.449744 0.880849
vt 0.416562 0.879737
vt 0.472798 0.879269
vt 0.565634 0.896156
vt 0.570242 0.890088
vt 0.415991 0.905605
vt 0.416051 0.905270
vt 0.416230 0.904914
vt 0.566056 0.886914
vt 0.414674 0.919645
vt 0.419090 0.919545
vt 0.414746 0.920033
vt 0.423832 0.886635
vt 0.423843 0.886284
vt 0.466434 0.866900
vt 0.468035 0.867269
vt 0.466349 0.867285
vt 0.560953 0.883535
vt 0.563133 0.882141
vt 0.557983 0.926912
vt 0.557701 0.927137
vt 0.557495 0.927477
vt 0.557419 0.927841
vt 0.444478 0.868860
vt 0.441040 0.868896
vt 0.413390 0.902699
vt 0.568865 0.883705
vt 0.444313 0.856983
vt 0.412157 0.921398
vt 0.411896 0.921098
vt 0.469991 0.867246
vt 0.564360 0.880150
vt 0.564086 0.879989
vt 0.559022 0.928182
vt 0.467869 0.855392
vt 0.558756 0.928471
vt 0.449600 0.868797
vt 0.449661 0.869075
vt 0.444599 0.869138
vt 0.570615 0.878857
vt 0.449435 0.856920
vt 0.449488 0.856638
vt 0.472617 0.867212
vt 0.564991 0.877586
vt 0.564706 0.877466
vt 0.417203 0.898256
vt 0.417859 0.900064
vt 0.469825 0.855369
vt 0.469733 0.855091
vt 0.472452 0.855335
vt 0.459844 0.868653
vt 0.411831 0.892366
vt 0.459846 0.868932
vt 0.570282 0.869124
vt 0.459692 0.857153
vt 0.459684 0.856773
vt 0.481349 0.867090
vt 0.481351 0.867372
vt 0.472576 0.867494
vt 0.417204 0.892292
vt 0.481184 0.855213
vt 0.481190 0.855596
vt 0.481178 0.854934
vt 0.420939 0.885802
vt 0.415634 0.939323
vt 0.421073 0.885481
vt 0.552575 0.925558
vt 0.565182 0.917528
vt 0.565120 0.917918
vt 0.416046 0.889001
vt 0.564943 0.918252
vt 0.424239 0.907848
vt 0.566240 0.902828
vt 0.566504 0.903511
vt 0.566429 0.903178
vt 0.418874 0.884147
vt 0.468041 0.867846
vt 0.419081 0.883884
vt 0.415700 0.929531
vt 0.413731 0.930073
vt 0.413211 0.929526
vt 0.413511 0.929740
vt 0.444739 0.881308
vt 0.441213 0.881369
vt 0.567910 0.919231
vt 0.569146 0.900478
vt 0.444574 0.869431
vt 0.569412 0.900755
vt 0.417676 0.882267
vt 0.417942 0.882107
vt 0.468206 0.879723
vt 0.470072 0.879692
vt 0.412404 0.930788
vt 0.412029 0.930653
vt 0.412679 0.931063
vt 0.449770 0.881232
vt 0.413109 0.885795
vt 0.449830 0.881512
vt 0.444851 0.881588
vt 0.570864 0.897078
vt 0.449604 0.869355
vt 0.449657 0.869075
vt 0.416942 0.879645
vt 0.469907 0.867815
vt 0.417217 0.879517
vt 0.472787 0.879651
vt 0.565253 0.896197
vt 0.469997 0.879972
vt 0.472745 0.879931
vt 0.460014 0.881090
vt 0.411487 0.871335
vt 0.460016 0.881371
vt 0.570626 0.890155
vt 0.459861 0.869589
vt 0.459853 0.869210
vt 0.416860 0.871260
vt 0.481354 0.867653
vt 0.472622 0.867775
vt 0.481348 0.867372
vt 0.481519 0.879530
vt 0.565635 0.890152
vt 0.481520 0.879809
vt 0.424424 0.870424
vt 0.424046 0.870428
vt 0.460175 0.868596
vt 0.460176 0.868870
vt 0.424587 0.870098
vt 0.424278 0.870155
vt 0.570220 0.868793
vt 0.570209 0.868450
vt 0.434501 0.870477
vt 0.434578 0.870807
vt 0.460284 0.856817
vt 0.460014 0.856821
vt 0.570490 0.868706
vt 0.481679 0.867034
vt 0.481952 0.867031
vt 0.434572 0.875733
vt 0.564950 0.868523
vt 0.564957 0.868867
vt 0.564624 0.869122
vt 0.564678 0.868790
vt 0.424120 0.875689
vt 0.423900 0.875752
vt 0.424497 0.875681
vt 0.424810 0.875732
vt 0.424358 0.875964
vt 0.481515 0.855261
vt 0.481509 0.854988
vt 0.434655 0.881654
vt 0.411538 0.870657
vt 0.411541 0.871001
vt 0.411262 0.870923
vt 0.460344 0.881034
vt 0.460616 0.881031
vt 0.423889 0.881299
vt 0.424202 0.881614
vt 0.423982 0.881682
vt 0.424578 0.881601
vt 0.424750 0.881946
vt 0.424440 0.881889
vt 0.460183 0.869258
vt 0.459845 0.868933
vt 0.460175 0.868987
vt 0.434581 0.876397
vt 0.481957 0.867695
vt 0.481685 0.867700
vt 0.417135 0.871174
vt 0.416804 0.870928
vt 0.417074 0.870843
vt 0.416466 0.870549
vt 0.416797 0.870584
vt 0.424506 0.876345
vt 0.424129 0.876353
vt 0.481850 0.879747
vt 0.481848 0.879473
vt 0.424669 0.876022
vt 0.424360 0.876079
vt 0.505721 0.945798
vt 0.523183 0.956584
vt 0.515035 0.956525
vt 0.528193 0.904275
vt 0.529298 0.865255
vt 0.520351 0.938037
vt 0.526546 0.854463
vt 0.523452 0.860549
vt 0.519830 0.865672
vt 0.531474 0.859803
vt 0.528944 0.948685
vt 0.529004 0.863462
vt 0.529289 0.867717
vt 0.517339 0.857292
vt 0.525263 0.860376
vt 0.498609 0.852917
vt 0.559237 0.853635
vt 0.559699 0.854086
vt 0.559872 0.854735
vt 0.524018 0.861872
vt 0.523955 0.956318
vt 0.524081 0.956318
vt 0.524018 0.861872
vt 0.516679 0.938104
vt 0.516120 0.956050
vt 0.515934 0.956312
vt 0.515998 0.861867
vt 0.528431 0.904946
vt 0.515661 0.956826
vt 0.521378 0.863799
vt 0.531151 0.859223
vt 0.518521 0.897480
vt 0.434248 0.870422
vt 0.424179 0.892119
vt 0.424891 0.881652
vt 0.482174 0.879137
vt 0.414936 0.920362
vt 0.418361 0.938817
vt 0.562914 0.881883
vt 0.413138 0.902989
vt 0.440875 0.857019
vt 0.559386 0.928027
vt 0.411592 0.899294
vt 0.444426 0.856700
vt 0.472403 0.855056
vt 0.459676 0.856494
vt 0.564909 0.869201
vt 0.466357 0.867878
vt 0.413811 0.930434
vt 0.568166 0.918927
vt 0.441048 0.869492
vt 0.411344 0.881073
vt 0.444678 0.869151
vt 0.564546 0.898078
vt 0.472573 0.867494
vt 0.565254 0.890232
vt 0.423825 0.870381
vt 0.570557 0.869036
vt 0.424669 0.876022
vt 0.411202 0.871256
vt 0.423907 0.876312
s 1
f 8/1/1 35/2/2 6/3/3
s 0
f 6/4/4 9/5/4 7/6/4
s 1
f 76/7/5 37/8/6 75/9/7
s 0
f 12/10/8 60/11/8 61/12/8
s 1
f 13/13/9 34/14/10 33/15/11
s 0
f 15/16/4 23/17/4 24/18/4
f 17/19/12 18/20/12 16/21/12
s 1
f 64/22/13 31/23/14 17/24/14
f 20/25/15 43/26/16 19/27/17
f 20/25/15 22/28/17 21/29/18
f 21/29/18 28/30/19 27/31/20
f 70/32/21 45/33/22 69/34/23
f 25/35/24 71/36/25 26/37/24
f 71/38/25 29/39/26 26/40/24
f 27/31/20 46/41/27 56/42/28
f 30/43/29 47/44/30 29/39/26
f 65/45/31 32/46/32 31/23/14
f 66/47/33 52/48/34 32/49/32
f 33/15/11 42/50/35 41/51/36
f 36/52/37 38/53/38 35/2/2
f 75/9/7 40/54/39 74/55/40
f 39/56/41 49/57/42 38/53/38
f 74/58/40 50/59/43 73/60/44
f 41/51/36 51/61/45 57/62/46
f 44/63/47 54/64/48 43/26/16
f 69/34/23 55/65/49 68/66/50
f 46/41/27 48/67/51 56/42/28
f 47/44/30 73/60/44 50/59/43
f 57/68/46 54/64/48 53/69/52
f 52/48/34 68/66/50 55/65/49
f 34/70/53 24/18/53 4/71/53
f 31/72/54 5/73/54 17/74/54
f 3/75/53 6/4/53 35/76/53
f 61/77/55 37/78/56 12/79/57
f 26/37/58 1/80/54 25/35/58
f 4/71/53 22/81/59 19/82/59
f 38/83/59 49/84/59 46/85/53
f 50/59/58 40/86/58 29/39/58
f 4/71/53 19/82/59 43/87/59
f 55/65/54 45/33/58 32/49/58
s 0
f 6/4/60 7/6/61 8/88/62
f 76/89/63 11/90/64 12/10/65
f 13/91/66 14/92/67 15/16/68
f 16/21/69 64/93/70 17/19/71
s 1
f 4/94/72 59/95/73 3/96/72
f 63/97/74 5/98/75 1/99/76
f 62/100/77 1/101/78 2/102/78
f 10/103/79 60/104/79 9/105/80
f 59/106/81 61/107/82 10/103/83
f 58/108/84 62/100/77 59/95/73
f 5/109/75 58/110/85 24/111/86
f 18/112/87 24/111/87 23/113/88
f 16/114/89 23/115/89 14/116/89
f 16/117/90 13/118/90 64/119/90
f 64/119/13 33/120/11 65/121/31
f 65/121/31 41/122/36 66/123/33
f 66/123/33 57/124/46 67/125/91
f 68/126/50 57/124/46 53/127/52
f 69/128/23 53/129/52 44/130/47
f 69/128/23 20/131/15 70/132/21
f 70/132/21 21/133/18 71/134/25
f 30/135/29 21/133/18 27/136/20
f 30/135/29 56/137/28 72/138/92
f 72/139/92 48/140/51 73/141/44
f 74/142/40 48/140/51 39/143/41
f 75/144/7 39/143/41 36/145/37
f 75/144/7 8/146/1 76/147/5
f 76/147/93 7/148/93 11/149/93
f 9/150/89 11/151/89 7/152/94
f 80/153/95 82/154/96 81/155/97
f 79/156/98 83/157/99 82/154/100
f 78/158/101 84/159/102 83/157/99
f 87/160/103 89/161/104 88/162/105
f 86/163/106 90/164/107 87/160/103
f 85/165/108 91/166/109 86/167/110
f 95/168/111 97/169/112 96/170/113
f 94/171/114 98/172/115 95/168/116
f 93/173/117 99/174/118 94/175/114
f 104/176/119 106/177/120 105/178/121
f 103/179/122 107/180/123 106/177/120
f 102/181/124 108/182/125 107/180/126
f 158/183/127 192/184/128 159/185/129
f 157/186/130 184/187/131 158/183/132
f 165/188/133 185/189/134 157/186/130
f 164/190/135 168/191/136 165/188/133
f 163/192/137 169/193/138 164/194/135
f 162/195/139 170/196/140 163/192/137
f 168/191/136 178/197/141 177/198/142
f 167/199/143 179/200/144 178/201/141
f 166/202/145 180/203/146 179/200/147
f 176/204/148 186/205/149 177/198/142
f 175/206/150 187/207/151 176/208/148
f 183/209/152 188/210/153 175/206/154
f 199/211/155 221/212/156 200/213/157
f 198/214/158 222/215/159 199/211/160
f 197/216/161 223/217/162 198/214/158
f 204/218/163 206/219/164 205/220/165
f 203/221/166 207/222/167 206/223/168
f 202/224/169 208/225/170 207/222/171
f 211/226/172 213/227/173 212/228/174
f 210/229/175 214/230/176 211/226/172
f 209/231/177 215/232/178 210/229/179
f 274/233/180 296/234/181 275/235/182
f 273/236/183 297/237/184 274/233/185
f 281/238/186 298/239/187 273/240/183
f 280/241/188 284/242/189 281/238/186
f 279/243/190 285/244/191 280/245/188
f 278/246/192 286/247/193 279/243/190
f 284/242/189 300/248/194 308/249/195
f 283/250/196 301/251/197 300/248/194
f 282/252/198 302/253/199 301/251/200
f 292/254/201 305/255/202 293/256/203
f 291/257/204 306/258/205 292/254/206
f 299/259/207 307/260/208 291/261/204
f 93/173/117 197/216/161 104/176/119
f 88/162/105 84/262/102 77/263/209
f 96/170/113 92/264/210 85/165/108
f 104/176/119 100/265/211 93/173/117
f 101/266/212 81/155/97 108/267/125
f 89/161/104 112/268/213 84/262/102
f 97/169/112 116/269/214 92/264/210
f 105/178/121 120/270/215 100/265/211
f 108/267/125 109/271/216 124/272/217
f 113/273/218 128/274/219 112/275/213
f 117/276/220 132/277/221 116/269/214
f 121/278/222 136/279/223 120/280/215
f 124/272/217 125/281/224 140/282/225
f 129/283/226 144/284/227 128/274/219
f 133/285/228 148/286/229 132/277/221
f 137/287/230 152/288/231 136/279/223
f 140/282/225 141/289/232 156/290/233
f 145/291/234 162/195/139 144/284/227
f 149/292/235 174/293/236 148/286/229
f 153/294/237 183/209/152 152/288/231
f 156/290/233 159/295/129 192/296/128
f 213/297/173 201/298/238 212/299/174
f 205/220/165 196/300/239 204/218/163
f 217/301/240 197/216/161 193/302/241
f 200/303/157 216/304/242 209/231/177
f 229/305/243 208/225/170 213/297/173
f 225/306/244 220/307/245 205/220/165
f 233/308/246 224/309/247 217/310/240
f 221/311/156 232/312/248 216/304/242
f 245/313/249 228/314/250 229/315/243
f 241/316/251 236/317/252 225/306/244
f 249/318/253 240/319/254 233/308/246
f 237/320/255 248/321/256 232/312/248
f 261/322/257 244/323/258 245/313/249
f 257/324/259 252/325/260 241/316/251
f 265/326/261 256/327/262 249/318/253
f 253/328/263 264/329/264 248/321/256
f 261/322/257 278/246/192 260/330/265
f 275/235/182 268/331/266 257/324/259
f 293/256/203 272/332/267 265/326/261
f 269/333/268 290/334/269 264/329/264
f 212/299/174 88/162/105 77/263/209
f 204/218/163 96/170/113 85/165/108
f 101/266/212 209/231/177 80/153/95
f 177/198/142 165/188/133 168/191/136
f 281/238/186 308/249/195 299/259/207
f 83/157/99 112/335/213 111/336/270
f 81/155/97 110/337/271 109/271/216
f 82/154/100 111/336/272 110/337/273
f 92/264/210 115/338/274 91/166/109
f 90/164/107 113/339/218 89/161/104
f 91/340/275 114/341/276 90/164/107
f 96/170/113 195/342/277 95/168/111
f 94/175/114 193/302/241 93/173/117
f 95/168/116 194/343/278 94/171/114
f 100/344/211 119/345/279 99/346/118
f 98/172/280 117/276/220 97/169/112
f 99/347/118 118/348/281 98/172/115
f 107/180/126 124/349/217 123/350/282
f 105/178/121 122/351/283 121/352/222
f 106/177/120 123/350/284 122/351/283
f 112/275/213 127/353/285 111/354/270
f 110/337/271 125/281/224 109/271/216
f 111/336/272 126/355/286 110/337/273
f 115/338/274 132/277/221 131/356/287
f 113/273/218 130/357/288 129/283/226
f 114/341/276 131/358/287 130/359/289
f 119/345/279 136/279/223 135/360/290
f 117/276/220 134/361/291 133/285/228
f 118/348/281 135/362/292 134/361/291
f 124/349/217 139/363/293 123/350/282
f 122/364/283 137/287/230 121/278/222
f 123/350/284 138/365/294 122/351/283
f 128/274/219 143/366/295 127/353/285
f 126/355/296 141/289/232 125/281/224
f 127/353/285 142/367/297 126/368/286
f 131/356/287 148/286/229 147/369/298
f 129/283/226 146/370/299 145/291/234
f 130/357/289 147/371/298 146/370/300
f 135/360/290 152/288/231 151/372/301
f 133/285/228 150/373/302 149/292/235
f 134/361/291 151/374/303 150/373/302
f 140/282/225 155/375/304 139/376/293
f 138/377/305 153/294/237 137/287/230
f 139/378/306 154/379/307 138/377/294
f 143/366/295 162/195/139 161/380/308
f 141/289/232 160/381/309 159/295/129
f 142/367/297 161/380/310 160/382/309
f 148/286/229 173/383/311 147/369/298
f 146/370/299 171/384/312 145/291/234
f 147/371/298 172/385/313 146/370/300
f 152/288/231 182/386/314 151/372/301
f 150/373/302 180/203/146 149/292/235
f 151/372/303 181/387/315 150/388/302
f 155/375/304 192/296/128 191/389/316
f 153/294/237 190/390/317 189/391/318
f 154/379/307 191/392/316 190/390/319
f 195/342/277 220/307/245 219/393/320
f 193/302/241 218/394/321 217/301/240
f 194/343/278 219/393/322 218/395/321
f 101/396/212 199/211/155 200/213/157
f 102/181/323 198/214/158 199/211/160
f 103/179/122 197/216/161 198/214/158
f 86/167/110 204/218/163 85/165/108
f 87/160/103 203/221/166 86/163/106
f 88/162/105 202/224/169 87/160/103
f 207/222/171 228/397/250 227/398/324
f 205/220/165 226/399/325 225/306/244
f 206/223/168 227/398/326 226/400/327
f 77/401/209 211/226/172 212/228/174
f 78/158/101 210/229/175 211/226/172
f 79/156/328 209/231/177 210/229/179
f 216/304/242 231/402/329 215/232/178
f 214/230/330 229/403/243 213/227/173
f 215/232/331 230/404/332 214/230/176
f 219/393/320 236/317/252 235/405/333
f 217/310/240 234/406/334 233/308/246
f 218/395/321 235/405/335 234/407/334
f 224/408/247 239/409/336 223/217/162
f 222/215/337 237/410/255 221/212/156
f 223/217/162 238/411/338 222/215/159
f 228/314/250 243/412/339 227/413/324
f 226/399/325 241/316/251 225/306/244
f 227/398/326 242/414/340 226/400/327
f 231/402/329 248/321/256 247/415/341
f 229/315/243 246/416/342 245/313/249
f 230/404/332 247/415/343 246/417/342
f 236/317/252 251/418/344 235/405/333
f 234/406/334 249/318/253 233/308/246
f 235/405/335 250/419/345 234/407/334
f 239/420/336 256/327/262 255/421/346
f 237/410/255 254/422/347 253/423/263
f 238/411/338 255/424/348 254/422/349
f 244/323/258 259/425/350 243/412/339
f 242/426/351 257/324/259 241/316/251
f 243/412/339 258/427/352 242/428/340
f 247/415/341 264/329/264 263/429/353
f 245/313/249 262/430/354 261/322/257
f 246/416/342 263/431/353 262/430/354
f 252/325/260 267/432/355 251/418/344
f 250/433/356 265/326/261 249/318/253
f 251/418/357 266/434/358 250/419/345
f 255/421/346 272/332/267 271/435/359
f 253/328/263 270/436/360 269/333/268
f 254/437/349 271/435/361 270/438/360
f 259/425/350 278/246/192 277/439/362
f 257/324/259 276/440/363 275/235/182
f 258/427/352 277/439/364 276/441/363
f 264/329/264 289/442/365 263/429/353
f 262/430/354 287/443/366 261/322/257
f 263/431/353 288/444/367 262/430/354
f 267/432/355 296/234/181 295/445/368
f 265/326/261 294/446/369 293/256/203
f 266/447/358 295/448/368 294/446/370
f 272/332/267 304/449/371 271/435/359
f 270/436/360 302/450/199 269/333/268
f 271/435/361 303/451/372 270/438/360
f 165/188/133 309/452/373 164/190/135
f 309/452/374 158/183/132 310/453/375
f 159/185/129 310/453/376 158/183/127
f 160/382/309 311/454/377 310/455/375
f 162/195/139 311/454/378 161/380/308
f 163/456/137 309/452/374 311/457/377
f 309/452/374 310/453/375 311/457/377
f 174/293/236 312/458/379 173/383/311
f 166/202/380 313/459/381 312/458/382
f 168/191/136 313/460/383 167/461/143
f 313/462/381 170/196/140 314/463/384
f 171/384/312 314/463/385 170/196/140
f 314/464/384 173/383/311 312/458/382
f 312/458/382 313/459/381 314/464/384
f 183/209/152 315/465/386 182/386/314
f 315/465/387 176/208/148 316/466/388
f 177/198/142 316/467/389 176/204/148
f 316/468/388 179/200/144 317/469/390
f 180/203/146 317/469/391 179/200/147
f 317/469/390 182/470/392 315/471/387
f 315/471/387 316/468/388 317/469/390
f 192/184/128 318/472/393 191/473/316
f 184/187/131 319/474/394 318/472/395
f 186/205/149 319/474/396 185/189/134
f 187/475/151 320/476/397 319/474/394
f 189/391/318 320/477/398 188/210/153
f 190/390/319 318/478/395 320/477/397
f 318/472/395 319/474/394 320/476/397
f 281/238/186 321/479/399 280/241/188
f 321/480/400 274/233/185 322/481/401
f 275/235/182 322/481/402 274/233/180
f 276/440/363 323/482/403 322/481/401
f 278/246/192 323/483/404 277/439/362
f 279/243/190 321/484/400 323/483/403
f 321/480/400 322/481/401 323/482/403
f 290/485/269 324/486/405 289/487/365
f 282/252/406 325/488/407 324/486/408
f 284/242/189 325/488/409 283/250/196
f 325/488/407 286/489/193 326/490/410
f 287/443/366 326/491/411 286/247/193
f 326/491/410 289/492/365 324/493/408
f 324/486/408 325/488/407 326/490/410
f 299/259/207 327/494/412 298/239/187
f 327/495/413 292/254/206 328/496/414
f 293/256/203 328/496/415 292/254/201
f 294/497/370 329/498/416 328/499/414
f 296/234/181 329/498/417 295/445/368
f 329/498/416 298/500/187 327/501/413
f 327/501/413 328/499/414 329/498/416
f 308/249/195 330/502/418 307/260/208
f 300/248/194 331/503/419 330/502/420
f 302/253/199 331/503/421 301/251/200
f 331/504/419 304/449/422 332/505/423
f 305/255/202 332/505/424 304/449/371
f 306/506/205 330/502/420 332/507/423
f 330/502/420 331/503/419 332/507/423
f 8/1/1 36/52/37 35/2/2
s 0
f 6/4/4 10/508/4 9/5/4
s 1
f 76/7/5 12/509/6 37/8/6
s 0
f 12/10/425 11/90/425 60/11/425
s 1
f 13/13/9 15/510/426 34/14/10
s 0
f 15/16/4 14/92/4 23/17/4
f 17/19/427 5/511/427 18/20/427
s 1
f 64/22/13 65/45/31 31/23/14
f 20/25/15 44/63/47 43/26/16
f 20/25/15 19/27/17 22/28/17
f 21/29/18 22/28/17 28/30/19
f 70/32/21 25/512/24 45/33/22
f 25/35/24 70/513/21 71/36/25
f 71/38/25 30/43/29 29/39/26
f 27/31/20 28/30/19 46/41/27
f 30/43/29 72/514/92 47/44/30
f 65/45/31 66/515/33 32/46/32
f 66/47/33 67/516/91 52/48/34
f 33/15/11 34/14/10 42/50/35
f 36/52/37 39/56/41 38/53/38
f 75/9/7 37/8/6 40/54/39
f 39/56/41 48/517/51 49/57/42
f 74/58/40 40/86/39 50/59/43
f 41/51/36 42/50/35 51/61/45
f 44/63/47 53/69/52 54/64/48
f 69/34/23 45/33/22 55/65/49
f 46/41/27 49/518/42 48/67/51
f 47/44/30 72/514/92 73/60/44
f 57/68/46 51/519/45 54/64/48
f 52/48/34 67/516/91 68/66/50
f 34/70/53 15/16/53 24/18/53
f 31/72/54 1/520/54 5/73/54
f 3/75/53 10/508/53 6/4/53
f 61/77/55 2/521/428 37/78/56
f 26/37/58 2/522/428 1/80/54
f 4/71/53 3/75/53 22/81/59
f 46/85/53 28/523/59 38/83/59
f 28/523/59 22/81/59 3/75/53
f 35/76/53 28/523/59 3/75/53
f 35/76/53 38/83/59 28/523/59
f 40/86/58 37/78/56 29/39/58
f 37/78/56 2/521/428 29/39/58
f 2/521/428 26/40/58 29/39/58
f 29/39/58 47/44/58 50/59/58
f 43/87/59 54/524/53 51/525/53
f 51/525/53 42/526/59 43/87/59
f 42/526/59 34/70/53 43/87/59
f 34/70/53 4/71/53 43/87/59
f 45/33/58 25/512/58 1/520/54
f 1/520/54 31/72/54 45/33/58
f 31/72/54 32/49/58 45/33/58
f 32/49/58 52/48/58 55/65/54
f 10/527/83 3/528/429 59/106/81
f 4/94/72 58/108/84 59/95/73
f 58/110/85 4/529/430 24/530/86
f 62/100/77 63/531/431 1/101/78
f 62/532/432 2/533/433 61/534/82
f 10/103/79 61/107/434 60/104/79
f 59/106/81 62/532/432 61/107/82
f 58/108/84 63/531/431 62/100/77
f 5/109/75 63/97/74 58/110/85
f 18/112/87 5/109/435 24/111/87
f 16/114/89 18/535/89 23/115/89
f 16/117/90 14/536/90 13/118/90
f 64/119/13 13/118/9 33/120/11
f 65/121/31 33/120/11 41/122/36
f 66/123/33 41/122/36 57/124/46
f 68/126/50 67/125/91 57/124/46
f 69/128/23 68/537/50 53/129/52
f 69/128/23 44/130/47 20/131/15
f 70/132/21 20/131/15 21/133/18
f 30/135/29 71/134/25 21/133/18
f 30/135/29 27/136/20 56/137/28
f 72/139/92 56/538/28 48/140/51
f 74/142/40 73/141/44 48/140/51
f 75/144/7 74/142/40 39/143/41
f 75/144/7 36/145/37 8/146/1
f 76/147/93 8/146/93 7/148/93
f 9/150/89 60/539/89 11/151/89
f 80/153/95 79/156/328 82/154/96
f 79/156/98 78/158/101 83/157/99
f 78/158/101 77/401/209 84/159/102
f 87/160/103 90/164/107 89/161/104
f 86/163/106 91/340/275 90/164/107
f 85/165/108 92/264/210 91/166/109
f 95/168/111 98/172/280 97/169/112
f 94/171/114 99/347/118 98/172/115
f 93/173/117 100/265/211 99/174/118
f 104/176/119 103/179/122 106/177/120
f 103/179/122 102/181/323 107/180/123
f 102/181/124 101/396/212 108/182/125
f 158/183/127 184/187/436 192/184/128
f 157/186/130 185/189/134 184/187/131
f 165/188/133 186/205/149 185/189/134
f 164/190/135 169/540/138 168/191/136
f 163/192/137 170/196/140 169/193/138
f 162/195/139 171/384/312 170/196/140
f 168/191/136 167/461/143 178/197/141
f 167/199/143 166/202/380 179/200/144
f 166/202/145 174/293/236 180/203/146
f 176/204/148 187/475/151 186/205/149
f 175/206/150 188/210/437 187/207/151
f 183/209/152 189/391/318 188/210/153
f 199/211/155 222/215/337 221/212/156
f 198/214/158 223/217/162 222/215/159
f 197/216/161 224/408/247 223/217/162
f 204/218/163 203/541/438 206/219/164
f 203/221/166 202/224/169 207/222/167
f 202/224/169 201/298/238 208/225/170
f 211/226/172 214/230/330 213/227/173
f 210/229/175 215/232/331 214/230/176
f 209/231/177 216/304/242 215/232/178
f 274/233/180 297/237/439 296/234/181
f 273/236/183 298/500/187 297/237/184
f 281/238/186 299/259/207 298/239/187
f 280/241/188 285/542/191 284/242/189
f 279/243/190 286/247/193 285/244/191
f 278/246/192 287/443/366 286/247/193
f 284/242/189 283/250/196 300/248/194
f 283/250/196 282/252/406 301/251/197
f 282/252/198 290/485/269 302/253/199
f 292/254/201 306/258/440 305/255/202
f 291/257/204 307/543/208 306/258/205
f 299/259/207 308/249/195 307/260/208
f 93/173/117 193/302/241 197/216/161
f 88/162/105 89/161/104 84/262/102
f 96/170/113 97/169/112 92/264/210
f 104/176/119 105/178/121 100/265/211
f 101/266/212 80/153/95 81/155/97
f 89/161/104 113/339/218 112/268/213
f 97/169/112 117/276/220 116/269/214
f 105/178/121 121/352/222 120/270/215
f 108/267/125 81/155/97 109/271/216
f 113/273/218 129/283/226 128/274/219
f 117/276/220 133/285/228 132/277/221
f 121/278/222 137/287/230 136/279/223
f 124/272/217 109/271/216 125/281/224
f 129/283/226 145/291/234 144/284/227
f 133/285/228 149/292/235 148/286/229
f 137/287/230 153/294/237 152/288/231
f 140/282/225 125/281/224 141/289/232
f 145/291/234 171/384/312 162/195/139
f 149/292/235 180/203/146 174/293/236
f 153/294/237 189/391/318 183/209/152
f 156/290/233 141/289/232 159/295/129
f 213/297/173 208/225/170 201/298/238
f 205/220/165 220/307/245 196/300/239
f 217/301/240 224/408/247 197/216/161
f 200/303/157 221/311/156 216/304/242
f 229/305/243 228/397/250 208/225/170
f 225/306/244 236/317/252 220/307/245
f 233/308/246 240/319/254 224/309/247
f 221/311/156 237/320/255 232/312/248
f 245/313/249 244/323/258 228/314/250
f 241/316/251 252/325/260 236/317/252
f 249/318/253 256/327/262 240/319/254
f 237/320/255 253/328/263 248/321/256
f 261/322/257 260/330/265 244/323/258
f 257/324/259 268/331/266 252/325/260
f 265/326/261 272/332/267 256/327/262
f 253/328/263 269/333/268 264/329/264
f 261/322/257 287/443/366 278/246/192
f 275/235/182 296/234/181 268/331/266
f 293/256/203 305/255/202 272/332/267
f 269/333/268 302/450/199 290/334/269
f 212/299/174 201/298/238 88/162/105
f 204/218/163 196/300/239 96/170/113
f 101/266/212 200/303/157 209/231/177
f 177/198/142 186/205/149 165/188/133
f 281/238/186 284/242/189 308/249/195
f 83/157/99 84/159/102 112/335/213
f 81/155/97 82/154/96 110/337/271
f 82/154/100 83/157/99 111/336/272
f 92/264/210 116/269/214 115/338/274
f 90/164/107 114/341/441 113/339/218
f 91/340/275 115/544/274 114/341/276
f 96/170/113 196/300/239 195/342/277
f 94/175/114 194/545/278 193/302/241
f 95/168/116 195/342/442 194/343/278
f 100/344/211 120/280/215 119/345/279
f 98/172/280 118/348/443 117/276/220
f 99/347/118 119/546/279 118/348/281
f 107/180/126 108/182/125 124/349/217
f 105/178/121 106/177/120 122/351/283
f 106/177/120 107/180/123 123/350/284
f 112/275/213 128/274/219 127/353/285
f 110/337/271 126/355/296 125/281/224
f 111/336/272 127/547/285 126/355/286
f 115/338/274 116/269/214 132/277/221
f 113/273/218 114/548/441 130/357/288
f 114/341/276 115/544/274 131/358/287
f 119/345/279 120/280/215 136/279/223
f 117/276/220 118/348/443 134/361/291
f 118/348/281 119/546/279 135/362/292
f 124/349/217 140/549/225 139/363/293
f 122/364/283 138/377/305 137/287/230
f 123/350/284 139/363/306 138/365/294
f 128/274/219 144/284/227 143/366/295
f 126/355/296 142/550/297 141/289/232
f 127/353/285 143/366/295 142/367/297
f 131/356/287 132/277/221 148/286/229
f 129/283/226 130/357/288 146/370/299
f 130/357/289 131/551/287 147/371/298
f 135/360/290 136/279/223 152/288/231
f 133/285/228 134/361/291 150/373/302
f 134/361/291 135/362/292 151/374/303
f 140/282/225 156/290/233 155/375/304
f 138/377/305 154/379/444 153/294/237
f 139/378/306 155/552/304 154/379/307
f 143/366/295 144/284/227 162/195/139
f 141/289/232 142/550/297 160/381/309
f 142/367/297 143/366/295 161/380/310
f 148/286/229 174/293/236 173/383/311
f 146/370/299 172/385/445 171/384/312
f 147/371/298 173/553/311 172/385/313
f 152/288/231 183/209/152 182/386/314
f 150/373/302 181/554/315 180/203/146
f 151/372/303 182/386/392 181/387/315
f 155/375/304 156/290/233 192/296/128
f 153/294/237 154/379/444 190/390/317
f 154/379/307 155/552/304 191/392/316
f 195/342/277 196/300/239 220/307/245
f 193/302/241 194/545/278 218/394/321
f 194/343/278 195/342/442 219/393/322
f 101/396/212 102/181/124 199/211/155
f 102/181/323 103/179/122 198/214/158
f 103/179/122 104/176/119 197/216/161
f 86/167/110 203/541/438 204/218/163
f 87/160/103 202/224/169 203/221/166
f 88/162/105 201/298/238 202/224/169
f 207/222/171 208/225/170 228/397/250
f 205/220/165 206/219/164 226/399/325
f 206/223/168 207/222/167 227/398/326
f 77/401/209 78/158/101 211/226/172
f 78/158/101 79/156/98 210/229/175
f 79/156/328 80/153/95 209/231/177
f 216/304/242 232/312/248 231/402/329
f 214/230/330 230/404/446 229/403/243
f 215/232/331 231/402/447 230/404/332
f 219/393/320 220/307/245 236/317/252
f 217/310/240 218/555/321 234/406/334
f 218/395/321 219/393/322 235/405/335
f 224/408/247 240/556/254 239/409/336
f 222/215/337 238/411/448 237/410/255
f 223/217/162 239/409/336 238/411/338
f 228/314/250 244/323/258 243/412/339
f 226/399/325 242/426/351 241/316/251
f 227/398/326 243/557/339 242/414/340
f 231/402/329 232/312/248 248/321/256
f 229/315/243 230/558/446 246/416/342
f 230/404/332 231/402/447 247/415/343
f 236/317/252 252/325/260 251/418/344
f 234/406/334 250/433/356 249/318/253
f 235/405/335 251/418/357 250/419/345
f 239/420/336 240/319/254 256/327/262
f 237/410/255 238/411/448 254/422/347
f 238/411/338 239/409/336 255/424/348
f 244/323/258 260/330/265 259/425/350
f 242/426/351 258/559/352 257/324/259
f 243/412/339 259/425/350 258/427/352
f 247/415/341 248/321/256 264/329/264
f 245/313/249 246/416/342 262/430/354
f 246/416/342 247/560/343 263/431/353
f 252/325/260 268/331/266 267/432/355
f 250/433/356 266/447/449 265/326/261
f 251/418/357 267/432/355 266/434/358
f 255/421/346 256/327/262 272/332/267
f 253/328/263 254/561/347 270/436/360
f 254/437/349 255/421/348 271/435/361
f 259/425/350 260/330/265 278/246/192
f 257/324/259 258/559/352 276/440/363
f 258/427/352 259/425/350 277/439/364
f 264/329/264 290/334/269 289/442/365
f 262/430/354 288/444/450 287/443/366
f 263/431/353 289/492/365 288/444/367
f 267/432/355 268/331/266 296/234/181
f 265/326/261 266/447/449 294/446/369
f 266/447/358 267/562/355 295/448/368
f 272/332/267 305/255/202 304/449/371
f 270/436/360 303/563/372 302/450/199
f 271/435/361 304/449/422 303/451/372
f 165/188/133 157/186/130 309/452/373
f 309/452/374 157/186/130 158/183/132
f 159/185/129 160/564/309 310/453/376
f 160/382/309 161/380/310 311/454/377
f 162/195/139 163/192/137 311/454/378
f 163/456/137 164/190/135 309/452/374
f 174/293/236 166/202/145 312/458/379
f 166/202/380 167/199/143 313/459/381
f 168/191/136 169/540/138 313/460/383
f 313/462/381 169/193/138 170/196/140
f 171/384/312 172/385/445 314/463/385
f 314/464/384 172/565/313 173/383/311
f 183/209/152 175/206/154 315/465/386
f 315/465/387 175/206/150 176/208/148
f 177/198/142 178/197/141 316/467/389
f 316/468/388 178/201/141 179/200/144
f 180/203/146 181/554/315 317/469/391
f 317/469/390 181/554/315 182/470/392
f 192/184/128 184/187/436 318/472/393
f 184/187/131 185/189/134 319/474/394
f 186/205/149 187/475/151 319/474/396
f 187/475/151 188/566/437 320/476/397
f 189/391/318 190/390/317 320/477/398
f 190/390/319 191/392/316 318/478/395
f 281/238/186 273/240/183 321/479/399
f 321/480/400 273/236/183 274/233/185
f 275/235/182 276/440/363 322/481/402
f 276/440/363 277/567/364 323/482/403
f 278/246/192 279/243/190 323/483/404
f 279/243/190 280/245/188 321/484/400
f 290/485/269 282/252/198 324/486/405
f 282/252/406 283/250/196 325/488/407
f 284/242/189 285/542/191 325/488/409
f 325/488/407 285/542/191 286/489/193
f 287/443/366 288/444/450 326/491/411
f 326/491/410 288/444/367 289/492/365
f 299/259/207 291/261/204 327/494/412
f 327/495/413 291/257/204 292/254/206
f 293/256/203 294/446/369 328/496/415
f 294/497/370 295/445/368 329/498/416
f 296/234/181 297/237/439 329/498/417
f 329/498/416 297/237/184 298/500/187
f 308/249/195 300/248/194 330/502/418
f 300/248/194 301/251/197 331/503/419
f 302/253/199 303/568/372 331/503/421
f 331/504/419 303/451/372 304/449/422
f 305/255/202 306/258/440 332/505/424
f 306/506/205 307/260/208 330/502/420
