# Blender 4.0.0
# www.blender.org
o door_Clear
v -0.20887000 -0.20317900 -0.12292550
v 0.18831600 -0.20317900 -0.12292550
v -0.20887000 -0.20317900 0.13102750
v 0.18831600 -0.20317900 0.13102750
v -0.20887000 -0.19464700 0.13102750
v 0.18831600 -0.19464700 0.13102750
v -0.20887000 -0.19464700 -0.12292550
v 0.18831600 -0.19464700 -0.12292550
vn -0.0000 -1.0000 -0.0000
vn -0.0000 -0.0000 1.0000
vn -0.0000 1.0000 -0.0000
vn -0.0000 -0.0000 -1.0000
vn 1.0000 -0.0000 -0.0000
vn -1.0000 -0.0000 -0.0000
vt 0.586004 0.777768
vt 0.526465 0.675613
vt 0.586004 0.675335
vt 0.555000 0.664566
vt 0.557529 0.771944
vt 0.555347 0.771951
vt 0.584575 0.771516
vt 0.525069 0.680756
vt 0.584575 0.679618
vt 0.552811 0.664573
vt 0.553165 0.771959
vt 0.528127 0.695811
vt 0.587660 0.697896
vt 0.528118 0.697896
vt 0.561878 0.760167
vt 0.563361 0.700646
vt 0.563361 0.760188
vt 0.526465 0.778046
vt 0.557182 0.664559
vt 0.525069 0.772654
vt 0.554993 0.664566
vt 0.587669 0.695811
vt 0.561878 0.700625
s 0
f 2/1/1 3/2/1 1/3/1
f 4/4/2 5/5/2 3/6/2
f 6/7/3 7/8/3 5/9/3
f 8/10/4 1/6/4 7/11/4
f 8/12/5 4/13/5 2/14/5
f 1/15/6 5/16/6 7/17/6
f 2/1/1 4/18/1 3/2/1
f 4/4/2 6/19/2 5/5/2
f 6/7/3 8/20/3 7/8/3
f 8/10/4 2/21/4 1/6/4
f 8/12/5 6/22/5 4/13/5
f 1/15/6 3/23/6 5/16/6
