# Blender 4.0.0
# www.blender.org
mtllib Microwave011_Door_Clear.mtl
o Microwave011_Door_Clear
v -0.151393 -0.125544 0.007460
v 0.149272 -0.125532 0.252577
v -0.151514 -0.123615 0.009866
v 0.149395 -0.123579 0.250252
v -0.151476 -0.126159 0.245853
v 0.149234 -0.126429 0.249206
v 0.149364 -0.127297 0.121628
v -0.151487 -0.127036 0.115111
v 0.149198 -0.127850 0.162096
v 0.149198 -0.127937 0.110102
v -0.151318 -0.127850 0.097760
v -0.151308 -0.127952 0.148273
v -0.149437 -0.126905 0.021054
v 0.145976 -0.126852 0.018300
v -0.148333 -0.126841 0.241963
v -0.151412 -0.124933 0.253009
v 0.149292 -0.124933 0.007091
v 0.149292 -0.124969 0.252988
v -0.150971 -0.125985 0.251989
v -0.151260 -0.124729 0.253199
v 0.148745 -0.128038 0.122317
v 0.148862 -0.125985 0.007955
v 0.149136 -0.124728 0.006913
v -0.151303 -0.127994 0.123852
v -0.150966 -0.125990 0.007962
v -0.151261 -0.124758 0.006922
v 0.148844 -0.125988 0.251967
v 0.149141 -0.124753 0.253188
v -0.151552 -0.123596 0.009467
v -0.151552 -0.123597 0.130048
v -0.151552 -0.123521 0.250758
v -0.151552 -0.123316 0.250824
v 0.149397 -0.123384 0.250751
v 0.149431 -0.123546 0.250513
v 0.149432 -0.123597 0.129948
v 0.149408 -0.123552 0.009442
v 0.149432 -0.123268 0.009302
v -0.151503 -0.123693 0.009299
v 0.149347 -0.126202 0.011139
v 0.149324 -0.125866 0.251658
v -0.151446 -0.125856 0.251708
v -0.151463 -0.125853 0.008522
v 0.148838 -0.126462 0.010151
v 0.148868 -0.126312 0.250710
v -0.150929 -0.126314 0.250738
v -0.150995 -0.126304 0.009074
v 0.149432 -0.123589 0.249299
v 0.149303 -0.126551 0.014352
v 0.149298 -0.127674 0.088646
v 0.149320 -0.127706 0.160460
v -0.151451 -0.127672 0.157583
v -0.151439 -0.127737 0.103019
v 0.148866 -0.126953 0.025975
v 0.148759 -0.127621 0.071989
v 0.149148 -0.126967 0.231540
v 0.149161 -0.127583 0.187698
v -0.150967 -0.126958 0.233626
v -0.150903 -0.127597 0.189462
v -0.150980 -0.126899 0.022395
v -0.151283 -0.127584 0.072221
v -0.151554 -0.123593 0.225162
v -0.151553 -0.123595 0.182890
v -0.151551 -0.123602 0.034931
v -0.151526 -0.123604 0.076746
v 0.149433 -0.123602 0.034924
v 0.149432 -0.123592 0.224985
v 0.148837 -0.126686 0.013770
v -0.151285 -0.126633 0.013119
v 0.149153 -0.126637 0.246619
v -0.150958 -0.126683 0.246104
v 0.143597 -0.128078 0.129913
v 0.145522 -0.125971 0.007818
v -0.147649 -0.125969 0.007817
v 0.145352 -0.124773 0.006859
v -0.147672 -0.124771 0.006859
v -0.147572 -0.125971 0.252137
v 0.145616 -0.126024 0.252004
v -0.147651 -0.124775 0.253252
v 0.145618 -0.124771 0.253251
v -0.147723 -0.126485 0.249860
v 0.145586 -0.126435 0.250217
v 0.145587 -0.126472 0.009862
v -0.147773 -0.126434 0.009606
v 0.146058 -0.127092 0.227591
v -0.147769 -0.127066 0.229537
v -0.147132 -0.127654 0.188370
v -0.148249 -0.127038 0.028605
v 0.144230 -0.127817 0.085014
v -0.149506 -0.127708 0.076119
v 0.145486 -0.126742 0.014303
v -0.149401 -0.126753 0.014668
v -0.147618 -0.126743 0.245521
v 0.145345 -0.126758 0.245078
v -0.147847 -0.126301 0.008847
v -0.147624 -0.125528 0.007225
v -0.151491 -0.125220 0.252103
v -0.151480 -0.123973 0.252931
v 0.145791 -0.126294 0.251018
v 0.145634 -0.125528 0.252819
v 0.149370 -0.125655 0.248984
v 0.149354 -0.125145 0.007560
v -0.151494 -0.125128 0.008342
v 0.149381 -0.123718 0.250830
v 0.149372 -0.123831 0.007479
v -0.151261 -0.125492 0.007281
v -0.151412 -0.125493 0.252597
v 0.149354 -0.125310 0.252414
v 0.149306 -0.126031 0.008604
v 0.149291 -0.125500 0.007447
v -0.151462 -0.125261 0.007430
v -0.151260 -0.125477 0.252784
v 0.149137 -0.125489 0.252765
v 0.149143 -0.126257 0.008950
v 0.149137 -0.125476 0.007267
v -0.151319 -0.125940 0.251968
v 0.149273 -0.126195 0.250659
v 0.149234 -0.125921 0.007981
v -0.151393 -0.126188 0.009125
v -0.151354 -0.125937 0.008017
v -0.151393 -0.124987 0.007089
v 0.149198 -0.125949 0.251933
v -0.151526 -0.123567 0.009348
v 0.149432 -0.123470 0.009329
v -0.151503 -0.123639 0.250820
v 0.149381 -0.123804 0.009230
v -0.151527 -0.123591 0.250324
v 0.149391 -0.123475 0.009313
v -0.151516 -0.123554 0.250697
v -0.151516 -0.123449 0.250812
v 0.149395 -0.123513 0.250602
v 0.149371 -0.125472 0.009744
v 0.149273 -0.126560 0.246139
v 0.149271 -0.126351 0.010241
v -0.151393 -0.126572 0.014050
v -0.151387 -0.126197 0.250712
v 0.149404 -0.123596 0.247797
v 0.145535 -0.126557 0.249099
v -0.147770 -0.126556 0.010715
v 0.149338 -0.126295 0.247834
v -0.151418 -0.126377 0.248826
v -0.151419 -0.126362 0.010791
v 0.148850 -0.126502 0.249187
v -0.151257 -0.126487 0.249143
v -0.151260 -0.126481 0.010607
v -0.151553 -0.123592 0.247880
v -0.151552 -0.123603 0.013435
v 0.149401 -0.123610 0.012107
v 0.147579 -0.127665 0.186638
v 0.145637 -0.127154 0.036282
v -0.149591 -0.128068 0.130296
v 0.149274 -0.127490 0.187930
v 0.149188 -0.127987 0.138474
v 0.149273 -0.126849 0.026728
v -0.151401 -0.127530 0.075440
v -0.151395 -0.127908 0.135987
v -0.151397 -0.127681 0.172540
v -0.146453 -0.128028 0.109802
v 0.148747 -0.127902 0.096981
v 0.148798 -0.127927 0.159288
v -0.150934 -0.127915 0.160629
v -0.150901 -0.127920 0.099577
v -0.151554 -0.123594 0.206504
v -0.151524 -0.123600 0.164976
v -0.151552 -0.123601 0.053592
v -0.151545 -0.123600 0.095627
v 0.149404 -0.123605 0.057539
v 0.149405 -0.123602 0.095122
v 0.149405 -0.123598 0.202305
v 0.149405 -0.123599 0.164622
v -0.151473 -0.126228 0.014218
v -0.151318 -0.126912 0.026227
v -0.151425 -0.126681 0.020548
v -0.151550 -0.123603 0.018048
v 0.149431 -0.123603 0.018053
v 0.149391 -0.123608 0.009776
v -0.151391 -0.126567 0.245954
v 0.145455 -0.126910 0.238608
v 0.149293 -0.126796 0.234787
v -0.151412 -0.126807 0.233977
v 0.148818 -0.126830 0.240704
v -0.151553 -0.123592 0.242051
v 0.149433 -0.123591 0.241853
v -0.151509 -0.123612 0.249996
v 0.149387 -0.123612 0.250479
v 0.145402 -0.126300 0.008842
v 0.145422 -0.125530 0.007225
v -0.147460 -0.126315 0.250945
v -0.147637 -0.125531 0.252824
v -0.147638 -0.126634 0.248028
v 0.145642 -0.126633 0.011803
v 0.143595 -0.127543 0.063412
v 0.143597 -0.127984 0.103141
v 0.145170 -0.124169 0.253394
v -0.151464 -0.124083 0.006991
v 0.149206 -0.124135 0.253300
v -0.151513 -0.123201 0.009307
v -0.151510 -0.123037 0.250857
v 0.149179 -0.126463 0.010672
v 0.147423 -0.127971 0.158457
v 0.147151 -0.128053 0.143214
v -0.149386 -0.128023 0.149849
v 0.149280 -0.127912 0.134126
v -0.151527 -0.123596 0.232500
v 0.125363 -0.124171 0.006745
v 0.071044 -0.124166 0.006744
v -0.127693 -0.124171 0.006745
v -0.068875 -0.124168 0.006744
v -0.127693 -0.124171 0.253385
v -0.068877 -0.124167 0.253386
v 0.125363 -0.124171 0.253384
v 0.070969 -0.124166 0.253385
v -0.035918 -0.124170 0.006745
v 0.035517 -0.124170 0.253384
v -0.151414 -0.124092 0.253203
v 0.149294 -0.124089 0.006927
v 0.149361 -0.123983 0.252959
v -0.151260 -0.125720 0.252480
v -0.151261 -0.125163 0.253021
v -0.151244 -0.124149 0.253331
v 0.149137 -0.125720 0.007529
v 0.149137 -0.125161 0.007064
v 0.149120 -0.124148 0.006799
v -0.150869 -0.128017 0.117206
v -0.151259 -0.125733 0.007545
v -0.151226 -0.124154 0.006797
v -0.151260 -0.125181 0.007075
v 0.149139 -0.125732 0.252450
v 0.149139 -0.125178 0.253007
v -0.151552 -0.123031 0.250842
v 0.149432 -0.122975 0.009298
v 0.149394 -0.122998 0.250820
v 0.149388 -0.122982 0.009280
v 0.149184 -0.126270 0.250694
v -0.151295 -0.126272 0.250727
v -0.151306 -0.126264 0.009098
v 0.149179 -0.126920 0.026390
v 0.149190 -0.127706 0.082819
v -0.151300 -0.126915 0.233696
v -0.151311 -0.127700 0.177480
v -0.151526 -0.123606 0.027593
v 0.149406 -0.123606 0.027596
v 0.149432 -0.123592 0.232167
v 0.149178 -0.126646 0.013804
v -0.151299 -0.126642 0.246054
v 0.143558 -0.128054 0.116537
v 0.145457 -0.125779 0.007495
v 0.145592 -0.126119 0.008190
v -0.147738 -0.126118 0.008188
v -0.147771 -0.125777 0.007495
v 0.141551 -0.124170 0.006747
v 0.145367 -0.125210 0.007016
v 0.095485 -0.124171 0.006745
v 0.035304 -0.124171 0.006745
v -0.147682 -0.125209 0.007016
v -0.143679 -0.124170 0.006747
v -0.095836 -0.124171 0.006745
v -0.147536 -0.125780 0.252509
v -0.147576 -0.126120 0.251718
v 0.145631 -0.125777 0.252502
v -0.143679 -0.124170 0.253384
v -0.147875 -0.125209 0.253068
v -0.095836 -0.124171 0.253385
v -0.035982 -0.124170 0.253385
v 0.145610 -0.125208 0.253066
v 0.141551 -0.124170 0.253382
v 0.095485 -0.124171 0.253384
v -0.147585 -0.127865 0.170130
v -0.147588 -0.127866 0.089799
v -0.147720 -0.126668 0.012485
v 0.145484 -0.126670 0.247328
v -0.151525 -0.123033 0.250846
v 0.149404 -0.122977 0.009293
v 0.135283 -0.124171 0.006745
v 0.145168 -0.124168 0.006751
v 0.110755 -0.124171 0.006745
v -0.147289 -0.124168 0.006751
v -0.137459 -0.124171 0.006745
v -0.113445 -0.124171 0.006745
v -0.137459 -0.124171 0.253385
v -0.147289 -0.124168 0.253379
v -0.113445 -0.124171 0.253385
v 0.135283 -0.124171 0.253384
v 0.110755 -0.124171 0.253384
v -0.151584 -0.122916 0.008916
v -0.137228 -0.122916 0.068410
v 0.051574 -0.122916 0.202412
v 0.051818 -0.122916 0.250852
v -0.137732 -0.122916 0.065903
v -0.135946 -0.122916 0.067104
v 0.052639 -0.122916 0.203720
v 0.051586 -0.122916 0.205024
v 0.050534 -0.122916 0.203718
vn 0.0087 -0.8013 -0.5982
vn -0.0075 -0.6451 -0.7641
vn 0.0090 -0.6456 -0.7636
vn 0.0072 -0.8961 -0.4438
vn -0.0111 -0.8014 -0.5980
vn -0.0074 -0.9473 -0.3204
vn 0.0076 -0.9760 -0.2175
vn -0.0083 -0.9749 -0.2226
vn -0.0060 -0.8965 -0.4430
vn 0.0088 -0.9480 -0.3183
vn -0.0093 -0.2562 -0.9666
vn -0.0000 -0.1854 -0.9827
vn -0.0000 -0.1852 -0.9827
vn 0.0087 -0.2572 -0.9663
vn -0.0000 -0.1848 -0.9828
vn -0.0095 -0.4457 -0.8951
vn 0.0081 -0.4450 -0.8955
vn -0.0076 -0.8410 0.5409
vn 0.0095 -0.7041 0.7101
vn -0.0079 -0.7021 0.7121
vn -0.0073 -0.9172 0.3984
vn 0.0092 -0.8456 0.5337
vn 0.0111 -0.3063 0.9519
vn -0.0000 -0.2168 0.9762
vn -0.0004 -0.2125 0.9772
vn -0.0000 -0.2157 0.9765
vn 0.0091 -0.5049 0.8631
vn -0.9193 -0.0983 -0.3810
vn -0.9987 -0.0425 -0.0296
vn -0.9930 -0.0713 -0.0936
vn -0.9994 -0.0354 -0.0001
vn -0.9994 -0.0311 0.0166
vn -0.9966 -0.0630 0.0534
vn -0.8428 -0.0460 0.5362
vn 0.9998 -0.0201 0.0083
vn 0.9846 -0.0520 0.1667
vn 0.9865 -0.1241 0.1066
vn 0.9992 -0.0193 0.0360
vn 0.9985 -0.0155 -0.0521
vn 0.8539 -0.0260 -0.5197
vn 0.9999 -0.0113 -0.0067
vn -0.8441 -0.2170 0.4903
vn -0.8473 -0.4019 0.3473
vn 0.8590 -0.5120 -0.0012
vn 0.4165 -0.9091 0.0040
vn 0.5258 -0.8506 -0.0037
vn 0.8382 -0.1846 -0.5131
vn 0.9930 -0.0739 -0.0922
vn 0.8404 -0.3904 -0.3759
vn 0.9001 -0.0824 -0.4279
vn -0.9260 -0.3776 -0.0004
vn -0.5009 -0.8654 -0.0103
vn -0.4728 -0.8812 0.0013
vn -0.9654 -0.2609 0.0025
vn -0.8292 -0.5589 0.0007
vn -0.8214 -0.5703 0.0074
vn -0.4692 -0.8831 0.0020
vn -0.6311 -0.7194 -0.2903
vn -0.9667 -0.1563 -0.2028
vn -0.8037 -0.4475 -0.3921
vn 0.9272 -0.3595 0.1054
vn 0.7957 -0.4691 0.3831
vn 0.8358 -0.2349 0.4962
vn 0.5398 -0.1426 0.8296
vn -0.5087 -0.8049 0.3057
vn -0.8248 -0.5575 0.0946
vn -0.3892 -0.9050 0.1718
vn -0.0694 -0.9333 0.3522
vn -0.0642 -0.9803 0.1870
vn -0.0071 -0.9573 0.2890
vn -0.0057 -0.9797 0.2004
vn -0.3505 -0.7942 0.4964
vn -0.3449 -0.6414 0.6853
vn -0.3529 -0.4813 0.8024
vn -0.3618 -0.2579 0.8959
vn -0.0117 -0.5018 0.8649
vn -0.0077 -0.2958 0.9552
vn -0.3895 -0.2047 0.8980
vn -0.8775 -0.1104 0.4667
vn 0.0866 -0.9962 0.0077
vn 0.0198 -0.9998 0.0034
vn 0.0897 -0.9960 -0.0018
vn 0.4971 -0.8676 0.0086
vn 0.6168 -0.7218 -0.3140
vn 0.8807 -0.4575 -0.1226
vn 0.3759 -0.9072 -0.1888
vn 0.0805 -0.9172 -0.3902
vn 0.3380 -0.7597 -0.5556
vn 0.3425 -0.5873 -0.7333
vn 0.3475 -0.4284 -0.8341
vn 0.3492 -0.2231 -0.9101
vn 0.3823 -0.1618 -0.9097
vn -0.0710 -0.9975 -0.0045
vn -0.0241 -0.9997 0.0008
vn -0.0194 -0.9998 0.0045
vn -0.0744 -0.9972 -0.0068
vn -0.3286 -0.7731 -0.5426
vn -0.3404 -0.5963 -0.7270
vn -0.0814 -0.9193 -0.3850
vn -0.0787 -0.9760 -0.2030
vn -0.4184 -0.8899 -0.1815
vn -0.8374 -0.5382 -0.0950
vn -0.3558 -0.2283 -0.9062
vn -0.3174 -0.1759 -0.9318
vn -0.3364 -0.4420 -0.8315
vn -0.7841 -0.2283 -0.5772
vn 0.3365 -0.8067 0.4859
vn 0.3410 -0.6480 0.6811
vn 0.5139 -0.8057 0.2945
vn 0.0072 -0.9340 0.3571
vn 0.0660 -0.9350 0.3484
vn 0.0073 -0.9757 0.2190
vn 0.0809 -0.9797 0.1834
vn 0.4154 -0.8935 0.1708
vn 0.8491 -0.5205 0.0901
vn 0.3349 -0.2735 0.9017
vn 0.0006 -0.2258 0.9742
vn 0.3502 -0.4942 0.7957
vn -0.1524 -0.9883 -0.0000
vn -0.4961 -0.8682 -0.0080
vn -0.7067 -0.7075 0.0019
vn -0.7705 -0.1784 0.6120
vn -0.2672 -0.0950 0.9589
vn -0.1562 -0.1056 0.9821
vn -0.3059 -0.0612 0.9501
vn -0.1580 -0.0631 0.9854
vn 0.9893 -0.0731 0.1261
vn 0.0300 -0.7798 0.6253
vn -0.2600 -0.9363 0.2360
vn -0.8777 -0.4421 -0.1848
vn 0.8788 -0.2210 -0.4229
vn 0.3843 -0.4457 -0.8085
vn 0.3882 -0.0583 -0.9197
vn 0.1510 -0.0377 -0.9878
vn 0.2997 -0.0150 -0.9539
vn 0.1549 -0.0151 -0.9878
vn -0.9545 -0.1476 -0.2591
vn -0.8161 -0.5779 0.0067
vn -0.8995 -0.4368 0.0112
vn -0.8589 -0.4974 0.1221
vn 0.3272 -0.9416 0.0792
vn 0.9965 -0.0832 -0.0013
vn 0.8194 -0.5731 0.0137
vn 0.6625 -0.7490 0.0135
vn 0.7050 -0.7090 0.0160
vn 0.9975 -0.0708 -0.0085
vn 0.0063 -0.9902 0.1395
vn -0.0076 -0.9930 0.1177
vn 0.0081 -0.9964 0.0848
vn 0.0072 -0.9920 -0.1262
vn -0.9996 -0.0228 -0.0163
vn -0.9699 -0.2315 -0.0750
vn -0.9937 -0.1124 -0.0038
vn 0.9992 -0.0391 0.0055
vn 0.9723 -0.2332 0.0151
vn 0.6284 -0.7742 0.0755
vn -0.9249 -0.3631 0.1124
vn -0.8742 -0.4845 0.0333
vn -0.9946 -0.1042 0.0026
vn -0.8735 -0.4850 -0.0421
vn 0.0851 -0.9898 -0.1140
vn 0.0071 -0.9980 -0.0631
vn 0.7893 -0.6093 -0.0756
vn 0.4139 -0.9083 -0.0612
vn 0.0956 -0.9912 0.0914
vn -0.3600 -0.9289 0.0874
vn -0.0076 -0.9980 0.0628
vn -0.3534 -0.9312 -0.0892
vn -0.0076 -0.9902 -0.1398
vn -0.0098 -0.9963 -0.0856
vn -0.1130 -0.9936 0.0082
vn 0.6502 -0.7597 0.0116
vn 0.9992 -0.0394 -0.0106
vn 0.9973 -0.0739 0.0001
vn 0.9820 -0.1884 -0.0135
vn 0.8769 -0.4806 -0.0049
vn 0.4281 -0.9037 -0.0114
vn 0.8518 -0.5238 0.0111
vn 0.9355 -0.3533 0.0020
vn 0.8277 -0.5611 0.0081
vn -0.8826 -0.4701 0.0085
vn -0.4213 -0.9068 0.0141
vn -0.8975 -0.4408 -0.0099
vn 0.0711 -0.9973 -0.0186
vn 0.0077 -0.9999 -0.0151
vn 0.0102 -0.9997 -0.0224
vn 0.8398 -0.5428 -0.0093
vn 0.0790 -0.9968 -0.0130
vn 0.4015 -0.9156 -0.0202
vn 0.0860 -0.9963 -0.0083
vn 0.0977 -0.9950 0.0225
vn 0.0059 -0.9998 0.0197
vn 0.0103 -0.9998 0.0151
vn 0.3519 -0.9360 0.0123
vn 0.3585 -0.9334 0.0152
vn 0.0217 -0.9997 0.0124
vn 0.0141 -0.9999 0.0074
vn -0.0701 -0.9974 0.0176
vn -0.0071 -0.9999 0.0156
vn -0.0113 -0.9997 0.0230
vn -0.0846 -0.9963 0.0135
vn -0.0076 -0.9999 0.0102
vn -0.0056 -0.9999 0.0128
vn -0.4208 -0.9070 0.0182
vn -0.0959 -0.9953 0.0086
vn -0.1111 -0.9936 -0.0193
vn -0.0118 -0.9997 -0.0210
vn -0.0084 -0.9998 -0.0153
vn -0.3625 -0.9319 -0.0138
vn -0.8428 -0.5382 -0.0042
vn -0.5093 -0.8605 -0.0076
vn -0.0218 -0.9997 -0.0123
vn -0.0057 -0.9999 -0.0097
vn 0.9907 -0.1358 -0.0013
vn -0.1296 -0.9915 -0.0124
vn -0.1374 -0.9905 -0.0000
vn -0.5410 -0.8410 0.0066
vn 0.1650 -0.9863 -0.0000
vn 0.2148 -0.9767 0.0047
vn 0.4515 -0.8922 -0.0049
vn 0.1690 -0.9856 0.0001
vn -0.5193 -0.8546 -0.0065
vn -0.2285 -0.9734 -0.0134
vn 0.8752 -0.4836 -0.0112
vn -0.8313 -0.5558 -0.0125
vn -0.3992 -0.9155 -0.0495
vn 0.0687 -0.9968 -0.0414
vn 0.0051 -0.9994 -0.0353
vn 0.4333 -0.9005 -0.0372
vn -0.0082 -0.9985 -0.0535
vn -0.0192 -0.9992 -0.0345
vn -0.2944 -0.9557 0.0001
vn 0.2046 -0.9788 0.0002
vn 0.8179 -0.5752 0.0144
vn 0.3519 -0.9350 0.0446
vn 0.0095 -0.9986 0.0516
vn 0.0077 -0.9995 0.0319
vn -0.0700 -0.9967 0.0406
vn -0.0053 -0.9993 0.0357
vn -0.4065 -0.9129 0.0374
vn -0.8500 -0.5265 0.0147
vn -0.0049 -1.0000 -0.0052
vn 0.0040 -1.0000 -0.0039
vn 0.0042 -1.0000 -0.0067
vn 0.0032 -1.0000 -0.0001
vn -0.0000 -0.1847 -0.9828
vn 0.0004 -0.1801 -0.9837
vn 0.0061 -0.1735 -0.9848
vn -0.0000 -0.1846 -0.9828
vn -0.0041 -0.1733 -0.9849
vn -0.0004 -0.1806 -0.9836
vn 0.0001 -0.1853 -0.9827
vn -0.0000 -0.1855 -0.9827
vn -0.0000 -0.2147 0.9767
vn -0.0000 -0.2146 0.9767
vn -0.0003 -0.2112 0.9774
vn -0.0058 -0.2025 0.9793
vn -0.0006 -0.2142 0.9768
vn -0.0000 -0.2149 0.9766
vn 0.0002 -0.2117 0.9773
vn -0.0001 -0.2165 0.9763
vn -0.0000 -0.2163 0.9763
vn -0.0000 -0.2164 0.9763
vn 0.0049 -0.9999 -0.0110
vn -0.0000 -1.0000 -0.0000
vn -0.0000 1.0000 -0.0000
vn -0.9942 -0.0324 0.1025
vn 0.4939 -0.8657 -0.0815
vn -0.1649 -0.9863 0.0001
vn 0.1508 -0.7572 0.6355
vn -0.0505 -0.0792 0.9956
vn 0.1409 -0.9900 0.0001
vn -0.0409 -0.0326 -0.9986
vn -0.1290 -0.9917 -0.0000
vn -0.0475 -0.9987 -0.0172
vn -0.1689 -0.9856 -0.0001
vn -0.1403 -0.9901 0.0001
vn 0.1556 -0.9878 -0.0000
vn 0.1924 -0.9813 0.0001
vn -0.1717 -0.9851 0.0001
vn 0.0189 -0.9998 0.0002
vn 0.0036 -0.9999 -0.0136
vn -0.1197 0.9927 -0.0172
vn -0.0113 0.9999 -0.0009
vn -0.1772 0.9835 -0.0374
vn -0.1716 0.9846 -0.0338
vn -0.0028 1.0000 -0.0008
vn -0.0919 0.9957 -0.0100
vn 0.0005 1.0000 -0.0010
vn 0.0007 1.0000 -0.0010
vn 0.0008 1.0000 -0.0010
vn 0.0001 1.0000 -0.0000
vn -0.2433 0.9666 -0.0810
vn -0.1440 0.9891 -0.0296
vn 0.0127 0.9999 -0.0010
vn -0.0003 1.0000 0.0010
vn -0.0004 1.0000 0.0010
vn -0.0005 1.0000 0.0010
vn 0.0010 1.0000 -0.0040
vn 0.0009 1.0000 -0.0063
vn 0.0010 1.0000 0.0018
vn 0.0006 1.0000 -0.0015
vn 0.0009 1.0000 -0.0015
vn 0.0010 1.0000 -0.0015
vn -0.0003 1.0000 -0.0003
vn 0.0002 1.0000 -0.0003
vn -0.0000 1.0000 -0.0003
vn -0.0002 1.0000 -0.0022
vn -0.0005 1.0000 -0.0051
vn -0.0001 1.0000 0.0003
vn 0.0155 0.9998 0.0132
vn 0.0004 1.0000 0.0006
vn 0.0346 0.9990 0.0296
vn -0.0158 0.9996 -0.0218
vn -0.0247 0.9993 -0.0279
vn 0.0100 0.9999 0.0008
vn 0.0006 1.0000 -0.0006
vn 0.0228 0.9985 -0.0495
vn 0.0053 0.9995 -0.0306
vn 0.0122 0.9992 -0.0381
vn 0.0070 0.9965 0.0827
vn 0.0098 0.9994 0.0317
vn 0.0033 0.9882 0.1534
vn -0.0001 1.0000 -0.0006
vn -0.0001 1.0000 -0.0015
vn -0.0201 0.9998 0.0086
vn -0.0393 0.9959 0.0810
vn -0.0276 0.9990 0.0362
vn -0.0002 1.0000 -0.0004
vn 0.0002 1.0000 -0.0004
vn -0.0001 1.0000 -0.0004
vn 0.0006 1.0000 -0.0003
vn 0.0005 1.0000 -0.0006
vn 0.0006 1.0000 0.0001
vn -0.0005 1.0000 -0.0001
vn -0.0001 1.0000 -0.0001
vn -0.0004 1.0000 -0.0001
vn 0.0086 1.0000 -0.0027
vn 0.0080 0.9999 -0.0117
vn 0.0080 0.9999 -0.0116
vn -0.0001 1.0000 -0.0000
vn 0.0012 1.0000 0.0009
vn 0.0011 1.0000 0.0010
vn 0.0025 1.0000 -0.0007
vn 0.1431 0.9893 -0.0292
vn 0.0769 0.9970 -0.0088
vn -0.0121 0.9999 0.0027
vn 0.1422 0.9894 -0.0303
vn 0.2124 0.9746 -0.0716
vn 0.0005 1.0000 -0.0051
vn 0.0002 1.0000 -0.0022
vn 0.0001 1.0000 0.0003
vn 0.0004 1.0000 -0.0075
vn 0.0001 1.0000 -0.0035
vn -0.0006 1.0000 -0.0006
vn 0.0003 1.0000 -0.0003
vn 0.0003 1.0000 -0.0004
vn 0.0003 1.0000 -0.0001
vn -0.0000 1.0000 -0.0018
vn -0.0000 1.0000 -0.0008
vn -0.0695 0.9973 0.0216
vn -0.0858 0.9916 0.0964
vn -0.0574 0.9978 -0.0333
vn -0.0004 1.0000 -0.0000
vn -0.0004 1.0000 0.0002
vn -0.0004 1.0000 -0.0002
vn 0.0001 1.0000 -0.0008
vn 0.0001 1.0000 -0.0003
vn 0.0001 1.0000 0.0001
vn -0.0008 1.0000 -0.0004
vn -0.0008 1.0000 -0.0002
vn -0.0008 1.0000 -0.0001
vn 0.0003 1.0000 0.0004
vn 0.0003 1.0000 0.0001
vn 0.0002 1.0000 0.0007
vn -0.0015 0.8652 0.5015
vn 0.0117 0.9995 -0.0304
vn 0.0090 0.9711 0.2384
vn 0.0005 1.0000 0.0002
vn 0.0005 1.0000 -0.0002
vn 0.0005 1.0000 0.0005
vn -0.0001 1.0000 0.0006
vn -0.0001 1.0000 -0.0003
vn -0.0002 1.0000 0.0015
vn -0.0002 1.0000 -0.0000
vn -0.0002 1.0000 -0.0006
vn -0.0002 1.0000 -0.0003
vn -0.0000 1.0000 0.0004
vn 0.0002 1.0000 0.0004
vn -0.0003 1.0000 0.0004
vn 0.0004 1.0000 -0.0000
vn 0.0004 1.0000 -0.0002
vn 0.0004 1.0000 0.0002
vn -0.0000 1.0000 0.0026
vn -0.0003 1.0000 0.0054
vn -0.0002 1.0000 0.0004
vn -0.0001 1.0000 0.0004
vn 0.0005 1.0000 0.0073
vn 0.0008 1.0000 0.0008
vn -0.0005 0.9999 0.0144
vn -0.0003 1.0000 0.0001
vn -0.0003 1.0000 0.0003
vn -0.0003 1.0000 0.0007
vn -0.0005 1.0000 -0.0002
vn -0.0005 1.0000 -0.0000
vn -0.0000 1.0000 0.0005
vn -0.0000 1.0000 0.0010
vn -0.0057 0.9440 -0.3298
vn -0.0090 0.9999 -0.0054
vn -0.0083 0.9852 -0.1714
vn 0.0004 1.0000 -0.0010
vn 0.0004 1.0000 -0.0044
vn -0.0000 1.0000 0.0008
vn 0.0001 1.0000 0.0018
vn 0.0010 1.0000 0.0016
vn 0.0009 1.0000 0.0016
vn 0.0006 1.0000 0.0016
vn -0.0005 1.0000 -0.0010
vn -0.0004 1.0000 -0.0010
vn -0.0003 1.0000 -0.0010
vn -0.0006 1.0000 0.0006
vn 0.0004 1.0000 0.0021
vn 0.0006 1.0000 0.0051
vn -0.0004 1.0000 0.0001
vn -0.0001 1.0000 0.0001
vn 0.1023 0.9947 -0.0094
vn 0.0672 0.9750 0.2117
vn 0.0834 0.9907 0.1074
vn -0.0000 1.0000 -0.0028
vn -0.0000 1.0000 0.0028
vn 0.0002 1.0000 0.0051
vn 0.0025 1.0000 -0.0009
vn 0.0030 1.0000 0.0094
vn 0.0044 0.9998 0.0206
vn 0.0352 0.9990 -0.0263
vn 0.0502 0.9589 -0.2791
vn 0.0430 0.9889 -0.1424
vn -0.0282 0.9950 0.0962
vn 0.0061 0.9987 0.0504
vn -0.0108 0.9973 0.0728
vn -0.0014 1.0000 0.0027
vn 0.0111 0.9999 0.0107
vn 0.0194 0.9996 0.0186
vn -0.0204 0.9996 -0.0202
vn -0.0088 0.9999 -0.0101
vn 0.0009 1.0000 -0.0019
vn -0.0021 1.0000 -0.0035
vn -0.0021 1.0000 -0.0034
vn -0.0023 1.0000 -0.0033
vn 0.1056 0.9943 0.0175
vn -0.0096 1.0000 -0.0000
vn 0.1827 0.9820 0.0480
vn 0.0702 0.9975 -0.0012
vn -0.0127 0.9999 -0.0052
vn 0.1232 0.9923 0.0098
vn 0.1663 0.9855 0.0335
vn 0.0026 1.0000 0.0010
vn 0.0891 0.9960 0.0101
vn 0.0086 1.0000 -0.0023
vn 0.0528 0.9986 0.0003
vn 0.1106 0.9938 0.0103
vn 0.1587 0.9870 0.0250
vn -0.0506 0.9987 -0.0002
vn 0.0964 0.9953 0.0067
vn 0.0005 1.0000 0.0008
vn 0.0002 1.0000 0.0008
vn 0.0004 1.0000 0.0008
vt 0.351321 0.225375
vt 0.351512 0.271647
vt 0.351516 0.170478
vt 0.350901 0.271711
vt 0.351013 0.170396
vt 0.351628 0.170464
vt 0.350773 0.170408
vt 0.350556 0.271687
vt 0.350548 0.170389
vt 0.350901 0.170439
vt 0.350773 0.271735
vt 0.351223 0.271664
vt 0.351016 0.244460
vt 0.351017 0.233082
vt 0.351227 0.170503
vt 0.351018 0.208494
vt 0.351384 0.271668
vt 0.351387 0.170498
vt 0.351633 0.271597
vt 0.351745 0.170402
vt 0.351746 0.271629
vt 0.266508 0.170466
vt 0.266384 0.271748
vt 0.266380 0.170477
vt 0.352038 0.170405
vt 0.352249 0.196172
vt 0.352249 0.208409
vt 0.352249 0.233088
vt 0.351876 0.170408
vt 0.353589 0.339334
vt 0.353741 0.338533
vt 0.353893 0.338539
vt 0.352598 0.301986
vt 0.353764 0.255122
vt 0.353167 0.254704
vt 0.353950 0.255098
vt 0.352498 0.170012
vt 0.352601 0.169266
vt 0.353042 0.169446
vt 0.352262 0.169997
vt 0.352578 0.254083
vt 0.352256 0.253436
vt 0.352495 0.253426
vt 0.353297 0.254363
vt 0.353104 0.254503
vt 0.353948 0.210421
vt 0.353970 0.211766
vt 0.353951 0.218581
vt 0.352929 0.254184
vt 0.352983 0.253991
vt 0.353123 0.254062
vt 0.352639 0.254246
vt 0.352335 0.306166
vt 0.352304 0.308005
vt 0.352263 0.301495
vt 0.352405 0.287312
vt 0.352268 0.294567
vt 0.352338 0.282146
vt 0.352287 0.287627
vt 0.352969 0.338976
vt 0.353209 0.339162
vt 0.353090 0.339172
vt 0.353242 0.169712
vt 0.353130 0.169395
vt 0.352937 0.169256
vt 0.352388 0.169180
vt 0.266566 0.169173
vt 0.266994 0.169157
vt 0.266995 0.169178
vt 0.266564 0.169294
vt 0.266989 0.169294
vt 0.266652 0.170464
vt 0.266917 0.170491
vt 0.351647 0.272882
vt 0.351758 0.272879
vt 0.266396 0.169193
vt 0.266407 0.169157
vt 0.351884 0.272879
vt 0.351713 0.272917
vt 0.352045 0.272878
vt 0.351942 0.272914
vt 0.351876 0.271709
vt 0.352039 0.271632
vt 0.352253 0.272873
vt 0.352255 0.272914
vt 0.305905 0.272972
vt 0.298505 0.272747
vt 0.304103 0.272269
vt 0.311125 0.272755
vt 0.315542 0.272979
vt 0.297582 0.272979
vt 0.350843 0.272983
vt 0.350524 0.272994
vt 0.350482 0.272945
vt 0.350850 0.272860
vt 0.351614 0.169193
vt 0.351505 0.169195
vt 0.351013 0.271688
vt 0.350997 0.272958
vt 0.350986 0.272994
vt 0.351379 0.169196
vt 0.351552 0.169158
vt 0.351222 0.169197
vt 0.351325 0.169160
vt 0.351017 0.169201
vt 0.351015 0.169159
vt 0.310717 0.169179
vt 0.313346 0.169397
vt 0.308723 0.169765
vt 0.302247 0.169180
vt 0.302015 0.170251
vt 0.319307 0.169359
vt 0.319855 0.169171
vt 0.351612 0.272898
vt 0.351546 0.272934
vt 0.351502 0.272901
vt 0.350838 0.169168
vt 0.350985 0.169157
vt 0.350996 0.169193
vt 0.351624 0.271696
vt 0.350853 0.169292
vt 0.350461 0.169291
vt 0.350460 0.169178
vt 0.350450 0.169157
vt 0.351220 0.272901
vt 0.351016 0.272935
vt 0.351015 0.272889
vt 0.351377 0.272901
vt 0.351320 0.272936
vt 0.351646 0.169198
vt 0.351757 0.169194
vt 0.266580 0.272979
vt 0.266411 0.272994
vt 0.266400 0.272958
vt 0.351631 0.170406
vt 0.266557 0.271741
vt 0.266566 0.272860
vt 0.266895 0.271783
vt 0.267007 0.272860
vt 0.267006 0.272974
vt 0.267019 0.272994
vt 0.352044 0.169191
vt 0.352250 0.170560
vt 0.351884 0.169192
vt 0.353963 0.307848
vt 0.353962 0.314370
vt 0.353963 0.283893
vt 0.268158 0.273140
vt 0.268066 0.272995
vt 0.268159 0.272994
vt 0.268168 0.273090
vt 0.268169 0.272994
vt 0.268180 0.273129
vt 0.268183 0.273162
vt 0.268050 0.273202
vt 0.353969 0.337587
vt 0.353974 0.337624
vt 0.353964 0.337623
vt 0.268154 0.273014
vt 0.267976 0.273267
vt 0.268153 0.273179
vt 0.268143 0.273083
vt 0.268143 0.273179
vt 0.353894 0.337946
vt 0.354180 0.336497
vt 0.353755 0.255395
vt 0.353869 0.254692
vt 0.353963 0.254412
vt 0.353808 0.255116
vt 0.352397 0.170025
vt 0.352458 0.170122
vt 0.352437 0.170076
vt 0.352461 0.170195
vt 0.352472 0.214232
vt 0.352471 0.194577
vt 0.352470 0.253236
vt 0.352425 0.253419
vt 0.267170 0.271733
vt 0.267288 0.170435
vt 0.267556 0.271722
vt 0.350193 0.271737
vt 0.353252 0.338869
vt 0.352970 0.338803
vt 0.352879 0.336837
vt 0.353182 0.170741
vt 0.353389 0.171032
vt 0.353363 0.170062
vt 0.353428 0.170576
vt 0.352978 0.254808
vt 0.352803 0.255797
vt 0.352867 0.255146
vt 0.352886 0.256809
vt 0.352802 0.338020
vt 0.350105 0.272858
vt 0.349520 0.271751
vt 0.350082 0.272994
vt 0.349916 0.272974
vt 0.267535 0.272984
vt 0.267540 0.272860
vt 0.267534 0.169193
vt 0.267932 0.170440
vt 0.267540 0.169157
vt 0.349922 0.169157
vt 0.349926 0.169193
vt 0.350286 0.170396
vt 0.349903 0.170393
vt 0.353964 0.254743
vt 0.353974 0.254404
vt 0.353965 0.255263
vt 0.352469 0.170523
vt 0.353110 0.253263
vt 0.353733 0.214626
vt 0.353359 0.252786
vt 0.353847 0.226021
vt 0.353898 0.225632
vt 0.353559 0.175549
vt 0.353865 0.201213
vt 0.353783 0.191730
vt 0.353921 0.200622
vt 0.352675 0.260884
vt 0.352328 0.283005
vt 0.352688 0.334654
vt 0.344676 0.272855
vt 0.340918 0.271512
vt 0.347234 0.271713
vt 0.324960 0.272975
vt 0.344466 0.272994
vt 0.328241 0.272994
vt 0.328599 0.272740
vt 0.344486 0.272974
vt 0.319904 0.272707
vt 0.270543 0.272768
vt 0.271177 0.271685
vt 0.274546 0.271540
vt 0.288862 0.273088
vt 0.288986 0.272994
vt 0.273641 0.272896
vt 0.272856 0.272994
vt 0.288726 0.272266
vt 0.298514 0.271328
vt 0.272816 0.169328
vt 0.274803 0.171922
vt 0.270116 0.170432
vt 0.288440 0.169548
vt 0.294851 0.170465
vt 0.288676 0.170729
vt 0.292324 0.169176
vt 0.272981 0.169157
vt 0.289355 0.169157
vt 0.272876 0.169178
vt 0.298232 0.169363
vt 0.345851 0.169309
vt 0.345905 0.170197
vt 0.343223 0.172011
vt 0.328371 0.169114
vt 0.328357 0.169157
vt 0.344545 0.169170
vt 0.327955 0.170993
vt 0.322596 0.170465
vt 0.353963 0.260568
vt 0.353963 0.269548
vt 0.353963 0.322369
vt 0.353962 0.331349
vt 0.353964 0.328795
vt 0.353967 0.320983
vt 0.353965 0.331326
vt 0.353964 0.263142
vt 0.353964 0.270976
vt 0.353964 0.283993
vt 0.352474 0.252161
vt 0.352473 0.233317
vt 0.352470 0.172395
vt 0.353479 0.251707
vt 0.353410 0.253110
vt 0.352731 0.336899
vt 0.352740 0.337427
vt 0.352629 0.332670
vt 0.348873 0.272858
vt 0.348654 0.271698
vt 0.348835 0.272974
vt 0.348835 0.272994
vt 0.349016 0.169244
vt 0.348360 0.169157
vt 0.349292 0.170414
vt 0.348307 0.170204
vt 0.353963 0.336240
vt 0.353964 0.334622
vt 0.353965 0.336676
vt 0.353487 0.171640
vt 0.268458 0.272902
vt 0.268604 0.272994
vt 0.268165 0.271697
vt 0.268939 0.271653
vt 0.268573 0.169292
vt 0.268796 0.170450
vt 0.268608 0.169178
vt 0.268607 0.169157
vt 0.315689 0.170858
vt 0.313351 0.271032
vt 0.317974 0.271045
vt 0.308727 0.271045
vt 0.351019 0.177403
vt 0.351019 0.173978
vt 0.351019 0.171814
vt 0.351019 0.170565
vt 0.351018 0.196155
vt 0.351018 0.187718
vt 0.351019 0.182446
vt 0.351015 0.271531
vt 0.351015 0.270285
vt 0.351016 0.268138
vt 0.351016 0.264766
vt 0.351016 0.259847
vt 0.351016 0.253768
vt 0.352250 0.264743
vt 0.352250 0.268114
vt 0.352250 0.270261
vt 0.352250 0.271507
vt 0.352249 0.244442
vt 0.352249 0.253747
vt 0.352250 0.259825
vt 0.352249 0.171809
vt 0.352249 0.173973
vt 0.352249 0.177397
vt 0.352249 0.182439
vt 0.352249 0.187710
vt 0.324211 0.271260
vt 0.266914 0.272994
vt 0.266914 0.294135
vt 0.266881 0.273877
vt 0.266914 0.289277
vt 0.267270 0.288821
vt 0.266376 0.268240
vt 0.266376 0.270406
vt 0.262391 0.273127
vt 0.266378 0.273329
vt 0.267397 0.273897
vt 0.267397 0.272994
vt 0.267758 0.273447
vt 0.353632 0.254411
vt 0.352961 0.254720
vt 0.353585 0.254290
vt 0.353291 0.253662
vt 0.353255 0.253869
vt 0.352864 0.338594
vt 0.353280 0.339298
vt 0.353267 0.169622
vt 0.304104 0.272994
vt 0.306417 0.169157
vt 0.353963 0.337611
vt 0.353963 0.295958
vt 0.353963 0.254278
vt 0.268123 0.273154
vt 0.268157 0.273170
vt 0.353964 0.254325
vt 0.353974 0.254301
vt 0.353964 0.295971
vt 0.353963 0.308000
vt 0.268143 0.273015
vt 0.352456 0.253372
vt 0.353582 0.247409
vt 0.352395 0.315693
vt 0.353963 0.263102
vt 0.353963 0.257268
vt 0.353963 0.277705
vt 0.353963 0.328815
vt 0.353964 0.260661
vt 0.353964 0.257315
vt 0.353963 0.334646
vt 0.352743 0.256772
vt 0.353963 0.255255
vt 0.331394 0.271018
vt 0.181394 0.273100
vt 0.181244 0.273076
vt 0.181208 0.273019
vt 0.181182 0.271655
vt 0.182051 0.273112
vt 0.181180 0.270406
vt 0.183030 0.273127
vt 0.181180 0.268240
vt 0.185085 0.273127
vt 0.181180 0.264814
vt 0.188431 0.273127
vt 0.181180 0.259767
vt 0.190912 0.273127
vt 0.181180 0.254493
vt 0.198783 0.273128
vt 0.181180 0.246050
vt 0.181180 0.233704
vt 0.211808 0.273128
vt 0.182228 0.273127
vt 0.267973 0.273082
vt 0.268217 0.273090
vt 0.268220 0.272994
vt 0.267890 0.272994
vt 0.181181 0.209102
vt 0.266377 0.209079
vt 0.268113 0.273196
vt 0.181181 0.197717
vt 0.211883 0.169157
vt 0.181181 0.188404
vt 0.205520 0.169157
vt 0.181181 0.182321
vt 0.197362 0.169157
vt 0.181181 0.177400
vt 0.190916 0.169157
vt 0.181181 0.174026
vt 0.188434 0.169157
vt 0.181182 0.171877
vt 0.185085 0.169157
vt 0.183491 0.169157
vt 0.181183 0.170630
vt 0.182063 0.169169
vt 0.181209 0.169271
vt 0.181269 0.169207
vt 0.223736 0.273127
vt 0.268224 0.273116
vt 0.268226 0.272997
vt 0.267270 0.274359
vt 0.266377 0.233778
vt 0.235635 0.273127
vt 0.267397 0.272994
vt 0.248685 0.273127
vt 0.266377 0.246024
vt 0.256565 0.273127
vt 0.266376 0.259767
vt 0.223773 0.169157
vt 0.259046 0.273127
vt 0.266376 0.264814
vt 0.235682 0.169157
vt 0.266378 0.197717
vt 0.264424 0.273127
vt 0.242026 0.169157
vt 0.250182 0.169157
vt 0.266378 0.188404
vt 0.267758 0.273558
vt 0.266885 0.273052
vt 0.264964 0.273127
vt 0.266374 0.271656
vt 0.256628 0.169157
vt 0.266378 0.182321
vt 0.266377 0.254493
vt 0.259112 0.169157
vt 0.266378 0.177400
vt 0.262462 0.169157
vt 0.266378 0.174026
vt 0.264475 0.169157
vt 0.266378 0.171877
vt 0.265319 0.169157
vt 0.266376 0.170630
vt 0.268066 0.273258
vt 0.268223 0.273033
vt 0.268223 0.273122
vt 0.265505 0.169171
vt 0.266193 0.169185
vt 0.266350 0.169265
vt 0.266313 0.169209
vt 0.266223 0.273094
vt 0.266340 0.273045
s 1
f 246/1/1 95/2/2 186/3/3
f 72/4/4 249/5/5 246/6/1
f 248/7/6 185/8/7 94/9/8
f 73/10/9 247/11/10 248/7/6
f 75/12/11 207/13/12 212/14/13
f 74/15/14 212/14/13 253/16/15
f 254/17/16 186/3/3 95/2/2
f 75/12/11 251/18/17 254/17/16
f 257/19/18 99/20/19 188/21/20
f 76/22/21 259/23/22 257/24/18
f 79/25/23 211/26/24 213/27/25
f 79/25/23 213/27/25 263/28/26
f 264/29/27 188/21/20 99/20/19
f 194/30/28 38/31/29 196/32/30
f 8/33/31 124/34/32 38/31/29
f 96/35/33 197/36/34 124/34/32
f 103/37/35 216/38/36 107/39/37
f 216/38/36 103/37/35 231/40/38
f 104/41/39 232/42/40 125/43/41
f 16/44/42 96/35/33 106/45/43
f 202/46/44 152/47/45 10/48/46
f 17/49/47 101/50/48 109/51/49
f 101/50/48 215/52/50 104/41/39
f 52/53/51 11/54/52 24/55/53
f 51/56/54 52/53/51 155/57/55
f 156/58/56 155/57/55 12/59/57
f 51/56/54 155/57/55 156/58/56
f 119/60/58 110/61/59 1/62/60
f 40/63/61 107/39/37 2/64/62
f 18/65/63 216/38/36 195/66/64
f 18/65/63 2/64/62 107/39/37
f 115/67/65 135/68/66 234/69/67
f 19/70/68 234/69/67 45/71/69
f 258/72/70 45/71/69 187/73/71
f 76/22/21 19/70/68 258/72/70
f 217/74/72 188/21/20 111/75/73
f 19/70/68 257/24/18 217/76/72
f 115/67/65 217/76/72 106/77/43
f 218/78/74 106/79/43 111/75/73
f 20/80/75 16/81/42 218/78/74
f 261/82/76 111/75/73 188/21/20
f 78/83/77 218/78/74 261/82/76
f 16/81/42 219/84/78 214/85/79
f 152/86/45 159/87/80 200/88/81
f 21/89/82 10/90/46 152/86/45
f 159/87/80 152/86/45 9/91/83
f 117/92/84 108/93/85 113/94/86
f 247/11/10 113/94/86 185/8/7
f 72/4/4 22/95/87 247/11/10
f 220/96/88 186/3/3 114/97/89
f 22/95/87 246/98/1 220/99/88
f 117/92/84 220/99/88 109/100/49
f 221/101/90 109/102/49 114/97/89
f 23/103/91 17/104/47 221/101/90
f 251/18/17 114/97/89 186/3/3
f 74/15/14 221/101/90 251/18/17
f 17/104/47 222/105/92 215/106/50
f 24/107/53 223/108/93 150/109/94
f 12/110/57 150/109/94 201/111/95
f 161/112/96 24/107/53 11/113/52
f 224/114/97 1/115/60 105/116/98
f 119/117/58 1/118/60 224/119/97
f 249/120/5 105/116/98 95/2/2
f 73/10/9 224/119/97 249/5/5
f 25/121/99 94/9/8 46/122/100
f 119/117/58 235/123/101 118/124/102
f 119/117/58 46/122/100 235/123/101
f 26/125/103 194/126/28 225/127/104
f 226/128/105 95/2/2 105/116/98
f 26/125/103 254/17/16 226/128/105
f 120/129/106 105/116/98 1/115/60
f 227/130/107 2/64/62 112/131/108
f 121/132/109 2/133/62 227/134/107
f 259/135/22 112/131/108 99/20/19
f 77/136/110 227/134/107 259/23/22
f 27/137/111 98/138/112 44/139/113
f 121/132/109 233/140/114 116/141/115
f 121/132/109 44/139/113 233/140/114
f 28/142/116 195/66/64 193/143/117
f 228/144/118 99/20/19 112/131/108
f 28/142/116 264/29/27 228/144/118
f 18/65/63 112/131/108 2/64/62
f 165/145/119 64/146/120 163/147/121
f 129/148/122 197/149/34 271/150/123
f 32/151/124 271/150/125 229/152/126
f 33/153/127 130/154/128 34/155/129
f 36/156/130 127/157/131 123/158/132
f 127/159/131 232/160/40 272/161/133
f 37/162/134 272/161/135 230/163/136
f 122/164/137 38/31/29 3/165/138
f 183/166/139 38/31/29 124/34/32
f 128/167/140 126/168/141 183/166/139
f 128/167/140 124/34/32 129/169/122
f 33/170/127 103/37/35 184/171/142
f 130/172/128 184/171/142 4/173/143
f 184/171/142 167/174/144 169/175/145
f 175/176/146 125/43/41 127/177/131
f 81/178/147 80/179/148 137/180/149
f 82/181/150 94/9/8 185/8/7
f 102/182/151 42/183/152 170/184/153
f 40/63/61 100/185/154 107/39/37
f 139/186/155 116/187/115 6/188/156
f 41/189/157 140/190/158 135/191/66
f 140/190/158 41/189/157 5/192/159
f 41/189/157 96/35/33 5/192/159
f 141/193/160 170/184/153 42/183/152
f 43/194/161 190/195/162 82/181/150
f 113/94/86 82/181/150 185/8/7
f 113/94/86 108/93/85 133/196/163
f 43/194/161 113/94/86 198/197/164
f 233/140/114 6/198/156 116/141/115
f 44/139/113 6/198/156 233/140/114
f 44/139/113 98/138/112 81/178/147
f 142/199/165 81/178/147 137/180/149
f 143/200/166 189/201/167 80/179/148
f 45/71/69 80/179/148 187/73/71
f 143/200/166 135/68/66 140/202/158
f 235/123/101 141/203/160 118/124/102
f 46/122/100 144/204/168 235/123/101
f 46/122/100 94/9/8 83/205/169
f 144/204/168 83/205/169 138/206/170
f 47/207/171 4/208/143 136/209/172
f 184/171/142 136/210/172 4/173/143
f 102/182/151 170/184/153 8/33/31
f 131/211/173 7/212/174 39/213/175
f 131/211/173 125/43/41 7/212/174
f 49/214/176 10/48/46 237/215/177
f 49/214/176 39/213/175 7/212/174
f 139/186/155 7/212/174 100/185/154
f 178/216/178 50/217/179 139/186/155
f 50/217/179 178/216/178 151/218/180
f 50/217/179 151/218/180 9/219/83
f 179/220/181 5/192/159 51/56/54
f 156/58/56 12/59/57 239/221/182
f 51/56/54 156/58/56 179/220/181
f 51/56/54 5/192/159 8/33/31
f 172/222/183 52/53/51 170/184/153
f 53/223/184 149/224/185 14/225/186
f 237/226/177 153/227/187 49/228/176
f 54/229/188 236/230/189 237/226/177
f 158/231/190 237/226/177 10/90/46
f 180/232/191 177/233/192 84/234/193
f 56/235/194 9/91/83 151/236/180
f 55/237/195 151/236/180 178/238/178
f 159/87/80 148/239/196 199/240/197
f 57/241/198 85/242/199 15/243/200
f 58/244/201 267/245/202 86/246/203
f 57/241/198 58/244/201 85/242/199
f 239/247/182 179/248/181 156/249/56
f 58/244/201 238/250/204 239/247/182
f 160/251/205 239/247/182 12/110/57
f 59/252/206 13/253/207 87/254/208
f 60/255/209 11/113/52 154/256/210
f 59/252/206 60/255/209 171/257/211
f 161/112/96 89/258/212 268/259/213
f 203/260/214 163/147/121 126/168/141
f 162/261/215 163/147/121 203/260/214
f 164/262/216 240/263/217 64/146/120
f 65/264/218 166/265/219 241/266/220
f 66/267/221 136/209/172 168/268/222
f 168/268/222 136/209/172 169/269/145
f 183/166/139 126/168/141 163/147/121
f 175/176/146 147/270/223 166/271/219
f 175/176/146 184/171/142 125/43/41
f 184/171/142 166/271/219 167/174/144
f 184/171/142 169/175/145 136/272/172
f 184/171/142 103/37/35 7/212/174
f 39/213/175 48/273/224 133/274/163
f 134/275/225 141/193/160 68/276/226
f 172/222/183 134/275/225 171/277/211
f 67/278/227 14/225/186 90/279/228
f 67/278/227 90/279/228 190/195/162
f 243/280/229 133/196/163 48/281/224
f 67/278/227 198/197/164 243/280/229
f 236/230/189 48/281/224 153/227/187
f 53/223/184 243/280/229 236/230/189
f 68/282/226 171/257/211 134/283/225
f 59/252/206 171/257/211 68/282/226
f 144/204/168 68/282/226 141/203/160
f 68/282/226 138/206/170 269/284/230
f 68/282/226 269/284/230 91/285/231
f 59/252/206 91/285/231 13/253/207
f 59/252/206 68/282/226 91/285/231
f 146/286/232 3/165/138 240/263/217
f 174/287/233 241/266/220 147/288/223
f 139/186/155 6/188/156 132/289/234
f 69/290/235 178/238/178 132/291/234
f 180/232/191 55/237/195 69/290/235
f 142/199/165 69/290/235 6/198/156
f 69/290/235 137/180/149 270/292/236
f 69/290/235 270/292/236 93/293/237
f 70/294/238 15/243/200 92/295/239
f 70/294/238 92/295/239 189/201/167
f 244/296/240 140/202/158 176/297/241
f 70/294/238 143/200/166 244/296/240
f 238/250/204 176/297/241 179/248/181
f 57/241/198 244/296/240 238/250/204
f 150/109/94 200/88/81 201/111/95
f 150/109/94 223/108/93 157/298/242
f 245/299/243 157/298/242 192/300/244
f 71/301/245 157/298/242 245/299/243
f 21/89/82 192/300/244 158/231/190
f 200/88/81 159/87/80 199/240/197
f 74/15/14 204/302/246 273/303/246
f 74/15/14 273/303/246 250/304/247
f 74/15/14 274/305/248 222/105/92
f 74/15/14 250/304/247 274/305/248
f 74/15/14 205/306/249 252/307/15
f 74/15/14 275/308/15 204/302/246
f 74/15/14 252/307/15 275/308/15
f 74/15/14 253/16/15 205/306/249
f 75/12/11 225/127/104 276/309/250
f 75/12/11 276/309/250 255/310/251
f 75/12/11 277/311/252 206/312/253
f 75/12/11 255/310/251 277/311/252
f 75/12/11 206/312/253 278/313/12
f 75/12/11 278/313/12 256/314/253
f 75/12/11 256/314/253 207/13/12
f 258/72/70 187/73/71 98/138/112
f 78/83/77 208/315/254 279/316/255
f 78/83/77 279/316/255 260/317/256
f 78/83/77 280/318/257 219/84/78
f 78/83/77 260/317/256 280/318/257
f 78/83/77 209/319/258 262/320/259
f 78/83/77 281/321/254 208/315/254
f 78/83/77 262/320/259 281/321/254
f 78/83/77 261/82/76 264/29/27
f 78/83/77 263/28/26 209/319/258
f 79/25/23 193/143/117 265/322/260
f 79/25/23 282/323/261 210/324/262
f 79/25/23 265/322/260 282/323/261
f 79/25/23 210/324/262 283/325/262
f 79/25/23 283/325/262 266/326/263
f 79/25/23 266/326/263 211/26/24
f 80/179/148 189/201/167 137/180/149
f 81/178/147 98/138/112 187/73/71
f 82/181/150 190/195/162 138/206/170
f 83/205/169 82/181/150 138/206/170
f 85/242/199 177/233/192 15/243/200
f 267/245/202 160/251/205 201/111/95
f 267/245/202 201/111/95 199/240/197
f 148/239/196 267/245/202 199/240/197
f 149/224/185 87/254/208 14/225/186
f 88/327/264 158/231/190 192/300/244
f 89/258/212 88/327/264 268/259/213
f 268/259/213 192/300/244 157/298/242
f 268/259/213 157/298/242 161/112/96
f 90/279/228 269/284/230 190/195/162
f 92/295/239 270/292/236 189/201/167
f 285/328/265 284/329/265 288/330/265
f 290/331/265 287/328/265 291/332/265
s 0
f 282/333/266 265/334/266 182/335/266
s 1
f 285/328/265 288/330/265 289/336/265
f 286/337/265 291/338/265 292/339/265
f 246/1/1 249/120/5 95/2/2
f 72/4/4 73/10/9 249/5/5
f 248/7/6 247/11/10 185/8/7
f 73/10/9 72/4/4 247/11/10
f 74/15/14 75/12/11 212/14/13
f 254/17/16 251/18/17 186/3/3
f 75/12/11 74/15/14 251/18/17
f 257/19/18 259/135/22 99/20/19
f 76/22/21 77/136/110 259/23/22
f 77/136/110 76/22/21 258/72/70
f 102/182/151 194/30/28 110/61/59
f 194/30/28 102/182/151 38/31/29
f 8/33/31 96/35/33 124/34/32
f 197/36/34 96/35/33 97/340/267
f 104/41/39 131/211/173 101/50/48
f 115/341/65 41/189/157 135/191/66
f 41/189/157 115/341/65 106/45/43
f 96/35/33 41/189/157 106/45/43
f 16/44/42 97/340/267 96/35/33
f 97/340/267 16/44/42 214/342/79
f 202/46/44 50/217/179 9/219/83
f 49/214/176 202/46/44 10/48/46
f 49/214/176 50/217/179 202/46/44
f 50/217/179 49/214/176 7/212/174
f 108/343/85 101/50/48 131/211/173
f 108/343/85 117/344/84 109/51/49
f 101/50/48 108/343/85 109/51/49
f 101/50/48 17/49/47 215/52/50
f 155/57/55 52/53/51 24/55/53
f 52/53/51 51/56/54 8/33/31
f 119/60/58 42/183/152 110/61/59
f 42/183/152 119/60/58 118/345/102
f 102/182/151 110/61/59 42/183/152
f 120/346/106 110/61/59 194/30/28
f 110/61/59 120/346/106 1/62/60
f 121/347/109 40/63/61 2/64/62
f 40/63/61 121/347/109 116/187/115
f 18/65/63 107/39/37 216/38/36
f 19/70/68 115/67/65 234/69/67
f 258/72/70 19/70/68 45/71/69
f 217/74/72 257/19/18 188/21/20
f 19/70/68 76/22/21 257/24/18
f 106/79/43 217/74/72 111/75/73
f 115/67/65 19/70/68 217/76/72
f 218/78/74 16/81/42 106/79/43
f 261/82/76 218/78/74 111/75/73
f 78/83/77 20/80/75 218/78/74
f 20/80/75 78/83/77 219/84/78
f 16/81/42 20/80/75 219/84/78
f 21/89/82 152/86/45 200/88/81
f 21/89/82 158/231/190 10/90/46
f 9/91/83 152/86/45 202/348/44
f 22/95/87 117/92/84 113/94/86
f 247/11/10 22/95/87 113/94/86
f 220/96/88 246/6/1 186/3/3
f 22/95/87 72/4/4 246/98/1
f 109/102/49 220/96/88 114/97/89
f 117/92/84 22/95/87 220/99/88
f 221/101/90 17/104/47 109/102/49
f 251/18/17 221/101/90 114/97/89
f 74/15/14 23/103/91 221/101/90
f 23/103/91 74/15/14 222/105/92
f 17/104/47 23/103/91 222/105/92
f 160/251/205 12/110/57 201/111/95
f 12/110/57 24/107/53 150/109/94
f 24/107/53 12/110/57 155/349/55
f 161/112/96 223/108/93 24/107/53
f 25/121/99 119/117/58 224/119/97
f 249/120/5 224/114/97 105/116/98
f 73/10/9 25/121/99 224/119/97
f 25/121/99 248/7/6 94/9/8
f 25/121/99 73/10/9 248/7/6
f 119/117/58 25/121/99 46/122/100
f 26/125/103 120/129/106 194/126/28
f 75/12/11 26/125/103 225/127/104
f 226/128/105 254/17/16 95/2/2
f 26/125/103 75/12/11 254/17/16
f 120/129/106 226/128/105 105/116/98
f 120/129/106 26/125/103 226/128/105
f 27/137/111 121/132/109 227/134/107
f 259/135/22 227/130/107 112/131/108
f 77/136/110 27/137/111 227/134/107
f 27/137/111 77/136/110 98/138/112
f 121/132/109 27/137/111 44/139/113
f 28/142/116 18/65/63 195/66/64
f 79/25/23 28/142/116 193/143/117
f 228/144/118 264/29/27 99/20/19
f 28/142/116 79/25/23 264/29/27
f 18/65/63 228/144/118 112/131/108
f 18/65/63 28/142/116 228/144/118
f 29/350/268 122/164/137 3/165/138
f 163/147/121 64/146/120 3/165/138
f 30/351/269 165/145/119 163/147/121
f 128/167/140 31/352/270 126/168/141
f 31/353/270 128/354/140 129/148/122
f 129/148/122 32/151/271 31/353/270
f 32/151/271 129/148/122 271/150/123
f 34/355/129 130/356/128 4/208/143
f 35/357/272 169/269/145 167/358/144
f 127/159/131 37/162/273 123/359/132
f 37/162/273 127/159/131 272/161/133
f 38/31/29 122/164/137 196/32/30
f 124/34/32 128/167/140 183/166/139
f 129/169/122 124/34/32 197/36/34
f 103/37/35 33/170/127 231/40/38
f 184/171/142 130/172/128 33/170/127
f 36/360/130 175/176/146 127/177/131
f 127/177/131 125/43/41 232/42/40
f 82/181/150 83/205/169 94/9/8
f 131/211/173 104/41/39 125/43/41
f 100/185/154 103/37/35 107/39/37
f 108/343/85 39/213/175 133/274/163
f 39/213/175 108/343/85 131/211/173
f 40/63/61 139/186/155 100/185/154
f 139/186/155 40/63/61 116/187/115
f 141/193/160 42/183/152 118/345/102
f 113/94/86 43/194/161 82/181/150
f 198/197/164 113/94/86 133/196/163
f 44/139/113 142/199/165 6/198/156
f 142/199/165 44/139/113 81/178/147
f 45/71/69 143/200/166 80/179/148
f 143/200/166 234/69/67 135/68/66
f 143/200/166 45/71/69 234/69/67
f 235/123/101 144/204/168 141/203/160
f 144/204/168 46/122/100 83/205/169
f 146/286/232 29/350/268 3/165/138
f 47/207/171 34/355/129 4/208/143
f 96/35/33 8/33/31 5/192/159
f 102/182/151 8/33/31 38/31/29
f 100/185/154 7/212/174 103/37/35
f 48/273/224 49/214/176 153/361/187
f 49/214/176 48/273/224 39/213/175
f 139/186/155 50/217/179 7/212/174
f 154/362/210 172/222/183 171/277/211
f 170/184/153 52/53/51 8/33/31
f 52/53/51 172/222/183 154/362/210
f 52/53/51 154/362/210 11/54/52
f 53/223/184 54/229/188 149/224/185
f 237/226/177 236/230/189 153/227/187
f 54/229/188 53/223/184 236/230/189
f 158/231/190 54/229/188 237/226/177
f 55/237/195 180/232/191 84/234/193
f 148/239/196 55/237/195 84/234/193
f 56/235/194 159/87/80 9/91/83
f 55/237/195 56/235/194 151/236/180
f 56/235/194 55/237/195 148/239/196
f 159/87/80 56/235/194 148/239/196
f 58/244/201 160/251/205 267/245/202
f 239/247/182 238/250/204 179/248/181
f 58/244/201 57/241/198 238/250/204
f 160/251/205 58/244/201 239/247/182
f 89/258/212 59/252/206 87/254/208
f 60/255/209 161/112/96 11/113/52
f 171/257/211 60/255/209 154/256/210
f 60/255/209 59/252/206 89/258/212
f 161/112/96 60/255/209 89/258/212
f 61/363/274 162/261/215 203/260/214
f 181/364/275 203/260/214 126/168/141
f 162/261/215 62/365/276 163/147/121
f 64/146/120 240/263/217 3/165/138
f 164/262/216 63/366/277 240/263/217
f 241/266/220 166/265/219 147/288/223
f 242/367/278 182/368/279 136/209/172
f 66/267/221 242/367/278 136/209/172
f 3/165/138 183/166/139 163/147/121
f 38/31/29 183/166/139 3/165/138
f 125/43/41 184/171/142 7/212/174
f 184/171/142 175/176/146 166/271/219
f 141/193/160 172/222/183 170/184/153
f 172/222/183 141/193/160 134/275/225
f 67/278/227 53/223/184 14/225/186
f 43/194/161 67/278/227 190/195/162
f 243/280/229 198/197/164 133/196/163
f 67/278/227 43/194/161 198/197/164
f 236/230/189 243/280/229 48/281/224
f 53/223/184 67/278/227 243/280/229
f 68/282/226 144/204/168 138/206/170
f 173/369/280 146/286/232 240/263/217
f 92/295/239 93/293/237 270/292/236
f 93/293/237 92/295/239 15/243/200
f 178/216/178 139/186/155 132/289/234
f 140/190/158 179/220/181 176/370/241
f 179/220/181 140/190/158 5/192/159
f 69/290/235 55/237/195 178/238/178
f 6/198/156 69/290/235 132/291/234
f 69/290/235 142/199/165 137/180/149
f 180/232/191 69/290/235 93/293/237
f 70/294/238 57/241/198 15/243/200
f 143/200/166 70/294/238 189/201/167
f 244/296/240 143/200/166 140/202/158
f 238/250/204 244/296/240 176/297/241
f 57/241/198 70/294/238 244/296/240
f 145/371/281 181/364/275 126/168/141
f 201/111/95 200/88/81 199/240/197
f 150/109/94 71/301/245 200/88/81
f 157/298/242 223/108/93 161/112/96
f 71/301/245 150/109/94 157/298/242
f 21/89/82 245/299/243 192/300/244
f 21/89/82 71/301/245 245/299/243
f 71/301/245 21/89/82 200/88/81
f 77/136/110 258/72/70 98/138/112
f 264/29/27 261/82/76 188/21/20
f 78/83/77 79/25/23 263/28/26
f 79/25/23 78/83/77 264/29/27
f 80/179/148 81/178/147 187/73/71
f 84/234/193 85/242/199 86/246/203
f 85/242/199 84/234/193 177/233/192
f 58/244/201 86/246/203 85/242/199
f 148/239/196 86/246/203 267/245/202
f 86/246/203 148/239/196 84/234/193
f 14/225/186 87/254/208 13/253/207
f 87/254/208 149/224/185 191/372/282
f 88/327/264 89/258/212 191/372/282
f 54/229/188 191/372/282 149/224/185
f 54/229/188 88/327/264 191/372/282
f 88/327/264 54/229/188 158/231/190
f 268/259/213 88/327/264 192/300/244
f 191/372/282 89/258/212 87/254/208
f 190/195/162 269/284/230 138/206/170
f 90/279/228 91/285/231 269/284/230
f 91/285/231 90/279/228 14/225/186
f 91/285/231 14/225/186 13/253/207
f 189/201/167 270/292/236 137/180/149
f 93/293/237 15/243/200 177/233/192
f 180/232/191 93/293/237 177/233/192
s 0
f 104/373/283 215/374/284 222/375/285
f 222/375/286 274/376/287 232/377/288
f 274/376/289 250/378/290 147/379/291
f 250/378/266 273/380/266 174/381/266
f 273/380/266 204/382/292 241/383/292
f 222/375/293 232/377/294 104/373/295
f 204/382/266 275/384/266 65/385/266
f 275/384/296 252/386/297 166/387/298
f 147/379/299 250/378/300 174/381/301
f 252/386/302 205/388/303 166/387/304
f 205/388/305 253/389/306 167/390/307
f 174/381/308 273/380/309 241/383/310
f 232/377/311 274/376/312 175/391/313
f 272/152/314 232/160/315 36/392/316
f 241/383/317 204/382/317 65/385/317
f 123/359/318 37/393/319 272/394/320
f 232/160/321 175/395/322 36/392/323
f 253/389/266 212/396/266 263/397/266
f 65/385/324 275/384/325 166/387/310
f 36/392/326 123/359/327 272/398/328
f 212/396/329 207/399/330 165/400/331
f 166/387/332 205/388/333 167/390/334
f 207/399/335 256/401/336 64/402/337
f 256/401/266 278/403/266 164/404/266
f 147/379/338 175/391/339 274/376/340
f 278/403/266 206/405/266 63/406/266
f 206/405/341 277/407/266 240/408/341
f 277/407/266 255/409/266 173/410/266
f 146/411/342 276/412/343 196/413/343
f 255/409/266 276/412/266 146/411/266
f 276/412/344 225/414/345 196/413/346
f 194/415/347 196/413/348 225/414/349
f 277/407/350 173/410/351 240/408/352
f 173/410/266 255/409/353 146/411/354
f 206/405/355 240/408/355 63/406/355
f 167/390/356 253/389/357 35/416/358
f 278/403/359 63/406/360 164/404/336
f 196/417/361 122/418/362 29/419/363
f 35/416/364 253/389/365 213/420/366
f 256/401/367 164/404/368 64/402/369
f 207/399/370 64/402/371 165/400/372
f 213/420/266 253/389/266 263/397/266
f 169/421/373 35/416/374 213/420/375
f 29/419/376 146/422/377 196/417/378
f 168/423/379 169/421/380 211/424/381
f 66/425/382 168/423/383 283/426/384
f 30/427/385 212/396/386 165/400/387
f 242/428/266 66/425/266 210/429/266
f 169/421/388 213/420/389 211/424/390
f 30/427/391 263/397/392 212/396/393
f 182/335/394 242/428/369 282/333/395
f 263/397/396 163/430/397 209/431/389
f 136/432/398 182/335/399 265/334/400
f 30/427/401 163/430/402 263/397/403
f 163/430/404 62/433/335 209/431/405
f 62/433/266 162/434/406 262/435/407
f 34/155/408 47/436/409 231/437/410
f 47/438/411 136/432/412 193/439/411
f 162/434/266 61/440/413 281/441/414
f 168/423/415 211/424/416 266/442/417
f 168/423/418 266/442/419 283/426/420
f 66/425/266 283/426/266 210/429/266
f 61/440/421 203/443/421 208/444/421
f 203/443/357 181/445/422 279/446/423
f 209/431/424 62/433/424 262/435/425
f 33/153/426 34/155/427 231/437/428
f 181/445/429 145/447/430 260/448/431
f 145/447/432 126/449/433 280/450/434
f 126/451/435 31/353/436 197/149/437
f 31/353/438 32/452/439 197/149/440
f 32/452/441 271/453/442 197/149/443
f 262/435/266 162/434/266 281/441/266
f 126/449/444 197/454/445 280/450/446
f 281/441/266 61/440/266 208/444/266
f 231/437/447 47/438/448 193/439/449
f 242/428/266 210/429/266 282/333/266
f 208/444/341 203/443/341 279/446/266
f 197/454/450 97/455/451 219/456/452
f 97/455/453 214/457/454 219/456/455
f 219/456/456 280/450/457 197/454/458
f 280/450/266 260/448/266 145/447/266
f 260/448/266 279/446/266 181/445/266
f 216/458/459 231/437/460 193/439/461
f 193/439/462 195/459/463 216/458/464
f 265/334/465 193/439/466 136/432/467
