# Blender 4.0.0
# www.blender.org
o Microwave011_Door
v -0.152340 -0.128287 0.246151
v -0.152340 -0.128287 0.248427
v -0.153489 -0.126697 0.248427
v -0.153489 -0.126697 0.246151
v -0.152340 -0.128287 0.247289
v -0.153153 -0.127821 0.247289
v -0.153153 -0.127821 0.248427
v -0.153489 -0.126697 0.247289
v -0.153153 -0.127821 0.246151
v -0.148223 -0.128287 0.246151
v -0.147074 -0.126697 0.246151
v -0.145924 -0.126697 0.247289
v -0.145924 -0.128287 0.248427
v -0.148223 -0.128287 0.248427
v -0.147410 -0.127821 0.246151
v -0.147074 -0.127944 0.247289
v -0.146737 -0.126697 0.246956
v -0.145924 -0.127821 0.247623
v -0.147074 -0.128287 0.248427
v -0.148223 -0.128287 0.247289
v -0.153489 -0.121003 0.246151
v -0.153489 -0.121003 0.248427
v -0.152340 -0.119414 0.248427
v -0.152340 -0.119414 0.246151
v -0.153489 -0.121003 0.247289
v -0.153153 -0.119879 0.247289
v -0.153153 -0.119879 0.248427
v -0.152340 -0.119414 0.247289
v -0.153153 -0.119879 0.246151
v -0.148223 -0.119414 0.246151
v -0.148223 -0.119414 0.248427
v -0.145924 -0.119414 0.248427
v -0.145924 -0.121003 0.247289
v -0.147074 -0.121003 0.246151
v -0.148223 -0.119414 0.247289
v -0.147074 -0.119756 0.247289
v -0.147074 -0.119414 0.248427
v -0.145924 -0.119879 0.247623
v -0.146737 -0.121003 0.246956
v -0.147410 -0.119879 0.246151
v -0.153489 -0.126697 0.252535
v -0.152340 -0.128287 0.252535
v -0.152340 -0.126697 0.253673
v -0.153153 -0.127821 0.252535
v -0.153004 -0.127615 0.253192
v -0.152340 -0.127821 0.253339
v -0.153153 -0.126697 0.253339
v -0.148223 -0.128287 0.252535
v -0.145924 -0.128287 0.252535
v -0.145924 -0.126697 0.253673
v -0.148223 -0.126697 0.253673
v -0.147074 -0.128287 0.252535
v -0.147074 -0.127821 0.253339
v -0.145924 -0.127821 0.253339
v -0.147074 -0.126697 0.253673
v -0.148223 -0.127821 0.253339
v -0.152340 -0.121003 0.253673
v -0.152340 -0.119414 0.252535
v -0.153489 -0.121003 0.252535
v -0.152340 -0.119879 0.253339
v -0.153004 -0.120085 0.253192
v -0.153153 -0.119879 0.252535
v -0.153153 -0.121003 0.253339
v -0.145924 -0.121003 0.253673
v -0.145924 -0.119414 0.252535
v -0.148223 -0.119414 0.252535
v -0.148223 -0.121003 0.253673
v -0.145924 -0.119879 0.253339
v -0.147074 -0.119879 0.253339
v -0.147074 -0.119414 0.252535
v -0.148223 -0.119879 0.253339
v -0.147074 -0.121003 0.253673
v 0.153474 -0.126697 0.253673
v 0.153474 -0.128287 0.252535
v 0.154624 -0.126697 0.252535
v 0.153474 -0.127821 0.253339
v 0.154138 -0.127615 0.253192
v 0.154287 -0.127821 0.252535
v 0.154287 -0.126697 0.253339
v 0.153474 -0.121003 0.253673
v 0.154624 -0.121003 0.252535
v 0.153474 -0.119414 0.252535
v 0.154287 -0.121003 0.253339
v 0.154138 -0.120085 0.253192
v 0.154287 -0.119879 0.252535
v 0.153474 -0.119879 0.253339
v 0.153474 -0.128287 0.248427
v 0.153474 -0.128287 0.246151
v 0.154624 -0.126697 0.246151
v 0.154624 -0.126697 0.248427
v 0.153474 -0.128287 0.247289
v 0.154287 -0.127821 0.247289
v 0.154287 -0.127821 0.246151
v 0.154624 -0.126697 0.247289
v 0.154287 -0.127821 0.248427
v 0.154624 -0.121003 0.246151
v 0.153474 -0.119414 0.246151
v 0.153474 -0.119414 0.248427
v 0.154624 -0.121003 0.248427
v 0.154287 -0.119879 0.246151
v 0.154287 -0.119879 0.247289
v 0.153474 -0.119414 0.247289
v 0.154287 -0.119879 0.248427
v 0.154624 -0.121003 0.247289
v 0.149021 -0.128287 0.246151
v 0.149021 -0.128287 0.248427
v 0.146722 -0.128287 0.248427
v 0.146722 -0.126697 0.247289
v 0.147872 -0.126697 0.246151
v 0.149021 -0.128287 0.247289
v 0.147872 -0.127944 0.247289
v 0.147872 -0.128287 0.248427
v 0.146722 -0.127821 0.247623
v 0.147535 -0.126697 0.246956
v 0.148208 -0.127821 0.246151
v 0.146722 -0.128287 0.252535
v 0.149021 -0.128287 0.252535
v 0.149021 -0.126697 0.253673
v 0.146722 -0.126697 0.253673
v 0.147872 -0.128287 0.252535
v 0.147872 -0.127821 0.253339
v 0.149021 -0.127821 0.253339
v 0.147872 -0.126697 0.253673
v 0.146722 -0.127821 0.253339
v 0.149021 -0.119414 0.246151
v 0.147872 -0.121003 0.246151
v 0.146722 -0.121003 0.247289
v 0.146722 -0.119414 0.248427
v 0.149021 -0.119414 0.248427
v 0.148208 -0.119879 0.246151
v 0.147872 -0.119756 0.247289
v 0.147535 -0.121003 0.246956
v 0.146722 -0.119879 0.247623
v 0.147872 -0.119414 0.248427
v 0.149021 -0.119414 0.247289
v 0.146722 -0.121003 0.253673
v 0.149021 -0.121003 0.253673
v 0.149021 -0.119414 0.252535
v 0.146722 -0.119414 0.252535
v 0.147872 -0.121003 0.253673
v 0.147872 -0.119879 0.253339
v 0.149021 -0.119879 0.253339
v 0.147872 -0.119414 0.252535
v 0.146722 -0.119879 0.253339
v -0.152340 -0.128287 0.007491
v -0.153489 -0.126697 0.007491
v -0.152340 -0.126697 0.006353
v -0.153153 -0.127821 0.007491
v -0.153004 -0.127615 0.006834
v -0.153153 -0.126697 0.006687
v -0.152340 -0.127821 0.006687
v -0.148223 -0.128287 0.007491
v -0.148223 -0.126697 0.006353
v -0.145924 -0.126697 0.006353
v -0.145924 -0.128287 0.007491
v -0.148223 -0.127821 0.006687
v -0.147074 -0.127821 0.006687
v -0.147074 -0.126697 0.006353
v -0.145924 -0.127821 0.006687
v -0.147074 -0.128287 0.007491
v -0.153489 -0.121003 0.007491
v -0.152340 -0.119414 0.007491
v -0.152340 -0.121003 0.006353
v -0.153153 -0.119879 0.007491
v -0.153004 -0.120085 0.006834
v -0.152340 -0.119879 0.006687
v -0.153153 -0.121003 0.006687
v -0.148223 -0.119414 0.007491
v -0.145924 -0.119414 0.007491
v -0.145924 -0.121003 0.006353
v -0.148223 -0.121003 0.006353
v -0.147074 -0.119414 0.007491
v -0.147074 -0.119879 0.006687
v -0.145924 -0.119879 0.006687
v -0.147074 -0.121003 0.006353
v -0.148223 -0.119879 0.006687
v 0.154624 -0.126697 0.007491
v 0.153474 -0.128287 0.007491
v 0.153474 -0.126697 0.006353
v 0.154287 -0.127821 0.007491
v 0.154138 -0.127615 0.006834
v 0.153474 -0.127821 0.006687
v 0.154287 -0.126697 0.006687
v 0.154624 -0.121003 0.007491
v 0.153474 -0.121003 0.006353
v 0.153474 -0.119414 0.007491
v 0.154287 -0.121003 0.006687
v 0.154138 -0.120085 0.006834
v 0.153474 -0.119879 0.006687
v 0.154287 -0.119879 0.007491
v 0.149021 -0.128287 0.007491
v 0.146722 -0.128287 0.007491
v 0.146722 -0.126697 0.006353
v 0.149021 -0.126697 0.006353
v 0.147872 -0.128287 0.007491
v 0.147872 -0.127821 0.006687
v 0.146722 -0.127821 0.006687
v 0.147872 -0.126697 0.006353
v 0.149021 -0.127821 0.006687
v 0.149021 -0.119414 0.007491
v 0.149021 -0.121003 0.006353
v 0.146722 -0.121003 0.006353
v 0.146722 -0.119414 0.007491
v 0.149021 -0.119879 0.006687
v 0.147872 -0.119879 0.006687
v 0.147872 -0.121003 0.006353
v 0.146722 -0.119879 0.006687
v 0.147872 -0.119414 0.007491
v -0.145924 -0.119414 0.010988
v -0.148223 -0.119414 0.010988
v -0.148223 -0.119414 0.013263
v -0.147074 -0.121003 0.013263
v -0.145924 -0.121003 0.012126
v -0.147074 -0.119414 0.010988
v -0.147074 -0.119756 0.012126
v -0.148223 -0.119414 0.012126
v -0.147410 -0.119879 0.013263
v -0.146737 -0.121003 0.012459
v -0.145924 -0.119879 0.011792
v -0.152340 -0.119414 0.013263
v -0.152340 -0.119414 0.010988
v -0.153489 -0.121003 0.010988
v -0.153489 -0.121003 0.013263
v -0.152340 -0.119414 0.012126
v -0.153153 -0.119879 0.012126
v -0.153153 -0.119879 0.010988
v -0.153489 -0.121003 0.012126
v -0.153153 -0.119879 0.013263
v -0.152340 -0.128287 0.010988
v -0.152340 -0.128287 0.013263
v -0.153489 -0.126697 0.013263
v -0.153489 -0.126697 0.010988
v -0.152340 -0.128287 0.012126
v -0.153153 -0.127821 0.012126
v -0.153153 -0.127821 0.013263
v -0.153489 -0.126697 0.012126
v -0.153153 -0.127821 0.010988
v -0.148223 -0.128287 0.013263
v -0.148223 -0.128287 0.010988
v -0.145924 -0.128287 0.010988
v -0.145924 -0.126697 0.012126
v -0.147074 -0.126697 0.013263
v -0.148223 -0.128287 0.012126
v -0.147074 -0.127944 0.012126
v -0.147074 -0.128287 0.010988
v -0.145924 -0.127821 0.011792
v -0.146737 -0.126697 0.012459
v -0.147410 -0.127821 0.013263
v 0.153474 -0.119414 0.010988
v 0.153474 -0.119414 0.013263
v 0.154624 -0.121003 0.013263
v 0.154624 -0.121003 0.010988
v 0.153474 -0.119414 0.012126
v 0.154287 -0.119879 0.012126
v 0.154287 -0.119879 0.013263
v 0.154624 -0.121003 0.012126
v 0.154287 -0.119879 0.010988
v 0.149021 -0.119414 0.013263
v 0.149021 -0.119414 0.010988
v 0.146722 -0.119414 0.010988
v 0.146722 -0.121003 0.012126
v 0.147872 -0.121003 0.013263
v 0.149021 -0.119414 0.012126
v 0.147872 -0.119756 0.012126
v 0.147872 -0.119414 0.010988
v 0.146722 -0.119879 0.011792
v 0.147535 -0.121003 0.012459
v 0.148208 -0.119879 0.013263
v 0.146722 -0.128287 0.010988
v 0.149021 -0.128287 0.010988
v 0.149021 -0.128287 0.013263
v 0.147872 -0.126697 0.013263
v 0.146722 -0.126697 0.012126
v 0.147872 -0.128287 0.010988
v 0.147872 -0.127944 0.012126
v 0.149021 -0.128287 0.012126
v 0.148208 -0.127821 0.013263
v 0.147535 -0.126697 0.012459
v 0.146722 -0.127821 0.011792
v 0.153474 -0.128287 0.013263
v 0.153474 -0.128287 0.010988
v 0.154624 -0.126697 0.010988
v 0.154624 -0.126697 0.013263
v 0.153474 -0.128287 0.012126
v 0.154287 -0.127821 0.012126
v 0.154287 -0.127821 0.010988
v 0.154624 -0.126697 0.012126
v 0.154287 -0.127821 0.013263
vn -0.0000 -0.0681 -0.9977
vn -0.0000 0.0681 -0.9977
vn -0.0000 0.0681 0.9977
vn -0.0000 -0.0681 0.9977
vn -0.9977 -0.0681 -0.0000
vn -0.9977 0.0681 -0.0000
vn -0.0048 1.0000 -0.0048
vn -0.0000 0.9977 0.0677
vn 0.0610 0.9960 0.0650
vn 0.0638 0.9980 -0.0000
vn 0.0001 0.9977 -0.0676
vn -0.0001 0.9977 -0.0676
vn -0.0000 -0.9977 0.0677
vn 0.0001 -0.9977 -0.0676
vn -0.0001 -0.9977 -0.0676
vn -0.0048 -1.0000 -0.0048
vn 0.0638 -0.9980 -0.0000
vn 0.0610 -0.9960 0.0650
vn -0.0000 0.9970 -0.0772
vn 0.0001 0.9970 0.0772
vn -0.0001 0.9970 0.0772
vn 0.9977 -0.0681 -0.0000
vn 0.9977 0.0681 -0.0000
vn 0.9958 0.0652 0.0648
vn 0.9958 -0.0652 0.0648
vn -0.0652 -0.0652 0.9957
vn -0.0652 0.0652 0.9957
vn 0.0610 -0.0654 0.9960
vn 0.0610 0.0654 0.9960
vn -0.0681 0.9977 -0.0000
vn 0.0681 0.9977 -0.0001
vn 0.0681 0.9977 0.0001
vn 0.9977 0.0682 -0.0014
vn 0.9977 -0.0682 -0.0014
vn 0.9977 -0.0682 0.0014
vn 0.9977 0.0682 0.0014
vn -0.9952 0.0648 -0.0740
vn -0.9952 -0.0648 -0.0740
vn -0.0054 -1.0000 0.0054
vn -0.0000 -0.9970 -0.0772
vn 0.0606 -0.9954 -0.0742
vn 0.0012 0.0682 0.9977
vn 0.0012 -0.0682 0.9977
vn -0.0012 -0.0682 0.9977
vn -0.0012 0.0682 0.9977
vn -0.0054 1.0000 0.0054
vn 0.0606 0.9954 -0.0742
vn 0.0611 0.0654 -0.9960
vn 0.0611 -0.0654 -0.9960
vn 0.0058 -1.0000 0.0058
vn -0.0681 -0.9977 -0.0000
vn -0.0648 -0.9952 -0.0740
vn 0.0058 1.0000 0.0058
vn -0.0648 0.9952 -0.0740
vn 0.0012 -0.0682 -0.9977
vn 0.0012 0.0682 -0.9977
vn -0.0012 0.0682 -0.9977
vn -0.0012 -0.0682 -0.9977
vn -0.9958 -0.0652 0.0648
vn -0.9958 0.0652 0.0648
vn 0.0051 1.0000 -0.0051
vn -0.0652 0.9958 0.0648
vn 0.0051 -1.0000 -0.0051
vn -0.0652 -0.9958 0.0648
vn -0.0652 0.0652 -0.9957
vn -0.0652 -0.0652 -0.9957
vn -0.0638 -0.9980 -0.0001
vn -0.0638 -0.9980 0.0001
vn -0.0638 0.9980 -0.0001
vn -0.0638 0.9980 0.0001
vn -0.9977 -0.0682 -0.0014
vn -0.9977 0.0682 -0.0014
vn -0.9977 0.0682 0.0014
vn -0.9977 -0.0682 0.0014
vn 0.9952 -0.0648 -0.0740
vn 0.9952 0.0648 -0.0740
vn -0.0001 -0.9970 0.0772
vn 0.0001 -0.9970 0.0772
vn -0.1945 -0.9809 -0.0000
vn -0.7913 -0.6114 -0.0000
vn -0.9994 0.0335 -0.0000
vn -0.7752 -0.6317 -0.0000
vn 0.1652 -0.9860 -0.0250
vn 0.7681 -0.6400 -0.0182
vn 0.4328 -0.8219 -0.3703
vn 0.1447 -0.9883 -0.0475
vn 0.9994 0.0328 -0.0051
vn 0.7089 0.0069 -0.7052
vn 0.4208 -0.8169 -0.3944
vn 0.7713 -0.6356 -0.0331
vn -0.0017 0.0350 -0.9994
vn 0.0280 -0.6335 -0.7732
vn 0.3909 -0.8163 -0.4252
vn 0.7007 0.0087 -0.7134
vn 0.0238 -0.9855 -0.1682
vn 0.0462 -0.9879 -0.1479
vn 0.3688 -0.8204 -0.4370
vn 0.0151 -0.6375 -0.7703
vn 0.0478 -0.9976 -0.0493
vn 0.0790 -0.9952 -0.0586
vn 0.3723 -0.8496 -0.3736
vn 0.0570 -0.9951 -0.0803
vn -0.9994 -0.0335 -0.0000
vn -0.7752 0.6317 -0.0000
vn -0.1945 0.9809 -0.0000
vn -0.7913 0.6114 -0.0000
vn 0.1652 0.9860 -0.0250
vn 0.1447 0.9883 -0.0475
vn 0.4328 0.8219 -0.3703
vn 0.7681 0.6400 -0.0182
vn 0.0478 0.9976 -0.0493
vn 0.0570 0.9951 -0.0803
vn 0.3723 0.8496 -0.3736
vn 0.0790 0.9952 -0.0586
vn 0.0238 0.9855 -0.1682
vn 0.0151 0.6375 -0.7703
vn 0.3688 0.8204 -0.4370
vn 0.0462 0.9879 -0.1479
vn -0.0017 -0.0350 -0.9994
vn 0.7007 -0.0087 -0.7134
vn 0.3909 0.8163 -0.4252
vn 0.0280 0.6335 -0.7732
vn 0.9994 -0.0328 -0.0051
vn 0.7713 0.6356 -0.0331
vn 0.4208 0.8169 -0.3944
vn 0.7089 -0.0069 -0.7052
vn -0.9971 0.0222 0.0731
vn -0.7560 -0.6493 0.0827
vn -0.6203 -0.4908 0.6118
vn -0.7075 0.0380 0.7057
vn -0.1636 -0.9722 0.1674
vn -0.1225 -0.6192 0.7756
vn -0.6296 -0.4491 0.6339
vn -0.7732 -0.6213 0.1270
vn -0.0675 0.0242 0.9974
vn -0.7015 0.0390 0.7116
vn -0.6070 -0.4905 0.6252
vn -0.0773 -0.6476 0.7581
vn -0.0000 -0.9801 0.1983
vn -0.0000 -0.6080 0.7940
vn -0.0000 0.0362 0.9993
vn -0.0000 -0.6295 0.7770
vn -0.0675 -0.0242 0.9974
vn -0.0773 0.6476 0.7581
vn -0.6071 0.4905 0.6252
vn -0.7015 -0.0390 0.7116
vn -0.1636 0.9722 0.1674
vn -0.7732 0.6213 0.1270
vn -0.6296 0.4491 0.6340
vn -0.1225 0.6192 0.7756
vn -0.9971 -0.0222 0.0731
vn -0.7075 -0.0380 0.7057
vn -0.6203 0.4909 0.6118
vn -0.7560 0.6493 0.0827
vn -0.0000 -0.0362 0.9993
vn -0.0000 0.6295 0.7770
vn -0.0000 0.9801 0.1983
vn -0.0000 0.6080 0.7940
vn 0.0634 0.0240 0.9977
vn 0.0739 -0.6478 0.7582
vn 0.6070 -0.4905 0.6252
vn 0.7015 0.0391 0.7116
vn 0.1594 -0.9729 0.1677
vn 0.7732 -0.6214 0.1270
vn 0.6296 -0.4492 0.6339
vn 0.1192 -0.6197 0.7758
vn 0.9971 0.0222 0.0731
vn 0.7075 0.0380 0.7057
vn 0.6203 -0.4908 0.6118
vn 0.7560 -0.6493 0.0827
vn 0.0634 -0.0240 0.9977
vn 0.7015 -0.0391 0.7116
vn 0.6070 0.4905 0.6252
vn 0.0739 0.6478 0.7582
vn 0.9971 -0.0222 0.0731
vn 0.7560 0.6493 0.0827
vn 0.6203 0.4908 0.6118
vn 0.7075 -0.0380 0.7057
vn 0.1594 0.9729 0.1677
vn 0.1192 0.6197 0.7757
vn 0.6296 0.4492 0.6339
vn 0.7732 0.6214 0.1270
vn 0.1902 -0.9817 -0.0000
vn 0.7913 -0.6114 -0.0000
vn 0.1902 -0.9817 -0.0001
vn 0.9994 0.0335 -0.0000
vn 0.7752 -0.6317 -0.0000
vn 0.9994 0.0335 -0.0001
vn 0.9994 -0.0335 -0.0000
vn 0.7752 0.6317 -0.0000
vn 0.7753 0.6316 -0.0000
vn 0.1902 0.9817 -0.0000
vn 0.7913 0.6114 -0.0000
vn -0.1608 -0.9867 -0.0249
vn -0.1423 -0.9887 -0.0463
vn -0.4328 -0.8219 -0.3703
vn -0.7681 -0.6400 -0.0182
vn -0.0475 -0.9977 -0.0490
vn -0.0570 -0.9951 -0.0803
vn -0.3723 -0.8496 -0.3736
vn -0.0766 -0.9954 -0.0574
vn -0.0238 -0.9855 -0.1682
vn -0.0151 -0.6375 -0.7703
vn -0.3688 -0.8204 -0.4370
vn -0.0462 -0.9879 -0.1479
vn 0.0017 0.0350 -0.9994
vn -0.7007 0.0087 -0.7134
vn -0.3909 -0.8163 -0.4252
vn -0.0280 -0.6335 -0.7732
vn -0.9994 0.0328 -0.0051
vn -0.7713 -0.6356 -0.0331
vn -0.4207 -0.8169 -0.3944
vn -0.7089 0.0069 -0.7053
vn -0.0000 0.0363 0.9993
vn -0.0000 -0.6296 0.7770
vn -0.1608 0.9867 -0.0249
vn -0.7681 0.6400 -0.0182
vn -0.4328 0.8219 -0.3703
vn -0.1423 0.9887 -0.0463
vn -0.9994 -0.0328 -0.0051
vn -0.7089 -0.0069 -0.7053
vn -0.4208 0.8169 -0.3944
vn -0.7713 0.6356 -0.0331
vn 0.0017 -0.0350 -0.9994
vn -0.0280 0.6335 -0.7732
vn -0.3909 0.8163 -0.4252
vn -0.7007 -0.0087 -0.7134
vn -0.0238 0.9855 -0.1682
vn -0.0462 0.9879 -0.1479
vn -0.3688 0.8204 -0.4370
vn -0.0151 0.6375 -0.7703
vn -0.0475 0.9977 -0.0490
vn -0.0766 0.9954 -0.0574
vn -0.3723 0.8496 -0.3736
vn -0.0570 0.9951 -0.0803
vn -0.0000 -0.0363 0.9993
vn -0.0000 0.6296 0.7770
vn -0.1630 -0.9707 -0.1767
vn -0.7727 -0.6204 -0.1343
vn -0.6296 -0.4491 -0.6339
vn -0.1225 -0.6192 -0.7756
vn -0.9964 0.0227 -0.0823
vn -0.7075 0.0380 -0.7057
vn -0.6203 -0.4909 -0.6118
vn -0.7556 -0.6487 -0.0903
vn -0.0675 0.0242 -0.9974
vn -0.0773 -0.6476 -0.7581
vn -0.6070 -0.4905 -0.6253
vn -0.7015 0.0391 -0.7116
vn -0.0000 -0.9782 -0.2077
vn -0.0000 -0.6080 -0.7939
vn -0.0000 0.0362 -0.9993
vn -0.0000 -0.6295 -0.7770
vn 0.0001 0.0362 -0.9993
vn -0.0000 0.0363 -0.9993
vn -0.0001 -0.9782 -0.2077
vn -0.9964 -0.0227 -0.0823
vn -0.7556 0.6487 -0.0903
vn -0.6203 0.4909 -0.6118
vn -0.7075 -0.0380 -0.7057
vn -0.1630 0.9707 -0.1767
vn -0.1225 0.6192 -0.7756
vn -0.6296 0.4491 -0.6339
vn -0.7727 0.6204 -0.1343
vn -0.0674 -0.0242 -0.9974
vn -0.7015 -0.0391 -0.7116
vn -0.6070 0.4905 -0.6253
vn -0.0773 0.6476 -0.7581
vn -0.0000 0.9782 -0.2077
vn 0.0002 0.9782 -0.2077
vn -0.0000 0.6080 -0.7939
vn 0.0001 0.6080 -0.7939
vn -0.0000 -0.0362 -0.9993
vn -0.0000 0.6295 -0.7770
vn -0.0000 -0.0363 -0.9993
vn 0.9964 0.0227 -0.0823
vn 0.7557 -0.6487 -0.0903
vn 0.6203 -0.4908 -0.6118
vn 0.7075 0.0380 -0.7057
vn 0.1588 -0.9713 -0.1770
vn 0.1192 -0.6197 -0.7758
vn 0.6296 -0.4491 -0.6339
vn 0.7727 -0.6204 -0.1342
vn 0.0633 0.0240 -0.9977
vn 0.7015 0.0390 -0.7116
vn 0.6070 -0.4905 -0.6253
vn 0.0739 -0.6478 -0.7582
vn 0.9964 -0.0227 -0.0823
vn 0.7075 -0.0380 -0.7057
vn 0.6203 0.4908 -0.6118
vn 0.7556 0.6487 -0.0903
vn 0.0633 -0.0240 -0.9977
vn 0.0739 0.6478 -0.7582
vn 0.6070 0.4904 -0.6253
vn 0.7015 -0.0390 -0.7116
vn 0.1588 0.9713 -0.1770
vn 0.7727 0.6204 -0.1342
vn 0.6296 0.4491 -0.6339
vn 0.1192 0.6197 -0.7758
vn -0.0002 -0.9782 -0.2077
vn -0.0002 -0.6080 -0.7939
vn -0.0000 -0.6296 -0.7770
vn -0.0000 0.6296 -0.7770
vn 0.0239 0.9838 0.1778
vn 0.0488 0.9870 0.1531
vn 0.3688 0.8204 0.4370
vn 0.0151 0.6375 0.7703
vn 0.0485 0.9976 0.0500
vn 0.0790 0.9952 0.0586
vn 0.3723 0.8496 0.3736
vn 0.0597 0.9945 0.0857
vn 0.1652 0.9860 0.0250
vn 0.7681 0.6400 0.0182
vn 0.4328 0.8219 0.3703
vn 0.1447 0.9883 0.0475
vn 0.9994 -0.0328 0.0051
vn 0.7089 -0.0069 0.7052
vn 0.4208 0.8169 0.3944
vn 0.7713 0.6356 0.0331
vn -0.0017 -0.0350 0.9994
vn 0.0280 0.6335 0.7733
vn 0.3909 0.8163 0.4252
vn 0.7007 -0.0086 0.7134
vn 0.1652 -0.9860 0.0250
vn 0.1447 -0.9883 0.0475
vn 0.4328 -0.8219 0.3703
vn 0.7681 -0.6400 0.0182
vn 0.0485 -0.9976 0.0500
vn 0.0597 -0.9945 0.0857
vn 0.3723 -0.8496 0.3736
vn 0.0790 -0.9952 0.0586
vn 0.0239 -0.9838 0.1778
vn 0.0151 -0.6375 0.7703
vn 0.3688 -0.8204 0.4370
vn 0.0488 -0.9870 0.1531
vn -0.0017 0.0350 0.9994
vn 0.7007 0.0087 0.7134
vn 0.3909 -0.8163 0.4252
vn 0.0280 -0.6335 0.7732
vn 0.9994 0.0328 0.0051
vn 0.7713 -0.6356 0.0331
vn 0.4208 -0.8169 0.3944
vn 0.7089 0.0069 0.7052
vn -0.1608 0.9867 0.0249
vn -0.1423 0.9887 0.0463
vn -0.4328 0.8219 0.3703
vn -0.7682 0.6400 0.0182
vn -0.0482 0.9976 0.0496
vn -0.0597 0.9945 0.0857
vn -0.3723 0.8496 0.3736
vn -0.0766 0.9954 0.0574
vn -0.0239 0.9838 0.1778
vn -0.0151 0.6375 0.7703
vn -0.3688 0.8204 0.4370
vn -0.0488 0.9870 0.1531
vn 0.0017 -0.0350 0.9994
vn -0.7007 -0.0086 0.7134
vn -0.3909 0.8163 0.4251
vn -0.0280 0.6335 0.7732
vn -0.9994 -0.0328 0.0051
vn -0.7713 0.6356 0.0331
vn -0.4207 0.8169 0.3944
vn -0.7089 -0.0069 0.7052
vn -0.0239 -0.9838 0.1778
vn -0.0488 -0.9870 0.1531
vn -0.3688 -0.8204 0.4370
vn -0.0151 -0.6375 0.7703
vn -0.0482 -0.9976 0.0496
vn -0.0766 -0.9954 0.0574
vn -0.3723 -0.8496 0.3736
vn -0.0597 -0.9945 0.0857
vn -0.1608 -0.9867 0.0249
vn -0.7682 -0.6400 0.0182
vn -0.4328 -0.8219 0.3703
vn -0.1423 -0.9887 0.0463
vn -0.9994 0.0328 0.0051
vn -0.7089 0.0069 0.7052
vn -0.4207 -0.8169 0.3944
vn -0.7713 -0.6356 0.0331
vn 0.0017 0.0350 0.9994
vn -0.0280 -0.6335 0.7732
vn -0.3909 -0.8163 0.4251
vn -0.7007 0.0086 0.7134
vn 0.7913 -0.6114 0.0001
vn 0.7753 -0.6316 -0.0000
vn 0.0681 -0.9977 -0.0001
vn 0.0401 -0.9990 -0.0197
vn 0.0401 0.9990 -0.0197
vn -0.1914 -0.9794 0.0648
vn -0.7903 -0.6106 0.0506
vn -0.7743 -0.6308 0.0506
vn -0.9972 0.0362 0.0648
vn -0.0652 -0.9786 0.1951
vn -0.0510 -0.6072 0.7929
vn -0.0510 -0.6287 0.7760
vn -0.0652 0.0389 0.9971
vn -0.0617 -0.0652 0.9960
vn -0.0617 0.0652 0.9960
vn -0.7037 0.0510 0.7087
vn -0.7037 -0.0510 0.7087
vn -0.9955 0.0652 0.0683
vn -0.9955 -0.0652 0.0683
vn 0.0196 -0.9990 -0.0399
vn -0.9972 -0.0362 0.0648
vn -0.7743 0.6308 0.0506
vn -0.7903 0.6106 0.0506
vn -0.1914 0.9794 0.0648
vn -0.0652 -0.0389 0.9971
vn -0.0510 0.6287 0.7760
vn -0.0510 0.6072 0.7929
vn -0.0652 0.9786 0.1951
vn 0.9977 -0.0682 -0.0050
vn 0.9977 0.0682 -0.0050
vn 0.7015 0.0929 -0.7065
vn 0.7015 -0.0929 -0.7065
vn 0.7016 -0.0929 -0.7065
vn 0.7016 0.0929 -0.7065
vn -0.0023 0.0682 -0.9977
vn -0.0023 -0.0682 -0.9977
vn 0.0196 0.9990 -0.0399
vn 0.9955 -0.0652 0.0683
vn 0.9955 0.0652 0.0683
vn 0.7037 0.0510 0.7087
vn 0.7037 -0.0510 0.7087
vn 0.0576 0.0654 0.9962
vn 0.0576 -0.0654 0.9962
vn 0.9972 0.0362 0.0648
vn 0.7742 -0.6309 0.0506
vn 0.7903 -0.6106 0.0506
vn 0.1873 -0.9802 0.0650
vn 0.1873 0.9802 0.0650
vn 0.7903 0.6106 0.0506
vn 0.7742 0.6309 0.0506
vn 0.9972 -0.0362 0.0648
vn -0.0377 -0.9991 -0.0185
vn -0.0377 0.9991 -0.0185
vn 0.0012 0.0362 -0.9993
vn -0.0012 0.0362 -0.9993
vn -0.0008 -0.6299 -0.7767
vn 0.0008 -0.6299 -0.7767
vn 0.0008 -0.6084 -0.7936
vn -0.0008 -0.6084 -0.7936
vn -0.0001 -0.9801 -0.1983
vn -0.0000 -0.9801 -0.1983
vn 0.0610 0.0388 0.9974
vn 0.0476 -0.6288 0.7761
vn 0.0476 -0.6073 0.7931
vn 0.0611 -0.9788 0.1954
vn 0.0001 0.9801 -0.1983
vn -0.0000 0.9801 -0.1983
vn -0.0008 0.6084 -0.7936
vn 0.0008 0.6084 -0.7936
vn 0.0008 0.6299 -0.7767
vn -0.0008 0.6299 -0.7767
vn -0.0012 -0.0362 -0.9993
vn 0.0012 -0.0362 -0.9993
vn 0.0611 0.9788 0.1954
vn 0.0476 0.6073 0.7931
vn 0.0476 0.6288 0.7761
vn 0.0610 -0.0388 0.9974
vn -0.0196 0.9990 -0.0399
vn -0.9977 0.0682 -0.0050
vn -0.9977 -0.0682 -0.0050
vn -0.7016 -0.0928 -0.7065
vn -0.7016 0.0928 -0.7065
vn -0.7016 0.0929 -0.7065
vn -0.7016 -0.0929 -0.7065
vn 0.0023 -0.0682 -0.9977
vn 0.0023 0.0682 -0.9977
vn -0.0196 -0.9990 -0.0399
vn -0.0652 0.0390 -0.9971
vn -0.0510 -0.6287 -0.7760
vn -0.0510 -0.6072 -0.7929
vn -0.0000 -0.6080 -0.7940
vn -0.0648 -0.9768 -0.2042
vn -0.9949 -0.0648 -0.0776
vn -0.9949 0.0648 -0.0776
vn -0.7037 0.0510 -0.7087
vn -0.7037 -0.0510 -0.7087
vn -0.0617 0.0652 -0.9960
vn -0.0617 -0.0652 -0.9960
vn -0.0648 0.9768 -0.2042
vn -0.0000 0.6080 -0.7940
vn -0.0510 0.6072 -0.7929
vn -0.0510 0.6287 -0.7760
vn 0.0001 0.6295 -0.7770
vn -0.0652 -0.0390 -0.9971
vn 0.0576 -0.0654 -0.9962
vn 0.0576 0.0654 -0.9962
vn 0.7037 0.0510 -0.7087
vn 0.7037 -0.0510 -0.7087
vn 0.9949 0.0648 -0.0776
vn 0.9949 -0.0648 -0.0776
vn 0.0610 0.0388 -0.9974
vn 0.0476 -0.6288 -0.7761
vn 0.0476 -0.6073 -0.7931
vn 0.0607 -0.9770 -0.2045
vn 0.0607 0.9770 -0.2045
vn 0.0476 0.6073 -0.7931
vn 0.0476 0.6288 -0.7761
vn 0.0610 -0.0388 -0.9974
vn 0.0222 0.9987 0.0452
vn -0.9966 0.0366 -0.0740
vn -0.7739 -0.6306 -0.0581
vn -0.7900 -0.6104 -0.0581
vn -0.1909 -0.9788 -0.0740
vn 0.9994 0.0335 0.0014
vn 0.9994 0.0335 -0.0014
vn 0.7749 -0.6321 -0.0010
vn 0.7749 -0.6321 0.0010
vn 0.7909 -0.6119 0.0010
vn 0.7909 -0.6119 -0.0010
vn 0.1944 -0.9809 -0.0001
vn 0.1944 -0.9809 -0.0000
vn 0.9966 -0.0366 -0.0740
vn 0.7739 0.6306 -0.0581
vn 0.7900 0.6104 -0.0581
vn 0.1868 0.9796 -0.0742
vn -0.9994 -0.0334 0.0014
vn -0.9994 -0.0334 -0.0014
vn -0.7749 0.6321 -0.0010
vn -0.7749 0.6321 0.0010
vn -0.7909 0.6119 0.0010
vn -0.7909 0.6119 -0.0010
vn -0.1902 0.9818 -0.0001
vn -0.1902 0.9818 -0.0000
vn -0.0222 -0.9987 0.0452
vn 0.1903 -0.9817 -0.0000
vn 0.9994 -0.0335 -0.0014
vn 0.9994 -0.0335 0.0014
vn 0.7749 0.6321 0.0010
vn 0.7749 0.6321 -0.0010
vn 0.7909 0.6119 -0.0010
vn 0.7909 0.6119 0.0010
vn 0.1944 0.9809 0.0001
vn 0.1944 0.9809 -0.0000
vn -0.9966 -0.0366 -0.0740
vn -0.7739 0.6306 -0.0581
vn -0.7900 0.6104 -0.0581
vn -0.1909 0.9788 -0.0740
vn 0.0222 -0.9987 0.0452
vn -0.0023 -0.0682 0.9977
vn -0.0023 0.0682 0.9977
vn 0.7016 0.0929 0.7065
vn 0.7016 -0.0929 0.7065
vn 0.7015 -0.0929 0.7065
vn 0.7015 0.0929 0.7065
vn 0.9977 0.0682 0.0050
vn 0.9977 -0.0682 0.0050
vn 0.0401 0.9990 0.0197
vn 0.0401 -0.9990 0.0197
vn 0.0681 -0.9977 0.0001
vn -0.0222 0.9987 0.0452
vn -0.9994 0.0334 -0.0014
vn -0.9994 0.0334 0.0014
vn -0.7748 -0.6322 0.0010
vn -0.7748 -0.6322 -0.0010
vn -0.7909 -0.6119 -0.0010
vn -0.7909 -0.6119 0.0010
vn -0.1902 -0.9818 0.0001
vn -0.1902 -0.9818 -0.0000
vn 0.9966 0.0366 -0.0740
vn 0.7739 -0.6306 -0.0581
vn 0.7900 -0.6104 -0.0581
vn 0.1868 -0.9796 -0.0742
vn 0.0023 0.0682 0.9977
vn 0.0023 -0.0682 0.9977
vn -0.7016 -0.0929 0.7065
vn -0.7016 0.0929 0.7065
vn -0.7016 0.0928 0.7065
vn -0.7016 -0.0928 0.7065
vn -0.9977 -0.0682 0.0050
vn -0.9977 0.0682 0.0050
vn -0.0055 -1.0000 0.0055
vn -0.0377 -0.9991 0.0185
vn -0.0055 1.0000 0.0055
vn -0.0377 0.9991 0.0185
vn -0.0012 0.0362 0.9993
vn 0.0012 0.0362 0.9993
vn 0.0008 -0.6299 0.7767
vn -0.0008 -0.6299 0.7767
vn -0.0008 -0.6084 0.7936
vn 0.0008 -0.6084 0.7936
vn 0.0001 -0.9782 0.2076
vn -0.0000 -0.9782 0.2076
vn -0.0001 0.9782 0.2076
vn -0.0000 0.9782 0.2076
vn 0.0008 0.6084 0.7936
vn -0.0008 0.6084 0.7936
vn -0.0008 0.6299 0.7767
vn 0.0008 0.6299 0.7767
vn 0.0012 -0.0362 0.9993
vn -0.0012 -0.0362 0.9993
vt 0.168725 0.246850
vt 0.382057 0.246850
vt 0.382057 0.460182
vt 0.168725 0.460182
s 0
f 154/1/1 170/2/2 202/3/2 193/4/1
f 64/1/3 50/2/4 119/3/4 136/4/3
f 4/1/5 21/2/6 223/3/6 231/4/5
f 129/1/7 138/2/8 82/3/9 98/4/10
f 32/1/11 65/2/8 139/3/8 128/4/12
f 49/1/13 13/2/14 107/3/15 116/4/13
f 117/1/13 106/2/16 87/3/17 74/4/18
f 169/1/19 209/2/20 260/3/21 203/4/19
f 90/1/22 99/2/23 81/3/24 75/4/25
f 96/1/23 89/2/22 283/3/22 251/4/23
f 43/1/26 51/2/4 67/3/3 57/4/27
f 137/1/3 118/2/4 73/3/28 80/4/29
f 24/1/30 30/2/31 211/3/32 220/4/30
f 34/1/33 11/2/34 242/3/35 212/4/36
f 232/1/5 222/2/6 161/3/37 146/4/38
f 281/1/17 270/2/39 191/3/40 178/4/41
f 213/1/42 241/2/43 273/3/44 261/4/45
f 259/1/46 249/2/10 186/3/47 200/4/19
f 194/1/1 201/2/2 185/3/48 179/4/49
f 239/1/50 229/2/51 145/3/52 152/4/40
f 221/1/30 210/2/53 168/3/19 162/4/54
f 12/1/55 33/2/56 127/3/57 108/4/58
f 22/1/6 3/2/5 41/3/59 59/4/60
f 31/1/61 23/2/30 58/3/62 66/4/8
f 2/1/51 14/2/63 48/3/13 42/4/64
f 163/1/65 171/2/2 153/3/1 147/4/66
f 88/1/17 105/2/67 271/3/68 280/4/17
f 125/1/69 97/2/10 250/3/10 258/4/70
f 109/1/71 126/2/72 262/3/73 272/4/74
f 252/1/23 282/2/22 177/3/75 184/4/76
f 269/1/77 240/2/78 155/3/40 192/4/40
f 1/1/79 5/2/79 6/3/80 9/4/80
f 2/1/79 7/2/80 6/3/80 5/4/79
f 3/1/81 8/2/81 6/3/82 7/4/82
f 4/1/81 9/2/82 6/3/82 8/4/81
f 10/1/83 15/2/84 16/3/85 20/4/86
f 11/1/87 17/2/88 16/3/89 15/4/90
f 12/1/91 18/2/92 16/3/93 17/4/94
f 13/1/95 19/2/96 16/3/97 18/4/98
f 14/1/99 20/2/100 16/3/101 19/4/102
f 21/1/103 25/2/103 26/3/104 29/4/104
f 22/1/103 27/2/104 26/3/104 25/4/103
f 23/1/105 28/2/105 26/3/106 27/4/106
f 24/1/105 29/2/106 26/3/106 28/4/105
f 30/1/107 35/2/108 36/3/109 40/4/110
f 31/1/111 37/2/112 36/3/113 35/4/114
f 32/1/115 38/2/116 36/3/117 37/4/118
f 33/1/119 39/2/120 36/3/121 38/4/122
f 34/1/123 40/2/124 36/3/125 39/4/126
f 41/1/127 44/2/128 45/3/129 47/4/130
f 42/1/131 46/2/132 45/3/133 44/4/134
f 43/1/135 47/2/136 45/3/137 46/4/138
f 48/1/139 52/2/139 53/3/140 56/4/140
f 49/1/139 54/2/140 53/3/140 52/4/139
f 50/1/141 55/2/141 53/3/142 54/4/142
f 51/1/141 56/2/142 53/3/142 55/4/141
f 57/1/143 60/2/144 61/3/145 63/4/146
f 58/1/147 62/2/148 61/3/149 60/4/150
f 59/1/151 63/2/152 61/3/153 62/4/154
f 64/1/155 68/2/156 69/3/156 72/4/155
f 65/1/157 70/2/157 69/3/158 68/4/158
f 66/1/157 71/2/158 69/3/158 70/4/157
f 67/1/155 72/2/155 69/3/156 71/4/156
f 73/1/159 76/2/160 77/3/161 79/4/162
f 74/1/163 78/2/164 77/3/165 76/4/166
f 75/1/167 79/2/168 77/3/169 78/4/170
f 80/1/171 83/2/172 84/3/173 86/4/174
f 81/1/175 85/2/176 84/3/177 83/4/178
f 82/1/179 86/2/180 84/3/181 85/4/182
f 87/1/183 91/2/183 92/3/184 95/4/184
f 88/1/185 93/2/184 92/3/184 91/4/183
f 89/1/186 94/2/186 92/3/187 93/4/187
f 90/1/188 95/2/187 92/3/187 94/4/186
f 96/1/189 100/2/190 101/3/191 104/4/189
f 97/1/192 102/2/192 101/3/193 100/4/193
f 98/1/192 103/2/193 101/3/193 102/4/192
f 99/1/189 104/2/189 101/3/190 103/4/190
f 105/1/194 110/2/195 111/3/196 115/4/197
f 106/1/198 112/2/199 111/3/200 110/4/201
f 107/1/202 113/2/203 111/3/204 112/4/205
f 108/1/206 114/2/207 111/3/208 113/4/209
f 109/1/210 115/2/211 111/3/212 114/4/213
f 116/1/139 120/2/139 121/3/140 124/4/140
f 117/1/139 122/2/140 121/3/140 120/4/139
f 118/1/214 123/2/214 121/3/215 122/4/215
f 119/1/214 124/2/142 121/3/142 123/4/214
f 125/1/216 130/2/217 131/3/218 135/4/219
f 126/1/220 132/2/221 131/3/222 130/4/223
f 127/1/224 133/2/225 131/3/226 132/4/227
f 128/1/228 134/2/229 131/3/230 133/4/231
f 129/1/232 135/2/233 131/3/234 134/4/235
f 136/1/236 140/2/236 141/3/156 144/4/156
f 137/1/236 142/2/237 141/3/237 140/4/236
f 138/1/157 143/2/157 141/3/158 142/4/158
f 139/1/157 144/2/158 141/3/158 143/4/157
f 145/1/238 148/2/239 149/3/240 151/4/241
f 146/1/242 150/2/243 149/3/244 148/4/245
f 147/1/246 151/2/247 149/3/248 150/4/249
f 152/1/250 156/2/251 157/3/251 160/4/250
f 153/1/252 158/2/252 157/3/253 156/4/253
f 154/1/254 159/2/253 157/3/253 158/4/255
f 155/1/250 160/2/256 157/3/251 159/4/251
f 161/1/257 164/2/258 165/3/259 167/4/260
f 162/1/261 166/2/262 165/3/263 164/4/264
f 163/1/265 167/2/266 165/3/267 166/4/268
f 168/1/269 172/2/270 173/3/271 176/4/272
f 169/1/269 174/2/271 173/3/271 172/4/269
f 170/1/273 175/2/273 173/3/274 174/4/274
f 171/1/273 176/2/274 173/3/274 175/4/275
f 177/1/276 180/2/277 181/3/278 183/4/279
f 178/1/280 182/2/281 181/3/282 180/4/283
f 179/1/284 183/2/285 181/3/286 182/4/287
f 184/1/288 187/2/289 188/3/290 190/4/291
f 185/1/292 189/2/293 188/3/294 187/4/295
f 186/1/296 190/2/297 188/3/298 189/4/299
f 191/1/250 195/2/300 196/3/251 199/4/301
f 192/1/250 197/2/251 196/3/251 195/4/250
f 193/1/255 198/2/255 196/3/253 197/4/253
f 194/1/252 199/2/253 196/3/302 198/4/252
f 200/1/269 204/2/271 205/3/271 208/4/269
f 201/1/273 206/2/273 205/3/303 204/4/274
f 202/1/275 207/2/274 205/3/274 206/4/275
f 203/1/269 208/2/269 205/3/271 207/4/271
f 209/1/304 214/2/305 215/3/306 219/4/307
f 210/1/308 216/2/309 215/3/310 214/4/311
f 211/1/312 217/2/313 215/3/314 216/4/315
f 212/1/316 218/2/317 215/3/318 217/4/319
f 213/1/320 219/2/321 215/3/322 218/4/323
f 220/1/105 224/2/105 225/3/106 228/4/106
f 221/1/105 226/2/106 225/3/106 224/4/105
f 222/1/103 227/2/103 225/3/104 226/4/104
f 223/1/103 228/2/104 225/3/104 227/4/103
f 229/1/79 233/2/79 234/3/80 237/4/80
f 230/1/79 235/2/80 234/3/80 233/4/79
f 231/1/81 236/2/81 234/3/82 235/4/82
f 232/1/81 237/2/82 234/3/82 236/4/81
f 238/1/324 243/2/325 244/3/326 248/4/327
f 239/1/328 245/2/329 244/3/330 243/4/331
f 240/1/332 246/2/333 244/3/334 245/4/335
f 241/1/336 247/2/337 244/3/338 246/4/339
f 242/1/340 248/2/341 244/3/342 247/4/343
f 249/1/192 253/2/192 254/3/193 257/4/193
f 250/1/192 255/2/193 254/3/193 253/4/192
f 251/1/189 256/2/189 254/3/191 255/4/191
f 252/1/189 257/2/190 254/3/190 256/4/189
f 258/1/344 263/2/345 264/3/346 268/4/347
f 259/1/348 265/2/349 264/3/350 263/4/351
f 260/1/352 266/2/353 264/3/354 265/4/355
f 261/1/356 267/2/357 264/3/358 266/4/359
f 262/1/360 268/2/361 264/3/362 267/4/363
f 269/1/364 274/2/365 275/3/366 279/4/367
f 270/1/368 276/2/369 275/3/370 274/4/371
f 271/1/372 277/2/373 275/3/374 276/4/375
f 272/1/376 278/2/377 275/3/378 277/4/379
f 273/1/380 279/2/381 275/3/382 278/4/383
f 280/1/183 284/2/185 285/3/184 288/4/184
f 281/1/183 286/2/184 285/3/384 284/4/183
f 282/1/186 287/2/186 285/3/187 286/4/187
f 283/1/186 288/2/187 285/3/385 287/4/186
f 1/1/51 10/2/386 20/3/387 5/4/51
f 5/1/51 20/2/387 14/3/63 2/4/51
f 3/1/5 22/2/6 25/3/6 8/4/5
f 8/1/5 25/2/6 21/3/6 4/4/5
f 23/1/30 31/2/61 35/3/388 28/4/30
f 28/1/30 35/2/388 30/3/31 24/4/30
f 2/1/79 42/2/389 44/3/390 7/4/80
f 7/1/82 44/2/391 41/3/392 3/4/81
f 42/1/393 48/2/139 56/3/140 46/4/394
f 46/1/395 56/2/142 51/3/141 43/4/396
f 43/1/397 57/2/398 63/3/399 47/4/400
f 47/1/400 63/2/399 59/3/401 41/4/402
f 50/1/4 64/2/3 72/3/3 55/4/4
f 55/1/4 72/2/3 67/3/3 51/4/4
f 13/1/14 49/2/13 52/3/13 19/4/403
f 19/1/403 52/2/13 48/3/13 14/4/63
f 22/1/103 59/2/404 62/3/405 27/4/104
f 27/1/106 62/2/406 58/3/407 23/4/105
f 57/1/408 67/2/155 71/3/156 60/4/409
f 60/1/410 71/2/158 66/3/157 58/4/411
f 11/1/412 34/2/413 39/3/414 17/4/415
f 17/1/416 39/2/417 33/3/418 12/4/419
f 31/1/61 66/2/8 70/3/8 37/4/420
f 37/1/420 70/2/8 65/3/8 32/4/11
f 75/1/421 81/2/422 83/3/423 79/4/424
f 79/1/424 83/2/423 80/3/425 73/4/426
f 90/1/186 75/2/427 78/3/428 95/4/187
f 95/1/184 78/2/429 74/3/430 87/4/183
f 89/1/22 96/2/23 104/3/23 94/4/22
f 94/1/22 104/2/23 99/3/23 90/4/22
f 98/1/192 82/2/431 85/3/432 103/4/193
f 103/1/190 85/2/433 81/3/434 99/4/189
f 105/1/67 88/2/17 91/3/17 110/4/435
f 110/1/435 91/2/17 87/3/17 106/4/16
f 119/1/141 50/2/141 54/3/142 124/4/142
f 124/1/140 54/2/140 49/3/139 116/4/139
f 129/1/7 98/2/10 102/3/10 135/4/436
f 135/1/436 102/2/10 97/3/10 125/4/69
f 139/1/157 65/2/157 68/3/158 144/4/158
f 144/1/156 68/2/156 64/3/155 136/4/155
f 12/1/437 108/2/438 113/3/439 18/4/440
f 18/1/441 113/2/442 107/3/443 13/4/444
f 73/1/445 118/2/141 122/3/142 76/4/446
f 76/1/447 122/2/140 117/3/139 74/4/448
f 32/1/449 128/2/450 133/3/451 38/4/452
f 38/1/453 133/2/454 127/3/455 33/4/456
f 82/1/457 138/2/157 142/3/158 86/4/458
f 86/1/459 142/2/156 137/3/155 80/4/460
f 138/1/8 129/2/7 134/3/461 143/4/8
f 143/1/8 134/2/461 128/3/12 139/4/8
f 118/1/4 137/2/3 140/3/3 123/4/4
f 123/1/4 140/2/3 136/3/3 119/4/4
f 126/1/462 109/2/463 114/3/464 132/4/465
f 132/1/466 114/2/467 108/3/468 127/4/469
f 106/1/16 117/2/13 120/3/13 112/4/470
f 112/1/470 120/2/13 116/3/13 107/4/15
f 147/1/471 153/2/255 156/3/253 151/4/472
f 151/1/473 156/2/474 152/3/250 145/4/475
f 146/1/476 161/2/477 167/3/478 150/4/479
f 150/1/479 167/2/478 163/3/480 147/4/481
f 162/1/482 168/2/269 176/3/483 166/4/484
f 166/1/485 176/2/486 171/3/275 163/4/487
f 153/1/1 171/2/2 175/3/2 158/4/1
f 158/1/1 175/2/2 170/3/2 154/4/1
f 179/1/488 185/2/489 187/3/490 183/4/491
f 183/1/491 187/2/490 184/3/492 177/4/493
f 194/1/255 179/2/494 182/3/495 199/4/253
f 199/1/474 182/2/496 178/3/497 191/4/250
f 200/1/269 186/2/498 189/3/499 204/4/483
f 204/1/274 189/2/500 185/3/501 201/4/275
f 201/1/2 194/2/1 198/3/1 206/4/2
f 206/1/2 198/2/1 193/3/1 202/4/2
f 209/1/20 169/2/19 172/3/19 214/4/502
f 214/1/502 172/2/19 168/3/19 210/4/53
f 223/1/103 21/2/103 29/3/104 228/4/104
f 228/1/106 29/2/106 24/3/105 220/4/105
f 232/1/81 146/2/503 148/3/504 237/4/82
f 237/1/80 148/2/505 145/3/506 229/4/79
f 242/1/507 11/2/508 15/3/509 248/4/510
f 248/1/511 15/2/512 10/3/513 238/4/514
f 252/1/189 184/2/515 190/3/516 257/4/190
f 257/1/193 190/2/517 186/3/518 249/4/192
f 262/1/519 126/2/520 130/3/521 268/4/522
f 268/1/523 130/2/524 125/3/525 258/4/526
f 269/1/77 192/2/40 195/3/40 274/4/527
f 274/1/527 195/2/40 191/3/40 270/4/39
f 283/1/186 89/2/186 93/3/187 288/4/187
f 288/1/184 93/2/184 88/3/528 280/4/528
f 34/1/529 212/2/530 217/3/531 40/4/532
f 40/1/533 217/2/534 211/3/535 30/4/536
f 161/1/537 222/2/103 226/3/104 164/4/538
f 164/1/539 226/2/106 221/3/105 162/4/540
f 4/1/81 231/2/81 235/3/82 9/4/82
f 9/1/80 235/2/80 230/3/79 1/4/79
f 155/1/40 240/2/78 245/3/541 160/4/40
f 160/1/40 245/2/541 239/3/50 152/4/40
f 241/1/542 213/2/543 218/3/544 247/4/545
f 247/1/546 218/2/547 212/3/548 242/4/549
f 222/1/6 232/2/5 236/3/5 227/4/6
f 227/1/6 236/2/5 231/3/5 223/4/6
f 210/1/53 221/2/30 224/3/30 216/4/550
f 216/1/550 224/2/30 220/3/30 211/4/32
f 229/1/51 239/2/50 243/3/551 233/4/51
f 233/1/51 243/2/551 238/3/552 230/4/51
f 96/1/189 251/2/189 255/3/191 100/4/190
f 100/1/193 255/2/193 250/3/192 97/4/192
f 203/1/19 260/2/21 265/3/553 208/4/19
f 208/1/19 265/2/553 259/3/46 200/4/19
f 109/1/554 272/2/555 277/3/556 115/4/557
f 115/1/558 277/2/559 271/3/560 105/4/561
f 177/1/562 282/2/186 286/3/187 180/4/563
f 180/1/564 286/2/184 281/3/183 178/4/565
f 261/1/566 273/2/567 278/3/568 267/4/569
f 267/1/570 278/2/571 272/3/572 262/4/573
f 282/1/22 252/2/23 256/3/23 287/4/22
f 287/1/22 256/2/23 251/3/23 283/4/22
f 270/1/574 281/2/17 284/3/17 276/4/575
f 276/1/575 284/2/17 280/3/17 271/4/68
f 249/1/10 259/2/576 263/3/577 253/4/10
f 253/1/10 263/2/577 258/3/70 250/4/10
f 273/1/578 241/2/579 246/3/580 279/4/581
f 279/1/582 246/2/583 240/3/584 269/4/585
f 192/1/250 155/2/250 159/3/474 197/4/474
f 197/1/253 159/2/253 154/3/255 193/4/255
f 260/1/586 209/2/587 219/3/588 266/4/589
f 266/1/590 219/2/591 213/3/592 261/4/593
f 202/1/275 170/2/275 174/3/274 207/4/274
f 207/1/483 174/2/483 169/3/269 203/4/269
f 10/1/386 1/2/51 230/3/51 238/4/552
