# Blender 4.0.0
# www.blender.org
o Microwave011_Handle
v 0.143457 -0.138236 0.019001
v 0.143606 -0.138236 0.020129
v 0.143569 -0.138172 0.019523
v 0.142713 -0.137978 0.018833
v 0.143122 -0.138043 0.018875
v 0.143606 -0.139268 0.018547
v 0.143569 -0.138688 0.018732
v 0.143606 -0.142361 0.040865
v 0.143903 -0.143662 0.040635
v 0.143829 -0.142903 0.040769
v 0.142713 -0.141927 0.040941
v 0.143234 -0.142036 0.040922
v 0.143457 -0.138236 0.245046
v 0.143606 -0.139268 0.245500
v 0.143568 -0.138688 0.245315
v 0.142713 -0.137978 0.245215
v 0.143122 -0.138043 0.245172
v 0.143606 -0.138236 0.243919
v 0.143568 -0.138172 0.244525
v 0.143457 -0.142238 0.245933
v 0.143606 -0.141120 0.245911
v 0.143568 -0.141722 0.245988
v 0.143606 -0.142667 0.244901
v 0.143568 -0.142495 0.245483
v 0.142713 -0.142410 0.246197
v 0.143122 -0.142367 0.246131
v 0.143606 -0.146831 0.223971
v 0.143903 -0.145529 0.223741
v 0.143829 -0.146288 0.223875
v 0.142713 -0.147264 0.224047
v 0.143234 -0.147156 0.224028
v 0.143457 -0.142238 0.018114
v 0.143606 -0.141120 0.018137
v 0.143569 -0.141722 0.018059
v 0.142713 -0.142410 0.017850
v 0.143122 -0.142367 0.017916
v 0.143606 -0.142667 0.019146
v 0.143569 -0.142495 0.018564
v 0.118153 -0.138236 0.019001
v 0.118004 -0.139268 0.018547
v 0.118041 -0.138688 0.018732
v 0.118896 -0.137978 0.018833
v 0.118487 -0.138043 0.018875
v 0.118004 -0.138236 0.020129
v 0.118041 -0.138172 0.019523
v 0.118153 -0.142238 0.018114
v 0.118004 -0.141120 0.018137
v 0.118041 -0.141722 0.018059
v 0.118004 -0.142667 0.019146
v 0.118041 -0.142495 0.018564
v 0.118896 -0.142410 0.017850
v 0.118487 -0.142367 0.017916
v 0.118004 -0.146831 0.040077
v 0.117707 -0.145529 0.040306
v 0.117781 -0.146288 0.040172
v 0.118896 -0.147264 0.040000
v 0.118376 -0.147156 0.040019
v 0.118153 -0.142238 0.245933
v 0.118004 -0.141120 0.245911
v 0.118041 -0.141722 0.245988
v 0.118896 -0.142410 0.246197
v 0.118487 -0.142367 0.246131
v 0.118004 -0.142667 0.244901
v 0.118041 -0.142495 0.245483
v 0.118153 -0.138236 0.245046
v 0.118004 -0.139268 0.245500
v 0.118041 -0.138688 0.245315
v 0.118004 -0.138236 0.243919
v 0.118041 -0.138172 0.244525
v 0.118896 -0.137978 0.245215
v 0.118487 -0.138043 0.245172
v 0.118004 -0.142361 0.223183
v 0.117707 -0.143662 0.223412
v 0.117781 -0.142903 0.223278
v 0.118896 -0.141927 0.223106
v 0.118376 -0.142036 0.223125
v 0.143606 -0.145845 0.063502
v 0.143903 -0.147155 0.063330
v 0.143829 -0.146391 0.063430
v 0.142713 -0.145409 0.063560
v 0.143234 -0.145518 0.063545
v 0.143606 -0.148339 0.086270
v 0.143903 -0.149655 0.086155
v 0.143829 -0.148887 0.086222
v 0.142713 -0.147900 0.086309
v 0.143234 -0.148010 0.086299
v 0.143606 -0.149837 0.109125
v 0.143903 -0.151157 0.109067
v 0.143829 -0.150387 0.109101
v 0.142713 -0.149397 0.109144
v 0.143234 -0.149507 0.109140
v 0.143606 -0.150336 0.132024
v 0.143903 -0.151658 0.132024
v 0.143829 -0.150887 0.132024
v 0.142713 -0.149896 0.132024
v 0.143234 -0.150006 0.132024
v 0.143606 -0.149837 0.154922
v 0.143903 -0.151157 0.154980
v 0.143829 -0.150387 0.154946
v 0.142713 -0.149397 0.154903
v 0.143234 -0.149507 0.154908
v 0.143606 -0.148339 0.177777
v 0.143903 -0.149655 0.177892
v 0.143829 -0.148887 0.177825
v 0.142713 -0.147900 0.177739
v 0.143234 -0.148010 0.177748
v 0.143606 -0.145845 0.200545
v 0.143903 -0.147155 0.200718
v 0.143829 -0.146391 0.200617
v 0.142713 -0.145409 0.200488
v 0.143234 -0.145518 0.200502
v 0.143606 -0.142361 0.223183
v 0.143903 -0.143662 0.223412
v 0.143829 -0.142903 0.223278
v 0.142713 -0.141927 0.223106
v 0.143234 -0.142036 0.223125
v 0.143606 -0.150345 0.201137
v 0.143903 -0.149035 0.200965
v 0.143829 -0.149799 0.201066
v 0.142713 -0.150782 0.201195
v 0.143234 -0.150673 0.201181
v 0.143606 -0.152860 0.178173
v 0.143903 -0.151544 0.178058
v 0.143829 -0.152312 0.178125
v 0.142713 -0.153299 0.178211
v 0.143234 -0.153189 0.178202
v 0.143606 -0.154371 0.155120
v 0.143903 -0.153051 0.155063
v 0.143829 -0.153821 0.155096
v 0.142713 -0.154811 0.155139
v 0.143234 -0.154701 0.155135
v 0.143606 -0.154875 0.132024
v 0.143903 -0.153554 0.132024
v 0.143829 -0.154324 0.132024
v 0.142713 -0.155315 0.132024
v 0.143234 -0.155205 0.132024
v 0.143606 -0.154371 0.108927
v 0.143903 -0.153051 0.108985
v 0.143829 -0.153821 0.108951
v 0.142713 -0.154811 0.108908
v 0.143234 -0.154701 0.108913
v 0.143606 -0.152860 0.085875
v 0.143903 -0.151544 0.085990
v 0.143829 -0.152312 0.085923
v 0.142713 -0.153299 0.085836
v 0.143234 -0.153189 0.085846
v 0.143606 -0.150345 0.062910
v 0.143903 -0.149035 0.063082
v 0.143829 -0.149799 0.062982
v 0.142713 -0.150782 0.062852
v 0.143234 -0.150672 0.062867
v 0.143606 -0.146831 0.040077
v 0.143903 -0.145529 0.040306
v 0.143829 -0.146288 0.040172
v 0.142713 -0.147264 0.040000
v 0.143234 -0.147156 0.040019
v 0.118004 -0.150345 0.062910
v 0.117707 -0.149035 0.063082
v 0.117781 -0.149799 0.062982
v 0.118896 -0.150782 0.062852
v 0.118376 -0.150672 0.062867
v 0.118004 -0.152860 0.085875
v 0.117707 -0.151544 0.085990
v 0.117781 -0.152312 0.085923
v 0.118896 -0.153299 0.085836
v 0.118376 -0.153189 0.085846
v 0.118004 -0.154371 0.108927
v 0.117707 -0.153051 0.108985
v 0.117781 -0.153821 0.108951
v 0.118896 -0.154811 0.108908
v 0.118376 -0.154701 0.108913
v 0.118004 -0.154875 0.132024
v 0.117707 -0.153554 0.132024
v 0.117781 -0.154324 0.132024
v 0.118896 -0.155315 0.132024
v 0.118376 -0.155205 0.132024
v 0.118004 -0.154371 0.155120
v 0.117707 -0.153051 0.155063
v 0.117781 -0.153821 0.155096
v 0.118896 -0.154811 0.155139
v 0.118376 -0.154701 0.155135
v 0.118004 -0.152860 0.178173
v 0.117707 -0.151544 0.178058
v 0.117781 -0.152312 0.178125
v 0.118896 -0.153299 0.178211
v 0.118376 -0.153189 0.178202
v 0.118004 -0.150345 0.201137
v 0.117707 -0.149035 0.200965
v 0.117781 -0.149799 0.201066
v 0.118896 -0.150782 0.201195
v 0.118376 -0.150673 0.201181
v 0.118004 -0.146831 0.223971
v 0.117707 -0.145529 0.223741
v 0.117781 -0.146288 0.223875
v 0.118896 -0.147264 0.224047
v 0.118376 -0.147156 0.224028
v 0.118004 -0.145845 0.200545
v 0.117707 -0.147155 0.200718
v 0.117781 -0.146391 0.200617
v 0.118896 -0.145409 0.200488
v 0.118376 -0.145518 0.200502
v 0.118004 -0.148339 0.177777
v 0.117707 -0.149655 0.177892
v 0.117781 -0.148887 0.177825
v 0.118896 -0.147900 0.177739
v 0.118376 -0.148010 0.177748
v 0.118004 -0.149837 0.154922
v 0.117707 -0.151157 0.154980
v 0.117781 -0.150387 0.154946
v 0.118896 -0.149397 0.154903
v 0.118376 -0.149507 0.154908
v 0.118004 -0.150336 0.132024
v 0.117707 -0.151658 0.132024
v 0.117781 -0.150887 0.132024
v 0.118896 -0.149896 0.132024
v 0.118376 -0.150006 0.132024
v 0.118004 -0.149837 0.109125
v 0.117707 -0.151157 0.109067
v 0.117781 -0.150387 0.109101
v 0.118896 -0.149397 0.109144
v 0.118376 -0.149507 0.109140
v 0.118004 -0.148339 0.086270
v 0.117707 -0.149655 0.086155
v 0.117781 -0.148887 0.086222
v 0.118896 -0.147900 0.086309
v 0.118376 -0.148010 0.086299
v 0.118004 -0.145845 0.063502
v 0.117707 -0.147155 0.063330
v 0.117781 -0.146391 0.063430
v 0.118896 -0.145409 0.063560
v 0.118376 -0.145518 0.063545
v 0.118004 -0.142361 0.040865
v 0.117707 -0.143662 0.040635
v 0.117781 -0.142903 0.040769
v 0.118896 -0.141927 0.040941
v 0.118376 -0.142036 0.040922
v 0.142713 -0.139182 0.018115
v 0.143234 -0.139204 0.018223
v 0.142713 -0.138451 0.018390
v 0.143197 -0.138527 0.018486
v 0.142713 -0.141034 0.017705
v 0.142713 -0.141808 0.017646
v 0.143234 -0.141055 0.017812
v 0.143197 -0.141776 0.017766
v 0.118896 -0.141034 0.017705
v 0.118376 -0.141055 0.017812
v 0.118896 -0.141808 0.017646
v 0.118413 -0.141776 0.017766
v 0.118896 -0.139182 0.018115
v 0.118896 -0.138451 0.018390
v 0.118376 -0.139204 0.018223
v 0.118413 -0.138527 0.018486
v 0.142713 -0.141034 0.246343
v 0.143234 -0.141055 0.246235
v 0.142713 -0.141808 0.246402
v 0.143197 -0.141776 0.246282
v 0.142713 -0.139182 0.245932
v 0.142713 -0.138451 0.245658
v 0.143234 -0.139204 0.245824
v 0.143197 -0.138527 0.245562
v 0.118896 -0.139182 0.245932
v 0.118376 -0.139204 0.245824
v 0.118896 -0.138451 0.245658
v 0.118413 -0.138527 0.245562
v 0.118896 -0.141034 0.246343
v 0.118896 -0.141808 0.246402
v 0.118376 -0.141055 0.246235
v 0.118413 -0.141776 0.246282
v 0.143903 -0.139526 0.244204
v 0.143829 -0.139376 0.244960
v 0.143829 -0.138774 0.244038
v 0.143754 -0.138688 0.244752
v 0.143903 -0.141377 0.244615
v 0.143829 -0.142130 0.244782
v 0.143829 -0.141227 0.245371
v 0.143754 -0.141937 0.245472
v 0.143903 -0.141377 0.019433
v 0.143829 -0.141227 0.018677
v 0.143829 -0.142130 0.019266
v 0.143754 -0.141937 0.018576
v 0.143903 -0.139526 0.019843
v 0.143829 -0.138774 0.020010
v 0.143829 -0.139376 0.019087
v 0.143754 -0.138688 0.019296
v 0.117707 -0.141377 0.244615
v 0.117781 -0.141227 0.245371
v 0.117781 -0.142130 0.244782
v 0.117855 -0.141937 0.245472
v 0.117707 -0.139526 0.244204
v 0.117781 -0.138774 0.244038
v 0.117781 -0.139376 0.244960
v 0.117855 -0.138688 0.244752
v 0.117707 -0.139526 0.019843
v 0.117781 -0.139376 0.019087
v 0.117781 -0.138774 0.020010
v 0.117855 -0.138688 0.019296
v 0.117707 -0.141377 0.019433
v 0.117781 -0.142130 0.019266
v 0.117781 -0.141227 0.018677
v 0.117855 -0.141937 0.018576
v 0.142713 -0.143097 0.244997
v 0.142713 -0.142839 0.245729
v 0.143234 -0.142990 0.244973
v 0.143197 -0.142743 0.245651
v 0.118896 -0.143097 0.244997
v 0.118376 -0.142990 0.244973
v 0.118896 -0.142839 0.245729
v 0.118413 -0.142743 0.245651
v 0.118896 -0.143097 0.019051
v 0.118896 -0.142839 0.018319
v 0.118376 -0.142990 0.019075
v 0.118413 -0.142743 0.018397
v 0.142713 -0.143097 0.019051
v 0.143234 -0.142990 0.019075
v 0.142713 -0.142839 0.018319
v 0.143197 -0.142743 0.018397
v 0.142713 -0.137806 0.020224
v 0.142713 -0.137763 0.019444
v 0.143234 -0.137914 0.020200
v 0.143197 -0.137882 0.019474
v 0.118896 -0.137806 0.020224
v 0.118376 -0.137914 0.020200
v 0.118896 -0.137763 0.019444
v 0.118413 -0.137882 0.019474
v 0.118896 -0.137806 0.243824
v 0.118896 -0.137763 0.244603
v 0.118376 -0.137914 0.243847
v 0.118413 -0.137882 0.244573
v 0.142713 -0.137806 0.243824
v 0.143234 -0.137914 0.243847
v 0.142713 -0.137763 0.244603
v 0.143197 -0.137882 0.244573
v 0.136188 -0.127741 0.020605
v 0.136188 -0.140763 0.020605
v 0.136188 -0.127741 0.023686
v 0.136188 -0.140763 0.023686
v 0.125376 -0.127741 0.020605
v 0.125376 -0.140763 0.020605
v 0.125376 -0.127741 0.023686
v 0.125376 -0.140763 0.023686
v 0.136188 -0.127741 0.240534
v 0.136188 -0.140763 0.240534
v 0.136188 -0.127741 0.243615
v 0.136188 -0.140763 0.243615
v 0.125376 -0.127741 0.240534
v 0.125376 -0.140763 0.240534
v 0.125376 -0.127741 0.243615
v 0.125376 -0.140763 0.243615
vn 0.9989 0.0474 0.0021
vn 0.9988 -0.0487 -0.0000
vn 0.9988 -0.0487 -0.0021
vn -0.9988 -0.0487 -0.0021
vn -0.9989 0.0474 -0.0000
vn -0.9989 0.0474 0.0021
vn 0.1067 0.2853 -0.9525
vn -0.1072 0.1433 -0.9838
vn -0.1068 0.2853 -0.9525
vn 0.1039 -0.9936 -0.0434
vn -0.1039 -0.9946 -0.0000
vn -0.1039 -0.9936 -0.0434
vn 0.1070 0.1432 0.9839
vn -0.1067 0.2853 0.9525
vn -0.1073 0.1434 0.9838
vn 0.1042 0.9936 -0.0434
vn -0.1042 0.9946 -0.0000
vn -0.1042 0.9936 -0.0434
vn 0.9989 0.0467 -0.0082
vn 0.9976 -0.0380 0.0583
vn 0.9988 -0.0480 0.0085
vn 0.9989 0.0470 -0.0062
vn 0.9988 -0.0483 0.0064
vn 0.9989 0.0472 -0.0041
vn 0.9988 -0.0485 0.0042
vn 0.9989 0.0474 -0.0021
vn 0.9988 -0.0487 0.0021
vn 0.9989 0.0474 -0.0000
vn 0.9988 -0.0480 -0.0085
vn 0.9975 0.0596 -0.0389
vn 0.9989 0.0467 0.0082
vn 0.9988 -0.0483 -0.0064
vn 0.9989 0.0470 0.0062
vn 0.9988 -0.0485 -0.0042
vn 0.9989 0.0472 0.0041
vn -0.9988 -0.0480 0.0085
vn -0.9975 0.0596 0.0389
vn -0.9989 0.0467 -0.0082
vn -0.9988 -0.0483 0.0064
vn -0.9989 0.0470 -0.0062
vn -0.9988 -0.0485 0.0042
vn -0.9989 0.0472 -0.0041
vn -0.9988 -0.0487 0.0021
vn -0.9989 0.0474 -0.0021
vn -0.9988 -0.0487 -0.0000
vn -0.9989 0.0467 0.0082
vn -0.9976 -0.0380 -0.0583
vn -0.9988 -0.0480 -0.0085
vn -0.9989 0.0470 0.0062
vn -0.9988 -0.0483 -0.0064
vn -0.9989 0.0472 0.0041
vn -0.9988 -0.0485 -0.0042
vn 0.1039 -0.9795 0.1727
vn -0.1071 -0.9582 0.2651
vn -0.1039 -0.9795 0.1727
vn 0.1039 -0.9861 0.1298
vn -0.1039 -0.9861 0.1298
vn 0.1039 -0.9908 0.0867
vn -0.1039 -0.9908 0.0867
vn 0.1039 -0.9936 0.0434
vn -0.1039 -0.9936 0.0434
vn 0.1039 -0.9946 -0.0000
vn -0.1039 -0.9795 -0.1727
vn 0.1071 -0.9582 -0.2652
vn 0.1039 -0.9795 -0.1727
vn -0.1039 -0.9861 -0.1298
vn 0.1039 -0.9861 -0.1298
vn -0.1039 -0.9908 -0.0867
vn 0.1039 -0.9908 -0.0867
vn 0.1042 0.9794 0.1727
vn -0.1067 0.9867 0.1224
vn -0.1042 0.9794 0.1727
vn 0.1042 0.9860 0.1298
vn -0.1042 0.9860 0.1298
vn 0.1042 0.9908 0.0867
vn -0.1042 0.9908 0.0867
vn 0.1042 0.9936 0.0434
vn -0.1042 0.9936 0.0434
vn 0.1042 0.9946 -0.0000
vn -0.1042 0.9794 -0.1727
vn 0.1068 0.9867 -0.1225
vn 0.1042 0.9794 -0.1727
vn -0.1042 0.9860 -0.1298
vn 0.1042 0.9860 -0.1298
vn -0.1042 0.9908 -0.0867
vn 0.1042 0.9908 -0.0867
vn 0.4248 0.4758 -0.7702
vn 0.4448 0.2624 -0.8563
vn 0.7873 0.3493 -0.5081
vn 0.8118 0.1854 -0.5537
vn 0.1093 0.5234 -0.8451
vn 0.3933 0.7700 -0.5024
vn 0.7131 0.5871 -0.3831
vn 0.1070 0.1432 -0.9839
vn 0.4288 -0.1111 -0.8965
vn 0.1107 -0.1235 -0.9861
vn 0.3989 -0.5011 -0.7680
vn 0.1121 -0.5430 -0.8322
vn 0.4458 0.1231 -0.8866
vn 0.7911 -0.1052 -0.6026
vn 0.7187 -0.3800 -0.5824
vn -0.4288 -0.1111 -0.8965
vn -0.4458 0.1231 -0.8866
vn -0.7911 -0.1052 -0.6026
vn -0.8131 0.0654 -0.5784
vn -0.1107 -0.1235 -0.9862
vn -0.3989 -0.5011 -0.7680
vn -0.7187 -0.3800 -0.5824
vn -0.4248 0.4759 -0.7701
vn -0.1093 0.5234 -0.8451
vn -0.3932 0.7700 -0.5024
vn -0.1099 0.8324 -0.5432
vn -0.4448 0.2624 -0.8563
vn -0.7873 0.3493 -0.5082
vn -0.7131 0.5871 -0.3831
vn 0.4288 -0.1111 0.8965
vn 0.4458 0.1231 0.8866
vn 0.7911 -0.1052 0.6026
vn 0.8131 0.0653 0.5784
vn 0.1107 -0.1235 0.9861
vn 0.3989 -0.5011 0.7680
vn 0.7187 -0.3800 0.5823
vn 0.1068 0.2853 0.9525
vn 0.4248 0.4759 0.7701
vn 0.1093 0.5233 0.8451
vn 0.3933 0.7700 0.5024
vn 0.1099 0.8324 0.5432
vn 0.4448 0.2624 0.8563
vn 0.7873 0.3493 0.5081
vn 0.7131 0.5871 0.3831
vn -0.4248 0.4759 0.7701
vn -0.4449 0.2624 0.8563
vn -0.7873 0.3493 0.5081
vn -0.8118 0.1854 0.5537
vn -0.1093 0.5234 0.8451
vn -0.3933 0.7700 0.5024
vn -0.7131 0.5871 0.3831
vn -0.4288 -0.1111 0.8965
vn -0.1107 -0.1235 0.9861
vn -0.3989 -0.5011 0.7680
vn -0.1121 -0.5430 0.8322
vn -0.4458 0.1231 0.8866
vn -0.7911 -0.1052 0.6026
vn -0.7187 -0.3800 0.5823
vn 0.9975 0.0596 0.0389
vn 0.9440 0.2763 0.1803
vn 0.9698 0.1033 0.2209
vn 0.8118 0.1853 0.5537
vn 0.9698 0.2438 0.0056
vn 0.7873 0.6058 0.1151
vn 0.9460 -0.1771 0.2715
vn 0.9703 -0.2212 0.0982
vn 0.7911 -0.5092 0.3390
vn 0.8131 -0.5558 0.1732
vn 0.9703 -0.0007 0.2420
vn 0.9976 -0.0380 -0.0583
vn 0.9461 -0.1771 -0.2713
vn 0.9703 -0.0007 -0.2420
vn 0.8131 0.0654 -0.5784
vn 0.9703 -0.2212 -0.0981
vn 0.7910 -0.5092 -0.3390
vn 0.9440 0.2763 -0.1803
vn 0.9698 0.2438 -0.0055
vn 0.7873 0.6058 -0.1151
vn 0.8118 0.5815 0.0533
vn 0.9698 0.1033 -0.2209
vn -0.9976 -0.0380 0.0583
vn -0.9461 -0.1771 0.2713
vn -0.9703 -0.0007 0.2420
vn -0.8131 0.0654 0.5784
vn -0.9703 -0.2212 0.0981
vn -0.7911 -0.5092 0.3390
vn -0.9440 0.2763 0.1803
vn -0.9698 0.2438 0.0055
vn -0.7873 0.6058 0.1150
vn -0.8118 0.5814 -0.0533
vn -0.9698 0.1032 0.2210
vn -0.9975 0.0596 -0.0389
vn -0.9440 0.2763 -0.1803
vn -0.9698 0.1033 -0.2209
vn -0.8118 0.1853 -0.5537
vn -0.9698 0.2438 -0.0055
vn -0.7873 0.6058 -0.1151
vn -0.9461 -0.1771 -0.2713
vn -0.9703 -0.2212 -0.0981
vn -0.7910 -0.5092 -0.3390
vn -0.8131 -0.5558 -0.1732
vn -0.9703 -0.0007 -0.2420
vn 0.1073 -0.9583 0.2650
vn 0.4288 -0.7759 0.4628
vn 0.1107 -0.8529 0.5103
vn 0.1121 -0.5430 0.8322
vn 0.4458 -0.8611 0.2443
vn -0.4288 -0.7759 0.4628
vn -0.4458 -0.8611 0.2443
vn -0.8131 -0.5558 0.1732
vn -0.1107 -0.8529 0.5102
vn -0.1071 -0.9583 -0.2651
vn -0.4288 -0.7759 -0.4628
vn -0.1107 -0.8529 -0.5103
vn -0.1121 -0.5430 -0.8322
vn -0.4458 -0.8611 -0.2444
vn 0.4288 -0.7759 -0.4628
vn 0.4458 -0.8611 -0.2444
vn 0.8131 -0.5558 -0.1732
vn 0.1107 -0.8529 -0.5102
vn 0.1067 0.9867 0.1224
vn 0.4248 0.8966 -0.1254
vn 0.1093 0.9843 -0.1387
vn 0.1099 0.8324 -0.5432
vn 0.4449 0.8895 0.1047
vn -0.4248 0.8966 -0.1254
vn -0.4448 0.8895 0.1046
vn -0.8118 0.5814 0.0533
vn -0.1093 0.9843 -0.1387
vn -0.1067 0.9867 -0.1224
vn -0.4248 0.8966 0.1254
vn -0.1093 0.9843 0.1387
vn -0.1099 0.8324 0.5432
vn -0.4449 0.8895 -0.1047
vn 0.4248 0.8966 0.1254
vn 0.4448 0.8895 -0.1046
vn 0.8118 0.5814 -0.0533
vn 0.1093 0.9843 0.1387
vn 0.9717 0.2361 0.0103
vn 0.9717 0.2364 -0.0000
vn 0.8185 0.5740 0.0251
vn 0.8185 0.5746 -0.0000
vn 0.9707 -0.2401 -0.0000
vn 0.9707 -0.2399 -0.0105
vn 0.8155 -0.5788 -0.0000
vn 0.8155 -0.5782 -0.0252
vn -0.9707 -0.2399 -0.0105
vn -0.9707 -0.2401 -0.0000
vn -0.8155 -0.5782 -0.0252
vn -0.8155 -0.5788 -0.0000
vn -0.9717 0.2364 -0.0000
vn -0.9717 0.2361 0.0103
vn -0.8185 0.5746 -0.0000
vn -0.8185 0.5740 0.0251
vn 0.4492 -0.8926 -0.0390
vn 0.4492 -0.8934 -0.0000
vn -0.4492 -0.8934 -0.0000
vn -0.4492 -0.8926 -0.0390
vn 0.4521 0.8911 -0.0389
vn 0.4521 0.8920 -0.0000
vn 0.8185 0.5740 -0.0251
vn -0.4521 0.8920 -0.0000
vn -0.4521 0.8911 -0.0389
vn -0.8185 0.5740 -0.0251
vn 0.9717 0.2328 -0.0410
vn 0.8185 0.5658 -0.0998
vn 0.9707 -0.2365 0.0417
vn 0.8155 -0.5700 0.1005
vn 0.9717 0.2343 -0.0309
vn 0.8185 0.5696 -0.0750
vn 0.9707 -0.2381 0.0313
vn 0.8155 -0.5738 0.0755
vn 0.9717 0.2355 -0.0206
vn 0.8185 0.5724 -0.0501
vn 0.9707 -0.2392 0.0209
vn 0.8155 -0.5766 0.0504
vn 0.9717 0.2361 -0.0103
vn 0.9707 -0.2399 0.0105
vn 0.8155 -0.5782 0.0252
vn 0.9707 -0.2365 -0.0417
vn 0.8155 -0.5700 -0.1005
vn 0.9717 0.2328 0.0410
vn 0.8185 0.5658 0.0998
vn 0.9707 -0.2381 -0.0313
vn 0.8155 -0.5738 -0.0755
vn 0.9717 0.2343 0.0309
vn 0.8185 0.5696 0.0750
vn 0.9707 -0.2392 -0.0209
vn 0.8155 -0.5766 -0.0504
vn 0.9717 0.2355 0.0206
vn 0.8185 0.5724 0.0501
vn -0.9707 -0.2365 0.0417
vn -0.8155 -0.5700 0.1005
vn -0.9717 0.2328 -0.0410
vn -0.8185 0.5658 -0.0998
vn -0.9707 -0.2381 0.0313
vn -0.8155 -0.5738 0.0755
vn -0.9717 0.2343 -0.0309
vn -0.8185 0.5696 -0.0750
vn -0.9707 -0.2392 0.0209
vn -0.8155 -0.5766 0.0504
vn -0.9717 0.2355 -0.0206
vn -0.8185 0.5724 -0.0501
vn -0.9707 -0.2399 0.0105
vn -0.8155 -0.5782 0.0252
vn -0.9717 0.2361 -0.0103
vn -0.9717 0.2328 0.0410
vn -0.8185 0.5658 0.0998
vn -0.9707 -0.2365 -0.0417
vn -0.8155 -0.5700 -0.1005
vn -0.9717 0.2343 0.0309
vn -0.8185 0.5696 0.0750
vn -0.9707 -0.2381 -0.0313
vn -0.8155 -0.5738 -0.0755
vn -0.9717 0.2355 0.0206
vn -0.8185 0.5724 0.0501
vn -0.9707 -0.2392 -0.0209
vn -0.8155 -0.5766 -0.0504
vn 0.4492 -0.8799 0.1551
vn -0.4492 -0.8799 0.1551
vn 0.4492 -0.8858 0.1166
vn -0.4492 -0.8858 0.1166
vn 0.4492 -0.8900 0.0779
vn -0.4492 -0.8900 0.0779
vn 0.4492 -0.8926 0.0390
vn -0.4492 -0.8926 0.0390
vn -0.4492 -0.8799 -0.1551
vn 0.4492 -0.8799 -0.1551
vn -0.4492 -0.8858 -0.1166
vn 0.4492 -0.8858 -0.1166
vn -0.4492 -0.8900 -0.0779
vn 0.4492 -0.8900 -0.0779
vn 0.4521 0.8784 0.1549
vn -0.4521 0.8784 0.1549
vn 0.4521 0.8844 0.1164
vn -0.4521 0.8844 0.1164
vn 0.4521 0.8886 0.0777
vn -0.4521 0.8886 0.0777
vn 0.4521 0.8911 0.0389
vn -0.4521 0.8911 0.0389
vn -0.4521 0.8784 -0.1549
vn 0.4520 0.8784 -0.1549
vn -0.4521 0.8844 -0.1164
vn 0.4521 0.8844 -0.1164
vn -0.4521 0.8886 -0.0777
vn 0.4521 0.8886 -0.0777
vn 1.0000 -0.0000 -0.0000
vn -1.0000 -0.0000 -0.0000
vn -0.0000 -0.0000 -1.0000
vn -0.0000 -1.0000 -0.0000
vn -0.0000 -0.0000 1.0000
vn -0.0000 1.0000 -0.0000
vt 0.866691 0.167404
vt 0.789559 0.189453
vt 0.789559 0.167404
vt 0.789542 0.089221
vt 0.866708 0.289685
vt 0.789542 0.289685
vt 0.806076 0.089221
vt 0.828125 0.289685
vt 0.806076 0.289685
vt 0.866691 0.277650
vt 0.789559 0.298019
vt 0.789559 0.277650
vt 0.866691 0.255601
vt 0.789559 0.255601
vt 0.866691 0.233551
vt 0.789559 0.233551
vt 0.866691 0.211502
vt 0.789559 0.211502
vt 0.866691 0.189453
vt 0.789559 0.101256
vt 0.866691 0.080905
vt 0.866691 0.101256
vt 0.789559 0.123306
vt 0.866691 0.123306
vt 0.789559 0.145355
vt 0.866691 0.145355
vt 0.789559 0.298001
vt 0.866691 0.080887
vt 0.916322 0.089221
vt 0.936691 0.289685
vt 0.916322 0.289685
vt 0.894272 0.089221
vt 0.894272 0.289685
vt 0.872223 0.089221
vt 0.872223 0.289685
vt 0.850174 0.089221
vt 0.850174 0.289685
vt 0.828125 0.089221
vt 0.739928 0.289685
vt 0.719559 0.089221
vt 0.739928 0.089221
vt 0.761977 0.289685
vt 0.761977 0.089221
vt 0.784027 0.289685
vt 0.784027 0.089221
vt 0.936674 0.289685
vt 0.719576 0.089221
vt 0.753711 0.084214
vt 0.789542 0.084214
vt 0.753711 0.079207
vt 0.789542 0.079207
vt 0.753711 0.089221
vt 0.717879 0.084214
vt 0.717879 0.079207
vt 0.866708 0.089221
vt 0.902539 0.084214
vt 0.902539 0.089221
vt 0.938371 0.084214
vt 0.938371 0.089221
vt 0.866708 0.084214
vt 0.902539 0.079207
vt 0.938371 0.079207
vt 0.902539 0.294692
vt 0.866708 0.294692
vt 0.902539 0.299699
vt 0.866708 0.299699
vt 0.902539 0.289685
vt 0.938371 0.294692
vt 0.938371 0.299699
vt 0.753711 0.294692
vt 0.753711 0.289685
vt 0.717879 0.294692
vt 0.717879 0.289685
vt 0.789542 0.294692
vt 0.753711 0.299699
vt 0.717879 0.299699
vt 0.866691 0.298047
vt 0.902535 0.298862
vt 0.866699 0.298873
vt 0.902531 0.298025
vt 0.938371 0.298850
vt 0.753715 0.298859
vt 0.753719 0.298019
vt 0.717879 0.298859
vt 0.717879 0.298019
vt 0.789551 0.298859
vt 0.789559 0.080933
vt 0.753715 0.080059
vt 0.789551 0.080070
vt 0.753719 0.080910
vt 0.717879 0.080047
vt 0.902535 0.080056
vt 0.902531 0.080905
vt 0.938371 0.080056
vt 0.938371 0.080904
vt 0.866699 0.080056
vt 0.866691 0.297973
vt 0.902535 0.298848
vt 0.866699 0.298836
vt 0.902531 0.297996
vt 0.938371 0.298859
vt 0.753715 0.298850
vt 0.753719 0.298002
vt 0.717879 0.298850
vt 0.717879 0.298002
vt 0.789551 0.298850
vt 0.789559 0.080859
vt 0.753715 0.080045
vt 0.789551 0.080033
vt 0.753719 0.080882
vt 0.717879 0.080056
vt 0.902535 0.080047
vt 0.902531 0.080887
vt 0.938371 0.080047
vt 0.938371 0.080887
vt 0.866699 0.080047
vt 0.936691 0.089221
vt 0.937531 0.084214
vt 0.937531 0.089221
vt 0.936691 0.084214
vt 0.937531 0.079207
vt 0.937531 0.294692
vt 0.936691 0.294692
vt 0.937531 0.299699
vt 0.936691 0.299699
vt 0.937531 0.289685
vt 0.719559 0.289685
vt 0.718719 0.294692
vt 0.718719 0.289685
vt 0.719559 0.294692
vt 0.718719 0.299699
vt 0.718719 0.084214
vt 0.719559 0.084214
vt 0.718719 0.079207
vt 0.719559 0.079207
vt 0.718719 0.089221
vt 0.936674 0.089221
vt 0.937522 0.084214
vt 0.937522 0.089221
vt 0.936674 0.084214
vt 0.937522 0.079207
vt 0.937522 0.294692
vt 0.936674 0.294692
vt 0.937522 0.299699
vt 0.936674 0.299699
vt 0.937522 0.289685
vt 0.719576 0.289685
vt 0.718728 0.294692
vt 0.718728 0.289685
vt 0.719576 0.294692
vt 0.718728 0.299699
vt 0.718728 0.084214
vt 0.719576 0.084214
vt 0.718728 0.079207
vt 0.719576 0.079207
vt 0.718728 0.089221
vt 0.902531 0.167404
vt 0.902531 0.189453
vt 0.938371 0.167404
vt 0.938371 0.189453
vt 0.753719 0.189453
vt 0.753719 0.167404
vt 0.717879 0.189453
vt 0.717879 0.167404
vt 0.866708 0.079207
vt 0.938371 0.289685
vt 0.789542 0.299699
vt 0.717879 0.089221
vt 0.806076 0.084214
vt 0.828125 0.084214
vt 0.806076 0.079207
vt 0.828125 0.079207
vt 0.828125 0.294692
vt 0.806076 0.294692
vt 0.828125 0.299699
vt 0.806076 0.299699
vt 0.902531 0.277650
vt 0.938371 0.277650
vt 0.938371 0.298002
vt 0.753719 0.277650
vt 0.717879 0.277650
vt 0.902531 0.255601
vt 0.938371 0.255601
vt 0.753719 0.255601
vt 0.717879 0.255601
vt 0.902531 0.233551
vt 0.938371 0.233551
vt 0.753719 0.233551
vt 0.717879 0.233551
vt 0.902531 0.211502
vt 0.938371 0.211502
vt 0.753719 0.211502
vt 0.717879 0.211502
vt 0.753719 0.101256
vt 0.717879 0.101256
vt 0.717879 0.080887
vt 0.902531 0.101256
vt 0.938371 0.101256
vt 0.753719 0.123306
vt 0.717879 0.123306
vt 0.902531 0.123306
vt 0.938371 0.123306
vt 0.753719 0.145355
vt 0.717879 0.145355
vt 0.902531 0.145355
vt 0.938371 0.145355
vt 0.938371 0.298019
vt 0.717879 0.080904
vt 0.916322 0.084214
vt 0.916322 0.079207
vt 0.936691 0.079207
vt 0.916322 0.294692
vt 0.916322 0.299699
vt 0.894272 0.084214
vt 0.894272 0.079207
vt 0.894272 0.294692
vt 0.894272 0.299699
vt 0.872223 0.084214
vt 0.872223 0.079207
vt 0.872223 0.294692
vt 0.872223 0.299699
vt 0.850174 0.084214
vt 0.850174 0.079207
vt 0.850174 0.294692
vt 0.850174 0.299699
vt 0.739928 0.294692
vt 0.739928 0.299699
vt 0.719559 0.299699
vt 0.739928 0.084214
vt 0.739928 0.079207
vt 0.761977 0.294692
vt 0.761977 0.299699
vt 0.761977 0.084214
vt 0.761977 0.079207
vt 0.784027 0.294692
vt 0.784027 0.299699
vt 0.784027 0.084214
vt 0.784027 0.079207
vt 0.936674 0.079207
vt 0.719576 0.299699
s 1
f 88/1/1 133/2/2 138/3/3
f 168/1/4 213/2/5 218/3/6
f 237/4/7 245/5/8 249/6/9
f 140/7/10 175/8/11 170/9/12
f 253/4/13 261/5/14 265/6/15
f 100/7/16 215/8/17 210/9/18
f 113/10/19 273/11/20 28/12/21
f 108/13/22 28/12/21 118/14/23
f 103/15/24 118/14/23 123/16/25
f 98/17/26 123/16/25 128/18/27
f 93/19/28 128/18/27 133/2/2
f 153/20/29 281/21/30 9/22/31
f 148/23/32 9/22/31 78/24/33
f 143/25/34 78/24/33 83/26/35
f 138/3/3 83/26/35 88/1/1
f 193/10/36 289/27/37 73/12/38
f 188/13/39 73/12/38 198/14/40
f 183/15/41 198/14/40 203/16/42
f 178/17/43 203/16/42 208/18/44
f 173/19/45 208/18/44 213/2/5
f 233/20/46 297/28/47 54/22/48
f 228/23/49 54/22/48 158/24/50
f 223/25/51 158/24/50 163/26/52
f 218/3/6 163/26/52 168/1/4
f 30/29/53 305/30/54 195/31/55
f 120/32/56 195/31/55 190/33/57
f 125/34/58 190/33/57 185/35/59
f 130/36/60 185/35/59 180/37/61
f 135/38/62 180/37/61 175/8/11
f 56/39/63 313/40/64 155/41/65
f 160/42/66 155/41/65 150/43/67
f 165/44/68 150/43/67 145/45/69
f 170/9/12 145/45/69 140/7/10
f 11/29/70 321/46/71 235/31/72
f 80/32/73 235/31/72 230/33/74
f 85/34/75 230/33/74 225/35/76
f 90/36/77 225/35/76 220/37/78
f 95/38/79 220/37/78 215/8/17
f 75/39/80 329/47/81 115/41/82
f 200/42/83 115/41/82 110/43/84
f 205/44/85 110/43/84 105/45/86
f 210/9/18 105/45/86 100/7/16
f 237/4/7 240/48/87 238/49/88
f 238/49/88 7/50/89 6/51/90
f 239/52/91 5/53/92 240/48/87
f 240/48/87 1/54/93 7/50/89
f 241/55/94 244/56/95 242/57/96
f 242/57/96 36/58/97 35/59/98
f 243/60/99 34/61/100 244/56/95
f 244/56/95 32/62/101 36/58/97
f 245/5/8 248/63/102 246/64/103
f 246/64/103 48/65/104 47/66/105
f 247/67/106 52/68/107 248/63/102
f 248/63/102 46/69/108 48/65/104
f 249/6/9 252/70/109 250/71/110
f 250/71/110 43/72/111 42/73/112
f 251/74/113 41/75/114 252/70/109
f 252/70/109 39/76/115 43/72/111
f 253/4/13 256/48/116 254/49/117
f 254/49/117 22/50/118 21/51/119
f 255/52/120 26/53/121 256/48/116
f 256/48/116 20/54/122 22/50/118
f 257/55/123 260/56/124 258/57/125
f 258/57/125 17/58/126 16/59/127
f 259/60/128 15/61/129 260/56/124
f 260/56/124 13/62/130 17/58/126
f 261/5/14 264/63/131 262/64/132
f 262/64/132 67/65/133 66/66/134
f 263/67/135 71/68/136 264/63/131
f 264/63/131 65/69/137 67/65/133
f 265/6/15 268/70/138 266/71/139
f 266/71/139 62/72/140 61/73/141
f 267/74/142 60/75/143 268/70/138
f 268/70/138 58/76/144 62/72/140
f 269/77/145 272/78/146 270/79/147
f 270/79/147 15/65/129 14/66/148
f 271/80/149 19/81/150 272/78/146
f 272/78/146 13/69/130 15/65/129
f 273/11/20 276/82/151 274/83/152
f 274/83/152 24/84/153 23/85/154
f 275/86/155 22/75/118 276/82/151
f 276/82/151 20/76/122 24/84/153
f 277/87/156 280/88/157 278/89/158
f 278/89/158 34/50/100 33/51/159
f 279/90/160 38/91/161 280/88/157
f 280/88/157 32/54/101 34/50/100
f 281/21/30 284/92/162 282/93/163
f 282/93/163 3/94/164 2/95/165
f 283/96/166 7/61/89 284/92/162
f 284/92/162 1/62/93 3/94/164
f 285/97/167 288/98/168 286/99/169
f 286/99/169 60/65/143 59/66/170
f 287/100/171 64/101/172 288/98/168
f 288/98/168 58/69/144 60/65/143
f 289/27/37 292/102/173 290/103/174
f 290/103/174 69/104/175 68/105/176
f 291/106/177 67/75/133 292/102/173
f 292/102/173 65/76/137 69/104/175
f 293/107/178 296/108/179 294/109/180
f 294/109/180 41/50/114 40/51/181
f 295/110/182 45/111/183 296/108/179
f 296/108/179 39/54/115 41/50/114
f 297/28/47 300/112/184 298/113/185
f 298/113/185 50/114/186 49/115/187
f 299/116/188 48/61/104 300/112/184
f 300/112/184 46/62/108 50/114/186
f 301/117/189 304/118/190 302/119/191
f 302/119/191 26/58/121 25/59/192
f 303/120/193 24/121/153 304/118/190
f 304/118/190 20/62/122 26/58/121
f 305/30/54 308/122/194 306/123/195
f 306/123/195 64/124/172 63/125/196
f 307/126/197 62/68/140 308/122/194
f 308/122/194 58/69/144 64/124/172
f 309/127/198 312/128/199 310/129/200
f 310/129/200 52/72/107 51/73/201
f 311/130/202 50/131/186 312/128/199
f 312/128/199 46/76/108 52/72/107
f 313/40/64 316/132/203 314/133/204
f 314/133/204 38/134/161 37/135/205
f 315/136/206 36/53/97 316/132/203
f 316/132/203 32/54/101 38/134/161
f 317/137/207 320/138/208 318/139/209
f 318/139/209 5/58/92 4/59/210
f 319/140/211 3/141/164 320/138/208
f 320/138/208 1/62/93 5/58/92
f 321/46/71 324/142/212 322/143/213
f 322/143/213 45/144/183 44/145/214
f 323/146/215 43/68/111 324/142/212
f 324/142/212 39/69/115 45/144/183
f 325/147/216 328/148/217 326/149/218
f 326/149/218 71/72/136 70/73/219
f 327/150/220 69/151/175 328/148/217
f 328/148/217 65/76/137 71/72/136
f 329/47/81 332/152/221 330/153/222
f 330/153/222 19/154/150 18/155/223
f 331/156/224 17/53/126 332/152/221
f 332/152/221 13/54/130 19/154/150
f 93/19/28 89/157/225 94/158/226
f 94/158/226 87/159/227 92/160/228
f 138/3/3 134/161/229 139/162/230
f 139/162/230 132/163/231 137/164/232
f 173/19/45 169/157/233 174/158/234
f 174/158/234 167/159/235 172/160/236
f 218/3/6 214/161/237 219/162/238
f 219/162/238 212/163/239 217/164/240
f 241/55/94 238/49/88 243/60/99
f 243/60/99 6/51/90 33/165/159
f 245/5/8 242/57/96 247/67/106
f 247/67/106 35/59/98 51/166/201
f 249/6/9 246/64/103 251/74/113
f 251/74/113 47/66/105 40/167/181
f 237/4/7 250/71/110 239/52/91
f 239/52/91 42/73/112 4/168/210
f 135/38/62 141/169/241 136/170/242
f 136/170/242 137/171/232 132/172/231
f 170/9/12 176/173/243 171/174/244
f 171/174/244 172/175/236 167/176/235
f 257/55/123 254/49/117 259/60/128
f 259/60/128 21/51/119 14/165/148
f 261/5/14 258/57/125 263/67/135
f 263/67/135 16/59/127 70/166/219
f 265/6/15 262/64/132 267/74/142
f 267/74/142 66/66/134 59/167/170
f 253/4/13 266/71/139 255/52/120
f 255/52/120 61/73/141 25/168/192
f 95/38/79 101/169/245 96/170/246
f 96/170/246 97/171/247 92/172/228
f 210/9/18 216/173/248 211/174/249
f 211/174/249 212/175/239 207/176/250
f 269/77/145 114/177/251 271/80/149
f 271/80/149 112/178/252 18/179/223
f 273/11/20 270/79/147 275/86/155
f 275/86/155 14/66/148 21/167/119
f 28/12/21 274/83/152 29/180/253
f 29/180/253 23/85/154 27/181/254
f 113/10/19 109/182/255 114/177/251
f 114/177/251 107/183/256 112/178/252
f 118/14/23 29/180/253 119/184/257
f 119/184/257 27/181/254 117/185/258
f 108/13/22 104/186/259 109/182/255
f 109/182/255 102/187/260 107/183/256
f 123/16/25 119/184/257 124/188/261
f 124/188/261 117/185/258 122/189/262
f 103/15/24 99/190/263 104/186/259
f 104/186/259 97/191/247 102/187/260
f 128/18/27 124/188/261 129/192/264
f 129/192/264 122/189/262 127/193/265
f 98/17/26 94/158/226 99/190/263
f 99/190/263 92/160/228 97/191/247
f 133/2/2 129/192/264 134/161/229
f 134/161/229 127/193/265 132/163/231
f 277/87/156 154/194/266 279/90/160
f 279/90/160 152/195/267 37/196/205
f 281/21/30 278/89/158 283/96/166
f 283/96/166 33/51/159 6/165/90
f 9/22/31 282/93/163 10/197/268
f 10/197/268 2/95/165 8/198/269
f 153/20/29 149/199/270 154/194/266
f 154/194/266 147/200/271 152/195/267
f 78/24/33 10/197/268 79/201/272
f 79/201/272 8/198/269 77/202/273
f 148/23/32 144/203/274 149/199/270
f 149/199/270 142/204/275 147/200/271
f 83/26/35 79/201/272 84/205/276
f 84/205/276 77/202/273 82/206/277
f 143/25/34 139/162/230 144/203/274
f 144/203/274 137/164/232 142/204/275
f 88/1/1 84/205/276 89/157/225
f 89/157/225 82/206/277 87/159/227
f 285/97/167 194/177/278 287/100/171
f 287/100/171 192/178/279 63/207/196
f 289/27/37 286/99/169 291/106/177
f 291/106/177 59/66/170 66/167/134
f 73/12/38 290/103/174 74/180/280
f 74/180/280 68/105/176 72/181/281
f 193/10/36 189/182/282 194/177/278
f 194/177/278 187/183/283 192/178/279
f 198/14/40 74/180/280 199/184/284
f 199/184/284 72/181/281 197/185/285
f 188/13/39 184/186/286 189/182/282
f 189/182/282 182/187/287 187/183/283
f 203/16/42 199/184/284 204/188/288
f 204/188/288 197/185/285 202/189/289
f 183/15/41 179/190/290 184/186/286
f 184/186/286 177/191/291 182/187/287
f 208/18/44 204/188/288 209/192/292
f 209/192/292 202/189/289 207/193/250
f 178/17/43 174/158/234 179/190/290
f 179/190/290 172/160/236 177/191/291
f 213/2/5 209/192/292 214/161/237
f 214/161/237 207/193/250 212/163/239
f 293/107/178 234/194/293 295/110/182
f 295/110/182 232/195/294 44/208/214
f 297/28/47 294/109/180 299/116/188
f 299/116/188 40/51/181 47/165/105
f 54/22/48 298/113/185 55/197/295
f 55/197/295 49/115/187 53/198/296
f 233/20/46 229/199/297 234/194/293
f 234/194/293 227/200/298 232/195/294
f 158/24/50 55/197/295 159/201/299
f 159/201/299 53/198/296 157/202/300
f 228/23/49 224/203/301 229/199/297
f 229/199/297 222/204/302 227/200/298
f 163/26/52 159/201/299 164/205/303
f 164/205/303 157/202/300 162/206/304
f 223/25/51 219/162/238 224/203/301
f 224/203/301 217/164/240 222/204/302
f 168/1/4 164/205/303 169/157/233
f 169/157/233 162/206/304 167/159/235
f 301/117/189 31/209/305 303/120/193
f 303/120/193 27/210/254 23/211/154
f 305/30/54 302/119/191 307/126/197
f 307/126/197 25/59/192 61/166/141
f 195/31/55 306/123/195 196/212/306
f 196/212/306 63/125/196 192/213/279
f 30/29/53 121/214/307 31/209/305
f 31/209/305 117/215/258 27/210/254
f 190/33/57 196/212/306 191/216/308
f 191/216/308 192/213/279 187/217/283
f 120/32/56 126/218/309 121/214/307
f 121/214/307 122/219/262 117/215/258
f 185/35/59 191/216/308 186/220/310
f 186/220/310 187/217/283 182/221/287
f 125/34/58 131/222/311 126/218/309
f 126/218/309 127/223/265 122/219/262
f 180/37/61 186/220/310 181/224/312
f 181/224/312 182/221/287 177/225/291
f 130/36/60 136/170/242 131/222/311
f 131/222/311 132/172/231 127/223/265
f 175/8/11 181/224/312 176/173/243
f 176/173/243 177/225/291 172/175/236
f 309/127/198 57/226/313 311/130/202
f 311/130/202 53/227/296 49/228/187
f 313/40/64 310/129/200 315/136/206
f 315/136/206 51/73/201 35/168/98
f 155/41/65 314/133/204 156/229/314
f 156/229/314 37/135/205 152/230/267
f 56/39/63 161/231/315 57/226/313
f 57/226/313 157/232/300 53/227/296
f 150/43/67 156/229/314 151/233/316
f 151/233/316 152/230/267 147/234/271
f 160/42/66 166/235/317 161/231/315
f 161/231/315 162/236/304 157/232/300
f 145/45/69 151/233/316 146/237/318
f 146/237/318 147/234/271 142/238/275
f 165/44/68 171/174/244 166/235/317
f 166/235/317 167/176/235 162/236/304
f 140/7/10 146/237/318 141/169/241
f 141/169/241 142/238/275 137/171/232
f 317/137/207 12/209/319 319/140/211
f 319/140/211 8/210/269 2/239/165
f 321/46/71 318/139/209 323/146/215
f 323/146/215 4/59/210 42/166/112
f 235/31/72 322/143/213 236/212/320
f 236/212/320 44/145/214 232/213/294
f 11/29/70 81/214/321 12/209/319
f 12/209/319 77/215/273 8/210/269
f 230/33/74 236/212/320 231/216/322
f 231/216/322 232/213/294 227/217/298
f 80/32/73 86/218/323 81/214/321
f 81/214/321 82/219/277 77/215/273
f 225/35/76 231/216/322 226/220/324
f 226/220/324 227/217/298 222/221/302
f 85/34/75 91/222/325 86/218/323
f 86/218/323 87/223/227 82/219/277
f 220/37/78 226/220/324 221/224/326
f 221/224/326 222/221/302 217/225/240
f 90/36/77 96/170/246 91/222/325
f 91/222/325 92/172/228 87/223/227
f 215/8/17 221/224/326 216/173/248
f 216/173/248 217/225/240 212/175/239
f 325/147/216 76/226/327 327/150/220
f 327/150/220 72/227/281 68/240/176
f 329/47/81 326/149/218 331/156/224
f 331/156/224 70/73/219 16/168/127
f 115/41/82 330/153/222 116/229/328
f 116/229/328 18/155/223 112/230/252
f 75/39/80 201/231/329 76/226/327
f 76/226/327 197/232/285 72/227/281
f 110/43/84 116/229/328 111/233/330
f 111/233/330 112/230/252 107/234/256
f 200/42/83 206/235/331 201/231/329
f 201/231/329 202/236/289 197/232/285
f 105/45/86 111/233/330 106/237/332
f 106/237/332 107/234/256 102/238/260
f 205/44/85 211/174/249 206/235/331
f 206/235/331 207/176/250 202/236/289
f 100/7/16 106/237/332 101/169/245
f 101/169/245 102/238/260 97/171/247
f 333/62/333 336/76/333 334/54/333
f 337/54/334 340/69/334 339/76/334
f 333/54/335 338/69/335 337/76/335
f 334/54/336 340/69/336 338/76/336
f 336/54/337 339/69/337 340/76/337
f 335/54/338 337/69/338 339/76/338
f 341/62/333 344/76/333 342/54/333
f 345/54/334 348/69/334 347/76/334
f 341/54/335 346/69/335 345/76/335
f 342/54/336 348/69/336 346/76/336
f 344/54/337 347/69/337 348/76/337
f 343/54/338 345/69/338 347/76/338
f 88/1/1 93/19/28 133/2/2
f 168/1/4 173/19/45 213/2/5
f 237/4/7 241/55/94 245/5/8
f 140/7/10 135/38/62 175/8/11
f 253/4/13 257/55/123 261/5/14
f 100/7/16 95/38/79 215/8/17
f 113/10/19 269/77/145 273/11/20
f 108/13/22 113/10/19 28/12/21
f 103/15/24 108/13/22 118/14/23
f 98/17/26 103/15/24 123/16/25
f 93/19/28 98/17/26 128/18/27
f 153/20/29 277/87/156 281/21/30
f 148/23/32 153/20/29 9/22/31
f 143/25/34 148/23/32 78/24/33
f 138/3/3 143/25/34 83/26/35
f 193/10/36 285/97/167 289/27/37
f 188/13/39 193/10/36 73/12/38
f 183/15/41 188/13/39 198/14/40
f 178/17/43 183/15/41 203/16/42
f 173/19/45 178/17/43 208/18/44
f 233/20/46 293/107/178 297/28/47
f 228/23/49 233/20/46 54/22/48
f 223/25/51 228/23/49 158/24/50
f 218/3/6 223/25/51 163/26/52
f 30/29/53 301/117/189 305/30/54
f 120/32/56 30/29/53 195/31/55
f 125/34/58 120/32/56 190/33/57
f 130/36/60 125/34/58 185/35/59
f 135/38/62 130/36/60 180/37/61
f 56/39/63 309/127/198 313/40/64
f 160/42/66 56/39/63 155/41/65
f 165/44/68 160/42/66 150/43/67
f 170/9/12 165/44/68 145/45/69
f 11/29/70 317/137/207 321/46/71
f 80/32/73 11/29/70 235/31/72
f 85/34/75 80/32/73 230/33/74
f 90/36/77 85/34/75 225/35/76
f 95/38/79 90/36/77 220/37/78
f 75/39/80 325/147/216 329/47/81
f 200/42/83 75/39/80 115/41/82
f 205/44/85 200/42/83 110/43/84
f 210/9/18 205/44/85 105/45/86
f 237/4/7 239/52/91 240/48/87
f 238/49/88 240/48/87 7/50/89
f 239/52/91 4/168/210 5/53/92
f 240/48/87 5/53/92 1/54/93
f 241/55/94 243/60/99 244/56/95
f 242/57/96 244/56/95 36/58/97
f 243/60/99 33/165/159 34/61/100
f 244/56/95 34/61/100 32/62/101
f 245/5/8 247/67/106 248/63/102
f 246/64/103 248/63/102 48/65/104
f 247/67/106 51/166/201 52/68/107
f 248/63/102 52/68/107 46/69/108
f 249/6/9 251/74/113 252/70/109
f 250/71/110 252/70/109 43/72/111
f 251/74/113 40/167/181 41/75/114
f 252/70/109 41/75/114 39/76/115
f 253/4/13 255/52/120 256/48/116
f 254/49/117 256/48/116 22/50/118
f 255/52/120 25/168/192 26/53/121
f 256/48/116 26/53/121 20/54/122
f 257/55/123 259/60/128 260/56/124
f 258/57/125 260/56/124 17/58/126
f 259/60/128 14/165/148 15/61/129
f 260/56/124 15/61/129 13/62/130
f 261/5/14 263/67/135 264/63/131
f 262/64/132 264/63/131 67/65/133
f 263/67/135 70/166/219 71/68/136
f 264/63/131 71/68/136 65/69/137
f 265/6/15 267/74/142 268/70/138
f 266/71/139 268/70/138 62/72/140
f 267/74/142 59/167/170 60/75/143
f 268/70/138 60/75/143 58/76/144
f 269/77/145 271/80/149 272/78/146
f 270/79/147 272/78/146 15/65/129
f 271/80/149 18/179/223 19/81/150
f 272/78/146 19/81/150 13/69/130
f 273/11/20 275/86/155 276/82/151
f 274/83/152 276/82/151 24/84/153
f 275/86/155 21/167/119 22/75/118
f 276/82/151 22/75/118 20/76/122
f 277/87/156 279/90/160 280/88/157
f 278/89/158 280/88/157 34/50/100
f 279/90/160 37/196/205 38/91/161
f 280/88/157 38/91/161 32/54/101
f 281/21/30 283/96/166 284/92/162
f 282/93/163 284/92/162 3/94/164
f 283/96/166 6/165/90 7/61/89
f 284/92/162 7/61/89 1/62/93
f 285/97/167 287/100/171 288/98/168
f 286/99/169 288/98/168 60/65/143
f 287/100/171 63/207/196 64/101/172
f 288/98/168 64/101/172 58/69/144
f 289/27/37 291/106/177 292/102/173
f 290/103/174 292/102/173 69/104/175
f 291/106/177 66/167/134 67/75/133
f 292/102/173 67/75/133 65/76/137
f 293/107/178 295/110/182 296/108/179
f 294/109/180 296/108/179 41/50/114
f 295/110/182 44/208/214 45/111/183
f 296/108/179 45/111/183 39/54/115
f 297/28/47 299/116/188 300/112/184
f 298/113/185 300/112/184 50/114/186
f 299/116/188 47/165/105 48/61/104
f 300/112/184 48/61/104 46/62/108
f 301/117/189 303/120/193 304/118/190
f 302/119/191 304/118/190 26/58/121
f 303/120/193 23/211/154 24/121/153
f 304/118/190 24/121/153 20/62/122
f 305/30/54 307/126/197 308/122/194
f 306/123/195 308/122/194 64/124/172
f 307/126/197 61/166/141 62/68/140
f 308/122/194 62/68/140 58/69/144
f 309/127/198 311/130/202 312/128/199
f 310/129/200 312/128/199 52/72/107
f 311/130/202 49/228/187 50/131/186
f 312/128/199 50/131/186 46/76/108
f 313/40/64 315/136/206 316/132/203
f 314/133/204 316/132/203 38/134/161
f 315/136/206 35/168/98 36/53/97
f 316/132/203 36/53/97 32/54/101
f 317/137/207 319/140/211 320/138/208
f 318/139/209 320/138/208 5/58/92
f 319/140/211 2/239/165 3/141/164
f 320/138/208 3/141/164 1/62/93
f 321/46/71 323/146/215 324/142/212
f 322/143/213 324/142/212 45/144/183
f 323/146/215 42/166/112 43/68/111
f 324/142/212 43/68/111 39/69/115
f 325/147/216 327/150/220 328/148/217
f 326/149/218 328/148/217 71/72/136
f 327/150/220 68/240/176 69/151/175
f 328/148/217 69/151/175 65/76/137
f 329/47/81 331/156/224 332/152/221
f 330/153/222 332/152/221 19/154/150
f 331/156/224 16/168/127 17/53/126
f 332/152/221 17/53/126 13/54/130
f 93/19/28 88/1/1 89/157/225
f 94/158/226 89/157/225 87/159/227
f 138/3/3 133/2/2 134/161/229
f 139/162/230 134/161/229 132/163/231
f 173/19/45 168/1/4 169/157/233
f 174/158/234 169/157/233 167/159/235
f 218/3/6 213/2/5 214/161/237
f 219/162/238 214/161/237 212/163/239
f 241/55/94 237/4/7 238/49/88
f 243/60/99 238/49/88 6/51/90
f 245/5/8 241/55/94 242/57/96
f 247/67/106 242/57/96 35/59/98
f 249/6/9 245/5/8 246/64/103
f 251/74/113 246/64/103 47/66/105
f 237/4/7 249/6/9 250/71/110
f 239/52/91 250/71/110 42/73/112
f 135/38/62 140/7/10 141/169/241
f 136/170/242 141/169/241 137/171/232
f 170/9/12 175/8/11 176/173/243
f 171/174/244 176/173/243 172/175/236
f 257/55/123 253/4/13 254/49/117
f 259/60/128 254/49/117 21/51/119
f 261/5/14 257/55/123 258/57/125
f 263/67/135 258/57/125 16/59/127
f 265/6/15 261/5/14 262/64/132
f 267/74/142 262/64/132 66/66/134
f 253/4/13 265/6/15 266/71/139
f 255/52/120 266/71/139 61/73/141
f 95/38/79 100/7/16 101/169/245
f 96/170/246 101/169/245 97/171/247
f 210/9/18 215/8/17 216/173/248
f 211/174/249 216/173/248 212/175/239
f 269/77/145 113/10/19 114/177/251
f 271/80/149 114/177/251 112/178/252
f 273/11/20 269/77/145 270/79/147
f 275/86/155 270/79/147 14/66/148
f 28/12/21 273/11/20 274/83/152
f 29/180/253 274/83/152 23/85/154
f 113/10/19 108/13/22 109/182/255
f 114/177/251 109/182/255 107/183/256
f 118/14/23 28/12/21 29/180/253
f 119/184/257 29/180/253 27/181/254
f 108/13/22 103/15/24 104/186/259
f 109/182/255 104/186/259 102/187/260
f 123/16/25 118/14/23 119/184/257
f 124/188/261 119/184/257 117/185/258
f 103/15/24 98/17/26 99/190/263
f 104/186/259 99/190/263 97/191/247
f 128/18/27 123/16/25 124/188/261
f 129/192/264 124/188/261 122/189/262
f 98/17/26 93/19/28 94/158/226
f 99/190/263 94/158/226 92/160/228
f 133/2/2 128/18/27 129/192/264
f 134/161/229 129/192/264 127/193/265
f 277/87/156 153/20/29 154/194/266
f 279/90/160 154/194/266 152/195/267
f 281/21/30 277/87/156 278/89/158
f 283/96/166 278/89/158 33/51/159
f 9/22/31 281/21/30 282/93/163
f 10/197/268 282/93/163 2/95/165
f 153/20/29 148/23/32 149/199/270
f 154/194/266 149/199/270 147/200/271
f 78/24/33 9/22/31 10/197/268
f 79/201/272 10/197/268 8/198/269
f 148/23/32 143/25/34 144/203/274
f 149/199/270 144/203/274 142/204/275
f 83/26/35 78/24/33 79/201/272
f 84/205/276 79/201/272 77/202/273
f 143/25/34 138/3/3 139/162/230
f 144/203/274 139/162/230 137/164/232
f 88/1/1 83/26/35 84/205/276
f 89/157/225 84/205/276 82/206/277
f 285/97/167 193/10/36 194/177/278
f 287/100/171 194/177/278 192/178/279
f 289/27/37 285/97/167 286/99/169
f 291/106/177 286/99/169 59/66/170
f 73/12/38 289/27/37 290/103/174
f 74/180/280 290/103/174 68/105/176
f 193/10/36 188/13/39 189/182/282
f 194/177/278 189/182/282 187/183/283
f 198/14/40 73/12/38 74/180/280
f 199/184/284 74/180/280 72/181/281
f 188/13/39 183/15/41 184/186/286
f 189/182/282 184/186/286 182/187/287
f 203/16/42 198/14/40 199/184/284
f 204/188/288 199/184/284 197/185/285
f 183/15/41 178/17/43 179/190/290
f 184/186/286 179/190/290 177/191/291
f 208/18/44 203/16/42 204/188/288
f 209/192/292 204/188/288 202/189/289
f 178/17/43 173/19/45 174/158/234
f 179/190/290 174/158/234 172/160/236
f 213/2/5 208/18/44 209/192/292
f 214/161/237 209/192/292 207/193/250
f 293/107/178 233/20/46 234/194/293
f 295/110/182 234/194/293 232/195/294
f 297/28/47 293/107/178 294/109/180
f 299/116/188 294/109/180 40/51/181
f 54/22/48 297/28/47 298/113/185
f 55/197/295 298/113/185 49/115/187
f 233/20/46 228/23/49 229/199/297
f 234/194/293 229/199/297 227/200/298
f 158/24/50 54/22/48 55/197/295
f 159/201/299 55/197/295 53/198/296
f 228/23/49 223/25/51 224/203/301
f 229/199/297 224/203/301 222/204/302
f 163/26/52 158/24/50 159/201/299
f 164/205/303 159/201/299 157/202/300
f 223/25/51 218/3/6 219/162/238
f 224/203/301 219/162/238 217/164/240
f 168/1/4 163/26/52 164/205/303
f 169/157/233 164/205/303 162/206/304
f 301/117/189 30/29/53 31/209/305
f 303/120/193 31/209/305 27/210/254
f 305/30/54 301/117/189 302/119/191
f 307/126/197 302/119/191 25/59/192
f 195/31/55 305/30/54 306/123/195
f 196/212/306 306/123/195 63/125/196
f 30/29/53 120/32/56 121/214/307
f 31/209/305 121/214/307 117/215/258
f 190/33/57 195/31/55 196/212/306
f 191/216/308 196/212/306 192/213/279
f 120/32/56 125/34/58 126/218/309
f 121/214/307 126/218/309 122/219/262
f 185/35/59 190/33/57 191/216/308
f 186/220/310 191/216/308 187/217/283
f 125/34/58 130/36/60 131/222/311
f 126/218/309 131/222/311 127/223/265
f 180/37/61 185/35/59 186/220/310
f 181/224/312 186/220/310 182/221/287
f 130/36/60 135/38/62 136/170/242
f 131/222/311 136/170/242 132/172/231
f 175/8/11 180/37/61 181/224/312
f 176/173/243 181/224/312 177/225/291
f 309/127/198 56/39/63 57/226/313
f 311/130/202 57/226/313 53/227/296
f 313/40/64 309/127/198 310/129/200
f 315/136/206 310/129/200 51/73/201
f 155/41/65 313/40/64 314/133/204
f 156/229/314 314/133/204 37/135/205
f 56/39/63 160/42/66 161/231/315
f 57/226/313 161/231/315 157/232/300
f 150/43/67 155/41/65 156/229/314
f 151/233/316 156/229/314 152/230/267
f 160/42/66 165/44/68 166/235/317
f 161/231/315 166/235/317 162/236/304
f 145/45/69 150/43/67 151/233/316
f 146/237/318 151/233/316 147/234/271
f 165/44/68 170/9/12 171/174/244
f 166/235/317 171/174/244 167/176/235
f 140/7/10 145/45/69 146/237/318
f 141/169/241 146/237/318 142/238/275
f 317/137/207 11/29/70 12/209/319
f 319/140/211 12/209/319 8/210/269
f 321/46/71 317/137/207 318/139/209
f 323/146/215 318/139/209 4/59/210
f 235/31/72 321/46/71 322/143/213
f 236/212/320 322/143/213 44/145/214
f 11/29/70 80/32/73 81/214/321
f 12/209/319 81/214/321 77/215/273
f 230/33/74 235/31/72 236/212/320
f 231/216/322 236/212/320 232/213/294
f 80/32/73 85/34/75 86/218/323
f 81/214/321 86/218/323 82/219/277
f 225/35/76 230/33/74 231/216/322
f 226/220/324 231/216/322 227/217/298
f 85/34/75 90/36/77 91/222/325
f 86/218/323 91/222/325 87/223/227
f 220/37/78 225/35/76 226/220/324
f 221/224/326 226/220/324 222/221/302
f 90/36/77 95/38/79 96/170/246
f 91/222/325 96/170/246 92/172/228
f 215/8/17 220/37/78 221/224/326
f 216/173/248 221/224/326 217/225/240
f 325/147/216 75/39/80 76/226/327
f 327/150/220 76/226/327 72/227/281
f 329/47/81 325/147/216 326/149/218
f 331/156/224 326/149/218 70/73/219
f 115/41/82 329/47/81 330/153/222
f 116/229/328 330/153/222 18/155/223
f 75/39/80 200/42/83 201/231/329
f 76/226/327 201/231/329 197/232/285
f 110/43/84 115/41/82 116/229/328
f 111/233/330 116/229/328 112/230/252
f 200/42/83 205/44/85 206/235/331
f 201/231/329 206/235/331 202/236/289
f 105/45/86 110/43/84 111/233/330
f 106/237/332 111/233/330 107/234/256
f 205/44/85 210/9/18 211/174/249
f 206/235/331 211/174/249 207/176/250
f 100/7/16 105/45/86 106/237/332
f 101/169/245 106/237/332 102/238/260
f 333/62/333 335/69/333 336/76/333
f 337/54/334 338/62/334 340/69/334
f 333/54/335 334/62/335 338/69/335
f 334/54/336 336/62/336 340/69/336
f 336/54/337 335/62/337 339/69/337
f 335/54/338 333/62/338 337/69/338
f 341/62/333 343/69/333 344/76/333
f 345/54/334 346/62/334 348/69/334
f 341/54/335 342/62/335 346/69/335
f 342/54/336 344/62/336 348/69/336
f 344/54/337 343/62/337 347/69/337
f 343/54/338 341/62/338 345/69/338
