# Blender 4.0.0
# www.blender.org
mtllib Microwave011_Button10.mtl
o Microwave011_Button10
v 0.182615 -0.128805 0.091917
v 0.199803 -0.128806 0.089336
v 0.183019 -0.129456 0.091859
v 0.182667 -0.129453 0.089471
v 0.199391 -0.129453 0.089256
v 0.199741 -0.129453 0.091644
v 0.182798 -0.129485 0.091812
v 0.182712 -0.129485 0.089428
v 0.199514 -0.129485 0.089299
v 0.199699 -0.129484 0.091688
v 0.182669 -0.129472 0.091606
v 0.183037 -0.129479 0.089269
v 0.199736 -0.129476 0.089519
v 0.199366 -0.129479 0.091848
v 0.183011 -0.128837 0.091864
v 0.182661 -0.128837 0.089468
v 0.199395 -0.128836 0.089251
v 0.182661 -0.128827 0.091653
v 0.199764 -0.128812 0.089488
v 0.199419 -0.128812 0.091878
v 0.181850 -0.128759 0.094200
v 0.181764 -0.128761 0.087784
v 0.198873 -0.128932 0.089247
v 0.198886 -0.128835 0.091871
v 0.183553 -0.128835 0.091871
v 0.183528 -0.129456 0.089250
v 0.198828 -0.129464 0.089251
v 0.183537 -0.129454 0.091866
v 0.183550 -0.129472 0.091858
v 0.199637 -0.128806 0.089207
v 0.198866 -0.128824 0.089242
v 0.180760 -0.128760 0.088549
v 0.201649 -0.128627 0.088495
v 0.201649 -0.128641 0.093472
v 0.182655 -0.128836 0.089602
v 0.182661 -0.129455 0.091511
v 0.182660 -0.129453 0.089602
v 0.199747 -0.129453 0.091517
v 0.182644 -0.128811 0.091612
v 0.199753 -0.128826 0.091514
v 0.180767 -0.128762 0.088101
v 0.201245 -0.128762 0.087790
v 0.181164 -0.128758 0.094195
v 0.201640 -0.128775 0.093881
v 0.182630 -0.128806 0.089220
v 0.199786 -0.128805 0.091926
v 0.182667 -0.129453 0.091645
v 0.183023 -0.129471 0.089258
v 0.199741 -0.129453 0.089470
v 0.199394 -0.129453 0.091860
v 0.182683 -0.129482 0.091599
v 0.182871 -0.129485 0.089302
v 0.199693 -0.129485 0.089412
v 0.199548 -0.129485 0.091808
v 0.182674 -0.129477 0.089514
v 0.199343 -0.129479 0.089267
v 0.199735 -0.129477 0.091592
v 0.183008 -0.128830 0.089251
v 0.199746 -0.128835 0.089464
v 0.199402 -0.128835 0.091865
v 0.183065 -0.128812 0.091883
v 0.182644 -0.128812 0.089489
v 0.199344 -0.128811 0.089235
v 0.199747 -0.128827 0.091650
v 0.182726 -0.129455 0.091803
v 0.182724 -0.129453 0.089314
v 0.199682 -0.129455 0.089313
v 0.199684 -0.129455 0.091801
v 0.182737 -0.129477 0.091792
v 0.182734 -0.129477 0.089326
v 0.199672 -0.129477 0.089323
v 0.199673 -0.129477 0.091791
v 0.182720 -0.128838 0.091807
v 0.182718 -0.128836 0.089309
v 0.199688 -0.128837 0.089309
v 0.199688 -0.128837 0.091807
v 0.182710 -0.128813 0.091821
v 0.182705 -0.128813 0.089300
v 0.199701 -0.128813 0.089298
v 0.199701 -0.128812 0.091819
v 0.181234 -0.127939 0.087784
v 0.201649 -0.127939 0.088155
v 0.180760 -0.127939 0.093835
v 0.201163 -0.127939 0.094202
v 0.180759 -0.127939 0.088146
v 0.201176 -0.127939 0.087783
v 0.181219 -0.127939 0.094201
v 0.201648 -0.127939 0.093846
v 0.180821 -0.127939 0.087845
v 0.201586 -0.127939 0.087845
v 0.180821 -0.127939 0.094140
v 0.201586 -0.127939 0.094140
v 0.181154 -0.128762 0.087790
v 0.180765 -0.128638 0.093892
v 0.201253 -0.128641 0.094196
v 0.201493 -0.128801 0.094143
v 0.180908 -0.128801 0.094142
v 0.201434 -0.128805 0.087863
v 0.180843 -0.128803 0.087949
v 0.201566 -0.128803 0.087960
v 0.201558 -0.128805 0.093971
v 0.180823 -0.128760 0.087848
v 0.201583 -0.128760 0.087847
v 0.180824 -0.128760 0.094137
v 0.201584 -0.128761 0.094136
v 0.181242 -0.128787 0.087795
v 0.201632 -0.128787 0.088146
v 0.180771 -0.128786 0.093848
v 0.201196 -0.128785 0.094189
v 0.201641 -0.128781 0.093516
v 0.180776 -0.128787 0.088139
v 0.201166 -0.128787 0.087795
v 0.181231 -0.128787 0.094187
v 0.180843 -0.128794 0.087859
v 0.201568 -0.128794 0.087861
v 0.180836 -0.128794 0.094119
v 0.201569 -0.128794 0.094122
v 0.199853 -0.128805 0.089146
v 0.180850 -0.128805 0.093977
v 0.182528 -0.128805 0.089155
v 0.198840 -0.129462 0.091865
v 0.183070 -0.129479 0.091849
v 0.182656 -0.128835 0.091519
v 0.199752 -0.128838 0.089591
v 0.199766 -0.128810 0.091634
v 0.198924 -0.128812 0.091885
v 0.183533 -0.128830 0.089245
v 0.183060 -0.128810 0.089233
v 0.199747 -0.129452 0.089599
v 0.182697 -0.129477 0.091729
v 0.182797 -0.129477 0.089287
v 0.199710 -0.129477 0.089386
v 0.199611 -0.129477 0.091829
v 0.182686 -0.129453 0.091739
v 0.182787 -0.129455 0.089276
v 0.199721 -0.129455 0.089376
v 0.199620 -0.129455 0.091840
v 0.182681 -0.128836 0.091745
v 0.182782 -0.128836 0.089271
v 0.199726 -0.128837 0.089373
v 0.199624 -0.128838 0.091845
v 0.182671 -0.128812 0.091759
v 0.182766 -0.128812 0.089260
v 0.199740 -0.128812 0.089360
v 0.199636 -0.128812 0.091858
v 0.182799 -0.129477 0.091829
v 0.182696 -0.129477 0.089388
v 0.199608 -0.129477 0.089287
v 0.199711 -0.129477 0.091726
v 0.182789 -0.129456 0.091840
v 0.182686 -0.129453 0.089377
v 0.199618 -0.129456 0.089276
v 0.199722 -0.129453 0.091738
v 0.182783 -0.128837 0.091845
v 0.182680 -0.128837 0.089373
v 0.199624 -0.128837 0.089271
v 0.199727 -0.128836 0.091743
v 0.182775 -0.128813 0.091859
v 0.182667 -0.128813 0.089365
v 0.199637 -0.128812 0.089259
v 0.199738 -0.128812 0.091755
v 0.200599 -0.128641 0.094202
v 0.180886 -0.128641 0.094177
v 0.201523 -0.128638 0.094177
v 0.180785 -0.128798 0.093814
v 0.201153 -0.128798 0.094172
v 0.201616 -0.128798 0.088139
v 0.181267 -0.128798 0.087807
v 0.181249 -0.128798 0.094172
v 0.201155 -0.128798 0.087807
v 0.180792 -0.128798 0.088143
v 0.201622 -0.128798 0.093833
v 0.180805 -0.128794 0.087922
v 0.201505 -0.128795 0.087824
v 0.201607 -0.128795 0.094059
v 0.180907 -0.128795 0.087823
v 0.201605 -0.128794 0.087927
v 0.180800 -0.128795 0.094054
v 0.201642 -0.128767 0.088117
v 0.200579 -0.128768 0.094197
v 0.200596 -0.128760 0.087784
v 0.180761 -0.128762 0.093513
v 0.180786 -0.128761 0.087912
v 0.201519 -0.128761 0.087809
v 0.180891 -0.128780 0.094169
v 0.201622 -0.128761 0.094073
v 0.180887 -0.128761 0.087809
v 0.201621 -0.128761 0.087910
v 0.180786 -0.128760 0.094074
v 0.201514 -0.128781 0.094169
v 0.180978 -0.128805 0.087861
v 0.180783 -0.127939 0.087909
v 0.201523 -0.127939 0.087807
v 0.180885 -0.127939 0.094178
v 0.201625 -0.127939 0.094076
v 0.180885 -0.127939 0.087807
v 0.201625 -0.127939 0.087909
v 0.180783 -0.127939 0.094076
v 0.201523 -0.127939 0.094178
vn -0.0115 -0.9998 0.0149
vn -0.0244 -0.9933 -0.1133
vn -0.0027 -1.0000 -0.0014
vn -0.9695 -0.2447 -0.0164
vn -0.9711 -0.2381 0.0165
vn -0.9755 -0.2197 -0.0113
vn -0.0008 -0.2972 -0.9548
vn 0.0089 -0.3973 -0.9176
vn -0.0029 -0.2347 -0.9721
vn 0.9729 -0.2294 0.0277
vn 0.9736 -0.2276 -0.0152
vn 0.9399 -0.3405 0.0247
vn 0.9780 -0.2088 -0.0019
vn -0.0012 -0.3899 0.9208
vn 0.0126 -0.2724 0.9621
vn -0.0045 -0.2355 0.9719
vn 0.0193 -0.9842 -0.1759
vn 0.0250 -0.9901 0.1381
vn -0.1047 -0.9645 0.2424
vn -0.6542 -0.7559 -0.0269
vn -0.1642 -0.9853 -0.0479
vn -0.3269 -0.9447 0.0274
vn 0.0254 -0.7965 -0.6041
vn -0.0747 -0.4863 -0.8706
vn -0.0258 -0.9151 -0.4023
vn -0.0297 -0.9868 -0.1591
vn 0.6653 -0.7446 -0.0537
vn 0.1849 -0.9813 0.0537
vn 0.1663 -0.9844 -0.0577
vn -0.0217 -0.8017 0.5974
vn 0.0013 -0.6223 0.7828
vn -0.9746 -0.2235 0.0158
vn -0.8137 -0.5757 0.0799
vn 0.6566 -0.7526 0.0494
vn -0.4792 -0.8772 0.0311
vn -0.6083 -0.7934 -0.0238
vn 0.5022 -0.8639 -0.0391
vn 0.0102 -0.8307 0.5567
vn -0.0112 -0.8512 0.5248
vn -0.0147 -0.9996 -0.0249
vn -0.0096 -0.8494 -0.5277
vn 0.0171 -0.9982 -0.0578
vn -0.0077 -0.8577 -0.5141
vn 0.0269 -0.2767 -0.9606
vn 0.4373 -0.8987 0.0339
vn 0.0493 -0.9986 -0.0185
vn 0.0109 -0.9998 0.0151
vn 0.0546 -0.2507 -0.9665
vn 0.0039 -0.0249 -0.9997
vn 0.0609 -0.2291 -0.9715
vn -0.0709 -0.3161 -0.9461
vn 0.0490 -0.2746 0.9603
vn 0.0291 -0.8019 0.5967
vn -0.0071 -0.2040 0.9789
vn 0.0555 -0.2453 0.9679
vn 0.0298 -0.8642 0.5023
vn -0.9624 -0.2434 -0.1209
vn -0.9583 -0.2533 -0.1324
vn 0.9549 -0.2651 0.1339
vn 0.9124 -0.3831 0.1440
vn 0.9459 -0.2910 -0.1437
vn -0.9377 -0.3126 0.1520
vn -0.2820 -0.2793 0.9179
vn -0.6737 -0.2889 0.6802
vn -0.3041 -0.2755 0.9119
vn -0.0532 -0.2686 0.9618
vn -0.0548 -0.2649 0.9627
vn -0.8921 -0.2581 -0.3709
vn -0.9020 -0.2805 -0.3282
vn -0.6751 -0.2866 -0.6798
vn -0.6759 -0.3083 -0.6694
vn 0.2709 -0.2751 -0.9225
vn 0.6721 -0.2946 -0.6793
vn 0.3078 -0.2667 -0.9133
vn 0.8925 -0.2763 0.3564
vn 0.9053 -0.2720 0.3261
vn -0.5487 -0.8088 0.2115
vn -0.4097 -0.8182 -0.4034
vn 0.4091 -0.8152 0.4100
vn -0.8942 -0.2506 0.3710
vn -0.4170 -0.8085 0.4152
vn -0.3059 -0.2727 -0.9122
vn -0.1794 -0.8043 -0.5665
vn 0.8911 -0.2789 -0.3581
vn 0.5746 -0.7861 -0.2277
vn 0.3801 -0.8243 -0.4196
vn 0.3084 -0.2700 0.9121
vn 0.1881 -0.7998 0.5700
vn 0.6782 -0.2919 0.6744
vn -0.9043 -0.2750 0.3264
vn -0.2955 -0.9056 0.3042
vn -0.4298 -0.8856 0.1764
vn -0.2571 -0.2826 -0.9242
vn -0.3024 -0.9045 -0.3008
vn -0.1520 -0.8928 -0.4241
vn 0.8894 -0.3101 -0.3358
vn 0.3343 -0.8758 -0.3482
vn 0.4202 -0.8897 -0.1785
vn 0.2705 -0.2861 0.9192
vn 0.2926 -0.9126 0.2855
vn 0.1491 -0.8939 0.4227
vn -0.6710 -0.3042 0.6762
vn -0.9635 -0.2209 0.1510
vn 0.9551 -0.2598 -0.1427
vn 0.6643 -0.3227 -0.6743
vn 0.6696 -0.3231 0.6688
vn 0.1721 -0.8099 -0.5607
vn -0.1738 -0.7298 0.6612
vn -0.6102 -0.7622 -0.2161
vn 0.5798 -0.7876 0.2085
vn -0.1605 -0.8740 0.4587
vn -0.4588 -0.8673 -0.1930
vn 0.1782 -0.8699 -0.4599
vn 0.4541 -0.8723 0.1814
vn -0.0060 -0.2305 0.9731
vn 0.0325 -0.0011 0.9995
vn -0.0340 -0.0025 0.9994
vn 0.0092 -0.1885 -0.9820
vn -0.0332 -0.0023 -0.9994
vn 0.0343 -0.0029 -0.9994
vn -0.9674 -0.2532 -0.0052
vn -0.9989 -0.0010 0.0474
vn -0.9987 -0.0037 -0.0506
vn 0.9996 -0.0263 0.0060
vn 0.9988 -0.0028 -0.0491
vn 0.9987 -0.0026 0.0515
vn -0.9127 -0.2733 -0.3039
vn -0.9493 -0.0044 -0.3144
vn -0.6893 -0.2741 -0.6706
vn -0.7072 -0.0043 -0.7070
vn 0.3058 -0.2484 -0.9191
vn 0.2999 -0.0032 -0.9540
vn 0.6760 -0.2731 -0.6844
vn 0.7072 -0.0042 -0.7070
vn -0.3046 -0.0203 0.9523
vn -0.3008 -0.0027 0.9537
vn -0.6761 -0.2613 0.6889
vn -0.7069 -0.0043 0.7073
vn 0.9132 -0.2546 0.3181
vn 0.9492 -0.0039 0.3146
vn 0.6847 -0.2646 0.6791
vn 0.7077 -0.0027 0.7065
vn -0.3131 -0.2504 -0.9161
vn -0.2994 -0.0027 -0.9541
vn -0.0506 -0.1995 -0.9786
vn 0.9073 -0.2707 -0.3218
vn 0.9497 -0.0041 -0.3131
vn 0.9596 -0.2745 -0.0623
vn -0.9116 -0.2539 0.3234
vn -0.9493 -0.0019 0.3144
vn -0.9978 -0.0247 0.0612
vn 0.3126 -0.0265 0.9495
vn 0.2991 -0.0004 0.9542
vn 0.0430 -0.0368 0.9984
vn -0.0065 -0.9290 0.3699
vn 0.0855 -0.9439 0.3191
vn 0.0097 -0.9272 0.3745
vn -0.0897 -0.9407 0.3271
vn 0.0072 -0.9036 -0.4282
vn -0.0112 -0.9068 -0.4215
vn 0.0292 -0.5195 -0.8540
vn -0.0372 -0.5293 -0.8476
vn 0.0286 -0.9939 -0.1062
vn -0.3601 -0.9328 -0.0120
vn -0.0755 -0.9968 0.0247
vn -0.4091 -0.9124 0.0112
vn -0.1094 -0.9931 -0.0426
vn 0.3511 -0.9362 -0.0155
vn 0.9039 -0.4277 -0.0057
vn 0.4829 -0.8756 0.0134
vn -0.5589 -0.8060 -0.1952
vn -0.7846 -0.6193 -0.0297
vn 0.1787 -0.7928 -0.5827
vn 0.4157 -0.8051 -0.4231
vn 0.1091 -0.9934 -0.0356
vn -0.2512 -0.4915 0.8339
vn -0.0359 -0.5852 0.8101
vn -0.4421 -0.8096 0.3861
vn 0.5638 -0.8038 0.1895
vn 0.0757 -0.9968 0.0243
vn 0.9313 -0.3599 0.0568
vn 0.4109 -0.8233 0.3916
vn -0.1618 -0.7841 -0.5992
vn -0.3890 -0.8189 -0.4219
vn 0.5666 -0.8041 -0.1800
vn 0.7520 -0.6589 -0.0197
vn -0.5755 -0.8023 0.1584
vn -0.8855 -0.4616 0.0532
vn 0.0492 -0.4916 0.8694
vn -0.9771 -0.2126 0.0016
vn 0.0035 -0.0223 0.9997
vn 0.0028 -0.2020 -0.9794
vn 0.9997 -0.0230 -0.0039
vn -0.9725 -0.2240 -0.0641
vn 0.0491 -0.1869 -0.9811
vn -0.0432 -0.1814 0.9825
vn 0.2430 -0.4907 0.8367
vn 0.0019 -1.0000 -0.0024
vn 0.0027 -0.2634 0.9647
vt 0.582529 0.726399
vt 0.582619 0.686257
vt 0.582536 0.687610
vt 0.582259 0.691483
vt 0.582259 0.722569
vt 0.582259 0.691475
vt 0.584454 0.685774
vt 0.622576 0.685774
vt 0.584455 0.685774
vt 0.624772 0.722580
vt 0.624772 0.691484
vt 0.624772 0.722496
vt 0.624772 0.691483
vt 0.622576 0.728288
vt 0.622575 0.728288
vt 0.584456 0.728288
vt 0.624251 0.686461
vt 0.624330 0.727544
vt 0.582594 0.726918
vt 0.582282 0.690029
vt 0.582390 0.688555
vt 0.582284 0.724095
vt 0.623780 0.685968
vt 0.583186 0.685976
vt 0.583189 0.685977
vt 0.582733 0.686498
vt 0.624750 0.690071
vt 0.624641 0.725513
vt 0.624624 0.688345
vt 0.583249 0.728094
vt 0.584455 0.728288
vt 0.582259 0.722575
vt 0.582282 0.724075
vt 0.624751 0.723910
vt 0.582277 0.723800
vt 0.582283 0.689877
vt 0.624749 0.689977
vt 0.622579 0.728288
vt 0.583304 0.728108
vt 0.582542 0.687582
vt 0.623724 0.685955
vt 0.624286 0.686475
vt 0.583322 0.685952
vt 0.622576 0.685774
vt 0.624748 0.724126
vt 0.624628 0.688395
vt 0.624495 0.726438
vt 0.623876 0.685981
vt 0.622575 0.685774
vt 0.623876 0.685980
vt 0.583155 0.685979
vt 0.623876 0.728083
vt 0.623830 0.728087
vt 0.584456 0.728288
vt 0.623876 0.728081
vt 0.623877 0.728085
vt 0.582290 0.689475
vt 0.582290 0.689459
vt 0.624741 0.724588
vt 0.624741 0.724608
vt 0.624741 0.689459
vt 0.582290 0.724608
vt 0.582638 0.727466
vt 0.582512 0.726635
vt 0.582638 0.727461
vt 0.583155 0.728083
vt 0.583156 0.728081
vt 0.582385 0.688254
vt 0.582385 0.688240
vt 0.582512 0.687428
vt 0.582511 0.687418
vt 0.624394 0.686596
vt 0.624520 0.687428
vt 0.624393 0.686601
vt 0.624646 0.725808
vt 0.624646 0.725823
vt 0.582385 0.725790
vt 0.582512 0.687441
vt 0.624519 0.726622
vt 0.582385 0.725808
vt 0.582512 0.726622
vt 0.582638 0.686601
vt 0.582638 0.686608
vt 0.624646 0.688254
vt 0.624646 0.688272
vt 0.624519 0.687440
vt 0.624393 0.727461
vt 0.624393 0.727455
vt 0.624520 0.726635
vt 0.582385 0.725823
vt 0.582511 0.726658
vt 0.582385 0.725844
vt 0.582638 0.686596
vt 0.582511 0.687405
vt 0.582637 0.686589
vt 0.624646 0.688240
vt 0.624520 0.687405
vt 0.624646 0.688218
vt 0.624393 0.727466
vt 0.624520 0.726658
vt 0.624394 0.727473
vt 0.582511 0.726645
vt 0.582290 0.724588
vt 0.624741 0.689475
vt 0.624520 0.687418
vt 0.624520 0.726645
vt 0.624393 0.686608
vt 0.582639 0.727455
vt 0.582385 0.688273
vt 0.624646 0.725788
vt 0.582638 0.727473
vt 0.582385 0.688220
vt 0.624394 0.686590
vt 0.624646 0.725843
vt 0.584409 0.728288
vt 0.623771 0.728215
vt 0.583210 0.728212
vt 0.622729 0.685774
vt 0.583239 0.685848
vt 0.623798 0.685848
vt 0.582259 0.690498
vt 0.582281 0.725815
vt 0.582282 0.688225
vt 0.624772 0.723544
vt 0.624751 0.688288
vt 0.624750 0.725887
vt 0.582362 0.686792
vt 0.582362 0.686783
vt 0.582466 0.686453
vt 0.582466 0.686447
vt 0.624462 0.686114
vt 0.624462 0.686111
vt 0.624565 0.686453
vt 0.624566 0.686447
vt 0.582569 0.727951
vt 0.582569 0.727952
vt 0.582466 0.727611
vt 0.582466 0.727615
vt 0.624669 0.727272
vt 0.624669 0.727279
vt 0.624565 0.727611
vt 0.624566 0.727615
vt 0.582569 0.686114
vt 0.582569 0.686111
vt 0.583081 0.685859
vt 0.624669 0.686792
vt 0.624669 0.686783
vt 0.624749 0.688062
vt 0.582362 0.727272
vt 0.582362 0.727279
vt 0.582285 0.726179
vt 0.624462 0.727951
vt 0.624462 0.727952
vt 0.623950 0.728204
vt 0.583225 0.728212
vt 0.624458 0.727925
vt 0.623794 0.728213
vt 0.582573 0.727946
vt 0.623811 0.685851
vt 0.583250 0.685849
vt 0.623805 0.685850
vt 0.583227 0.685850
vt 0.624426 0.686234
vt 0.582283 0.688091
vt 0.582408 0.727209
vt 0.582282 0.725837
vt 0.582407 0.686812
vt 0.624748 0.688065
vt 0.624772 0.723696
vt 0.624748 0.725960
vt 0.582362 0.686805
vt 0.582283 0.688129
vt 0.624461 0.686118
vt 0.624565 0.686462
vt 0.624639 0.686869
vt 0.582570 0.727948
vt 0.583209 0.728212
vt 0.582466 0.727604
vt 0.624669 0.727262
vt 0.624648 0.727073
vt 0.624747 0.726170
vt 0.624565 0.727604
vt 0.582570 0.686119
vt 0.582466 0.686462
vt 0.624669 0.686805
vt 0.624750 0.688172
vt 0.582363 0.727261
vt 0.582283 0.725976
vt 0.623864 0.728209
vt 0.582259 0.723498
vt 0.622621 0.728288
vt 0.584348 0.685774
vt 0.624772 0.690562
vt 0.582285 0.687891
vt 0.623950 0.685859
vt 0.583081 0.728203
vt 0.624462 0.727948
vt 0.624465 0.687408
vt 0.622601 0.728288
s 1
f 1/1/1 191/2/2 120/3/3
f 37/4/4 123/5/5 35/6/6
f 127/7/7 27/8/8 26/9/9
f 38/10/10 124/11/11 40/12/12
f 124/11/11 38/10/10 129/13/13
f 121/14/14 24/15/15 25/16/16
f 9/17/17 54/18/18 7/19/19
f 55/20/20 8/21/21 51/22/22
f 56/23/23 48/24/24 27/8/8
f 12/25/25 9/17/17 52/26/26
f 13/27/27 10/28/28 53/29/29
f 122/30/30 121/14/14 29/31/31
f 36/32/32 55/20/20 11/33/33
f 26/9/9 27/8/8 48/24/24
f 38/10/10 57/34/34 13/27/27
f 35/6/6 39/35/35 62/36/36
f 124/11/11 19/37/37 40/12/12
f 25/16/16 126/38/38 61/39/39
f 62/36/36 1/1/1 45/40/40
f 63/41/41 45/40/40 30/42/42
f 128/43/43 31/44/44 127/7/7
f 125/45/45 2/46/46 46/47/47
f 61/39/39 46/47/47 1/1/1
f 5/48/48 23/49/49 17/50/50
f 23/49/49 5/48/48 27/8/8
f 58/51/51 26/9/9 48/24/24
f 121/14/14 60/52/52 24/15/15
f 14/53/53 7/19/19 54/18/18
f 28/54/54 122/30/30 29/31/31
f 50/55/55 121/14/14 14/53/53
f 17/50/50 31/44/44 63/41/41
f 31/44/44 17/50/50 23/49/49
f 24/15/15 20/56/56 126/38/38
f 128/43/43 127/7/7 58/51/51
f 4/57/57 35/6/6 16/58/58
f 6/59/59 40/12/12 64/60/60
f 129/13/13 59/61/61 124/11/11
f 123/5/5 18/62/62 39/35/35
f 125/45/45 64/60/60 40/12/12
f 154/63/63 65/64/64 150/65/65
f 15/66/66 150/65/65 3/67/67
f 151/68/68 16/58/58 155/69/69
f 66/70/70 155/69/69 74/71/71
f 156/72/72 67/73/73 152/74/74
f 153/75/75 64/60/60 157/76/76
f 130/77/77 51/22/22 7/19/19
f 51/22/22 130/77/77 11/33/33
f 70/78/78 52/26/26 8/21/21
f 72/79/79 54/18/18 10/28/28
f 134/80/80 11/33/33 130/77/77
f 65/64/64 130/77/77 69/81/81
f 135/82/82 12/25/25 131/83/83
f 66/70/70 131/83/83 70/78/78
f 136/84/84 13/27/27 132/85/85
f 67/73/73 132/85/85 71/86/86
f 137/87/87 14/53/53 133/88/88
f 68/89/89 133/88/88 72/79/79
f 138/90/90 77/91/91 142/92/92
f 139/93/93 78/94/94 143/95/95
f 140/96/96 79/97/97 144/98/98
f 59/61/61 144/98/98 19/37/37
f 141/99/99 80/100/100 145/101/101
f 60/52/52 145/101/101 20/56/56
f 134/80/80 73/102/102 138/90/90
f 47/103/103 138/90/90 18/62/62
f 73/102/102 134/80/80 65/64/64
f 139/93/93 48/24/24 135/82/82
f 49/104/104 140/96/96 59/61/61
f 140/96/96 49/104/104 136/84/84
f 75/105/105 136/84/84 67/73/73
f 50/55/55 141/99/99 60/52/52
f 141/99/99 50/55/55 137/87/87
f 76/106/106 137/87/87 68/89/89
f 148/107/107 53/29/29 9/17/17
f 150/65/65 69/81/81 146/108/108
f 3/67/67 146/108/108 122/30/30
f 151/68/68 70/78/78 147/109/109
f 4/57/57 147/109/109 55/20/20
f 152/74/74 71/86/86 148/107/107
f 5/48/48 148/107/107 56/23/23
f 153/75/75 72/79/79 149/110/110
f 6/59/59 149/110/110 57/34/34
f 154/63/63 61/39/39 158/111/111
f 73/102/102 158/111/111 77/91/91
f 155/69/69 62/36/36 159/112/112
f 74/71/71 159/112/112 78/94/94
f 156/72/72 63/41/41 160/113/113
f 75/105/105 160/113/113 79/97/97
f 157/76/76 64/60/60 161/114/114
f 76/106/106 161/114/114 80/100/100
f 79/97/97 30/42/42 2/46/46
f 125/45/45 161/114/114 64/60/60
f 21/115/115 84/116/116 87/117/117
f 181/118/118 81/119/119 86/120/120
f 32/121/121 83/122/122 85/123/123
f 34/124/124 82/125/125 88/126/126
f 183/127/127 85/123/123 192/128/128
f 102/129/129 192/128/128 89/130/130
f 184/131/131 86/120/120 193/132/132
f 103/133/133 193/132/132 90/134/134
f 163/135/135 87/117/117 194/136/136
f 104/137/137 194/136/136 91/138/138
f 186/139/139 88/126/126 195/140/140
f 105/141/141 195/140/140 92/142/142
f 187/143/143 89/130/130 196/144/144
f 93/145/145 196/144/144 81/119/119
f 188/146/146 90/134/134 197/147/147
f 179/148/148 197/147/147 82/125/125
f 189/149/149 91/138/138 198/150/150
f 94/151/151 198/150/150 83/122/122
f 164/152/152 92/142/142 199/153/153
f 95/154/154 199/153/153 84/116/116
f 169/155/155 96/156/156 166/157/157
f 96/156/156 169/155/155 97/158/158
f 170/159/159 191/2/2 168/160/160
f 112/161/161 168/160/160 106/162/162
f 191/2/2 170/159/159 98/163/163
f 171/164/164 119/165/165 165/166/166
f 119/165/165 171/164/164 99/167/167
f 167/168/168 110/169/169 172/170/170
f 173/171/171 99/167/167 171/164/164
f 173/171/171 171/164/164 111/172/172
f 174/173/173 98/163/163 170/159/159
f 174/173/173 170/159/159 112/161/161
f 98/163/163 115/174/174 100/175/175
f 185/176/176 169/155/155 113/177/177
f 97/158/158 116/178/178 119/165/165
f 175/179/179 101/180/180 172/170/170
f 175/179/179 172/170/170 44/181/181
f 101/180/180 117/182/182 96/156/156
f 176/183/183 99/167/167 114/184/184
f 176/183/183 106/162/162 168/160/160
f 177/185/185 100/175/175 115/174/174
f 177/185/185 107/186/186 167/168/168
f 178/187/187 119/165/165 116/178/178
f 178/187/187 108/188/188 165/166/166
f 96/156/156 109/189/189 166/157/157
f 182/190/190 108/188/188 94/151/151
f 162/191/191 109/189/189 95/154/154
f 22/192/192 106/162/162 93/145/145
f 109/189/189 21/115/115 113/177/177
f 181/118/118 106/162/162 22/192/192
f 108/188/188 32/121/121 111/172/172
f 34/124/124 179/148/148 33/193/193
f 179/148/148 34/124/124 110/169/169
f 183/127/127 111/172/172 41/194/194
f 173/171/171 102/129/129 114/184/184
f 184/131/131 112/161/161 42/195/195
f 174/173/173 103/133/133 115/174/174
f 185/176/176 113/177/177 43/196/196
f 185/176/176 104/137/137 116/178/178
f 175/179/179 105/141/141 117/182/182
f 187/143/143 114/184/184 102/129/129
f 176/183/183 93/145/145 106/162/162
f 188/146/146 115/174/174 103/133/133
f 177/185/185 179/148/148 107/186/186
f 189/149/149 116/178/178 104/137/137
f 189/149/149 94/151/151 108/188/188
f 190/197/197 117/182/182 105/141/141
f 190/197/197 95/154/154 109/189/189
f 1/1/1 120/3/3 45/40/40
f 119/165/165 99/167/167 191/2/2
f 118/198/198 45/40/40 120/3/3
f 101/180/180 46/47/47 118/198/198
f 101/180/180 118/198/198 98/163/163
f 101/180/180 98/163/163 100/175/175
f 101/180/180 97/158/158 119/165/165
f 30/42/42 118/198/198 2/46/46
f 36/32/32 123/5/5 37/4/4
f 127/7/7 23/49/49 27/8/8
f 28/54/54 121/14/14 25/16/16
f 8/21/21 7/19/19 51/22/22
f 53/29/29 10/28/28 54/18/18
f 55/20/20 51/22/22 11/33/33
f 56/23/23 12/25/25 48/24/24
f 12/25/25 56/23/23 9/17/17
f 13/27/27 57/34/34 10/28/28
f 122/30/30 14/53/53 121/14/14
f 14/53/53 122/30/30 7/19/19
f 36/32/32 37/4/4 55/20/20
f 129/13/13 38/10/10 13/27/27
f 121/14/14 28/54/54 29/31/31
f 35/6/6 123/5/5 39/35/35
f 127/7/7 31/44/44 23/49/49
f 25/16/16 24/15/15 126/38/38
f 62/36/36 39/35/35 1/1/1
f 63/41/41 128/43/43 45/40/40
f 128/43/43 63/41/41 31/44/44
f 125/45/45 19/37/37 2/46/46
f 19/37/37 125/45/45 40/12/12
f 61/39/39 126/38/38 46/47/47
f 54/18/18 9/17/17 53/29/29
f 7/19/19 8/21/21 52/26/26
f 58/51/51 127/7/7 26/9/9
f 15/66/66 28/54/54 25/16/16
f 28/54/54 15/66/66 3/67/67
f 121/14/14 50/55/55 60/52/52
f 52/26/26 9/17/17 7/19/19
f 27/8/8 5/48/48 56/23/23
f 28/54/54 3/67/67 122/30/30
f 15/66/66 25/16/16 61/39/39
f 24/15/15 60/52/52 20/56/56
f 126/38/38 20/56/56 46/47/47
f 4/57/57 37/4/4 35/6/6
f 47/103/103 123/5/5 36/32/32
f 123/5/5 47/103/103 18/62/62
f 6/59/59 38/10/10 40/12/12
f 129/13/13 49/104/104 59/61/61
f 37/4/4 4/57/57 55/20/20
f 47/103/103 36/32/32 11/33/33
f 38/10/10 6/59/59 57/34/34
f 49/104/104 129/13/13 13/27/27
f 16/58/58 35/6/6 62/36/36
f 124/11/11 59/61/61 19/37/37
f 154/63/63 73/102/102 65/64/64
f 15/66/66 154/63/63 150/65/65
f 151/68/68 4/57/57 16/58/58
f 66/70/70 151/68/68 155/69/69
f 156/72/72 5/48/48 17/50/50
f 156/72/72 75/105/105 67/73/73
f 5/48/48 156/72/72 152/74/74
f 153/75/75 6/59/59 64/60/60
f 76/106/106 153/75/75 157/76/76
f 153/75/75 76/106/106 68/89/89
f 69/81/81 130/77/77 7/19/19
f 131/83/83 12/25/25 52/26/26
f 70/78/78 131/83/83 52/26/26
f 132/85/85 13/27/27 53/29/29
f 71/86/86 132/85/85 53/29/29
f 133/88/88 14/53/53 54/18/18
f 72/79/79 133/88/88 54/18/18
f 134/80/80 47/103/103 11/33/33
f 65/64/64 134/80/80 130/77/77
f 135/82/82 48/24/24 12/25/25
f 66/70/70 135/82/82 131/83/83
f 136/84/84 49/104/104 13/27/27
f 67/73/73 136/84/84 132/85/85
f 137/87/87 50/55/55 14/53/53
f 68/89/89 137/87/87 133/88/88
f 138/90/90 73/102/102 77/91/91
f 18/62/62 138/90/90 142/92/92
f 139/93/93 74/71/71 78/94/94
f 58/51/51 139/93/93 143/95/95
f 140/96/96 75/105/105 79/97/97
f 59/61/61 140/96/96 144/98/98
f 141/99/99 76/106/106 80/100/100
f 60/52/52 141/99/99 145/101/101
f 142/92/92 39/35/35 18/62/62
f 142/92/92 77/91/91 1/1/1
f 39/35/35 142/92/92 1/1/1
f 143/95/95 128/43/43 58/51/51
f 143/95/95 78/94/94 45/40/40
f 128/43/43 143/95/95 45/40/40
f 144/98/98 79/97/97 2/46/46
f 19/37/37 144/98/98 2/46/46
f 145/101/101 80/100/100 46/47/47
f 20/56/56 145/101/101 46/47/47
f 47/103/103 134/80/80 138/90/90
f 139/93/93 66/70/70 74/71/71
f 139/93/93 58/51/51 48/24/24
f 66/70/70 139/93/93 135/82/82
f 75/105/105 140/96/96 136/84/84
f 76/106/106 141/99/99 137/87/87
f 146/108/108 69/81/81 7/19/19
f 122/30/30 146/108/108 7/19/19
f 147/109/109 70/78/78 8/21/21
f 55/20/20 147/109/109 8/21/21
f 148/107/107 71/86/86 53/29/29
f 56/23/23 148/107/107 9/17/17
f 149/110/110 72/79/79 10/28/28
f 57/34/34 149/110/110 10/28/28
f 150/65/65 65/64/64 69/81/81
f 3/67/67 150/65/65 146/108/108
f 151/68/68 66/70/70 70/78/78
f 4/57/57 151/68/68 147/109/109
f 152/74/74 67/73/73 71/86/86
f 5/48/48 152/74/74 148/107/107
f 153/75/75 68/89/89 72/79/79
f 6/59/59 153/75/75 149/110/110
f 154/63/63 15/66/66 61/39/39
f 73/102/102 154/63/63 158/111/111
f 155/69/69 16/58/58 62/36/36
f 74/71/71 155/69/69 159/112/112
f 156/72/72 17/50/50 63/41/41
f 75/105/105 156/72/72 160/113/113
f 76/106/106 157/76/76 161/114/114
f 158/111/111 61/39/39 1/1/1
f 77/91/91 158/111/111 1/1/1
f 159/112/112 62/36/36 45/40/40
f 78/94/94 159/112/112 45/40/40
f 160/113/113 63/41/41 30/42/42
f 79/97/97 160/113/113 30/42/42
f 161/114/114 125/45/45 46/47/47
f 80/100/100 161/114/114 46/47/47
f 182/190/190 94/151/151 83/122/122
f 162/191/191 95/154/154 84/116/116
f 33/193/193 179/148/148 82/125/125
f 22/192/192 93/145/145 81/119/119
f 21/115/115 162/191/191 84/116/116
f 43/196/196 21/115/115 87/117/117
f 181/118/118 22/192/192 81/119/119
f 42/195/195 181/118/118 86/120/120
f 32/121/121 182/190/190 83/122/122
f 41/194/194 32/121/121 85/123/123
f 34/124/124 33/193/193 82/125/125
f 44/181/181 34/124/124 88/126/126
f 183/127/127 41/194/194 85/123/123
f 102/129/129 183/127/127 192/128/128
f 184/131/131 42/195/195 86/120/120
f 103/133/133 184/131/131 193/132/132
f 163/135/135 43/196/196 87/117/117
f 104/137/137 163/135/135 194/136/136
f 186/139/139 44/181/181 88/126/126
f 105/141/141 186/139/139 195/140/140
f 187/143/143 102/129/129 89/130/130
f 93/145/145 187/143/143 196/144/144
f 188/146/146 103/133/133 90/134/134
f 179/148/148 188/146/146 197/147/147
f 189/149/149 104/137/137 91/138/138
f 94/151/151 189/149/149 198/150/150
f 164/152/152 105/141/141 92/142/142
f 95/154/154 164/152/152 199/153/153
f 109/189/189 169/155/155 166/157/157
f 169/155/155 109/189/189 113/177/177
f 112/161/161 170/159/159 168/160/160
f 108/188/188 171/164/164 165/166/166
f 171/164/164 108/188/188 111/172/172
f 167/168/168 101/180/180 100/175/175
f 167/168/168 107/186/186 110/169/169
f 101/180/180 167/168/168 172/170/170
f 172/170/170 110/169/169 44/181/181
f 99/167/167 173/171/171 114/184/184
f 98/163/163 174/173/173 115/174/174
f 185/176/176 97/158/158 169/155/155
f 97/158/158 185/176/176 116/178/178
f 101/180/180 175/179/179 117/182/182
f 176/183/183 191/2/2 99/167/167
f 191/2/2 176/183/183 168/160/160
f 100/175/175 177/185/185 167/168/168
f 119/165/165 178/187/187 165/166/166
f 190/197/197 96/156/156 117/182/182
f 96/156/156 190/197/197 109/189/189
f 162/191/191 180/199/199 109/189/189
f 180/199/199 162/191/191 21/115/115
f 109/189/189 180/199/199 21/115/115
f 113/177/177 21/115/115 43/196/196
f 181/118/118 112/161/161 106/162/162
f 112/161/161 181/118/118 42/195/195
f 108/188/188 182/190/190 32/121/121
f 111/172/172 32/121/121 41/194/194
f 107/186/186 179/148/148 110/169/169
f 110/169/169 34/124/124 44/181/181
f 183/127/127 173/171/171 111/172/172
f 173/171/171 183/127/127 102/129/129
f 184/131/131 174/173/173 112/161/161
f 174/173/173 184/131/131 103/133/133
f 163/135/135 185/176/176 43/196/196
f 185/176/176 163/135/135 104/137/137
f 186/139/139 175/179/179 44/181/181
f 175/179/179 186/139/139 105/141/141
f 187/143/143 176/183/183 114/184/184
f 176/183/183 187/143/143 93/145/145
f 188/146/146 177/185/185 115/174/174
f 177/185/185 188/146/146 179/148/148
f 189/149/149 178/187/187 116/178/178
f 178/187/187 189/149/149 108/188/188
f 164/152/152 190/197/197 105/141/141
f 190/197/197 164/152/152 95/154/154
f 1/1/1 119/165/165 191/2/2
f 118/198/198 30/42/42 45/40/40
f 191/2/2 118/198/198 120/3/3
f 118/198/198 191/2/2 98/163/163
f 1/1/1 101/180/180 119/165/165
f 101/180/180 1/1/1 46/47/47
f 101/180/180 96/156/156 97/158/158
f 2/46/46 118/198/198 46/47/47
