# Blender 4.0.0
# www.blender.org
mtllib Microwave011_Button4.mtl
o Microwave011_Button4
v 0.182604 -0.128820 0.157431
v 0.199808 -0.128820 0.155234
v 0.183013 -0.129385 0.157629
v 0.182666 -0.129385 0.155238
v 0.199394 -0.129385 0.155023
v 0.199742 -0.129385 0.157414
v 0.183137 -0.129498 0.157594
v 0.182700 -0.129498 0.155323
v 0.199273 -0.129498 0.155058
v 0.199707 -0.129498 0.157340
v 0.182674 -0.129486 0.157406
v 0.183022 -0.129486 0.155032
v 0.199733 -0.129486 0.155246
v 0.199386 -0.129486 0.157620
v 0.183011 -0.128933 0.157631
v 0.182664 -0.128933 0.155236
v 0.199396 -0.128933 0.155021
v 0.199744 -0.128933 0.157416
v 0.182656 -0.128833 0.157426
v 0.183002 -0.128833 0.155014
v 0.199754 -0.128833 0.155229
v 0.199404 -0.128833 0.157641
v 0.200592 -0.128665 0.159970
v 0.181815 -0.128665 0.159970
v 0.181808 -0.128652 0.153551
v 0.200591 -0.128665 0.153551
v 0.183540 -0.128933 0.155015
v 0.198867 -0.128933 0.157638
v 0.183541 -0.128933 0.157638
v 0.199533 -0.129499 0.155104
v 0.183540 -0.129385 0.155017
v 0.198867 -0.129385 0.155017
v 0.198866 -0.129385 0.157636
v 0.183542 -0.129385 0.157636
v 0.183550 -0.129486 0.155026
v 0.198858 -0.129486 0.155026
v 0.198859 -0.129486 0.157627
v 0.183550 -0.129486 0.157627
v 0.183019 -0.128820 0.154971
v 0.199391 -0.128820 0.154970
v 0.199360 -0.128820 0.157702
v 0.183027 -0.128820 0.157702
v 0.183531 -0.128833 0.155007
v 0.198876 -0.128833 0.155007
v 0.198874 -0.128833 0.157647
v 0.183534 -0.128833 0.157647
v 0.180759 -0.128672 0.159248
v 0.180759 -0.128665 0.154265
v 0.201648 -0.128672 0.154275
v 0.201649 -0.128665 0.159249
v 0.182657 -0.128923 0.157288
v 0.182657 -0.128933 0.155367
v 0.199750 -0.128936 0.155370
v 0.199750 -0.128933 0.157286
v 0.182744 -0.129499 0.155291
v 0.182659 -0.129386 0.157284
v 0.182659 -0.129386 0.155369
v 0.199748 -0.129385 0.155368
v 0.199748 -0.129385 0.157284
v 0.182668 -0.129486 0.157277
v 0.182668 -0.129486 0.155375
v 0.199740 -0.129486 0.155375
v 0.199740 -0.129486 0.157277
v 0.182649 -0.128833 0.157293
v 0.182648 -0.128833 0.155362
v 0.199760 -0.128833 0.155368
v 0.199759 -0.128833 0.157283
v 0.182929 -0.129499 0.157551
v 0.180766 -0.128665 0.153863
v 0.201249 -0.128652 0.153557
v 0.181158 -0.128651 0.159964
v 0.201642 -0.128665 0.159658
v 0.182599 -0.128820 0.155223
v 0.199803 -0.128820 0.157448
v 0.182666 -0.129385 0.157414
v 0.183013 -0.129385 0.155023
v 0.199742 -0.129385 0.155238
v 0.199394 -0.129385 0.157629
v 0.182700 -0.129498 0.157341
v 0.183077 -0.129498 0.155062
v 0.199707 -0.129498 0.155308
v 0.199275 -0.129498 0.157595
v 0.183022 -0.129486 0.157620
v 0.182674 -0.129486 0.155246
v 0.199386 -0.129486 0.155032
v 0.199733 -0.129486 0.157406
v 0.182664 -0.128933 0.157416
v 0.183011 -0.128933 0.155021
v 0.199744 -0.128933 0.155236
v 0.199396 -0.128933 0.157631
v 0.183004 -0.128833 0.157641
v 0.182654 -0.128833 0.155229
v 0.199406 -0.128833 0.155014
v 0.199752 -0.128833 0.157426
v 0.180892 -0.128817 0.153668
v 0.201515 -0.128817 0.153668
v 0.180853 -0.128817 0.159796
v 0.201491 -0.128817 0.159861
v 0.182641 -0.128820 0.157611
v 0.182643 -0.128820 0.155049
v 0.199771 -0.128820 0.155059
v 0.199761 -0.128820 0.157621
v 0.182723 -0.129385 0.157572
v 0.182723 -0.129380 0.155080
v 0.199685 -0.129381 0.155080
v 0.199685 -0.129385 0.157572
v 0.182763 -0.129498 0.157532
v 0.182763 -0.129498 0.155120
v 0.199645 -0.129498 0.155120
v 0.199645 -0.129498 0.157532
v 0.182732 -0.129486 0.157563
v 0.182732 -0.129486 0.155089
v 0.199676 -0.129486 0.155089
v 0.199676 -0.129486 0.157563
v 0.182721 -0.128933 0.157574
v 0.182721 -0.128933 0.155079
v 0.199687 -0.128933 0.155079
v 0.199687 -0.128933 0.157574
v 0.182713 -0.128833 0.157584
v 0.182711 -0.128833 0.155071
v 0.199697 -0.128833 0.155071
v 0.199695 -0.128833 0.157584
v 0.199664 -0.129499 0.157362
v 0.199662 -0.129499 0.155274
v 0.181155 -0.127953 0.153556
v 0.201644 -0.127953 0.153862
v 0.180764 -0.127953 0.159660
v 0.201252 -0.127953 0.159965
v 0.200594 -0.127953 0.159972
v 0.181813 -0.127953 0.159972
v 0.181815 -0.127953 0.153550
v 0.200592 -0.127953 0.153550
v 0.180758 -0.127953 0.159256
v 0.180758 -0.127953 0.154265
v 0.201650 -0.127953 0.154264
v 0.201650 -0.127953 0.159258
v 0.180764 -0.127953 0.153862
v 0.201252 -0.127953 0.153556
v 0.181155 -0.127953 0.159965
v 0.201644 -0.127953 0.159660
v 0.180821 -0.127953 0.153613
v 0.201586 -0.127953 0.153613
v 0.180821 -0.127953 0.159908
v 0.201586 -0.127953 0.159908
v 0.181154 -0.128651 0.153557
v 0.201642 -0.128665 0.153863
v 0.180765 -0.128650 0.159660
v 0.201256 -0.128652 0.159964
v 0.201131 -0.128817 0.159891
v 0.181270 -0.128817 0.159891
v 0.181290 -0.128817 0.153609
v 0.201127 -0.128817 0.153609
v 0.180826 -0.128817 0.159548
v 0.180834 -0.128817 0.153935
v 0.201573 -0.128817 0.153942
v 0.201583 -0.128817 0.159554
v 0.180823 -0.128665 0.153615
v 0.201585 -0.128665 0.153615
v 0.180822 -0.128665 0.159907
v 0.201586 -0.128648 0.159907
v 0.181170 -0.128801 0.153568
v 0.201629 -0.128801 0.153873
v 0.180776 -0.128801 0.159646
v 0.201241 -0.128801 0.159951
v 0.200560 -0.128801 0.159957
v 0.181837 -0.128801 0.159957
v 0.181850 -0.128801 0.153562
v 0.200568 -0.128801 0.153562
v 0.180773 -0.128801 0.158120
v 0.180774 -0.128801 0.154264
v 0.201634 -0.128801 0.154279
v 0.201637 -0.128801 0.159240
v 0.180779 -0.128801 0.153873
v 0.201238 -0.128801 0.153568
v 0.181167 -0.128801 0.159951
v 0.201632 -0.128801 0.159646
v 0.180836 -0.128801 0.153625
v 0.201572 -0.128801 0.153625
v 0.180833 -0.128801 0.159894
v 0.201575 -0.128801 0.159894
v 0.199853 -0.128819 0.154915
v 0.182528 -0.128819 0.154924
v 0.181026 -0.128819 0.159769
v 0.199877 -0.128819 0.157789
v 0.182552 -0.128819 0.157790
v 0.198867 -0.128933 0.155015
v 0.182748 -0.129499 0.157430
v 0.182678 -0.129494 0.155383
v 0.198848 -0.129494 0.155035
v 0.199730 -0.129494 0.155383
v 0.183560 -0.129494 0.157617
v 0.182662 -0.129472 0.155371
v 0.183545 -0.129472 0.155020
v 0.199745 -0.129472 0.155371
v 0.183545 -0.129472 0.157633
v 0.182654 -0.128847 0.156327
v 0.198869 -0.128847 0.155013
v 0.199754 -0.128847 0.155366
v 0.183538 -0.128847 0.157641
v 0.182640 -0.128824 0.157304
v 0.198886 -0.128824 0.154999
v 0.199768 -0.128824 0.157290
v 0.183525 -0.128824 0.157658
v 0.182850 -0.129499 0.155114
v 0.199557 -0.129499 0.157538
v 0.183559 -0.129494 0.155035
v 0.198848 -0.129494 0.157617
v 0.198864 -0.129472 0.155020
v 0.198864 -0.129472 0.157633
v 0.183538 -0.128847 0.155013
v 0.198870 -0.128847 0.157641
v 0.183520 -0.128824 0.154999
v 0.198883 -0.128824 0.157658
v 0.182678 -0.129494 0.157269
v 0.199730 -0.129494 0.157269
v 0.182662 -0.129472 0.157282
v 0.199745 -0.129472 0.157282
v 0.182654 -0.128847 0.155365
v 0.182655 -0.128847 0.157290
v 0.199753 -0.128847 0.157288
v 0.182637 -0.128824 0.155346
v 0.199771 -0.128824 0.155350
v 0.182784 -0.128933 0.157612
v 0.182685 -0.129385 0.155144
v 0.199623 -0.128933 0.155040
v 0.199723 -0.129385 0.157509
v 0.182703 -0.129494 0.157490
v 0.182805 -0.129494 0.155061
v 0.199704 -0.129494 0.155162
v 0.199603 -0.129494 0.157592
v 0.182688 -0.129472 0.157506
v 0.182789 -0.129472 0.155045
v 0.199720 -0.129472 0.155147
v 0.199618 -0.129472 0.157607
v 0.182680 -0.128847 0.157514
v 0.182781 -0.128847 0.155038
v 0.199728 -0.128847 0.155140
v 0.199626 -0.128847 0.157615
v 0.182666 -0.128824 0.157531
v 0.182763 -0.128824 0.155024
v 0.199746 -0.128824 0.155126
v 0.199640 -0.128824 0.157633
v 0.182685 -0.129385 0.157509
v 0.182784 -0.128938 0.155040
v 0.199725 -0.128936 0.155142
v 0.199623 -0.128933 0.157612
v 0.182805 -0.129494 0.157592
v 0.182703 -0.129494 0.155162
v 0.199603 -0.129494 0.155061
v 0.199704 -0.129494 0.157490
v 0.182789 -0.129472 0.157607
v 0.182688 -0.129472 0.155147
v 0.199618 -0.129472 0.155045
v 0.199720 -0.129472 0.157506
v 0.182782 -0.128847 0.157615
v 0.182679 -0.128847 0.155140
v 0.199627 -0.128847 0.155038
v 0.199728 -0.128847 0.157514
v 0.182768 -0.128824 0.157633
v 0.182662 -0.128824 0.155126
v 0.199644 -0.128824 0.155024
v 0.199742 -0.128824 0.157531
v 0.201650 -0.128357 0.154264
v 0.200593 -0.128357 0.159972
v 0.181814 -0.128357 0.159972
v 0.200591 -0.128356 0.153550
v 0.180758 -0.128352 0.159256
v 0.180758 -0.128354 0.154264
v 0.201650 -0.128426 0.159244
v 0.180783 -0.128356 0.153677
v 0.201523 -0.128356 0.153575
v 0.180886 -0.128651 0.159945
v 0.201625 -0.128356 0.159845
v 0.180885 -0.128650 0.153576
v 0.201625 -0.128356 0.153677
v 0.180783 -0.128356 0.159845
v 0.201523 -0.128651 0.159945
v 0.180784 -0.128812 0.159258
v 0.200610 -0.128812 0.159942
v 0.201618 -0.128812 0.154282
v 0.181804 -0.128812 0.153574
v 0.181783 -0.128812 0.159942
v 0.200618 -0.128812 0.153574
v 0.180791 -0.128812 0.155266
v 0.180789 -0.128812 0.154282
v 0.201617 -0.128812 0.155353
v 0.201624 -0.128812 0.159251
v 0.180812 -0.128812 0.153699
v 0.201494 -0.128812 0.153598
v 0.180908 -0.128812 0.159918
v 0.201601 -0.128812 0.159816
v 0.180914 -0.128812 0.153598
v 0.201595 -0.128812 0.153699
v 0.180806 -0.128812 0.159816
v 0.201500 -0.128812 0.159918
v 0.180763 -0.128783 0.159233
v 0.201644 -0.128782 0.154268
v 0.200575 -0.128782 0.159966
v 0.181822 -0.128782 0.159966
v 0.181835 -0.128783 0.153555
v 0.200585 -0.128782 0.153555
v 0.180764 -0.128782 0.156760
v 0.180764 -0.128782 0.154266
v 0.201643 -0.128782 0.155175
v 0.201645 -0.128782 0.159271
v 0.180789 -0.128782 0.153681
v 0.201517 -0.128782 0.153580
v 0.180889 -0.128782 0.159941
v 0.201620 -0.128782 0.159839
v 0.180891 -0.128782 0.153580
v 0.201619 -0.128782 0.153681
v 0.180788 -0.128782 0.159839
v 0.201518 -0.128782 0.159941
v 0.180920 -0.128819 0.159597
v 0.181101 -0.128819 0.153683
v 0.201475 -0.128819 0.153801
v 0.201367 -0.128819 0.159772
v 0.201321 -0.128819 0.153685
v 0.180935 -0.128819 0.153789
v 0.201487 -0.128819 0.159611
v 0.182684 -0.129494 0.157397
v 0.183031 -0.129494 0.155042
v 0.199723 -0.129494 0.155256
v 0.199376 -0.129494 0.157611
v 0.182669 -0.129472 0.157412
v 0.183016 -0.129472 0.155026
v 0.199739 -0.129472 0.155241
v 0.199391 -0.129472 0.157626
v 0.182661 -0.128847 0.157419
v 0.183008 -0.128847 0.155019
v 0.199747 -0.128847 0.155234
v 0.199399 -0.128847 0.157634
v 0.182647 -0.128824 0.157436
v 0.182991 -0.128824 0.155005
v 0.199765 -0.128824 0.155221
v 0.199412 -0.128824 0.157652
v 0.180854 -0.128817 0.153732
v 0.201452 -0.128817 0.153630
v 0.180948 -0.128817 0.159869
v 0.201562 -0.128817 0.159767
v 0.182731 -0.128820 0.157678
v 0.199683 -0.128820 0.154995
v 0.182786 -0.129385 0.155042
v 0.199723 -0.129385 0.155144
v 0.199621 -0.129385 0.157610
v 0.182725 -0.129498 0.157469
v 0.182826 -0.129498 0.155082
v 0.199683 -0.129498 0.155184
v 0.199581 -0.129498 0.157570
v 0.182795 -0.129486 0.157601
v 0.182693 -0.129486 0.155153
v 0.199613 -0.129486 0.155051
v 0.199714 -0.129486 0.157500
v 0.182683 -0.128933 0.157511
v 0.182777 -0.128833 0.157622
v 0.182673 -0.128833 0.155134
v 0.199633 -0.128833 0.155033
v 0.199733 -0.128833 0.157520
v 0.183031 -0.129494 0.157611
v 0.182684 -0.129494 0.155256
v 0.199376 -0.129494 0.155042
v 0.199723 -0.129494 0.157397
v 0.183016 -0.129472 0.157626
v 0.182669 -0.129472 0.155241
v 0.199391 -0.129472 0.155026
v 0.199739 -0.129472 0.157412
v 0.183009 -0.128847 0.157634
v 0.182660 -0.128847 0.155234
v 0.199400 -0.128847 0.155019
v 0.199747 -0.128847 0.157419
v 0.182995 -0.128824 0.157652
v 0.182643 -0.128824 0.155221
v 0.199417 -0.128824 0.155005
v 0.199761 -0.128824 0.157436
v 0.180956 -0.128817 0.153630
v 0.201553 -0.128817 0.153732
v 0.182725 -0.128820 0.154995
v 0.199677 -0.128820 0.157678
v 0.182786 -0.129385 0.157610
v 0.199621 -0.129385 0.155042
v 0.182826 -0.129498 0.157570
v 0.182725 -0.129498 0.155184
v 0.199581 -0.129498 0.155082
v 0.199683 -0.129498 0.157469
v 0.182693 -0.129486 0.157500
v 0.182795 -0.129486 0.155051
v 0.199714 -0.129486 0.155153
v 0.199613 -0.129486 0.157601
v 0.182683 -0.128933 0.155142
v 0.199725 -0.128933 0.157511
v 0.182675 -0.128833 0.157520
v 0.182774 -0.128833 0.155033
v 0.199735 -0.128833 0.155134
v 0.199631 -0.128833 0.157622
v 0.182741 -0.129494 0.157554
v 0.182741 -0.129494 0.155099
v 0.199666 -0.129494 0.155099
v 0.199666 -0.129494 0.157554
v 0.182726 -0.129472 0.157569
v 0.182726 -0.129472 0.155083
v 0.199682 -0.129472 0.155083
v 0.199682 -0.129472 0.157569
v 0.182718 -0.128847 0.157577
v 0.182717 -0.128847 0.155076
v 0.199690 -0.128847 0.155076
v 0.199689 -0.128847 0.157577
v 0.182704 -0.128824 0.157594
v 0.182700 -0.128824 0.155063
v 0.199708 -0.128824 0.155063
v 0.199703 -0.128824 0.157594
v 0.201644 -0.128356 0.153862
v 0.180764 -0.128356 0.153862
v 0.201644 -0.128356 0.159660
v 0.180821 -0.128356 0.153613
v 0.201586 -0.128356 0.153613
v 0.180821 -0.128356 0.159908
v 0.180783 -0.127953 0.153677
v 0.201523 -0.127953 0.153575
v 0.180885 -0.127953 0.159946
v 0.201625 -0.127953 0.159845
v 0.180885 -0.127953 0.153575
v 0.201625 -0.127953 0.153677
v 0.180783 -0.127953 0.159845
v 0.201523 -0.127953 0.159946
v 0.181161 -0.128782 0.153561
v 0.201638 -0.128782 0.153866
v 0.180769 -0.128782 0.159654
v 0.201248 -0.128782 0.159960
v 0.180794 -0.128812 0.153883
v 0.201224 -0.128812 0.153579
v 0.181178 -0.128812 0.159937
v 0.201620 -0.128812 0.159632
v 0.180827 -0.128782 0.153618
v 0.201581 -0.128782 0.153618
v 0.180826 -0.128782 0.159903
v 0.201582 -0.128782 0.159903
v 0.201648 -0.128665 0.156761
v 0.180785 -0.128665 0.153678
v 0.201522 -0.128665 0.153576
v 0.201623 -0.128665 0.159843
v 0.201623 -0.128665 0.153678
v 0.180784 -0.128665 0.159843
v 0.181184 -0.128812 0.153579
v 0.201614 -0.128812 0.153883
v 0.180788 -0.128812 0.159632
v 0.201230 -0.128812 0.159937
v 0.180770 -0.128782 0.153866
v 0.201247 -0.128782 0.153561
v 0.181160 -0.128782 0.159960
v 0.201639 -0.128782 0.159654
v 0.180850 -0.128812 0.153636
v 0.201557 -0.128812 0.153636
v 0.180844 -0.128812 0.159880
v 0.201563 -0.128812 0.159880
v 0.180771 -0.128801 0.159244
v 0.191204 -0.128801 0.159956
v 0.191204 -0.128801 0.153563
v 0.201634 -0.128801 0.156758
v 0.180798 -0.128801 0.153688
v 0.201508 -0.128801 0.153587
v 0.180896 -0.128801 0.159932
v 0.201613 -0.128801 0.159830
v 0.180899 -0.128801 0.153587
v 0.201610 -0.128801 0.153688
v 0.180795 -0.128801 0.159830
v 0.201511 -0.128801 0.159932
vn -0.9994 -0.0196 -0.0282
vn -0.9996 -0.0150 0.0260
vn -0.9994 -0.0214 -0.0256
vn 0.0045 -0.0136 -0.9999
vn 0.0056 -0.0193 -0.9998
vn -0.0059 -0.0197 -0.9998
vn 0.9995 -0.0192 0.0233
vn 0.9994 -0.0243 -0.0252
vn 0.9996 -0.0185 0.0236
vn 0.9995 -0.0199 -0.0226
vn -0.0069 -0.0194 0.9998
vn 0.0077 -0.0190 0.9998
vn -0.0063 -0.0210 0.9998
vn -0.0138 -0.9999 0.0028
vn -0.1208 -0.9926 0.0077
vn -0.1165 -0.9931 -0.0128
vn 0.0154 -0.9999 0.0004
vn 0.1208 -0.9926 -0.0121
vn 0.1173 -0.9931 0.0005
vn -0.0035 -0.9998 0.0217
vn 0.0069 -0.9920 0.1262
vn 0.0052 -0.9931 0.1174
vn -0.4309 -0.9024 -0.0053
vn -0.7965 -0.6037 0.0338
vn -0.8011 -0.5982 -0.0205
vn -0.4283 -0.9036 0.0064
vn 0.0013 -0.9032 -0.4293
vn 0.0030 -0.5916 -0.8062
vn 0.0039 -0.5939 -0.8046
vn 0.4296 -0.9030 0.0058
vn 0.8073 -0.5901 -0.0067
vn 0.8004 -0.5991 0.0198
vn 0.4122 -0.9108 -0.0253
vn -0.0011 -0.9050 0.4255
vn 0.0127 -0.5960 0.8029
vn -0.0107 -0.5954 0.8034
vn -0.9752 -0.2197 -0.0256
vn -0.9994 -0.0208 0.0269
vn 0.0062 -0.2165 -0.9763
vn -0.0083 -0.2194 -0.9756
vn 0.9748 -0.2211 0.0306
vn 0.9798 -0.1924 -0.0538
vn -0.0067 -0.2169 0.9762
vn 0.0064 -0.0196 0.9998
vn 0.0067 -0.2169 0.9762
vn -0.9720 -0.2339 -0.0219
vn -0.8189 -0.5740 -0.0028
vn -0.7808 -0.6246 -0.0143
vn -0.9814 -0.1917 0.0001
vn 0.0050 -0.1903 -0.9817
vn -0.0009 -0.5434 -0.8394
vn 0.0063 -0.5319 -0.8468
vn -0.0057 -0.1901 -0.9817
vn -0.0042 -0.0147 -0.9999
vn 0.9738 -0.2264 -0.0213
vn 0.7876 -0.6162 0.0090
vn 0.8393 -0.5425 0.0347
vn -0.0057 -0.2356 0.9718
vn -0.0236 -0.6103 0.7918
vn -0.0036 -0.6258 0.7800
vn 0.0052 -0.2349 0.9720
vn -0.3639 -0.9314 -0.0127
vn -0.0562 -0.9984 0.0076
vn -0.0536 -0.9985 -0.0085
vn -0.4255 -0.9038 0.0454
vn 0.0037 -0.8979 -0.4401
vn -0.0018 -0.9973 -0.0741
vn 0.0060 -0.9976 -0.0697
vn -0.0031 -0.8975 -0.4410
vn 0.3999 -0.9165 0.0125
vn 0.0582 -0.9983 -0.0070
vn 0.0530 -0.9986 0.0080
vn 0.3598 -0.9329 -0.0111
vn -0.0027 -0.9312 0.3645
vn 0.0029 -0.9989 0.0477
vn -0.0038 -0.9989 0.0475
vn -0.0100 -0.9999 -0.0028
vn -0.0073 -0.9998 -0.0163
vn 0.0481 -0.0200 -0.9986
vn -0.0484 -0.0145 -0.9987
vn -0.0481 -0.0200 -0.9986
vn -0.0488 -0.0206 0.9986
vn -0.0475 -0.0217 0.9986
vn 0.0475 -0.0217 0.9986
vn 0.0047 -0.9997 -0.0219
vn -0.0061 -0.9933 -0.1154
vn -0.0051 -0.9921 -0.1255
vn 0.0176 -0.9068 -0.4212
vn 0.0385 -0.6063 -0.7943
vn -0.0012 -0.9078 -0.4193
vn -0.0385 -0.6065 -0.7941
vn -0.0176 -0.9065 0.4217
vn -0.0385 -0.6062 0.7943
vn 0.0013 -0.9161 0.4011
vn 0.0385 -0.6066 0.7941
vn 0.0498 -0.2249 -0.9731
vn -0.0499 -0.2249 -0.9731
vn -0.0499 -0.2248 0.9731
vn 0.0499 -0.2250 0.9731
vn 0.0490 -0.0205 0.9986
vn 0.0430 -0.1983 -0.9792
vn 0.0379 -0.5622 -0.8261
vn 0.0479 -0.0161 -0.9987
vn -0.0429 -0.1981 -0.9792
vn -0.0379 -0.5620 -0.8263
vn -0.0435 -0.2420 0.9693
vn -0.0360 -0.6380 0.7692
vn 0.0435 -0.2418 0.9693
vn 0.0361 -0.6376 0.7695
vn -0.0262 -0.9102 -0.4134
vn 0.0208 -0.9373 0.3479
vn -0.9915 -0.0235 -0.1283
vn -0.9921 -0.0228 -0.1230
vn 0.9921 -0.0228 0.1237
vn 0.9922 -0.0198 0.1231
vn 0.9921 -0.0208 -0.1234
vn 0.9920 -0.0212 -0.1243
vn -0.4069 -0.9124 -0.0453
vn -0.7750 -0.6244 -0.0973
vn -0.7751 -0.6243 0.0972
vn 0.4073 -0.9121 0.0454
vn 0.7750 -0.6245 0.0973
vn 0.7754 -0.6239 -0.0972
vn -0.9634 -0.2365 -0.1266
vn -0.9634 -0.2364 0.1263
vn -0.9742 -0.2237 0.0313
vn -0.9917 -0.0203 0.1269
vn 0.9633 -0.2367 0.1263
vn 0.9635 -0.2361 -0.1263
vn -0.9608 -0.2528 -0.1137
vn -0.7487 -0.6567 -0.0904
vn -0.9683 -0.2230 0.1126
vn -0.9918 -0.0201 0.1266
vn -0.9731 -0.2293 0.0217
vn -0.7893 -0.6066 0.0951
vn 0.9685 -0.2216 0.1136
vn 0.7894 -0.6064 0.0954
vn 0.9817 -0.1897 0.0167
vn 0.9607 -0.2531 -0.1138
vn 0.7485 -0.6569 -0.0907
vn -0.3613 -0.9309 0.0541
vn 0.3349 -0.9410 -0.0481
vn -0.3075 -0.0215 0.9513
vn -0.7067 -0.0274 0.7070
vn -0.3082 -0.0240 0.9510
vn -0.9318 -0.0251 -0.3621
vn -0.9323 -0.0259 -0.3607
vn -0.7071 -0.0284 -0.7066
vn -0.7066 -0.0271 -0.7071
vn 0.7070 -0.0265 -0.7067
vn 0.3082 -0.0229 -0.9510
vn 0.7065 -0.0272 -0.7072
vn 0.3076 -0.0244 -0.9512
vn 0.9317 -0.0250 0.3623
vn 0.9325 -0.0238 0.3603
vn -0.0285 -0.9950 0.0952
vn -0.0550 -0.9964 0.0641
vn -0.0856 -0.9957 -0.0340
vn -0.0637 -0.9963 -0.0572
vn 0.0274 -0.9945 -0.1008
vn 0.0631 -0.9963 -0.0583
vn 0.0870 -0.9957 0.0324
vn 0.0031 -0.9998 0.0182
vn 0.0640 -0.9963 0.0574
vn -0.3574 -0.9252 0.1277
vn -0.0941 -0.9950 0.0321
vn -0.2538 -0.9334 0.2538
vn -0.5126 -0.6888 0.5127
vn -0.6959 -0.6667 0.2671
vn -0.3767 -0.9255 0.0395
vn -0.1036 -0.9171 -0.3850
vn -0.0254 -0.9943 -0.1031
vn -0.2538 -0.9334 -0.2538
vn -0.5126 -0.6888 -0.5126
vn -0.2265 -0.6536 -0.7221
vn -0.0170 -0.9183 -0.3955
vn 0.3576 -0.9252 -0.1274
vn 0.0903 -0.9954 -0.0305
vn 0.2538 -0.9334 -0.2538
vn 0.5126 -0.6888 -0.5126
vn 0.6958 -0.6667 -0.2671
vn 0.3758 -0.9258 -0.0418
vn 0.1034 -0.9172 0.3847
vn 0.0253 -0.9944 0.1025
vn 0.2537 -0.9334 0.2538
vn 0.5126 -0.6888 0.5126
vn 0.2265 -0.6536 0.7221
vn 0.0173 -0.9005 0.4345
vn -0.8959 -0.2651 0.3564
vn -0.6788 -0.2800 0.6788
vn -0.9316 -0.0246 0.3626
vn -0.3078 -0.2586 -0.9156
vn -0.6788 -0.2799 -0.6789
vn -0.3077 -0.0243 -0.9512
vn 0.8960 -0.2651 -0.3564
vn 0.6788 -0.2800 -0.6788
vn 0.9319 -0.0249 -0.3619
vn 0.3078 -0.2585 0.9157
vn 0.6788 -0.2800 0.6788
vn 0.7017 -0.0278 0.7119
vn 0.3081 -0.0240 0.9510
vn -0.9041 -0.2626 0.3372
vn -0.9325 -0.0237 0.3604
vn -0.6771 -0.3001 0.6719
vn -0.7062 -0.0276 0.7075
vn -0.4879 -0.7255 0.4854
vn -0.6907 -0.6742 0.2614
vn -0.2781 -0.2475 -0.9281
vn -0.3060 -0.0212 -0.9518
vn -0.6720 -0.2978 -0.6780
vn -0.4871 -0.7227 -0.4903
vn -0.2194 -0.6530 -0.7249
vn 0.8966 -0.2843 -0.3395
vn 0.9319 -0.0245 -0.3618
vn 0.6717 -0.2980 -0.6783
vn 0.4871 -0.7227 -0.4904
vn 0.6637 -0.7038 -0.2532
vn 0.2823 -0.2805 0.9174
vn 0.3061 -0.0246 0.9517
vn 0.6770 -0.3001 0.6721
vn 0.7046 -0.0286 0.7090
vn 0.4879 -0.7255 0.4855
vn 0.2121 -0.7002 0.6817
vn -0.2865 -0.9509 0.1167
vn -0.1865 -0.9634 0.1926
vn -0.0287 -0.9994 0.0193
vn -0.1074 -0.9473 -0.3017
vn -0.1954 -0.9606 -0.1975
vn -0.0315 -0.9993 -0.0202
vn -0.0175 -0.9988 -0.0450
vn 0.2798 -0.9540 -0.1078
vn 0.1967 -0.9603 -0.1977
vn 0.0327 -0.9992 -0.0215
vn 0.0936 -0.9588 0.2681
vn 0.1854 -0.9636 0.1927
vn 0.0270 -0.9995 0.0172
vn 0.0126 -0.9993 0.0340
vn 0.0159 -0.9999 -0.0008
vn -0.1036 -0.9172 0.3847
vn -0.2265 -0.6537 0.7221
vn -0.3579 -0.9251 -0.1271
vn -0.6960 -0.6667 -0.2668
vn 0.1036 -0.9172 -0.3847
vn 0.2265 -0.6537 -0.7221
vn 0.3579 -0.9251 0.1271
vn 0.6960 -0.6666 0.2669
vn -0.3079 -0.2586 0.9156
vn -0.8960 -0.2652 -0.3561
vn 0.3078 -0.2585 -0.9157
vn 0.8960 -0.2652 0.3563
vn -0.2823 -0.2804 0.9174
vn -0.2121 -0.7002 0.6818
vn -0.8968 -0.2842 -0.3392
vn -0.6639 -0.7037 -0.2529
vn 0.2780 -0.2475 -0.9282
vn 0.2193 -0.6529 -0.7250
vn 0.9042 -0.2625 0.3370
vn 0.6908 -0.6742 0.2612
vn -0.0928 -0.9589 0.2681
vn -0.0225 -0.9291 0.3691
vn -0.0128 -0.9993 0.0347
vn -0.2806 -0.9535 -0.1096
vn -0.3558 -0.9333 -0.0493
vn 0.1067 -0.9473 -0.3020
vn 0.0262 -0.9087 -0.4167
vn 0.0176 -0.9988 -0.0455
vn 0.2873 -0.9506 0.1178
vn 0.3907 -0.9189 0.0548
vn -1.0000 -0.0011 0.0070
vn -0.9982 -0.0007 0.0592
vn -1.0000 -0.0001 0.0073
vn 0.0056 -0.0035 1.0000
vn 0.0405 -0.0008 0.9992
vn 0.0052 -0.0000 1.0000
vn 0.9982 -0.0027 -0.0591
vn 0.9998 -0.0200 -0.0057
vn 0.9980 -0.0220 -0.0591
vn 1.0000 -0.0034 -0.0070
vn 0.9983 -0.0000 -0.0589
vn 1.0000 -0.0001 -0.0074
vn -0.0048 -0.0185 -0.9998
vn -0.0397 -0.0009 -0.9992
vn -0.0045 -0.0009 -1.0000
vn -0.0053 -0.0215 0.9998
vn 0.0047 -0.0219 0.9997
vn -0.0056 -0.0025 1.0000
vn -0.0054 -0.0004 1.0000
vn -0.0399 -0.0194 0.9990
vn -0.0405 -0.0008 0.9992
vn 0.0046 -0.0011 -1.0000
vn 0.0048 -0.0002 -1.0000
vn 0.0403 -0.0171 -0.9990
vn 0.0048 -0.0181 -0.9998
vn 0.0397 -0.0006 -0.9992
vn -0.9997 -0.0238 -0.0087
vn -0.9998 -0.0196 0.0074
vn -1.0000 -0.0016 -0.0086
vn -1.0000 -0.0000 -0.0076
vn -0.9980 -0.0224 -0.0592
vn -0.9982 -0.0026 -0.0591
vn -0.9983 -0.0000 -0.0589
vn 1.0000 -0.0023 0.0076
vn 0.9998 -0.0197 0.0098
vn 0.9998 -0.0221 -0.0023
vn 1.0000 -0.0002 0.0077
vn 0.9981 -0.0186 0.0593
vn 0.9982 -0.0021 0.0592
vn 0.9983 -0.0000 0.0591
vn -0.9487 -0.0028 -0.3162
vn -0.7082 -0.0272 -0.7055
vn -0.9482 -0.0250 -0.3167
vn -0.9488 -0.0000 -0.3160
vn -0.7041 -0.0021 -0.7101
vn -0.7068 -0.0005 -0.7074
vn 0.3007 -0.0023 -0.9537
vn 0.7071 -0.0262 -0.7066
vn 0.3023 -0.0219 -0.9529
vn 0.3006 -0.0000 -0.9537
vn 0.7071 -0.0030 -0.7071
vn 0.7071 -0.0000 -0.7071
vn -0.2981 -0.0223 0.9543
vn -0.3003 -0.0005 0.9538
vn -0.7049 -0.0026 0.7093
vn -0.7071 -0.0000 0.7071
vn 0.9473 -0.0016 0.3204
vn 0.7084 -0.0247 0.7054
vn 0.9485 -0.0235 0.3159
vn 0.9486 -0.0005 0.3164
vn 0.7071 -0.0011 0.7071
vn -0.3096 -0.0175 -0.9507
vn -0.3006 -0.0010 -0.9538
vn -0.0409 -0.0188 -0.9990
vn 0.9487 -0.0028 -0.3161
vn 0.9482 -0.0249 -0.3167
vn 0.9488 -0.0000 -0.3160
vn -0.9491 -0.0018 0.3151
vn -0.9981 -0.0189 0.0589
vn -0.9479 -0.0227 0.3178
vn -0.7075 -0.0257 0.7063
vn -0.9488 -0.0004 0.3158
vn 0.3052 -0.0213 0.9520
vn 0.3008 -0.0010 0.9537
vn 0.0400 -0.0178 0.9990
vn -0.4065 -0.9136 -0.0039
vn -0.0771 -0.9970 -0.0027
vn -0.4172 -0.9086 0.0191
vn -0.8003 -0.5995 0.0042
vn -0.8111 -0.5829 0.0474
vn 0.0030 -0.9301 0.3672
vn -0.0027 -0.9979 0.0642
vn 0.0127 -0.9292 0.3694
vn 0.0003 -0.6443 0.7648
vn 0.0308 -0.6357 0.7713
vn 0.3546 -0.9350 -0.0011
vn 0.0745 -0.9972 0.0015
vn 0.3703 -0.9287 -0.0181
vn 0.7494 -0.6621 -0.0091
vn 0.7598 -0.6486 -0.0438
vn 0.3369 -0.9415 0.0073
vn -0.0029 -0.8996 -0.4368
vn 0.0045 -0.9952 -0.0979
vn -0.0137 -0.8963 -0.4433
vn 0.0045 -0.5690 -0.8224
vn -0.0332 -0.5636 -0.8254
vn -0.0026 -0.9316 0.3635
vn -0.0000 -0.6429 0.7660
vn -0.0028 -0.9978 0.0657
vn -0.0306 -0.6357 0.7713
vn -0.0122 -0.9285 0.3711
vn 0.0106 -0.9031 -0.4293
vn -0.0000 -0.5736 -0.8191
vn 0.0039 -0.9950 -0.0999
vn 0.0332 -0.5633 -0.8256
vn 0.0138 -0.8961 -0.4436
vn -0.3492 -0.9370 -0.0003
vn -0.0749 -0.9972 -0.0039
vn -0.3718 -0.9283 -0.0011
vn -0.7599 -0.6486 -0.0436
vn -0.3708 -0.9286 -0.0178
vn 0.7553 -0.6553 -0.0006
vn 0.8123 -0.5832 0.0014
vn 0.4017 -0.9158 0.0028
vn 0.8112 -0.5828 0.0473
vn 0.4197 -0.9075 0.0183
vn -0.3483 -0.9319 -0.1014
vn -0.7036 -0.6727 -0.2290
vn -0.5128 -0.6862 -0.5159
vn -0.2428 -0.9371 -0.2508
vn -0.0697 -0.9974 -0.0193
vn -0.0460 -0.9978 -0.0487
vn 0.0966 -0.9095 -0.4044
vn 0.2268 -0.6276 -0.7448
vn 0.5128 -0.6862 -0.5159
vn 0.2428 -0.9371 -0.2508
vn 0.0180 -0.9962 -0.0848
vn 0.0461 -0.9978 -0.0486
vn -0.0929 -0.9315 0.3517
vn -0.2186 -0.6667 0.7126
vn -0.5150 -0.6871 0.5125
vn -0.2435 -0.9401 0.2385
vn -0.0163 -0.9981 0.0598
vn -0.0582 -0.9981 0.0187
vn 0.3823 -0.9185 0.1008
vn 0.0733 -0.9973 -0.0029
vn 0.7330 -0.6376 0.2370
vn 0.5150 -0.6872 0.5125
vn 0.2458 -0.9399 0.2371
vn 0.0665 -0.9976 0.0171
vn 0.0219 -0.9983 0.0538
vn -0.0968 -0.9096 -0.4041
vn -0.2269 -0.6277 -0.7447
vn -0.0180 -0.9963 -0.0839
vn 0.3480 -0.9320 -0.1017
vn 0.7034 -0.6728 -0.2294
vn 0.0692 -0.9974 -0.0194
vn -0.3870 -0.9171 0.0954
vn -0.7329 -0.6376 0.2373
vn 0.0909 -0.9306 0.3545
vn 0.2187 -0.6667 0.7125
vn -0.9758 -0.2186 0.0050
vn -0.9755 -0.2112 0.0613
vn -0.7816 -0.6238 -0.0032
vn -0.0017 -0.2386 0.9711
vn 0.0407 -0.2414 0.9696
vn 0.9656 -0.2600 -0.0075
vn 0.9663 -0.2503 -0.0596
vn 0.9691 -0.2463 0.0119
vn 0.0021 -0.1986 -0.9801
vn -0.0420 -0.2005 -0.9788
vn -0.0053 -0.2452 0.9694
vn -0.0025 -0.6409 0.7676
vn -0.0408 -0.2417 0.9695
vn 0.0054 -0.2052 -0.9787
vn -0.0010 -0.5703 -0.8214
vn 0.0421 -0.2007 -0.9787
vn -0.9708 -0.2398 -0.0002
vn -0.9655 -0.2600 -0.0116
vn -0.7554 -0.6551 -0.0104
vn -0.9663 -0.2506 -0.0595
vn 0.9760 -0.2172 0.0180
vn 0.9754 -0.2118 0.0612
vn -0.9112 -0.2695 -0.3116
vn -0.6815 -0.2779 -0.6770
vn 0.3063 -0.2435 -0.9203
vn 0.6816 -0.2780 -0.6768
vn -0.2988 -0.2660 0.9165
vn -0.6772 -0.2785 0.6810
vn 0.9147 -0.2486 0.3187
vn 0.6773 -0.2783 0.6810
vn -0.3066 -0.2428 -0.9204
vn 0.9111 -0.2695 -0.3118
vn -0.9147 -0.2485 0.3188
vn 0.2990 -0.2657 0.9165
vn -0.0018 -1.0000 -0.0025
vn -0.0110 -0.9999 0.0021
vn -0.0107 -0.9999 -0.0048
vn -0.0000 -1.0000 0.0017
vn 0.0025 -1.0000 -0.0020
vn -0.0028 -0.9999 -0.0155
vn 0.0021 -0.9999 -0.0148
vn 0.0011 -1.0000 0.0023
vn 0.0116 -0.9999 -0.0045
vn 0.0106 -0.9999 0.0018
vn -0.0038 -0.9999 0.0095
vn 0.0036 -0.9999 0.0098
vn 0.0015 -0.9222 0.3867
vt 0.582259 0.691479
vt 0.582259 0.722608
vt 0.582259 0.691476
vt 0.622576 0.685774
vt 0.622578 0.685774
vt 0.584450 0.685774
vt 0.624772 0.722582
vt 0.624772 0.691521
vt 0.624772 0.722582
vt 0.624772 0.691481
vt 0.584455 0.728288
vt 0.622575 0.728288
vt 0.584457 0.728288
vt 0.582385 0.725755
vt 0.582280 0.723954
vt 0.582277 0.690299
vt 0.624717 0.724787
vt 0.624750 0.690060
vt 0.624752 0.723935
vt 0.582763 0.727707
vt 0.623678 0.728119
vt 0.583366 0.728121
vt 0.582259 0.691501
vt 0.582259 0.722568
vt 0.582259 0.691493
vt 0.582259 0.722562
vt 0.622574 0.685774
vt 0.584456 0.685774
vt 0.622576 0.685774
vt 0.624772 0.722554
vt 0.624772 0.691490
vt 0.624772 0.722572
vt 0.624772 0.691508
vt 0.584458 0.728288
vt 0.622578 0.728288
vt 0.584455 0.728288
vt 0.582259 0.691484
vt 0.582259 0.722582
vt 0.622577 0.685774
vt 0.584454 0.685774
vt 0.624772 0.722579
vt 0.624772 0.691483
vt 0.584454 0.728288
vt 0.622576 0.728288
vt 0.622578 0.728288
vt 0.582259 0.691475
vt 0.582259 0.722583
vt 0.582259 0.691476
vt 0.582259 0.707031
vt 0.622575 0.685774
vt 0.584455 0.685774
vt 0.622577 0.685774
vt 0.584457 0.685774
vt 0.584455 0.685774
vt 0.624772 0.691482
vt 0.624772 0.691575
vt 0.624772 0.722412
vt 0.584456 0.728288
vt 0.622576 0.728288
vt 0.584457 0.728288
vt 0.622576 0.728288
vt 0.582259 0.691335
vt 0.582280 0.723946
vt 0.582283 0.689835
vt 0.582259 0.722628
vt 0.622577 0.685774
vt 0.583315 0.685955
vt 0.623722 0.685962
vt 0.584452 0.685774
vt 0.624772 0.722401
vt 0.624750 0.689999
vt 0.624749 0.724208
vt 0.624772 0.691386
vt 0.584454 0.728288
vt 0.623660 0.728111
vt 0.583320 0.728104
vt 0.582311 0.689275
vt 0.582592 0.686721
vt 0.623876 0.685981
vt 0.583155 0.685980
vt 0.583155 0.685981
vt 0.583155 0.728082
vt 0.623876 0.728082
vt 0.624383 0.686654
vt 0.583216 0.685964
vt 0.623673 0.685942
vt 0.623875 0.685984
vt 0.623875 0.685982
vt 0.584457 0.685774
vt 0.583156 0.685982
vt 0.583156 0.728079
vt 0.583156 0.728080
vt 0.622574 0.728288
vt 0.623875 0.728080
vt 0.583156 0.685981
vt 0.583156 0.728081
vt 0.623876 0.728081
vt 0.623876 0.685980
vt 0.623876 0.685979
vt 0.583155 0.685979
vt 0.583155 0.728083
vt 0.623876 0.728083
vt 0.583154 0.685978
vt 0.623877 0.728085
vt 0.582290 0.689469
vt 0.582290 0.689465
vt 0.624741 0.724594
vt 0.624741 0.724597
vt 0.624741 0.689465
vt 0.624741 0.689469
vt 0.582291 0.689508
vt 0.582290 0.689487
vt 0.582290 0.724575
vt 0.624741 0.724555
vt 0.624741 0.724575
vt 0.624741 0.689487
vt 0.582290 0.689475
vt 0.582290 0.724588
vt 0.582259 0.722576
vt 0.582290 0.724594
vt 0.624741 0.724588
vt 0.624741 0.689475
vt 0.582290 0.689459
vt 0.582290 0.689448
vt 0.582290 0.724603
vt 0.582290 0.724597
vt 0.582259 0.722619
vt 0.582290 0.724615
vt 0.624741 0.724603
vt 0.624741 0.724615
vt 0.624772 0.722587
vt 0.624741 0.689459
vt 0.624741 0.689448
vt 0.582290 0.724634
vt 0.624741 0.689429
vt 0.582638 0.727464
vt 0.582512 0.726639
vt 0.582638 0.727463
vt 0.582385 0.688249
vt 0.582385 0.688245
vt 0.582512 0.687424
vt 0.582512 0.687421
vt 0.624520 0.687424
vt 0.624393 0.686598
vt 0.624520 0.687421
vt 0.624393 0.686599
vt 0.624646 0.725814
vt 0.624646 0.725817
vt 0.582632 0.727494
vt 0.582501 0.726671
vt 0.582378 0.688271
vt 0.582501 0.687391
vt 0.624399 0.686569
vt 0.624530 0.687391
vt 0.624653 0.725791
vt 0.624440 0.727338
vt 0.624530 0.726671
vt 0.582385 0.725778
vt 0.582378 0.725791
vt 0.582512 0.726615
vt 0.582512 0.726627
vt 0.582385 0.725797
vt 0.582291 0.724555
vt 0.582639 0.686611
vt 0.582632 0.686569
vt 0.582512 0.687448
vt 0.582512 0.687435
vt 0.582638 0.686605
vt 0.583156 0.685984
vt 0.624646 0.688284
vt 0.624653 0.688271
vt 0.624519 0.687448
vt 0.624519 0.687435
vt 0.624646 0.688265
vt 0.624741 0.689508
vt 0.624392 0.727451
vt 0.624399 0.727494
vt 0.624519 0.726615
vt 0.624519 0.726627
vt 0.624393 0.727458
vt 0.623875 0.728079
vt 0.582385 0.725808
vt 0.582512 0.726635
vt 0.582385 0.725814
vt 0.582638 0.686601
vt 0.582512 0.687428
vt 0.582638 0.686599
vt 0.624646 0.688254
vt 0.624520 0.687428
vt 0.624646 0.688249
vt 0.624393 0.727461
vt 0.624520 0.726635
vt 0.624520 0.726639
vt 0.624393 0.727463
vt 0.582385 0.725823
vt 0.582385 0.725817
vt 0.582511 0.726645
vt 0.582512 0.726641
vt 0.582511 0.726652
vt 0.582385 0.725834
vt 0.582638 0.686596
vt 0.582638 0.686598
vt 0.582511 0.687418
vt 0.582511 0.687411
vt 0.582637 0.686593
vt 0.624646 0.688240
vt 0.624646 0.688245
vt 0.624520 0.687418
vt 0.624520 0.687411
vt 0.624646 0.688229
vt 0.624393 0.727466
vt 0.624393 0.727464
vt 0.624520 0.726645
vt 0.624520 0.726641
vt 0.624520 0.726652
vt 0.624394 0.727470
vt 0.582385 0.725851
vt 0.582511 0.726663
vt 0.582444 0.726270
vt 0.582637 0.686587
vt 0.582511 0.687399
vt 0.582471 0.687619
vt 0.582635 0.686574
vt 0.624646 0.688211
vt 0.624520 0.687399
vt 0.624581 0.687755
vt 0.624394 0.727476
vt 0.624520 0.726663
vt 0.624566 0.726402
vt 0.624395 0.727488
vt 0.624711 0.689006
vt 0.582639 0.727451
vt 0.582638 0.727458
vt 0.582385 0.688284
vt 0.582385 0.688265
vt 0.624392 0.686611
vt 0.624393 0.686605
vt 0.624646 0.725778
vt 0.624646 0.725797
vt 0.582638 0.727461
vt 0.582385 0.688254
vt 0.624393 0.686601
vt 0.624646 0.725808
vt 0.582638 0.727466
vt 0.582638 0.727470
vt 0.582385 0.688240
vt 0.582385 0.688229
vt 0.624394 0.686596
vt 0.624394 0.686593
vt 0.624646 0.725823
vt 0.624646 0.725834
vt 0.582637 0.727476
vt 0.583155 0.728085
vt 0.582636 0.727488
vt 0.582385 0.688211
vt 0.582290 0.689429
vt 0.624394 0.686587
vt 0.623877 0.685978
vt 0.624396 0.686574
vt 0.624646 0.725851
vt 0.624741 0.724634
vt 0.582259 0.723554
vt 0.582285 0.726181
vt 0.582259 0.723555
vt 0.622623 0.728288
vt 0.623951 0.728204
vt 0.622624 0.728288
vt 0.624747 0.687882
vt 0.624772 0.690568
vt 0.624747 0.687884
vt 0.624772 0.690504
vt 0.624772 0.690503
vt 0.584409 0.685774
vt 0.583081 0.685858
vt 0.584411 0.685774
vt 0.584410 0.728288
vt 0.622622 0.728288
vt 0.584409 0.728288
vt 0.584408 0.728288
vt 0.583081 0.728204
vt 0.622619 0.685774
vt 0.622620 0.685774
vt 0.623950 0.685859
vt 0.622620 0.685774
vt 0.623951 0.685858
vt 0.582259 0.690505
vt 0.582259 0.723508
vt 0.582259 0.690503
vt 0.582259 0.690510
vt 0.582285 0.687884
vt 0.582285 0.687882
vt 0.624772 0.723472
vt 0.624772 0.723513
vt 0.624772 0.707031
vt 0.624772 0.723562
vt 0.624747 0.726179
vt 0.624747 0.726181
vt 0.582362 0.686783
vt 0.582466 0.686449
vt 0.582362 0.686786
vt 0.582466 0.686447
vt 0.624462 0.686111
vt 0.624566 0.686449
vt 0.624566 0.686447
vt 0.582569 0.727951
vt 0.582569 0.727952
vt 0.582466 0.727615
vt 0.624669 0.727279
vt 0.624566 0.727614
vt 0.624669 0.727277
vt 0.624566 0.727615
vt 0.582569 0.686111
vt 0.583081 0.685859
vt 0.624669 0.686783
vt 0.624669 0.686786
vt 0.582362 0.727279
vt 0.582285 0.726179
vt 0.582362 0.727277
vt 0.582466 0.727614
vt 0.624462 0.727951
vt 0.624462 0.727952
vt 0.623950 0.728204
vt 0.582259 0.723727
vt 0.582282 0.725888
vt 0.582285 0.726158
vt 0.582259 0.723550
vt 0.582285 0.726166
vt 0.622699 0.728288
vt 0.623826 0.728206
vt 0.623949 0.728202
vt 0.622578 0.728288
vt 0.623950 0.728203
vt 0.624772 0.690521
vt 0.624748 0.688129
vt 0.624746 0.687910
vt 0.624772 0.690553
vt 0.624747 0.687901
vt 0.624772 0.697663
vt 0.584332 0.685774
vt 0.583216 0.685856
vt 0.583082 0.685861
vt 0.584455 0.685774
vt 0.583082 0.685860
vt 0.584303 0.728288
vt 0.603516 0.728288
vt 0.583191 0.728204
vt 0.583081 0.728203
vt 0.583082 0.728202
vt 0.622729 0.685774
vt 0.603516 0.685774
vt 0.623836 0.685859
vt 0.623950 0.685860
vt 0.623949 0.685861
vt 0.582259 0.697077
vt 0.582284 0.688082
vt 0.582259 0.690521
vt 0.582285 0.687901
vt 0.582285 0.687910
vt 0.624772 0.723527
vt 0.624772 0.723680
vt 0.624747 0.726166
vt 0.624746 0.726158
vt 0.582363 0.686810
vt 0.582362 0.686801
vt 0.582466 0.686459
vt 0.582466 0.686465
vt 0.582363 0.686838
vt 0.582467 0.686484
vt 0.624461 0.686120
vt 0.624461 0.686117
vt 0.624565 0.686459
vt 0.624565 0.686465
vt 0.624460 0.686129
vt 0.624564 0.686484
vt 0.582570 0.727945
vt 0.582570 0.727947
vt 0.582466 0.727606
vt 0.582466 0.727601
vt 0.582571 0.727936
vt 0.582403 0.727365
vt 0.624669 0.727258
vt 0.624748 0.725926
vt 0.624669 0.727265
vt 0.624565 0.727606
vt 0.624565 0.727601
vt 0.624668 0.727231
vt 0.624503 0.727791
vt 0.582570 0.686120
vt 0.582570 0.686117
vt 0.582572 0.686129
vt 0.624669 0.686810
vt 0.624669 0.686801
vt 0.624668 0.686838
vt 0.582363 0.727258
vt 0.582362 0.727265
vt 0.624461 0.727945
vt 0.624462 0.727947
vt 0.582259 0.723425
vt 0.582285 0.726173
vt 0.582259 0.716082
vt 0.622593 0.728288
vt 0.624772 0.690509
vt 0.624747 0.687891
vt 0.624772 0.696522
vt 0.584439 0.685774
vt 0.583081 0.685859
vt 0.584416 0.728288
vt 0.584432 0.728288
vt 0.622615 0.685774
vt 0.622599 0.685774
vt 0.623950 0.685859
vt 0.582259 0.690497
vt 0.582259 0.690453
vt 0.582285 0.687891
vt 0.624772 0.723679
vt 0.624747 0.726173
vt 0.582362 0.686792
vt 0.582466 0.686453
vt 0.624462 0.686114
vt 0.624565 0.686453
vt 0.582569 0.727949
vt 0.582466 0.727611
vt 0.624669 0.727272
vt 0.624565 0.727611
vt 0.582569 0.686114
vt 0.624669 0.686792
vt 0.582362 0.727272
vt 0.624462 0.727949
vt 0.582535 0.687619
vt 0.582346 0.726784
vt 0.582406 0.686883
vt 0.582532 0.726606
vt 0.624466 0.687412
vt 0.582681 0.686117
vt 0.624378 0.686129
vt 0.624511 0.726404
vt 0.624637 0.686953
vt 0.624679 0.726875
vt 0.582572 0.727761
vt 0.624433 0.727801
vt 0.622580 0.728288
s 1
f 57/1/1 51/2/2 52/3/3
f 186/4/4 32/5/5 31/6/6
f 59/7/7 53/8/8 54/9/9
f 53/8/8 59/7/7 58/10/10
f 34/11/11 28/12/12 29/13/13
f 187/14/14 79/15/15 8/16/16
f 123/17/17 81/18/18 10/19/19
f 68/20/20 82/21/21 7/22/22
f 188/23/23 60/24/24 61/25/25
f 214/26/26 8/16/16 79/15/15
f 189/27/27 35/28/28 36/29/29
f 215/30/30 62/31/31 63/32/32
f 190/33/33 10/19/19 81/18/18
f 191/34/34 37/35/35 38/36/36
f 191/34/34 7/22/22 82/21/21
f 192/37/37 56/38/38 57/1/1
f 192/37/37 61/25/25 60/24/24
f 208/39/39 31/6/6 32/5/5
f 193/40/40 36/29/29 35/28/28
f 217/41/41 58/10/10 59/7/7
f 194/42/42 63/32/32 62/31/31
f 195/43/43 33/44/44 34/11/11
f 209/45/45 38/36/36 37/35/35
f 218/46/46 64/47/47 65/48/48
f 196/49/49 52/3/3 51/2/2
f 197/50/50 43/51/51 44/52/52
f 210/53/53 186/4/4 27/54/54
f 198/55/55 66/56/56 67/57/57
f 198/55/55 54/9/9 53/8/8
f 199/58/58 45/59/59 46/60/60
f 211/61/61 29/13/13 28/12/12
f 221/62/62 1/63/63 73/64/64
f 200/65/65 65/48/48 64/47/47
f 201/66/66 39/67/67 40/68/68
f 212/69/69 44/52/52 43/51/51
f 202/70/70 2/71/71 74/72/72
f 222/73/73 67/57/57 66/56/56
f 203/74/74 41/75/75 42/76/76
f 203/74/74 46/60/60 45/59/59
f 187/14/14 55/77/77 204/78/78
f 186/4/4 5/79/79 32/5/5
f 88/80/80 31/6/6 76/81/81
f 3/82/82 29/13/13 15/82/83
f 33/44/44 90/83/84 28/12/12
f 30/84/85 80/85/86 9/86/87
f 361/87/88 36/29/29 85/88/89
f 206/89/90 9/86/87 80/85/86
f 206/89/90 12/90/91 35/28/28
f 359/91/92 38/36/36 83/92/93
f 207/93/94 14/94/95 37/35/35
f 365/79/96 32/5/5 5/79/79
f 208/39/39 85/88/89 36/29/29
f 326/95/97 35/28/28 12/90/91
f 193/40/40 76/81/81 31/6/6
f 363/96/98 34/11/11 3/82/82
f 195/43/43 83/92/93 38/36/36
f 328/97/99 37/35/35 14/94/95
f 209/45/45 78/83/100 33/44/44
f 369/98/101 44/52/52 93/99/102
f 197/50/50 17/98/103 186/4/4
f 330/80/104 27/54/54 88/80/80
f 210/53/53 20/100/105 43/51/51
f 367/101/106 46/60/60 91/101/107
f 199/58/58 15/82/83 29/13/13
f 332/102/108 28/12/12 90/83/84
f 211/61/61 22/102/109 45/59/59
f 201/66/66 93/99/102 44/52/52
f 334/103/110 43/51/51 20/100/105
f 203/74/74 91/101/107 46/60/60
f 336/104/111 45/59/59 22/102/109
f 4/105/112 52/3/3 16/106/113
f 6/107/114 54/9/9 18/108/115
f 89/109/116 58/10/10 77/110/117
f 58/10/10 89/109/116 53/8/8
f 360/111/118 61/25/25 84/112/119
f 214/26/26 11/113/120 60/24/24
f 362/114/121 63/32/32 86/115/122
f 190/33/33 13/116/123 62/31/31
f 364/117/124 57/1/1 4/105/112
f 192/37/37 84/112/119 61/25/25
f 325/118/125 60/24/24 11/113/120
f 216/119/126 75/120/127 56/38/38
f 366/121/128 59/7/7 6/107/114
f 217/41/41 86/115/122 63/32/32
f 327/122/129 62/31/31 13/116/123
f 194/42/42 77/110/117 58/10/10
f 368/123/130 65/48/48 92/124/131
f 218/46/46 16/106/113 52/3/3
f 329/125/132 51/2/2 87/126/133
f 219/127/134 19/128/135 64/47/47
f 370/129/136 67/57/57 94/130/137
f 220/131/138 18/108/115 54/9/9
f 331/132/139 53/8/8 89/109/116
f 198/55/55 21/133/140 66/56/56
f 221/62/62 92/124/131 65/48/48
f 333/134/141 64/47/47 19/128/135
f 202/70/70 94/130/137 67/57/57
f 335/135/142 66/56/56 21/133/140
f 223/136/143 103/137/144 379/138/145
f 224/139/146 16/106/113 389/140/147
f 104/141/148 389/140/147 116/142/149
f 105/143/150 225/144/151 117/145/152
f 225/144/151 105/143/150 380/146/153
f 17/98/103 380/146/153 5/79/79
f 226/147/154 18/108/115 390/148/155
f 68/20/20 7/22/22 381/149/156
f 187/14/14 381/149/156 107/150/157
f 55/77/77 8/16/16 382/151/158
f 204/78/78 382/151/158 108/152/159
f 30/84/85 9/86/87 383/153/160
f 30/84/85 383/153/160 109/154/161
f 123/17/17 10/19/19 384/155/162
f 205/156/163 384/155/162 110/157/164
f 227/158/165 79/15/15 346/159/166
f 395/160/167 346/159/166 107/150/157
f 227/158/165 111/161/168 385/162/169
f 321/163/170 385/162/169 11/113/120
f 228/164/171 80/85/86 347/165/172
f 396/166/173 347/165/172 108/152/159
f 228/164/171 112/167/174 386/168/175
f 322/169/176 386/168/175 12/90/91
f 229/170/177 81/18/18 348/171/178
f 397/172/179 348/171/178 109/154/161
f 229/170/177 113/173/180 387/174/181
f 323/175/182 387/174/181 13/116/123
f 230/176/183 82/21/21 349/177/184
f 398/178/185 349/177/184 110/157/164
f 230/176/183 114/179/186 388/180/187
f 324/181/188 388/180/187 14/94/95
f 231/182/189 11/113/120 385/162/169
f 399/183/190 385/162/169 111/161/168
f 231/182/189 103/137/144 243/184/191
f 325/118/125 243/184/191 75/120/127
f 232/185/192 12/90/91 386/168/175
f 400/186/193 386/168/175 112/167/174
f 232/185/192 104/141/148 343/187/194
f 326/95/97 343/187/194 76/81/81
f 233/188/195 13/116/123 387/174/181
f 401/189/196 387/174/181 113/173/180
f 233/188/195 105/143/150 344/190/197
f 327/122/129 344/190/197 77/110/117
f 234/191/198 14/94/95 388/180/187
f 402/192/199 388/180/187 114/179/186
f 234/191/198 106/193/200 345/194/201
f 328/97/99 345/194/201 78/83/100
f 235/195/202 87/126/133 354/196/203
f 403/197/204 354/196/203 115/198/205
f 235/195/202 119/199/206 391/200/207
f 329/125/132 391/200/207 19/128/135
f 236/201/208 88/80/80 244/202/209
f 404/203/210 244/202/209 116/142/149
f 236/201/208 120/204/211 392/205/212
f 330/80/104 392/205/212 20/100/105
f 237/206/213 89/109/116 245/207/214
f 405/208/215 245/207/214 117/145/152
f 237/206/213 121/209/216 393/210/217
f 331/132/139 393/210/217 21/133/140
f 238/211/218 90/83/84 246/212/219
f 406/213/220 246/212/219 118/214/221
f 238/211/218 122/215/222 394/216/223
f 332/102/108 394/216/223 22/102/109
f 239/217/224 19/128/135 391/200/207
f 407/218/225 391/200/207 119/199/206
f 333/134/141 99/219/226 1/63/63
f 240/220/227 20/100/105 392/205/212
f 408/221/228 392/205/212 120/204/211
f 240/220/227 100/222/229 377/223/230
f 334/103/110 377/223/230 39/67/67
f 241/224/231 21/133/140 393/210/217
f 409/225/232 393/210/217 121/209/216
f 335/135/142 101/226/233 2/71/71
f 242/227/234 22/102/109 394/216/223
f 410/228/235 394/216/223 122/215/222
f 242/227/234 102/229/236 378/230/237
f 336/104/111 378/230/237 41/75/75
f 243/184/191 115/198/205 354/196/203
f 75/120/127 354/196/203 87/126/133
f 115/198/205 243/184/191 103/137/144
f 244/202/209 76/81/81 343/187/194
f 245/207/214 77/110/117 344/190/197
f 78/83/100 246/212/219 90/83/84
f 246/212/219 78/83/100 345/194/201
f 118/214/221 345/194/201 106/193/200
f 187/14/14 107/150/157 346/159/166
f 187/14/14 346/159/166 79/15/15
f 204/78/78 108/152/159 347/165/172
f 204/78/78 347/165/172 80/85/86
f 124/231/238 109/154/161 348/171/178
f 124/231/238 348/171/178 81/18/18
f 205/156/163 110/157/164 349/177/184
f 205/156/163 349/177/184 82/21/21
f 247/232/239 107/150/157 381/149/156
f 359/91/92 381/149/156 7/22/22
f 247/232/239 83/92/93 350/233/240
f 395/160/167 350/233/240 111/161/168
f 248/234/241 108/152/159 382/151/158
f 360/111/118 382/151/158 8/16/16
f 248/234/241 84/112/119 351/235/242
f 396/166/173 351/235/242 112/167/174
f 249/236/243 109/154/161 383/153/160
f 361/87/88 383/153/160 9/86/87
f 249/236/243 85/88/89 352/237/244
f 397/172/179 352/237/244 113/173/180
f 250/238/245 110/157/164 384/155/162
f 362/114/121 384/155/162 10/19/19
f 250/238/245 86/115/122 353/239/246
f 398/178/185 353/239/246 114/179/186
f 251/240/247 111/161/168 350/233/240
f 363/96/98 350/233/240 83/92/93
f 251/240/247 3/82/82 379/138/145
f 399/183/190 379/138/145 103/137/144
f 252/241/248 112/167/174 351/235/242
f 364/117/124 351/235/242 84/112/119
f 252/241/248 4/105/112 224/139/146
f 400/186/193 224/139/146 104/141/148
f 253/242/249 113/173/180 352/237/244
f 365/79/96 352/237/244 85/88/89
f 253/242/249 5/79/79 380/146/153
f 401/189/196 380/146/153 105/143/150
f 254/243/250 114/179/186 353/239/246
f 366/121/128 353/239/246 86/115/122
f 254/243/250 6/107/114 226/147/154
f 402/192/199 226/147/154 106/193/200
f 255/244/251 115/198/205 223/136/143
f 367/101/106 223/136/143 15/82/83
f 255/244/251 91/101/107 355/245/252
f 403/197/204 355/245/252 119/199/206
f 256/246/253 116/142/149 389/140/147
f 368/123/130 389/140/147 16/106/113
f 256/246/253 92/124/131 356/247/254
f 404/203/210 356/247/254 120/204/211
f 257/248/255 117/145/152 225/144/151
f 369/98/101 225/144/151 17/98/103
f 257/248/255 93/99/102 357/249/256
f 405/208/215 357/249/256 121/209/216
f 258/250/257 118/214/221 390/148/155
f 370/129/136 390/148/155 18/108/115
f 258/250/257 94/130/137 358/251/258
f 406/213/220 358/251/258 122/215/222
f 259/252/259 119/199/206 355/245/252
f 371/253/260 355/245/252 91/101/107
f 259/252/259 42/76/76 341/254/261
f 407/218/225 341/254/261 99/219/226
f 260/255/262 120/204/211 356/247/254
f 372/256/263 356/247/254 92/124/131
f 260/255/262 73/64/64 100/222/229
f 261/257/264 121/209/216 357/249/256
f 373/258/265 357/249/256 93/99/102
f 261/257/264 40/68/68 342/259/266
f 409/225/232 342/259/266 101/226/233
f 262/260/267 122/215/222 358/251/258
f 374/261/268 358/251/258 94/130/137
f 262/260/267 74/72/72 102/229/236
f 123/17/17 30/84/85 124/231/238
f 267/262/269 127/263/270 133/264/271
f 264/265/272 128/266/273 129/267/274
f 411/268/275 49/269/276 146/270/277
f 263/271/278 126/268/279 135/272/280
f 25/273/281 125/274/282 131/275/283
f 264/265/272 24/276/284 23/277/285
f 265/278/286 129/267/274 130/279/287
f 265/278/286 71/280/288 24/276/284
f 71/280/288 130/279/287 139/280/289
f 266/281/290 131/275/283 132/282/291
f 266/281/290 70/283/292 26/284/293
f 70/283/292 132/282/291 138/285/294
f 267/262/269 48/286/295 47/287/296
f 268/288/297 133/264/271 134/289/298
f 268/288/297 69/290/299 48/286/295
f 412/291/300 134/289/298 137/291/301
f 269/292/302 50/293/303 437/294/304
f 263/271/278 437/294/304 49/269/276
f 269/292/302 135/272/280 136/295/305
f 269/292/302 72/296/306 50/293/303
f 413/297/307 136/295/305 140/297/308
f 270/298/309 157/299/310 438/300/311
f 412/291/300 438/300/311 69/290/299
f 270/298/309 137/291/301 417/298/312
f 414/301/313 417/298/312 141/301/314
f 271/302/315 158/303/316 439/302/317
f 271/302/315 138/285/294 418/302/318
f 415/304/319 418/302/318 142/304/320
f 272/305/321 139/280/289 419/306/322
f 416/307/323 419/306/322 143/307/324
f 273/308/325 160/309/326 440/310/327
f 413/297/307 440/310/327 72/296/306
f 273/308/325 140/297/308 420/308/328
f 160/309/326 420/308/328 144/311/329
f 414/301/313 274/312/330 157/299/310
f 274/312/330 141/301/314 421/312/331
f 145/313/332 421/312/331 125/274/282
f 275/314/333 146/270/277 441/315/334
f 415/304/319 441/315/334 158/303/316
f 275/314/333 142/304/320 422/314/335
f 411/268/275 422/314/335 126/268/279
f 276/316/336 147/317/337 442/318/338
f 416/307/323 442/318/338 159/319/339
f 276/316/336 143/307/324 423/316/340
f 147/317/337 423/316/340 127/263/270
f 277/320/341 144/311/329 424/321/342
f 148/322/343 424/321/342 128/266/273
f 278/323/344 153/324/345 445/325/346
f 455/326/347 445/325/346 163/327/348
f 279/328/349 149/329/350 446/330/351
f 165/331/352 446/330/351 164/332/353
f 280/333/354 155/334/355 444/335/356
f 171/336/357 444/335/356 162/337/358
f 280/333/354 171/336/357 286/338/359
f 281/339/360 151/340/361 443/341/362
f 167/342/363 443/341/362 161/343/364
f 282/344/365 149/329/350 279/328/349
f 456/345/366 279/328/349 165/331/352
f 149/329/350 282/344/365 150/346/367
f 282/344/365 175/347/368 431/348/369
f 283/349/370 151/340/361 281/339/360
f 457/350/371 281/339/360 167/342/363
f 151/340/361 283/349/370 152/351/372
f 283/349/370 174/352/373 430/353/374
f 284/354/375 153/324/345 278/323/344
f 153/324/345 284/354/375 154/355/376
f 285/356/377 154/355/376 284/354/375
f 285/356/377 173/357/378 429/358/379
f 458/294/380 286/338/359 171/336/357
f 286/338/359 172/359/381 287/360/382
f 287/360/382 176/361/383 432/362/384
f 288/363/385 154/355/376 429/358/379
f 459/364/386 429/358/379 173/357/378
f 288/363/385 177/365/387 451/366/388
f 337/367/389 451/366/388 95/368/390
f 289/369/391 152/351/372 430/353/374
f 460/370/392 430/353/374 174/352/373
f 289/369/391 178/371/393 452/372/394
f 338/373/395 452/372/394 96/374/396
f 290/375/397 150/346/367 431/348/369
f 461/376/398 431/348/369 175/347/368
f 290/375/397 179/377/399 453/378/400
f 339/379/401 453/378/400 97/380/402
f 291/381/403 156/382/404 432/362/384
f 462/383/405 432/362/384 176/361/383
f 291/381/403 180/384/406 454/385/407
f 340/386/408 454/385/407 98/387/409
f 292/388/410 95/368/390 451/366/388
f 463/389/411 451/366/388 177/365/387
f 292/388/410 161/343/364 443/341/362
f 375/390/412 443/341/362 151/340/361
f 293/391/413 96/374/396 452/372/394
f 464/392/414 452/372/394 178/371/393
f 293/391/413 162/337/358 444/335/356
f 376/393/415 444/335/356 155/334/355
f 294/394/416 97/380/402 453/378/400
f 465/395/417 453/378/400 179/377/399
f 294/394/416 163/327/348 445/325/346
f 97/380/402 445/325/346 153/324/345
f 295/396/418 98/387/409 454/385/407
f 466/397/419 454/385/407 180/384/406
f 295/396/418 164/332/353 446/330/351
f 98/387/409 446/330/351 149/329/350
f 296/398/420 163/327/348 427/399/421
f 47/287/296 427/399/421 147/317/337
f 455/326/347 296/398/420 169/400/422
f 298/401/423 164/332/353 428/332/424
f 23/277/285 428/332/424 148/322/343
f 297/402/425 162/337/358 426/403/426
f 49/269/276 426/403/426 146/270/277
f 297/402/425 49/269/276 304/404/427
f 300/405/428 161/343/364 425/406/429
f 25/273/281 425/406/429 145/313/332
f 298/401/423 24/276/284 299/407/430
f 456/345/366 299/407/430 166/408/431
f 299/407/430 71/280/288 449/347/432
f 166/408/431 449/347/432 175/347/368
f 26/284/293 300/405/428 25/273/281
f 300/405/428 26/284/293 301/409/433
f 457/350/371 301/409/433 168/410/434
f 301/409/433 70/283/292 448/411/435
f 168/410/434 448/411/435 174/352/373
f 302/49/436 169/400/422 296/398/420
f 302/49/436 48/286/295 303/412/437
f 169/400/422 303/412/437 170/413/438
f 303/412/437 69/290/299 447/414/439
f 170/413/438 447/414/439 173/357/378
f 437/294/304 304/404/427 49/269/276
f 304/404/427 50/293/303 305/415/440
f 458/294/380 305/415/440 172/359/381
f 305/415/440 72/296/306 450/416/441
f 172/359/381 450/416/441 176/361/383
f 306/417/442 173/357/378 447/414/439
f 438/300/311 447/414/439 69/290/299
f 306/417/442 157/299/310 433/418/443
f 459/364/386 433/418/443 177/365/387
f 307/419/444 174/352/373 448/411/435
f 439/302/317 448/411/435 70/283/292
f 307/419/444 158/303/316 434/420/445
f 460/370/392 434/420/445 178/371/393
f 308/421/446 175/347/368 449/347/432
f 272/305/321 449/347/432 71/280/288
f 308/421/446 159/319/339 435/422/447
f 461/376/398 435/422/447 179/377/399
f 309/423/448 176/361/383 450/416/441
f 440/310/327 450/416/441 72/296/306
f 309/423/448 160/309/326 436/424/449
f 462/383/405 436/424/449 180/384/406
f 310/425/450 177/365/387 433/418/443
f 274/312/330 433/418/443 157/299/310
f 310/425/450 145/313/332 425/406/429
f 463/389/411 425/406/429 161/343/364
f 311/426/451 178/371/393 434/420/445
f 441/315/334 434/420/445 158/303/316
f 311/426/451 146/270/277 426/403/426
f 464/392/414 426/403/426 162/337/358
f 312/427/452 179/377/399 435/422/447
f 442/318/338 435/422/447 159/319/339
f 312/427/452 147/317/337 427/399/421
f 465/395/417 427/399/421 163/327/348
f 313/428/453 180/384/406 436/424/449
f 277/320/341 436/424/449 160/309/326
f 313/428/453 148/322/343 428/332/424
f 466/397/419 428/332/424 164/332/353
f 1/63/63 182/429/454 73/64/64
f 314/430/455 154/355/376 319/431/456
f 185/432/457 319/431/456 182/429/454
f 181/433/458 39/67/67 182/429/454
f 315/434/459 152/351/372 318/435/460
f 2/71/71 184/436/461 74/72/72
f 316/437/462 184/436/461 181/433/458
f 156/382/404 316/437/462 155/334/355
f 316/437/462 156/382/404 320/438/463
f 316/437/462 320/438/463 184/436/461
f 184/436/461 183/439/464 185/432/457
f 41/75/75 185/432/457 42/76/76
f 317/440/465 150/346/367 183/439/464
f 314/430/455 185/432/457 183/439/464
f 341/254/261 185/432/457 99/219/226
f 339/379/401 183/439/464 150/346/367
f 337/367/389 319/431/456 154/355/376
f 342/259/266 181/433/458 101/226/233
f 338/373/395 318/435/460 152/351/372
f 318/435/460 96/374/396 316/437/462
f 340/386/408 320/438/463 156/382/404
f 320/438/463 98/387/409 317/440/465
f 99/219/226 185/432/457 1/63/63
f 377/223/230 182/429/454 39/67/67
f 375/390/412 319/431/456 95/368/390
f 101/226/233 181/433/458 2/71/71
f 376/393/415 316/437/462 96/374/396
f 378/230/237 184/436/461 41/75/75
f 56/38/38 51/2/2 57/1/1
f 27/54/54 186/4/4 31/6/6
f 34/11/11 33/44/44 28/12/12
f 55/77/77 187/14/14 8/16/16
f 123/17/17 124/231/238 81/18/18
f 188/23/23 214/26/26 60/24/24
f 214/26/26 188/23/23 8/16/16
f 189/27/27 206/89/90 35/28/28
f 206/89/90 189/27/27 9/86/87
f 215/30/30 190/33/33 62/31/31
f 190/33/33 215/30/30 10/19/19
f 191/34/34 207/93/94 37/35/35
f 207/93/94 191/34/34 82/21/21
f 192/37/37 216/119/126 56/38/38
f 216/119/126 192/37/37 60/24/24
f 208/39/39 193/40/40 31/6/6
f 193/40/40 208/39/39 36/29/29
f 217/41/41 194/42/42 58/10/10
f 194/42/42 217/41/41 63/32/32
f 195/43/43 209/45/45 33/44/44
f 209/45/45 195/43/43 38/36/36
f 196/49/49 219/127/134 64/47/47
f 218/46/46 196/49/49 64/47/47
f 196/49/49 218/46/46 52/3/3
f 219/127/134 196/49/49 51/2/2
f 197/50/50 210/53/53 43/51/51
f 210/53/53 197/50/50 186/4/4
f 220/131/138 198/55/55 67/57/57
f 198/55/55 220/131/138 54/9/9
f 199/58/58 211/61/61 45/59/59
f 211/61/61 199/58/58 29/13/13
f 221/62/62 200/65/65 1/63/63
f 200/65/65 221/62/62 65/48/48
f 201/66/66 212/69/69 39/67/67
f 212/69/69 201/66/66 44/52/52
f 202/70/70 222/73/73 2/71/71
f 222/73/73 202/70/70 67/57/57
f 203/74/74 213/441/466 41/75/75
f 213/441/466 203/74/74 45/59/59
f 68/20/20 187/14/14 204/78/78
f 186/4/4 17/98/103 5/79/79
f 88/80/80 27/54/54 31/6/6
f 3/82/82 34/11/11 29/13/13
f 33/44/44 78/83/100 90/83/84
f 204/78/78 30/84/85 68/20/20
f 30/84/85 204/78/78 80/85/86
f 205/156/163 68/20/20 30/84/85
f 68/20/20 205/156/163 82/21/21
f 361/87/88 189/27/27 36/29/29
f 189/27/27 361/87/88 9/86/87
f 322/169/176 206/89/90 80/85/86
f 206/89/90 322/169/176 12/90/91
f 359/91/92 191/34/34 38/36/36
f 191/34/34 359/91/92 7/22/22
f 324/181/188 207/93/94 82/21/21
f 207/93/94 324/181/188 14/94/95
f 365/79/96 208/39/39 32/5/5
f 208/39/39 365/79/96 85/88/89
f 326/95/97 193/40/40 35/28/28
f 193/40/40 326/95/97 76/81/81
f 363/96/98 195/43/43 34/11/11
f 195/43/43 363/96/98 83/92/93
f 328/97/99 209/45/45 37/35/35
f 209/45/45 328/97/99 78/83/100
f 369/98/101 197/50/50 44/52/52
f 197/50/50 369/98/101 17/98/103
f 330/80/104 210/53/53 27/54/54
f 210/53/53 330/80/104 20/100/105
f 367/101/106 199/58/58 46/60/60
f 199/58/58 367/101/106 15/82/83
f 332/102/108 211/61/61 28/12/12
f 211/61/61 332/102/108 22/102/109
f 373/258/265 201/66/66 40/68/68
f 201/66/66 373/258/265 93/99/102
f 334/103/110 212/69/69 43/51/51
f 212/69/69 334/103/110 39/67/67
f 371/253/260 203/74/74 42/76/76
f 203/74/74 371/253/260 91/101/107
f 336/104/111 213/441/466 45/59/59
f 213/441/466 336/104/111 41/75/75
f 319/431/456 315/434/459 182/429/454
f 4/105/112 57/1/1 52/3/3
f 75/120/127 51/2/2 56/38/38
f 51/2/2 75/120/127 87/126/133
f 6/107/114 59/7/7 54/9/9
f 360/111/118 188/23/23 61/25/25
f 188/23/23 360/111/118 8/16/16
f 321/163/170 214/26/26 79/15/15
f 214/26/26 321/163/170 11/113/120
f 362/114/121 215/30/30 63/32/32
f 215/30/30 362/114/121 10/19/19
f 323/175/182 190/33/33 81/18/18
f 190/33/33 323/175/182 13/116/123
f 364/117/124 192/37/37 57/1/1
f 192/37/37 364/117/124 84/112/119
f 325/118/125 216/119/126 60/24/24
f 216/119/126 325/118/125 75/120/127
f 366/121/128 217/41/41 59/7/7
f 217/41/41 366/121/128 86/115/122
f 327/122/129 194/42/42 62/31/31
f 194/42/42 327/122/129 77/110/117
f 368/123/130 218/46/46 65/48/48
f 218/46/46 368/123/130 16/106/113
f 329/125/132 219/127/134 51/2/2
f 219/127/134 329/125/132 19/128/135
f 370/129/136 220/131/138 67/57/57
f 220/131/138 370/129/136 18/108/115
f 331/132/139 198/55/55 53/8/8
f 198/55/55 331/132/139 21/133/140
f 372/256/263 221/62/62 73/64/64
f 221/62/62 372/256/263 92/124/131
f 333/134/141 200/65/65 64/47/47
f 200/65/65 333/134/141 1/63/63
f 374/261/268 202/70/70 74/72/72
f 202/70/70 374/261/268 94/130/137
f 335/135/142 222/73/73 66/56/56
f 222/73/73 335/135/142 2/71/71
f 223/136/143 3/82/82 15/82/83
f 223/136/143 115/198/205 103/137/144
f 3/82/82 223/136/143 379/138/145
f 224/139/146 4/105/112 16/106/113
f 104/141/148 224/139/146 389/140/147
f 17/98/103 225/144/151 380/146/153
f 226/147/154 6/107/114 18/108/115
f 118/214/221 226/147/154 390/148/155
f 226/147/154 118/214/221 106/193/200
f 187/14/14 68/20/20 381/149/156
f 204/78/78 55/77/77 382/151/158
f 205/156/163 123/17/17 384/155/162
f 227/158/165 321/163/170 79/15/15
f 395/160/167 227/158/165 346/159/166
f 227/158/165 395/160/167 111/161/168
f 321/163/170 227/158/165 385/162/169
f 228/164/171 322/169/176 80/85/86
f 396/166/173 228/164/171 347/165/172
f 228/164/171 396/166/173 112/167/174
f 322/169/176 228/164/171 386/168/175
f 229/170/177 323/175/182 81/18/18
f 397/172/179 229/170/177 348/171/178
f 229/170/177 397/172/179 113/173/180
f 323/175/182 229/170/177 387/174/181
f 230/176/183 324/181/188 82/21/21
f 398/178/185 230/176/183 349/177/184
f 230/176/183 398/178/185 114/179/186
f 324/181/188 230/176/183 388/180/187
f 231/182/189 325/118/125 11/113/120
f 399/183/190 231/182/189 385/162/169
f 231/182/189 399/183/190 103/137/144
f 325/118/125 231/182/189 243/184/191
f 232/185/192 326/95/97 12/90/91
f 400/186/193 232/185/192 386/168/175
f 232/185/192 400/186/193 104/141/148
f 326/95/97 232/185/192 343/187/194
f 233/188/195 327/122/129 13/116/123
f 401/189/196 233/188/195 387/174/181
f 233/188/195 401/189/196 105/143/150
f 327/122/129 233/188/195 344/190/197
f 234/191/198 328/97/99 14/94/95
f 402/192/199 234/191/198 388/180/187
f 234/191/198 402/192/199 106/193/200
f 328/97/99 234/191/198 345/194/201
f 235/195/202 329/125/132 87/126/133
f 403/197/204 235/195/202 354/196/203
f 235/195/202 403/197/204 119/199/206
f 329/125/132 235/195/202 391/200/207
f 236/201/208 330/80/104 88/80/80
f 404/203/210 236/201/208 244/202/209
f 236/201/208 404/203/210 120/204/211
f 330/80/104 236/201/208 392/205/212
f 237/206/213 331/132/139 89/109/116
f 405/208/215 237/206/213 245/207/214
f 237/206/213 405/208/215 121/209/216
f 331/132/139 237/206/213 393/210/217
f 238/211/218 332/102/108 90/83/84
f 406/213/220 238/211/218 246/212/219
f 238/211/218 406/213/220 122/215/222
f 332/102/108 238/211/218 394/216/223
f 239/217/224 333/134/141 19/128/135
f 407/218/225 239/217/224 391/200/207
f 239/217/224 407/218/225 99/219/226
f 333/134/141 239/217/224 99/219/226
f 240/220/227 334/103/110 20/100/105
f 408/221/228 240/220/227 392/205/212
f 240/220/227 408/221/228 100/222/229
f 334/103/110 240/220/227 377/223/230
f 241/224/231 335/135/142 21/133/140
f 409/225/232 241/224/231 393/210/217
f 241/224/231 409/225/232 101/226/233
f 335/135/142 241/224/231 101/226/233
f 242/227/234 336/104/111 22/102/109
f 410/228/235 242/227/234 394/216/223
f 242/227/234 410/228/235 102/229/236
f 336/104/111 242/227/234 378/230/237
f 75/120/127 243/184/191 354/196/203
f 244/202/209 104/141/148 116/142/149
f 244/202/209 88/80/80 76/81/81
f 104/141/148 244/202/209 343/187/194
f 245/207/214 105/143/150 117/145/152
f 245/207/214 89/109/116 77/110/117
f 105/143/150 245/207/214 344/190/197
f 118/214/221 246/212/219 345/194/201
f 124/231/238 30/84/85 109/154/161
f 247/232/239 395/160/167 107/150/157
f 359/91/92 247/232/239 381/149/156
f 247/232/239 359/91/92 83/92/93
f 395/160/167 247/232/239 350/233/240
f 248/234/241 396/166/173 108/152/159
f 360/111/118 248/234/241 382/151/158
f 248/234/241 360/111/118 84/112/119
f 396/166/173 248/234/241 351/235/242
f 249/236/243 397/172/179 109/154/161
f 361/87/88 249/236/243 383/153/160
f 249/236/243 361/87/88 85/88/89
f 397/172/179 249/236/243 352/237/244
f 250/238/245 398/178/185 110/157/164
f 362/114/121 250/238/245 384/155/162
f 250/238/245 362/114/121 86/115/122
f 398/178/185 250/238/245 353/239/246
f 251/240/247 399/183/190 111/161/168
f 363/96/98 251/240/247 350/233/240
f 251/240/247 363/96/98 3/82/82
f 399/183/190 251/240/247 379/138/145
f 252/241/248 400/186/193 112/167/174
f 364/117/124 252/241/248 351/235/242
f 252/241/248 364/117/124 4/105/112
f 400/186/193 252/241/248 224/139/146
f 253/242/249 401/189/196 113/173/180
f 365/79/96 253/242/249 352/237/244
f 253/242/249 365/79/96 5/79/79
f 401/189/196 253/242/249 380/146/153
f 254/243/250 402/192/199 114/179/186
f 366/121/128 254/243/250 353/239/246
f 254/243/250 366/121/128 6/107/114
f 402/192/199 254/243/250 226/147/154
f 255/244/251 403/197/204 115/198/205
f 367/101/106 255/244/251 223/136/143
f 255/244/251 367/101/106 91/101/107
f 403/197/204 255/244/251 355/245/252
f 256/246/253 404/203/210 116/142/149
f 368/123/130 256/246/253 389/140/147
f 256/246/253 368/123/130 92/124/131
f 404/203/210 256/246/253 356/247/254
f 257/248/255 405/208/215 117/145/152
f 369/98/101 257/248/255 225/144/151
f 257/248/255 369/98/101 93/99/102
f 405/208/215 257/248/255 357/249/256
f 258/250/257 406/213/220 118/214/221
f 370/129/136 258/250/257 390/148/155
f 258/250/257 370/129/136 94/130/137
f 406/213/220 258/250/257 358/251/258
f 259/252/259 407/218/225 119/199/206
f 371/253/260 259/252/259 355/245/252
f 259/252/259 371/253/260 42/76/76
f 407/218/225 259/252/259 341/254/261
f 260/255/262 408/221/228 120/204/211
f 372/256/263 260/255/262 356/247/254
f 260/255/262 372/256/263 73/64/64
f 408/221/228 260/255/262 100/222/229
f 261/257/264 409/225/232 121/209/216
f 373/258/265 261/257/264 357/249/256
f 261/257/264 373/258/265 40/68/68
f 409/225/232 261/257/264 342/259/266
f 262/260/267 410/228/235 122/215/222
f 374/261/268 262/260/267 358/251/258
f 262/260/267 374/261/268 74/72/72
f 410/228/235 262/260/267 102/229/236
f 30/84/85 123/17/17 205/156/163
f 147/317/337 267/262/269 47/287/296
f 267/262/269 147/317/337 127/263/270
f 148/322/343 264/265/272 23/277/285
f 264/265/272 148/322/343 128/266/273
f 411/268/275 263/271/278 49/269/276
f 263/271/278 411/268/275 126/268/279
f 25/273/281 145/313/332 125/274/282
f 264/265/272 265/278/286 24/276/284
f 265/278/286 264/265/272 129/267/274
f 71/280/288 265/278/286 130/279/287
f 25/273/281 266/281/290 26/284/293
f 266/281/290 25/273/281 131/275/283
f 70/283/292 266/281/290 132/282/291
f 267/262/269 268/288/297 48/286/295
f 268/288/297 267/262/269 133/264/271
f 268/288/297 412/291/300 69/290/299
f 412/291/300 268/288/297 134/289/298
f 263/271/278 269/292/302 437/294/304
f 269/292/302 263/271/278 135/272/280
f 269/292/302 413/297/307 72/296/306
f 413/297/307 269/292/302 136/295/305
f 270/298/309 414/301/313 157/299/310
f 412/291/300 270/298/309 438/300/311
f 270/298/309 412/291/300 137/291/301
f 414/301/313 270/298/309 417/298/312
f 271/302/315 415/304/319 158/303/316
f 70/283/292 271/302/315 439/302/317
f 271/302/315 70/283/292 138/285/294
f 415/304/319 271/302/315 418/302/318
f 272/305/321 416/307/323 159/319/339
f 272/305/321 71/280/288 139/280/289
f 416/307/323 272/305/321 419/306/322
f 413/297/307 273/308/325 440/310/327
f 273/308/325 413/297/307 140/297/308
f 160/309/326 273/308/325 420/308/328
f 274/312/330 414/301/313 141/301/314
f 145/313/332 274/312/330 421/312/331
f 275/314/333 411/268/275 146/270/277
f 415/304/319 275/314/333 441/315/334
f 275/314/333 415/304/319 142/304/320
f 411/268/275 275/314/333 422/314/335
f 416/307/323 276/316/336 442/318/338
f 276/316/336 416/307/323 143/307/324
f 147/317/337 276/316/336 423/316/340
f 277/320/341 160/309/326 144/311/329
f 148/322/343 277/320/341 424/321/342
f 455/326/347 278/323/344 445/325/346
f 278/323/344 455/326/347 169/400/422
f 165/331/352 279/328/349 446/330/351
f 171/336/357 280/333/354 444/335/356
f 155/334/355 280/333/354 286/338/359
f 167/342/363 281/339/360 443/341/362
f 456/345/366 282/344/365 279/328/349
f 282/344/365 456/345/366 166/408/431
f 282/344/365 166/408/431 175/347/368
f 150/346/367 282/344/365 431/348/369
f 457/350/371 283/349/370 281/339/360
f 283/349/370 457/350/371 168/410/434
f 283/349/370 168/410/434 174/352/373
f 152/351/372 283/349/370 430/353/374
f 169/400/422 284/354/375 278/323/344
f 284/354/375 169/400/422 170/413/438
f 170/413/438 285/356/377 284/354/375
f 285/356/377 170/413/438 173/357/378
f 154/355/376 285/356/377 429/358/379
f 286/338/359 156/382/404 155/334/355
f 286/338/359 458/294/380 172/359/381
f 156/382/404 286/338/359 287/360/382
f 287/360/382 172/359/381 176/361/383
f 156/382/404 287/360/382 432/362/384
f 288/363/385 337/367/389 154/355/376
f 459/364/386 288/363/385 429/358/379
f 288/363/385 459/364/386 177/365/387
f 337/367/389 288/363/385 451/366/388
f 289/369/391 338/373/395 152/351/372
f 460/370/392 289/369/391 430/353/374
f 289/369/391 460/370/392 178/371/393
f 338/373/395 289/369/391 452/372/394
f 290/375/397 339/379/401 150/346/367
f 461/376/398 290/375/397 431/348/369
f 290/375/397 461/376/398 179/377/399
f 339/379/401 290/375/397 453/378/400
f 291/381/403 340/386/408 156/382/404
f 462/383/405 291/381/403 432/362/384
f 291/381/403 462/383/405 180/384/406
f 340/386/408 291/381/403 454/385/407
f 292/388/410 375/390/412 95/368/390
f 463/389/411 292/388/410 451/366/388
f 292/388/410 463/389/411 161/343/364
f 375/390/412 292/388/410 443/341/362
f 293/391/413 376/393/415 96/374/396
f 464/392/414 293/391/413 452/372/394
f 293/391/413 464/392/414 162/337/358
f 376/393/415 293/391/413 444/335/356
f 465/395/417 294/394/416 453/378/400
f 294/394/416 465/395/417 163/327/348
f 97/380/402 294/394/416 445/325/346
f 466/397/419 295/396/418 454/385/407
f 295/396/418 466/397/419 164/332/353
f 98/387/409 295/396/418 446/330/351
f 296/398/420 455/326/347 163/327/348
f 47/287/296 296/398/420 427/399/421
f 298/401/423 165/331/352 164/332/353
f 23/277/285 298/401/423 428/332/424
f 297/402/425 171/336/357 162/337/358
f 49/269/276 297/402/425 426/403/426
f 171/336/357 297/402/425 304/404/427
f 300/405/428 167/342/363 161/343/364
f 25/273/281 300/405/428 425/406/429
f 298/401/423 456/345/366 165/331/352
f 298/401/423 23/277/285 24/276/284
f 456/345/366 298/401/423 299/407/430
f 299/407/430 24/276/284 71/280/288
f 166/408/431 299/407/430 449/347/432
f 300/405/428 457/350/371 167/342/363
f 457/350/371 300/405/428 301/409/433
f 301/409/433 26/284/293 70/283/292
f 168/410/434 301/409/433 448/411/435
f 47/287/296 302/49/436 296/398/420
f 302/49/436 47/287/296 48/286/295
f 169/400/422 302/49/436 303/412/437
f 303/412/437 48/286/295 69/290/299
f 170/413/438 303/412/437 447/414/439
f 304/404/427 458/294/380 171/336/357
f 304/404/427 437/294/304 50/293/303
f 458/294/380 304/404/427 305/415/440
f 305/415/440 50/293/303 72/296/306
f 172/359/381 305/415/440 450/416/441
f 306/417/442 459/364/386 173/357/378
f 438/300/311 306/417/442 447/414/439
f 306/417/442 438/300/311 157/299/310
f 459/364/386 306/417/442 433/418/443
f 307/419/444 460/370/392 174/352/373
f 439/302/317 307/419/444 448/411/435
f 307/419/444 439/302/317 158/303/316
f 460/370/392 307/419/444 434/420/445
f 308/421/446 461/376/398 175/347/368
f 272/305/321 308/421/446 449/347/432
f 308/421/446 272/305/321 159/319/339
f 461/376/398 308/421/446 435/422/447
f 309/423/448 462/383/405 176/361/383
f 440/310/327 309/423/448 450/416/441
f 309/423/448 440/310/327 160/309/326
f 462/383/405 309/423/448 436/424/449
f 310/425/450 463/389/411 177/365/387
f 274/312/330 310/425/450 433/418/443
f 310/425/450 274/312/330 145/313/332
f 463/389/411 310/425/450 425/406/429
f 311/426/451 464/392/414 178/371/393
f 441/315/334 311/426/451 434/420/445
f 311/426/451 441/315/334 146/270/277
f 464/392/414 311/426/451 426/403/426
f 312/427/452 465/395/417 179/377/399
f 442/318/338 312/427/452 435/422/447
f 312/427/452 442/318/338 147/317/337
f 465/395/417 312/427/452 427/399/421
f 313/428/453 466/397/419 180/384/406
f 277/320/341 313/428/453 436/424/449
f 313/428/453 277/320/341 148/322/343
f 466/397/419 313/428/453 428/332/424
f 314/430/455 153/324/345 154/355/376
f 185/432/457 314/430/455 319/431/456
f 181/433/458 40/68/68 39/67/67
f 315/434/459 181/433/458 182/429/454
f 315/434/459 151/340/361 152/351/372
f 181/433/458 315/434/459 318/435/460
f 41/75/75 184/436/461 185/432/457
f 317/440/465 149/329/350 150/346/367
f 184/436/461 317/440/465 183/439/464
f 1/63/63 185/432/457 182/429/454
f 320/438/463 317/440/465 184/436/461
f 2/71/71 181/433/458 184/436/461
f 185/432/457 341/254/261 42/76/76
f 183/439/464 339/379/401 97/380/402
f 182/429/454 100/222/229 73/64/64
f 319/431/456 337/367/389 95/368/390
f 181/433/458 342/259/266 40/68/68
f 318/435/460 338/373/395 96/374/396
f 181/433/458 318/435/460 316/437/462
f 184/436/461 102/229/236 74/72/72
f 320/438/463 340/386/408 98/387/409
f 97/380/402 314/430/455 183/439/464
f 314/430/455 97/380/402 153/324/345
f 182/429/454 377/223/230 100/222/229
f 375/390/412 315/434/459 319/431/456
f 315/434/459 375/390/412 151/340/361
f 316/437/462 376/393/415 155/334/355
f 184/436/461 378/230/237 102/229/236
f 317/440/465 98/387/409 149/329/350
