# Blender 4.0.0
# www.blender.org
o Microwave011_Disc
v 0.000000 -0.107608 0.027951
v 0.000000 -0.091270 0.024197
v -0.012180 -0.106809 0.027951
v -0.010047 -0.090612 0.024197
v -0.024151 -0.104428 0.027951
v -0.019923 -0.088647 0.024197
v -0.035710 -0.100504 0.027951
v -0.029457 -0.085411 0.024197
v -0.046657 -0.095106 0.027951
v -0.038488 -0.080957 0.024197
v -0.056806 -0.088325 0.027951
v -0.046860 -0.075363 0.024197
v -0.065983 -0.080277 0.027951
v -0.054430 -0.068724 0.024197
v -0.074031 -0.071100 0.027951
v -0.061069 -0.061154 0.024197
v -0.080812 -0.060951 0.027951
v -0.066663 -0.052782 0.024197
v -0.086210 -0.050004 0.027951
v -0.071117 -0.043752 0.024197
v -0.090134 -0.038445 0.027951
v -0.074353 -0.034217 0.024197
v -0.092515 -0.026474 0.027951
v -0.076318 -0.024341 0.024197
v -0.093313 -0.014294 0.027951
v -0.076976 -0.014294 0.024197
v -0.092515 -0.002114 0.027951
v -0.076318 -0.004247 0.024197
v -0.090134 0.009857 0.027951
v -0.074353 0.005629 0.024197
v -0.086210 0.021415 0.027951
v -0.071117 0.015163 0.024197
v -0.080812 0.032363 0.027951
v -0.066663 0.024194 0.024197
v -0.074031 0.042512 0.027951
v -0.061069 0.032566 0.024197
v -0.065983 0.051689 0.027951
v -0.054430 0.040136 0.024197
v -0.056806 0.059736 0.027951
v -0.046860 0.046775 0.024197
v -0.046657 0.066518 0.027951
v -0.038488 0.052369 0.024197
v -0.035710 0.071916 0.027951
v -0.029457 0.056823 0.024197
v -0.024151 0.075840 0.027951
v -0.019923 0.060059 0.024197
v -0.012180 0.078221 0.027951
v -0.010047 0.062023 0.024197
v 0.000000 0.079019 0.027951
v 0.000000 0.062682 0.024197
v 0.012180 0.078221 0.027951
v 0.010047 0.062023 0.024197
v 0.024151 0.075840 0.027951
v 0.019923 0.060059 0.024197
v 0.035710 0.071916 0.027951
v 0.029457 0.056823 0.024197
v 0.046657 0.066518 0.027951
v 0.038488 0.052369 0.024197
v 0.056806 0.059736 0.027951
v 0.046860 0.046775 0.024197
v 0.065983 0.051689 0.027951
v 0.054430 0.040136 0.024197
v 0.074031 0.042512 0.027951
v 0.061069 0.032566 0.024197
v 0.080812 0.032363 0.027951
v 0.066663 0.024194 0.024197
v 0.086210 0.021415 0.027951
v 0.071117 0.015163 0.024197
v 0.090134 0.009857 0.027951
v 0.074353 0.005629 0.024197
v 0.092515 -0.002114 0.027951
v 0.076318 -0.004247 0.024197
v 0.093313 -0.014294 0.027951
v 0.076976 -0.014294 0.024197
v 0.092515 -0.026474 0.027951
v 0.076318 -0.024341 0.024197
v 0.090134 -0.038445 0.027951
v 0.074353 -0.034217 0.024197
v 0.086210 -0.050004 0.027951
v 0.071117 -0.043752 0.024197
v 0.080812 -0.060951 0.027951
v 0.066663 -0.052782 0.024197
v 0.074031 -0.071100 0.027951
v 0.061069 -0.061154 0.024197
v 0.065983 -0.080277 0.027951
v 0.054430 -0.068724 0.024197
v 0.056806 -0.088325 0.027951
v 0.046860 -0.075363 0.024197
v 0.046657 -0.095106 0.027951
v 0.038488 -0.080957 0.024197
v 0.035710 -0.100504 0.027951
v 0.029457 -0.085411 0.024197
v 0.024151 -0.104428 0.027951
v 0.019923 -0.088647 0.024197
v 0.012180 -0.106809 0.027951
v 0.010047 -0.090612 0.024197
v 0.000000 -0.113571 0.027951
v -0.012958 -0.112722 0.027951
v -0.025695 -0.110188 0.027951
v -0.037992 -0.106014 0.027951
v -0.049638 -0.100270 0.027951
v -0.060436 -0.093056 0.027951
v -0.070199 -0.084493 0.027951
v -0.078762 -0.074730 0.027951
v -0.085976 -0.063933 0.027951
v -0.091720 -0.052286 0.027951
v -0.095894 -0.039989 0.027951
v -0.098428 -0.027252 0.027951
v -0.099277 -0.014294 0.027951
v -0.098428 -0.001336 0.027951
v -0.095894 0.011401 0.027951
v -0.091720 0.023698 0.027951
v -0.085976 0.035344 0.027951
v -0.078762 0.046142 0.027951
v -0.070199 0.055905 0.027951
v -0.060436 0.064468 0.027951
v -0.049638 0.071682 0.027951
v -0.037992 0.077426 0.027951
v -0.025695 0.081600 0.027951
v -0.012958 0.084133 0.027951
v 0.000000 0.084983 0.027951
v 0.012958 0.084133 0.027951
v 0.025695 0.081600 0.027951
v 0.037992 0.077426 0.027951
v 0.049638 0.071682 0.027951
v 0.060436 0.064468 0.027951
v 0.070199 0.055905 0.027951
v 0.078762 0.046142 0.027951
v 0.085976 0.035344 0.027951
v 0.091720 0.023698 0.027951
v 0.095894 0.011401 0.027951
v 0.098428 -0.001336 0.027951
v 0.099277 -0.014294 0.027951
v 0.098428 -0.027252 0.027951
v 0.095894 -0.039989 0.027951
v 0.091720 -0.052286 0.027951
v 0.085976 -0.063933 0.027951
v 0.078762 -0.074730 0.027951
v 0.070199 -0.084493 0.027951
v 0.060436 -0.093056 0.027951
v 0.049638 -0.100270 0.027951
v 0.037992 -0.106014 0.027951
v 0.025695 -0.110188 0.027951
v 0.012958 -0.112722 0.027951
v -0.000000 -0.014294 0.026699
v 0.000000 -0.105208 0.026699
v -0.011867 -0.104430 0.026699
v -0.023530 -0.102110 0.026699
v -0.034791 -0.098288 0.026699
v -0.045457 -0.093028 0.026699
v -0.055345 -0.086421 0.026699
v -0.064286 -0.078580 0.026699
v -0.072127 -0.069639 0.026699
v -0.078734 -0.059751 0.026699
v -0.083994 -0.049085 0.026699
v -0.087816 -0.037824 0.026699
v -0.090136 -0.026161 0.026699
v -0.090914 -0.014294 0.026699
v -0.090136 -0.002427 0.026699
v -0.087816 0.009236 0.026699
v -0.083994 0.020497 0.026699
v -0.078734 0.031163 0.026699
v -0.072127 0.041051 0.026699
v -0.064286 0.049992 0.026699
v -0.055345 0.057833 0.026699
v -0.045457 0.064440 0.026699
v -0.034791 0.069699 0.026699
v -0.023530 0.073522 0.026699
v -0.011867 0.075842 0.026699
v 0.000000 0.076620 0.026699
v 0.011867 0.075842 0.026699
v 0.023530 0.073522 0.026699
v 0.034791 0.069699 0.026699
v 0.045457 0.064440 0.026699
v 0.055345 0.057833 0.026699
v 0.064286 0.049992 0.026699
v 0.072127 0.041051 0.026699
v 0.078734 0.031163 0.026699
v 0.083994 0.020497 0.026699
v 0.087816 0.009236 0.026699
v 0.090136 -0.002427 0.026699
v 0.090914 -0.014294 0.026699
v 0.090136 -0.026161 0.026699
v 0.087816 -0.037824 0.026699
v 0.083994 -0.049085 0.026699
v 0.078734 -0.059751 0.026699
v 0.072127 -0.069639 0.026699
v 0.064286 -0.078580 0.026699
v 0.055345 -0.086421 0.026699
v 0.045457 -0.093028 0.026699
v 0.034791 -0.098288 0.026699
v 0.023530 -0.102110 0.026699
v 0.011867 -0.104430 0.026699
v -0.012958 -0.112722 0.024526
v 0.000000 -0.113571 0.024526
v -0.025695 -0.110188 0.024526
v -0.037992 -0.106014 0.024526
v -0.049638 -0.100270 0.024526
v -0.060436 -0.093056 0.024526
v -0.070199 -0.084493 0.024526
v -0.078762 -0.074730 0.024526
v -0.085976 -0.063933 0.024526
v -0.091720 -0.052286 0.024526
v -0.095894 -0.039989 0.024526
v -0.098428 -0.027252 0.024526
v -0.099277 -0.014294 0.024526
v -0.098428 -0.001336 0.024526
v -0.095894 0.011401 0.024526
v -0.091720 0.023698 0.024526
v -0.085976 0.035344 0.024526
v -0.078762 0.046142 0.024526
v -0.070199 0.055905 0.024526
v -0.060436 0.064468 0.024526
v -0.049638 0.071682 0.024526
v -0.037992 0.077426 0.024526
v -0.025695 0.081600 0.024526
v -0.012958 0.084133 0.024526
v 0.000000 0.084983 0.024526
v 0.012958 0.084133 0.024526
v 0.025695 0.081600 0.024526
v 0.037992 0.077426 0.024526
v 0.049638 0.071682 0.024526
v 0.060436 0.064468 0.024526
v 0.070199 0.055905 0.024526
v 0.078762 0.046142 0.024526
v 0.085976 0.035344 0.024526
v 0.091720 0.023698 0.024526
v 0.095894 0.011401 0.024526
v 0.098428 -0.001336 0.024526
v 0.099277 -0.014294 0.024526
v 0.098428 -0.027252 0.024526
v 0.095894 -0.039989 0.024526
v 0.091720 -0.052286 0.024526
v 0.085976 -0.063933 0.024526
v 0.078762 -0.074730 0.024526
v 0.070199 -0.084493 0.024526
v 0.060436 -0.093056 0.024526
v 0.049638 -0.100270 0.024526
v 0.037992 -0.106014 0.024526
v 0.025695 -0.110188 0.024526
v 0.012958 -0.112722 0.024526
v 0.000000 -0.014294 0.019501
v -0.010047 -0.090612 0.019108
v 0.000000 -0.091270 0.019108
v -0.019923 -0.088647 0.019108
v -0.029457 -0.085411 0.019108
v -0.038488 -0.080957 0.019108
v -0.046860 -0.075363 0.019108
v -0.054430 -0.068724 0.019108
v -0.061069 -0.061154 0.019108
v -0.066663 -0.052782 0.019108
v -0.071117 -0.043752 0.019108
v -0.074353 -0.034217 0.019108
v -0.076318 -0.024341 0.019108
v -0.076976 -0.014294 0.019108
v -0.076318 -0.004247 0.019108
v -0.074353 0.005629 0.019108
v -0.071117 0.015163 0.019108
v -0.066663 0.024194 0.019108
v -0.061069 0.032566 0.019108
v -0.054430 0.040136 0.019108
v -0.046860 0.046775 0.019108
v -0.038488 0.052369 0.019108
v -0.029457 0.056823 0.019108
v -0.019923 0.060059 0.019108
v -0.010047 0.062023 0.019108
v 0.000000 0.062682 0.019108
v 0.010047 0.062023 0.019108
v 0.019923 0.060059 0.019108
v 0.029457 0.056823 0.019108
v 0.038488 0.052369 0.019108
v 0.046860 0.046775 0.019108
v 0.054430 0.040136 0.019108
v 0.061069 0.032566 0.019108
v 0.066663 0.024194 0.019108
v 0.071117 0.015163 0.019108
v 0.074353 0.005629 0.019108
v 0.076318 -0.004247 0.019108
v 0.076976 -0.014294 0.019108
v 0.076318 -0.024341 0.019108
v 0.074353 -0.034217 0.019108
v 0.071117 -0.043752 0.019108
v 0.066663 -0.052782 0.019108
v 0.061069 -0.061154 0.019108
v 0.054430 -0.068724 0.019108
v 0.046860 -0.075363 0.019108
v 0.038488 -0.080957 0.019108
v 0.029457 -0.085411 0.019108
v 0.019923 -0.088647 0.019108
v 0.010047 -0.090612 0.019108
vn -0.0000 1.0000 -0.0000
vn 0.1305 0.9914 -0.0000
vn 0.2588 0.9659 -0.0000
vn 0.3827 0.9239 -0.0000
vn 0.5000 0.8660 -0.0000
vn 0.6088 0.7934 -0.0000
vn 0.6088 0.7933 -0.0000
vn 0.7071 0.7071 -0.0000
vn 0.7933 0.6088 -0.0000
vn 0.7934 0.6088 -0.0000
vn 0.8660 0.5000 -0.0000
vn 0.9239 0.3827 -0.0000
vn 0.9659 0.2588 -0.0000
vn 0.9914 0.1305 -0.0000
vn 1.0000 -0.0000 -0.0000
vn 0.9914 -0.1305 -0.0000
vn 0.9659 -0.2588 -0.0000
vn 0.9239 -0.3827 -0.0000
vn 0.8660 -0.5000 -0.0000
vn 0.7934 -0.6088 -0.0000
vn 0.7933 -0.6088 -0.0000
vn 0.7071 -0.7071 -0.0000
vn 0.6088 -0.7933 -0.0000
vn 0.6088 -0.7934 -0.0000
vn 0.5000 -0.8660 -0.0000
vn 0.3827 -0.9239 -0.0000
vn 0.2588 -0.9659 -0.0000
vn 0.1305 -0.9914 -0.0000
vn -0.0000 -1.0000 -0.0000
vn -0.1305 -0.9914 -0.0000
vn -0.2588 -0.9659 -0.0000
vn -0.3827 -0.9239 -0.0000
vn -0.5000 -0.8660 -0.0000
vn -0.6088 -0.7934 -0.0000
vn -0.6088 -0.7933 -0.0000
vn -0.7071 -0.7071 -0.0000
vn -0.7933 -0.6088 -0.0000
vn -0.7934 -0.6088 -0.0000
vn -0.8660 -0.5000 -0.0000
vn -0.9239 -0.3827 -0.0000
vn -0.9659 -0.2588 -0.0000
vn -0.9914 -0.1305 -0.0000
vn -1.0000 -0.0000 -0.0000
vn -0.9914 0.1305 -0.0000
vn -0.9659 0.2588 -0.0000
vn -0.9239 0.3827 -0.0000
vn -0.8660 0.5000 -0.0000
vn -0.7934 0.6088 -0.0000
vn -0.7933 0.6088 -0.0000
vn -0.7071 0.7071 -0.0000
vn -0.6088 0.7933 -0.0000
vn -0.6088 0.7934 -0.0000
vn -0.5000 0.8660 -0.0000
vn -0.3827 0.9239 -0.0000
vn -0.2588 0.9659 -0.0000
vn -0.1305 0.9914 -0.0000
vn -0.2794 0.3641 -0.8884
vn -0.2295 0.3975 -0.8884
vn -0.0000 -0.0000 -1.0000
vn 0.1188 -0.4434 -0.8884
vn 0.0599 -0.4551 -0.8884
vn -0.3246 -0.3246 -0.8884
vn -0.3641 -0.2794 -0.8884
vn 0.4241 0.1757 -0.8884
vn 0.4434 0.1188 -0.8884
vn -0.1756 0.4241 -0.8884
vn -0.0000 -0.4590 -0.8884
vn -0.3975 -0.2295 -0.8884
vn 0.4551 0.0599 -0.8884
vn -0.1757 0.4241 -0.8884
vn -0.1188 0.4434 -0.8884
vn -0.4241 -0.1756 -0.8884
vn 0.4590 -0.0000 -0.8884
vn -0.0599 0.4551 -0.8884
vn -0.4241 -0.1757 -0.8884
vn -0.4434 -0.1188 -0.8884
vn 0.4551 -0.0599 -0.8884
vn -0.0000 0.4590 -0.8884
vn -0.4551 -0.0599 -0.8884
vn 0.4434 -0.1188 -0.8884
vn 0.0599 0.4551 -0.8884
vn -0.4590 -0.0000 -0.8884
vn 0.4241 -0.1757 -0.8884
vn 0.1188 0.4434 -0.8884
vn -0.4551 0.0599 -0.8884
vn 0.4241 -0.1756 -0.8884
vn 0.3975 -0.2295 -0.8884
vn 0.1757 0.4241 -0.8884
vn -0.4434 0.1188 -0.8884
vn 0.3641 -0.2794 -0.8884
vn -0.0599 -0.4551 -0.8884
vn 0.1756 0.4241 -0.8884
vn 0.2295 0.3975 -0.8884
vn -0.4241 0.1757 -0.8884
vn 0.3246 -0.3246 -0.8884
vn -0.1188 -0.4434 -0.8884
vn 0.2794 0.3641 -0.8884
vn -0.4241 0.1756 -0.8884
vn -0.3975 0.2295 -0.8884
vn 0.2794 -0.3641 -0.8884
vn -0.1757 -0.4241 -0.8884
vn 0.3246 0.3246 -0.8884
vn -0.3641 0.2794 -0.8884
vn 0.2295 -0.3975 -0.8884
vn -0.1756 -0.4241 -0.8884
vn -0.2295 -0.3975 -0.8884
vn 0.3641 0.2794 -0.8884
vn -0.3246 0.3246 -0.8884
vn 0.1756 -0.4241 -0.8884
vn -0.2794 -0.3641 -0.8884
vn 0.3975 0.2295 -0.8884
vn 0.1757 -0.4241 -0.8884
vn 0.4241 0.1756 -0.8884
vn 0.0001 0.0148 0.9999
vn 0.0019 0.0146 0.9999
vn 0.0020 0.0146 0.9999
vn 0.0038 0.0143 0.9999
vn 0.0056 0.0137 0.9999
vn 0.0057 0.0136 0.9999
vn 0.0073 0.0128 0.9999
vn 0.0074 0.0128 0.9999
vn 0.0089 0.0118 0.9999
vn 0.0090 0.0117 0.9999
vn 0.0104 0.0105 0.9999
vn 0.0105 0.0104 0.9999
vn 0.0117 0.0090 0.9999
vn 0.0118 0.0089 0.9999
vn 0.0128 0.0074 0.9999
vn 0.0128 0.0073 0.9999
vn 0.0136 0.0057 0.9999
vn 0.0137 0.0056 0.9999
vn 0.0143 0.0038 0.9999
vn 0.0146 0.0020 0.9999
vn 0.0146 0.0019 0.9999
vn 0.0148 0.0001 0.9999
vn 0.0148 -0.0001 0.9999
vn 0.0146 -0.0019 0.9999
vn 0.0146 -0.0020 0.9999
vn 0.0143 -0.0038 0.9999
vn 0.0137 -0.0056 0.9999
vn 0.0136 -0.0057 0.9999
vn 0.0128 -0.0073 0.9999
vn 0.0128 -0.0074 0.9999
vn 0.0118 -0.0089 0.9999
vn 0.0117 -0.0090 0.9999
vn 0.0105 -0.0104 0.9999
vn 0.0104 -0.0105 0.9999
vn 0.0090 -0.0117 0.9999
vn 0.0089 -0.0118 0.9999
vn 0.0074 -0.0128 0.9999
vn 0.0073 -0.0128 0.9999
vn 0.0057 -0.0136 0.9999
vn 0.0056 -0.0137 0.9999
vn 0.0038 -0.0143 0.9999
vn 0.0020 -0.0146 0.9999
vn 0.0019 -0.0146 0.9999
vn 0.0001 -0.0148 0.9999
vn -0.0001 -0.0148 0.9999
vn -0.0019 -0.0146 0.9999
vn -0.0020 -0.0146 0.9999
vn -0.0038 -0.0143 0.9999
vn -0.0056 -0.0137 0.9999
vn -0.0057 -0.0136 0.9999
vn -0.0073 -0.0128 0.9999
vn -0.0074 -0.0128 0.9999
vn -0.0089 -0.0118 0.9999
vn -0.0090 -0.0117 0.9999
vn -0.0104 -0.0105 0.9999
vn -0.0105 -0.0104 0.9999
vn -0.0117 -0.0090 0.9999
vn -0.0118 -0.0089 0.9999
vn -0.0128 -0.0074 0.9999
vn -0.0128 -0.0073 0.9999
vn -0.0136 -0.0057 0.9999
vn -0.0137 -0.0056 0.9999
vn -0.0143 -0.0038 0.9999
vn -0.0146 -0.0020 0.9999
vn -0.0146 -0.0019 0.9999
vn -0.0148 -0.0001 0.9999
vn -0.0148 0.0001 0.9999
vn -0.0146 0.0019 0.9999
vn -0.0146 0.0020 0.9999
vn -0.0143 0.0038 0.9999
vn -0.0137 0.0056 0.9999
vn -0.0136 0.0057 0.9999
vn -0.0128 0.0073 0.9999
vn -0.0128 0.0074 0.9999
vn -0.0118 0.0089 0.9999
vn -0.0117 0.0090 0.9999
vn -0.0105 0.0104 0.9999
vn -0.0104 0.0105 0.9999
vn -0.0090 0.0117 0.9999
vn -0.0089 0.0118 0.9999
vn -0.0074 0.0128 0.9999
vn -0.0073 0.0128 0.9999
vn -0.0057 0.0136 0.9999
vn -0.0056 0.0137 0.9999
vn -0.0038 0.0143 0.9999
vn -0.0020 0.0146 0.9999
vn -0.0019 0.0146 0.9999
vn -0.0001 0.0148 0.9999
vn -0.0000 -0.0000 1.0000
vn -0.0007 -0.0051 1.0000
vn -0.0000 -0.0051 1.0000
vn -0.0013 -0.0049 1.0000
vn -0.0016 -0.0048 1.0000
vn -0.0026 -0.0044 1.0000
vn -0.0020 -0.0047 1.0000
vn -0.0031 -0.0040 1.0000
vn -0.0025 -0.0044 1.0000
vn -0.0034 -0.0038 1.0000
vn -0.0038 -0.0034 1.0000
vn -0.0044 -0.0025 1.0000
vn -0.0040 -0.0031 1.0000
vn -0.0047 -0.0020 1.0000
vn -0.0044 -0.0026 1.0000
vn -0.0048 -0.0016 1.0000
vn -0.0050 -0.0010 1.0000
vn -0.0051 -0.0000 1.0000
vn -0.0051 -0.0007 1.0000
vn -0.0051 0.0007 1.0000
vn -0.0049 0.0013 1.0000
vn -0.0048 0.0016 1.0000
vn -0.0044 0.0026 1.0000
vn -0.0047 0.0020 1.0000
vn -0.0040 0.0031 1.0000
vn -0.0044 0.0025 1.0000
vn -0.0038 0.0034 1.0000
vn -0.0034 0.0038 1.0000
vn -0.0025 0.0044 1.0000
vn -0.0031 0.0040 1.0000
vn -0.0020 0.0047 1.0000
vn -0.0026 0.0044 1.0000
vn -0.0016 0.0048 1.0000
vn -0.0010 0.0050 1.0000
vn -0.0000 0.0051 1.0000
vn -0.0007 0.0051 1.0000
vn 0.0007 0.0051 1.0000
vn 0.0013 0.0049 1.0000
vn 0.0016 0.0048 1.0000
vn 0.0026 0.0044 1.0000
vn 0.0020 0.0047 1.0000
vn 0.0031 0.0040 1.0000
vn 0.0025 0.0044 1.0000
vn 0.0034 0.0038 1.0000
vn 0.0038 0.0034 1.0000
vn 0.0044 0.0025 1.0000
vn 0.0040 0.0031 1.0000
vn 0.0047 0.0020 1.0000
vn 0.0044 0.0026 1.0000
vn 0.0048 0.0016 1.0000
vn 0.0050 0.0010 1.0000
vn 0.0051 -0.0000 1.0000
vn 0.0051 0.0007 1.0000
vn 0.0051 -0.0007 1.0000
vn 0.0049 -0.0013 1.0000
vn 0.0048 -0.0016 1.0000
vn 0.0044 -0.0026 1.0000
vn 0.0047 -0.0020 1.0000
vn 0.0040 -0.0031 1.0000
vn 0.0044 -0.0025 1.0000
vn 0.0038 -0.0034 1.0000
vn 0.0034 -0.0038 1.0000
vn 0.0025 -0.0044 1.0000
vn 0.0031 -0.0040 1.0000
vn 0.0020 -0.0047 1.0000
vn 0.0026 -0.0044 1.0000
vn 0.0016 -0.0048 1.0000
vn 0.0010 -0.0050 1.0000
vn 0.0007 -0.0051 1.0000
vt 0.823946 0.482893
vt 0.823946 0.545121
vt 0.821354 0.545121
vt 0.821354 0.482893
vt 0.818761 0.545121
vt 0.818761 0.482893
vt 0.816168 0.545121
vt 0.816168 0.482893
vt 0.813575 0.545121
vt 0.813575 0.482893
vt 0.810982 0.545121
vt 0.810982 0.482893
vt 0.808390 0.545121
vt 0.808390 0.482893
vt 0.805797 0.545121
vt 0.805797 0.482893
vt 0.803204 0.545121
vt 0.803204 0.482893
vt 0.800611 0.545121
vt 0.800611 0.482893
vt 0.798018 0.545121
vt 0.798018 0.482893
vt 0.795426 0.545121
vt 0.795426 0.482893
vt 0.792833 0.545121
vt 0.792833 0.482893
vt 0.790240 0.545121
vt 0.790240 0.482893
vt 0.787647 0.545121
vt 0.787647 0.482893
vt 0.785054 0.545121
vt 0.785054 0.482893
vt 0.782461 0.545121
vt 0.782461 0.482893
vt 0.779869 0.545121
vt 0.779869 0.482893
vt 0.777276 0.545121
vt 0.777276 0.482893
vt 0.774683 0.545121
vt 0.774683 0.482893
vt 0.772090 0.545121
vt 0.772090 0.482893
vt 0.769497 0.545121
vt 0.769497 0.482893
vt 0.766905 0.545121
vt 0.766905 0.482893
vt 0.764312 0.545121
vt 0.764312 0.482893
vt 0.761719 0.545121
vt 0.761719 0.482893
vt 0.759126 0.545121
vt 0.759126 0.482893
vt 0.756533 0.545121
vt 0.756533 0.482893
vt 0.753940 0.545121
vt 0.753940 0.482893
vt 0.751348 0.545121
vt 0.751348 0.482893
vt 0.748755 0.545121
vt 0.748755 0.482893
vt 0.746162 0.545121
vt 0.746162 0.482893
vt 0.743569 0.545121
vt 0.743569 0.482893
vt 0.740976 0.545121
vt 0.740976 0.482893
vt 0.738384 0.545121
vt 0.738384 0.482893
vt 0.735791 0.545121
vt 0.735791 0.482893
vt 0.733198 0.545121
vt 0.733198 0.482893
vt 0.730605 0.545121
vt 0.730605 0.482893
vt 0.728012 0.545121
vt 0.728012 0.482893
vt 0.725420 0.545121
vt 0.725420 0.482893
vt 0.722827 0.545121
vt 0.722827 0.482893
vt 0.720234 0.545121
vt 0.720234 0.482893
vt 0.717641 0.545121
vt 0.717641 0.482893
vt 0.715048 0.545121
vt 0.715048 0.482893
vt 0.712456 0.545121
vt 0.712456 0.482893
vt 0.709863 0.545121
vt 0.709863 0.482893
vt 0.707270 0.545121
vt 0.707270 0.482893
vt 0.704677 0.545121
vt 0.704677 0.482893
vt 0.753689 0.465107
vt 0.751752 0.468006
vt 0.702084 0.545121
vt 0.702084 0.482893
vt 0.699491 0.545121
vt 0.699491 0.482893
vt 0.809924 0.429506
vt 0.806870 0.427466
vt 0.796497 0.479614
vt 0.792833 0.479855
vt 0.792833 0.481649
vt 0.796731 0.481393
vt 0.800099 0.478898
vt 0.800563 0.480631
vt 0.803576 0.477717
vt 0.804263 0.479375
vt 0.806870 0.476093
vt 0.807767 0.477647
vt 0.809924 0.474053
vt 0.811016 0.475476
vt 0.812685 0.471632
vt 0.813953 0.472900
vt 0.815106 0.468871
vt 0.816529 0.469963
vt 0.817146 0.465817
vt 0.818700 0.466714
vt 0.818770 0.462523
vt 0.820428 0.463210
vt 0.819951 0.459046
vt 0.821684 0.459510
vt 0.820667 0.455444
vt 0.822446 0.455678
vt 0.820908 0.451780
vt 0.822702 0.451780
vt 0.820667 0.448115
vt 0.822446 0.447881
vt 0.819951 0.444513
vt 0.821684 0.444049
vt 0.818771 0.441036
vt 0.820428 0.440349
vt 0.817146 0.437742
vt 0.818700 0.436845
vt 0.815106 0.434689
vt 0.816529 0.433596
vt 0.812685 0.431928
vt 0.813953 0.430659
vt 0.811016 0.428083
vt 0.807767 0.425912
vt 0.803576 0.425842
vt 0.804263 0.424184
vt 0.800099 0.424661
vt 0.800563 0.422928
vt 0.796497 0.423945
vt 0.796731 0.422166
vt 0.792833 0.423705
vt 0.792833 0.421910
vt 0.789168 0.423945
vt 0.788934 0.422166
vt 0.785566 0.424661
vt 0.785102 0.422928
vt 0.782089 0.425842
vt 0.781402 0.424184
vt 0.778795 0.427466
vt 0.777898 0.425912
vt 0.775742 0.429506
vt 0.774649 0.428083
vt 0.772981 0.431928
vt 0.771712 0.430659
vt 0.770559 0.434689
vt 0.769136 0.433596
vt 0.768519 0.437742
vt 0.766965 0.436845
vt 0.766895 0.441036
vt 0.765237 0.440349
vt 0.765714 0.444513
vt 0.763981 0.444049
vt 0.764998 0.448115
vt 0.763219 0.447881
vt 0.764758 0.451780
vt 0.762963 0.451780
vt 0.764998 0.455444
vt 0.763219 0.455678
vt 0.765714 0.459046
vt 0.763981 0.459510
vt 0.766895 0.462523
vt 0.765237 0.463210
vt 0.768519 0.465817
vt 0.766965 0.466714
vt 0.770559 0.468871
vt 0.769136 0.469963
vt 0.772981 0.471632
vt 0.771712 0.472900
vt 0.775742 0.474053
vt 0.774649 0.475476
vt 0.778795 0.476093
vt 0.777898 0.477647
vt 0.782089 0.477718
vt 0.781402 0.479375
vt 0.785566 0.478898
vt 0.785102 0.480631
vt 0.789168 0.479614
vt 0.788934 0.481393
vt 0.792833 0.476852
vt 0.796105 0.476638
vt 0.799322 0.475998
vt 0.802427 0.474944
vt 0.805369 0.473493
vt 0.808096 0.471671
vt 0.810562 0.469509
vt 0.812724 0.467043
vt 0.814546 0.464316
vt 0.815997 0.461374
vt 0.817051 0.458269
vt 0.817691 0.455052
vt 0.817905 0.451780
vt 0.817691 0.448507
vt 0.817051 0.445290
vt 0.815997 0.442185
vt 0.814546 0.439243
vt 0.812724 0.436516
vt 0.810562 0.434051
vt 0.808096 0.431888
vt 0.805369 0.430066
vt 0.802427 0.428615
vt 0.799322 0.427561
vt 0.796105 0.426921
vt 0.792833 0.426707
vt 0.789560 0.426921
vt 0.786343 0.427561
vt 0.783238 0.428615
vt 0.780296 0.430066
vt 0.777569 0.431888
vt 0.775104 0.434051
vt 0.772941 0.436516
vt 0.771119 0.439243
vt 0.769668 0.442185
vt 0.768614 0.445290
vt 0.767974 0.448507
vt 0.767760 0.451780
vt 0.767974 0.455052
vt 0.768614 0.458269
vt 0.769668 0.461374
vt 0.771119 0.464316
vt 0.772941 0.467043
vt 0.775104 0.469509
vt 0.777569 0.471671
vt 0.780296 0.473493
vt 0.783238 0.474944
vt 0.786343 0.475998
vt 0.789560 0.476638
vt 0.730605 0.478434
vt 0.734084 0.478206
vt 0.734504 0.481393
vt 0.730605 0.481649
vt 0.737504 0.477526
vt 0.738336 0.480631
vt 0.740805 0.476405
vt 0.742036 0.479375
vt 0.743933 0.474863
vt 0.745540 0.477647
vt 0.746832 0.472926
vt 0.748788 0.475476
vt 0.749453 0.470627
vt 0.751726 0.472900
vt 0.754302 0.469963
vt 0.756473 0.466714
vt 0.755231 0.461980
vt 0.758201 0.463210
vt 0.756352 0.458678
vt 0.759457 0.459510
vt 0.757032 0.455259
vt 0.760219 0.455678
vt 0.757260 0.451780
vt 0.760474 0.451780
vt 0.757032 0.448300
vt 0.760219 0.447881
vt 0.756352 0.444881
vt 0.759457 0.444049
vt 0.755231 0.441579
vt 0.758201 0.440349
vt 0.753689 0.438452
vt 0.756473 0.436845
vt 0.751752 0.435553
vt 0.754302 0.433596
vt 0.749453 0.432932
vt 0.751726 0.430659
vt 0.746832 0.430633
vt 0.748788 0.428083
vt 0.743933 0.428696
vt 0.745540 0.425912
vt 0.740806 0.427154
vt 0.742036 0.424184
vt 0.737504 0.426033
vt 0.738336 0.422928
vt 0.734084 0.425353
vt 0.734504 0.422166
vt 0.730605 0.425125
vt 0.730605 0.421910
vt 0.727126 0.425353
vt 0.726706 0.422166
vt 0.723706 0.426033
vt 0.722874 0.422928
vt 0.720405 0.427154
vt 0.719175 0.424184
vt 0.717278 0.428696
vt 0.715671 0.425912
vt 0.714379 0.430633
vt 0.712422 0.428083
vt 0.711757 0.432932
vt 0.709484 0.430659
vt 0.709458 0.435553
vt 0.706908 0.433596
vt 0.707521 0.438452
vt 0.704738 0.436845
vt 0.705979 0.441579
vt 0.703010 0.440349
vt 0.704859 0.444881
vt 0.701754 0.444049
vt 0.704178 0.448300
vt 0.700991 0.447881
vt 0.703950 0.451780
vt 0.700736 0.451780
vt 0.704178 0.455259
vt 0.700991 0.455678
vt 0.704859 0.458678
vt 0.701754 0.459510
vt 0.705979 0.461980
vt 0.703010 0.463210
vt 0.707521 0.465107
vt 0.704738 0.466714
vt 0.709458 0.468006
vt 0.706908 0.469963
vt 0.711757 0.470627
vt 0.709484 0.472900
vt 0.714379 0.472926
vt 0.712422 0.475476
vt 0.717278 0.474863
vt 0.715671 0.477647
vt 0.720405 0.476405
vt 0.719175 0.479375
vt 0.723706 0.477526
vt 0.722874 0.480631
vt 0.727126 0.478206
vt 0.726706 0.481393
vt 0.733978 0.477399
vt 0.737293 0.476739
vt 0.740494 0.475653
vt 0.743525 0.474158
vt 0.746336 0.472280
vt 0.748877 0.470051
vt 0.751105 0.467510
vt 0.752983 0.464700
vt 0.754478 0.461668
vt 0.755565 0.458467
vt 0.756224 0.455152
vt 0.756445 0.451780
vt 0.756224 0.448407
vt 0.755565 0.445092
vt 0.754478 0.441891
vt 0.752983 0.438860
vt 0.751105 0.436049
vt 0.748877 0.433508
vt 0.746336 0.431279
vt 0.743525 0.429402
vt 0.740494 0.427907
vt 0.737293 0.426820
vt 0.733978 0.426161
vt 0.730605 0.425940
vt 0.727232 0.426161
vt 0.723917 0.426820
vt 0.720717 0.427907
vt 0.717685 0.429402
vt 0.714875 0.431279
vt 0.712334 0.433508
vt 0.710105 0.436049
vt 0.708227 0.438860
vt 0.706732 0.441891
vt 0.705646 0.445092
vt 0.704986 0.448407
vt 0.704765 0.451780
vt 0.704986 0.455152
vt 0.705646 0.458467
vt 0.706732 0.461668
vt 0.708227 0.464700
vt 0.710105 0.467510
vt 0.712334 0.470051
vt 0.714875 0.472280
vt 0.717685 0.474158
vt 0.720717 0.475653
vt 0.723917 0.476739
vt 0.727232 0.477399
vt 0.730605 0.477620
s 0
f 97/1/1 195/2/1 194/3/2 98/4/2
f 98/4/2 194/3/2 196/5/3 99/6/3
f 99/6/3 196/5/3 197/7/4 100/8/4
f 100/8/4 197/7/4 198/9/5 101/10/5
f 101/10/5 198/9/5 199/11/6 102/12/6
f 102/12/7 199/11/7 200/13/8 103/14/8
f 103/14/8 200/13/8 201/15/9 104/16/9
f 104/16/10 201/15/10 202/17/11 105/18/11
f 105/18/11 202/17/11 203/19/12 106/20/12
f 106/20/12 203/19/12 204/21/13 107/22/13
f 107/22/13 204/21/13 205/23/14 108/24/14
f 108/24/14 205/23/14 206/25/15 109/26/15
f 109/26/15 206/25/15 207/27/16 110/28/16
f 110/28/16 207/27/16 208/29/17 111/30/17
f 111/30/17 208/29/17 209/31/18 112/32/18
f 112/32/18 209/31/18 210/33/19 113/34/19
f 113/34/19 210/33/19 211/35/20 114/36/20
f 114/36/21 211/35/21 212/37/22 115/38/22
f 115/38/22 212/37/22 213/39/23 116/40/23
f 116/40/24 213/39/24 214/41/25 117/42/25
f 117/42/25 214/41/25 215/43/26 118/44/26
f 118/44/26 215/43/26 216/45/27 119/46/27
f 119/46/27 216/45/27 217/47/28 120/48/28
f 120/48/28 217/47/28 218/49/29 121/50/29
f 121/50/29 218/49/29 219/51/30 122/52/30
f 122/52/30 219/51/30 220/53/31 123/54/31
f 123/54/31 220/53/31 221/55/32 124/56/32
f 124/56/32 221/55/32 222/57/33 125/58/33
f 125/58/33 222/57/33 223/59/34 126/60/34
f 126/60/35 223/59/35 224/61/36 127/62/36
f 127/62/36 224/61/36 225/63/37 128/64/37
f 128/64/38 225/63/38 226/65/39 129/66/39
f 129/66/39 226/65/39 227/67/40 130/68/40
f 130/68/40 227/67/40 228/69/41 131/70/41
f 131/70/41 228/69/41 229/71/42 132/72/42
f 132/72/42 229/71/42 230/73/43 133/74/43
f 133/74/43 230/73/43 231/75/44 134/76/44
f 134/76/44 231/75/44 232/77/45 135/78/45
f 135/78/45 232/77/45 233/79/46 136/80/46
f 136/80/46 233/79/46 234/81/47 137/82/47
f 137/82/47 234/81/47 235/83/48 138/84/48
f 138/84/49 235/83/49 236/85/50 139/86/50
f 139/86/50 236/85/50 237/87/51 140/88/51
f 140/88/52 237/87/52 238/89/53 141/90/53
f 141/90/53 238/89/53 239/91/54 142/92/54
f 142/92/54 239/91/54 240/93/55 143/94/55
f 18/95/11 16/96/10 250/96/10 251/95/11
f 143/94/55 240/93/55 241/97/56 144/98/56
f 144/98/56 241/97/56 195/99/1 97/100/1
f 39/101/57 41/102/58 166/102/58 165/101/57
f 3/103/59 1/104/59 97/105/59 98/106/59
f 5/107/59 3/103/59 98/106/59 99/108/59
f 7/109/59 5/107/59 99/108/59 100/110/59
f 9/111/59 7/109/59 100/110/59 101/112/59
f 11/113/59 9/111/59 101/112/59 102/114/59
f 13/115/59 11/113/59 102/114/59 103/116/59
f 15/117/59 13/115/59 103/116/59 104/118/59
f 17/119/59 15/117/59 104/118/59 105/120/59
f 19/121/59 17/119/59 105/120/59 106/122/59
f 21/123/59 19/121/59 106/122/59 107/124/59
f 23/125/59 21/123/59 107/124/59 108/126/59
f 25/127/59 23/125/59 108/126/59 109/128/59
f 27/129/59 25/127/59 109/128/59 110/130/59
f 29/131/59 27/129/59 110/130/59 111/132/59
f 31/133/59 29/131/59 111/132/59 112/134/59
f 33/135/59 31/133/59 112/134/59 113/136/59
f 35/137/59 33/135/59 113/136/59 114/138/59
f 37/139/59 35/137/59 114/138/59 115/140/59
f 39/101/59 37/139/59 115/140/59 116/141/59
f 41/102/59 39/101/59 116/141/59 117/142/59
f 43/143/59 41/102/59 117/142/59 118/144/59
f 45/145/59 43/143/59 118/144/59 119/146/59
f 47/147/59 45/145/59 119/146/59 120/148/59
f 49/149/59 47/147/59 120/148/59 121/150/59
f 51/151/59 49/149/59 121/150/59 122/152/59
f 53/153/59 51/151/59 122/152/59 123/154/59
f 55/155/59 53/153/59 123/154/59 124/156/59
f 57/157/59 55/155/59 124/156/59 125/158/59
f 59/159/59 57/157/59 125/158/59 126/160/59
f 61/161/59 59/159/59 126/160/59 127/162/59
f 63/163/59 61/161/59 127/162/59 128/164/59
f 65/165/59 63/163/59 128/164/59 129/166/59
f 67/167/59 65/165/59 129/166/59 130/168/59
f 69/169/59 67/167/59 130/168/59 131/170/59
f 71/171/59 69/169/59 131/170/59 132/172/59
f 73/173/59 71/171/59 132/172/59 133/174/59
f 75/175/59 73/173/59 133/174/59 134/176/59
f 77/177/59 75/175/59 134/176/59 135/178/59
f 79/179/59 77/177/59 135/178/59 136/180/59
f 81/181/59 79/179/59 136/180/59 137/182/59
f 83/183/59 81/181/59 137/182/59 138/184/59
f 85/185/59 83/183/59 138/184/59 139/186/59
f 87/187/59 85/185/59 139/186/59 140/188/59
f 89/189/59 87/187/59 140/188/59 141/190/59
f 91/191/59 89/189/59 141/190/59 142/192/59
f 93/193/59 91/191/59 142/192/59 143/194/59
f 95/195/59 93/193/59 143/194/59 144/196/59
f 1/104/59 95/195/59 144/196/59 97/105/59
f 93/193/60 95/195/61 193/195/61 192/193/60
f 13/115/62 15/117/63 153/117/63 152/115/62
f 67/167/64 69/169/65 180/169/65 179/167/64
f 41/102/58 43/143/66 167/143/66 166/102/58
f 95/195/61 1/104/67 146/104/67 193/195/61
f 15/117/63 17/119/68 154/119/68 153/117/63
f 69/169/65 71/171/69 181/171/69 180/169/65
f 43/143/70 45/145/71 168/145/71 167/143/70
f 17/119/68 19/121/72 155/121/72 154/119/68
f 71/171/69 73/173/73 182/173/73 181/171/69
f 45/145/71 47/147/74 169/147/74 168/145/71
f 19/121/75 21/123/76 156/123/76 155/121/75
f 73/173/73 75/175/77 183/175/77 182/173/73
f 47/147/74 49/149/78 170/149/78 169/147/74
f 21/123/76 23/125/79 157/125/79 156/123/76
f 75/175/77 77/177/80 184/177/80 183/175/77
f 49/149/78 51/151/81 171/151/81 170/149/78
f 23/125/79 25/127/82 158/127/82 157/125/79
f 77/177/80 79/179/83 185/179/83 184/177/80
f 51/151/81 53/153/84 172/153/84 171/151/81
f 25/127/82 27/129/85 159/129/85 158/127/82
f 79/179/86 81/181/87 186/181/87 185/179/86
f 53/153/84 55/155/88 173/155/88 172/153/84
f 27/129/85 29/131/89 160/131/89 159/129/85
f 81/181/87 83/183/90 187/183/90 186/181/87
f 1/104/67 3/103/91 147/103/91 146/104/67
f 55/155/92 57/157/93 174/157/93 173/155/92
f 29/131/89 31/133/94 161/133/94 160/131/89
f 83/183/90 85/185/95 188/185/95 187/183/90
f 3/103/91 5/107/96 148/107/96 147/103/91
f 57/157/93 59/159/97 175/159/97 174/157/93
f 31/133/98 33/135/99 162/135/99 161/133/98
f 85/185/95 87/187/100 189/187/100 188/185/95
f 5/107/96 7/109/101 149/109/101 148/107/96
f 59/159/97 61/161/102 176/161/102 175/159/97
f 33/135/99 35/137/103 163/137/103 162/135/99
f 87/187/100 89/189/104 190/189/104 189/187/100
f 7/109/105 9/111/106 150/111/106 149/109/105
f 61/161/102 63/163/107 177/163/107 176/161/102
f 35/137/103 37/139/108 164/139/108 163/137/103
f 89/189/104 91/191/109 191/191/109 190/189/104
f 9/111/106 11/113/110 151/113/110 150/111/106
f 63/163/107 65/165/111 178/165/111 177/163/107
f 37/139/108 39/101/57 165/101/57 164/139/108
f 91/191/112 93/193/60 192/193/60 191/191/112
f 11/113/110 13/115/62 152/115/62 151/113/110
f 65/165/111 67/167/113 179/167/113 178/165/111
f 145/197/59 146/104/59 147/103/59
f 145/198/59 147/103/59 148/107/59
f 145/199/59 148/107/59 149/109/59
f 145/200/59 149/109/59 150/111/59
f 145/201/59 150/111/59 151/113/59
f 145/202/59 151/113/59 152/115/59
f 145/203/59 152/115/59 153/117/59
f 145/204/59 153/117/59 154/119/59
f 145/205/59 154/119/59 155/121/59
f 145/206/59 155/121/59 156/123/59
f 145/207/59 156/123/59 157/125/59
f 145/208/59 157/125/59 158/127/59
f 145/209/59 158/127/59 159/129/59
f 145/210/59 159/129/59 160/131/59
f 145/211/59 160/131/59 161/133/59
f 145/212/59 161/133/59 162/135/59
f 145/213/59 162/135/59 163/137/59
f 145/214/59 163/137/59 164/139/59
f 145/215/59 164/139/59 165/101/59
f 145/216/59 165/101/59 166/102/59
f 145/217/59 166/102/59 167/143/59
f 145/218/59 167/143/59 168/145/59
f 145/219/59 168/145/59 169/147/59
f 145/220/59 169/147/59 170/149/59
f 145/221/59 170/149/59 171/151/59
f 145/222/59 171/151/59 172/153/59
f 145/223/59 172/153/59 173/155/59
f 145/224/59 173/155/59 174/157/59
f 145/225/59 174/157/59 175/159/59
f 145/226/59 175/159/59 176/161/59
f 145/227/59 176/161/59 177/163/59
f 145/228/59 177/163/59 178/165/59
f 145/229/59 178/165/59 179/167/59
f 145/230/59 179/167/59 180/169/59
f 145/231/59 180/169/59 181/171/59
f 145/232/59 181/171/59 182/173/59
f 145/233/59 182/173/59 183/175/59
f 145/234/59 183/175/59 184/177/59
f 145/235/59 184/177/59 185/179/59
f 145/236/59 185/179/59 186/181/59
f 145/237/59 186/181/59 187/183/59
f 145/238/59 187/183/59 188/185/59
f 145/239/59 188/185/59 189/187/59
f 145/240/59 189/187/59 190/189/59
f 145/241/59 190/189/59 191/191/59
f 145/242/59 191/191/59 192/193/59
f 145/243/59 192/193/59 193/195/59
f 145/244/59 193/195/59 146/104/59
f 2/245/114 4/246/115 194/247/115 195/248/114
f 4/246/116 6/249/117 196/250/117 194/247/116
f 6/249/117 8/251/118 197/252/118 196/250/117
f 8/251/119 10/253/120 198/254/120 197/252/119
f 10/253/121 12/255/122 199/256/122 198/254/121
f 12/255/123 14/257/124 200/258/124 199/256/123
f 14/257/125 16/96/126 201/259/126 200/258/125
f 16/96/127 18/95/128 202/260/128 201/259/127
f 18/95/129 20/261/130 203/262/130 202/260/129
f 20/261/131 22/263/132 204/264/132 203/262/131
f 22/263/132 24/265/133 205/266/133 204/264/132
f 24/265/134 26/267/135 206/268/135 205/266/134
f 26/267/136 28/269/137 207/270/137 206/268/136
f 28/269/138 30/271/139 208/272/139 207/270/138
f 30/271/139 32/273/140 209/274/140 208/272/139
f 32/273/141 34/275/142 210/276/142 209/274/141
f 34/275/143 36/277/144 211/278/144 210/276/143
f 36/277/145 38/279/146 212/280/146 211/278/145
f 38/279/147 40/281/148 213/282/148 212/280/147
f 40/281/149 42/283/150 214/284/150 213/282/149
f 42/283/151 44/285/152 215/286/152 214/284/151
f 44/285/153 46/287/154 216/288/154 215/286/153
f 46/287/154 48/289/155 217/290/155 216/288/154
f 48/289/156 50/291/157 218/292/157 217/290/156
f 50/291/158 52/293/159 219/294/159 218/292/158
f 52/293/160 54/295/161 220/296/161 219/294/160
f 54/295/161 56/297/162 221/298/162 220/296/161
f 56/297/163 58/299/164 222/300/164 221/298/163
f 58/299/165 60/301/166 223/302/166 222/300/165
f 60/301/167 62/303/168 224/304/168 223/302/167
f 62/303/169 64/305/170 225/306/170 224/304/169
f 64/305/171 66/307/172 226/308/172 225/306/171
f 66/307/173 68/309/174 227/310/174 226/308/173
f 68/309/175 70/311/176 228/312/176 227/310/175
f 70/311/176 72/313/177 229/314/177 228/312/176
f 72/313/178 74/315/179 230/316/179 229/314/178
f 74/315/180 76/317/181 231/318/181 230/316/180
f 76/317/182 78/319/183 232/320/183 231/318/182
f 78/319/183 80/321/184 233/322/184 232/320/183
f 80/321/185 82/323/186 234/324/186 233/322/185
f 82/323/187 84/325/188 235/326/188 234/324/187
f 84/325/189 86/327/190 236/328/190 235/326/189
f 86/327/191 88/329/192 237/330/192 236/328/191
f 88/329/193 90/331/194 238/332/194 237/330/193
f 90/331/195 92/333/196 239/334/196 238/332/195
f 92/333/197 94/335/198 240/336/198 239/334/197
f 94/335/198 96/337/199 241/338/199 240/336/198
f 96/337/200 2/245/201 195/248/201 241/338/200
f 72/313/42 70/311/41 277/311/41 278/313/42
f 46/287/27 44/285/26 264/285/26 265/287/27
f 20/261/12 18/95/11 251/95/11 252/261/12
f 74/315/43 72/313/42 278/313/42 279/315/43
f 48/289/28 46/287/27 265/287/27 266/289/28
f 22/263/13 20/261/12 252/261/12 253/263/13
f 76/317/44 74/315/43 279/315/43 280/317/44
f 50/291/29 48/289/28 266/289/28 267/291/29
f 24/265/14 22/263/13 253/263/13 254/265/14
f 78/319/45 76/317/44 280/317/44 281/319/45
f 52/293/30 50/291/29 267/291/29 268/293/30
f 26/267/15 24/265/14 254/265/14 255/267/15
f 80/321/46 78/319/45 281/319/45 282/321/46
f 54/295/31 52/293/30 268/293/30 269/295/31
f 28/269/16 26/267/15 255/267/15 256/269/16
f 82/323/47 80/321/46 282/321/46 283/323/47
f 56/297/32 54/295/31 269/295/31 270/297/32
f 30/271/17 28/269/16 256/269/16 257/271/17
f 84/325/48 82/323/47 283/323/47 284/325/48
f 4/246/2 2/245/1 244/245/1 243/246/2
f 58/299/33 56/297/32 270/297/32 271/299/33
f 32/273/18 30/271/17 257/271/17 258/273/18
f 86/327/50 84/325/49 284/325/49 285/327/50
f 6/249/3 4/246/2 243/246/2 245/249/3
f 60/301/34 58/299/33 271/299/33 272/301/34
f 34/275/19 32/273/18 258/273/18 259/275/19
f 88/329/51 86/327/50 285/327/50 286/329/51
f 8/251/4 6/249/3 245/249/3 246/251/4
f 62/303/36 60/301/35 272/301/35 273/303/36
f 36/277/20 34/275/19 259/275/19 260/277/20
f 90/331/53 88/329/52 286/329/52 287/331/53
f 10/253/5 8/251/4 246/251/4 247/253/5
f 64/305/37 62/303/36 273/303/36 274/305/37
f 38/279/22 36/277/21 260/277/21 261/279/22
f 92/333/54 90/331/53 287/331/53 288/333/54
f 12/255/6 10/253/5 247/253/5 248/255/6
f 66/307/39 64/305/38 274/305/38 275/307/39
f 40/281/23 38/279/22 261/279/22 262/281/23
f 94/335/55 92/333/54 288/333/54 289/335/55
f 14/257/8 12/255/7 248/255/7 249/257/8
f 68/309/40 66/307/39 275/307/39 276/309/40
f 42/283/25 40/281/24 262/281/24 263/283/25
f 96/337/56 94/335/55 289/335/55 290/337/56
f 16/96/9 14/257/8 249/257/8 250/96/9
f 70/311/41 68/309/40 276/309/40 277/311/41
f 44/285/26 42/283/25 263/283/25 264/285/26
f 2/245/1 96/337/56 290/337/56 244/245/1
f 242/339/202 243/246/203 244/245/204
f 242/340/202 245/249/205 243/246/203
f 242/341/202 246/251/206 245/249/206
f 242/342/202 247/253/207 246/251/208
f 242/343/202 248/255/209 247/253/210
f 242/344/202 249/257/211 248/255/211
f 242/345/202 250/96/212 249/257/212
f 242/346/202 251/95/213 250/96/214
f 242/347/202 252/261/215 251/95/216
f 242/348/202 253/263/217 252/261/217
f 242/349/202 254/265/218 253/263/218
f 242/350/202 255/267/219 254/265/220
f 242/351/202 256/269/221 255/267/219
f 242/352/202 257/271/222 256/269/221
f 242/353/202 258/273/223 257/271/223
f 242/354/202 259/275/224 258/273/225
f 242/355/202 260/277/226 259/275/227
f 242/356/202 261/279/228 260/277/228
f 242/357/202 262/281/229 261/279/229
f 242/358/202 263/283/230 262/281/231
f 242/359/202 264/285/232 263/283/233
f 242/360/202 265/287/234 264/285/234
f 242/361/202 266/289/235 265/287/235
f 242/362/202 267/291/236 266/289/237
f 242/363/202 268/293/238 267/291/236
f 242/364/202 269/295/239 268/293/238
f 242/365/202 270/297/240 269/295/240
f 242/366/202 271/299/241 270/297/242
f 242/367/202 272/301/243 271/299/244
f 242/368/202 273/303/245 272/301/245
f 242/369/202 274/305/246 273/303/246
f 242/370/202 275/307/247 274/305/248
f 242/371/202 276/309/249 275/307/250
f 242/372/202 277/311/251 276/309/251
f 242/373/202 278/313/252 277/311/252
f 242/374/202 279/315/253 278/313/254
f 242/375/202 280/317/255 279/315/253
f 242/376/202 281/319/256 280/317/255
f 242/377/202 282/321/257 281/319/257
f 242/378/202 283/323/258 282/321/259
f 242/379/202 284/325/260 283/323/261
f 242/380/202 285/327/262 284/325/262
f 242/381/202 286/329/263 285/327/263
f 242/382/202 287/331/264 286/329/265
f 242/383/202 288/333/266 287/331/267
f 242/384/202 289/335/268 288/333/268
f 242/385/202 290/337/269 289/335/269
f 242/386/202 244/245/204 290/337/270
