# Blender 4.0.0
# www.blender.org
mtllib Microwave011_Button6.mtl
o Microwave011_Button6
v 0.182610 -0.128954 0.136128
v 0.199803 -0.128954 0.133672
v 0.183019 -0.129604 0.136194
v 0.182667 -0.129601 0.133807
v 0.199388 -0.129604 0.133592
v 0.199741 -0.129601 0.135979
v 0.183148 -0.129632 0.136162
v 0.182700 -0.129632 0.133890
v 0.199273 -0.129632 0.133625
v 0.199707 -0.129632 0.135907
v 0.182674 -0.129620 0.135973
v 0.183022 -0.129620 0.133599
v 0.199733 -0.129620 0.133813
v 0.199386 -0.129620 0.136187
v 0.183014 -0.128985 0.136200
v 0.182661 -0.128985 0.133803
v 0.199395 -0.128984 0.133587
v 0.199746 -0.128984 0.135983
v 0.182656 -0.128967 0.135992
v 0.183002 -0.128967 0.133581
v 0.199754 -0.128967 0.133796
v 0.199404 -0.128967 0.136208
v 0.200601 -0.128760 0.138538
v 0.181808 -0.128786 0.132118
v 0.200583 -0.128786 0.132118
v 0.183558 -0.128986 0.133580
v 0.198859 -0.128984 0.133580
v 0.198859 -0.129085 0.136205
v 0.183543 -0.129083 0.136205
v 0.183556 -0.129603 0.133586
v 0.198866 -0.129519 0.133584
v 0.198872 -0.129605 0.136201
v 0.183567 -0.129605 0.136201
v 0.183550 -0.129620 0.133593
v 0.198858 -0.129620 0.133593
v 0.198858 -0.129620 0.136194
v 0.183550 -0.129620 0.136194
v 0.182779 -0.128954 0.133543
v 0.199638 -0.128954 0.133542
v 0.199622 -0.128954 0.136265
v 0.182770 -0.128954 0.136262
v 0.183531 -0.128967 0.133574
v 0.198876 -0.128967 0.133574
v 0.198874 -0.128967 0.136214
v 0.183534 -0.128967 0.136214
v 0.180759 -0.128793 0.137822
v 0.201649 -0.128775 0.132830
v 0.201649 -0.128789 0.137807
v 0.182655 -0.128984 0.133937
v 0.199750 -0.129070 0.133937
v 0.182659 -0.129520 0.135851
v 0.182659 -0.129520 0.133935
v 0.199748 -0.129519 0.133935
v 0.199748 -0.129519 0.135851
v 0.182668 -0.129620 0.135844
v 0.182668 -0.129620 0.133942
v 0.199740 -0.129620 0.133942
v 0.199740 -0.129620 0.135844
v 0.182649 -0.128967 0.135860
v 0.182648 -0.128967 0.133929
v 0.199760 -0.128967 0.133935
v 0.199759 -0.128967 0.135850
v 0.180765 -0.128771 0.132432
v 0.201249 -0.128785 0.132124
v 0.181158 -0.128785 0.138531
v 0.201643 -0.128758 0.138223
v 0.182609 -0.128954 0.133653
v 0.199794 -0.128954 0.136147
v 0.182667 -0.129601 0.135980
v 0.183011 -0.129603 0.133592
v 0.199740 -0.129603 0.133805
v 0.199392 -0.129601 0.136195
v 0.182710 -0.129633 0.135979
v 0.182859 -0.129633 0.133643
v 0.199707 -0.129632 0.133875
v 0.199285 -0.129632 0.136161
v 0.183022 -0.129620 0.136187
v 0.182674 -0.129620 0.133813
v 0.199376 -0.129625 0.133603
v 0.199733 -0.129620 0.135973
v 0.182662 -0.128984 0.135987
v 0.183009 -0.128984 0.133587
v 0.199745 -0.128985 0.133801
v 0.199402 -0.128983 0.136200
v 0.183004 -0.128967 0.136208
v 0.182654 -0.128967 0.133796
v 0.199403 -0.128960 0.133576
v 0.199752 -0.128967 0.135992
v 0.182724 -0.129601 0.136138
v 0.182724 -0.129601 0.133648
v 0.199682 -0.129603 0.133648
v 0.199684 -0.129603 0.136136
v 0.182804 -0.129633 0.136124
v 0.182742 -0.129633 0.133720
v 0.199658 -0.129633 0.133709
v 0.199665 -0.129633 0.136066
v 0.182737 -0.129625 0.136127
v 0.182734 -0.129625 0.133661
v 0.199672 -0.129625 0.133658
v 0.199673 -0.129625 0.136126
v 0.182719 -0.128984 0.136143
v 0.182718 -0.128984 0.133644
v 0.199688 -0.128985 0.133644
v 0.199688 -0.128984 0.136142
v 0.182713 -0.128967 0.136151
v 0.182711 -0.128967 0.133638
v 0.199697 -0.128967 0.133638
v 0.199701 -0.128960 0.136155
v 0.199573 -0.129633 0.133656
v 0.181155 -0.128087 0.132123
v 0.201644 -0.128087 0.132429
v 0.180764 -0.128087 0.138227
v 0.201252 -0.128087 0.138532
v 0.200594 -0.128087 0.138539
v 0.181813 -0.128087 0.138539
v 0.181814 -0.128087 0.132117
v 0.200593 -0.128087 0.132117
v 0.180758 -0.128087 0.137823
v 0.180758 -0.128087 0.132832
v 0.201650 -0.128087 0.132831
v 0.201650 -0.128087 0.137825
v 0.180764 -0.128087 0.132429
v 0.201252 -0.128087 0.132123
v 0.181155 -0.128087 0.138532
v 0.201644 -0.128087 0.138227
v 0.180821 -0.128087 0.132180
v 0.201586 -0.128087 0.132180
v 0.180821 -0.128087 0.138475
v 0.201586 -0.128087 0.138475
v 0.181154 -0.128784 0.132124
v 0.201643 -0.128766 0.132427
v 0.180765 -0.128784 0.138227
v 0.201256 -0.128786 0.138531
v 0.201461 -0.128951 0.138452
v 0.180984 -0.128951 0.138453
v 0.181006 -0.128951 0.132180
v 0.201416 -0.128951 0.132182
v 0.180831 -0.128951 0.138329
v 0.180843 -0.128951 0.132283
v 0.201567 -0.128951 0.132296
v 0.201578 -0.128951 0.138293
v 0.180822 -0.128774 0.132181
v 0.201585 -0.128787 0.132180
v 0.180822 -0.128787 0.138475
v 0.201586 -0.128784 0.138474
v 0.181170 -0.128935 0.132135
v 0.201629 -0.128935 0.132439
v 0.180776 -0.128935 0.138213
v 0.201241 -0.128935 0.138518
v 0.200643 -0.128935 0.138523
v 0.181778 -0.128935 0.138524
v 0.181835 -0.128935 0.132129
v 0.200579 -0.128935 0.132129
v 0.180772 -0.128936 0.137808
v 0.180774 -0.128935 0.132831
v 0.201634 -0.128935 0.132826
v 0.201637 -0.128935 0.137808
v 0.180779 -0.128935 0.132439
v 0.201238 -0.128935 0.132135
v 0.181167 -0.128935 0.138518
v 0.201632 -0.128935 0.138213
v 0.180836 -0.128935 0.132192
v 0.201572 -0.128935 0.132192
v 0.180833 -0.128935 0.138461
v 0.201575 -0.128935 0.138461
v 0.182528 -0.128953 0.133491
v 0.180930 -0.128953 0.138320
v 0.201471 -0.128953 0.138327
v 0.199873 -0.128953 0.133484
v 0.199583 -0.129633 0.136126
v 0.182679 -0.129628 0.133861
v 0.198849 -0.129628 0.133602
v 0.199729 -0.129628 0.135919
v 0.183106 -0.129628 0.136183
v 0.182662 -0.129606 0.133938
v 0.199745 -0.129606 0.133938
v 0.182656 -0.128983 0.135854
v 0.199754 -0.128981 0.133933
v 0.198869 -0.128981 0.136208
v 0.182641 -0.128958 0.135957
v 0.198886 -0.128958 0.133566
v 0.199766 -0.128958 0.135970
v 0.183057 -0.128958 0.136224
v 0.183101 -0.129628 0.133604
v 0.199322 -0.129628 0.136182
v 0.198863 -0.129606 0.133587
v 0.183539 -0.128981 0.136208
v 0.183063 -0.128958 0.133568
v 0.199348 -0.128958 0.136223
v 0.182680 -0.129628 0.135936
v 0.199728 -0.129628 0.133857
v 0.182662 -0.129606 0.135849
v 0.199745 -0.129606 0.135849
v 0.199752 -0.128984 0.135851
v 0.182639 -0.128958 0.133816
v 0.199770 -0.128958 0.133824
v 0.182697 -0.129625 0.136065
v 0.182797 -0.129625 0.133622
v 0.199710 -0.129625 0.133721
v 0.199611 -0.129625 0.136164
v 0.182687 -0.129601 0.136074
v 0.182787 -0.129603 0.133611
v 0.199721 -0.129603 0.133712
v 0.199620 -0.129603 0.136175
v 0.182681 -0.128984 0.136081
v 0.182782 -0.128984 0.133606
v 0.199726 -0.128985 0.133707
v 0.199625 -0.128985 0.136180
v 0.182666 -0.128958 0.136098
v 0.182767 -0.128960 0.133596
v 0.199740 -0.128960 0.133695
v 0.199637 -0.128960 0.136194
v 0.182800 -0.129625 0.136164
v 0.182696 -0.129625 0.133725
v 0.199609 -0.129625 0.133621
v 0.199711 -0.129625 0.136062
v 0.182789 -0.129604 0.136175
v 0.182686 -0.129601 0.133713
v 0.199618 -0.129604 0.133611
v 0.199722 -0.129602 0.136073
v 0.182783 -0.128985 0.136180
v 0.182680 -0.128985 0.133708
v 0.199625 -0.128985 0.133606
v 0.199727 -0.128984 0.136079
v 0.182775 -0.128960 0.136195
v 0.182662 -0.128958 0.133693
v 0.199644 -0.128958 0.133591
v 0.199742 -0.128958 0.136098
v 0.181801 -0.128770 0.138538
v 0.180759 -0.128790 0.132848
v 0.180784 -0.128768 0.132245
v 0.201522 -0.128787 0.132143
v 0.180886 -0.128785 0.138512
v 0.201624 -0.128750 0.138411
v 0.180885 -0.128786 0.132143
v 0.201624 -0.128771 0.132244
v 0.180784 -0.128781 0.138411
v 0.201523 -0.128785 0.138512
v 0.180785 -0.128946 0.138150
v 0.201148 -0.128946 0.138507
v 0.201616 -0.128946 0.132474
v 0.181233 -0.128946 0.138507
v 0.181246 -0.128946 0.132143
v 0.201176 -0.128946 0.132143
v 0.180792 -0.128946 0.132478
v 0.201622 -0.128946 0.138169
v 0.180812 -0.128946 0.132266
v 0.201494 -0.128946 0.132165
v 0.180908 -0.128946 0.138485
v 0.201601 -0.128946 0.138383
v 0.180914 -0.128946 0.132165
v 0.201595 -0.128946 0.132266
v 0.180806 -0.128946 0.138383
v 0.201500 -0.128946 0.138485
v 0.201643 -0.128916 0.132803
v 0.200580 -0.128916 0.138533
v 0.181818 -0.128916 0.138533
v 0.181820 -0.128916 0.132122
v 0.200589 -0.128916 0.132122
v 0.180763 -0.128917 0.137810
v 0.180764 -0.128916 0.132833
v 0.201645 -0.128916 0.137838
v 0.180789 -0.128916 0.132248
v 0.201517 -0.128916 0.132147
v 0.180889 -0.128916 0.138508
v 0.201620 -0.128916 0.138406
v 0.180891 -0.128916 0.132147
v 0.201619 -0.128916 0.132248
v 0.180788 -0.128916 0.138406
v 0.201518 -0.128916 0.138508
v 0.182553 -0.128953 0.136361
v 0.201462 -0.128953 0.132265
v 0.199870 -0.128953 0.136352
v 0.180952 -0.128953 0.132260
v 0.182673 -0.128967 0.133701
v 0.199633 -0.128967 0.133600
v 0.199733 -0.128967 0.136087
v 0.182675 -0.128967 0.136087
v 0.182704 -0.128958 0.136161
v 0.182700 -0.128958 0.133629
v 0.199708 -0.128958 0.133629
v 0.180783 -0.128087 0.132244
v 0.201523 -0.128087 0.132142
v 0.180885 -0.128087 0.138513
v 0.201625 -0.128087 0.138412
v 0.180885 -0.128087 0.132142
v 0.201625 -0.128087 0.132244
v 0.180783 -0.128087 0.138412
v 0.201523 -0.128087 0.138513
v 0.181161 -0.128916 0.132128
v 0.201638 -0.128916 0.132433
v 0.180769 -0.128916 0.138221
v 0.201248 -0.128916 0.138527
v 0.180827 -0.128916 0.132185
v 0.201581 -0.128916 0.132185
v 0.180826 -0.128916 0.138469
v 0.201582 -0.128916 0.138469
v 0.180770 -0.128916 0.132433
v 0.201247 -0.128916 0.132128
v 0.181160 -0.128916 0.138527
v 0.201639 -0.128916 0.138221
v 0.180850 -0.128946 0.132203
v 0.201557 -0.128946 0.132203
v 0.180844 -0.128946 0.138447
v 0.201563 -0.128946 0.138447
v 0.180798 -0.128935 0.132255
v 0.201508 -0.128935 0.132153
v 0.180896 -0.128935 0.138499
v 0.201613 -0.128935 0.138397
v 0.180899 -0.128935 0.132153
v 0.201610 -0.128935 0.132255
v 0.180795 -0.128935 0.138397
v 0.201511 -0.128935 0.138499
vn 0.0156 -0.9997 -0.0197
vn 0.0115 -0.9999 0.0095
vn 0.0013 -1.0000 0.0024
vn -0.9994 -0.0184 -0.0280
vn -0.9786 -0.2041 0.0257
vn -0.9798 -0.1991 -0.0173
vn -0.9995 -0.0170 0.0269
vn 0.0058 -0.0203 -0.9998
vn -0.0059 -0.1696 -0.9855
vn 0.0064 -0.1708 -0.9853
vn 0.9996 -0.0182 0.0227
vn 0.9995 -0.0216 -0.0239
vn 0.9832 -0.1810 0.0231
vn 0.0073 -0.0193 0.9998
vn -0.0063 -0.2076 0.9782
vn 0.0043 -0.2095 0.9778
vn -0.0977 -0.9933 -0.0610
vn -0.1145 -0.9930 0.0306
vn -0.1040 -0.9946 0.0022
vn -0.0267 -0.9879 -0.1525
vn 0.0258 -0.9935 -0.1110
vn 0.0258 -0.9953 0.0933
vn 0.0969 -0.9937 0.0571
vn 0.1065 -0.9942 -0.0155
vn 0.0984 -0.9951 -0.0009
vn 0.0020 -0.9935 0.1138
vn -0.0080 -0.9942 0.1071
vn -0.4883 -0.8720 -0.0339
vn -0.7813 -0.6237 0.0255
vn -0.7830 -0.6221 0.0049
vn -0.4862 -0.8734 0.0276
vn 0.0008 -0.9036 -0.4284
vn 0.0048 -0.6237 -0.7816
vn 0.0032 -0.5934 -0.8049
vn 0.4994 -0.8657 0.0336
vn 0.7876 -0.6162 -0.0036
vn 0.8084 -0.5886 -0.0005
vn -0.0231 -0.8440 0.5358
vn 0.0153 -0.6342 0.7730
vn 0.0085 -0.6288 0.7775
vn 0.0258 -0.8583 0.5125
vn -0.9746 -0.2224 -0.0244
vn -0.0063 -0.2000 -0.9798
vn 0.9753 -0.2199 -0.0198
vn 0.9995 -0.0189 -0.0261
vn -0.8291 -0.5579 0.0379
vn -0.8039 -0.5948 -0.0048
vn 0.0128 -0.4900 -0.8716
vn 0.0262 -0.4823 -0.8756
vn 0.9731 -0.2292 -0.0236
vn 0.8025 -0.5966 0.0097
vn 0.8594 -0.5103 0.0314
vn -0.0064 -0.2351 0.9719
vn -0.0264 -0.5694 0.8216
vn -0.0025 -0.5998 0.8001
vn 0.0224 -0.2196 0.9753
vn -0.0076 -0.0194 0.9998
vn -0.3207 -0.9469 -0.0239
vn -0.0347 -0.9993 0.0140
vn -0.0285 -0.9995 -0.0162
vn -0.3510 -0.9351 0.0483
vn 0.0043 -0.8932 -0.4496
vn -0.0143 -0.9977 -0.0658
vn 0.0157 -0.9988 -0.0475
vn -0.0057 -0.9316 -0.3634
vn 0.3439 -0.9387 0.0239
vn 0.0418 -0.9990 -0.0178
vn 0.0309 -0.9994 0.0157
vn 0.3101 -0.9506 -0.0170
vn -0.0053 -0.9528 0.3037
vn 0.0112 -0.9990 0.0435
vn -0.0139 -0.9991 0.0412
vn -0.0457 -0.1813 -0.9824
vn -0.0542 -0.2126 -0.9756
vn -0.0497 -0.2109 0.9763
vn -0.0040 -0.9878 -0.1559
vn -0.0139 -0.8650 -0.5015
vn -0.0399 -0.6039 -0.7961
vn -0.0387 -0.6099 0.7916
vn 0.0418 -0.6047 0.7953
vn 0.0062 -0.2210 -0.9753
vn 0.0345 -0.7805 -0.6242
vn 0.0507 -0.2057 0.9773
vn 0.0464 -0.2211 -0.9741
vn 0.0301 -0.8020 -0.5966
vn -0.0551 -0.5288 -0.8470
vn -0.0402 -0.2285 0.9727
vn -0.0540 -0.6287 0.7757
vn 0.0495 -0.6162 0.7860
vn 0.0046 -0.9522 0.3054
vn -0.9735 -0.1972 -0.1154
vn -0.9713 -0.2089 -0.1138
vn 0.9665 -0.2215 0.1297
vn 0.9758 -0.1866 0.1140
vn 0.9634 -0.2426 -0.1139
vn 0.9663 -0.2206 -0.1325
vn -0.7771 -0.6223 -0.0942
vn -0.7776 -0.6206 0.1010
vn 0.7676 -0.6317 0.1085
vn 0.4585 -0.8878 -0.0408
vn 0.7777 -0.6208 -0.0986
vn -0.9724 -0.1865 0.1404
vn -0.9732 -0.2282 0.0280
vn 0.9855 -0.1684 0.0220
vn -0.7501 -0.6518 -0.1120
vn -0.8028 -0.5843 0.1191
vn 0.7856 -0.6064 0.1226
vn 0.7743 -0.6219 -0.1169
vn -0.6754 -0.2784 0.6829
vn -0.2739 -0.3038 0.9125
vn -0.6792 -0.2878 0.6752
vn -0.3019 -0.2783 0.9118
vn -0.8936 -0.2560 -0.3687
vn -0.9133 -0.2384 -0.3303
vn -0.6776 -0.2876 -0.6768
vn -0.6880 -0.2611 -0.6771
vn 0.2737 -0.2209 -0.9361
vn 0.6746 -0.2899 -0.6789
vn 0.3065 -0.2655 -0.9141
vn 0.0502 -0.2469 -0.9677
vn 0.8917 -0.2781 0.3570
vn 0.9151 -0.2271 0.3333
vn -0.4078 -0.8156 0.4105
vn -0.0435 -0.9948 0.0926
vn -0.5487 -0.8066 0.2197
vn -0.4159 -0.8122 -0.4090
vn -0.1927 -0.7914 -0.5801
vn 0.5509 -0.8068 -0.2133
vn 0.0894 -0.9942 -0.0591
vn 0.1805 -0.7933 0.5815
vn 0.4135 -0.8082 0.4193
vn -0.8954 -0.2468 0.3707
vn -0.3083 -0.2727 -0.9114
vn 0.8905 -0.2776 -0.3605
vn 0.3907 -0.8167 -0.4248
vn 0.3100 -0.2693 0.9118
vn 0.6771 -0.2917 0.6756
vn -0.9080 -0.2296 0.3505
vn -0.4949 -0.7161 0.4922
vn -0.6932 -0.6713 0.2623
vn -0.9755 -0.1928 0.1059
vn -0.2720 -0.2619 -0.9260
vn -0.4842 -0.7163 -0.5024
vn -0.1890 -0.8635 -0.4677
vn 0.8880 -0.3115 -0.3383
vn 0.4972 -0.7154 -0.4909
vn 0.4192 -0.8887 -0.1856
vn 0.2772 -0.3129 0.9084
vn 0.3003 -0.9040 0.3041
vn 0.1688 -0.8964 0.4099
vn 0.0368 -0.2461 0.9685
vn -0.2725 -0.9551 0.1161
vn -0.1905 -0.9602 0.2044
vn -0.1886 -0.9657 -0.1787
vn 0.2122 -0.9531 -0.2156
vn 0.6709 -0.2776 -0.6876
vn 0.6654 -0.3336 0.6678
vn 0.1632 -0.7910 -0.5897
vn -0.1644 -0.7955 0.5832
vn -0.5954 -0.7797 -0.1936
vn 0.5548 -0.8109 0.1863
vn -0.1759 -0.8786 0.4440
vn -0.6695 -0.6984 -0.2530
vn 0.2202 -0.6467 -0.7303
vn 0.6960 -0.6680 0.2636
vn -0.2626 -0.9592 -0.1048
vn 0.1152 -0.9501 -0.2899
vn 0.2642 -0.9579 0.1122
vn -0.9998 -0.0194 0.0077
vn -0.9983 -0.0010 0.0591
vn -1.0000 -0.0011 0.0074
vn 0.0055 -0.0176 0.9998
vn 0.0402 -0.0011 0.9992
vn 0.0052 -0.0015 1.0000
vn 0.9998 -0.0204 -0.0061
vn 0.9983 -0.0016 -0.0589
vn 1.0000 -0.0018 -0.0074
vn -0.0047 -0.0181 -0.9998
vn -0.0397 -0.0009 -0.9992
vn -0.0045 -0.0009 -1.0000
vn -0.0058 -0.0173 0.9998
vn -0.0050 -0.0016 1.0000
vn -0.0389 -0.0188 0.9991
vn -0.0401 -0.0008 0.9992
vn 0.0040 -0.0167 -0.9999
vn 0.0045 -0.0009 -1.0000
vn 0.0406 -0.0179 -0.9990
vn 0.0399 -0.0009 -0.9992
vn -0.9997 -0.0223 -0.0083
vn -1.0000 -0.0012 -0.0078
vn -0.9981 -0.0191 -0.0588
vn -0.9983 -0.0016 -0.0589
vn 0.9998 -0.0189 0.0084
vn 1.0000 -0.0012 0.0079
vn 0.9981 -0.0151 0.0590
vn 0.9983 -0.0015 0.0589
vn -0.9499 -0.0221 -0.3119
vn -0.9488 -0.0017 -0.3159
vn -0.7097 -0.0230 -0.7041
vn -0.7075 -0.0015 -0.7067
vn 0.3021 -0.0249 -0.9530
vn 0.3008 -0.0010 -0.9537
vn 0.7072 -0.0249 -0.7065
vn 0.7072 -0.0015 -0.7070
vn -0.2968 -0.0229 0.9547
vn -0.3004 -0.0010 0.9538
vn -0.7068 -0.0249 0.7070
vn -0.7070 -0.0014 0.7072
vn 0.9470 -0.0149 0.3208
vn 0.9488 -0.0014 0.3159
vn 0.7102 -0.0287 0.7034
vn 0.7070 -0.0011 0.7072
vn -0.3016 -0.0216 -0.9532
vn -0.3008 -0.0010 -0.9537
vn -0.0409 -0.0188 -0.9990
vn 0.9468 -0.0203 -0.3211
vn 0.9487 -0.0017 -0.3160
vn 0.9980 -0.0184 -0.0599
vn -0.9473 -0.0202 0.3198
vn -0.9487 -0.0013 0.3161
vn -0.9980 -0.0189 0.0603
vn 0.3056 -0.0231 0.9519
vn 0.3007 -0.0010 0.9537
vn 0.0396 -0.0180 0.9991
vn -0.7762 -0.6305 0.0017
vn -0.4620 -0.8869 0.0022
vn -0.8015 -0.5958 0.0505
vn 0.0036 -0.6519 0.7583
vn -0.0038 -0.9142 0.4052
vn 0.0338 -0.6460 0.7626
vn 0.7352 -0.6779 0.0011
vn 0.3775 -0.9259 -0.0109
vn 0.7569 -0.6518 -0.0474
vn -0.0012 -0.5923 -0.8057
vn -0.0035 -0.8607 -0.5092
vn -0.0361 -0.5753 -0.8171
vn -0.0071 -0.9083 0.4182
vn 0.0231 -0.9970 0.0735
vn -0.0162 -0.9973 0.0717
vn 0.0046 -0.5869 -0.8097
vn 0.0139 -0.8707 -0.4915
vn -0.0139 -0.9908 -0.1347
vn 0.0211 -0.9922 -0.1226
vn -0.3957 -0.9183 -0.0123
vn -0.0868 -0.9959 0.0241
vn -0.0872 -0.9957 -0.0321
vn 0.7925 -0.6098 -0.0084
vn 0.4594 -0.8882 0.0094
vn 0.0868 -0.9958 -0.0291
vn 0.0853 -0.9962 0.0190
vn -0.3670 -0.9236 -0.1106
vn -0.7035 -0.6729 -0.2288
vn -0.7582 -0.6500 -0.0518
vn -0.5128 -0.6862 -0.5159
vn -0.2365 -0.9385 -0.2515
vn 0.0948 -0.9113 -0.4006
vn 0.2265 -0.6280 -0.7445
vn 0.0441 -0.5553 -0.8305
vn 0.5128 -0.6862 -0.5159
vn 0.2374 -0.9388 -0.2496
vn -0.0942 -0.9317 0.3509
vn -0.2185 -0.6669 0.7124
vn -0.0387 -0.6357 0.7710
vn -0.5150 -0.6871 0.5125
vn -0.2410 -0.9414 0.2360
vn 0.3803 -0.9195 0.0993
vn 0.7331 -0.6376 0.2367
vn 0.8125 -0.5801 0.0585
vn 0.5150 -0.6872 0.5125
vn 0.2440 -0.9411 0.2341
vn -0.0922 -0.9132 -0.3969
vn -0.2269 -0.6277 -0.7447
vn 0.3527 -0.9284 -0.1168
vn 0.7034 -0.6728 -0.2294
vn -0.3955 -0.9131 0.0994
vn -0.7329 -0.6377 0.2373
vn 0.0972 -0.9266 0.3633
vn 0.2187 -0.6667 0.7125
vn -0.9734 -0.2293 -0.0007
vn -0.9755 -0.2111 0.0614
vn -0.0043 -0.2489 0.9685
vn 0.0406 -0.2415 0.9695
vn 0.9640 -0.2660 -0.0048
vn 0.9665 -0.2496 -0.0595
vn -0.0050 -0.2064 -0.9784
vn -0.0421 -0.2004 -0.9788
vn -0.0105 -0.2435 0.9698
vn -0.0057 -0.6501 0.7598
vn -0.0408 -0.2417 0.9695
vn 0.0051 -0.2043 -0.9789
vn 0.0422 -0.2006 -0.9788
vn -0.9658 -0.2592 -0.0119
vn -0.7350 -0.6780 -0.0086
vn -0.9664 -0.2501 -0.0597
vn 0.9760 -0.2169 0.0184
vn 0.9755 -0.2113 0.0615
vn -0.9114 -0.2688 -0.3117
vn -0.6818 -0.2774 -0.6769
vn 0.3064 -0.2432 -0.9203
vn 0.6819 -0.2776 -0.6767
vn -0.2990 -0.2658 0.9165
vn -0.6774 -0.2781 0.6810
vn 0.9149 -0.2480 0.3186
vn 0.6773 -0.2782 0.6811
vn -0.3065 -0.2430 -0.9203
vn 0.9113 -0.2689 -0.3117
vn -0.9147 -0.2482 0.3188
vn 0.2990 -0.2657 0.9165
vn -0.0024 -1.0000 -0.0022
vn -0.0108 -0.9999 0.0097
vn -0.0136 -0.9997 -0.0204
vn -0.0004 -1.0000 0.0021
vn 0.0028 -1.0000 -0.0015
vt 0.624540 0.686645
vt 0.624521 0.727472
vt 0.624509 0.726455
vt 0.582259 0.691480
vt 0.582259 0.722569
vt 0.582259 0.691475
vt 0.582259 0.722582
vt 0.622576 0.685774
vt 0.584455 0.685774
vt 0.622575 0.685774
vt 0.624772 0.722582
vt 0.624772 0.691521
vt 0.624772 0.722587
vt 0.622573 0.728288
vt 0.584456 0.728288
vt 0.622576 0.728288
vt 0.582437 0.687869
vt 0.582332 0.724917
vt 0.582278 0.690301
vt 0.582701 0.686517
vt 0.624396 0.686585
vt 0.624399 0.727495
vt 0.624593 0.726208
vt 0.624750 0.690059
vt 0.624752 0.723934
vt 0.623703 0.728115
vt 0.583392 0.728125
vt 0.582281 0.690115
vt 0.582259 0.722568
vt 0.582259 0.691492
vt 0.582284 0.724115
vt 0.622575 0.685774
vt 0.584455 0.685774
vt 0.622577 0.685774
vt 0.624752 0.723844
vt 0.624772 0.691490
vt 0.624772 0.722572
vt 0.583341 0.728109
vt 0.622575 0.728288
vt 0.584455 0.728288
vt 0.623742 0.728100
vt 0.582259 0.691483
vt 0.584456 0.685774
vt 0.624772 0.691483
vt 0.624772 0.691480
vt 0.582259 0.722583
vt 0.582259 0.691476
vt 0.584456 0.685774
vt 0.622576 0.685774
vt 0.624772 0.691482
vt 0.624772 0.691575
vt 0.624772 0.722413
vt 0.584457 0.728288
vt 0.622576 0.728288
vt 0.584457 0.728288
vt 0.622574 0.728288
vt 0.584456 0.728288
vt 0.582283 0.689849
vt 0.582396 0.725583
vt 0.582425 0.688171
vt 0.582279 0.723932
vt 0.622576 0.685774
vt 0.582763 0.686459
vt 0.624288 0.686477
vt 0.583330 0.685950
vt 0.624748 0.724128
vt 0.624630 0.688400
vt 0.624614 0.725822
vt 0.624750 0.689978
vt 0.583308 0.728109
vt 0.624264 0.727602
vt 0.582728 0.727574
vt 0.583155 0.685980
vt 0.583156 0.685981
vt 0.583156 0.728081
vt 0.623674 0.685942
vt 0.583328 0.685956
vt 0.583156 0.685982
vt 0.583156 0.728080
vt 0.623875 0.728080
vt 0.622576 0.685774
vt 0.623875 0.685983
vt 0.623876 0.728081
vt 0.623876 0.685980
vt 0.623876 0.685979
vt 0.583155 0.685979
vt 0.583155 0.728083
vt 0.583155 0.728083
vt 0.623876 0.728083
vt 0.623720 0.728110
vt 0.582290 0.689475
vt 0.582290 0.689459
vt 0.624741 0.724588
vt 0.624741 0.724603
vt 0.624741 0.689459
vt 0.624741 0.689475
vt 0.582290 0.689487
vt 0.582290 0.724575
vt 0.624741 0.724575
vt 0.624749 0.690051
vt 0.624741 0.689487
vt 0.582290 0.724588
vt 0.582259 0.722575
vt 0.624772 0.722579
vt 0.582290 0.689448
vt 0.582290 0.724615
vt 0.624741 0.724615
vt 0.624741 0.689448
vt 0.582512 0.726635
vt 0.582638 0.727466
vt 0.582511 0.726645
vt 0.582638 0.727461
vt 0.582385 0.688254
vt 0.582385 0.688240
vt 0.582512 0.687428
vt 0.582511 0.687418
vt 0.624394 0.686596
vt 0.624520 0.687428
vt 0.624393 0.686601
vt 0.623876 0.685981
vt 0.624646 0.725808
vt 0.624646 0.725823
vt 0.582512 0.726622
vt 0.582585 0.727194
vt 0.582385 0.725790
vt 0.582512 0.687441
vt 0.582638 0.686607
vt 0.624646 0.688273
vt 0.624576 0.687722
vt 0.624393 0.727455
vt 0.624519 0.726622
vt 0.582385 0.725808
vt 0.582638 0.686601
vt 0.624646 0.688254
vt 0.624519 0.687440
vt 0.624393 0.727461
vt 0.624520 0.726635
vt 0.582385 0.725823
vt 0.582511 0.726652
vt 0.582385 0.725834
vt 0.582290 0.724603
vt 0.582638 0.686596
vt 0.582511 0.687411
vt 0.582637 0.686589
vt 0.624646 0.688240
vt 0.624520 0.687411
vt 0.624646 0.688218
vt 0.624393 0.727466
vt 0.624520 0.726659
vt 0.624394 0.727474
vt 0.623876 0.728083
vt 0.582385 0.725851
vt 0.582511 0.726663
vt 0.582511 0.687399
vt 0.624520 0.687399
vt 0.624520 0.687418
vt 0.624520 0.726645
vt 0.624393 0.686608
vt 0.582639 0.727454
vt 0.582385 0.688273
vt 0.624646 0.725788
vt 0.582637 0.727473
vt 0.582385 0.688229
vt 0.624394 0.686593
vt 0.624646 0.725834
vt 0.582385 0.688211
vt 0.624394 0.686587
vt 0.624646 0.725851
vt 0.582259 0.723510
vt 0.582285 0.726181
vt 0.582259 0.723555
vt 0.622623 0.728288
vt 0.623951 0.728204
vt 0.622624 0.728288
vt 0.624772 0.690562
vt 0.624747 0.687882
vt 0.624772 0.690503
vt 0.584408 0.685774
vt 0.583081 0.685858
vt 0.584409 0.685774
vt 0.584410 0.728288
vt 0.584408 0.728288
vt 0.583081 0.728204
vt 0.622621 0.685774
vt 0.622622 0.685774
vt 0.623950 0.685859
vt 0.623951 0.685858
vt 0.582259 0.690505
vt 0.582259 0.690510
vt 0.582285 0.687884
vt 0.582285 0.687882
vt 0.624772 0.723544
vt 0.624772 0.723562
vt 0.624747 0.726179
vt 0.624747 0.726181
vt 0.582362 0.686786
vt 0.582362 0.686783
vt 0.582466 0.686449
vt 0.582466 0.686447
vt 0.624462 0.686111
vt 0.624566 0.686449
vt 0.624566 0.686447
vt 0.582569 0.727951
vt 0.582569 0.727952
vt 0.582466 0.727614
vt 0.582466 0.727615
vt 0.624669 0.727277
vt 0.624669 0.727279
vt 0.624566 0.727614
vt 0.624566 0.727615
vt 0.582569 0.686111
vt 0.583081 0.685859
vt 0.624669 0.686786
vt 0.624669 0.686783
vt 0.624747 0.687884
vt 0.582362 0.727277
vt 0.582362 0.727279
vt 0.582285 0.726179
vt 0.624462 0.727951
vt 0.624462 0.727952
vt 0.623950 0.728204
vt 0.582259 0.723532
vt 0.582282 0.725840
vt 0.582285 0.726166
vt 0.622745 0.728288
vt 0.623784 0.728213
vt 0.623950 0.728203
vt 0.624772 0.690424
vt 0.624748 0.688065
vt 0.624747 0.687901
vt 0.584425 0.685774
vt 0.583208 0.685852
vt 0.583082 0.685860
vt 0.583193 0.728210
vt 0.624443 0.727829
vt 0.582642 0.727967
vt 0.622623 0.685774
vt 0.623853 0.685854
vt 0.582671 0.686087
vt 0.624389 0.686098
vt 0.582283 0.688091
vt 0.582385 0.727149
vt 0.582408 0.686806
vt 0.624772 0.723527
vt 0.624748 0.725962
vt 0.624639 0.686873
vt 0.624684 0.726970
vt 0.582363 0.686810
vt 0.582362 0.686801
vt 0.582285 0.687901
vt 0.582466 0.686459
vt 0.582466 0.686465
vt 0.624461 0.686120
vt 0.624461 0.686117
vt 0.623950 0.685860
vt 0.624565 0.686459
vt 0.624565 0.686465
vt 0.582570 0.727945
vt 0.582570 0.727947
vt 0.583081 0.728203
vt 0.582466 0.727606
vt 0.582466 0.727601
vt 0.624669 0.727258
vt 0.624669 0.727265
vt 0.624747 0.726166
vt 0.624565 0.727606
vt 0.624565 0.727601
vt 0.582570 0.686120
vt 0.582570 0.686117
vt 0.624669 0.686810
vt 0.624669 0.686801
vt 0.582363 0.727258
vt 0.582362 0.727265
vt 0.624461 0.727945
vt 0.624462 0.727947
vt 0.582259 0.723497
vt 0.582285 0.726173
vt 0.622603 0.728288
vt 0.624772 0.690300
vt 0.624747 0.687891
vt 0.584409 0.685774
vt 0.583081 0.685859
vt 0.584408 0.728288
vt 0.584313 0.728288
vt 0.622624 0.685774
vt 0.623950 0.685859
vt 0.582259 0.690497
vt 0.582259 0.690453
vt 0.582285 0.687891
vt 0.624772 0.723679
vt 0.624747 0.726173
vt 0.582362 0.686792
vt 0.582466 0.686453
vt 0.624462 0.686114
vt 0.624565 0.686453
vt 0.582569 0.727949
vt 0.582466 0.727611
vt 0.624669 0.727272
vt 0.624565 0.727611
vt 0.582569 0.686114
vt 0.624669 0.686792
vt 0.582362 0.727272
vt 0.624462 0.727949
vt 0.582535 0.687614
vt 0.582501 0.727456
vt 0.582498 0.686627
vt 0.582535 0.726604
vt 0.624482 0.687531
s 1
f 272/1/1 168/2/2 273/3/3
f 52/4/4 177/5/5 49/6/6
f 177/5/5 52/4/4 51/7/7
f 31/8/8 26/9/9 27/10/10
f 54/11/11 50/12/12 194/13/13
f 28/14/14 33/15/15 32/16/16
f 94/17/17 73/18/18 8/19/19
f 94/17/17 74/20/20 73/18/18
f 109/21/21 170/22/22 73/18/18
f 96/23/23 75/24/24 10/25/25
f 170/22/22 76/26/26 7/27/27
f 171/28/28 55/29/29 56/30/30
f 190/31/31 8/19/19 73/18/18
f 172/32/32 34/33/33 35/34/34
f 173/35/35 57/36/36 58/37/37
f 173/35/35 10/25/25 75/24/24
f 174/38/38 36/39/39 37/40/40
f 185/41/41 7/27/27 76/26/26
f 175/42/42 51/7/7 52/4/4
f 175/42/42 56/30/30 55/29/29
f 30/43/43 35/34/34 34/33/33
f 176/44/44 53/45/45 54/11/11
f 176/44/44 58/37/37 57/36/36
f 33/15/15 37/40/40 36/39/39
f 49/6/6 59/46/46 60/47/47
f 27/10/10 42/48/48 43/49/49
f 178/50/50 61/51/51 62/52/52
f 178/50/50 194/13/13 50/12/12
f 187/53/53 44/54/54 45/55/55
f 179/56/56 29/57/57 28/14/14
f 195/58/58 1/59/59 67/60/60
f 180/61/61 60/47/47 59/46/46
f 181/62/62 38/63/63 39/64/64
f 188/65/65 43/49/49 42/48/48
f 182/66/66 2/67/67 68/68/68
f 196/69/69 62/52/52 61/51/51
f 183/70/70 40/71/71 41/72/72
f 183/70/70 45/55/55 44/54/54
f 82/73/73 30/43/43 70/74/74
f 29/57/57 3/75/75 33/15/15
f 109/21/21 74/20/20 9/76/76
f 184/77/77 9/76/76 74/20/20
f 184/77/77 12/78/78 34/33/33
f 174/38/38 37/40/40 77/79/79
f 185/41/41 14/80/80 36/39/39
f 186/81/81 79/82/82 35/34/34
f 70/74/74 34/33/33 12/78/78
f 33/15/15 77/79/79 37/40/40
f 72/83/83 36/39/39 14/80/80
f 17/84/84 43/49/49 87/85/85
f 26/9/9 20/86/86 42/48/48
f 15/87/87 45/55/55 85/88/88
f 187/53/53 15/87/87 29/57/57
f 179/56/56 22/89/89 44/54/54
f 181/62/62 87/85/85 43/49/49
f 188/65/65 42/48/48 20/86/86
f 183/70/70 85/88/88 45/55/55
f 189/90/90 44/54/54 22/89/89
f 4/91/91 49/6/6 16/92/92
f 6/93/93 194/13/13 18/94/94
f 83/95/95 53/45/45 71/96/96
f 53/45/45 83/95/95 50/12/12
f 171/28/28 56/30/30 78/97/97
f 190/31/31 11/98/98 55/29/29
f 173/35/35 58/37/37 80/99/99
f 191/100/100 13/101/101 57/36/36
f 175/42/42 78/97/97 56/30/30
f 69/102/102 55/29/29 11/98/98
f 192/103/103 69/102/102 51/7/7
f 193/104/104 80/99/99 58/37/37
f 71/96/96 57/36/36 13/101/101
f 176/44/44 71/96/96 53/45/45
f 16/92/92 60/47/47 86/105/105
f 177/5/5 19/106/106 59/46/46
f 18/94/94 62/52/52 88/107/107
f 178/50/50 21/108/108 61/51/51
f 195/58/58 86/105/105 60/47/47
f 180/61/61 59/46/46 19/106/106
f 182/66/66 88/107/107 62/52/52
f 196/69/69 61/51/51 21/108/108
f 89/109/109 221/110/110 101/111/111
f 221/110/110 89/109/109 217/112/112
f 15/87/87 217/112/112 3/75/75
f 218/113/113 16/92/92 222/114/114
f 90/115/115 222/114/114 102/116/116
f 223/117/117 91/118/118 219/119/119
f 17/84/84 219/119/119 5/120/120
f 220/121/121 18/94/94 224/122/122
f 97/123/123 73/18/18 93/124/124
f 190/31/31 197/125/125 11/98/98
f 98/126/126 74/20/20 94/17/17
f 184/77/77 198/127/127 12/78/78
f 199/128/128 75/24/24 95/129/129
f 191/100/100 199/128/128 13/101/101
f 200/130/130 76/26/26 170/22/22
f 100/131/131 170/22/22 96/23/23
f 185/41/41 200/130/130 14/80/80
f 201/132/132 11/98/98 197/125/125
f 89/109/109 197/125/125 97/123/123
f 202/133/133 12/78/78 198/127/127
f 90/115/115 198/127/127 98/126/126
f 203/134/134 13/101/101 199/128/128
f 91/118/118 199/128/128 99/135/135
f 204/136/136 14/80/80 200/130/130
f 92/137/137 200/130/130 100/131/131
f 205/138/138 105/139/139 278/140/140
f 81/141/141 278/140/140 19/106/106
f 206/142/142 106/143/143 210/144/144
f 82/73/73 210/144/144 20/86/86
f 207/145/145 107/146/146 211/147/147
f 83/95/95 211/147/147 21/108/108
f 208/148/148 108/149/149 212/150/150
f 84/151/151 212/150/150 22/89/89
f 209/152/152 19/106/106 278/140/140
f 279/153/153 278/140/140 105/139/139
f 280/154/154 210/144/144 106/143/143
f 210/144/144 67/60/60 38/63/63
f 281/155/155 211/147/147 107/146/146
f 212/150/150 68/68/68 40/71/71
f 201/132/132 101/111/111 205/138/138
f 69/102/102 205/138/138 81/141/141
f 206/142/142 70/74/74 202/133/133
f 207/145/145 71/96/96 203/134/134
f 103/156/156 203/134/134 91/118/118
f 72/83/83 208/148/148 84/151/151
f 208/148/148 72/83/83 204/136/136
f 104/157/157 204/136/136 92/137/137
f 174/38/38 93/124/124 7/27/27
f 171/28/28 94/17/17 8/19/19
f 215/158/158 95/129/129 109/21/21
f 79/82/82 109/21/21 9/76/76
f 173/35/35 96/23/23 10/25/25
f 217/112/112 97/123/123 213/159/159
f 3/75/75 213/159/159 77/79/79
f 218/113/113 98/126/126 214/160/160
f 4/91/91 214/160/160 78/97/97
f 219/119/119 99/135/135 215/158/158
f 5/120/120 215/158/158 79/82/82
f 220/121/121 100/131/131 216/161/161
f 6/93/93 216/161/161 80/99/99
f 221/110/110 85/88/88 225/162/162
f 101/111/111 225/162/162 105/139/139
f 222/114/114 86/105/105 275/163/163
f 102/116/116 275/163/163 106/143/143
f 223/117/117 87/85/85 276/164/164
f 103/156/156 276/164/164 107/146/146
f 224/122/122 88/107/107 277/165/165
f 104/157/157 277/165/165 108/149/149
f 183/70/70 225/162/162 85/88/88
f 279/153/153 41/72/72 1/59/59
f 226/166/166 106/143/143 275/163/163
f 195/58/58 275/163/163 86/105/105
f 227/167/167 107/146/146 276/164/164
f 281/155/155 39/64/64 2/67/67
f 228/168/168 108/149/149 277/165/165
f 182/66/66 277/165/165 88/107/107
f 95/129/129 96/23/23 170/22/22
f 95/129/129 170/22/22 109/21/21
f 46/169/169 112/170/170 118/171/171
f 23/172/172 113/173/173 114/174/174
f 47/175/175 111/176/176 120/177/177
f 24/178/178 110/179/179 116/180/180
f 229/181/181 114/174/174 115/182/182
f 65/183/183 115/182/182 124/183/184
f 25/184/185 116/180/180 117/185/186
f 64/186/187 117/185/186 123/187/188
f 230/188/189 118/171/171 119/189/190
f 63/190/191 119/189/190 122/191/192
f 48/192/193 120/177/177 121/193/194
f 66/194/195 121/193/194 125/195/196
f 231/196/197 122/191/192 282/197/198
f 142/198/199 282/197/198 126/199/200
f 232/200/201 123/187/188 283/200/202
f 143/201/203 283/200/202 127/202/204
f 233/203/205 124/183/184 284/204/206
f 144/205/207 284/204/206 128/206/208
f 234/207/209 125/195/196 285/208/210
f 145/209/211 285/208/210 129/210/212
f 235/211/213 126/199/200 286/211/214
f 130/212/215 286/211/214 110/179/179
f 236/213/216 127/202/204 287/214/217
f 131/215/218 287/214/217 111/176/176
f 237/216/219 128/206/208 288/217/220
f 132/218/221 288/217/220 112/170/170
f 238/219/222 129/210/212 289/220/223
f 133/221/224 289/220/223 113/173/173
f 154/222/225 239/223/226 148/224/227
f 150/225/228 240/226/229 149/227/230
f 156/228/231 241/229/232 147/230/233
f 152/231/234 243/232/235 146/233/236
f 242/234/237 134/235/238 240/226/229
f 134/235/238 242/234/237 135/236/239
f 243/232/235 153/237/240 244/238/241
f 136/239/242 244/238/241 137/240/243
f 245/241/244 138/242/245 239/223/226
f 138/242/245 245/241/244 139/243/246
f 241/229/232 157/244/247 246/245/248
f 140/246/249 246/245/248 141/247/250
f 247/248/251 139/243/246 245/241/244
f 306/249/252 245/241/244 158/250/253
f 247/248/251 162/251/254 302/252/255
f 248/253/256 137/240/243 244/238/241
f 307/254/257 244/238/241 159/255/258
f 248/253/256 163/256/259 303/257/260
f 137/240/243 303/257/260 140/246/249
f 249/258/261 135/236/239 242/234/237
f 308/259/262 242/234/237 160/260/263
f 249/258/261 164/261/264 304/262/265
f 135/236/239 304/262/265 138/242/245
f 250/263/266 141/247/250 246/245/248
f 309/264/267 246/245/248 161/265/268
f 250/263/266 165/266/269 305/267/270
f 141/247/250 305/267/270 134/235/238
f 251/268/271 139/243/246 302/252/255
f 310/269/272 302/252/255 162/251/254
f 251/268/271 146/233/236 243/232/235
f 252/270/273 140/246/249 303/257/260
f 311/271/274 303/257/260 163/256/259
f 252/270/273 147/230/233 241/229/232
f 253/272/275 138/242/245 304/262/265
f 312/273/276 304/262/265 164/261/264
f 253/272/275 148/224/227 239/223/226
f 254/274/277 134/235/238 305/267/270
f 313/275/278 305/267/270 165/266/269
f 254/274/277 149/227/230 240/226/229
f 260/276/279 148/224/227 292/277/280
f 46/169/169 292/277/280 132/218/221
f 256/278/281 149/227/230 293/227/282
f 23/172/172 293/227/282 133/221/224
f 255/279/283 147/230/233 291/280/284
f 47/175/175 291/280/284 131/215/218
f 258/281/285 146/233/236 290/282/286
f 24/178/178 290/282/286 130/212/215
f 229/181/181 256/278/281 23/172/172
f 256/278/281 229/181/181 257/283/287
f 150/225/228 257/283/287 151/284/288
f 257/283/287 65/183/183 300/260/289
f 151/284/288 300/260/289 160/260/263
f 25/184/185 258/281/285 24/178/178
f 258/281/285 25/184/185 259/285/290
f 152/231/234 259/285/290 153/237/240
f 259/285/290 64/186/187 299/286/291
f 153/237/240 299/286/291 159/255/258
f 260/276/279 230/188/189 261/287/292
f 154/222/225 261/287/292 155/288/293
f 261/287/292 63/190/191 298/289/294
f 155/288/293 298/289/294 158/250/253
f 48/192/193 255/279/283 47/175/175
f 255/279/283 48/192/193 262/290/295
f 156/228/231 262/290/295 157/244/247
f 262/290/295 66/194/195 301/291/296
f 157/244/247 301/291/296 161/265/268
f 263/292/297 158/250/253 298/289/294
f 231/196/197 298/289/294 63/190/191
f 263/292/297 142/198/199 294/293/298
f 306/249/252 294/293/298 162/251/254
f 264/294/299 159/255/258 299/286/291
f 232/200/201 299/286/291 64/186/187
f 264/294/299 143/201/203 295/295/300
f 307/254/257 295/295/300 163/256/259
f 265/296/301 160/260/263 300/260/289
f 233/203/205 300/260/289 65/183/183
f 265/296/301 144/205/207 296/297/302
f 308/259/262 296/297/302 164/261/264
f 266/298/303 161/265/268 301/291/296
f 234/207/209 301/291/296 66/194/195
f 266/298/303 145/209/211 297/299/304
f 309/264/267 297/299/304 165/266/269
f 267/300/305 162/251/254 294/293/298
f 235/211/213 294/293/298 142/198/199
f 267/300/305 130/212/215 290/282/286
f 310/269/272 290/282/286 146/233/236
f 268/301/306 163/256/259 295/295/300
f 236/213/216 295/295/300 143/201/203
f 268/301/306 131/215/218 291/280/284
f 311/271/274 291/280/284 147/230/233
f 269/302/307 164/261/264 296/297/302
f 237/216/219 296/297/302 144/205/207
f 269/302/307 132/218/221 292/277/280
f 312/273/276 292/277/280 148/224/227
f 270/303/308 165/266/269 297/299/304
f 238/219/222 297/299/304 145/209/211
f 270/303/308 133/221/224 293/227/282
f 313/275/278 293/227/282 149/227/230
f 1/59/59 166/304/309 67/60/60
f 167/305/310 139/243/246 274/306/311
f 271/307/312 274/306/311 166/304/309
f 169/308/313 38/63/63 166/304/309
f 274/306/311 137/240/243 272/1/1
f 2/67/67 273/3/3 68/68/68
f 272/1/1 141/247/250 168/2/2
f 40/71/71 271/307/312 41/72/72
f 271/307/312 40/71/71 273/3/3
f 168/2/2 135/236/239 167/305/310
f 41/72/72 271/307/312 1/59/59
f 39/64/64 169/308/313 2/67/67
f 136/239/242 274/306/311 139/243/246
f 31/8/8 30/43/43 26/9/9
f 53/45/45 50/12/12 54/11/11
f 28/14/14 29/57/57 33/15/15
f 96/23/23 95/129/129 75/24/24
f 171/28/28 190/31/31 55/29/29
f 190/31/31 171/28/28 8/19/19
f 172/32/32 184/77/77 34/33/33
f 184/77/77 172/32/32 9/76/76
f 173/35/35 191/100/100 57/36/36
f 191/100/100 173/35/35 75/24/24
f 174/38/38 185/41/41 36/39/39
f 185/41/41 174/38/38 7/27/27
f 175/42/42 192/103/103 51/7/7
f 192/103/103 175/42/42 55/29/29
f 186/81/81 30/43/43 31/8/8
f 30/43/43 186/81/81 35/34/34
f 193/104/104 176/44/44 54/11/11
f 176/44/44 193/104/104 58/37/37
f 32/16/16 33/15/15 36/39/39
f 49/6/6 177/5/5 59/46/46
f 27/10/10 26/9/9 42/48/48
f 194/13/13 178/50/50 62/52/52
f 187/53/53 179/56/56 44/54/54
f 179/56/56 187/53/53 29/57/57
f 195/58/58 180/61/61 1/59/59
f 180/61/61 195/58/58 60/47/47
f 181/62/62 188/65/65 38/63/63
f 188/65/65 181/62/62 43/49/49
f 182/66/66 196/69/69 2/67/67
f 196/69/69 182/66/66 62/52/52
f 183/70/70 189/90/90 40/71/71
f 189/90/90 183/70/70 44/54/54
f 17/84/84 31/8/8 27/10/10
f 31/8/8 17/84/84 5/120/120
f 82/73/73 26/9/9 30/43/43
f 29/57/57 15/87/87 3/75/75
f 72/83/83 28/14/14 32/16/16
f 28/14/14 72/83/83 84/151/151
f 74/20/20 109/21/21 73/18/18
f 93/124/124 170/22/22 7/27/27
f 170/22/22 93/124/124 73/18/18
f 79/82/82 172/32/32 35/34/34
f 172/32/32 79/82/82 9/76/76
f 5/120/120 186/81/81 31/8/8
f 186/81/81 5/120/120 79/82/82
f 70/74/74 30/43/43 34/33/33
f 33/15/15 3/75/75 77/79/79
f 72/83/83 32/16/16 36/39/39
f 17/84/84 27/10/10 43/49/49
f 26/9/9 82/73/73 20/86/86
f 15/87/87 187/53/53 45/55/55
f 84/151/151 179/56/56 28/14/14
f 179/56/56 84/151/151 22/89/89
f 87/85/85 181/62/62 39/64/64
f 4/91/91 52/4/4 49/6/6
f 69/102/102 177/5/5 51/7/7
f 177/5/5 69/102/102 81/141/141
f 6/93/93 54/11/11 194/13/13
f 4/91/91 175/42/42 52/4/4
f 175/42/42 4/91/91 78/97/97
f 69/102/102 192/103/103 55/29/29
f 6/93/93 193/104/104 54/11/11
f 193/104/104 6/93/93 80/99/99
f 71/96/96 176/44/44 57/36/36
f 16/92/92 49/6/6 60/47/47
f 177/5/5 81/141/141 19/106/106
f 18/94/94 194/13/13 62/52/52
f 83/95/95 178/50/50 50/12/12
f 178/50/50 83/95/95 21/108/108
f 15/87/87 221/110/110 217/112/112
f 218/113/113 4/91/91 16/92/92
f 90/115/115 218/113/113 222/114/114
f 223/117/117 103/156/156 91/118/118
f 17/84/84 223/117/117 219/119/119
f 220/121/121 6/93/93 18/94/94
f 104/157/157 220/121/121 224/122/122
f 220/121/121 104/157/157 92/137/137
f 197/125/125 190/31/31 73/18/18
f 97/123/123 197/125/125 73/18/18
f 198/127/127 184/77/77 74/20/20
f 98/126/126 198/127/127 74/20/20
f 199/128/128 191/100/100 75/24/24
f 99/135/135 199/128/128 95/129/129
f 200/130/130 185/41/41 76/26/26
f 100/131/131 200/130/130 170/22/22
f 201/132/132 69/102/102 11/98/98
f 89/109/109 201/132/132 197/125/125
f 202/133/133 70/74/74 12/78/78
f 90/115/115 202/133/133 198/127/127
f 203/134/134 71/96/96 13/101/101
f 91/118/118 203/134/134 199/128/128
f 204/136/136 72/83/83 14/80/80
f 92/137/137 204/136/136 200/130/130
f 205/138/138 101/111/111 105/139/139
f 81/141/141 205/138/138 278/140/140
f 206/142/142 102/116/116 106/143/143
f 82/73/73 206/142/142 210/144/144
f 207/145/145 103/156/156 107/146/146
f 83/95/95 207/145/145 211/147/147
f 208/148/148 104/157/157 108/149/149
f 84/151/151 208/148/148 212/150/150
f 209/152/152 180/61/61 19/106/106
f 279/153/153 209/152/152 278/140/140
f 209/152/152 279/153/153 1/59/59
f 180/61/61 209/152/152 1/59/59
f 210/144/144 188/65/65 20/86/86
f 210/144/144 280/154/154 67/60/60
f 188/65/65 210/144/144 38/63/63
f 211/147/147 196/69/69 21/108/108
f 211/147/147 281/155/155 2/67/67
f 196/69/69 211/147/147 2/67/67
f 212/150/150 189/90/90 22/89/89
f 212/150/150 108/149/149 68/68/68
f 189/90/90 212/150/150 40/71/71
f 201/132/132 89/109/109 101/111/111
f 69/102/102 201/132/132 205/138/138
f 206/142/142 90/115/115 102/116/116
f 206/142/142 82/73/73 70/74/74
f 90/115/115 206/142/142 202/133/133
f 207/145/145 83/95/95 71/96/96
f 103/156/156 207/145/145 203/134/134
f 104/157/157 208/148/148 204/136/136
f 213/159/159 97/123/123 93/124/124
f 174/38/38 213/159/159 93/124/124
f 213/159/159 174/38/38 77/79/79
f 214/160/160 98/126/126 94/17/17
f 171/28/28 214/160/160 94/17/17
f 214/160/160 171/28/28 78/97/97
f 215/158/158 99/135/135 95/129/129
f 79/82/82 215/158/158 109/21/21
f 216/161/161 100/131/131 96/23/23
f 173/35/35 216/161/161 96/23/23
f 216/161/161 173/35/35 80/99/99
f 217/112/112 89/109/109 97/123/123
f 3/75/75 217/112/112 213/159/159
f 218/113/113 90/115/115 98/126/126
f 4/91/91 218/113/113 214/160/160
f 219/119/119 91/118/118 99/135/135
f 5/120/120 219/119/119 215/158/158
f 220/121/121 92/137/137 100/131/131
f 6/93/93 220/121/121 216/161/161
f 221/110/110 15/87/87 85/88/88
f 101/111/111 221/110/110 225/162/162
f 222/114/114 16/92/92 86/105/105
f 102/116/116 222/114/114 275/163/163
f 223/117/117 17/84/84 87/85/85
f 103/156/156 223/117/117 276/164/164
f 224/122/122 18/94/94 88/107/107
f 104/157/157 224/122/122 277/165/165
f 225/162/162 279/153/153 105/139/139
f 225/162/162 183/70/70 41/72/72
f 279/153/153 225/162/162 41/72/72
f 226/166/166 280/154/154 106/143/143
f 195/58/58 226/166/166 275/163/163
f 226/166/166 195/58/58 67/60/60
f 280/154/154 226/166/166 67/60/60
f 227/167/167 281/155/155 107/146/146
f 87/85/85 227/167/167 276/164/164
f 227/167/167 87/85/85 39/64/64
f 281/155/155 227/167/167 39/64/64
f 182/66/66 228/168/168 277/165/165
f 228/168/168 182/66/66 68/68/68
f 108/149/149 228/168/168 68/68/68
f 46/169/169 132/218/221 112/170/170
f 23/172/172 133/221/224 113/173/173
f 47/175/175 131/215/218 111/176/176
f 24/178/178 130/212/215 110/179/179
f 229/181/181 23/172/172 114/174/174
f 65/183/183 229/181/181 115/182/182
f 25/184/185 24/178/178 116/180/180
f 64/186/187 25/184/185 117/185/186
f 230/188/189 46/169/169 118/171/171
f 63/190/191 230/188/189 119/189/190
f 48/192/193 47/175/175 120/177/177
f 66/194/195 48/192/193 121/193/194
f 231/196/197 63/190/191 122/191/192
f 142/198/199 231/196/197 282/197/198
f 232/200/201 64/186/187 123/187/188
f 143/201/203 232/200/201 283/200/202
f 233/203/205 65/183/183 124/183/184
f 144/205/207 233/203/205 284/204/206
f 234/207/209 66/194/195 125/195/196
f 145/209/211 234/207/209 285/208/210
f 235/211/213 142/198/199 126/199/200
f 130/212/215 235/211/213 286/211/214
f 236/213/216 143/201/203 127/202/204
f 131/215/218 236/213/216 287/214/217
f 237/216/219 144/205/207 128/206/208
f 132/218/221 237/216/219 288/217/220
f 238/219/222 145/209/211 129/210/212
f 133/221/224 238/219/222 289/220/223
f 150/225/228 242/234/237 240/226/229
f 242/234/237 150/225/228 151/284/288
f 242/234/237 151/284/288 160/260/263
f 243/232/235 152/231/234 153/237/240
f 136/239/242 243/232/235 244/238/241
f 244/238/241 153/237/240 159/255/258
f 154/222/225 245/241/244 239/223/226
f 245/241/244 154/222/225 155/288/293
f 245/241/244 155/288/293 158/250/253
f 241/229/232 156/228/231 157/244/247
f 140/246/249 241/229/232 246/245/248
f 246/245/248 157/244/247 161/265/268
f 306/249/252 247/248/251 245/241/244
f 247/248/251 306/249/252 162/251/254
f 139/243/246 247/248/251 302/252/255
f 307/254/257 248/253/256 244/238/241
f 248/253/256 307/254/257 163/256/259
f 137/240/243 248/253/256 303/257/260
f 308/259/262 249/258/261 242/234/237
f 249/258/261 308/259/262 164/261/264
f 135/236/239 249/258/261 304/262/265
f 309/264/267 250/263/266 246/245/248
f 250/263/266 309/264/267 165/266/269
f 141/247/250 250/263/266 305/267/270
f 251/268/271 136/239/242 139/243/246
f 310/269/272 251/268/271 302/252/255
f 251/268/271 310/269/272 146/233/236
f 136/239/242 251/268/271 243/232/235
f 311/271/274 252/270/273 303/257/260
f 252/270/273 311/271/274 147/230/233
f 140/246/249 252/270/273 241/229/232
f 312/273/276 253/272/275 304/262/265
f 253/272/275 312/273/276 148/224/227
f 138/242/245 253/272/275 239/223/226
f 313/275/278 254/274/277 305/267/270
f 254/274/277 313/275/278 149/227/230
f 134/235/238 254/274/277 240/226/229
f 260/276/279 154/222/225 148/224/227
f 46/169/169 260/276/279 292/277/280
f 256/278/281 150/225/228 149/227/230
f 23/172/172 256/278/281 293/227/282
f 255/279/283 156/228/231 147/230/233
f 47/175/175 255/279/283 291/280/284
f 258/281/285 152/231/234 146/233/236
f 24/178/178 258/281/285 290/282/286
f 150/225/228 256/278/281 257/283/287
f 257/283/287 229/181/181 65/183/183
f 151/284/288 257/283/287 300/260/289
f 152/231/234 258/281/285 259/285/290
f 259/285/290 25/184/185 64/186/187
f 153/237/240 259/285/290 299/286/291
f 260/276/279 46/169/169 230/188/189
f 154/222/225 260/276/279 261/287/292
f 261/287/292 230/188/189 63/190/191
f 155/288/293 261/287/292 298/289/294
f 156/228/231 255/279/283 262/290/295
f 262/290/295 48/192/193 66/194/195
f 157/244/247 262/290/295 301/291/296
f 263/292/297 306/249/252 158/250/253
f 231/196/197 263/292/297 298/289/294
f 263/292/297 231/196/197 142/198/199
f 306/249/252 263/292/297 294/293/298
f 264/294/299 307/254/257 159/255/258
f 232/200/201 264/294/299 299/286/291
f 264/294/299 232/200/201 143/201/203
f 307/254/257 264/294/299 295/295/300
f 265/296/301 308/259/262 160/260/263
f 233/203/205 265/296/301 300/260/289
f 265/296/301 233/203/205 144/205/207
f 308/259/262 265/296/301 296/297/302
f 266/298/303 309/264/267 161/265/268
f 234/207/209 266/298/303 301/291/296
f 266/298/303 234/207/209 145/209/211
f 309/264/267 266/298/303 297/299/304
f 267/300/305 310/269/272 162/251/254
f 235/211/213 267/300/305 294/293/298
f 267/300/305 235/211/213 130/212/215
f 310/269/272 267/300/305 290/282/286
f 268/301/306 311/271/274 163/256/259
f 236/213/216 268/301/306 295/295/300
f 268/301/306 236/213/216 131/215/218
f 311/271/274 268/301/306 291/280/284
f 269/302/307 312/273/276 164/261/264
f 237/216/219 269/302/307 296/297/302
f 269/302/307 237/216/219 132/218/221
f 312/273/276 269/302/307 292/277/280
f 270/303/308 313/275/278 165/266/269
f 238/219/222 270/303/308 297/299/304
f 270/303/308 238/219/222 133/221/224
f 313/275/278 270/303/308 293/227/282
f 167/305/310 138/242/245 139/243/246
f 271/307/312 167/305/310 274/306/311
f 169/308/313 39/64/64 38/63/63
f 274/306/311 169/308/313 166/304/309
f 274/306/311 136/239/242 137/240/243
f 169/308/313 274/306/311 272/1/1
f 169/308/313 272/1/1 273/3/3
f 2/67/67 169/308/313 273/3/3
f 272/1/1 140/246/249 141/247/250
f 271/307/312 168/2/2 167/305/310
f 168/2/2 271/307/312 273/3/3
f 168/2/2 134/235/238 135/236/239
f 1/59/59 271/307/312 166/304/309
f 167/305/310 135/236/239 138/242/245
f 272/1/1 137/240/243 140/246/249
f 168/2/2 141/247/250 134/235/238
f 166/304/309 38/63/63 67/60/60
f 273/3/3 40/71/71 68/68/68
