# Blender 4.0.0
# www.blender.org
mtllib Microwave011_Button1.mtl
o Microwave011_Button1
v 0.161334 -0.129239 0.177227
v 0.178005 -0.129241 0.176972
v 0.178413 -0.129212 0.179364
v 0.161528 -0.129243 0.179531
v 0.178271 -0.129272 0.177012
v 0.161345 -0.129237 0.179326
v 0.178407 -0.129262 0.177232
v 0.178041 -0.129237 0.179566
v 0.161755 -0.128593 0.179581
v 0.161328 -0.128622 0.177215
v 0.178000 -0.128624 0.176960
v 0.161317 -0.128572 0.179333
v 0.161752 -0.128616 0.176959
v 0.178435 -0.128599 0.177199
v 0.178010 -0.128570 0.179594
v 0.179271 -0.128353 0.181912
v 0.160490 -0.128490 0.181912
v 0.160456 -0.128569 0.175496
v 0.162263 -0.129222 0.179584
v 0.162198 -0.129266 0.176982
v 0.161727 -0.128598 0.176944
v 0.178462 -0.128595 0.176922
v 0.161281 -0.128561 0.179632
v 0.159432 -0.128499 0.181196
v 0.180316 -0.128565 0.175852
v 0.180321 -0.128377 0.181181
v 0.161378 -0.129246 0.179258
v 0.178358 -0.129244 0.179464
v 0.178417 -0.129226 0.179220
v 0.178367 -0.129271 0.177195
v 0.161394 -0.129272 0.177098
v 0.159439 -0.128565 0.175813
v 0.179835 -0.128569 0.175497
v 0.159834 -0.128492 0.181905
v 0.180313 -0.128511 0.181578
v 0.161334 -0.129214 0.179328
v 0.161729 -0.129248 0.176974
v 0.178417 -0.129238 0.177226
v 0.178022 -0.129223 0.179582
v 0.161474 -0.129270 0.177011
v 0.161706 -0.129232 0.179576
v 0.161346 -0.129263 0.177230
v 0.177981 -0.129265 0.176984
v 0.178402 -0.129239 0.179330
v 0.161329 -0.128595 0.179327
v 0.178423 -0.128623 0.177214
v 0.161735 -0.128570 0.179594
v 0.161315 -0.128596 0.177199
v 0.177990 -0.128600 0.176947
v 0.178423 -0.128588 0.179333
v 0.161317 -0.128594 0.176941
v 0.161398 -0.129212 0.179523
v 0.161413 -0.129239 0.179509
v 0.161398 -0.129256 0.177036
v 0.178351 -0.129258 0.177036
v 0.178353 -0.129227 0.179519
v 0.161392 -0.128595 0.179519
v 0.178360 -0.128626 0.177021
v 0.161383 -0.128571 0.179534
v 0.161386 -0.128608 0.177020
v 0.178395 -0.128602 0.177033
v 0.178362 -0.128579 0.179521
v 0.159923 -0.127745 0.175485
v 0.179815 -0.127667 0.181904
v 0.159432 -0.127672 0.181538
v 0.159431 -0.127741 0.175845
v 0.180321 -0.127740 0.175852
v 0.180320 -0.127672 0.181547
v 0.179832 -0.127745 0.175485
v 0.159905 -0.127667 0.181903
v 0.159473 -0.127744 0.175566
v 0.180237 -0.127744 0.175526
v 0.159513 -0.127668 0.181862
v 0.180279 -0.127668 0.181821
v 0.159842 -0.128587 0.175503
v 0.159440 -0.128513 0.181590
v 0.180135 -0.128534 0.181803
v 0.159636 -0.128610 0.175570
v 0.180173 -0.128606 0.175541
v 0.159511 -0.128532 0.181819
v 0.159484 -0.128605 0.175635
v 0.180218 -0.128609 0.175679
v 0.180288 -0.128530 0.181717
v 0.159496 -0.128568 0.175559
v 0.180255 -0.128568 0.175559
v 0.159496 -0.128490 0.181849
v 0.180256 -0.128491 0.181848
v 0.180299 -0.128595 0.175867
v 0.179825 -0.128523 0.181892
v 0.159456 -0.128597 0.175844
v 0.179864 -0.128601 0.175514
v 0.159914 -0.128522 0.181892
v 0.159516 -0.128599 0.175571
v 0.180239 -0.128599 0.175574
v 0.180241 -0.128523 0.181832
v 0.159615 -0.128536 0.181705
v 0.177988 -0.128593 0.179582
v 0.178438 -0.128570 0.179348
v 0.178469 -0.128561 0.179638
v 0.161360 -0.129228 0.179458
v 0.161459 -0.129241 0.176995
v 0.178390 -0.129257 0.177099
v 0.178290 -0.129227 0.179557
v 0.161351 -0.128577 0.179461
v 0.161450 -0.128607 0.176980
v 0.178398 -0.128624 0.177085
v 0.178297 -0.128594 0.179557
v 0.178309 -0.128569 0.179571
v 0.161463 -0.129227 0.179558
v 0.161360 -0.129257 0.177101
v 0.178291 -0.129241 0.176995
v 0.178392 -0.129227 0.179457
v 0.161455 -0.128594 0.179557
v 0.161348 -0.128607 0.177084
v 0.178299 -0.128607 0.176980
v 0.178402 -0.128578 0.179458
v 0.161447 -0.128569 0.179572
v 0.159433 -0.128558 0.176237
v 0.159919 -0.128604 0.175520
v 0.159570 -0.128524 0.181867
v 0.159578 -0.128600 0.175535
v 0.180276 -0.128598 0.175639
v 0.159465 -0.128529 0.181741
v 0.180175 -0.128524 0.181868
v 0.179892 -0.128495 0.181907
v 0.159458 -0.128566 0.175624
v 0.180191 -0.128567 0.175520
v 0.159560 -0.128492 0.181886
v 0.180294 -0.128504 0.181783
v 0.159559 -0.128567 0.175521
v 0.180293 -0.128566 0.175621
v 0.159458 -0.128490 0.181786
v 0.180194 -0.128491 0.181886
v 0.159557 -0.127745 0.175509
v 0.180297 -0.127744 0.175610
v 0.159455 -0.127668 0.181778
v 0.180195 -0.127667 0.181879
vn 0.1464 -0.9887 -0.0313
vn -0.1253 -0.9918 0.0233
vn -0.2274 -0.9673 -0.1122
vn -0.0129 -0.9995 0.0288
vn -0.0294 -0.9933 -0.1118
vn -0.0334 -0.9992 -0.0227
vn 0.0261 -0.9962 0.0830
vn 0.0191 -0.9998 -0.0025
vn 0.0843 -0.9963 -0.0138
vn -0.9710 -0.2220 -0.0883
vn -0.9650 -0.2441 0.0957
vn -0.9643 -0.2548 -0.0723
vn -0.9694 -0.2319 0.0806
vn 0.0508 -0.2530 -0.9661
vn -0.0325 -0.3638 -0.9309
vn 0.0404 -0.2291 -0.9726
vn -0.0336 -0.4529 -0.8909
vn 0.0375 -0.2436 0.9691
vn -0.0026 -0.3502 0.9367
vn 0.0306 -0.3914 0.9197
vn -0.6163 -0.7872 -0.0200
vn 0.5757 -0.8162 0.0492
vn 0.6436 -0.7640 -0.0469
vn 0.9153 -0.4028 -0.0003
vn 0.2408 -0.9561 0.1673
vn -0.0377 -0.5979 0.8007
vn -0.5805 -0.8118 0.0637
vn 0.0119 -0.7908 -0.6120
vn 0.0073 -0.8023 -0.5969
vn 0.9720 -0.2146 -0.0963
vn -0.5602 -0.8254 0.0695
vn -0.9068 -0.4164 -0.0659
vn 0.0015 -0.7972 -0.6037
vn -0.0376 -0.2488 0.9678
vn 0.0380 -0.8238 0.5656
vn -0.0296 -0.8045 0.5932
vn -0.0395 -0.6586 -0.7514
vn 0.4453 -0.8934 0.0592
vn 0.0174 -0.9993 0.0338
vn 0.9246 -0.3718 0.0833
vn 0.5916 -0.8034 -0.0668
vn 0.1157 -0.8664 -0.4858
vn -0.1310 -0.8496 -0.5108
vn 0.0405 -0.9079 0.4172
vn -0.0411 -0.9764 0.2121
vn 0.9651 -0.2306 0.1241
vn -0.2863 -0.3000 0.9100
vn -0.6715 -0.2672 0.6911
vn -0.2393 -0.5306 0.8131
vn -0.7981 -0.5261 -0.2937
vn -0.7388 -0.6392 -0.2136
vn -0.5961 -0.5351 -0.5987
vn -0.4988 -0.7188 -0.4843
vn 0.3070 -0.2832 -0.9086
vn 0.2072 -0.7030 -0.6804
vn 0.8125 -0.4864 0.3213
vn 0.6969 -0.6786 0.2320
vn -0.7680 -0.5652 0.3014
vn -0.3338 -0.8726 0.3565
vn 0.5896 -0.5929 -0.5485
vn 0.2553 -0.5790 0.7743
vn -0.3015 -0.2736 -0.9134
vn -0.6715 -0.6969 0.2519
vn 0.9648 -0.2521 -0.0744
vn 0.3418 -0.9168 -0.2065
vn 0.2849 -0.2939 0.9124
vn 0.4729 -0.7097 0.5223
vn 0.1383 -0.9086 0.3941
vn -0.6808 -0.2829 0.6756
vn -0.1945 -0.6688 -0.7175
vn 0.9382 -0.1989 -0.2831
vn 0.7380 -0.6048 -0.2992
vn 0.6464 -0.2253 -0.7290
vn 0.5796 -0.5270 0.6215
vn -0.1448 -0.8848 0.4428
vn -0.2784 -0.9063 0.3178
vn -0.0041 -0.2602 0.9655
vn 0.0328 0.0096 0.9994
vn -0.0475 0.0139 0.9988
vn 0.0293 -0.2431 -0.9696
vn -0.0330 -0.0154 -0.9993
vn 0.0456 -0.0091 -0.9989
vn -0.9822 -0.1879 0.0051
vn -0.9988 -0.0033 0.0495
vn -0.9975 0.0009 -0.0704
vn 0.9996 -0.0280 0.0056
vn 0.9988 -0.0047 -0.0485
vn 0.9974 0.0032 0.0715
vn -0.9035 -0.3075 -0.2985
vn -0.8431 -0.0035 -0.5377
vn 0.2976 -0.2793 -0.9129
vn 0.5081 -0.0026 -0.8613
vn -0.2914 -0.2905 0.9114
vn -0.5175 0.0141 0.8555
vn 0.8633 -0.3892 0.3215
vn 0.8432 0.0086 0.5376
vn -0.3143 -0.2599 -0.9131
vn -0.3264 -0.0144 -0.9451
vn -0.0346 -0.4300 -0.9022
vn 0.9041 -0.2896 -0.3141
vn 0.9395 -0.0086 -0.3424
vn 0.9590 -0.2793 -0.0470
vn -0.9052 -0.2496 0.3439
vn -0.9394 -0.0003 0.3427
vn -0.8901 -0.4543 0.0377
vn 0.3040 -0.2827 0.9098
vn 0.3276 0.0079 0.9448
vn 0.0499 -0.2892 0.9560
vn -0.0145 -0.7966 0.6043
vn 0.0099 -0.8229 0.5682
vn 0.0191 -0.7928 -0.6091
vn 0.1539 -0.8432 -0.5150
vn -0.5968 -0.8023 -0.0129
vn -0.3682 -0.8665 0.3371
vn -0.6241 -0.7699 0.1336
vn -0.4788 -0.8641 -0.1555
vn 0.5369 -0.8374 0.1028
vn 0.5584 -0.8294 -0.0177
vn 0.4101 -0.8196 -0.4000
vn -0.1507 -0.8085 0.5689
vn 0.9106 -0.4120 0.0333
vn 0.3885 -0.8273 0.4058
vn -0.1690 -0.7842 -0.5970
vn -0.4048 -0.8138 -0.4168
vn 0.0035 -0.8938 -0.4484
vn 0.5580 -0.8144 -0.1591
vn 0.1472 -0.8146 0.5610
vn -0.0049 -0.2008 -0.9796
vn -0.9572 -0.2893 0.0046
vn -0.9618 -0.2668 -0.0611
vn -0.6861 -0.2979 -0.6637
vn 0.6697 -0.3018 -0.6785
vn -0.0528 -0.2654 0.9627
vn -0.6667 -0.2975 0.6833
vn 0.6708 -0.2691 0.6911
vn -0.0087 -0.9997 0.0212
vn 0.0017 -0.0121 0.9999
vt 0.624690 0.689046
vt 0.582289 0.723715
vt 0.582482 0.687777
vt 0.582525 0.726471
vt 0.582594 0.686174
vt 0.582533 0.687254
vt 0.624468 0.727847
vt 0.624478 0.687536
vt 0.624620 0.686848
vt 0.582281 0.690022
vt 0.582281 0.724051
vt 0.582282 0.689980
vt 0.582281 0.724031
vt 0.623741 0.685959
vt 0.583340 0.685950
vt 0.623714 0.685954
vt 0.583268 0.685964
vt 0.623666 0.728116
vt 0.584453 0.728288
vt 0.623757 0.728100
vt 0.582283 0.689958
vt 0.624746 0.724200
vt 0.624749 0.689978
vt 0.624772 0.722553
vt 0.624535 0.726368
vt 0.583195 0.728087
vt 0.582283 0.724119
vt 0.623697 0.685954
vt 0.584454 0.685774
vt 0.624750 0.690032
vt 0.582280 0.723984
vt 0.582283 0.689862
vt 0.623679 0.685948
vt 0.583323 0.728109
vt 0.623691 0.728112
vt 0.583313 0.728109
vt 0.583325 0.685951
vt 0.624747 0.724155
vt 0.624494 0.726493
vt 0.624748 0.724126
vt 0.624749 0.689919
vt 0.624382 0.686605
vt 0.582648 0.686595
vt 0.623854 0.728083
vt 0.582701 0.727553
vt 0.624741 0.724588
vt 0.582638 0.727466
vt 0.582512 0.726635
vt 0.582638 0.727458
vt 0.582385 0.688265
vt 0.582385 0.688229
vt 0.582512 0.687434
vt 0.582511 0.687411
vt 0.624393 0.686601
vt 0.624394 0.686593
vt 0.624646 0.725798
vt 0.624646 0.725833
vt 0.582385 0.725798
vt 0.582508 0.726600
vt 0.624519 0.687435
vt 0.624393 0.727458
vt 0.582638 0.686601
vt 0.582385 0.725834
vt 0.624749 0.690010
vt 0.624573 0.687746
vt 0.624393 0.727466
vt 0.624520 0.726651
vt 0.624394 0.727474
vt 0.582511 0.726645
vt 0.582637 0.686592
vt 0.624646 0.688240
vt 0.624646 0.688264
vt 0.624520 0.687418
vt 0.624519 0.726628
vt 0.582637 0.727473
vt 0.582511 0.726657
vt 0.584409 0.728288
vt 0.623732 0.728218
vt 0.583238 0.728214
vt 0.623779 0.685848
vt 0.583276 0.685846
vt 0.623766 0.685846
vt 0.582259 0.723406
vt 0.582282 0.725823
vt 0.582283 0.688212
vt 0.624772 0.723540
vt 0.624750 0.688256
vt 0.624749 0.725883
vt 0.582362 0.686792
vt 0.582428 0.686568
vt 0.624462 0.686114
vt 0.624525 0.686316
vt 0.582569 0.727949
vt 0.582504 0.727740
vt 0.624669 0.727269
vt 0.624605 0.727486
vt 0.582569 0.686114
vt 0.582569 0.686111
vt 0.583155 0.685855
vt 0.624669 0.686792
vt 0.624669 0.686783
vt 0.624750 0.688202
vt 0.582362 0.727272
vt 0.582362 0.727279
vt 0.582283 0.725972
vt 0.624462 0.727949
vt 0.624462 0.727952
vt 0.623877 0.728208
vt 0.583220 0.728212
vt 0.623804 0.728212
vt 0.623847 0.685853
vt 0.624458 0.686118
vt 0.582283 0.688108
vt 0.582476 0.727542
vt 0.582354 0.727108
vt 0.582369 0.686808
vt 0.624685 0.726990
vt 0.624749 0.688153
vt 0.624565 0.686462
vt 0.582570 0.727946
vt 0.624748 0.726069
vt 0.624565 0.727604
vt 0.582570 0.686118
vt 0.582466 0.686462
vt 0.583209 0.685852
vt 0.624669 0.686806
vt 0.624461 0.727946
vt 0.584407 0.685774
vt 0.582259 0.690481
vt 0.582285 0.687891
vt 0.582466 0.686453
vt 0.624565 0.686453
vt 0.583081 0.728203
vt 0.582466 0.727611
vt 0.624565 0.727611
vt 0.582428 0.727244
vt 0.622622 0.728288
s 1
f 30/1/1 27/2/2 31/3/3
f 23/4/4 78/5/5 51/6/6
f 77/7/7 22/8/8 82/9/9
f 1/10/10 45/11/11 10/12/12
f 45/11/11 1/10/10 36/13/13
f 2/14/14 13/15/15 11/16/16
f 13/15/15 2/14/14 37/17/17
f 97/18/18 19/19/19 39/20/20
f 42/21/21 31/3/3 27/2/2
f 44/22/22 7/23/23 29/24/24
f 7/23/23 28/25/25 30/1/1
f 41/26/26 39/20/20 19/19/19
f 36/13/13 42/21/21 6/27/27
f 37/17/17 43/28/28 20/29/29
f 38/30/30 29/24/24 7/23/23
f 10/12/12 12/31/31 48/32/32
f 11/16/16 13/15/15 49/33/33
f 9/34/34 15/35/35 47/36/36
f 49/33/33 21/37/37 22/8/8
f 21/37/37 49/33/33 13/15/15
f 98/38/38 22/8/8 99/39/39
f 98/38/38 50/40/40 14/41/41
f 47/36/36 99/39/39 23/4/4
f 9/34/34 41/26/26 19/19/19
f 5/42/42 30/1/1 31/3/3
f 31/3/3 40/43/43 5/42/42
f 28/25/25 8/44/44 4/45/45
f 20/29/29 5/42/42 40/43/43
f 50/40/40 3/46/46 29/24/24
f 113/47/47 52/48/48 109/49/49
f 9/34/34 109/49/49 41/26/26
f 110/50/50 10/12/12 114/51/51
f 54/52/52 114/51/51 60/53/53
f 111/54/54 11/16/16 115/55/55
f 112/56/56 50/40/40 116/57/57
f 100/58/58 27/2/2 53/59/59
f 55/60/60 30/1/1 5/42/42
f 103/61/61 8/44/44 28/25/25
f 52/48/48 100/58/58 53/59/59
f 101/62/62 37/17/17 40/43/43
f 45/11/11 104/63/63 12/31/31
f 46/64/64 61/65/65 14/41/41
f 107/66/66 62/67/67 108/68/68
f 97/18/18 108/68/68 15/35/35
f 100/58/58 57/69/69 104/63/63
f 36/13/13 104/63/63 45/11/11
f 57/69/69 100/58/58 52/48/48
f 101/62/62 60/53/53 105/70/70
f 37/17/17 105/70/70 13/15/15
f 106/71/71 38/30/30 102/72/72
f 58/73/73 102/72/72 55/60/60
f 39/20/20 107/66/66 97/18/18
f 107/66/66 39/20/20 103/61/61
f 62/67/67 103/61/61 56/74/74
f 109/49/49 53/59/59 4/45/45
f 1/10/10 110/50/50 42/21/21
f 111/54/54 55/60/60 5/42/42
f 2/14/14 5/42/42 43/28/28
f 3/46/46 112/56/56 44/22/22
f 113/47/47 47/36/36 117/75/75
f 57/69/69 117/75/75 59/76/76
f 58/73/73 115/55/55 61/65/65
f 114/51/51 48/32/32 51/6/6
f 98/38/38 116/57/57 50/40/40
f 17/77/77 64/78/78 70/79/79
f 33/80/80 63/81/81 69/82/82
f 24/83/83 65/84/84 66/85/85
f 26/86/86 67/87/87 68/88/88
f 126/89/89 66/85/85 71/90/90
f 127/91/91 69/82/82 72/92/92
f 128/93/93 70/79/79 73/94/94
f 129/95/95 68/88/88 74/96/96
f 130/97/97 71/90/90 134/98/98
f 75/99/99 134/98/98 63/81/81
f 131/100/100 72/92/92 135/101/101
f 25/102/102 135/101/101 67/87/87
f 132/103/103 73/94/94 136/104/104
f 76/105/105 136/104/104 65/84/84
f 133/106/106 74/96/96 137/107/107
f 125/108/108 137/107/107 64/78/78
f 92/109/109 77/7/7 89/110/110
f 78/5/5 91/111/111 79/112/112
f 90/113/113 80/114/114 123/115/115
f 80/114/114 90/113/113 81/116/116
f 83/117/117 82/9/9 88/118/118
f 79/112/112 94/119/119 82/9/9
f 120/120/120 80/114/114 92/109/109
f 129/95/95 83/117/117 35/121/121
f 83/117/117 95/122/122 77/7/7
f 121/123/123 81/116/116 93/124/124
f 121/123/123 75/99/99 119/125/125
f 122/126/126 82/9/9 94/119/119
f 124/127/127 77/7/7 95/122/122
f 17/77/77 89/110/110 125/108/108
f 33/80/80 75/99/99 18/128/128
f 75/99/99 33/80/80 91/111/111
f 76/105/105 118/129/129 90/113/113
f 25/102/102 26/86/86 35/121/121
f 126/89/89 90/113/113 32/130/130
f 81/116/116 84/131/131 93/124/124
f 127/91/91 91/111/111 33/80/80
f 79/112/112 85/132/132 94/119/119
f 128/93/93 92/109/109 34/133/133
f 120/120/120 86/134/134 80/114/114
f 129/95/95 87/135/135 95/122/122
f 130/97/97 93/124/124 84/131/131
f 131/100/100 94/119/119 85/132/132
f 122/126/126 25/102/102 88/118/118
f 132/103/103 80/114/114 86/134/134
f 133/106/106 95/122/122 87/135/135
f 124/127/127 125/108/108 89/110/110
f 78/5/5 79/112/112 82/9/9
f 99/39/39 96/136/136 23/4/4
f 80/114/114 96/136/136 77/7/7
f 82/9/9 22/8/8 51/6/6
f 51/6/6 78/5/5 82/9/9
f 51/6/6 48/32/32 23/4/4
f 78/5/5 23/4/4 96/136/136
f 50/40/40 38/30/30 46/64/64
f 38/30/30 50/40/40 29/24/24
f 97/18/18 9/34/34 19/19/19
f 6/27/27 42/21/21 27/2/2
f 20/29/29 43/28/28 5/42/42
f 7/23/23 44/22/22 28/25/25
f 41/26/26 8/44/44 39/20/20
f 8/44/44 41/26/26 4/45/45
f 36/13/13 1/10/10 42/21/21
f 37/17/17 2/14/14 43/28/28
f 10/12/12 45/11/11 12/31/31
f 50/40/40 46/64/64 14/41/41
f 9/34/34 97/18/18 15/35/35
f 48/32/32 12/31/31 23/4/4
f 98/38/38 14/41/41 22/8/8
f 47/36/36 15/35/35 99/39/39
f 20/29/29 40/43/43 37/17/17
f 29/24/24 3/46/46 44/22/22
f 4/45/45 27/2/2 28/25/25
f 113/47/47 57/69/69 52/48/48
f 9/34/34 113/47/47 109/49/49
f 110/50/50 1/10/10 10/12/12
f 54/52/52 110/50/50 114/51/51
f 111/54/54 2/14/14 11/16/16
f 58/73/73 111/54/54 115/55/55
f 111/54/54 58/73/73 55/60/60
f 112/56/56 3/46/46 50/40/40
f 62/67/67 112/56/56 116/57/57
f 112/56/56 62/67/67 56/74/74
f 100/58/58 6/27/27 27/2/2
f 54/52/52 40/43/43 31/3/3
f 102/72/72 7/23/23 30/1/1
f 55/60/60 102/72/72 30/1/1
f 56/74/74 103/61/61 28/25/25
f 100/58/58 36/13/13 6/27/27
f 54/52/52 101/62/62 40/43/43
f 102/72/72 38/30/30 7/23/23
f 103/61/61 39/20/20 8/44/44
f 104/63/63 57/69/69 59/76/76
f 106/71/71 58/73/73 61/65/65
f 46/64/64 106/71/71 61/65/65
f 97/18/18 107/66/66 108/68/68
f 104/63/63 59/76/76 23/4/4
f 12/31/31 104/63/63 23/4/4
f 105/70/70 21/37/37 13/15/15
f 105/70/70 60/53/53 51/6/6
f 21/37/37 105/70/70 51/6/6
f 14/41/41 61/65/65 22/8/8
f 108/68/68 62/67/67 99/39/39
f 15/35/35 108/68/68 99/39/39
f 36/13/13 100/58/58 104/63/63
f 101/62/62 54/52/52 60/53/53
f 37/17/17 101/62/62 105/70/70
f 106/71/71 46/64/64 38/30/30
f 58/73/73 106/71/71 102/72/72
f 62/67/67 107/66/66 103/61/61
f 27/2/2 4/45/45 53/59/59
f 41/26/26 109/49/49 4/45/45
f 110/50/50 54/52/52 31/3/3
f 42/21/21 110/50/50 31/3/3
f 112/56/56 56/74/74 28/25/25
f 44/22/22 112/56/56 28/25/25
f 109/49/49 52/48/48 53/59/59
f 2/14/14 111/54/54 5/42/42
f 113/47/47 9/34/34 47/36/36
f 57/69/69 113/47/47 117/75/75
f 114/51/51 10/12/12 48/32/32
f 115/55/55 11/16/16 49/33/33
f 117/75/75 47/36/36 23/4/4
f 59/76/76 117/75/75 23/4/4
f 60/53/53 114/51/51 51/6/6
f 115/55/55 49/33/33 22/8/8
f 61/65/65 115/55/55 22/8/8
f 116/57/57 98/38/38 99/39/39
f 62/67/67 116/57/57 99/39/39
f 27/2/2 30/1/1 28/25/25
f 24/83/83 76/105/105 65/84/84
f 16/137/137 125/108/108 64/78/78
f 18/128/128 75/99/99 63/81/81
f 17/77/77 16/137/137 64/78/78
f 34/133/133 17/77/77 70/79/79
f 33/80/80 18/128/128 63/81/81
f 118/129/129 24/83/83 66/85/85
f 32/130/130 118/129/129 66/85/85
f 26/86/86 25/102/102 67/87/87
f 35/121/121 26/86/86 68/88/88
f 126/89/89 32/130/130 66/85/85
f 84/131/131 126/89/89 71/90/90
f 127/91/91 33/80/80 69/82/82
f 85/132/132 127/91/91 72/92/92
f 128/93/93 34/133/133 70/79/79
f 86/134/134 128/93/93 73/94/94
f 129/95/95 35/121/121 68/88/88
f 87/135/135 129/95/95 74/96/96
f 130/97/97 84/131/131 71/90/90
f 75/99/99 130/97/97 134/98/98
f 131/100/100 85/132/132 72/92/92
f 25/102/102 131/100/100 135/101/101
f 132/103/103 86/134/134 73/94/94
f 76/105/105 132/103/103 136/104/104
f 133/106/106 87/135/135 74/96/96
f 125/108/108 133/106/106 137/107/107
f 92/109/109 80/114/114 77/7/7
f 119/125/125 75/99/99 91/111/111
f 78/5/5 119/125/125 91/111/111
f 76/105/105 90/113/113 123/115/115
f 83/117/117 88/118/118 35/121/121
f 83/117/117 129/95/95 95/122/122
f 121/123/123 78/5/5 81/116/116
f 78/5/5 121/123/123 119/125/125
f 82/9/9 122/126/126 88/118/118
f 77/7/7 124/127/127 89/110/110
f 17/77/77 92/109/109 89/110/110
f 16/137/137 17/77/77 125/108/108
f 92/109/109 17/77/77 34/133/133
f 76/105/105 24/83/83 118/129/129
f 90/113/113 118/129/129 32/130/130
f 88/118/118 25/102/102 35/121/121
f 126/89/89 81/116/116 90/113/113
f 81/116/116 126/89/89 84/131/131
f 127/91/91 79/112/112 91/111/111
f 79/112/112 127/91/91 85/132/132
f 128/93/93 120/120/120 92/109/109
f 120/120/120 128/93/93 86/134/134
f 130/97/97 121/123/123 93/124/124
f 121/123/123 130/97/97 75/99/99
f 131/100/100 122/126/126 94/119/119
f 122/126/126 131/100/100 25/102/102
f 132/103/103 123/115/115 80/114/114
f 123/115/115 132/103/103 76/105/105
f 133/106/106 124/127/127 95/122/122
f 124/127/127 133/106/106 125/108/108
f 80/114/114 78/5/5 96/136/136
f 78/5/5 80/114/114 81/116/116
f 51/6/6 22/8/8 21/37/37
f 99/39/39 22/8/8 77/7/7
f 77/7/7 82/9/9 83/117/117
f 99/39/39 77/7/7 96/136/136
