# Blender 4.0.0
# www.blender.org
mtllib Microwave011_Button12.mtl
o Microwave011_Button12
v 0.180949 -0.128457 0.065571
v 0.180830 -0.128569 0.071703
v 0.182594 -0.128530 0.069485
v 0.199803 -0.128487 0.067055
v 0.183020 -0.129182 0.069569
v 0.182667 -0.129136 0.067182
v 0.199398 -0.129039 0.066967
v 0.199741 -0.129177 0.069355
v 0.182791 -0.129166 0.067051
v 0.182703 -0.129168 0.067208
v 0.199321 -0.129165 0.067007
v 0.199706 -0.129207 0.069350
v 0.182670 -0.129195 0.069323
v 0.183013 -0.129147 0.066971
v 0.199733 -0.129155 0.067189
v 0.199390 -0.129193 0.069566
v 0.183012 -0.128565 0.069586
v 0.182661 -0.128520 0.067190
v 0.199395 -0.128515 0.066974
v 0.199746 -0.128559 0.069370
v 0.182656 -0.128542 0.069379
v 0.182984 -0.128491 0.066964
v 0.199754 -0.128502 0.067183
v 0.199404 -0.128546 0.069595
v 0.181829 -0.128402 0.071928
v 0.181794 -0.128262 0.065509
v 0.200570 -0.128247 0.065509
v 0.183508 -0.128516 0.066967
v 0.198841 -0.128516 0.066967
v 0.198856 -0.128670 0.069589
v 0.183559 -0.128563 0.069593
v 0.183029 -0.129209 0.069548
v 0.183496 -0.129135 0.066961
v 0.198802 -0.129134 0.066961
v 0.198881 -0.129183 0.069576
v 0.183574 -0.129183 0.069576
v 0.183550 -0.129151 0.066968
v 0.198857 -0.129151 0.066968
v 0.198858 -0.129199 0.069569
v 0.183550 -0.129199 0.069569
v 0.182741 -0.128485 0.066930
v 0.199688 -0.128535 0.069641
v 0.182993 -0.128535 0.069655
v 0.183531 -0.128498 0.066962
v 0.198876 -0.128498 0.066962
v 0.198874 -0.128546 0.069601
v 0.183532 -0.128546 0.069601
v 0.180759 -0.128415 0.071206
v 0.180759 -0.128306 0.066241
v 0.201649 -0.128292 0.066221
v 0.201649 -0.128397 0.071198
v 0.182655 -0.128522 0.067328
v 0.199750 -0.128608 0.067321
v 0.182706 -0.129201 0.068951
v 0.182659 -0.129058 0.067312
v 0.199748 -0.129057 0.067312
v 0.199746 -0.129174 0.069216
v 0.182668 -0.129158 0.067326
v 0.199740 -0.129157 0.067322
v 0.199740 -0.129192 0.069223
v 0.182649 -0.128540 0.069249
v 0.199760 -0.128504 0.067323
v 0.199759 -0.128539 0.069239
v 0.180765 -0.128281 0.065823
v 0.201251 -0.128254 0.065515
v 0.181159 -0.128404 0.071921
v 0.201643 -0.128374 0.071614
v 0.182602 -0.128488 0.067094
v 0.199649 -0.128485 0.066937
v 0.199810 -0.128530 0.069470
v 0.182667 -0.129176 0.069356
v 0.183014 -0.129042 0.066967
v 0.199740 -0.129138 0.067180
v 0.199394 -0.129098 0.069573
v 0.182731 -0.129209 0.069394
v 0.183132 -0.129164 0.067000
v 0.199704 -0.129167 0.067187
v 0.199375 -0.129208 0.069550
v 0.183022 -0.129198 0.069562
v 0.182674 -0.129155 0.067189
v 0.199383 -0.129147 0.066971
v 0.199733 -0.129195 0.069348
v 0.182662 -0.128559 0.069373
v 0.183006 -0.128515 0.066974
v 0.199745 -0.128520 0.067188
v 0.199402 -0.128562 0.069587
v 0.183004 -0.128546 0.069595
v 0.182650 -0.128502 0.067210
v 0.199400 -0.128491 0.066963
v 0.199752 -0.128542 0.069379
v 0.182659 -0.128534 0.069604
v 0.182723 -0.129097 0.069516
v 0.182724 -0.129132 0.067024
v 0.199683 -0.129135 0.067024
v 0.199684 -0.129181 0.069512
v 0.182759 -0.129170 0.067268
v 0.199652 -0.129170 0.067247
v 0.199575 -0.129208 0.069372
v 0.182819 -0.129211 0.069495
v 0.199612 -0.129165 0.067035
v 0.199618 -0.129211 0.069486
v 0.182728 -0.129191 0.069509
v 0.182735 -0.129158 0.067036
v 0.199671 -0.129158 0.067034
v 0.199673 -0.129203 0.069499
v 0.182719 -0.128562 0.069530
v 0.182718 -0.128516 0.067031
v 0.199688 -0.128517 0.067031
v 0.199688 -0.128563 0.069529
v 0.182710 -0.128539 0.069544
v 0.182705 -0.128493 0.067022
v 0.199701 -0.128493 0.067019
v 0.199700 -0.128539 0.069542
v 0.181155 -0.127591 0.065527
v 0.201644 -0.127597 0.065832
v 0.180764 -0.127703 0.071629
v 0.201252 -0.127709 0.071935
v 0.200593 -0.127709 0.071941
v 0.181814 -0.127709 0.071941
v 0.181815 -0.127591 0.065521
v 0.200593 -0.127591 0.065521
v 0.180758 -0.127679 0.070347
v 0.180758 -0.127605 0.066271
v 0.201650 -0.127605 0.066286
v 0.201650 -0.127679 0.070347
v 0.180764 -0.127597 0.065832
v 0.201252 -0.127591 0.065527
v 0.181155 -0.127709 0.071935
v 0.201644 -0.127703 0.071629
v 0.180821 -0.127592 0.065584
v 0.201586 -0.127592 0.065584
v 0.180821 -0.127707 0.071878
v 0.201586 -0.127707 0.071878
v 0.181154 -0.128264 0.065515
v 0.201643 -0.128277 0.065818
v 0.180765 -0.128401 0.071617
v 0.201253 -0.128406 0.071921
v 0.201443 -0.128572 0.071838
v 0.180838 -0.128459 0.065709
v 0.201565 -0.128459 0.065670
v 0.201420 -0.128457 0.065569
v 0.181003 -0.128572 0.071839
v 0.201579 -0.128568 0.071668
v 0.180822 -0.128281 0.065572
v 0.201585 -0.128296 0.065572
v 0.180822 -0.128405 0.071864
v 0.201586 -0.128401 0.071863
v 0.181167 -0.128431 0.065518
v 0.201632 -0.128446 0.065866
v 0.180771 -0.128545 0.071599
v 0.201241 -0.128556 0.071905
v 0.200560 -0.128556 0.071911
v 0.181794 -0.128556 0.071911
v 0.181850 -0.128439 0.065517
v 0.200615 -0.128439 0.065517
v 0.180771 -0.128543 0.071186
v 0.180774 -0.128451 0.066237
v 0.201636 -0.128544 0.071222
v 0.180779 -0.128445 0.065828
v 0.201246 -0.128432 0.065518
v 0.181167 -0.128556 0.071905
v 0.201632 -0.128551 0.071600
v 0.180836 -0.128440 0.065580
v 0.201572 -0.128440 0.065580
v 0.180833 -0.128555 0.071848
v 0.201575 -0.128555 0.071848
v 0.180929 -0.128570 0.071661
v 0.181654 -0.128554 0.070762
v 0.181221 -0.128464 0.065860
v 0.201074 -0.128465 0.065939
v 0.200278 -0.128477 0.066591
v 0.200657 -0.128553 0.070768
v 0.182483 -0.128489 0.067255
v 0.181589 -0.128514 0.068612
v 0.201144 -0.128566 0.071439
v 0.199847 -0.128482 0.066871
v 0.182610 -0.128483 0.066882
v 0.199866 -0.128535 0.069749
v 0.182575 -0.128535 0.069758
v 0.199665 -0.129190 0.068311
v 0.183100 -0.129159 0.066979
v 0.198849 -0.129207 0.069559
v 0.182662 -0.129143 0.067313
v 0.182656 -0.128556 0.069240
v 0.199754 -0.128519 0.067320
v 0.182641 -0.128533 0.069339
v 0.198886 -0.128489 0.066953
v 0.199766 -0.128534 0.069352
v 0.199341 -0.128538 0.069611
v 0.199302 -0.129159 0.066980
v 0.183559 -0.129207 0.069559
v 0.198870 -0.128560 0.069594
v 0.183521 -0.128489 0.066953
v 0.183048 -0.128538 0.069610
v 0.182679 -0.129164 0.067246
v 0.182680 -0.129202 0.069315
v 0.199728 -0.129202 0.069305
v 0.199729 -0.129164 0.067239
v 0.182661 -0.129174 0.069219
v 0.199745 -0.129143 0.067313
v 0.199752 -0.128557 0.069232
v 0.182639 -0.128494 0.067209
v 0.199770 -0.128494 0.067221
v 0.182685 -0.129050 0.067088
v 0.199621 -0.129054 0.066986
v 0.182697 -0.129201 0.069439
v 0.182797 -0.129157 0.066997
v 0.199709 -0.129159 0.067096
v 0.199610 -0.129203 0.069539
v 0.182686 -0.129178 0.069450
v 0.182787 -0.129133 0.066987
v 0.199722 -0.129135 0.067087
v 0.199620 -0.129181 0.069550
v 0.182681 -0.128559 0.069468
v 0.182782 -0.128517 0.066994
v 0.199727 -0.128516 0.067093
v 0.199625 -0.128564 0.069567
v 0.182672 -0.128538 0.069481
v 0.182768 -0.128492 0.066983
v 0.199739 -0.128495 0.067085
v 0.199637 -0.128540 0.069581
v 0.182799 -0.129203 0.069539
v 0.182703 -0.129162 0.067104
v 0.199603 -0.129160 0.067003
v 0.199711 -0.129201 0.069437
v 0.182789 -0.129181 0.069550
v 0.182689 -0.129148 0.067092
v 0.199615 -0.129147 0.066990
v 0.199721 -0.129181 0.069448
v 0.182783 -0.128563 0.069567
v 0.182680 -0.128518 0.067095
v 0.199625 -0.128515 0.066993
v 0.199726 -0.128562 0.069465
v 0.182775 -0.128540 0.069582
v 0.182668 -0.128495 0.067088
v 0.199636 -0.128492 0.066983
v 0.199738 -0.128538 0.069477
v 0.180757 -0.127696 0.071213
v 0.200586 -0.128403 0.071928
v 0.180784 -0.128271 0.065636
v 0.201522 -0.128293 0.065534
v 0.180886 -0.128406 0.071902
v 0.201624 -0.128376 0.071801
v 0.180885 -0.128296 0.065534
v 0.201624 -0.128273 0.065635
v 0.180784 -0.128403 0.071801
v 0.201523 -0.128405 0.071902
v 0.180785 -0.128560 0.071524
v 0.201150 -0.128567 0.071894
v 0.201616 -0.128456 0.065860
v 0.181249 -0.128450 0.065531
v 0.181251 -0.128567 0.071894
v 0.201167 -0.128450 0.065531
v 0.180791 -0.128456 0.065864
v 0.201623 -0.128561 0.071551
v 0.180812 -0.128453 0.065654
v 0.201494 -0.128451 0.065553
v 0.180908 -0.128567 0.071872
v 0.201601 -0.128565 0.071770
v 0.180914 -0.128451 0.065553
v 0.201595 -0.128453 0.065654
v 0.180806 -0.128565 0.071770
v 0.201500 -0.128567 0.071872
v 0.201643 -0.128433 0.066185
v 0.181833 -0.128420 0.065510
v 0.200576 -0.128538 0.071920
v 0.181822 -0.128538 0.071920
v 0.200581 -0.128420 0.065510
v 0.180763 -0.128525 0.071201
v 0.180764 -0.128434 0.066222
v 0.201645 -0.128526 0.071226
v 0.180789 -0.128423 0.065637
v 0.201517 -0.128421 0.065535
v 0.180889 -0.128538 0.071895
v 0.201620 -0.128536 0.071793
v 0.180891 -0.128421 0.065535
v 0.201619 -0.128423 0.065637
v 0.180788 -0.128536 0.071793
v 0.201518 -0.128538 0.071895
v 0.201450 -0.128460 0.065633
v 0.201494 -0.128569 0.071621
v 0.180951 -0.128460 0.065637
v 0.182741 -0.129206 0.069495
v 0.180758 -0.127650 0.068731
v 0.201650 -0.127650 0.068731
v 0.201650 -0.127696 0.071227
v 0.180783 -0.127593 0.065647
v 0.201523 -0.127591 0.065546
v 0.180885 -0.127708 0.071916
v 0.201625 -0.127706 0.071814
v 0.180885 -0.127591 0.065546
v 0.201625 -0.127593 0.065647
v 0.180783 -0.127706 0.071814
v 0.201523 -0.127708 0.071916
v 0.201638 -0.128426 0.065821
v 0.201248 -0.128538 0.071914
v 0.180827 -0.128422 0.065573
v 0.201581 -0.128422 0.065573
v 0.180826 -0.128537 0.071857
v 0.201582 -0.128537 0.071857
v 0.180770 -0.128426 0.065821
v 0.181160 -0.128538 0.071914
v 0.201639 -0.128532 0.071609
v 0.180850 -0.128451 0.065591
v 0.201557 -0.128451 0.065591
v 0.180844 -0.128566 0.071833
v 0.201563 -0.128566 0.071833
v 0.180798 -0.128441 0.065643
v 0.201508 -0.128439 0.065542
v 0.180896 -0.128556 0.071886
v 0.201613 -0.128554 0.071784
v 0.180899 -0.128439 0.065542
v 0.201610 -0.128441 0.065643
v 0.180795 -0.128554 0.071784
v 0.201511 -0.128556 0.071886
vn -0.0958 -0.9954 0.0095
vn 0.0252 -0.9995 -0.0201
vn -0.0023 -0.9998 -0.0188
vn -0.1046 -0.9944 -0.0136
vn -0.0154 -0.9992 -0.0360
vn -0.0006 -0.9998 -0.0186
vn -0.0097 -0.9999 -0.0133
vn 0.0008 -0.9998 -0.0188
vn 0.0108 -0.9998 -0.0138
vn -0.0001 -0.9999 -0.0154
vn -0.9994 -0.0187 -0.0277
vn -0.9780 -0.2072 0.0240
vn -0.9868 -0.1607 -0.0179
vn 0.0056 -0.1921 -0.9814
vn -0.0200 -0.1342 -0.9908
vn 0.0111 -0.1179 -0.9930
vn -0.0116 -0.2058 -0.9785
vn 0.9820 -0.1860 0.0319
vn 0.9995 -0.0210 -0.0243
vn 0.9818 -0.1894 0.0139
vn 0.9995 -0.0187 -0.0252
vn 0.0066 -0.0345 0.9994
vn -0.0074 -0.2185 0.9758
vn 0.0072 -0.2239 0.9746
vn -0.0106 -0.9997 -0.0201
vn -0.1239 -0.9912 -0.0474
vn 0.1475 -0.9877 -0.0518
vn 0.1561 -0.9876 0.0162
vn 0.0151 -0.9997 -0.0190
vn -0.4964 -0.8673 -0.0385
vn -0.8216 -0.5661 0.0678
vn -0.7945 -0.6071 -0.0130
vn -0.0252 -0.8459 -0.5327
vn -0.0156 -0.6027 -0.7978
vn 0.0352 -0.6190 -0.7846
vn 0.0091 -0.9923 -0.1238
vn -0.0046 -0.9893 -0.1455
vn 0.4924 -0.8699 0.0281
vn 0.8039 -0.5947 0.0038
vn 0.8150 -0.5785 0.0339
vn 0.5118 -0.8576 -0.0506
vn -0.0016 -0.9013 0.4331
vn 0.0038 -0.6071 0.7946
vn -0.0083 -0.6034 0.7974
vn -0.9742 -0.2239 -0.0287
vn -0.9730 -0.2304 0.0124
vn -0.8078 -0.5894 0.0038
vn -0.7439 -0.6649 -0.0670
vn 0.0076 -0.5243 -0.8515
vn 0.0250 -0.4993 -0.8661
vn 0.9730 -0.2292 -0.0275
vn 0.7956 -0.6053 -0.0267
vn 0.8278 -0.5609 0.0071
vn -0.0040 -0.2405 0.9706
vn 0.0124 -0.6216 0.7833
vn -0.0108 -0.6020 0.7984
vn -0.3171 -0.9484 0.0065
vn -0.0279 -0.9996 -0.0083
vn -0.0578 -0.9978 -0.0322
vn -0.0043 -0.8834 -0.4686
vn 0.3304 -0.9438 0.0087
vn 0.0543 -0.9977 -0.0395
vn 0.0473 -0.9989 -0.0047
vn 0.3149 -0.9486 -0.0324
vn -0.0040 -0.9564 0.2921
vn 0.0210 -0.9996 0.0184
vn -0.0007 -0.9994 0.0341
vn -0.0001 -0.9998 -0.0186
vn -0.0008 -0.9998 -0.0177
vn -0.0103 -0.9999 -0.0120
vn 0.0534 -0.0146 -0.9985
vn 0.0405 -0.2088 -0.9771
vn -0.0447 -0.2064 -0.9774
vn -0.0487 -0.2274 0.9726
vn -0.0358 -0.9968 0.0710
vn 0.0242 -0.9208 0.3893
vn -0.0130 -0.9324 0.3612
vn 0.0098 -0.8457 -0.5336
vn 0.0559 -0.4405 -0.8960
vn -0.0569 -0.4306 -0.9008
vn -0.0417 -0.6333 0.7728
vn 0.0237 -0.9136 0.4059
vn 0.0567 -0.4389 0.8968
vn 0.0330 -0.7965 -0.6037
vn -0.0329 -0.8138 -0.5802
vn -0.0451 -0.2418 0.9693
vn -0.0532 -0.6454 0.7620
vn 0.0059 -0.2532 0.9674
vn 0.0492 -0.6270 0.7775
vn 0.0041 -0.8678 -0.4969
vn -0.0235 -0.9968 -0.0765
vn 0.0217 -0.9966 -0.0796
vn -0.0017 -0.9617 0.2742
vn -0.0004 -0.9999 -0.0160
vn 0.0004 -0.9998 -0.0178
vn -0.9712 -0.1984 -0.1321
vn -0.9664 -0.2156 -0.1397
vn 0.9662 -0.2252 0.1256
vn 0.9749 -0.1900 0.1159
vn 0.9638 -0.2391 -0.1177
vn 0.9646 -0.2246 -0.1381
vn -0.7594 -0.6426 -0.1014
vn -0.4004 -0.9158 0.0316
vn 0.7708 -0.6297 0.0969
vn 0.7781 -0.6187 -0.1088
vn 0.9856 -0.1667 -0.0280
vn -0.8327 -0.5410 0.1182
vn 0.7959 -0.5940 0.1176
vn 0.7920 -0.5958 -0.1330
vn -0.7048 -0.0397 0.7083
vn -0.2681 -0.3192 0.9089
vn -0.6718 -0.3272 0.6645
vn -0.2997 -0.2813 0.9116
vn -0.9314 -0.0187 -0.3634
vn -0.9058 -0.2669 -0.3291
vn -0.6767 -0.2578 -0.6897
vn -0.6723 -0.2998 -0.6768
vn 0.3112 -0.0158 -0.9502
vn 0.2769 -0.2515 -0.9274
vn 0.9021 -0.2838 0.3250
vn 0.6722 -0.3111 0.6718
vn 0.8862 -0.3104 0.3440
vn -0.2640 -0.9300 0.2556
vn -0.5735 -0.7980 0.1852
vn -0.1686 -0.7892 -0.5906
vn -0.0434 -0.9943 -0.0978
vn 0.4117 -0.8145 -0.4087
vn 0.0477 -0.9934 -0.1043
vn 0.5228 -0.8236 -0.2199
vn 0.1726 -0.7954 0.5810
vn 0.0528 -0.9964 0.0667
vn -0.8940 -0.2656 0.3609
vn -0.3163 -0.2423 -0.9172
vn -0.3987 -0.8013 -0.4460
vn -0.0491 -0.0133 -0.9987
vn 0.8908 -0.2682 -0.3668
vn 0.6744 -0.2722 -0.6864
vn 0.3138 -0.2791 0.9075
vn 0.3987 -0.8388 0.3707
vn 0.0495 -0.0482 0.9976
vn -0.8970 -0.2962 0.3281
vn -0.3081 -0.9029 0.2998
vn -0.4983 -0.8490 0.1759
vn -0.9759 -0.1953 0.0978
vn -0.2677 -0.2508 -0.9303
vn -0.3474 -0.8728 -0.3427
vn -0.1653 -0.8626 -0.4781
vn 0.8853 -0.3118 -0.3449
vn 0.3230 -0.8766 -0.3568
vn 0.4607 -0.8673 -0.1886
vn 0.2780 -0.3372 0.8995
vn 0.3242 -0.9005 0.2900
vn 0.1553 -0.9006 0.4059
vn 0.0444 -0.2539 0.9662
vn -0.0330 -0.9994 0.0109
vn -0.9658 -0.2155 0.1439
vn 0.6632 -0.3020 -0.6848
vn 0.6657 -0.3400 0.6643
vn -0.1623 -0.8010 0.5763
vn -0.6309 -0.4452 0.6354
vn -0.3777 -0.9136 -0.1507
vn -0.8336 -0.4244 -0.3537
vn 0.0992 -0.8953 -0.4342
vn 0.2664 -0.4073 -0.8736
vn 0.5479 -0.8171 0.1792
vn -0.1452 -0.8783 0.4556
vn -0.4741 -0.8547 -0.2113
vn 0.1718 -0.8519 -0.4947
vn 0.4703 -0.8649 0.1751
vn -0.3533 -0.9344 -0.0462
vn 0.0050 -0.0382 0.9993
vn 0.0399 -0.0190 0.9990
vn 0.0046 -0.0197 0.9998
vn 0.9998 -0.0201 -0.0064
vn 0.9983 -0.0003 -0.0581
vn 1.0000 -0.0013 -0.0064
vn -0.0049 0.0042 -1.0000
vn -0.0401 0.0165 -0.9991
vn -0.0045 0.0167 -0.9999
vn -0.0061 -0.0389 0.9992
vn -0.0048 -0.0197 0.9998
vn -0.0407 -0.0365 0.9985
vn -0.0401 -0.0190 0.9990
vn 0.0047 0.0065 -1.0000
vn 0.0047 0.0169 -0.9998
vn 0.0399 -0.0001 -0.9992
vn 0.0396 0.0171 -0.9991
vn -0.9997 -0.0211 -0.0090
vn -1.0000 0.0029 -0.0006
vn -1.0000 -0.0008 -0.0000
vn -1.0000 -0.0011 -0.0075
vn -0.9981 -0.0179 -0.0591
vn -0.9983 -0.0006 -0.0586
vn 0.9998 -0.0188 0.0078
vn 1.0000 -0.0008 -0.0000
vn 1.0000 -0.0009 -0.0000
vn 1.0000 -0.0013 0.0081
vn 0.9981 -0.0161 0.0586
vn 0.9982 -0.0026 0.0591
vn -0.9489 -0.0143 -0.3152
vn -0.9488 0.0042 -0.3159
vn -0.7119 -0.0100 -0.7023
vn -0.7072 0.0119 -0.7069
vn 0.3030 -0.0052 -0.9530
vn 0.3007 0.0170 -0.9536
vn 0.7046 -0.0153 -0.7094
vn 0.7073 0.0117 -0.7068
vn -0.2980 -0.0406 0.9537
vn -0.3007 -0.0185 0.9535
vn -0.7045 -0.0385 0.7087
vn -0.7072 -0.0144 0.7069
vn 0.9473 -0.0260 0.3192
vn 0.9488 -0.0071 0.3159
vn 0.7108 -0.0358 0.7025
vn 0.7070 -0.0140 0.7070
vn -0.3038 -0.0035 -0.9527
vn -0.3003 0.0165 -0.9537
vn -0.0404 -0.0008 -0.9992
vn 0.9458 -0.0138 -0.3244
vn 0.9487 0.0041 -0.3162
vn 0.9980 -0.0174 -0.0603
vn -0.9474 -0.0288 0.3188
vn -0.9487 -0.0070 0.3161
vn -0.9980 -0.0266 0.0580
vn -0.9982 -0.0020 0.0593
vn 0.3049 -0.0394 0.9516
vn 0.3007 -0.0184 0.9535
vn 0.0415 -0.0373 0.9984
vn -0.7817 -0.6235 -0.0160
vn -0.4645 -0.8854 -0.0186
vn -0.8988 -0.4349 0.0549
vn -0.0029 -0.6695 0.7428
vn 0.0045 -0.9147 0.4041
vn 0.0338 -0.6589 0.7515
vn 0.0159 -0.5873 -0.8092
vn -0.0033 -0.8440 -0.5364
vn -0.0415 -0.3612 -0.9316
vn -0.0052 -0.9143 0.4050
vn 0.0158 -0.9985 0.0527
vn -0.0034 -0.6653 0.7466
vn 0.0171 -0.8474 -0.5307
vn -0.0330 -0.9877 -0.1528
vn 0.0024 -0.5707 -0.8212
vn 0.0197 -0.9881 -0.1528
vn -0.7382 -0.6741 -0.0237
vn -0.3998 -0.9162 -0.0283
vn 0.7787 -0.6274 -0.0030
vn 0.3507 -0.9356 -0.0415
vn 0.7881 -0.6144 -0.0387
vn 0.4538 -0.8911 0.0004
vn 0.0968 -0.9938 -0.0540
vn 0.0870 -0.9962 -0.0041
vn -0.3449 -0.9299 -0.1281
vn -0.0852 -0.9958 -0.0345
vn -0.7036 -0.6685 -0.2411
vn -0.7526 -0.6560 -0.0567
vn -0.5128 -0.6767 -0.5284
vn -0.2387 -0.9350 -0.2624
vn 0.1003 -0.9039 -0.4157
vn 0.2288 -0.6156 -0.7541
vn 0.0370 -0.3874 -0.9212
vn 0.5128 -0.6766 -0.5284
vn 0.2371 -0.9341 -0.2669
vn -0.0960 -0.9377 0.3338
vn -0.0145 -0.9983 0.0562
vn -0.2184 -0.6795 0.7005
vn -0.0305 -0.6618 0.7490
vn -0.5150 -0.6964 0.4998
vn -0.2409 -0.9457 0.2183
vn -0.0943 -0.9955 -0.0036
vn 0.3795 -0.9215 0.0831
vn 0.7331 -0.6418 0.2250
vn 0.7965 -0.6038 0.0331
vn 0.5150 -0.6964 0.4998
vn 0.2429 -0.9456 0.2165
vn -0.0940 -0.8850 -0.4561
vn -0.2278 -0.6153 -0.7546
vn 0.3735 -0.9196 -0.1218
vn 0.7034 -0.6686 -0.2412
vn -0.4029 -0.9119 0.0784
vn -0.7300 -0.6446 0.2272
vn 0.0942 -0.9314 0.3517
vn 0.2187 -0.6796 0.7002
vn -0.9997 -0.0209 0.0081
vn -0.0025 -0.2606 0.9654
vn 0.0409 -0.2593 0.9649
vn 0.9620 -0.2729 -0.0061
vn 0.9645 -0.2537 -0.0733
vn -0.0031 -0.2678 0.9635
vn -0.0412 -0.2593 0.9649
vn 0.0145 -0.1843 -0.9828
vn -0.0047 -0.1815 -0.9834
vn -0.9744 -0.2246 0.0130
vn -0.9662 -0.2574 -0.0142
vn -0.9665 -0.2486 -0.0642
vn 0.9736 -0.2281 0.0124
vn 0.9755 -0.2124 0.0574
vn -0.9114 -0.2630 -0.3165
vn -0.6817 -0.2652 -0.6819
vn 0.3117 -0.2532 -0.9158
vn 0.6818 -0.2652 -0.6817
vn -0.2990 -0.2826 0.9115
vn -0.6773 -0.2907 0.6758
vn 0.9148 -0.2539 0.3141
vn 0.6772 -0.2909 0.6759
vn -0.3067 -0.2251 -0.9248
vn 0.9113 -0.2629 -0.3167
vn -0.9149 -0.2528 0.3148
vn 0.2990 -0.2825 0.9115
vn -0.0052 -0.9998 -0.0194
vn -0.0034 -0.9998 -0.0211
vn 0.0029 -0.9998 -0.0204
vn 0.0156 -0.9992 -0.0371
vn 0.0016 -0.9999 -0.0162
vn -1.0000 -0.0023 0.0075
vt 0.582368 0.725602
vt 0.624771 0.707753
vt 0.624515 0.726417
vt 0.582259 0.718468
vt 0.582500 0.686619
vt 0.582259 0.710722
vt 0.582445 0.727145
vt 0.624601 0.688363
vt 0.624579 0.726921
vt 0.624492 0.727394
vt 0.582259 0.691483
vt 0.582259 0.722516
vt 0.582259 0.691481
vt 0.622575 0.685774
vt 0.584454 0.685774
vt 0.622577 0.685774
vt 0.584456 0.685774
vt 0.624772 0.722541
vt 0.624772 0.691515
vt 0.624772 0.722565
vt 0.624772 0.691480
vt 0.622576 0.728288
vt 0.584455 0.728288
vt 0.622575 0.728288
vt 0.582326 0.689948
vt 0.582315 0.689475
vt 0.624697 0.689189
vt 0.624691 0.724872
vt 0.624702 0.689647
vt 0.582278 0.690256
vt 0.582284 0.724191
vt 0.582259 0.691620
vt 0.583325 0.685957
vt 0.584456 0.685774
vt 0.622575 0.685774
vt 0.623814 0.686031
vt 0.583354 0.685943
vt 0.624749 0.724029
vt 0.624772 0.691553
vt 0.624772 0.722639
vt 0.624752 0.690157
vt 0.584455 0.728288
vt 0.622576 0.728288
vt 0.584455 0.728288
vt 0.582259 0.691490
vt 0.582259 0.722562
vt 0.582259 0.722603
vt 0.582284 0.689857
vt 0.584455 0.685774
vt 0.622578 0.685774
vt 0.624772 0.691492
vt 0.624772 0.691590
vt 0.624772 0.722450
vt 0.584455 0.728288
vt 0.622577 0.728288
vt 0.584454 0.728288
vt 0.582278 0.723850
vt 0.582304 0.724712
vt 0.582351 0.688764
vt 0.584455 0.685774
vt 0.624749 0.724051
vt 0.624630 0.688343
vt 0.624705 0.724950
vt 0.624752 0.690111
vt 0.623702 0.728112
vt 0.624392 0.727088
vt 0.583236 0.728094
vt 0.624626 0.687624
vt 0.582244 0.686572
vt 0.624316 0.727215
vt 0.623876 0.685981
vt 0.623876 0.685980
vt 0.583155 0.685980
vt 0.583156 0.728081
vt 0.582602 0.727317
vt 0.623873 0.728080
vt 0.583153 0.728079
vt 0.623692 0.685955
vt 0.623875 0.685982
vt 0.583156 0.685982
vt 0.583156 0.728080
vt 0.622576 0.728288
vt 0.623875 0.728080
vt 0.623876 0.685979
vt 0.583154 0.685978
vt 0.583155 0.728083
vt 0.583155 0.728083
vt 0.622577 0.728288
vt 0.623876 0.728083
vt 0.622578 0.685774
vt 0.582694 0.686765
vt 0.624317 0.686492
vt 0.583284 0.728105
vt 0.582577 0.727047
vt 0.582551 0.727024
vt 0.582290 0.689475
vt 0.582290 0.689459
vt 0.624741 0.724588
vt 0.624741 0.724603
vt 0.624741 0.689459
vt 0.624741 0.689475
vt 0.582290 0.689487
vt 0.582286 0.724189
vt 0.624741 0.724575
vt 0.624741 0.689487
vt 0.624772 0.691486
vt 0.582290 0.724615
vt 0.624741 0.724615
vt 0.624741 0.689448
vt 0.582512 0.726639
vt 0.582638 0.727466
vt 0.582511 0.726645
vt 0.582638 0.727461
vt 0.582385 0.688249
vt 0.582385 0.688240
vt 0.582512 0.687428
vt 0.582511 0.687418
vt 0.624393 0.686599
vt 0.624394 0.686596
vt 0.624646 0.725823
vt 0.624520 0.726635
vt 0.624646 0.725808
vt 0.582512 0.726615
vt 0.582385 0.725789
vt 0.582638 0.686607
vt 0.582556 0.687056
vt 0.624519 0.687441
vt 0.624456 0.686913
vt 0.624646 0.688274
vt 0.624393 0.727455
vt 0.624490 0.726958
vt 0.582385 0.725808
vt 0.582638 0.686601
vt 0.582512 0.687441
vt 0.583155 0.685981
vt 0.624646 0.688254
vt 0.624520 0.687428
vt 0.624393 0.727461
vt 0.624519 0.726621
vt 0.623876 0.728082
vt 0.582385 0.725823
vt 0.582511 0.726658
vt 0.582385 0.725844
vt 0.582290 0.724603
vt 0.582638 0.686596
vt 0.582511 0.687404
vt 0.582637 0.686590
vt 0.624646 0.688240
vt 0.624520 0.687405
vt 0.624646 0.688221
vt 0.624393 0.727466
vt 0.624520 0.726658
vt 0.624394 0.727474
vt 0.623876 0.728083
vt 0.582510 0.726686
vt 0.582290 0.724588
vt 0.624520 0.687418
vt 0.624520 0.726645
vt 0.582638 0.727455
vt 0.582512 0.726631
vt 0.582385 0.688284
vt 0.582385 0.688260
vt 0.624392 0.686611
vt 0.624393 0.686604
vt 0.624646 0.725788
vt 0.582638 0.727473
vt 0.582385 0.688222
vt 0.624394 0.686590
vt 0.624646 0.725842
vt 0.582282 0.689926
vt 0.622622 0.728288
vt 0.623951 0.728204
vt 0.622621 0.728288
vt 0.624772 0.690561
vt 0.624747 0.687882
vt 0.624772 0.690840
vt 0.584409 0.685774
vt 0.583081 0.685858
vt 0.584410 0.685774
vt 0.584409 0.728288
vt 0.584410 0.728288
vt 0.583081 0.728204
vt 0.622623 0.685774
vt 0.622622 0.685774
vt 0.623950 0.685859
vt 0.623951 0.685858
vt 0.582259 0.690505
vt 0.582259 0.717735
vt 0.582259 0.707031
vt 0.582259 0.690744
vt 0.582285 0.687884
vt 0.582285 0.687882
vt 0.624772 0.723548
vt 0.624772 0.707031
vt 0.624772 0.717735
vt 0.624772 0.723559
vt 0.624747 0.726179
vt 0.624747 0.726181
vt 0.582362 0.686786
vt 0.582362 0.686783
vt 0.582466 0.686449
vt 0.582466 0.686447
vt 0.624462 0.686111
vt 0.624566 0.686449
vt 0.624566 0.686447
vt 0.582569 0.727951
vt 0.582569 0.727952
vt 0.582466 0.727614
vt 0.582466 0.727615
vt 0.624669 0.727277
vt 0.624669 0.727279
vt 0.624566 0.727614
vt 0.624566 0.727615
vt 0.582569 0.686111
vt 0.583081 0.685859
vt 0.624669 0.686786
vt 0.624669 0.686783
vt 0.624747 0.687884
vt 0.582362 0.727277
vt 0.582362 0.727279
vt 0.582285 0.726179
vt 0.582285 0.726181
vt 0.624462 0.727951
vt 0.624462 0.727952
vt 0.623950 0.728204
vt 0.582259 0.723470
vt 0.582281 0.725757
vt 0.582285 0.726168
vt 0.622578 0.728288
vt 0.623788 0.728213
vt 0.623950 0.728203
vt 0.584454 0.685774
vt 0.583213 0.685852
vt 0.583082 0.685860
vt 0.583229 0.728212
vt 0.624412 0.727874
vt 0.584346 0.728288
vt 0.623835 0.685853
vt 0.582577 0.686242
vt 0.622695 0.685774
vt 0.624397 0.686093
vt 0.582259 0.690576
vt 0.582283 0.688083
vt 0.624772 0.723711
vt 0.624747 0.688051
vt 0.624749 0.688150
vt 0.624748 0.725928
vt 0.624627 0.686796
vt 0.624686 0.726899
vt 0.582363 0.686810
vt 0.582353 0.686980
vt 0.582362 0.686801
vt 0.582285 0.687901
vt 0.582466 0.686459
vt 0.582466 0.686465
vt 0.624461 0.686120
vt 0.624461 0.686117
vt 0.623950 0.685859
vt 0.624565 0.686459
vt 0.624565 0.686465
vt 0.582570 0.727945
vt 0.582680 0.727983
vt 0.582570 0.727947
vt 0.583081 0.728203
vt 0.582466 0.727606
vt 0.582466 0.727601
vt 0.582375 0.727080
vt 0.624669 0.727258
vt 0.624669 0.727265
vt 0.624747 0.726166
vt 0.624565 0.727606
vt 0.624565 0.727601
vt 0.582570 0.686120
vt 0.582570 0.686117
vt 0.624669 0.686810
vt 0.624669 0.686801
vt 0.582363 0.727258
vt 0.582362 0.727265
vt 0.624461 0.727945
vt 0.624462 0.727947
vt 0.582259 0.723510
vt 0.622595 0.728288
vt 0.624772 0.690255
vt 0.624747 0.687891
vt 0.584415 0.728288
vt 0.622609 0.685774
vt 0.584435 0.685774
vt 0.582259 0.723517
vt 0.582259 0.690499
vt 0.582285 0.687891
vt 0.624772 0.723678
vt 0.624747 0.726173
vt 0.582362 0.686792
vt 0.582466 0.686453
vt 0.624462 0.686114
vt 0.624565 0.686453
vt 0.582569 0.727949
vt 0.582466 0.727611
vt 0.624669 0.727272
vt 0.624565 0.727611
vt 0.582569 0.686114
vt 0.624669 0.686792
vt 0.582362 0.727272
vt 0.624462 0.727949
vt 0.582297 0.691928
vt 0.582613 0.687058
vt 0.624399 0.687364
vt 0.624533 0.686630
vt 0.624512 0.726645
vt 0.582259 0.723559
s 1
f 75/1/1 180/2/2 98/3/3
f 180/2/2 75/1/1 54/4/4
f 282/5/5 174/6/6 167/7/7
f 171/8/8 281/9/9 175/10/10
f 55/11/11 184/12/12 52/13/13
f 34/14/14 28/15/15 29/16/16
f 28/15/15 34/14/14 33/17/17
f 57/18/18 53/19/19 201/20/20
f 53/19/19 57/18/18 56/21/21
f 30/22/22 36/23/23 35/24/24
f 96/25/25 54/4/4 10/26/26
f 180/2/2 77/27/27 12/28/28
f 77/27/27 180/2/2 97/29/29
f 195/30/30 13/31/31 58/32/32
f 195/30/30 10/26/26 54/4/4
f 181/33/33 37/34/34 38/35/35
f 181/33/33 11/36/36 76/37/37
f 197/38/38 59/39/39 60/40/40
f 198/41/41 12/28/28 77/27/27
f 191/42/42 39/43/43 40/44/44
f 183/45/45 199/46/46 55/11/11
f 199/46/46 58/32/32 13/31/31
f 33/17/17 38/35/35 37/34/34
f 57/18/18 60/40/40 59/39/39
f 35/24/24 40/44/44 39/43/43
f 52/13/13 61/47/47 88/48/48
f 29/16/16 44/49/49 45/50/50
f 185/51/51 62/52/52 63/53/53
f 185/51/51 201/20/20 53/19/19
f 31/54/54 46/55/55 47/56/56
f 186/57/57 3/58/58 68/59/59
f 186/57/57 88/48/48 61/47/47
f 193/60/60 45/50/50 44/49/49
f 188/61/61 4/62/62 70/63/63
f 203/64/64 63/53/53 62/52/52
f 189/65/65 42/66/66 43/67/67
f 189/65/65 47/56/56 46/55/55
f 170/68/68 171/8/8 169/69/69
f 167/7/7 172/70/70 175/10/10
f 7/71/71 29/16/16 19/72/72
f 29/16/16 7/71/71 34/14/14
f 33/17/17 84/73/73 28/15/15
f 31/54/54 5/74/74 36/23/23
f 99/75/75 78/76/76 32/77/77
f 190/78/78 38/35/35 81/79/79
f 181/33/33 14/80/80 37/34/34
f 32/77/77 40/44/44 79/81/81
f 182/82/82 32/77/77 78/76/76
f 182/82/82 16/83/83 39/43/43
f 81/79/79 34/14/14 7/71/71
f 34/14/14 81/79/79 38/35/35
f 36/23/23 79/81/81 40/44/44
f 19/72/72 45/50/50 89/84/84
f 28/15/15 22/85/85 44/49/49
f 17/86/86 47/56/56 87/87/87
f 192/88/88 24/89/89 46/55/55
f 187/90/90 41/91/91 69/92/92
f 187/90/90 89/84/84 45/50/50
f 194/93/93 87/87/87 47/56/56
f 189/65/65 46/55/55 24/89/89
f 96/25/25 11/36/36 97/29/29
f 174/6/6 179/94/94 168/95/95
f 179/94/94 174/6/6 3/58/58
f 6/96/96 52/13/13 18/97/97
f 52/13/13 6/96/96 55/11/11
f 8/98/98 201/20/20 20/99/99
f 201/20/20 8/98/98 57/18/18
f 85/100/100 56/21/21 73/101/101
f 56/21/21 85/100/100 53/19/19
f 195/30/30 58/32/32 80/102/102
f 196/103/103 54/4/4 75/1/1
f 197/38/38 60/40/40 82/104/104
f 198/41/41 15/105/105 59/39/39
f 183/45/45 80/102/102 58/32/32
f 57/18/18 82/104/104 60/40/40
f 73/101/101 59/39/39 15/105/105
f 200/106/106 73/101/101 56/21/21
f 184/12/12 21/107/107 61/47/47
f 20/99/99 63/53/53 90/108/108
f 185/51/51 23/109/109 62/52/52
f 186/57/57 61/47/47 21/107/107
f 188/61/61 90/108/108 63/53/53
f 203/64/64 62/52/52 23/109/109
f 92/110/110 230/111/111 106/112/112
f 230/111/111 92/110/110 226/113/113
f 17/86/86 226/113/113 5/74/74
f 204/114/114 18/97/97 231/115/115
f 93/116/116 231/115/115 107/117/117
f 205/118/118 19/72/72 232/119/119
f 233/120/120 95/121/121 229/122/122
f 283/123/123 75/1/1 99/75/75
f 196/103/103 206/124/124 13/31/31
f 207/125/125 76/37/37 9/126/126
f 181/33/33 207/125/125 14/80/80
f 104/127/127 77/27/27 100/128/128
f 198/41/41 208/129/129 15/105/105
f 209/130/130 78/76/76 101/131/131
f 78/76/76 209/130/130 16/83/83
f 210/132/132 13/31/31 206/124/124
f 211/133/133 14/80/80 207/125/125
f 93/116/116 207/125/125 103/134/134
f 14/80/80 211/133/133 72/135/135
f 212/136/136 15/105/105 208/129/129
f 94/137/137 208/129/129 104/127/127
f 213/138/138 16/83/83 209/130/130
f 95/121/121 209/130/130 105/139/139
f 16/83/83 213/138/138 74/140/140
f 214/141/141 110/142/142 218/143/143
f 83/144/144 218/143/143 21/107/107
f 215/145/145 111/146/146 219/147/147
f 84/73/73 219/147/147 22/85/85
f 216/148/148 112/149/149 220/150/150
f 85/100/100 220/150/150 23/109/109
f 217/151/151 113/152/152 221/153/153
f 86/154/154 221/153/153 24/89/89
f 186/57/57 91/155/155 3/58/58
f 210/132/132 106/112/112 214/141/141
f 71/156/156 214/141/141 83/144/144
f 72/135/135 215/145/145 84/73/73
f 215/145/145 72/135/135 211/133/133
f 212/136/136 108/157/157 216/148/148
f 108/157/157 212/136/136 94/137/137
f 74/140/140 217/151/151 86/154/154
f 217/151/151 74/140/140 213/138/138
f 109/158/158 213/138/138 95/121/121
f 97/29/29 100/128/128 77/27/27
f 283/123/123 222/159/159 102/160/160
f 223/161/161 9/126/126 10/26/26
f 223/161/161 80/102/102 227/162/162
f 190/78/78 100/128/128 11/36/36
f 224/163/163 81/79/79 228/164/164
f 225/165/165 101/131/131 12/28/28
f 226/113/113 102/160/160 222/159/159
f 5/74/74 222/159/159 79/81/81
f 102/160/160 226/113/113 92/110/110
f 6/96/96 227/162/162 80/102/102
f 227/162/162 6/96/96 204/114/114
f 228/164/164 7/71/71 205/118/118
f 229/122/122 105/139/139 225/165/165
f 8/98/98 225/165/165 82/104/104
f 230/111/111 87/87/87 234/166/166
f 106/112/112 234/166/166 110/142/142
f 231/115/115 88/48/48 235/167/167
f 107/117/117 235/167/167 111/146/146
f 232/119/119 89/84/84 236/168/168
f 108/157/157 236/168/168 112/149/149
f 233/120/120 90/108/108 237/169/169
f 109/158/158 237/169/169 113/152/152
f 194/93/93 234/166/166 87/87/87
f 234/166/166 43/67/67 91/155/155
f 202/170/170 235/167/167 88/48/48
f 111/146/146 68/59/59 41/91/91
f 112/149/149 69/92/92 4/62/62
f 188/61/61 237/169/169 90/108/108
f 113/152/152 70/63/63 42/66/66
f 239/171/171 117/172/172 118/173/173
f 50/174/174 115/175/175 124/176/176
f 26/177/177 114/178/178 120/179/179
f 25/180/180 118/173/173 119/181/181
f 66/182/182 119/181/181 128/182/183
f 27/183/184 120/179/179 121/184/185
f 65/185/186 121/184/185 127/186/187
f 49/187/188 122/188/189 284/189/190
f 49/187/188 284/189/190 123/190/191
f 64/191/192 123/190/191 126/192/193
f 51/193/194 124/176/176 285/194/195
f 51/193/194 285/194/195 125/195/196
f 51/193/194 125/195/196 286/196/197
f 67/197/198 286/196/197 129/198/199
f 240/199/200 126/192/193 287/200/201
f 144/201/202 287/200/201 130/202/203
f 241/203/204 127/186/187 288/203/205
f 145/204/206 288/203/205 131/205/207
f 242/206/208 128/182/183 289/207/209
f 146/208/210 289/207/209 132/209/211
f 243/210/212 129/198/199 290/211/213
f 147/212/214 290/211/213 133/213/215
f 244/214/216 130/202/203 291/214/217
f 134/215/218 291/214/217 114/178/178
f 245/216/219 131/205/207 292/217/220
f 135/218/221 292/217/220 115/175/175
f 246/219/222 132/209/211 293/220/223
f 136/221/224 293/220/223 116/222/225
f 247/223/226 133/213/215 294/224/227
f 137/225/228 294/224/227 117/172/172
f 156/226/229 248/227/230 150/228/231
f 152/229/232 249/230/233 151/231/234
f 154/232/235 251/233/236 148/234/237
f 252/235/238 138/236/239 249/230/233
f 153/237/240 249/230/233 152/229/232
f 253/238/241 1/239/242 251/233/236
f 155/240/243 251/233/236 154/232/235
f 1/239/242 253/238/241 141/241/244
f 157/242/245 248/227/230 156/226/229
f 248/227/230 157/242/245 254/243/246
f 158/244/247 250/245/248 149/246/249
f 250/245/248 158/244/247 255/247/250
f 140/248/251 255/247/250 143/249/252
f 256/250/253 139/251/254 254/243/246
f 308/252/255 254/243/246 159/253/256
f 256/250/253 163/254/257 304/255/258
f 139/251/254 304/255/258 1/239/242
f 257/256/259 141/241/244 253/238/241
f 309/257/260 253/238/241 160/258/261
f 257/256/259 164/259/262 305/260/263
f 141/241/244 305/260/263 140/248/251
f 258/261/264 142/262/265 252/235/238
f 310/263/266 252/235/238 161/264/267
f 258/261/264 165/265/268 306/266/269
f 142/262/265 306/266/269 2/267/270
f 259/268/271 143/249/252 255/247/250
f 311/269/272 255/247/250 162/270/273
f 259/268/271 166/271/274 307/272/275
f 143/249/252 307/272/275 138/236/239
f 260/273/276 1/239/242 304/255/258
f 312/274/277 304/255/258 163/254/257
f 260/273/276 148/234/237 251/233/236
f 261/275/278 140/248/251 305/260/263
f 313/276/279 305/260/263 164/259/262
f 261/275/278 149/246/249 250/245/248
f 262/277/280 2/267/270 306/266/269
f 314/278/281 306/266/269 165/265/268
f 262/277/280 150/228/231 248/227/230
f 263/279/282 138/236/239 307/272/275
f 315/280/283 307/272/275 166/271/274
f 263/279/282 151/231/234 249/230/233
f 48/281/284 150/228/231 136/221/224
f 266/282/285 151/231/234 296/231/286
f 239/171/171 296/231/286 137/225/228
f 264/283/287 149/246/249 295/284/288
f 50/174/174 295/284/288 135/218/221
f 26/177/177 148/234/237 134/215/218
f 266/282/285 25/180/180 267/285/289
f 267/285/289 66/182/182 302/264/290
f 153/237/240 302/264/290 161/264/267
f 268/286/291 154/232/235 265/287/292
f 268/286/291 65/185/186 160/258/261
f 269/288/293 49/187/188 270/289/294
f 270/289/294 64/191/192 301/290/295
f 157/242/245 301/290/295 159/253/256
f 51/193/194 264/283/287 50/174/174
f 264/283/287 51/193/194 271/291/296
f 271/291/296 67/197/198 303/292/297
f 158/244/247 303/292/297 162/270/273
f 272/293/298 159/253/256 301/290/295
f 240/199/200 301/290/295 64/191/192
f 272/293/298 144/201/202 297/294/299
f 308/252/255 297/294/299 163/254/257
f 241/203/204 160/258/261 65/185/186
f 273/295/300 145/204/206 298/296/301
f 309/257/260 298/296/301 164/259/262
f 274/297/302 161/264/267 302/264/290
f 242/206/208 302/264/290 66/182/182
f 274/297/302 146/208/210 299/298/303
f 310/263/266 299/298/303 165/265/268
f 275/299/304 162/270/273 303/292/297
f 243/210/212 303/292/297 67/197/198
f 275/299/304 147/212/214 300/300/305
f 311/269/272 300/300/305 166/271/274
f 276/301/306 163/254/257 297/294/299
f 244/214/216 297/294/299 144/201/202
f 276/301/306 134/215/218 148/234/237
f 277/302/307 164/259/262 298/296/301
f 245/216/219 298/296/301 145/204/206
f 277/302/307 135/218/221 295/284/288
f 313/276/279 295/284/288 149/246/249
f 278/303/308 165/265/268 299/298/303
f 246/219/222 299/298/303 146/208/210
f 278/303/308 136/221/224 150/228/231
f 279/304/309 166/271/274 300/300/305
f 247/223/226 300/300/305 147/212/214
f 279/304/309 137/225/228 296/231/286
f 315/280/283 296/231/286 151/231/234
f 3/58/58 174/6/6 173/305/310
f 139/251/254 167/7/7 2/267/270
f 167/7/7 139/251/254 282/5/5
f 177/306/311 171/8/8 176/307/312
f 280/308/313 169/69/69 282/5/5
f 70/63/63 4/62/62 176/307/312
f 176/307/312 175/10/10 70/63/63
f 175/10/10 176/307/312 171/8/8
f 281/9/9 170/68/68 280/308/313
f 138/236/239 175/10/10 281/9/9
f 169/69/69 173/305/310 174/6/6
f 168/95/95 167/7/7 174/6/6
f 172/70/70 70/63/63 175/10/10
f 68/59/59 177/306/311 41/91/91
f 69/92/92 176/307/312 4/62/62
f 70/63/63 178/309/314 42/66/66
f 3/58/58 91/155/155 179/94/94
f 180/2/2 96/25/25 97/29/29
f 96/25/25 180/2/2 54/4/4
f 281/9/9 171/8/8 170/68/68
f 199/46/46 184/12/12 55/11/11
f 30/22/22 31/54/54 36/23/23
f 11/36/36 9/126/126 76/37/37
f 195/30/30 196/103/103 13/31/31
f 196/103/103 195/30/30 54/4/4
f 190/78/78 181/33/33 38/35/35
f 181/33/33 190/78/78 11/36/36
f 197/38/38 198/41/41 59/39/39
f 198/41/41 197/38/38 12/28/28
f 191/42/42 182/82/82 39/43/43
f 182/82/82 191/42/42 32/77/77
f 199/46/46 183/45/45 58/32/32
f 33/17/17 34/14/14 38/35/35
f 57/18/18 200/106/106 56/21/21
f 200/106/106 57/18/18 59/39/39
f 35/24/24 36/23/23 40/44/44
f 52/13/13 184/12/12 61/47/47
f 29/16/16 28/15/15 44/49/49
f 201/20/20 185/51/51 63/53/53
f 31/54/54 192/88/88 46/55/55
f 192/88/88 31/54/54 30/22/22
f 202/170/170 186/57/57 68/59/59
f 186/57/57 202/170/170 88/48/48
f 187/90/90 193/60/60 41/91/91
f 193/60/60 187/90/90 45/50/50
f 188/61/61 203/64/64 4/62/62
f 203/64/64 188/61/61 63/53/53
f 194/93/93 189/65/65 43/67/67
f 189/65/65 194/93/93 47/56/56
f 177/306/311 169/69/69 171/8/8
f 167/7/7 168/95/95 172/70/70
f 33/17/17 72/135/135 84/73/73
f 31/54/54 17/86/86 5/74/74
f 74/140/140 30/22/22 35/24/24
f 30/22/22 74/140/140 86/154/154
f 99/75/75 101/131/131 78/76/76
f 32/77/77 191/42/42 40/44/44
f 182/82/82 78/76/76 16/83/83
f 14/80/80 33/17/17 37/34/34
f 33/17/17 14/80/80 72/135/135
f 36/23/23 5/74/74 79/81/81
f 16/83/83 35/24/24 39/43/43
f 35/24/24 16/83/83 74/140/140
f 19/72/72 29/16/16 45/50/50
f 28/15/15 84/73/73 22/85/85
f 17/86/86 31/54/54 47/56/56
f 86/154/154 192/88/88 30/22/22
f 192/88/88 86/154/154 24/89/89
f 89/84/84 187/90/90 69/92/92
f 22/85/85 193/60/60 44/49/49
f 193/60/60 22/85/85 41/91/91
f 99/75/75 75/1/1 98/3/3
f 96/25/25 9/126/126 11/36/36
f 282/5/5 169/69/69 174/6/6
f 71/156/156 184/12/12 199/46/46
f 184/12/12 71/156/156 83/144/144
f 101/131/131 180/2/2 12/28/28
f 180/2/2 101/131/131 98/3/3
f 6/96/96 183/45/45 55/11/11
f 183/45/45 6/96/96 80/102/102
f 71/156/156 199/46/46 13/31/31
f 57/18/18 8/98/98 82/104/104
f 73/101/101 200/106/106 59/39/39
f 18/97/97 52/13/13 88/48/48
f 184/12/12 83/144/144 21/107/107
f 20/99/99 201/20/20 63/53/53
f 85/100/100 185/51/51 53/19/19
f 185/51/51 85/100/100 23/109/109
f 17/86/86 230/111/111 226/113/113
f 204/114/114 6/96/96 18/97/97
f 93/116/116 204/114/114 231/115/115
f 205/118/118 7/71/71 19/72/72
f 108/157/157 205/118/118 232/119/119
f 205/118/118 108/157/157 94/137/137
f 233/120/120 8/98/98 20/99/99
f 233/120/120 109/158/158 95/121/121
f 8/98/98 233/120/120 229/122/122
f 9/126/126 96/25/25 10/26/26
f 11/36/36 100/128/128 97/29/29
f 206/124/124 196/103/103 75/1/1
f 283/123/123 206/124/124 75/1/1
f 206/124/124 283/123/123 102/160/160
f 207/125/125 181/33/33 76/37/37
f 103/134/134 207/125/125 9/126/126
f 208/129/129 198/41/41 77/27/27
f 104/127/127 208/129/129 77/27/27
f 105/139/139 209/130/130 101/131/131
f 210/132/132 71/156/156 13/31/31
f 102/160/160 210/132/132 206/124/124
f 210/132/132 102/160/160 92/110/110
f 93/116/116 211/133/133 207/125/125
f 212/136/136 73/101/101 15/105/105
f 94/137/137 212/136/136 208/129/129
f 95/121/121 213/138/138 209/130/130
f 214/141/141 106/112/112 110/142/142
f 83/144/144 214/141/141 218/143/143
f 215/145/145 107/117/117 111/146/146
f 84/73/73 215/145/145 219/147/147
f 216/148/148 108/157/157 112/149/149
f 85/100/100 216/148/148 220/150/150
f 217/151/151 109/158/158 113/152/152
f 86/154/154 217/151/151 221/153/153
f 218/143/143 186/57/57 21/107/107
f 218/143/143 110/142/142 91/155/155
f 186/57/57 218/143/143 91/155/155
f 219/147/147 111/146/146 41/91/91
f 22/85/85 219/147/147 41/91/91
f 220/150/150 203/64/64 23/109/109
f 220/150/150 112/149/149 4/62/62
f 203/64/64 220/150/150 4/62/62
f 221/153/153 189/65/65 24/89/89
f 221/153/153 113/152/152 42/66/66
f 189/65/65 221/153/153 42/66/66
f 210/132/132 92/110/110 106/112/112
f 71/156/156 210/132/132 214/141/141
f 215/145/145 93/116/116 107/117/117
f 93/116/116 215/145/145 211/133/133
f 85/100/100 212/136/136 216/148/148
f 212/136/136 85/100/100 73/101/101
f 109/158/158 217/151/151 213/138/138
f 222/159/159 283/123/123 99/75/75
f 32/77/77 222/159/159 99/75/75
f 222/159/159 32/77/77 79/81/81
f 223/161/161 103/134/134 9/126/126
f 195/30/30 223/161/161 10/26/26
f 223/161/161 195/30/30 80/102/102
f 103/134/134 223/161/161 227/162/162
f 224/163/163 104/127/127 100/128/128
f 190/78/78 224/163/163 100/128/128
f 224/163/163 190/78/78 81/79/79
f 104/127/127 224/163/163 228/164/164
f 225/165/165 105/139/139 101/131/131
f 197/38/38 225/165/165 12/28/28
f 225/165/165 197/38/38 82/104/104
f 5/74/74 226/113/113 222/159/159
f 227/162/162 93/116/116 103/134/134
f 93/116/116 227/162/162 204/114/114
f 228/164/164 94/137/137 104/127/127
f 228/164/164 81/79/79 7/71/71
f 94/137/137 228/164/164 205/118/118
f 229/122/122 95/121/121 105/139/139
f 8/98/98 229/122/122 225/165/165
f 230/111/111 17/86/86 87/87/87
f 106/112/112 230/111/111 234/166/166
f 231/115/115 18/97/97 88/48/48
f 107/117/117 231/115/115 235/167/167
f 232/119/119 19/72/72 89/84/84
f 108/157/157 232/119/119 236/168/168
f 233/120/120 20/99/99 90/108/108
f 109/158/158 233/120/120 237/169/169
f 234/166/166 194/93/93 43/67/67
f 110/142/142 234/166/166 91/155/155
f 235/167/167 202/170/170 68/59/59
f 111/146/146 235/167/167 68/59/59
f 236/168/168 89/84/84 69/92/92
f 112/149/149 236/168/168 69/92/92
f 237/169/169 188/61/61 70/63/63
f 113/152/152 237/169/169 70/63/63
f 101/131/131 99/75/75 98/3/3
f 136/221/224 238/310/315 48/281/284
f 238/310/315 136/221/224 116/222/225
f 239/171/171 137/225/228 117/172/172
f 50/174/174 135/218/221 115/175/175
f 26/177/177 134/215/218 114/178/178
f 25/180/180 239/171/171 118/173/173
f 66/182/182 25/180/180 119/181/181
f 27/183/184 26/177/177 120/179/179
f 65/185/186 27/183/184 121/184/185
f 238/310/315 49/187/188 48/281/284
f 49/187/188 238/310/315 122/188/189
f 64/191/192 49/187/188 123/190/191
f 51/193/194 50/174/174 124/176/176
f 67/197/198 51/193/194 286/196/197
f 240/199/200 64/191/192 126/192/193
f 144/201/202 240/199/200 287/200/201
f 241/203/204 65/185/186 127/186/187
f 145/204/206 241/203/204 288/203/205
f 242/206/208 66/182/182 128/182/183
f 146/208/210 242/206/208 289/207/209
f 243/210/212 67/197/198 129/198/199
f 147/212/214 243/210/212 290/211/213
f 244/214/216 144/201/202 130/202/203
f 134/215/218 244/214/216 291/214/217
f 245/216/219 145/204/206 131/205/207
f 135/218/221 245/216/219 292/217/220
f 246/219/222 146/208/210 132/209/211
f 136/221/224 246/219/222 293/220/223
f 247/223/226 147/212/214 133/213/215
f 137/225/228 247/223/226 294/224/227
f 252/235/238 142/262/265 138/236/239
f 153/237/240 252/235/238 249/230/233
f 252/235/238 153/237/240 161/264/267
f 155/240/243 253/238/241 251/233/236
f 253/238/241 155/240/243 160/258/261
f 248/227/230 139/251/254 2/267/270
f 139/251/254 248/227/230 254/243/246
f 254/243/246 157/242/245 159/253/256
f 140/248/251 250/245/248 255/247/250
f 255/247/250 158/244/247 162/270/273
f 308/252/255 256/250/253 254/243/246
f 256/250/253 308/252/255 163/254/257
f 139/251/254 256/250/253 304/255/258
f 309/257/260 257/256/259 253/238/241
f 257/256/259 309/257/260 164/259/262
f 141/241/244 257/256/259 305/260/263
f 310/263/266 258/261/264 252/235/238
f 258/261/264 310/263/266 165/265/268
f 142/262/265 258/261/264 306/266/269
f 311/269/272 259/268/271 255/247/250
f 259/268/271 311/269/272 166/271/274
f 143/249/252 259/268/271 307/272/275
f 312/274/277 260/273/276 304/255/258
f 260/273/276 312/274/277 148/234/237
f 1/239/242 260/273/276 251/233/236
f 313/276/279 261/275/278 305/260/263
f 261/275/278 313/276/279 149/246/249
f 140/248/251 261/275/278 250/245/248
f 314/278/281 262/277/280 306/266/269
f 262/277/280 314/278/281 150/228/231
f 2/267/270 262/277/280 248/227/230
f 315/280/283 263/279/282 307/272/275
f 263/279/282 315/280/283 151/231/234
f 138/236/239 263/279/282 249/230/233
f 269/288/293 156/226/229 150/228/231
f 48/281/284 269/288/293 150/228/231
f 266/282/285 152/229/232 151/231/234
f 239/171/171 266/282/285 296/231/286
f 50/174/174 264/283/287 295/284/288
f 265/287/292 154/232/235 148/234/237
f 26/177/177 265/287/292 148/234/237
f 266/282/285 153/237/240 152/229/232
f 266/282/285 239/171/171 25/180/180
f 153/237/240 266/282/285 267/285/289
f 267/285/289 25/180/180 66/182/182
f 153/237/240 267/285/289 302/264/290
f 268/286/291 155/240/243 154/232/235
f 26/177/177 268/286/291 265/287/292
f 268/286/291 26/177/177 27/183/184
f 268/286/291 27/183/184 65/185/186
f 155/240/243 268/286/291 160/258/261
f 269/288/293 157/242/245 156/226/229
f 269/288/293 48/281/284 49/187/188
f 157/242/245 269/288/293 270/289/294
f 270/289/294 49/187/188 64/191/192
f 157/242/245 270/289/294 301/290/295
f 264/283/287 158/244/247 149/246/249
f 158/244/247 264/283/287 271/291/296
f 271/291/296 51/193/194 67/197/198
f 158/244/247 271/291/296 303/292/297
f 272/293/298 308/252/255 159/253/256
f 240/199/200 272/293/298 301/290/295
f 272/293/298 240/199/200 144/201/202
f 308/252/255 272/293/298 297/294/299
f 273/295/300 309/257/260 160/258/261
f 241/203/204 273/295/300 160/258/261
f 273/295/300 241/203/204 145/204/206
f 309/257/260 273/295/300 298/296/301
f 274/297/302 310/263/266 161/264/267
f 242/206/208 274/297/302 302/264/290
f 274/297/302 242/206/208 146/208/210
f 310/263/266 274/297/302 299/298/303
f 275/299/304 311/269/272 162/270/273
f 243/210/212 275/299/304 303/292/297
f 275/299/304 243/210/212 147/212/214
f 311/269/272 275/299/304 300/300/305
f 276/301/306 312/274/277 163/254/257
f 244/214/216 276/301/306 297/294/299
f 276/301/306 244/214/216 134/215/218
f 312/274/277 276/301/306 148/234/237
f 277/302/307 313/276/279 164/259/262
f 245/216/219 277/302/307 298/296/301
f 277/302/307 245/216/219 135/218/221
f 313/276/279 277/302/307 295/284/288
f 278/303/308 314/278/281 165/265/268
f 246/219/222 278/303/308 299/298/303
f 278/303/308 246/219/222 136/221/224
f 314/278/281 278/303/308 150/228/231
f 279/304/309 315/280/283 166/271/274
f 247/223/226 279/304/309 300/300/305
f 279/304/309 247/223/226 137/225/228
f 315/280/283 279/304/309 296/231/286
f 173/305/310 68/59/59 3/58/58
f 1/239/242 280/308/313 282/5/5
f 280/308/313 1/239/242 141/241/244
f 140/248/251 281/9/9 280/308/313
f 281/9/9 140/248/251 143/249/252
f 43/67/67 178/309/314 179/94/94
f 178/309/314 43/67/67 42/66/66
f 168/95/95 179/94/94 178/309/314
f 172/70/70 168/95/95 178/309/314
f 176/307/312 69/92/92 41/91/91
f 280/308/313 170/68/68 169/69/69
f 41/91/91 177/306/311 176/307/312
f 142/262/265 167/7/7 175/10/10
f 175/10/10 138/236/239 142/262/265
f 179/94/94 91/155/155 43/67/67
f 167/7/7 142/262/265 2/267/270
f 68/59/59 173/305/310 177/306/311
f 169/69/69 177/306/311 173/305/310
f 282/5/5 139/251/254 1/239/242
f 280/308/313 141/241/244 140/248/251
f 281/9/9 143/249/252 138/236/239
f 172/70/70 178/309/314 70/63/63
