# Blender 4.0.0
# www.blender.org
mtllib Microwave011_Button9.mtl
o Microwave011_Button9
v 0.161282 -0.128806 0.091793
v 0.178475 -0.128806 0.089336
v 0.161691 -0.129456 0.091859
v 0.161339 -0.129453 0.089471
v 0.178063 -0.129453 0.089256
v 0.178413 -0.129453 0.091644
v 0.161806 -0.129484 0.091826
v 0.161372 -0.129484 0.089553
v 0.178189 -0.129485 0.089298
v 0.178379 -0.129484 0.091569
v 0.161341 -0.129472 0.091606
v 0.161694 -0.129472 0.089264
v 0.178411 -0.129472 0.089517
v 0.178058 -0.129472 0.091852
v 0.161683 -0.128837 0.091864
v 0.161333 -0.128837 0.089468
v 0.178067 -0.128836 0.089251
v 0.178418 -0.128836 0.091648
v 0.161328 -0.128819 0.091657
v 0.161675 -0.128824 0.089248
v 0.178431 -0.128819 0.089495
v 0.178091 -0.128812 0.091878
v 0.160497 -0.128641 0.094202
v 0.160483 -0.128643 0.087783
v 0.179250 -0.128634 0.087783
v 0.177545 -0.128932 0.089247
v 0.177558 -0.128835 0.091871
v 0.162225 -0.128835 0.091871
v 0.162200 -0.129456 0.089250
v 0.177515 -0.129455 0.089250
v 0.162209 -0.129454 0.091866
v 0.162222 -0.129472 0.089257
v 0.177530 -0.129472 0.089257
v 0.177542 -0.129467 0.091862
v 0.162222 -0.129472 0.091858
v 0.161453 -0.128806 0.089208
v 0.178309 -0.128806 0.089207
v 0.178294 -0.128806 0.091930
v 0.161441 -0.128806 0.091927
v 0.162199 -0.128824 0.089242
v 0.177538 -0.128824 0.089242
v 0.177547 -0.128819 0.091879
v 0.159431 -0.128647 0.093490
v 0.159431 -0.128640 0.088515
v 0.180321 -0.128627 0.088495
v 0.180321 -0.128640 0.093471
v 0.161327 -0.128836 0.089602
v 0.178422 -0.128922 0.089601
v 0.161333 -0.129455 0.091512
v 0.161332 -0.129453 0.089602
v 0.178419 -0.129453 0.091517
v 0.161321 -0.128819 0.091524
v 0.178431 -0.128819 0.091514
v 0.159437 -0.128621 0.088097
v 0.179917 -0.128762 0.087790
v 0.159830 -0.128641 0.094196
v 0.180315 -0.128611 0.093888
v 0.161281 -0.128806 0.089317
v 0.178466 -0.128806 0.091812
v 0.161339 -0.129453 0.091645
v 0.161683 -0.129455 0.089257
v 0.178413 -0.129453 0.089470
v 0.178066 -0.129453 0.091860
v 0.161372 -0.129484 0.091569
v 0.161543 -0.129485 0.089301
v 0.178378 -0.129484 0.089536
v 0.178220 -0.129485 0.091808
v 0.161704 -0.129477 0.091848
v 0.161342 -0.129472 0.089510
v 0.178015 -0.129479 0.089267
v 0.178410 -0.129472 0.091600
v 0.161334 -0.128836 0.091652
v 0.161681 -0.128924 0.089253
v 0.178418 -0.128835 0.089464
v 0.178074 -0.128835 0.091865
v 0.161731 -0.128819 0.091877
v 0.161322 -0.128819 0.089491
v 0.178076 -0.128812 0.089240
v 0.178424 -0.128819 0.091657
v 0.161398 -0.129455 0.091803
v 0.161396 -0.129453 0.089314
v 0.178354 -0.129455 0.089313
v 0.178356 -0.129455 0.091801
v 0.161447 -0.129485 0.091779
v 0.161416 -0.129485 0.089385
v 0.178329 -0.129485 0.089374
v 0.178337 -0.129485 0.091731
v 0.161409 -0.129477 0.091792
v 0.161406 -0.129477 0.089326
v 0.178344 -0.129477 0.089323
v 0.178345 -0.129477 0.091791
v 0.161392 -0.128838 0.091807
v 0.161390 -0.128836 0.089309
v 0.178360 -0.128837 0.089309
v 0.178360 -0.128836 0.091807
v 0.161382 -0.128813 0.091821
v 0.161377 -0.128813 0.089300
v 0.178373 -0.128813 0.089298
v 0.178373 -0.128812 0.091819
v 0.159906 -0.127939 0.087784
v 0.180321 -0.127939 0.088156
v 0.159432 -0.127939 0.093835
v 0.179835 -0.127939 0.094202
v 0.159431 -0.127939 0.088146
v 0.179848 -0.127939 0.087783
v 0.159891 -0.127939 0.094201
v 0.180320 -0.127939 0.093846
v 0.159493 -0.127939 0.087845
v 0.180258 -0.127939 0.087845
v 0.159493 -0.127939 0.094140
v 0.180258 -0.127939 0.094140
v 0.159826 -0.128762 0.087790
v 0.180315 -0.128616 0.088091
v 0.159437 -0.128637 0.093892
v 0.179925 -0.128641 0.094196
v 0.180132 -0.128803 0.094116
v 0.159654 -0.128803 0.094116
v 0.159681 -0.128803 0.087844
v 0.180087 -0.128803 0.087846
v 0.159503 -0.128803 0.093992
v 0.159515 -0.128803 0.087949
v 0.180238 -0.128803 0.087960
v 0.180251 -0.128803 0.093956
v 0.159494 -0.128625 0.087846
v 0.180257 -0.128637 0.087845
v 0.159494 -0.128628 0.094139
v 0.180258 -0.128622 0.094139
v 0.159914 -0.128787 0.087795
v 0.180304 -0.128787 0.088146
v 0.159444 -0.128781 0.093878
v 0.179911 -0.128781 0.094188
v 0.179314 -0.128787 0.094188
v 0.179309 -0.128787 0.087793
v 0.159443 -0.128788 0.093511
v 0.180309 -0.128787 0.093473
v 0.159448 -0.128787 0.088139
v 0.179910 -0.128787 0.087799
v 0.159903 -0.128787 0.094187
v 0.180308 -0.128781 0.093886
v 0.159508 -0.128787 0.087856
v 0.180244 -0.128787 0.087856
v 0.159505 -0.128787 0.094126
v 0.180247 -0.128787 0.094126
v 0.178525 -0.128805 0.089146
v 0.161200 -0.128805 0.089155
v 0.159602 -0.128805 0.093984
v 0.161225 -0.128805 0.092026
v 0.177538 -0.129371 0.091867
v 0.161351 -0.129480 0.089525
v 0.178401 -0.129480 0.091582
v 0.162231 -0.129480 0.091849
v 0.161328 -0.128835 0.091519
v 0.178426 -0.128833 0.089598
v 0.161313 -0.128810 0.091621
v 0.177558 -0.128810 0.089231
v 0.178438 -0.128810 0.091634
v 0.177555 -0.128810 0.091890
v 0.162207 -0.128933 0.089247
v 0.161757 -0.129480 0.089269
v 0.177978 -0.129480 0.091847
v 0.161732 -0.128810 0.089233
v 0.161731 -0.128810 0.091888
v 0.161352 -0.129480 0.091600
v 0.178400 -0.129480 0.089521
v 0.178419 -0.129452 0.089598
v 0.178424 -0.128836 0.091516
v 0.161311 -0.128810 0.089480
v 0.178442 -0.128810 0.089489
v 0.161369 -0.129477 0.091729
v 0.161469 -0.129477 0.089287
v 0.178382 -0.129477 0.089386
v 0.178283 -0.129477 0.091829
v 0.161358 -0.129453 0.091739
v 0.161459 -0.129455 0.089276
v 0.178393 -0.129455 0.089376
v 0.178292 -0.129455 0.091840
v 0.161353 -0.128836 0.091745
v 0.161454 -0.128836 0.089271
v 0.178398 -0.128837 0.089373
v 0.178296 -0.128838 0.091845
v 0.161343 -0.128812 0.091759
v 0.161438 -0.128812 0.089260
v 0.178412 -0.128812 0.089360
v 0.178308 -0.128812 0.091858
v 0.161471 -0.129477 0.091830
v 0.161368 -0.129477 0.089388
v 0.178280 -0.129477 0.089287
v 0.178383 -0.129477 0.091726
v 0.161461 -0.129456 0.091840
v 0.161358 -0.129453 0.089377
v 0.178290 -0.129456 0.089276
v 0.178394 -0.129453 0.091738
v 0.161455 -0.128837 0.091845
v 0.161352 -0.128837 0.089373
v 0.178296 -0.128837 0.089271
v 0.178399 -0.128836 0.091743
v 0.161447 -0.128813 0.091859
v 0.161339 -0.128813 0.089365
v 0.178308 -0.128812 0.089259
v 0.178410 -0.128812 0.091755
v 0.179271 -0.128641 0.094202
v 0.159456 -0.128620 0.087910
v 0.159558 -0.128641 0.094177
v 0.180296 -0.128612 0.094075
v 0.180296 -0.128623 0.087909
v 0.159456 -0.128637 0.094076
v 0.180195 -0.128638 0.094177
v 0.159457 -0.128798 0.093812
v 0.179825 -0.128798 0.094172
v 0.180288 -0.128798 0.088139
v 0.159939 -0.128798 0.087807
v 0.159921 -0.128798 0.094172
v 0.179827 -0.128798 0.087807
v 0.159464 -0.128798 0.088143
v 0.180294 -0.128798 0.093833
v 0.159484 -0.128798 0.087931
v 0.180177 -0.128795 0.087824
v 0.159580 -0.128798 0.094149
v 0.180273 -0.128798 0.094048
v 0.159579 -0.128795 0.087823
v 0.180267 -0.128798 0.087931
v 0.159472 -0.128795 0.094054
v 0.180172 -0.128798 0.094149
v 0.159435 -0.128769 0.093467
v 0.180315 -0.128768 0.088467
v 0.160461 -0.128768 0.087786
v 0.179251 -0.128768 0.094197
v 0.160491 -0.128768 0.094197
v 0.179329 -0.128768 0.087787
v 0.159436 -0.128768 0.088497
v 0.180317 -0.128768 0.093502
v 0.159461 -0.128768 0.087913
v 0.180191 -0.128762 0.087809
v 0.159561 -0.128768 0.094172
v 0.180292 -0.128768 0.094071
v 0.159559 -0.128762 0.087809
v 0.180291 -0.128768 0.087913
v 0.159460 -0.128768 0.094071
v 0.180190 -0.128768 0.094172
v 0.159624 -0.128805 0.087925
v 0.178550 -0.128805 0.092015
v 0.180147 -0.128805 0.093991
v 0.159455 -0.127939 0.087909
v 0.180195 -0.127939 0.087807
v 0.159557 -0.127939 0.094178
v 0.180297 -0.127939 0.094076
v 0.159557 -0.127939 0.087807
v 0.180297 -0.127939 0.087909
v 0.159455 -0.127939 0.094076
v 0.180195 -0.127939 0.094178
v 0.180310 -0.128768 0.088098
v 0.159499 -0.128768 0.087850
v 0.180253 -0.128768 0.087850
v 0.159498 -0.128768 0.094134
v 0.180254 -0.128768 0.094134
v 0.159442 -0.128768 0.088098
v 0.159832 -0.128768 0.094191
v 0.159522 -0.128798 0.087868
v 0.180229 -0.128798 0.087868
v 0.159516 -0.128798 0.094111
v 0.180235 -0.128798 0.094111
v 0.159470 -0.128787 0.087920
v 0.159568 -0.128787 0.094164
v 0.180285 -0.128787 0.094062
v 0.180282 -0.128787 0.087920
v 0.180183 -0.128787 0.094164
v 0.180131 -0.128805 0.087930
vn -0.9754 -0.2200 -0.0157
vn -0.9784 -0.2050 0.0259
vn -0.9864 -0.1643 -0.0109
vn -0.0077 -0.0276 -0.9996
vn 0.0063 -0.1964 -0.9805
vn -0.0078 -0.2077 -0.9782
vn 0.9792 -0.2009 0.0271
vn 0.9995 -0.0227 -0.0220
vn 0.9830 -0.1821 0.0231
vn 0.9835 -0.1811 -0.0010
vn 0.0044 -0.0293 0.9996
vn 0.0137 -0.2312 0.9728
vn -0.0045 -0.1726 0.9850
vn -0.0951 -0.9938 -0.0580
vn -0.1084 -0.9940 0.0115
vn -0.1014 -0.9948 0.0022
vn 0.0176 -0.9831 -0.1823
vn 0.0253 -0.9895 0.1420
vn -0.0757 -0.9913 0.1075
vn 0.0965 -0.9936 0.0583
vn 0.1093 -0.9940 -0.0094
vn 0.1025 -0.9947 -0.0015
vn -0.4245 -0.9051 -0.0243
vn -0.8244 -0.5596 0.0845
vn -0.8171 -0.5698 -0.0875
vn 0.0210 -0.7953 -0.6059
vn -0.0147 -0.6327 -0.7742
vn -0.0088 -0.6274 -0.7787
vn -0.0182 -0.8606 -0.5090
vn -0.0280 -0.9853 -0.1682
vn 0.4346 -0.9004 0.0209
vn 0.8256 -0.5601 -0.0692
vn 0.8149 -0.5737 0.0818
vn 0.4124 -0.9102 -0.0375
vn -0.0008 -0.9035 0.4286
vn 0.0074 -0.4321 0.9018
vn -0.0074 -0.5743 0.8186
vn -0.9749 -0.2219 0.0162
vn -0.8376 -0.5461 -0.0124
vn -0.7515 -0.6594 -0.0209
vn -0.0001 -0.3269 -0.9451
vn 0.0086 -0.0267 -0.9996
vn 0.9814 -0.1914 -0.0170
vn 0.7238 -0.6881 -0.0521
vn 0.8490 -0.5282 -0.0137
vn 0.0031 -0.6231 0.7821
vn -0.0275 -0.6677 0.7439
vn -0.3384 -0.9401 -0.0420
vn -0.0448 -0.9988 0.0173
vn -0.0379 -0.9991 -0.0211
vn -0.3528 -0.9343 0.0508
vn 0.0048 -0.8784 -0.4779
vn -0.0136 -0.9979 -0.0632
vn 0.0177 -0.9981 -0.0584
vn -0.0062 -0.9085 -0.4179
vn 0.0289 -0.3572 -0.9336
vn 0.3422 -0.9393 0.0234
vn 0.0469 -0.9988 -0.0172
vn 0.0357 -0.9992 0.0197
vn 0.3402 -0.9397 -0.0350
vn -0.0151 -0.9305 0.3660
vn 0.0128 -0.9988 0.0463
vn -0.0137 -0.9989 0.0447
vn 0.0163 -0.9237 0.3827
vn 0.0544 -0.2510 -0.9665
vn 0.0449 -0.2194 -0.9746
vn -0.0492 -0.0262 -0.9984
vn -0.0531 -0.2144 -0.9753
vn 0.0493 -0.2741 0.9604
vn 0.0037 -0.9886 0.1505
vn -0.0401 -0.6050 -0.7952
vn 0.0140 -0.8649 0.5017
vn 0.0419 -0.6029 0.7967
vn -0.0075 -0.2044 0.9789
vn -0.0359 -0.7868 0.6161
vn 0.0523 -0.2058 0.9772
vn 0.0406 -0.8207 -0.5699
vn -0.0570 -0.3604 -0.9311
vn 0.0288 -0.8664 0.4985
vn -0.9672 -0.2185 -0.1295
vn -0.9680 -0.2091 -0.1386
vn 0.9594 -0.2442 0.1414
vn 0.9758 -0.1863 0.1145
vn 0.9585 -0.2488 -0.1388
vn -0.8250 -0.5511 0.1257
vn 0.7912 -0.5986 0.1255
vn -0.2805 -0.2787 0.9185
vn -0.6737 -0.2888 0.6802
vn -0.3040 -0.2755 0.9120
vn -0.0550 -0.2351 0.9704
vn -0.0510 -0.2483 0.9673
vn -0.8920 -0.2584 -0.3708
vn -0.9036 -0.2785 -0.3255
vn -0.6748 -0.2867 -0.6800
vn -0.6760 -0.3082 -0.6694
vn 0.2711 -0.2751 -0.9224
vn 0.6719 -0.2945 -0.6795
vn 0.3077 -0.2667 -0.9133
vn 0.8929 -0.2758 0.3560
vn 0.9034 -0.2787 0.3260
vn -0.5541 -0.8041 0.2155
vn -0.3689 -0.9289 0.0319
vn -0.4148 -0.8123 -0.4100
vn -0.1822 -0.8019 -0.5690
vn 0.5612 -0.7998 -0.2131
vn 0.0850 -0.9946 -0.0588
vn 0.4139 -0.8094 0.4165
vn 0.1906 -0.7894 0.5835
vn -0.8944 -0.2505 0.3705
vn -0.4111 -0.8083 0.4215
vn -0.3086 -0.2729 -0.9112
vn 0.8909 -0.2779 -0.3592
vn 0.3900 -0.8166 -0.4256
vn 0.3099 -0.2692 0.9119
vn 0.6781 -0.2920 0.6745
vn -0.8987 -0.2855 0.3329
vn -0.3212 -0.8855 0.3358
vn -0.4336 -0.8817 0.1860
vn -0.9752 -0.1961 0.1026
vn -0.2565 -0.2851 -0.9235
vn -0.3279 -0.8764 -0.3527
vn -0.1825 -0.8838 -0.4307
vn 0.8893 -0.3104 -0.3357
vn 0.3344 -0.8757 -0.3483
vn 0.4228 -0.8890 -0.1759
vn 0.2705 -0.2861 0.9192
vn 0.3096 -0.8952 0.3205
vn 0.1718 -0.8847 0.4333
vn -0.6709 -0.3047 0.6760
vn -0.9633 -0.2218 0.1512
vn 0.9592 -0.2422 -0.1458
vn 0.6643 -0.3226 -0.6743
vn 0.6697 -0.3231 0.6686
vn 0.1719 -0.8048 -0.5681
vn -0.1448 -0.8059 0.5740
vn -0.5940 -0.7801 -0.1966
vn 0.5603 -0.8069 0.1870
vn -0.1714 -0.8751 0.4525
vn -0.4530 -0.8707 -0.1916
vn 0.1788 -0.8700 -0.4594
vn 0.4502 -0.8730 0.1874
vn -0.0040 -0.0204 0.9998
vn 0.0326 -0.0011 0.9995
vn -0.0347 -0.0012 0.9994
vn 0.0024 -0.0139 -0.9999
vn -0.0337 -0.0019 -0.9994
vn 0.0348 -0.0026 -0.9994
vn -0.9997 -0.0217 -0.0074
vn -0.9988 -0.0001 0.0481
vn -0.9987 -0.0015 -0.0505
vn 0.9998 -0.0187 0.0074
vn 0.9989 -0.0011 -0.0478
vn 0.9987 -0.0011 0.0509
vn -0.9498 -0.0219 -0.3120
vn -0.9493 -0.0017 -0.3143
vn -0.7038 -0.0166 -0.7102
vn -0.7067 -0.0027 -0.7075
vn 0.3093 -0.2461 -0.9186
vn 0.2992 -0.0020 -0.9542
vn 0.7007 -0.0204 -0.7131
vn 0.7072 -0.0014 -0.7070
vn -0.2987 -0.0255 0.9540
vn -0.2999 -0.0013 0.9540
vn -0.7065 -0.0217 0.7074
vn -0.7069 -0.0015 0.7073
vn 0.9486 -0.0203 0.3159
vn 0.9493 -0.0015 0.3145
vn 0.7130 -0.0227 0.7008
vn 0.7071 -0.0013 0.7071
vn -0.3123 -0.2515 -0.9161
vn -0.2994 -0.0027 -0.9541
vn -0.0504 -0.2000 -0.9785
vn 0.9467 -0.0204 -0.3214
vn 0.9497 -0.0009 -0.3133
vn 0.9979 -0.0195 -0.0612
vn -0.9481 -0.0214 0.3172
vn -0.9496 -0.0003 0.3136
vn -0.9979 -0.0267 0.0595
vn 0.3083 -0.0276 0.9509
vn 0.2993 -0.0004 0.9542
vn 0.0403 -0.0331 0.9986
vn -0.7837 -0.6212 0.0028
vn -0.4730 -0.8810 0.0040
vn -0.9102 -0.4107 0.0540
vn 0.0018 -0.6557 0.7550
vn -0.0026 -0.9083 0.4182
vn 0.0389 -0.4725 0.8804
vn -0.0056 -0.9303 0.3668
vn 0.0230 -0.9970 0.0738
vn -0.0163 -0.9972 0.0723
vn 0.0052 -0.8644 -0.5027
vn -0.0224 -0.9881 -0.1521
vn -0.0111 -0.9049 -0.4254
vn 0.0011 -0.5832 -0.8124
vn -0.0367 -0.5269 -0.8491
vn 0.0262 -0.9885 -0.1488
vn -0.3605 -0.9326 -0.0143
vn -0.1060 -0.9940 0.0284
vn -0.0858 -0.9957 -0.0339
vn 0.3540 -0.9350 -0.0193
vn 0.7955 -0.6059 -0.0064
vn 0.4813 -0.8765 0.0112
vn -0.3669 -0.9237 -0.1101
vn -0.7041 -0.6725 -0.2279
vn -0.7883 -0.6145 -0.0303
vn -0.5155 -0.6830 -0.5174
vn -0.2197 -0.9466 -0.2361
vn 0.1735 -0.7862 -0.5931
vn 0.0275 -0.5715 -0.8202
vn 0.5135 -0.6786 -0.5252
vn 0.2411 -0.9411 -0.2370
vn 0.0881 -0.9958 -0.0256
vn -0.0893 -0.9319 0.3517
vn -0.2176 -0.6664 0.7131
vn -0.0326 -0.5702 0.8209
vn -0.5150 -0.6845 0.5160
vn -0.2313 -0.9434 0.2377
vn 0.3795 -0.9198 0.0993
vn 0.0822 -0.9965 0.0136
vn 0.7298 -0.6402 0.2400
vn 0.9147 -0.3989 0.0656
vn 0.5150 -0.6872 0.5125
vn 0.2439 -0.9412 0.2339
vn -0.1508 -0.7933 -0.5899
vn 0.3530 -0.9284 -0.1157
vn 0.7034 -0.6729 -0.2289
vn 0.7938 -0.6077 -0.0241
vn -0.5817 -0.7992 0.1512
vn 0.1080 -0.9288 0.3546
vn 0.2194 -0.6684 0.7107
vn -0.9998 -0.0210 0.0078
vn 0.0036 -0.0225 0.9997
vn 0.9629 -0.2697 -0.0020
vn 0.9643 -0.2556 -0.0694
vn 0.9998 -0.0190 -0.0053
vn -0.0016 -0.2419 -0.9703
vn 0.0031 -0.2190 0.9757
vn -0.0025 -0.2785 0.9604
vn -0.0395 -0.0218 0.9990
vn -0.0496 -0.2532 0.9661
vn 0.0053 -0.2065 -0.9784
vn 0.0435 -0.1793 -0.9828
vn -0.9784 -0.2066 0.0050
vn -0.9577 -0.2875 -0.0093
vn -0.9981 -0.0184 -0.0595
vn -0.9641 -0.2560 -0.0703
vn 0.9772 -0.2119 0.0164
vn 0.9980 -0.0204 0.0605
vn -0.9114 -0.2692 -0.3112
vn -0.6873 -0.2843 -0.6684
vn 0.6814 -0.2863 -0.6736
vn -0.2985 -0.2659 0.9166
vn -0.6773 -0.2781 0.6811
vn 0.9186 -0.2348 0.3180
vn 0.6774 -0.2781 0.6810
vn 0.9113 -0.2689 -0.3118
vn -0.9061 -0.2838 0.3138
vn 0.2996 -0.2649 0.9166
vn -0.0024 -1.0000 -0.0022
vn -0.0108 -0.9999 0.0097
vn -0.0140 -0.9997 -0.0210
vn -0.0004 -1.0000 0.0021
vn 0.0019 -1.0000 -0.0024
vn 0.0156 -0.9997 -0.0184
vn -0.0002 -1.0000 0.0023
vn 0.0122 -0.9999 0.0101
vn -0.0027 -0.0134 -0.9999
vt 0.582259 0.691484
vt 0.582259 0.722574
vt 0.582259 0.691474
vt 0.584456 0.685774
vt 0.622576 0.685774
vt 0.584455 0.685774
vt 0.624772 0.722580
vt 0.624772 0.691521
vt 0.624772 0.722590
vt 0.624772 0.691484
vt 0.622576 0.728288
vt 0.622575 0.728288
vt 0.584456 0.728288
vt 0.582434 0.687881
vt 0.582280 0.723901
vt 0.582278 0.690268
vt 0.624256 0.686465
vt 0.624330 0.727544
vt 0.582530 0.726819
vt 0.624596 0.726194
vt 0.624750 0.689998
vt 0.624752 0.723905
vt 0.582282 0.690099
vt 0.582282 0.724076
vt 0.582282 0.689981
vt 0.623780 0.685968
vt 0.584455 0.685774
vt 0.622576 0.685774
vt 0.583288 0.685963
vt 0.582732 0.686499
vt 0.624752 0.723823
vt 0.624750 0.690093
vt 0.624750 0.723977
vt 0.624749 0.690048
vt 0.584456 0.728288
vt 0.622575 0.728288
vt 0.584455 0.728288
vt 0.582259 0.722578
vt 0.582259 0.722585
vt 0.582283 0.689902
vt 0.584454 0.685774
vt 0.622575 0.685774
vt 0.624772 0.691483
vt 0.624749 0.689976
vt 0.624772 0.722418
vt 0.622579 0.728288
vt 0.583291 0.728104
vt 0.582283 0.689848
vt 0.582396 0.725583
vt 0.582426 0.688164
vt 0.582279 0.723928
vt 0.622577 0.685774
vt 0.582766 0.686456
vt 0.624286 0.686475
vt 0.583322 0.685952
vt 0.622577 0.685774
vt 0.624748 0.724124
vt 0.624628 0.688395
vt 0.624614 0.725823
vt 0.624750 0.689978
vt 0.583311 0.728109
vt 0.624266 0.727600
vt 0.582726 0.727572
vt 0.622579 0.728288
vt 0.623876 0.685981
vt 0.623876 0.685980
vt 0.583155 0.685980
vt 0.583156 0.685981
vt 0.623876 0.728083
vt 0.583358 0.728120
vt 0.583156 0.685982
vt 0.623702 0.728107
vt 0.623875 0.728080
vt 0.584456 0.728288
vt 0.583156 0.728079
vt 0.623876 0.728081
vt 0.623876 0.685979
vt 0.583155 0.685979
vt 0.623877 0.728085
vt 0.582290 0.689475
vt 0.582290 0.689459
vt 0.624741 0.724588
vt 0.624741 0.724603
vt 0.624741 0.689459
vt 0.582290 0.724615
vt 0.624741 0.724615
vt 0.582638 0.727466
vt 0.582512 0.726635
vt 0.582638 0.727461
vt 0.583155 0.728083
vt 0.583156 0.728081
vt 0.582385 0.688254
vt 0.582385 0.688240
vt 0.582512 0.687428
vt 0.582511 0.687418
vt 0.624394 0.686596
vt 0.624520 0.687428
vt 0.624393 0.686601
vt 0.624646 0.725808
vt 0.624646 0.725823
vt 0.582385 0.725790
vt 0.582284 0.724110
vt 0.582512 0.687441
vt 0.582638 0.686608
vt 0.624646 0.688272
vt 0.624578 0.687730
vt 0.624519 0.726622
vt 0.624393 0.727455
vt 0.582385 0.725808
vt 0.582512 0.726622
vt 0.582638 0.686601
vt 0.624646 0.688254
vt 0.624519 0.687440
vt 0.624393 0.727461
vt 0.624520 0.726635
vt 0.582385 0.725823
vt 0.582511 0.726658
vt 0.582385 0.725844
vt 0.582290 0.724603
vt 0.582638 0.686596
vt 0.582511 0.687405
vt 0.582637 0.686589
vt 0.624646 0.688240
vt 0.624520 0.687405
vt 0.624646 0.688218
vt 0.624393 0.727466
vt 0.624520 0.726658
vt 0.624394 0.727473
vt 0.582511 0.726645
vt 0.582290 0.724588
vt 0.624741 0.689475
vt 0.624520 0.687418
vt 0.624520 0.726645
vt 0.624393 0.686608
vt 0.582638 0.727455
vt 0.582385 0.688273
vt 0.624646 0.725788
vt 0.582638 0.727473
vt 0.582385 0.688220
vt 0.624394 0.686590
vt 0.624646 0.725843
vt 0.584410 0.728288
vt 0.623771 0.728215
vt 0.583210 0.728212
vt 0.622622 0.685774
vt 0.583239 0.685848
vt 0.623798 0.685848
vt 0.582259 0.690502
vt 0.582281 0.725815
vt 0.582282 0.688225
vt 0.624772 0.723538
vt 0.624751 0.688291
vt 0.624750 0.725885
vt 0.582362 0.686786
vt 0.582362 0.686783
vt 0.582466 0.686449
vt 0.582466 0.686447
vt 0.624462 0.686114
vt 0.624462 0.686111
vt 0.624566 0.686449
vt 0.624566 0.686447
vt 0.582569 0.727951
vt 0.582569 0.727952
vt 0.582466 0.727614
vt 0.582466 0.727615
vt 0.624669 0.727277
vt 0.624669 0.727279
vt 0.624566 0.727614
vt 0.624566 0.727615
vt 0.582569 0.686114
vt 0.582569 0.686111
vt 0.583081 0.685859
vt 0.624669 0.686786
vt 0.624669 0.686783
vt 0.624747 0.687884
vt 0.582362 0.727277
vt 0.582362 0.727279
vt 0.582285 0.726179
vt 0.624462 0.727951
vt 0.624462 0.727952
vt 0.623950 0.728204
vt 0.582259 0.723782
vt 0.582281 0.725826
vt 0.582285 0.726168
vt 0.622745 0.728288
vt 0.623794 0.728213
vt 0.623950 0.728203
vt 0.583225 0.728212
vt 0.624442 0.727834
vt 0.582638 0.727964
vt 0.623811 0.685851
vt 0.582677 0.686083
vt 0.583250 0.685849
vt 0.622741 0.685774
vt 0.583227 0.685850
vt 0.624388 0.686097
vt 0.582283 0.688090
vt 0.582384 0.727146
vt 0.582407 0.686812
vt 0.624748 0.688066
vt 0.624772 0.723530
vt 0.624748 0.725959
vt 0.582363 0.686810
vt 0.582362 0.686801
vt 0.582283 0.688128
vt 0.582466 0.686459
vt 0.582466 0.686465
vt 0.624461 0.686118
vt 0.623950 0.685860
vt 0.624565 0.686459
vt 0.624565 0.686465
vt 0.624639 0.686869
vt 0.582570 0.727945
vt 0.582570 0.727947
vt 0.583209 0.728212
vt 0.582466 0.727606
vt 0.582466 0.727601
vt 0.624669 0.727258
vt 0.624684 0.726961
vt 0.624669 0.727265
vt 0.624747 0.726169
vt 0.624565 0.727606
vt 0.624565 0.727601
vt 0.582570 0.686119
vt 0.624669 0.686810
vt 0.624669 0.686801
vt 0.624750 0.688173
vt 0.582363 0.727261
vt 0.624461 0.727945
vt 0.624462 0.727947
vt 0.582259 0.723506
vt 0.622621 0.728288
vt 0.624772 0.690299
vt 0.624747 0.687891
vt 0.624772 0.690556
vt 0.584347 0.685774
vt 0.622601 0.728288
vt 0.584409 0.728288
vt 0.583081 0.728204
vt 0.583081 0.728203
vt 0.622763 0.685774
vt 0.623950 0.685859
vt 0.582259 0.723444
vt 0.582259 0.690496
vt 0.582285 0.687884
vt 0.582285 0.687891
vt 0.624772 0.723675
vt 0.624747 0.726179
vt 0.582362 0.686792
vt 0.582466 0.686453
vt 0.624565 0.686453
vt 0.582569 0.727949
vt 0.582466 0.727611
vt 0.624669 0.727272
vt 0.624565 0.727611
vt 0.624669 0.686792
vt 0.582362 0.727272
vt 0.624462 0.727949
vt 0.582536 0.687610
vt 0.582501 0.727452
vt 0.582498 0.686622
vt 0.582536 0.726609
vt 0.624465 0.687408
vt 0.624537 0.686630
vt 0.624512 0.726412
vt 0.624524 0.727454
vt 0.584424 0.685774
s 1
f 50/1/1 152/2/2 47/3/3
f 158/4/4 30/5/5 29/6/6
f 51/7/7 48/8/8 166/9/9
f 48/8/8 51/7/7 165/10/10
f 148/11/11 27/12/12 28/13/13
f 85/14/14 64/15/15 8/16/16
f 9/17/17 67/18/18 84/19/19
f 87/20/20 66/21/21 10/22/22
f 149/23/23 11/24/24 69/25/25
f 149/23/23 8/16/16 64/15/15
f 70/26/26 32/27/27 33/28/28
f 159/29/29 9/17/17 65/30/30
f 150/31/31 13/32/32 71/33/33
f 164/34/34 10/22/22 66/21/21
f 151/35/35 34/36/36 35/37/37
f 49/38/38 69/25/25 11/24/24
f 29/6/6 33/28/28 32/27/27
f 51/7/7 71/33/33 13/32/32
f 47/3/3 52/39/39 77/40/40
f 40/41/41 26/42/42 158/4/4
f 153/43/43 21/44/44 53/45/45
f 153/43/43 166/9/9 48/8/8
f 28/13/13 42/46/46 76/47/47
f 167/48/48 1/49/49 58/50/50
f 154/51/51 77/40/40 52/39/39
f 155/52/52 36/53/53 37/54/54
f 161/55/55 41/56/56 40/41/41
f 156/57/57 2/58/58 59/59/59
f 168/60/60 53/45/45 21/44/44
f 162/61/61 38/62/62 39/63/63
f 157/64/64 76/47/47 42/46/46
f 5/65/65 26/42/42 17/66/66
f 26/42/42 5/65/65 30/5/5
f 73/67/67 29/6/6 61/68/68
f 148/11/11 75/69/69 27/12/12
f 84/19/19 67/18/18 7/70/70
f 159/29/29 12/71/71 32/27/27
f 160/72/72 7/70/70 67/18/18
f 160/72/72 14/73/73 34/36/36
f 30/5/5 70/26/26 33/28/28
f 61/68/68 32/27/27 12/71/71
f 31/74/74 68/75/75 35/37/37
f 63/76/76 34/36/36 14/73/73
f 34/36/36 63/76/76 148/11/11
f 17/66/66 41/56/56 78/77/77
f 41/56/56 17/66/66 26/42/42
f 20/78/78 158/4/4 73/67/67
f 27/12/12 22/79/79 42/46/46
f 155/52/52 78/77/77 41/56/56
f 161/55/55 40/41/41 20/78/78
f 4/80/80 47/3/3 16/81/81
f 6/82/82 166/9/9 18/83/83
f 165/10/10 74/84/84 48/8/8
f 152/2/2 19/85/85 52/39/39
f 18/83/83 53/45/45 79/86/86
f 154/51/51 52/39/39 19/85/85
f 156/57/57 79/86/86 53/45/45
f 193/87/87 80/88/88 189/89/89
f 15/90/90 189/89/89 3/91/91
f 190/92/92 16/81/81 194/93/93
f 81/94/94 194/93/93 93/95/95
f 195/96/96 82/97/97 191/98/98
f 192/99/99 18/83/83 196/100/100
f 169/101/101 64/15/15 84/19/19
f 163/102/102 169/101/101 11/24/24
f 89/103/103 65/30/30 85/14/14
f 159/29/29 170/104/104 12/71/71
f 171/105/105 66/21/21 86/106/106
f 164/34/34 171/105/105 13/32/32
f 91/107/107 67/18/18 87/20/20
f 160/72/72 172/108/108 14/73/73
f 173/109/109 11/24/24 169/101/101
f 80/88/88 169/101/101 88/110/110
f 174/111/111 12/71/71 170/104/104
f 81/94/94 170/104/104 89/103/103
f 175/112/112 13/32/32 171/105/105
f 82/97/97 171/105/105 90/113/113
f 176/114/114 14/73/73 172/108/108
f 83/115/115 172/108/108 91/107/107
f 177/116/116 96/117/117 181/118/118
f 72/119/119 181/118/118 19/85/85
f 178/120/120 97/121/121 182/122/122
f 179/123/123 98/124/124 183/125/125
f 74/84/84 183/125/125 21/44/44
f 180/126/126 99/127/127 184/128/128
f 75/69/69 184/128/128 22/79/79
f 182/122/122 58/50/50 36/53/53
f 184/128/128 59/59/59 38/62/62
f 173/109/109 92/129/129 177/116/116
f 60/130/130 177/116/116 72/119/119
f 92/129/129 173/109/109 80/88/88
f 178/120/120 61/68/68 174/111/111
f 62/131/131 179/123/123 74/84/84
f 179/123/123 62/131/131 175/112/112
f 94/132/132 175/112/112 82/97/97
f 63/76/76 180/126/126 75/69/69
f 180/126/126 63/76/76 176/114/114
f 95/133/133 176/114/114 83/115/115
f 68/75/75 84/19/19 7/70/70
f 149/23/23 85/14/14 8/16/16
f 187/134/134 86/106/106 9/17/17
f 150/31/31 87/20/20 10/22/22
f 189/89/89 88/110/110 185/135/135
f 3/91/91 185/135/135 68/75/75
f 190/92/92 89/103/103 186/136/136
f 4/80/80 186/136/136 69/25/25
f 191/98/98 90/113/113 187/134/134
f 5/65/65 187/134/134 70/26/26
f 192/99/99 91/107/107 188/137/137
f 6/82/82 188/137/137 71/33/33
f 193/87/87 76/47/47 197/138/138
f 92/129/129 197/138/138 96/117/117
f 194/93/93 77/40/40 198/139/139
f 93/95/95 198/139/139 97/121/121
f 195/96/96 78/77/77 199/140/140
f 94/132/132 199/140/140 98/124/124
f 196/100/100 79/86/86 200/141/141
f 95/133/133 200/141/141 99/127/127
f 162/61/61 197/138/138 76/47/47
f 96/117/117 39/63/63 1/49/49
f 167/48/48 198/139/139 77/40/40
f 98/124/124 37/54/54 2/58/58
f 156/57/57 200/141/141 79/86/86
f 87/20/20 67/18/18 9/17/17
f 87/20/20 9/17/17 86/106/106
f 23/142/142 103/143/143 106/144/144
f 25/145/145 100/146/146 105/147/147
f 44/148/148 102/149/149 104/150/150
f 46/151/151 101/152/152 107/153/153
f 202/154/154 104/150/150 243/155/155
f 124/156/156 243/155/155 108/157/157
f 233/158/158 105/147/147 244/159/159
f 125/160/160 244/159/159 109/161/161
f 203/162/162 106/144/144 245/163/163
f 126/164/164 245/163/163 110/165/165
f 204/166/166 107/153/153 246/167/167
f 127/168/168 246/167/167 111/169/169
f 236/170/170 108/157/157 247/171/171
f 112/172/172 247/171/171 100/146/146
f 205/173/173 109/161/161 248/174/174
f 113/175/175 248/174/174 101/152/152
f 206/176/176 110/165/165 249/177/177
f 114/178/178 249/177/177 102/149/149
f 207/179/179 111/169/169 250/180/180
f 115/181/181 250/180/180 103/143/143
f 134/182/182 208/183/183 130/184/184
f 132/185/185 209/186/186 131/187/187
f 212/188/188 116/189/189 209/186/186
f 116/189/189 212/188/188 117/190/190
f 213/191/191 118/192/192 211/193/193
f 133/194/194 211/193/193 128/195/195
f 118/192/192 213/191/191 119/196/196
f 214/197/197 120/198/198 208/183/183
f 120/198/198 214/197/197 121/199/199
f 210/200/200 135/201/201 215/202/202
f 216/203/203 121/199/199 214/197/197
f 262/204/204 214/197/197 136/205/205
f 216/203/203 140/206/206 258/207/207
f 217/208/208 119/196/196 213/191/191
f 217/208/208 213/191/191 137/209/209
f 217/208/208 141/210/210 259/211/211
f 119/196/196 259/211/211 122/212/212
f 218/213/213 117/190/190 212/188/188
f 263/214/214 212/188/188 138/215/215
f 218/213/213 142/216/216 260/217/217
f 117/190/190 260/217/217 120/198/198
f 219/218/218 123/219/219 215/202/202
f 264/220/220 215/202/202 139/221/221
f 219/218/218 143/222/222 261/223/223
f 123/219/219 261/223/223 116/189/189
f 220/224/224 121/199/199 258/207/207
f 220/224/224 258/207/207 140/206/206
f 220/224/224 128/195/195 211/193/193
f 221/225/225 122/212/212 259/211/211
f 265/226/226 259/211/211 141/210/210
f 221/225/225 129/227/227 210/200/200
f 222/228/228 120/198/198 260/217/217
f 222/228/228 260/217/217 142/216/216
f 222/228/228 130/184/184 208/183/183
f 223/229/229 116/189/189 261/223/223
f 266/230/230 261/223/223 143/222/222
f 223/229/229 131/187/187 209/186/186
f 43/231/231 130/184/184 114/178/178
f 201/232/232 131/187/187 115/181/181
f 225/233/233 129/227/227 251/234/234
f 45/235/235 251/234/234 113/175/175
f 226/236/236 128/195/195 112/172/172
f 227/237/237 23/142/142 228/238/238
f 132/185/185 228/238/238 138/215/215
f 228/238/238 56/239/239 257/240/240
f 229/241/241 128/195/195 226/236/236
f 133/194/194 55/242/242 137/209/209
f 224/243/243 44/148/148 230/244/244
f 134/182/182 230/244/244 136/205/205
f 230/244/244 54/245/245 256/246/246
f 46/151/151 225/233/233 45/235/235
f 225/233/233 46/151/151 231/247/247
f 129/227/227 231/247/247 135/201/201
f 231/247/247 57/248/248 139/221/221
f 232/249/249 136/205/205 256/246/246
f 202/154/154 256/246/246 54/245/245
f 232/249/249 124/156/156 252/250/250
f 262/204/204 252/250/250 140/206/206
f 233/158/158 137/209/209 55/242/242
f 233/158/158 125/160/160 253/251/251
f 217/208/208 253/251/251 141/210/210
f 234/252/252 138/215/215 257/240/240
f 203/162/162 257/240/240 56/239/239
f 234/252/252 126/164/164 254/253/253
f 263/214/214 254/253/253 142/216/216
f 204/166/166 139/221/221 57/248/248
f 235/254/254 127/168/168 255/255/255
f 264/220/220 255/255/255 143/222/222
f 236/170/170 140/206/206 252/250/250
f 236/170/170 252/250/250 124/156/156
f 220/224/224 112/172/172 128/195/195
f 237/256/256 141/210/210 253/251/251
f 205/173/173 253/251/251 125/160/160
f 237/256/256 113/175/175 251/234/234
f 265/226/226 251/234/234 129/227/227
f 238/257/257 142/216/216 254/253/253
f 206/176/176 254/253/253 126/164/164
f 238/257/257 114/178/178 130/184/184
f 239/258/258 143/222/222 255/255/255
f 207/179/179 255/255/255 127/168/168
f 239/258/258 115/181/181 131/187/187
f 1/49/49 145/259/259 58/50/50
f 146/260/260 121/199/199 240/261/261
f 147/262/262 240/261/261 145/259/259
f 144/263/263 36/53/53 145/259/259
f 240/261/261 119/196/196 267/264/264
f 2/58/58 241/265/265 59/59/59
f 242/266/266 241/265/265 144/263/263
f 242/266/266 144/263/263 267/264/264
f 123/219/219 267/264/264 122/212/212
f 38/62/62 147/262/262 39/63/63
f 147/262/262 38/62/62 241/265/265
f 242/266/266 117/190/190 146/260/260
f 39/63/63 147/262/262 1/49/49
f 37/54/54 144/263/263 2/58/58
f 118/192/192 240/261/261 121/199/199
f 49/38/38 152/2/2 50/1/1
f 158/4/4 26/42/42 30/5/5
f 31/74/74 148/11/11 28/13/13
f 85/14/14 84/19/19 64/15/15
f 87/20/20 86/106/106 66/21/21
f 149/23/23 163/102/102 11/24/24
f 163/102/102 149/23/23 64/15/15
f 70/26/26 159/29/29 32/27/27
f 159/29/29 70/26/26 9/17/17
f 150/31/31 164/34/34 13/32/32
f 164/34/34 150/31/31 10/22/22
f 151/35/35 160/72/72 34/36/36
f 160/72/72 151/35/35 7/70/70
f 49/38/38 50/1/1 69/25/25
f 29/6/6 30/5/5 33/28/28
f 165/10/10 51/7/7 13/32/32
f 31/74/74 34/36/36 148/11/11
f 34/36/36 31/74/74 35/37/37
f 47/3/3 152/2/2 52/39/39
f 40/41/41 41/56/56 26/42/42
f 166/9/9 153/43/43 53/45/45
f 28/13/13 27/12/12 42/46/46
f 167/48/48 154/51/51 1/49/49
f 154/51/51 167/48/48 77/40/40
f 155/52/52 161/55/55 36/53/53
f 161/55/55 155/52/52 41/56/56
f 156/57/57 168/60/60 2/58/58
f 168/60/60 156/57/57 53/45/45
f 162/61/61 157/64/64 38/62/62
f 157/64/64 162/61/61 76/47/47
f 84/19/19 85/14/14 65/30/30
f 73/67/67 158/4/4 29/6/6
f 15/90/90 31/74/74 28/13/13
f 31/74/74 15/90/90 3/91/91
f 148/11/11 63/76/76 75/69/69
f 65/30/30 9/17/17 84/19/19
f 68/75/75 151/35/35 35/37/37
f 151/35/35 68/75/75 7/70/70
f 30/5/5 5/65/65 70/26/26
f 61/68/68 29/6/6 32/27/27
f 31/74/74 3/91/91 68/75/75
f 20/78/78 40/41/41 158/4/4
f 15/90/90 28/13/13 76/47/47
f 27/12/12 75/69/69 22/79/79
f 78/77/77 155/52/52 37/54/54
f 22/79/79 157/64/64 42/46/46
f 157/64/64 22/79/79 38/62/62
f 4/80/80 50/1/1 47/3/3
f 60/130/130 152/2/2 49/38/38
f 152/2/2 60/130/130 72/119/119
f 6/82/82 51/7/7 166/9/9
f 165/10/10 62/131/131 74/84/84
f 50/1/1 4/80/80 69/25/25
f 60/130/130 49/38/38 11/24/24
f 51/7/7 6/82/82 71/33/33
f 62/131/131 165/10/10 13/32/32
f 16/81/81 47/3/3 77/40/40
f 152/2/2 72/119/119 19/85/85
f 18/83/83 166/9/9 53/45/45
f 74/84/84 153/43/43 48/8/8
f 153/43/43 74/84/84 21/44/44
f 193/87/87 92/129/129 80/88/88
f 15/90/90 193/87/87 189/89/89
f 190/92/92 4/80/80 16/81/81
f 81/94/94 190/92/92 194/93/93
f 195/96/96 5/65/65 17/66/66
f 195/96/96 94/132/132 82/97/97
f 5/65/65 195/96/96 191/98/98
f 192/99/99 6/82/82 18/83/83
f 95/133/133 192/99/99 196/100/100
f 192/99/99 95/133/133 83/115/115
f 169/101/101 163/102/102 64/15/15
f 88/110/110 169/101/101 84/19/19
f 170/104/104 159/29/29 65/30/30
f 89/103/103 170/104/104 65/30/30
f 171/105/105 164/34/34 66/21/21
f 90/113/113 171/105/105 86/106/106
f 172/108/108 160/72/72 67/18/18
f 91/107/107 172/108/108 67/18/18
f 173/109/109 60/130/130 11/24/24
f 80/88/88 173/109/109 169/101/101
f 174/111/111 61/68/68 12/71/71
f 81/94/94 174/111/111 170/104/104
f 175/112/112 62/131/131 13/32/32
f 82/97/97 175/112/112 171/105/105
f 176/114/114 63/76/76 14/73/73
f 83/115/115 176/114/114 172/108/108
f 177/116/116 92/129/129 96/117/117
f 72/119/119 177/116/116 181/118/118
f 178/120/120 20/78/78 73/67/67
f 178/120/120 93/95/95 97/121/121
f 20/78/78 178/120/120 182/122/122
f 179/123/123 94/132/132 98/124/124
f 74/84/84 179/123/123 183/125/125
f 180/126/126 95/133/133 99/127/127
f 75/69/69 180/126/126 184/128/128
f 181/118/118 154/51/51 19/85/85
f 181/118/118 96/117/117 1/49/49
f 154/51/51 181/118/118 1/49/49
f 182/122/122 161/55/55 20/78/78
f 182/122/122 97/121/121 58/50/50
f 161/55/55 182/122/122 36/53/53
f 183/125/125 168/60/60 21/44/44
f 183/125/125 98/124/124 2/58/58
f 168/60/60 183/125/125 2/58/58
f 184/128/128 99/127/127 59/59/59
f 22/79/79 184/128/128 38/62/62
f 60/130/130 173/109/109 177/116/116
f 178/120/120 81/94/94 93/95/95
f 178/120/120 73/67/67 61/68/68
f 81/94/94 178/120/120 174/111/111
f 94/132/132 179/123/123 175/112/112
f 95/133/133 180/126/126 176/114/114
f 185/135/135 88/110/110 84/19/19
f 68/75/75 185/135/135 84/19/19
f 186/136/136 89/103/103 85/14/14
f 149/23/23 186/136/136 85/14/14
f 186/136/136 149/23/23 69/25/25
f 187/134/134 90/113/113 86/106/106
f 70/26/26 187/134/134 9/17/17
f 188/137/137 91/107/107 87/20/20
f 150/31/31 188/137/137 87/20/20
f 188/137/137 150/31/31 71/33/33
f 189/89/89 80/88/88 88/110/110
f 3/91/91 189/89/89 185/135/135
f 190/92/92 81/94/94 89/103/103
f 4/80/80 190/92/92 186/136/136
f 191/98/98 82/97/97 90/113/113
f 5/65/65 191/98/98 187/134/134
f 192/99/99 83/115/115 91/107/107
f 6/82/82 192/99/99 188/137/137
f 193/87/87 15/90/90 76/47/47
f 92/129/129 193/87/87 197/138/138
f 194/93/93 16/81/81 77/40/40
f 93/95/95 194/93/93 198/139/139
f 195/96/96 17/66/66 78/77/77
f 94/132/132 195/96/96 199/140/140
f 196/100/100 18/83/83 79/86/86
f 95/133/133 196/100/100 200/141/141
f 197/138/138 162/61/61 39/63/63
f 96/117/117 197/138/138 39/63/63
f 198/139/139 167/48/48 58/50/50
f 97/121/121 198/139/139 58/50/50
f 199/140/140 78/77/77 37/54/54
f 98/124/124 199/140/140 37/54/54
f 200/141/141 156/57/57 59/59/59
f 99/127/127 200/141/141 59/59/59
f 43/231/231 114/178/178 102/149/149
f 201/232/232 115/181/181 103/143/143
f 45/235/235 113/175/175 101/152/152
f 24/267/267 112/172/172 100/146/146
f 23/142/142 201/232/232 103/143/143
f 56/239/239 23/142/142 106/144/144
f 25/145/145 24/267/267 100/146/146
f 55/242/242 25/145/145 105/147/147
f 44/148/148 43/231/231 102/149/149
f 54/245/245 44/148/148 104/150/150
f 46/151/151 45/235/235 101/152/152
f 57/248/248 46/151/151 107/153/153
f 202/154/154 54/245/245 104/150/150
f 124/156/156 202/154/154 243/155/155
f 233/158/158 55/242/242 105/147/147
f 125/160/160 233/158/158 244/159/159
f 203/162/162 56/239/239 106/144/144
f 126/164/164 203/162/162 245/163/163
f 204/166/166 57/248/248 107/153/153
f 127/168/168 204/166/166 246/167/167
f 236/170/170 124/156/156 108/157/157
f 112/172/172 236/170/170 247/171/171
f 205/173/173 125/160/160 109/161/161
f 113/175/175 205/173/173 248/174/174
f 206/176/176 126/164/164 110/165/165
f 114/178/178 206/176/176 249/177/177
f 207/179/179 127/168/168 111/169/169
f 115/181/181 207/179/179 250/180/180
f 132/185/185 212/188/188 209/186/186
f 212/188/188 132/185/185 138/215/215
f 133/194/194 213/191/191 211/193/193
f 213/191/191 133/194/194 137/209/209
f 134/182/182 214/197/197 208/183/183
f 214/197/197 134/182/182 136/205/205
f 210/200/200 123/219/219 122/212/212
f 210/200/200 129/227/227 135/201/201
f 123/219/219 210/200/200 215/202/202
f 215/202/202 135/201/201 139/221/221
f 262/204/204 216/203/203 214/197/197
f 216/203/203 262/204/204 140/206/206
f 121/199/199 216/203/203 258/207/207
f 119/196/196 217/208/208 259/211/211
f 263/214/214 218/213/213 212/188/188
f 218/213/213 263/214/214 142/216/216
f 117/190/190 218/213/213 260/217/217
f 264/220/220 219/218/218 215/202/202
f 219/218/218 264/220/220 143/222/222
f 123/219/219 219/218/218 261/223/223
f 220/224/224 118/192/192 121/199/199
f 118/192/192 220/224/224 211/193/193
f 265/226/226 221/225/225 259/211/211
f 221/225/225 265/226/226 129/227/227
f 122/212/212 221/225/225 210/200/200
f 120/198/198 222/228/228 208/183/183
f 266/230/230 223/229/229 261/223/223
f 223/229/229 266/230/230 131/187/187
f 116/189/189 223/229/229 209/186/186
f 224/243/243 134/182/182 130/184/184
f 43/231/231 224/243/243 130/184/184
f 227/237/237 132/185/185 131/187/187
f 201/232/232 227/237/237 131/187/187
f 45/235/235 225/233/233 251/234/234
f 24/267/267 226/236/236 112/172/172
f 227/237/237 201/232/232 23/142/142
f 132/185/185 227/237/237 228/238/238
f 228/238/238 23/142/142 56/239/239
f 138/215/215 228/238/238 257/240/240
f 229/241/241 133/194/194 128/195/195
f 24/267/267 229/241/241 226/236/236
f 229/241/241 24/267/267 25/145/145
f 229/241/241 25/145/145 55/242/242
f 133/194/194 229/241/241 55/242/242
f 224/243/243 43/231/231 44/148/148
f 134/182/182 224/243/243 230/244/244
f 230/244/244 44/148/148 54/245/245
f 136/205/205 230/244/244 256/246/246
f 129/227/227 225/233/233 231/247/247
f 231/247/247 46/151/151 57/248/248
f 135/201/201 231/247/247 139/221/221
f 232/249/249 262/204/204 136/205/205
f 202/154/154 232/249/249 256/246/246
f 232/249/249 202/154/154 124/156/156
f 262/204/204 232/249/249 252/250/250
f 233/158/158 217/208/208 137/209/209
f 217/208/208 233/158/158 253/251/251
f 234/252/252 263/214/214 138/215/215
f 203/162/162 234/252/252 257/240/240
f 234/252/252 203/162/162 126/164/164
f 263/214/214 234/252/252 254/253/253
f 235/254/254 264/220/220 139/221/221
f 204/166/166 235/254/254 139/221/221
f 235/254/254 204/166/166 127/168/168
f 264/220/220 235/254/254 255/255/255
f 236/170/170 220/224/224 140/206/206
f 220/224/224 236/170/170 112/172/172
f 237/256/256 265/226/226 141/210/210
f 205/173/173 237/256/256 253/251/251
f 237/256/256 205/173/173 113/175/175
f 265/226/226 237/256/256 251/234/234
f 238/257/257 222/228/228 142/216/216
f 206/176/176 238/257/257 254/253/253
f 238/257/257 206/176/176 114/178/178
f 222/228/228 238/257/257 130/184/184
f 239/258/258 266/230/230 143/222/222
f 207/179/179 239/258/258 255/255/255
f 239/258/258 207/179/179 115/181/181
f 266/230/230 239/258/258 131/187/187
f 146/260/260 120/198/198 121/199/199
f 147/262/262 146/260/260 240/261/261
f 144/263/263 37/54/54 36/53/53
f 240/261/261 144/263/263 145/259/259
f 240/261/261 118/192/192 119/196/196
f 144/263/263 240/261/261 267/264/264
f 123/219/219 242/266/266 267/264/264
f 147/262/262 242/266/266 146/260/260
f 242/266/266 147/262/262 241/265/265
f 242/266/266 116/189/189 117/190/190
f 1/49/49 147/262/262 145/259/259
f 2/58/58 144/263/263 241/265/265
f 146/260/260 117/190/190 120/198/198
f 267/264/264 119/196/196 122/212/212
f 242/266/266 123/219/219 116/189/189
f 145/259/259 36/53/53 58/50/50
f 241/265/265 38/62/62 59/59/59
