# Blender 4.0.0
# www.blender.org
mtllib Microwave011_Button11.mtl
o Microwave011_Button11
v 0.159621 -0.128457 0.065571
v 0.159502 -0.128569 0.071703
v 0.161266 -0.128530 0.069485
v 0.178475 -0.128487 0.067055
v 0.161692 -0.129182 0.069569
v 0.161339 -0.129136 0.067182
v 0.178070 -0.129039 0.066967
v 0.178413 -0.129177 0.069355
v 0.161463 -0.129166 0.067051
v 0.161382 -0.129169 0.067225
v 0.177993 -0.129165 0.067007
v 0.178378 -0.129207 0.069350
v 0.161342 -0.129195 0.069323
v 0.161685 -0.129147 0.066971
v 0.178405 -0.129155 0.067189
v 0.178062 -0.129193 0.069566
v 0.161684 -0.128565 0.069586
v 0.161333 -0.128520 0.067190
v 0.178067 -0.128515 0.066974
v 0.178418 -0.128559 0.069370
v 0.161328 -0.128542 0.069379
v 0.161656 -0.128491 0.066964
v 0.178431 -0.128502 0.067215
v 0.178076 -0.128546 0.069595
v 0.160501 -0.128402 0.071928
v 0.160466 -0.128262 0.065509
v 0.179242 -0.128247 0.065509
v 0.162180 -0.128516 0.066967
v 0.177513 -0.128516 0.066967
v 0.177555 -0.128564 0.069592
v 0.162231 -0.128563 0.069593
v 0.161701 -0.129209 0.069548
v 0.162168 -0.129135 0.066961
v 0.177474 -0.129134 0.066961
v 0.177553 -0.129183 0.069576
v 0.162246 -0.129183 0.069576
v 0.162222 -0.129151 0.066968
v 0.177529 -0.129151 0.066968
v 0.177530 -0.129199 0.069569
v 0.162222 -0.129199 0.069569
v 0.161413 -0.128485 0.066930
v 0.178360 -0.128535 0.069641
v 0.161356 -0.128535 0.069642
v 0.162203 -0.128498 0.066962
v 0.177548 -0.128498 0.066962
v 0.177546 -0.128546 0.069601
v 0.159431 -0.128415 0.071205
v 0.159431 -0.128305 0.066241
v 0.180321 -0.128292 0.066221
v 0.180321 -0.128396 0.071197
v 0.161327 -0.128522 0.067328
v 0.178422 -0.128608 0.067321
v 0.161378 -0.129201 0.068951
v 0.161333 -0.129140 0.067321
v 0.178418 -0.129174 0.069216
v 0.178412 -0.129157 0.067322
v 0.178412 -0.129192 0.069223
v 0.161321 -0.128540 0.069249
v 0.178431 -0.128539 0.069239
v 0.159437 -0.128281 0.065823
v 0.179922 -0.128254 0.065515
v 0.159834 -0.128532 0.071917
v 0.180315 -0.128374 0.071614
v 0.161274 -0.128488 0.067094
v 0.178321 -0.128485 0.066937
v 0.178482 -0.128530 0.069470
v 0.161339 -0.129176 0.069356
v 0.161686 -0.129042 0.066967
v 0.178412 -0.129138 0.067180
v 0.178066 -0.129098 0.069573
v 0.161403 -0.129209 0.069394
v 0.161804 -0.129164 0.067000
v 0.178376 -0.129167 0.067187
v 0.178047 -0.129208 0.069550
v 0.161694 -0.129198 0.069562
v 0.161341 -0.129156 0.067224
v 0.178055 -0.129147 0.066971
v 0.178402 -0.129201 0.069327
v 0.161334 -0.128559 0.069373
v 0.161678 -0.128515 0.066974
v 0.178417 -0.128520 0.067188
v 0.178074 -0.128562 0.069587
v 0.161733 -0.128546 0.069599
v 0.161322 -0.128502 0.067210
v 0.178072 -0.128491 0.066963
v 0.178424 -0.128542 0.069379
v 0.161395 -0.129097 0.069516
v 0.161396 -0.129132 0.067024
v 0.178355 -0.129135 0.067024
v 0.178356 -0.129181 0.069511
v 0.178335 -0.129171 0.067315
v 0.178247 -0.129208 0.069372
v 0.161491 -0.129211 0.069495
v 0.178284 -0.129165 0.067035
v 0.178290 -0.129211 0.069486
v 0.161400 -0.129191 0.069509
v 0.161407 -0.129158 0.067036
v 0.178343 -0.129158 0.067034
v 0.178345 -0.129203 0.069499
v 0.161391 -0.128562 0.069530
v 0.161390 -0.128516 0.067031
v 0.178360 -0.128517 0.067031
v 0.178360 -0.128563 0.069529
v 0.161382 -0.128539 0.069544
v 0.161377 -0.128493 0.067022
v 0.178373 -0.128493 0.067019
v 0.178372 -0.128539 0.069542
v 0.159905 -0.127591 0.065523
v 0.180316 -0.127597 0.065832
v 0.159436 -0.127703 0.071629
v 0.179924 -0.127709 0.071935
v 0.179265 -0.127709 0.071941
v 0.159430 -0.127679 0.070347
v 0.159430 -0.127605 0.066271
v 0.180322 -0.127605 0.066286
v 0.180322 -0.127679 0.070347
v 0.159436 -0.127597 0.065832
v 0.179850 -0.127591 0.065522
v 0.159885 -0.127709 0.071939
v 0.180318 -0.127703 0.071597
v 0.159493 -0.127592 0.065584
v 0.180258 -0.127592 0.065584
v 0.159493 -0.127707 0.071878
v 0.180258 -0.127707 0.071878
v 0.159826 -0.128263 0.065515
v 0.180315 -0.128276 0.065818
v 0.159437 -0.128401 0.071617
v 0.179927 -0.128532 0.071916
v 0.180115 -0.128572 0.071838
v 0.159510 -0.128459 0.065709
v 0.180237 -0.128459 0.065670
v 0.180092 -0.128457 0.065569
v 0.159675 -0.128572 0.071839
v 0.180251 -0.128568 0.071668
v 0.159494 -0.128281 0.065572
v 0.180257 -0.128296 0.065572
v 0.159494 -0.128405 0.071864
v 0.180258 -0.128400 0.071863
v 0.159839 -0.128431 0.065518
v 0.180304 -0.128446 0.065866
v 0.159444 -0.128545 0.071599
v 0.179913 -0.128556 0.071905
v 0.179232 -0.128556 0.071911
v 0.160466 -0.128556 0.071911
v 0.160522 -0.128439 0.065517
v 0.179287 -0.128439 0.065517
v 0.159443 -0.128545 0.071226
v 0.180308 -0.128544 0.071223
v 0.159448 -0.128446 0.065859
v 0.179918 -0.128432 0.065518
v 0.159839 -0.128556 0.071905
v 0.180308 -0.128545 0.071611
v 0.159515 -0.128447 0.065584
v 0.180244 -0.128440 0.065580
v 0.159505 -0.128555 0.071848
v 0.180247 -0.128555 0.071848
v 0.159595 -0.128570 0.071669
v 0.160230 -0.128555 0.070843
v 0.179329 -0.128553 0.070768
v 0.161154 -0.128489 0.067255
v 0.160028 -0.128465 0.065971
v 0.179816 -0.128566 0.071439
v 0.178512 -0.128483 0.066874
v 0.179583 -0.128481 0.066793
v 0.178538 -0.128535 0.069749
v 0.161247 -0.128535 0.069758
v 0.161772 -0.129159 0.066979
v 0.177521 -0.129207 0.069559
v 0.161328 -0.128556 0.069240
v 0.178426 -0.128519 0.067320
v 0.161313 -0.128533 0.069339
v 0.177558 -0.128489 0.066953
v 0.178438 -0.128534 0.069352
v 0.178013 -0.128538 0.069611
v 0.177974 -0.129159 0.066980
v 0.162231 -0.129207 0.069559
v 0.162193 -0.128489 0.066953
v 0.161720 -0.128538 0.069610
v 0.161351 -0.129164 0.067246
v 0.161352 -0.129202 0.069315
v 0.178401 -0.129164 0.067239
v 0.161333 -0.129174 0.069219
v 0.178419 -0.129137 0.067309
v 0.178424 -0.128557 0.069232
v 0.161311 -0.128494 0.067209
v 0.178442 -0.128494 0.067221
v 0.161357 -0.129050 0.067088
v 0.178293 -0.129054 0.066986
v 0.161369 -0.129201 0.069439
v 0.161469 -0.129157 0.066997
v 0.178381 -0.129159 0.067096
v 0.178282 -0.129203 0.069539
v 0.161358 -0.129178 0.069450
v 0.161459 -0.129133 0.066987
v 0.178394 -0.129135 0.067087
v 0.178292 -0.129181 0.069550
v 0.161353 -0.128559 0.069468
v 0.161454 -0.128517 0.066994
v 0.178399 -0.128516 0.067093
v 0.178297 -0.128564 0.069567
v 0.161344 -0.128538 0.069481
v 0.161440 -0.128492 0.066983
v 0.178411 -0.128495 0.067085
v 0.178309 -0.128540 0.069581
v 0.161471 -0.129203 0.069539
v 0.161375 -0.129162 0.067104
v 0.178275 -0.129160 0.067003
v 0.178383 -0.129201 0.069437
v 0.161461 -0.129181 0.069550
v 0.161361 -0.129148 0.067092
v 0.178287 -0.129147 0.066990
v 0.178393 -0.129181 0.069448
v 0.161455 -0.128563 0.069567
v 0.161352 -0.128518 0.067095
v 0.178297 -0.128515 0.066993
v 0.178398 -0.128562 0.069465
v 0.161447 -0.128540 0.069582
v 0.161340 -0.128495 0.067088
v 0.178308 -0.128492 0.066983
v 0.178410 -0.128538 0.069477
v 0.159429 -0.127696 0.071213
v 0.179258 -0.128403 0.071928
v 0.159456 -0.128271 0.065636
v 0.159558 -0.128406 0.071902
v 0.180296 -0.128377 0.071801
v 0.180296 -0.128273 0.065635
v 0.159456 -0.128403 0.071801
v 0.180195 -0.128405 0.071902
v 0.159457 -0.128560 0.071526
v 0.179822 -0.128567 0.071894
v 0.180288 -0.128456 0.065860
v 0.159921 -0.128450 0.065531
v 0.159923 -0.128567 0.071894
v 0.179839 -0.128450 0.065531
v 0.159464 -0.128456 0.065861
v 0.180295 -0.128561 0.071551
v 0.159484 -0.128453 0.065654
v 0.180176 -0.128448 0.065549
v 0.159580 -0.128567 0.071872
v 0.180273 -0.128565 0.071770
v 0.159580 -0.128448 0.065547
v 0.180267 -0.128453 0.065654
v 0.159478 -0.128565 0.071770
v 0.180172 -0.128567 0.071872
v 0.159435 -0.128526 0.071175
v 0.180315 -0.128433 0.066184
v 0.160505 -0.128420 0.065510
v 0.179248 -0.128538 0.071920
v 0.160494 -0.128538 0.071920
v 0.179253 -0.128420 0.065510
v 0.159436 -0.128433 0.066206
v 0.180317 -0.128526 0.071225
v 0.159461 -0.128423 0.065637
v 0.180191 -0.128415 0.065533
v 0.159561 -0.128538 0.071895
v 0.180292 -0.128536 0.071793
v 0.159559 -0.128415 0.065534
v 0.180291 -0.128423 0.065637
v 0.159462 -0.128547 0.071789
v 0.180190 -0.128538 0.071895
v 0.159625 -0.128460 0.065636
v 0.180134 -0.128459 0.065630
v 0.180164 -0.128569 0.071625
v 0.161258 -0.128483 0.066889
v 0.161413 -0.129206 0.069495
v 0.159430 -0.127650 0.068731
v 0.180322 -0.127650 0.068731
v 0.159455 -0.127593 0.065647
v 0.180195 -0.127591 0.065546
v 0.159557 -0.127708 0.071916
v 0.180297 -0.127706 0.071814
v 0.159557 -0.127591 0.065546
v 0.180297 -0.127593 0.065647
v 0.159455 -0.127706 0.071814
v 0.180195 -0.127708 0.071916
v 0.180310 -0.128426 0.065821
v 0.159499 -0.128422 0.065573
v 0.180253 -0.128422 0.065573
v 0.159498 -0.128537 0.071857
v 0.180254 -0.128537 0.071857
v 0.159442 -0.128426 0.065821
v 0.180229 -0.128451 0.065591
v 0.159516 -0.128566 0.071833
v 0.180235 -0.128566 0.071833
v 0.159470 -0.128441 0.065643
v 0.159568 -0.128556 0.071886
v 0.180285 -0.128554 0.071784
v 0.180282 -0.128441 0.065643
v 0.180183 -0.128556 0.071886
vn -0.0957 -0.9954 0.0098
vn 0.0189 -0.9996 -0.0223
vn -0.0022 -0.9998 -0.0189
vn -0.1055 -0.9943 -0.0142
vn -0.0157 -0.9993 -0.0334
vn 0.0004 -0.9998 -0.0185
vn -0.0000 -0.9999 -0.0172
vn -0.0003 -0.9998 -0.0189
vn 0.0107 -0.9998 -0.0141
vn -0.0002 -0.9999 -0.0154
vn -0.9760 -0.2170 -0.0191
vn -0.9780 -0.2072 0.0235
vn -0.9868 -0.1609 -0.0176
vn 0.0055 -0.1921 -0.9814
vn -0.0200 -0.1342 -0.9908
vn 0.0111 -0.1179 -0.9930
vn -0.0116 -0.2058 -0.9785
vn 0.9824 -0.1835 0.0345
vn 0.9995 -0.0219 -0.0248
vn 0.9818 -0.1893 0.0139
vn 0.9840 -0.1772 -0.0204
vn 0.0065 -0.2368 0.9715
vn -0.0074 -0.2186 0.9758
vn 0.0068 -0.2245 0.9745
vn 0.1472 -0.9880 -0.0474
vn 0.1430 -0.9896 0.0129
vn -0.4323 -0.9012 -0.0305
vn -0.8211 -0.5667 0.0681
vn -0.8092 -0.5804 -0.0916
vn -0.0933 -0.9951 -0.0335
vn -0.0251 -0.8458 -0.5328
vn -0.0156 -0.6020 -0.7983
vn 0.0352 -0.6190 -0.7846
vn 0.0092 -0.9923 -0.1236
vn -0.0046 -0.9893 -0.1456
vn 0.6180 -0.7848 0.0469
vn 0.8073 -0.5902 0.0051
vn 0.8182 -0.5734 0.0418
vn 0.5117 -0.8577 -0.0508
vn -0.0016 -0.9011 0.4335
vn 0.0038 -0.6069 0.7947
vn -0.0083 -0.6032 0.7975
vn -0.9728 -0.2313 0.0140
vn -0.8077 -0.5896 0.0039
vn -0.7435 -0.6654 -0.0662
vn 0.0076 -0.5243 -0.8515
vn 0.0251 -0.4996 -0.8659
vn 0.9815 -0.1905 -0.0213
vn 0.7398 -0.6672 -0.0866
vn 0.8292 -0.5589 0.0071
vn -0.0032 -0.1914 0.9815
vn 0.0112 -0.6152 0.7883
vn -0.0257 -0.6862 0.7269
vn -0.3176 -0.9482 0.0069
vn -0.0286 -0.9996 -0.0081
vn -0.0563 -0.9979 -0.0312
vn -0.0043 -0.8831 -0.4693
vn 0.3308 -0.9437 0.0088
vn 0.0549 -0.9977 -0.0393
vn 0.0472 -0.9989 -0.0047
vn 0.3533 -0.9348 -0.0378
vn -0.0041 -0.9561 0.2930
vn 0.0209 -0.9996 0.0184
vn -0.0220 -0.9997 0.0103
vn -0.0035 -0.9998 -0.0209
vn 0.0203 -0.9988 -0.0443
vn 0.0027 -0.9998 -0.0202
vn -0.0102 -0.9999 -0.0137
vn -0.0104 -0.9999 -0.0120
vn 0.0534 -0.0146 -0.9985
vn 0.0405 -0.2088 -0.9771
vn -0.0447 -0.2065 -0.9774
vn -0.0487 -0.2274 0.9726
vn -0.0358 -0.9968 0.0710
vn 0.0244 -0.9209 0.3889
vn -0.0130 -0.9325 0.3609
vn 0.0098 -0.8457 -0.5336
vn 0.0559 -0.4405 -0.8960
vn -0.0569 -0.4306 -0.9007
vn -0.0417 -0.6336 0.7725
vn 0.0237 -0.9141 0.4048
vn 0.0567 -0.4390 0.8967
vn 0.0331 -0.7966 -0.6036
vn -0.0330 -0.8138 -0.5802
vn 0.0493 -0.6268 0.7776
vn 0.0041 -0.8680 -0.4966
vn -0.0231 -0.9967 -0.0784
vn 0.0217 -0.9967 -0.0785
vn -0.0009 -0.9999 -0.0160
vn -0.9673 -0.2088 -0.1439
vn -0.9666 -0.2146 -0.1398
vn 0.9565 -0.2632 0.1256
vn 0.9749 -0.1899 0.1161
vn 0.9607 -0.2425 -0.1352
vn 0.9644 -0.2249 -0.1394
vn -0.3997 -0.9161 0.0319
vn 0.7778 -0.6190 -0.1089
vn -0.8328 -0.5408 0.1182
vn 0.7967 -0.5928 0.1176
vn -0.7048 -0.0397 0.7083
vn -0.2679 -0.3197 0.9089
vn -0.6719 -0.3274 0.6643
vn -0.2998 -0.2813 0.9116
vn -0.0586 -0.2385 0.9694
vn -0.9314 -0.0187 -0.3634
vn -0.9056 -0.2671 -0.3293
vn -0.6767 -0.2577 -0.6897
vn -0.6721 -0.2997 -0.6771
vn 0.3111 -0.0159 -0.9502
vn 0.2768 -0.2516 -0.9274
vn 0.9020 -0.2843 0.3248
vn 0.6722 -0.3108 0.6719
vn 0.8862 -0.3103 0.3442
vn -0.2639 -0.9300 0.2558
vn -0.5733 -0.7982 0.1851
vn -0.1687 -0.7893 -0.5904
vn -0.0408 -0.9943 -0.0986
vn 0.4131 -0.8139 -0.4084
vn 0.0474 -0.9934 -0.1042
vn 0.5232 -0.8234 -0.2199
vn 0.1725 -0.7954 0.5809
vn 0.0528 -0.9964 0.0666
vn -0.8940 -0.2657 0.3609
vn -0.3162 -0.2425 -0.9172
vn -0.3989 -0.8012 -0.4459
vn -0.0491 -0.0134 -0.9987
vn 0.8908 -0.2681 -0.3668
vn 0.6745 -0.2719 -0.6863
vn 0.3138 -0.2792 0.9075
vn 0.3988 -0.8386 0.3712
vn 0.0498 -0.0485 0.9976
vn -0.8969 -0.2965 0.3282
vn -0.3070 -0.9053 0.2935
vn -0.5676 -0.8015 0.1883
vn -0.9758 -0.1957 0.0980
vn -0.2679 -0.2507 -0.9303
vn -0.3473 -0.8726 -0.3433
vn -0.1653 -0.8626 -0.4782
vn 0.8855 -0.3113 -0.3450
vn 0.3233 -0.8764 -0.3569
vn 0.4612 -0.8672 -0.1881
vn 0.2780 -0.3370 0.8995
vn 0.3247 -0.9003 0.2898
vn 0.1551 -0.9007 0.4059
vn 0.0450 -0.2535 0.9663
vn -0.9660 -0.2149 0.1439
vn 0.6632 -0.3016 -0.6850
vn 0.6656 -0.3403 0.6642
vn -0.1624 -0.8010 0.5763
vn -0.6310 -0.4451 0.6354
vn -0.3821 -0.9124 -0.1470
vn -0.8341 -0.4257 -0.3508
vn 0.0991 -0.8952 -0.4345
vn 0.2663 -0.4073 -0.8736
vn 0.5488 -0.8169 0.1774
vn -0.1376 -0.8940 0.4264
vn -0.4745 -0.8544 -0.2116
vn 0.1720 -0.8519 -0.4946
vn 0.4703 -0.8651 0.1748
vn -0.0177 -0.9443 0.3286
vn -0.3531 -0.9344 -0.0463
vn 0.0046 -0.0378 0.9993
vn 0.0404 -0.0204 0.9990
vn 0.0046 -0.0197 0.9998
vn 0.9998 -0.0201 -0.0065
vn 0.9983 -0.0003 -0.0581
vn 1.0000 -0.0014 -0.0064
vn -0.0041 -0.0378 0.9993
vn -0.0367 -0.0210 0.9991
vn 0.0037 0.0066 -1.0000
vn -0.0334 0.0166 -0.9993
vn 0.0350 0.0153 -0.9993
vn -0.9997 -0.0215 -0.0087
vn -1.0000 0.0028 -0.0006
vn -1.0000 -0.0008 -0.0000
vn -1.0000 -0.0010 -0.0075
vn -0.9981 -0.0180 -0.0591
vn -0.9983 -0.0005 -0.0586
vn 0.9998 -0.0183 0.0075
vn 1.0000 -0.0008 -0.0000
vn 1.0000 -0.0001 0.0006
vn 0.9986 -0.0014 0.0520
vn -0.9489 -0.0143 -0.3153
vn -0.9488 0.0042 -0.3160
vn -0.7060 -0.0047 -0.7082
vn -0.7068 0.0108 -0.7074
vn 0.3124 -0.2461 -0.9175
vn 0.2994 0.0161 -0.9540
vn 0.7013 -0.0089 -0.7128
vn 0.7074 0.0117 -0.7068
vn -0.2975 -0.0387 0.9539
vn -0.2999 -0.0184 0.9538
vn -0.7045 -0.0386 0.7086
vn -0.7069 -0.0147 0.7072
vn 0.9479 -0.0274 0.3174
vn 0.9495 -0.0071 0.3137
vn 0.7107 -0.0357 0.7025
vn 0.7071 -0.0140 0.7070
vn -0.3071 -0.2603 -0.9154
vn -0.2995 0.0158 -0.9540
vn -0.0417 -0.0006 -0.9991
vn 0.9458 -0.0138 -0.3244
vn 0.9487 0.0041 -0.3162
vn 0.9980 -0.0174 -0.0603
vn -0.9479 -0.0342 0.3166
vn -0.9487 -0.0071 0.3162
vn -0.9978 -0.0285 0.0596
vn -0.9982 -0.0021 0.0593
vn 0.3047 -0.0373 0.9517
vn 0.3002 -0.0192 0.9537
vn 0.0445 -0.2423 0.9692
vn -0.7730 -0.6343 -0.0109
vn -0.4600 -0.8879 -0.0044
vn -0.9006 -0.4309 0.0578
vn -0.0029 -0.6696 0.7427
vn 0.0045 -0.9146 0.4044
vn 0.0328 -0.6530 0.7566
vn 0.0159 -0.5871 -0.8094
vn -0.0030 -0.8441 -0.5363
vn -0.0374 -0.3524 -0.9351
vn -0.0052 -0.9145 0.4045
vn 0.0157 -0.9985 0.0528
vn -0.0036 -0.6655 0.7464
vn 0.0155 -0.8459 -0.5332
vn -0.0415 -0.9839 -0.1739
vn 0.0024 -0.5710 -0.8210
vn 0.0226 -0.9844 -0.1745
vn -0.3665 -0.9299 -0.0325
vn -0.0924 -0.9957 0.0027
vn 0.7776 -0.6288 -0.0059
vn 0.3500 -0.9358 -0.0412
vn 0.7872 -0.6155 -0.0386
vn 0.4772 -0.8788 0.0028
vn 0.0966 -0.9939 -0.0539
vn 0.0870 -0.9962 -0.0041
vn -0.3268 -0.9364 -0.1277
vn -0.0844 -0.9957 -0.0380
vn -0.7082 -0.6644 -0.2389
vn -0.7792 -0.6259 -0.0334
vn -0.3830 -0.8218 -0.4218
vn 0.1747 -0.7915 -0.5857
vn 0.0314 -0.3832 -0.9231
vn 0.5129 -0.6701 -0.5365
vn 0.2387 -0.9366 -0.2564
vn -0.0960 -0.9378 0.3336
vn -0.0145 -0.9983 0.0564
vn -0.2185 -0.6795 0.7004
vn -0.0318 -0.6565 0.7536
vn -0.5092 -0.7029 0.4968
vn -0.2516 -0.9435 0.2157
vn 0.3782 -0.9220 0.0831
vn 0.7298 -0.6445 0.2282
vn 0.9092 -0.4138 0.0458
vn 0.5150 -0.6964 0.4998
vn 0.2429 -0.9456 0.2165
vn -0.1626 -0.7686 -0.6187
vn 0.3738 -0.9195 -0.1218
vn 0.7035 -0.6685 -0.2413
vn -0.4332 -0.8965 0.0928
vn -0.8593 -0.4317 0.2743
vn 0.0943 -0.9314 0.3516
vn 0.2185 -0.6795 0.7004
vn -0.9997 -0.0211 0.0086
vn -0.0032 -0.2610 0.9653
vn 0.9621 -0.2727 -0.0061
vn 0.9644 -0.2540 -0.0734
vn -0.0039 0.0054 -1.0000
vn -0.0019 -0.2692 0.9631
vn -0.0391 -0.2394 0.9701
vn 0.0145 -0.1843 -0.9828
vn -0.0047 -0.1814 -0.9834
vn 0.0428 0.0021 -0.9991
vn -0.9566 -0.2905 -0.0241
vn -0.9715 -0.2368 0.0133
vn -0.9644 -0.2537 -0.0740
vn 0.9740 -0.2264 0.0111
vn 0.9980 -0.0211 0.0598
vn -0.9114 -0.2634 -0.3161
vn -0.6771 -0.3044 -0.6700
vn 0.6833 -0.2746 -0.6765
vn -0.3009 -0.2839 0.9104
vn -0.6800 -0.2845 0.6758
vn 0.9157 -0.2532 0.3122
vn 0.6772 -0.2909 0.6758
vn 0.9114 -0.2629 -0.3168
vn 0.3010 -0.2839 0.9104
vn -0.0060 -0.9998 -0.0192
vn 0.0016 -0.9999 -0.0163
vn -1.0000 -0.0023 0.0075
vt 0.582368 0.725601
vt 0.624706 0.690800
vt 0.624515 0.726417
vt 0.582259 0.718467
vt 0.582515 0.686540
vt 0.582269 0.688030
vt 0.582524 0.726969
vt 0.624772 0.693053
vt 0.624580 0.726985
vt 0.624492 0.727395
vt 0.582259 0.691491
vt 0.582259 0.722521
vt 0.582259 0.691479
vt 0.622575 0.685774
vt 0.584454 0.685774
vt 0.622577 0.685774
vt 0.584456 0.685774
vt 0.624772 0.722543
vt 0.624772 0.691515
vt 0.624772 0.722569
vt 0.624772 0.691486
vt 0.622577 0.728288
vt 0.584455 0.728288
vt 0.622575 0.728288
vt 0.624697 0.689189
vt 0.624691 0.724872
vt 0.582278 0.690257
vt 0.582284 0.724192
vt 0.582282 0.690037
vt 0.582318 0.689575
vt 0.583325 0.685957
vt 0.584456 0.685774
vt 0.622574 0.685774
vt 0.623814 0.686031
vt 0.583354 0.685943
vt 0.624745 0.724304
vt 0.624772 0.691557
vt 0.624772 0.722638
vt 0.624752 0.690158
vt 0.584455 0.728288
vt 0.622576 0.728288
vt 0.584455 0.728288
vt 0.582259 0.722565
vt 0.582259 0.722605
vt 0.582284 0.689860
vt 0.584455 0.685774
vt 0.622578 0.685774
vt 0.624772 0.691493
vt 0.624748 0.689940
vt 0.624772 0.722456
vt 0.584455 0.728288
vt 0.622577 0.728288
vt 0.583295 0.728105
vt 0.582278 0.723850
vt 0.582304 0.724712
vt 0.582351 0.688764
vt 0.584455 0.685774
vt 0.624749 0.724050
vt 0.624630 0.688343
vt 0.624705 0.724951
vt 0.624752 0.690111
vt 0.623702 0.728112
vt 0.624392 0.727089
vt 0.582575 0.726813
vt 0.582603 0.687057
vt 0.624550 0.686648
vt 0.624393 0.687359
vt 0.582445 0.727197
vt 0.624316 0.727215
vt 0.623876 0.685981
vt 0.623876 0.685980
vt 0.583155 0.685980
vt 0.583156 0.728081
vt 0.582602 0.727317
vt 0.623873 0.728080
vt 0.583153 0.728079
vt 0.623692 0.685955
vt 0.623875 0.685982
vt 0.583156 0.685982
vt 0.583156 0.728080
vt 0.622576 0.728288
vt 0.623875 0.728080
vt 0.623876 0.685979
vt 0.583154 0.685978
vt 0.623876 0.728083
vt 0.622578 0.685774
vt 0.582694 0.686765
vt 0.624317 0.686492
vt 0.582577 0.727047
vt 0.582290 0.689475
vt 0.582290 0.689459
vt 0.624741 0.724588
vt 0.624741 0.724603
vt 0.624741 0.689459
vt 0.624741 0.689475
vt 0.582286 0.724188
vt 0.624741 0.689487
vt 0.582290 0.724615
vt 0.624741 0.724615
vt 0.582512 0.726639
vt 0.582638 0.727466
vt 0.582511 0.726645
vt 0.582638 0.727461
vt 0.583155 0.728083
vt 0.582385 0.688249
vt 0.582385 0.688240
vt 0.582512 0.687428
vt 0.582511 0.687418
vt 0.624393 0.686599
vt 0.624394 0.686596
vt 0.624646 0.725823
vt 0.624520 0.726635
vt 0.624646 0.725808
vt 0.582512 0.726615
vt 0.582385 0.725789
vt 0.582638 0.686607
vt 0.582556 0.687056
vt 0.624519 0.687441
vt 0.624456 0.686913
vt 0.624646 0.688274
vt 0.624393 0.727455
vt 0.624490 0.726958
vt 0.582385 0.725808
vt 0.582638 0.686601
vt 0.582512 0.687442
vt 0.583155 0.685981
vt 0.624646 0.688254
vt 0.624520 0.687428
vt 0.624393 0.727461
vt 0.624519 0.726621
vt 0.623876 0.728082
vt 0.582385 0.725823
vt 0.582511 0.726658
vt 0.582385 0.725844
vt 0.582290 0.724603
vt 0.582638 0.686596
vt 0.582511 0.687404
vt 0.582637 0.686590
vt 0.624646 0.688240
vt 0.624520 0.687405
vt 0.624646 0.688221
vt 0.624393 0.727466
vt 0.624520 0.726658
vt 0.624394 0.727474
vt 0.582290 0.724588
vt 0.624520 0.687418
vt 0.624520 0.726645
vt 0.582638 0.727455
vt 0.582512 0.726631
vt 0.582385 0.688284
vt 0.582385 0.688260
vt 0.624392 0.686611
vt 0.624393 0.686604
vt 0.624646 0.725788
vt 0.582638 0.727473
vt 0.582385 0.688222
vt 0.624394 0.686590
vt 0.624646 0.725842
vt 0.583284 0.728105
vt 0.582282 0.689926
vt 0.622622 0.728288
vt 0.623951 0.728204
vt 0.622621 0.728288
vt 0.624772 0.690556
vt 0.624747 0.687882
vt 0.624772 0.690842
vt 0.584409 0.728288
vt 0.583198 0.728211
vt 0.622623 0.685774
vt 0.583239 0.685848
vt 0.623803 0.685849
vt 0.582259 0.690502
vt 0.582259 0.717735
vt 0.582259 0.707031
vt 0.582259 0.690742
vt 0.582285 0.687884
vt 0.582285 0.687882
vt 0.624772 0.723542
vt 0.624772 0.707031
vt 0.624772 0.717735
vt 0.624749 0.725970
vt 0.582362 0.686786
vt 0.582362 0.686783
vt 0.582466 0.686449
vt 0.582466 0.686447
vt 0.624462 0.686114
vt 0.624462 0.686111
vt 0.624566 0.686449
vt 0.624566 0.686447
vt 0.582569 0.727951
vt 0.582569 0.727952
vt 0.582466 0.727614
vt 0.582466 0.727615
vt 0.624669 0.727277
vt 0.624669 0.727279
vt 0.624566 0.727614
vt 0.624566 0.727615
vt 0.582569 0.686114
vt 0.582569 0.686111
vt 0.583081 0.685859
vt 0.624669 0.686786
vt 0.624669 0.686783
vt 0.624747 0.687884
vt 0.582362 0.727277
vt 0.582362 0.727279
vt 0.582285 0.726179
vt 0.582285 0.726181
vt 0.624462 0.727951
vt 0.624462 0.727952
vt 0.623950 0.728203
vt 0.582259 0.723735
vt 0.582281 0.725767
vt 0.582285 0.726168
vt 0.622578 0.728288
vt 0.623788 0.728213
vt 0.623950 0.728203
vt 0.584454 0.685774
vt 0.583213 0.685852
vt 0.583082 0.685860
vt 0.583229 0.728212
vt 0.624412 0.727874
vt 0.584346 0.728288
vt 0.623835 0.685853
vt 0.582577 0.686242
vt 0.622695 0.685774
vt 0.624397 0.686093
vt 0.582284 0.688064
vt 0.582375 0.727080
vt 0.624772 0.723713
vt 0.624747 0.688052
vt 0.624749 0.688151
vt 0.624748 0.725928
vt 0.624627 0.686796
vt 0.624686 0.726899
vt 0.582363 0.686810
vt 0.582353 0.686980
vt 0.582362 0.686801
vt 0.582283 0.688105
vt 0.582466 0.686462
vt 0.624461 0.686119
vt 0.623950 0.685860
vt 0.624565 0.686459
vt 0.624565 0.686465
vt 0.582570 0.727945
vt 0.582680 0.727983
vt 0.582570 0.727947
vt 0.583081 0.728203
vt 0.582466 0.727606
vt 0.582466 0.727601
vt 0.624669 0.727258
vt 0.624669 0.727265
vt 0.624747 0.726169
vt 0.624565 0.727606
vt 0.624565 0.727601
vt 0.582570 0.686119
vt 0.624669 0.686810
vt 0.624669 0.686801
vt 0.582363 0.727258
vt 0.582362 0.727268
vt 0.624461 0.727945
vt 0.624462 0.727947
vt 0.582259 0.723507
vt 0.622595 0.728288
vt 0.624772 0.690253
vt 0.624747 0.687891
vt 0.584409 0.685774
vt 0.584415 0.728288
vt 0.583081 0.728203
vt 0.622609 0.685774
vt 0.584435 0.685774
vt 0.623950 0.685859
vt 0.582259 0.690398
vt 0.582259 0.723341
vt 0.582285 0.687891
vt 0.624772 0.723674
vt 0.624747 0.726179
vt 0.582362 0.686792
vt 0.582466 0.686453
vt 0.624565 0.686453
vt 0.582569 0.727949
vt 0.582466 0.727611
vt 0.624669 0.727272
vt 0.624565 0.727611
vt 0.624669 0.686792
vt 0.624462 0.727949
vt 0.582297 0.691927
vt 0.624512 0.726645
vt 0.582259 0.723559
s 1
f 71/1/1 91/2/2 92/3/3
f 91/2/2 71/1/1 53/4/4
f 261/5/5 161/6/6 158/7/7
f 164/8/8 263/9/9 162/10/10
f 54/11/11 169/12/12 51/13/13
f 34/14/14 28/15/15 29/16/16
f 28/15/15 34/14/14 33/17/17
f 55/18/18 52/19/19 184/20/20
f 52/19/19 55/18/18 183/21/21
f 30/22/22 36/23/23 35/24/24
f 91/2/2 73/25/25 12/26/26
f 179/27/27 13/28/28 76/29/29
f 179/27/27 10/30/30 53/4/4
f 167/31/31 37/32/32 38/33/33
f 167/31/31 11/34/34 72/35/35
f 78/36/36 56/37/37 57/38/38
f 181/39/39 12/26/26 73/25/25
f 176/40/40 39/41/41 40/42/42
f 182/43/43 76/29/29 13/28/28
f 33/17/17 38/33/33 37/32/32
f 55/18/18 57/38/38 56/37/37
f 35/24/24 40/42/42 39/41/41
f 51/13/13 58/44/44 84/45/45
f 29/16/16 44/46/46 45/47/47
f 170/48/48 23/49/49 59/50/50
f 170/48/48 184/20/20 52/19/19
f 31/51/51 46/52/52 83/53/53
f 171/54/54 3/55/55 64/56/56
f 171/54/54 84/45/45 58/44/44
f 177/57/57 45/47/47 44/46/46
f 173/58/58 4/59/59 66/60/60
f 186/61/61 59/50/50 23/49/49
f 174/62/62 42/63/63 43/64/64
f 174/62/62 83/53/53 46/52/52
f 264/65/65 262/66/66 163/67/67
f 157/68/68 159/69/69 162/10/10
f 7/70/70 29/16/16 19/71/71
f 29/16/16 7/70/70 34/14/14
f 33/17/17 80/72/72 28/15/15
f 31/51/51 5/73/73 36/23/23
f 93/74/74 74/75/75 32/76/76
f 175/77/77 38/33/33 77/78/78
f 167/31/31 14/79/79 37/32/32
f 32/76/76 40/42/42 75/80/80
f 168/81/81 32/76/76 74/75/75
f 168/81/81 16/82/82 39/41/41
f 77/78/78 34/14/14 7/70/70
f 34/14/14 77/78/78 38/33/33
f 36/23/23 75/80/80 40/42/42
f 19/71/71 45/47/47 85/83/83
f 28/15/15 22/84/84 44/46/46
f 30/22/22 24/85/85 46/52/52
f 172/86/86 41/87/87 65/88/88
f 172/86/86 85/83/83 45/47/47
f 174/62/62 46/52/52 24/85/85
f 10/30/30 11/34/34 91/2/2
f 161/6/6 166/89/89 158/7/7
f 166/89/89 161/6/6 3/55/55
f 6/90/90 51/13/13 18/91/91
f 51/13/13 6/90/90 54/11/11
f 8/92/92 184/20/20 20/93/93
f 184/20/20 8/92/92 55/18/18
f 81/94/94 183/21/21 69/95/95
f 183/21/21 81/94/94 52/19/19
f 180/96/96 53/4/4 71/1/1
f 181/39/39 15/97/97 56/37/37
f 55/18/18 78/36/36 57/38/38
f 69/95/95 56/37/37 15/97/97
f 169/12/12 21/98/98 58/44/44
f 20/93/93 59/50/50 86/99/99
f 171/54/54 58/44/44 21/98/98
f 173/58/58 86/99/99 59/50/50
f 87/100/100 213/101/101 100/102/102
f 213/101/101 87/100/100 209/103/103
f 17/104/104 209/103/103 5/73/73
f 187/105/105 18/91/91 214/106/106
f 88/107/107 214/106/106 101/108/108
f 188/109/109 19/71/71 215/110/110
f 216/111/111 90/112/112 212/113/113
f 265/114/114 71/1/1 93/74/74
f 180/96/96 189/115/115 13/28/28
f 190/116/116 72/35/35 9/117/117
f 167/31/31 190/116/116 14/79/79
f 98/118/118 73/25/25 94/119/119
f 181/39/39 191/120/120 15/97/97
f 192/121/121 74/75/75 95/122/122
f 74/75/75 192/121/121 16/82/82
f 193/123/123 13/28/28 189/115/115
f 194/124/124 14/79/79 190/116/116
f 88/107/107 190/116/116 97/125/125
f 14/79/79 194/124/124 68/126/126
f 195/127/127 15/97/97 191/120/120
f 89/128/128 191/120/120 98/118/118
f 196/129/129 16/82/82 192/121/121
f 90/112/112 192/121/121 99/130/130
f 16/82/82 196/129/129 70/131/131
f 197/132/132 104/133/133 201/134/134
f 79/135/135 201/134/134 21/98/98
f 198/136/136 105/137/137 202/138/138
f 80/72/72 202/138/138 22/84/84
f 199/139/139 106/140/140 203/141/141
f 81/94/94 203/141/141 23/49/49
f 200/142/142 107/143/143 204/144/144
f 82/85/145 204/144/144 24/85/85
f 171/54/54 43/64/64 3/55/55
f 193/123/123 100/102/102 197/132/132
f 67/145/146 197/132/132 79/135/135
f 68/126/126 198/136/136 80/72/72
f 198/136/136 68/126/126 194/124/124
f 195/127/127 102/146/147 199/139/139
f 102/146/147 195/127/127 89/128/128
f 70/131/131 200/142/142 82/85/145
f 200/142/142 70/131/131 196/129/129
f 103/147/148 196/129/129 90/112/112
f 91/2/2 94/119/119 73/25/25
f 265/114/114 205/148/149 96/149/150
f 206/150/151 9/117/117 10/30/30
f 206/150/151 76/29/29 210/151/152
f 175/77/77 94/119/119 11/34/34
f 207/152/153 77/78/78 211/153/154
f 208/154/155 95/122/122 12/26/26
f 209/103/103 96/149/150 205/148/149
f 5/73/73 205/148/149 75/80/80
f 96/149/150 209/103/103 87/100/100
f 6/90/90 210/151/152 76/29/29
f 210/151/152 6/90/90 187/105/105
f 211/153/154 7/70/70 188/109/109
f 212/113/113 99/130/130 208/154/155
f 8/92/92 208/154/155 78/36/36
f 213/101/101 83/53/53 217/155/156
f 100/102/102 217/155/156 104/133/133
f 214/106/106 84/45/45 218/156/157
f 101/108/108 218/156/157 105/137/137
f 215/110/110 85/83/83 219/157/158
f 102/146/147 219/157/158 106/140/140
f 216/111/111 86/99/99 220/158/159
f 103/147/148 220/158/159 107/143/143
f 178/159/160 217/155/156 83/53/53
f 185/160/161 218/156/157 84/45/45
f 105/137/137 64/56/56 41/87/87
f 106/140/140 65/88/88 4/59/59
f 173/58/58 220/158/159 86/99/99
f 107/143/143 66/60/60 42/63/63
f 222/161/162 111/162/163 112/163/164
f 49/164/165 109/165/166 115/166/167
f 25/167/168 112/163/164 119/168/169
f 27/169/170 108/170/171 118/171/172
f 48/172/173 113/173/174 266/174/175
f 48/172/173 266/174/175 114/175/176
f 60/176/177 114/175/176 117/177/178
f 50/178/179 115/166/167 267/179/180
f 50/178/179 267/179/180 116/180/181
f 50/178/179 116/180/181 120/181/182
f 223/182/183 117/177/178 268/183/184
f 135/184/185 268/183/184 121/185/186
f 254/186/187 118/171/172 269/187/188
f 136/188/189 269/187/188 122/189/190
f 224/190/191 119/168/169 270/191/192
f 137/192/193 270/191/192 123/193/194
f 225/194/195 120/181/182 271/195/196
f 138/196/197 271/195/196 124/197/198
f 257/198/199 121/185/186 272/199/200
f 125/200/201 272/199/200 108/170/171
f 226/201/202 122/189/190 273/202/203
f 126/203/204 273/202/203 109/165/166
f 227/204/205 123/193/194 274/205/206
f 127/206/207 274/205/206 110/207/208
f 228/208/209 124/197/198 275/209/210
f 128/210/211 275/209/210 111/162/163
f 147/211/212 229/212/213 141/213/214
f 143/214/215 230/215/216 142/216/217
f 145/217/218 232/218/219 139/219/220
f 233/220/221 129/221/222 230/215/216
f 144/222/223 230/215/216 143/214/215
f 234/223/224 1/224/225 232/218/219
f 146/225/226 232/218/219 145/217/218
f 1/224/225 234/223/224 132/226/227
f 235/227/228 2/228/229 229/212/213
f 148/229/230 231/230/231 140/231/232
f 231/230/231 148/229/230 236/232/233
f 131/233/234 236/232/233 134/234/235
f 237/235/236 130/236/237 235/227/228
f 285/237/238 235/227/228 149/238/239
f 130/236/237 153/239/240 1/224/225
f 238/240/241 132/226/227 234/223/224
f 238/240/241 234/223/224 150/241/242
f 238/240/241 154/242/243 282/243/244
f 132/226/227 282/243/244 131/233/234
f 239/244/245 133/245/246 233/220/221
f 286/246/247 233/220/221 151/247/248
f 239/244/245 155/248/249 283/249/250
f 133/245/246 283/249/250 2/228/229
f 240/250/251 134/234/235 236/232/233
f 287/251/252 236/232/233 152/252/253
f 240/250/251 156/253/254 284/254/255
f 134/234/235 284/254/255 129/221/222
f 241/255/256 1/224/225 153/239/240
f 241/255/256 139/219/220 232/218/219
f 242/256/257 131/233/234 282/243/244
f 288/257/258 282/243/244 154/242/243
f 242/256/257 140/231/232 231/230/231
f 243/258/259 2/228/229 283/249/250
f 259/259/260 283/249/250 155/248/249
f 243/258/259 141/213/214 229/212/213
f 244/260/261 129/221/222 284/254/255
f 289/261/262 284/254/255 156/253/254
f 244/260/261 142/216/217 230/215/216
f 47/262/263 141/213/214 127/206/207
f 248/263/264 142/216/217 128/210/211
f 246/264/265 140/231/232 276/265/266
f 49/164/165 276/265/266 126/203/204
f 26/266/267 139/219/220 125/200/201
f 248/263/264 25/167/168 249/267/268
f 144/222/223 62/268/269 151/247/248
f 250/269/270 145/217/218 247/270/271
f 250/269/270 61/271/272 150/241/242
f 251/272/273 147/211/212 245/273/274
f 147/211/212 251/272/273 149/238/239
f 251/272/273 60/176/177 281/274/275
f 50/178/179 246/264/265 49/164/165
f 246/264/265 50/178/179 252/275/276
f 252/275/276 63/276/277 152/252/253
f 253/277/278 149/238/239 281/274/275
f 223/182/183 281/274/275 60/176/177
f 253/277/278 135/184/185 277/278/279
f 285/237/238 277/278/279 153/239/240
f 254/186/187 150/241/242 61/271/272
f 254/186/187 136/188/189 278/279/280
f 238/240/241 278/279/280 154/242/243
f 255/280/281 151/247/248 62/268/269
f 255/280/281 137/192/193 279/281/282
f 286/246/247 279/281/282 155/248/249
f 225/194/195 152/252/253 63/276/277
f 256/282/283 138/196/197 280/283/284
f 287/251/252 280/283/284 156/253/254
f 257/198/199 153/239/240 277/278/279
f 257/198/199 277/278/279 135/184/185
f 257/198/199 125/200/201 139/219/220
f 258/284/285 154/242/243 278/279/280
f 226/201/202 278/279/280 136/188/189
f 258/284/285 126/203/204 276/265/266
f 288/257/258 276/265/266 140/231/232
f 259/259/260 155/248/249 279/281/282
f 227/204/205 279/281/282 137/192/193
f 259/259/260 127/206/207 141/213/214
f 260/285/286 156/253/254 280/283/284
f 228/208/209 280/283/284 138/196/197
f 289/261/262 128/210/211 142/216/217
f 3/55/55 161/6/6 160/286/287
f 261/5/5 158/7/7 157/68/68
f 130/236/237 157/68/68 2/228/229
f 262/66/66 161/6/6 261/5/5
f 66/60/60 4/59/59 163/67/67
f 163/67/67 162/10/10 66/60/60
f 162/10/10 163/67/67 164/8/8
f 263/9/9 164/8/8 262/66/66
f 129/221/222 162/10/10 263/9/9
f 160/286/287 161/6/6 264/65/65
f 159/69/69 66/60/60 162/10/10
f 164/8/8 163/67/67 262/66/66
f 64/56/56 264/65/65 41/87/87
f 65/88/88 163/67/67 4/59/59
f 66/60/60 165/287/288 42/63/63
f 3/55/55 43/64/64 166/89/89
f 10/30/30 91/2/2 53/4/4
f 182/43/43 169/12/12 54/11/11
f 30/22/22 31/51/51 36/23/23
f 11/34/34 9/117/117 72/35/35
f 179/27/27 180/96/96 13/28/28
f 180/96/96 179/27/27 53/4/4
f 175/77/77 167/31/31 38/33/33
f 167/31/31 175/77/77 11/34/34
f 78/36/36 181/39/39 56/37/37
f 181/39/39 78/36/36 12/26/26
f 176/40/40 168/81/81 39/41/41
f 168/81/81 176/40/40 32/76/76
f 182/43/43 54/11/11 76/29/29
f 33/17/17 34/14/14 38/33/33
f 183/21/21 55/18/18 56/37/37
f 35/24/24 36/23/23 40/42/42
f 51/13/13 169/12/12 58/44/44
f 29/16/16 28/15/15 44/46/46
f 184/20/20 170/48/48 59/50/50
f 31/51/51 30/22/22 46/52/52
f 185/160/161 171/54/54 64/56/56
f 171/54/54 185/160/161 84/45/45
f 172/86/86 177/57/57 41/87/87
f 177/57/57 172/86/86 45/47/47
f 173/58/58 186/61/61 4/59/59
f 186/61/61 173/58/58 59/50/50
f 178/159/160 174/62/62 43/64/64
f 174/62/62 178/159/160 83/53/53
f 157/68/68 158/7/7 159/69/69
f 33/17/17 68/126/126 80/72/72
f 31/51/51 17/104/104 5/73/73
f 70/131/131 30/22/22 35/24/24
f 30/22/22 70/131/131 82/85/145
f 93/74/74 95/122/122 74/75/75
f 32/76/76 176/40/40 40/42/42
f 168/81/81 74/75/75 16/82/82
f 14/79/79 33/17/17 37/32/32
f 33/17/17 14/79/79 68/126/126
f 36/23/23 5/73/73 75/80/80
f 16/82/82 35/24/24 39/41/41
f 35/24/24 16/82/82 70/131/131
f 19/71/71 29/16/16 45/47/47
f 28/15/15 80/72/72 22/84/84
f 17/104/104 31/51/51 83/53/53
f 30/22/22 82/85/145 24/85/85
f 85/83/83 172/86/86 65/88/88
f 22/84/84 177/57/57 44/46/46
f 177/57/57 22/84/84 41/87/87
f 93/74/74 71/1/1 92/3/3
f 10/30/30 9/117/117 11/34/34
f 67/145/146 169/12/12 182/43/43
f 169/12/12 67/145/146 79/135/135
f 95/122/122 91/2/2 12/26/26
f 91/2/2 95/122/122 92/3/3
f 54/11/11 6/90/90 76/29/29
f 67/145/146 182/43/43 13/28/28
f 55/18/18 8/92/92 78/36/36
f 69/95/95 183/21/21 56/37/37
f 18/91/91 51/13/13 84/45/45
f 169/12/12 79/135/135 21/98/98
f 20/93/93 184/20/20 59/50/50
f 81/94/94 170/48/48 52/19/19
f 170/48/48 81/94/94 23/49/49
f 17/104/104 213/101/101 209/103/103
f 187/105/105 6/90/90 18/91/91
f 88/107/107 187/105/105 214/106/106
f 188/109/109 7/70/70 19/71/71
f 102/146/147 188/109/109 215/110/110
f 188/109/109 102/146/147 89/128/128
f 216/111/111 8/92/92 20/93/93
f 216/111/111 103/147/148 90/112/112
f 8/92/92 216/111/111 212/113/113
f 11/34/34 94/119/119 91/2/2
f 189/115/115 180/96/96 71/1/1
f 265/114/114 189/115/115 71/1/1
f 189/115/115 265/114/114 96/149/150
f 190/116/116 167/31/31 72/35/35
f 97/125/125 190/116/116 9/117/117
f 191/120/120 181/39/39 73/25/25
f 98/118/118 191/120/120 73/25/25
f 99/130/130 192/121/121 95/122/122
f 193/123/123 67/145/146 13/28/28
f 96/149/150 193/123/123 189/115/115
f 193/123/123 96/149/150 87/100/100
f 88/107/107 194/124/124 190/116/116
f 195/127/127 69/95/95 15/97/97
f 89/128/128 195/127/127 191/120/120
f 90/112/112 196/129/129 192/121/121
f 197/132/132 100/102/102 104/133/133
f 79/135/135 197/132/132 201/134/134
f 198/136/136 101/108/108 105/137/137
f 80/72/72 198/136/136 202/138/138
f 199/139/139 102/146/147 106/140/140
f 81/94/94 199/139/139 203/141/141
f 200/142/142 103/147/148 107/143/143
f 82/85/145 200/142/142 204/144/144
f 201/134/134 171/54/54 21/98/98
f 201/134/134 104/133/133 43/64/64
f 171/54/54 201/134/134 43/64/64
f 202/138/138 105/137/137 41/87/87
f 22/84/84 202/138/138 41/87/87
f 203/141/141 186/61/61 23/49/49
f 203/141/141 106/140/140 4/59/59
f 186/61/61 203/141/141 4/59/59
f 204/144/144 174/62/62 24/85/85
f 204/144/144 107/143/143 42/63/63
f 174/62/62 204/144/144 42/63/63
f 193/123/123 87/100/100 100/102/102
f 67/145/146 193/123/123 197/132/132
f 198/136/136 88/107/107 101/108/108
f 88/107/107 198/136/136 194/124/124
f 81/94/94 195/127/127 199/139/139
f 195/127/127 81/94/94 69/95/95
f 103/147/148 200/142/142 196/129/129
f 205/148/149 265/114/114 93/74/74
f 32/76/76 205/148/149 93/74/74
f 205/148/149 32/76/76 75/80/80
f 206/150/151 97/125/125 9/117/117
f 179/27/27 206/150/151 10/30/30
f 206/150/151 179/27/27 76/29/29
f 97/125/125 206/150/151 210/151/152
f 207/152/153 98/118/118 94/119/119
f 175/77/77 207/152/153 94/119/119
f 207/152/153 175/77/77 77/78/78
f 98/118/118 207/152/153 211/153/154
f 208/154/155 99/130/130 95/122/122
f 78/36/36 208/154/155 12/26/26
f 5/73/73 209/103/103 205/148/149
f 210/151/152 88/107/107 97/125/125
f 88/107/107 210/151/152 187/105/105
f 211/153/154 89/128/128 98/118/118
f 211/153/154 77/78/78 7/70/70
f 89/128/128 211/153/154 188/109/109
f 212/113/113 90/112/112 99/130/130
f 8/92/92 212/113/113 208/154/155
f 213/101/101 17/104/104 83/53/53
f 100/102/102 213/101/101 217/155/156
f 214/106/106 18/91/91 84/45/45
f 101/108/108 214/106/106 218/156/157
f 215/110/110 19/71/71 85/83/83
f 102/146/147 215/110/110 219/157/158
f 216/111/111 20/93/93 86/99/99
f 103/147/148 216/111/111 220/158/159
f 217/155/156 178/159/160 43/64/64
f 104/133/133 217/155/156 43/64/64
f 218/156/157 185/160/161 64/56/56
f 105/137/137 218/156/157 64/56/56
f 219/157/158 85/83/83 65/88/88
f 106/140/140 219/157/158 65/88/88
f 220/158/159 173/58/58 66/60/60
f 107/143/143 220/158/159 66/60/60
f 95/122/122 93/74/74 92/3/3
f 127/206/207 221/288/289 47/262/263
f 221/288/289 127/206/207 110/207/208
f 222/161/162 128/210/211 111/162/163
f 49/164/165 126/203/204 109/165/166
f 26/266/267 125/200/201 108/170/171
f 25/167/168 222/161/162 112/163/164
f 62/268/269 25/167/168 119/168/169
f 27/169/170 26/266/267 108/170/171
f 61/271/272 27/169/170 118/171/172
f 221/288/289 48/172/173 47/262/263
f 48/172/173 221/288/289 113/173/174
f 60/176/177 48/172/173 114/175/176
f 50/178/179 49/164/165 115/166/167
f 63/276/277 50/178/179 120/181/182
f 223/182/183 60/176/177 117/177/178
f 135/184/185 223/182/183 268/183/184
f 254/186/187 61/271/272 118/171/172
f 136/188/189 254/186/187 269/187/188
f 224/190/191 62/268/269 119/168/169
f 137/192/193 224/190/191 270/191/192
f 225/194/195 63/276/277 120/181/182
f 138/196/197 225/194/195 271/195/196
f 257/198/199 135/184/185 121/185/186
f 125/200/201 257/198/199 272/199/200
f 226/201/202 136/188/189 122/189/190
f 126/203/204 226/201/202 273/202/203
f 227/204/205 137/192/193 123/193/194
f 127/206/207 227/204/205 274/205/206
f 228/208/209 138/196/197 124/197/198
f 128/210/211 228/208/209 275/209/210
f 233/220/221 133/245/246 129/221/222
f 144/222/223 233/220/221 230/215/216
f 233/220/221 144/222/223 151/247/248
f 146/225/226 234/223/224 232/218/219
f 234/223/224 146/225/226 150/241/242
f 235/227/228 130/236/237 2/228/229
f 147/211/212 235/227/228 229/212/213
f 235/227/228 147/211/212 149/238/239
f 131/233/234 231/230/231 236/232/233
f 236/232/233 148/229/230 152/252/253
f 285/237/238 237/235/236 235/227/228
f 237/235/236 285/237/238 153/239/240
f 130/236/237 237/235/236 153/239/240
f 132/226/227 238/240/241 282/243/244
f 286/246/247 239/244/245 233/220/221
f 239/244/245 286/246/247 155/248/249
f 133/245/246 239/244/245 283/249/250
f 287/251/252 240/250/251 236/232/233
f 240/250/251 287/251/252 156/253/254
f 134/234/235 240/250/251 284/254/255
f 1/224/225 241/255/256 232/218/219
f 288/257/258 242/256/257 282/243/244
f 242/256/257 288/257/258 140/231/232
f 131/233/234 242/256/257 231/230/231
f 259/259/260 243/258/259 283/249/250
f 243/258/259 259/259/260 141/213/214
f 2/228/229 243/258/259 229/212/213
f 289/261/262 244/260/261 284/254/255
f 244/260/261 289/261/262 142/216/217
f 129/221/222 244/260/261 230/215/216
f 245/273/274 147/211/212 141/213/214
f 47/262/263 245/273/274 141/213/214
f 248/263/264 143/214/215 142/216/217
f 222/161/162 248/263/264 128/210/211
f 49/164/165 246/264/265 276/265/266
f 247/270/271 145/217/218 139/219/220
f 26/266/267 247/270/271 139/219/220
f 248/263/264 144/222/223 143/214/215
f 248/263/264 222/161/162 25/167/168
f 144/222/223 248/263/264 249/267/268
f 249/267/268 25/167/168 62/268/269
f 144/222/223 249/267/268 62/268/269
f 250/269/270 146/225/226 145/217/218
f 26/266/267 250/269/270 247/270/271
f 250/269/270 26/266/267 27/169/170
f 250/269/270 27/169/170 61/271/272
f 146/225/226 250/269/270 150/241/242
f 47/262/263 251/272/273 245/273/274
f 251/272/273 47/262/263 48/172/173
f 251/272/273 48/172/173 60/176/177
f 149/238/239 251/272/273 281/274/275
f 246/264/265 148/229/230 140/231/232
f 148/229/230 246/264/265 252/275/276
f 252/275/276 50/178/179 63/276/277
f 148/229/230 252/275/276 152/252/253
f 253/277/278 285/237/238 149/238/239
f 223/182/183 253/277/278 281/274/275
f 253/277/278 223/182/183 135/184/185
f 285/237/238 253/277/278 277/278/279
f 254/186/187 238/240/241 150/241/242
f 238/240/241 254/186/187 278/279/280
f 255/280/281 286/246/247 151/247/248
f 224/190/191 255/280/281 62/268/269
f 255/280/281 224/190/191 137/192/193
f 286/246/247 255/280/281 279/281/282
f 256/282/283 287/251/252 152/252/253
f 225/194/195 256/282/283 152/252/253
f 256/282/283 225/194/195 138/196/197
f 287/251/252 256/282/283 280/283/284
f 257/198/199 241/255/256 153/239/240
f 241/255/256 257/198/199 139/219/220
f 258/284/285 288/257/258 154/242/243
f 226/201/202 258/284/285 278/279/280
f 258/284/285 226/201/202 126/203/204
f 288/257/258 258/284/285 276/265/266
f 227/204/205 259/259/260 279/281/282
f 259/259/260 227/204/205 127/206/207
f 260/285/286 289/261/262 156/253/254
f 228/208/209 260/285/286 280/283/284
f 260/285/286 228/208/209 128/210/211
f 289/261/262 260/285/286 128/210/211
f 160/286/287 64/56/56 3/55/55
f 130/236/237 261/5/5 157/68/68
f 1/224/225 262/66/66 261/5/5
f 262/66/66 1/224/225 132/226/227
f 131/233/234 263/9/9 262/66/66
f 263/9/9 131/233/234 134/234/235
f 43/64/64 165/287/288 166/89/89
f 165/287/288 43/64/64 42/63/63
f 158/7/7 166/89/89 165/287/288
f 159/69/69 158/7/7 165/287/288
f 163/67/67 65/88/88 41/87/87
f 264/65/65 161/6/6 262/66/66
f 41/87/87 264/65/65 163/67/67
f 133/245/246 157/68/68 162/10/10
f 162/10/10 129/221/222 133/245/246
f 157/68/68 133/245/246 2/228/229
f 64/56/56 160/286/287 264/65/65
f 261/5/5 130/236/237 1/224/225
f 262/66/66 132/226/227 131/233/234
f 263/9/9 134/234/235 129/221/222
f 159/69/69 165/287/288 66/60/60
