# Blender 4.0.0
# www.blender.org
mtllib Microwave011_Button2.mtl
o Microwave011_Button2
v 0.182607 -0.128565 0.179451
v 0.199814 -0.128593 0.177081
v 0.183019 -0.129212 0.179579
v 0.182667 -0.129238 0.177192
v 0.199392 -0.129241 0.176976
v 0.199741 -0.129212 0.179364
v 0.183181 -0.129241 0.179547
v 0.182702 -0.129269 0.177257
v 0.199273 -0.129272 0.177010
v 0.182674 -0.129231 0.179358
v 0.183015 -0.129255 0.176980
v 0.199738 -0.129257 0.177230
v 0.199378 -0.129237 0.179568
v 0.183014 -0.128593 0.179577
v 0.182661 -0.128623 0.177181
v 0.199397 -0.128625 0.176964
v 0.199746 -0.128595 0.179360
v 0.182656 -0.128578 0.179369
v 0.183002 -0.128607 0.176958
v 0.199759 -0.128604 0.177206
v 0.199404 -0.128575 0.179585
v 0.200599 -0.128353 0.181912
v 0.181830 -0.128354 0.181913
v 0.181807 -0.128438 0.175492
v 0.200604 -0.128436 0.175492
v 0.183532 -0.128624 0.176958
v 0.198841 -0.128623 0.176958
v 0.198861 -0.128693 0.179583
v 0.183545 -0.128594 0.179583
v 0.183519 -0.129244 0.176971
v 0.198823 -0.129242 0.176971
v 0.198891 -0.129212 0.179585
v 0.183562 -0.129211 0.179585
v 0.183550 -0.129260 0.176978
v 0.198859 -0.129260 0.176978
v 0.198857 -0.129229 0.179579
v 0.183550 -0.129229 0.179579
v 0.182988 -0.128596 0.176915
v 0.199685 -0.128596 0.176924
v 0.199689 -0.128562 0.179645
v 0.182707 -0.128561 0.179647
v 0.183531 -0.128608 0.176951
v 0.198842 -0.128600 0.176945
v 0.198873 -0.128575 0.179591
v 0.183533 -0.128575 0.179591
v 0.180759 -0.128381 0.181198
v 0.201649 -0.128425 0.176205
v 0.201649 -0.128377 0.181182
v 0.182656 -0.128596 0.179234
v 0.182655 -0.128619 0.177319
v 0.199750 -0.128707 0.177315
v 0.182706 -0.129246 0.179258
v 0.199702 -0.129246 0.179229
v 0.182661 -0.129216 0.179231
v 0.182660 -0.129237 0.177322
v 0.199746 -0.129216 0.179225
v 0.182668 -0.129233 0.179228
v 0.199740 -0.129233 0.179229
v 0.182649 -0.128580 0.179239
v 0.199759 -0.128580 0.179223
v 0.199668 -0.129269 0.177421
v 0.182746 -0.129269 0.177452
v 0.180765 -0.128424 0.175807
v 0.201247 -0.128568 0.175502
v 0.181160 -0.128348 0.181906
v 0.201643 -0.128343 0.181597
v 0.182599 -0.128593 0.177149
v 0.199799 -0.128565 0.179465
v 0.182667 -0.129212 0.179365
v 0.183012 -0.129146 0.176973
v 0.199740 -0.129241 0.177190
v 0.199394 -0.129210 0.179580
v 0.183014 -0.129270 0.177000
v 0.199379 -0.129239 0.179559
v 0.183063 -0.129236 0.179569
v 0.182670 -0.129258 0.177227
v 0.199386 -0.129260 0.176984
v 0.199733 -0.129231 0.179358
v 0.182662 -0.128595 0.179364
v 0.183006 -0.128624 0.176964
v 0.199745 -0.128623 0.177179
v 0.199402 -0.128591 0.179577
v 0.183004 -0.128575 0.179585
v 0.182649 -0.128604 0.177204
v 0.199403 -0.128601 0.176953
v 0.199752 -0.128578 0.179369
v 0.182663 -0.128595 0.176957
v 0.182726 -0.129212 0.179523
v 0.182724 -0.129241 0.177033
v 0.199682 -0.129244 0.177033
v 0.199684 -0.129212 0.179521
v 0.182741 -0.129242 0.179465
v 0.182731 -0.129272 0.177138
v 0.199666 -0.129244 0.179440
v 0.182738 -0.129235 0.179512
v 0.182734 -0.129265 0.177048
v 0.199670 -0.129265 0.177044
v 0.199674 -0.129235 0.179509
v 0.182720 -0.128595 0.179519
v 0.182718 -0.128625 0.177022
v 0.199688 -0.128626 0.177021
v 0.199688 -0.128593 0.179519
v 0.182711 -0.128571 0.179534
v 0.182706 -0.128602 0.177013
v 0.199700 -0.128602 0.177011
v 0.199700 -0.128570 0.179531
v 0.181155 -0.127745 0.175490
v 0.201647 -0.127740 0.175836
v 0.180761 -0.127672 0.181552
v 0.201252 -0.127667 0.181898
v 0.200591 -0.127667 0.181905
v 0.181814 -0.127667 0.181905
v 0.181816 -0.127745 0.175483
v 0.200591 -0.127745 0.175483
v 0.180758 -0.127686 0.180311
v 0.180758 -0.127726 0.177092
v 0.201650 -0.127726 0.177092
v 0.201650 -0.127686 0.180311
v 0.180762 -0.127741 0.175820
v 0.201252 -0.127745 0.175490
v 0.181155 -0.127667 0.181898
v 0.201646 -0.127671 0.181568
v 0.180821 -0.127744 0.175547
v 0.201586 -0.127744 0.175547
v 0.180821 -0.127668 0.181841
v 0.201586 -0.127668 0.181841
v 0.181153 -0.128455 0.175499
v 0.201643 -0.128419 0.175801
v 0.180765 -0.128369 0.181602
v 0.201256 -0.128492 0.181905
v 0.201467 -0.128532 0.181826
v 0.180964 -0.128532 0.181828
v 0.180982 -0.128610 0.175563
v 0.201426 -0.128609 0.175559
v 0.180831 -0.128534 0.181705
v 0.180843 -0.128607 0.175664
v 0.201567 -0.128607 0.175682
v 0.201577 -0.128534 0.181681
v 0.180822 -0.128422 0.175556
v 0.201585 -0.128440 0.175556
v 0.180822 -0.128355 0.181849
v 0.201586 -0.128353 0.181848
v 0.181169 -0.128587 0.175506
v 0.201632 -0.128589 0.175859
v 0.180771 -0.128513 0.181589
v 0.201168 -0.128515 0.181898
v 0.181824 -0.128515 0.181900
v 0.181838 -0.128593 0.175506
v 0.180771 -0.128524 0.181201
v 0.201637 -0.128524 0.181197
v 0.180775 -0.128588 0.175858
v 0.201186 -0.128594 0.175508
v 0.181167 -0.128515 0.181894
v 0.201636 -0.128513 0.181598
v 0.180836 -0.128592 0.175568
v 0.201572 -0.128592 0.175568
v 0.180833 -0.128516 0.181837
v 0.201575 -0.128516 0.181837
v 0.200784 -0.128604 0.176094
v 0.199807 -0.128595 0.176857
v 0.181988 -0.128546 0.180855
v 0.182513 -0.128595 0.176867
v 0.180949 -0.128543 0.181176
v 0.201112 -0.128540 0.181328
v 0.181333 -0.128606 0.175891
v 0.199585 -0.129273 0.177043
v 0.199585 -0.129243 0.179512
v 0.182679 -0.129265 0.177239
v 0.183559 -0.129268 0.176987
v 0.199729 -0.129240 0.179311
v 0.199754 -0.128617 0.177309
v 0.198870 -0.128589 0.179585
v 0.182641 -0.128570 0.179337
v 0.199766 -0.128570 0.179348
v 0.199321 -0.128567 0.179601
v 0.199894 -0.128561 0.179654
v 0.182830 -0.129273 0.177043
v 0.199292 -0.129268 0.176989
v 0.183065 -0.128599 0.176945
v 0.183062 -0.128567 0.179600
v 0.182680 -0.129240 0.179328
v 0.199728 -0.129265 0.177236
v 0.199747 -0.129236 0.177319
v 0.199752 -0.128598 0.179224
v 0.182639 -0.128596 0.177188
v 0.199770 -0.128596 0.177195
v 0.182827 -0.129243 0.179512
v 0.182696 -0.129234 0.179449
v 0.182798 -0.129265 0.177007
v 0.199710 -0.129264 0.177107
v 0.199611 -0.129234 0.179549
v 0.182686 -0.129210 0.179459
v 0.182787 -0.129241 0.176995
v 0.199721 -0.129242 0.177097
v 0.199620 -0.129212 0.179560
v 0.182681 -0.128594 0.179458
v 0.182781 -0.128624 0.176983
v 0.199726 -0.128624 0.177085
v 0.199625 -0.128594 0.179557
v 0.182672 -0.128572 0.179470
v 0.182768 -0.128602 0.176974
v 0.199739 -0.128601 0.177072
v 0.199637 -0.128569 0.179571
v 0.199696 -0.129271 0.177184
v 0.182799 -0.129234 0.179550
v 0.182696 -0.129264 0.177110
v 0.199609 -0.129265 0.177007
v 0.199711 -0.129235 0.179448
v 0.182789 -0.129213 0.179560
v 0.182686 -0.129240 0.177098
v 0.199619 -0.129241 0.176995
v 0.199722 -0.129211 0.179458
v 0.182783 -0.128594 0.179557
v 0.182680 -0.128623 0.177086
v 0.199625 -0.128625 0.176983
v 0.199727 -0.128594 0.179456
v 0.182775 -0.128569 0.179572
v 0.182668 -0.128601 0.177077
v 0.199635 -0.128602 0.176973
v 0.199737 -0.128572 0.179467
v 0.180759 -0.128439 0.176223
v 0.180784 -0.128425 0.175620
v 0.201522 -0.128454 0.175518
v 0.180886 -0.128346 0.181887
v 0.201624 -0.128335 0.181785
v 0.180886 -0.128451 0.175518
v 0.201624 -0.128425 0.175619
v 0.180784 -0.128361 0.181786
v 0.201523 -0.128348 0.181886
v 0.180785 -0.128531 0.181517
v 0.201158 -0.128526 0.181884
v 0.201616 -0.128600 0.175855
v 0.181237 -0.128526 0.181883
v 0.181247 -0.128604 0.175520
v 0.201176 -0.128604 0.175520
v 0.180792 -0.128600 0.175854
v 0.201623 -0.128531 0.181538
v 0.180812 -0.128602 0.175643
v 0.201494 -0.128604 0.175542
v 0.180908 -0.128527 0.181861
v 0.201601 -0.128528 0.181760
v 0.180914 -0.128604 0.175542
v 0.201595 -0.128602 0.175643
v 0.180806 -0.128528 0.181760
v 0.201500 -0.128527 0.181861
v 0.180763 -0.128506 0.181179
v 0.200591 -0.128496 0.181909
v 0.201643 -0.128567 0.176182
v 0.181819 -0.128575 0.175498
v 0.181819 -0.128496 0.181909
v 0.200589 -0.128575 0.175498
v 0.180764 -0.128566 0.176207
v 0.201645 -0.128505 0.181213
v 0.180789 -0.128573 0.175625
v 0.201517 -0.128574 0.175523
v 0.180889 -0.128497 0.181884
v 0.201620 -0.128498 0.181782
v 0.180891 -0.128574 0.175523
v 0.201619 -0.128573 0.175625
v 0.180788 -0.128498 0.181782
v 0.201518 -0.128497 0.181884
v 0.182522 -0.128561 0.179622
v 0.180926 -0.128610 0.175628
v 0.201470 -0.128536 0.181703
v 0.180961 -0.128536 0.181722
v 0.201413 -0.128610 0.175636
v 0.201482 -0.128603 0.176167
v 0.182220 -0.128599 0.176511
v 0.180783 -0.127744 0.175610
v 0.201523 -0.127745 0.175509
v 0.180885 -0.127667 0.181879
v 0.201625 -0.127668 0.181778
v 0.180885 -0.127745 0.175509
v 0.201625 -0.127744 0.175610
v 0.180783 -0.127668 0.181778
v 0.201523 -0.127667 0.181879
v 0.201638 -0.128571 0.175810
v 0.180827 -0.128574 0.175561
v 0.201581 -0.128574 0.175561
v 0.180826 -0.128497 0.181846
v 0.201582 -0.128497 0.181846
v 0.180770 -0.128571 0.175810
v 0.181160 -0.128497 0.181903
v 0.180850 -0.128603 0.175580
v 0.201557 -0.128603 0.175580
v 0.180844 -0.128527 0.181823
v 0.201563 -0.128527 0.181823
v 0.180798 -0.128591 0.175632
v 0.201508 -0.128593 0.175530
v 0.180896 -0.128515 0.181875
v 0.201613 -0.128517 0.181774
v 0.180899 -0.128593 0.175530
v 0.201610 -0.128591 0.175632
v 0.180795 -0.128517 0.181774
v 0.201511 -0.128515 0.181875
vn 0.0076 -0.9999 0.0105
vn -0.0974 -0.9950 0.0201
vn -0.0174 -0.9998 0.0093
vn -0.0020 -0.9999 0.0119
vn -0.0285 -0.9995 -0.0162
vn -0.0013 -1.0000 0.0093
vn 0.0112 -0.9997 0.0225
vn 0.0441 -0.9990 0.0015
vn 0.0109 -0.9999 0.0117
vn -0.9749 -0.2222 -0.0138
vn -0.9790 -0.2016 0.0289
vn -0.9840 -0.1779 -0.0075
vn -0.9775 -0.2097 0.0222
vn 0.0054 -0.2065 -0.9784
vn -0.0148 -0.2107 -0.9774
vn -0.0095 -0.2636 -0.9646
vn -0.0057 -0.2166 -0.9762
vn 0.9822 -0.1853 0.0313
vn 0.9995 -0.0228 -0.0239
vn 0.9830 -0.1828 0.0201
vn 0.0064 -0.0079 0.9999
vn -0.0157 -0.1612 0.9868
vn 0.0092 -0.1865 0.9824
vn -0.1038 -0.9946 0.0001
vn 0.1259 -0.9917 -0.0246
vn 0.0924 -0.9956 0.0182
vn -0.4151 -0.9094 -0.0267
vn -0.7765 -0.6292 0.0323
vn -0.8215 -0.5640 -0.0831
vn 0.0213 -0.8527 -0.5219
vn 0.0166 -0.5894 -0.8077
vn 0.0233 -0.6040 -0.7966
vn 0.4868 -0.8723 0.0460
vn 0.8344 -0.5461 -0.0744
vn 0.8013 -0.5983 0.0048
vn 0.4239 -0.9056 -0.0155
vn -0.0209 -0.7871 0.6164
vn -0.0015 -0.6107 0.7919
vn -0.0080 -0.6050 0.7962
vn 0.9785 -0.2051 -0.0194
vn -0.8352 -0.5495 0.0233
vn -0.7421 -0.6689 -0.0425
vn -0.0006 -0.5034 -0.8640
vn 0.0109 -0.8016 -0.5977
vn 0.7329 -0.6783 -0.0527
vn 0.8447 -0.5345 0.0298
vn 0.9790 -0.2033 -0.0129
vn -0.0099 -0.1945 0.9808
vn 0.0151 -0.5978 0.8015
vn -0.0069 -0.5644 0.8255
vn 0.0157 -0.2168 0.9761
vn -0.3146 -0.9487 -0.0312
vn -0.0562 -0.9981 0.0239
vn -0.0591 -0.9982 0.0052
vn -0.3390 -0.9399 0.0395
vn -0.0050 -0.9984 -0.0569
vn 0.0236 -0.9988 -0.0426
vn -0.0327 -0.9382 -0.3446
vn 0.3423 -0.9388 0.0375
vn 0.0529 -0.9983 0.0254
vn -0.0159 -0.9472 0.3202
vn 0.0138 -0.9983 0.0571
vn -0.0143 -0.9991 0.0399
vn 0.0038 -0.9560 0.2934
vn 0.0075 -1.0000 -0.0007
vn 0.0014 -0.9999 0.0117
vn 0.0013 -0.9999 0.0112
vn -0.0070 -0.9997 0.0246
vn -0.0005 -0.9999 0.0125
vn -0.0017 -0.9999 0.0148
vn 0.0503 -0.2158 -0.9751
vn 0.0470 -0.2247 -0.9733
vn -0.0559 -0.2480 0.9671
vn 0.0297 -0.9955 -0.0903
vn -0.0967 -0.9951 -0.0207
vn -0.0328 -0.9953 -0.0910
vn -0.0178 -0.9323 -0.3611
vn 0.0051 -0.9943 -0.1069
vn 0.0432 -0.9921 0.1178
vn 0.0139 -0.9838 0.1786
vn -0.0094 -0.9906 0.1367
vn 0.0428 -0.6202 -0.7833
vn -0.0186 -0.9018 -0.4317
vn -0.0406 -0.4591 -0.8875
vn 0.0378 -0.7632 0.6451
vn 0.0559 -0.2209 0.9737
vn 0.0171 -0.7927 -0.6093
vn -0.0533 -0.5332 -0.8443
vn -0.0503 -0.2238 0.9733
vn -0.0560 -0.6153 0.7863
vn 0.0500 -0.5898 0.8060
vn -0.0368 -0.9928 0.1136
vn -0.9690 -0.2128 -0.1257
vn -0.9677 -0.2104 -0.1389
vn 0.9670 -0.2187 0.1306
vn 0.9755 -0.1877 0.1144
vn 0.9607 -0.2464 -0.1277
vn 0.9587 -0.2441 -0.1459
vn -0.4417 -0.8960 0.0465
vn -0.7783 -0.6181 0.1104
vn 0.7784 -0.6192 0.1033
vn -0.9730 -0.1818 0.1422
vn -0.8228 -0.5528 0.1317
vn 0.7905 -0.5972 0.1359
vn -0.2874 -0.2976 0.9104
vn -0.6743 -0.2827 0.6822
vn -0.3004 -0.2691 0.9151
vn -0.8929 -0.2612 -0.3667
vn -0.9017 -0.2921 -0.3189
vn -0.6761 -0.3136 -0.6668
vn -0.6803 -0.2998 -0.6688
vn 0.3148 -0.2683 -0.9104
vn 0.2726 -0.2635 -0.9253
vn 0.8943 -0.2628 0.3621
vn 0.9053 -0.2662 0.3311
vn -0.5796 -0.7819 0.2295
vn -0.1147 -0.9893 0.0906
vn -0.1817 -0.7941 -0.5800
vn -0.4015 -0.8424 -0.3594
vn 0.3775 -0.8419 -0.3857
vn 0.5498 -0.8106 -0.2014
vn 0.1884 -0.7725 0.6064
vn 0.4137 -0.8156 0.4046
vn 0.1022 -0.9931 0.0575
vn -0.8938 -0.2376 0.3803
vn -0.3977 -0.8170 0.4175
vn -0.3125 -0.2731 -0.9098
vn -0.0468 -0.0372 -0.9982
vn 0.8909 -0.2839 -0.3544
vn 0.6680 -0.3117 -0.6757
vn 0.3110 -0.2611 0.9138
vn 0.6786 -0.2859 0.6766
vn -0.8987 -0.2686 0.3468
vn -0.3244 -0.8828 0.3396
vn -0.4821 -0.8506 0.2098
vn -0.9750 -0.1952 0.1060
vn -0.2771 -0.2717 -0.9216
vn -0.3447 -0.8837 -0.3166
vn -0.1606 -0.8295 -0.5349
vn -0.0381 -0.1854 -0.9819
vn 0.8870 -0.3241 -0.3289
vn 0.3787 -0.8620 -0.3369
vn 0.4492 -0.8737 -0.1869
vn 0.2761 -0.3079 0.9105
vn 0.3349 -0.8895 0.3109
vn 0.1473 -0.8980 0.4147
vn 0.0331 -0.2413 0.9699
vn -0.0287 -0.9994 -0.0205
vn 0.0020 -0.9999 0.0105
vn -0.6722 -0.3032 0.6754
vn 0.6718 -0.3140 -0.6709
vn 0.6645 -0.3237 0.6736
vn -0.1621 -0.7836 0.5998
vn -0.5923 -0.7835 -0.1877
vn 0.1776 -0.7935 -0.5820
vn 0.5658 -0.7970 0.2113
vn -0.1452 -0.8870 0.4383
vn -0.4851 -0.8583 -0.1674
vn 0.1621 -0.8675 -0.4702
vn 0.4771 -0.8534 0.2098
vn -0.9998 -0.0202 0.0086
vn -0.9987 0.0008 0.0504
vn -1.0000 -0.0003 0.0005
vn 0.0048 -0.0062 1.0000
vn 0.0409 0.0093 0.9991
vn 0.0052 0.0107 0.9999
vn 0.9998 -0.0200 -0.0050
vn 0.9988 -0.0007 -0.0498
vn 1.0000 -0.0009 -0.0006
vn -0.0057 -0.0282 -0.9996
vn -0.0398 -0.0127 -0.9991
vn -0.0052 -0.0132 -0.9999
vn -0.0053 -0.0068 1.0000
vn -0.0051 0.0107 0.9999
vn -0.0413 -0.0037 0.9991
vn -0.0401 0.0108 0.9991
vn 0.0051 -0.0267 -0.9996
vn 0.0052 -0.0133 -0.9999
vn 0.0501 -0.2034 -0.9778
vn 0.0398 -0.0136 -0.9991
vn -1.0000 -0.0001 -0.0007
vn -0.9997 -0.0217 -0.0074
vn -0.9986 -0.0011 -0.0532
vn 0.9998 -0.0177 0.0080
vn 1.0000 -0.0000 0.0007
vn 0.9986 0.0002 0.0530
vn -0.9486 -0.0261 -0.3153
vn -0.9491 -0.0056 -0.3148
vn -0.7136 -0.0294 -0.7000
vn -0.7073 -0.0098 -0.7068
vn 0.3102 -0.0351 -0.9500
vn 0.3008 -0.0124 -0.9536
vn 0.7041 -0.0344 -0.7093
vn 0.7071 -0.0102 -0.7070
vn -0.2964 -0.0085 0.9550
vn -0.3004 0.0100 0.9538
vn -0.7035 -0.0150 0.7106
vn -0.7069 0.0070 0.7073
vn 0.9480 -0.0177 0.3178
vn 0.9492 0.0023 0.3147
vn 0.7112 -0.0133 0.7028
vn 0.7070 0.0071 0.7071
vn -0.3030 -0.0327 -0.9524
vn -0.3007 -0.0121 -0.9536
vn -0.0386 -0.0355 -0.9986
vn 0.9458 -0.0265 -0.3236
vn 0.9494 -0.0050 -0.3141
vn 0.9980 -0.0198 -0.0603
vn -0.9473 -0.0184 0.3197
vn -0.9493 0.0033 0.3145
vn -0.9979 -0.0255 0.0596
vn 0.3053 -0.0055 0.9522
vn 0.3000 0.0092 0.9539
vn 0.0565 -0.2409 0.9689
vn -0.7916 -0.6111 0.0051
vn -0.4699 -0.8825 0.0212
vn -0.9026 -0.4260 0.0625
vn 0.0042 -0.6025 -0.7981
vn 0.0001 -0.8722 -0.4891
vn -0.0410 -0.4132 -0.9097
vn -0.0093 -0.8995 0.4368
vn 0.0221 -0.9961 0.0857
vn 0.0099 -0.9292 0.3694
vn -0.0017 -0.6436 0.7654
vn 0.0238 -0.5831 0.8121
vn 0.0221 -0.5386 -0.8423
vn 0.0082 -0.9073 -0.4203
vn -0.0169 -0.9936 -0.1120
vn 0.0203 -0.9932 -0.1145
vn -0.3608 -0.9326 -0.0063
vn -0.0871 -0.9957 0.0322
vn -0.7982 -0.6020 -0.0208
vn -0.0951 -0.9953 -0.0202
vn 0.4783 -0.8777 0.0297
vn 0.0874 -0.9961 -0.0088
vn 0.3577 -0.9337 -0.0148
vn 0.0891 -0.9955 0.0312
vn -0.3676 -0.9241 -0.1048
vn -0.7041 -0.6753 -0.2198
vn -0.5128 -0.6924 -0.5075
vn -0.2364 -0.9417 -0.2395
vn 0.0961 -0.9159 -0.3898
vn 0.2261 -0.6367 -0.7372
vn 0.5128 -0.6925 -0.5075
vn 0.2372 -0.9420 -0.2374
vn -0.1019 -0.9259 0.3637
vn -0.0172 -0.9962 0.0857
vn -0.2185 -0.6582 0.7204
vn -0.0181 -0.6554 0.7551
vn -0.5151 -0.6810 0.5205
vn -0.2419 -0.9381 0.2477
vn 0.3808 -0.9181 0.1096
vn 0.7307 -0.6361 0.2479
vn 0.9130 -0.4019 0.0699
vn 0.5150 -0.6809 0.5208
vn 0.2441 -0.9380 0.2461
vn -0.0951 -0.9153 -0.3914
vn -0.2276 -0.6382 -0.7355
vn 0.3574 -0.9286 -0.1001
vn 0.7034 -0.6757 -0.2207
vn 0.7961 -0.6050 -0.0141
vn -0.3963 -0.9116 0.1095
vn -0.7304 -0.6370 0.2464
vn 0.0859 -0.9181 0.3870
vn 0.2181 -0.6579 0.7208
vn -0.0012 -0.2677 0.9635
vn 0.9626 -0.2707 0.0072
vn 0.9640 -0.2576 -0.0664
vn -0.0086 -0.2319 0.9727
vn -0.0412 -0.2295 0.9724
vn 0.0016 -0.2566 -0.9665
vn -0.0047 -0.2405 -0.9706
vn -0.9734 -0.2289 0.0094
vn -0.9587 -0.2841 -0.0113
vn -0.9981 -0.0182 -0.0588
vn -0.9638 -0.2576 -0.0683
vn 0.9766 -0.2144 0.0139
vn 0.7859 -0.6179 0.0240
vn 0.9980 -0.0197 0.0606
vn -0.9114 -0.2729 -0.3081
vn -0.6819 -0.2857 -0.6733
vn 0.3078 -0.2560 -0.9164
vn 0.6819 -0.2860 -0.6732
vn -0.2989 -0.2543 0.9198
vn -0.6773 -0.2696 0.6846
vn 0.9225 -0.2282 0.3113
vn 0.6771 -0.2696 0.6847
vn -0.3071 -0.2538 -0.9172
vn 0.9114 -0.2724 -0.3085
vn -0.9149 -0.2431 0.3223
vn 0.3011 -0.2555 0.9187
vn 0.0011 -0.9999 0.0119
vn 0.0027 -0.9999 0.0145
vn -0.0088 -0.9999 0.0142
vn 0.3258 -0.9452 -0.0223
vt 0.624641 0.692333
vt 0.582289 0.723715
vt 0.582292 0.692709
vt 0.582452 0.726059
vt 0.582574 0.686329
vt 0.582538 0.687402
vt 0.624513 0.727791
vt 0.624701 0.688955
vt 0.624745 0.690396
vt 0.582259 0.691473
vt 0.582259 0.722655
vt 0.582259 0.691558
vt 0.582259 0.722559
vt 0.622574 0.685774
vt 0.584451 0.685774
vt 0.622577 0.685774
vt 0.584458 0.685774
vt 0.624772 0.722535
vt 0.624772 0.691527
vt 0.624772 0.722602
vt 0.622577 0.728288
vt 0.584454 0.728288
vt 0.622575 0.728288
vt 0.582284 0.689842
vt 0.624693 0.688878
vt 0.624756 0.723326
vt 0.582283 0.689991
vt 0.582259 0.722561
vt 0.582283 0.689937
vt 0.623668 0.685951
vt 0.584454 0.685774
vt 0.622577 0.685774
vt 0.624749 0.723952
vt 0.624749 0.689994
vt 0.624772 0.722571
vt 0.624748 0.689953
vt 0.583244 0.728094
vt 0.622575 0.728288
vt 0.584455 0.728288
vt 0.624772 0.691476
vt 0.582259 0.722605
vt 0.582283 0.689929
vt 0.584455 0.685774
vt 0.622579 0.685774
vt 0.624749 0.689954
vt 0.624772 0.722361
vt 0.624772 0.691474
vt 0.584456 0.728288
vt 0.622576 0.728288
vt 0.584456 0.728288
vt 0.622575 0.728288
vt 0.582284 0.689787
vt 0.582339 0.724936
vt 0.582288 0.689572
vt 0.582280 0.723984
vt 0.583239 0.685964
vt 0.624371 0.686939
vt 0.583336 0.685950
vt 0.624747 0.724156
vt 0.624677 0.725114
vt 0.583320 0.728111
vt 0.624398 0.727286
vt 0.582619 0.727218
vt 0.623653 0.728120
vt 0.624511 0.686373
vt 0.624324 0.686607
vt 0.582726 0.686073
vt 0.582429 0.727302
vt 0.583074 0.728195
vt 0.624100 0.727943
vt 0.623876 0.685981
vt 0.623876 0.685980
vt 0.583156 0.728081
vt 0.624418 0.686667
vt 0.582395 0.688042
vt 0.582631 0.686548
vt 0.583140 0.685989
vt 0.623673 0.685942
vt 0.624401 0.727503
vt 0.623877 0.728078
vt 0.583475 0.728138
vt 0.623875 0.685982
vt 0.584456 0.685774
vt 0.583156 0.685982
vt 0.623855 0.728083
vt 0.623876 0.728081
vt 0.623876 0.685979
vt 0.583155 0.685979
vt 0.583155 0.728083
vt 0.583155 0.728083
vt 0.623876 0.728083
vt 0.582628 0.727498
vt 0.582290 0.689475
vt 0.582290 0.689459
vt 0.624741 0.724588
vt 0.624741 0.724603
vt 0.624741 0.689459
vt 0.624741 0.689475
vt 0.582286 0.724219
vt 0.582290 0.724575
vt 0.624741 0.724575
vt 0.582290 0.724588
vt 0.582290 0.724615
vt 0.624741 0.724615
vt 0.582638 0.727466
vt 0.582512 0.726635
vt 0.582638 0.727461
vt 0.582385 0.688254
vt 0.582385 0.688240
vt 0.582512 0.687428
vt 0.582511 0.687418
vt 0.624393 0.686601
vt 0.624394 0.686596
vt 0.624646 0.725808
vt 0.624646 0.725823
vt 0.582385 0.725790
vt 0.582455 0.726345
vt 0.582638 0.686607
vt 0.582512 0.687442
vt 0.624519 0.687442
vt 0.624646 0.688273
vt 0.624393 0.727455
vt 0.624519 0.726621
vt 0.624602 0.726225
vt 0.582385 0.725808
vt 0.582512 0.726621
vt 0.582638 0.686601
vt 0.583155 0.685981
vt 0.624646 0.688254
vt 0.624520 0.687428
vt 0.624393 0.727461
vt 0.624520 0.726635
vt 0.582385 0.725823
vt 0.582511 0.726657
vt 0.582385 0.725842
vt 0.582290 0.724603
vt 0.582638 0.686596
vt 0.582511 0.687406
vt 0.582637 0.686590
vt 0.583155 0.685980
vt 0.624646 0.688240
vt 0.624520 0.687406
vt 0.624646 0.688219
vt 0.624393 0.727466
vt 0.624520 0.726658
vt 0.624394 0.727474
vt 0.582531 0.687235
vt 0.624443 0.686711
vt 0.582511 0.726645
vt 0.624520 0.687418
vt 0.624520 0.726645
vt 0.582638 0.727455
vt 0.582385 0.688273
vt 0.624393 0.686608
vt 0.624646 0.725789
vt 0.582637 0.727473
vt 0.582385 0.688221
vt 0.624394 0.686591
vt 0.624646 0.725841
vt 0.582259 0.723515
vt 0.582282 0.725916
vt 0.582259 0.717735
vt 0.622622 0.728288
vt 0.623951 0.728204
vt 0.622618 0.728288
vt 0.624772 0.690566
vt 0.624749 0.688147
vt 0.624772 0.696428
vt 0.584410 0.685774
vt 0.583081 0.685858
vt 0.584412 0.685774
vt 0.584409 0.728288
vt 0.584410 0.728288
vt 0.583081 0.728204
vt 0.583081 0.728204
vt 0.622620 0.685774
vt 0.622618 0.685774
vt 0.623950 0.685859
vt 0.623951 0.685858
vt 0.582259 0.696427
vt 0.582259 0.690507
vt 0.582283 0.688046
vt 0.624772 0.723546
vt 0.624772 0.717735
vt 0.624749 0.726017
vt 0.582362 0.686786
vt 0.582362 0.686783
vt 0.582466 0.686449
vt 0.582466 0.686447
vt 0.624462 0.686111
vt 0.624566 0.686449
vt 0.624566 0.686447
vt 0.582569 0.727951
vt 0.582569 0.727952
vt 0.582466 0.727614
vt 0.582466 0.727615
vt 0.624669 0.727277
vt 0.624669 0.727279
vt 0.624566 0.727614
vt 0.624566 0.727615
vt 0.582569 0.686111
vt 0.583081 0.685859
vt 0.624669 0.686786
vt 0.624669 0.686783
vt 0.624747 0.687884
vt 0.582362 0.727277
vt 0.582362 0.727279
vt 0.582285 0.726179
vt 0.624462 0.727951
vt 0.624462 0.727952
vt 0.623950 0.728203
vt 0.582259 0.723634
vt 0.582281 0.725781
vt 0.582285 0.726168
vt 0.584430 0.685774
vt 0.583209 0.685852
vt 0.583082 0.685860
vt 0.583201 0.728210
vt 0.624458 0.727860
vt 0.623804 0.728211
vt 0.584407 0.728288
vt 0.623802 0.728213
vt 0.623846 0.685853
vt 0.623852 0.685854
vt 0.582599 0.686136
vt 0.624408 0.686107
vt 0.582283 0.688086
vt 0.582379 0.727152
vt 0.582282 0.688173
vt 0.582405 0.686824
vt 0.624749 0.725915
vt 0.624641 0.686928
vt 0.624748 0.688091
vt 0.624679 0.727041
vt 0.582363 0.686810
vt 0.582362 0.686801
vt 0.582466 0.686459
vt 0.582466 0.686465
vt 0.624461 0.686120
vt 0.624461 0.686117
vt 0.624565 0.686459
vt 0.624565 0.686465
vt 0.582570 0.727945
vt 0.582603 0.727948
vt 0.582570 0.727947
vt 0.583081 0.728203
vt 0.582466 0.727606
vt 0.582466 0.727601
vt 0.624669 0.727258
vt 0.624669 0.727265
vt 0.624747 0.726169
vt 0.624565 0.727606
vt 0.624565 0.727601
vt 0.582570 0.686120
vt 0.582570 0.686117
vt 0.624669 0.686810
vt 0.624669 0.686801
vt 0.624750 0.688184
vt 0.582363 0.727258
vt 0.582362 0.727265
vt 0.624461 0.727945
vt 0.624462 0.727947
vt 0.622625 0.728288
vt 0.624772 0.690319
vt 0.624747 0.687891
vt 0.584409 0.728288
vt 0.622624 0.685774
vt 0.584407 0.685774
vt 0.582259 0.723448
vt 0.582259 0.690481
vt 0.582285 0.687884
vt 0.582285 0.687891
vt 0.624772 0.723674
vt 0.624772 0.723609
vt 0.624747 0.726179
vt 0.582362 0.686792
vt 0.582466 0.686453
vt 0.624462 0.686114
vt 0.624565 0.686453
vt 0.582569 0.727949
vt 0.582466 0.727611
vt 0.624669 0.727272
vt 0.624565 0.727611
vt 0.582569 0.686114
vt 0.624669 0.686792
vt 0.582362 0.727272
vt 0.624462 0.727949
vt 0.582713 0.686602
vt 0.624618 0.725071
vt 0.582279 0.722762
vt 0.624748 0.689889
s 1
f 61/1/1 52/2/2 62/3/3
f 262/4/4 263/5/5 162/6/6
f 264/7/7 2/8/8 267/9/9
f 55/10/10 49/11/11 50/12/12
f 49/11/11 55/10/10 54/13/13
f 31/14/14 26/15/15 27/16/16
f 26/15/15 31/14/14 30/17/17
f 56/18/18 51/19/19 184/20/20
f 28/21/21 33/22/22 32/23/23
f 62/3/3 52/2/2 8/24/24
f 61/1/1 204/25/25 53/26/26
f 168/27/27 57/28/28 76/29/29
f 168/27/27 8/24/24 52/2/2
f 178/30/30 34/31/31 35/32/32
f 170/33/33 12/34/34 58/35/35
f 182/36/36 53/26/26 204/25/25
f 75/37/37 36/38/38 37/39/39
f 54/13/13 76/29/29 57/28/28
f 30/17/17 35/32/32 34/31/31
f 183/40/40 58/35/35 12/34/34
f 32/23/23 37/39/39 36/38/38
f 50/12/12 59/41/41 84/42/42
f 27/16/16 42/43/43 43/44/44
f 184/20/20 20/45/45 60/46/46
f 171/47/47 184/20/20 51/19/19
f 29/48/48 44/49/49 45/50/50
f 172/51/51 29/48/48 28/21/21
f 185/52/52 1/53/53 67/54/54
f 173/55/55 84/42/42 59/41/41
f 43/44/44 38/56/56 39/57/57
f 179/58/58 43/44/44 42/43/43
f 174/59/59 2/8/8 68/60/60
f 174/59/59 60/46/46 20/45/45
f 180/61/61 40/62/62 41/63/63
f 175/64/64 45/50/50 44/49/49
f 266/65/65 159/66/66 165/67/67
f 265/68/68 161/69/69 164/70/70
f 5/71/71 27/16/16 16/72/72
f 27/16/16 5/71/71 31/14/14
f 29/48/48 3/73/73 33/22/22
f 166/74/74 204/25/25 93/75/75
f 177/76/76 73/77/77 9/78/78
f 167/79/79 74/80/80 7/81/81
f 178/30/30 35/32/32 77/82/82
f 169/83/83 9/78/78 73/77/77
f 169/83/83 11/84/84 34/31/31
f 13/85/85 7/81/81 74/80/80
f 31/14/14 77/82/82 35/32/32
f 33/22/22 75/37/37 37/39/39
f 72/86/86 36/38/38 13/85/85
f 16/72/72 43/44/44 85/87/87
f 26/15/15 19/88/88 42/43/43
f 14/89/89 45/50/50 83/90/90
f 172/51/51 21/91/91 44/49/49
f 179/58/58 42/43/43 19/88/88
f 180/61/61 83/90/90 45/50/50
f 175/64/64 44/49/49 21/91/91
f 187/92/92 53/26/26 167/79/79
f 165/67/67 162/6/6 263/5/5
f 4/93/93 50/12/12 15/94/94
f 6/95/95 184/20/20 17/96/96
f 184/20/20 6/95/95 56/18/18
f 81/97/97 183/40/40 71/98/98
f 183/40/40 81/97/97 51/19/19
f 181/99/99 10/100/100 57/28/28
f 170/33/33 58/35/35 78/101/101
f 69/102/102 57/28/28 10/100/100
f 56/18/18 78/101/101 58/35/35
f 49/11/11 18/103/103 59/41/41
f 17/96/96 60/46/46 86/104/104
f 173/55/55 59/41/41 18/103/103
f 174/59/59 86/104/104 60/46/46
f 213/105/105 88/106/106 209/107/107
f 14/89/89 209/107/107 3/73/73
f 210/108/108 15/94/94 214/109/109
f 89/110/110 214/109/109 100/111/111
f 211/112/112 16/72/72 215/113/113
f 212/114/114 17/96/96 216/115/115
f 8/24/24 93/75/75 62/3/3
f 188/116/116 52/2/2 92/117/117
f 181/99/99 188/116/116 10/100/100
f 189/118/118 73/77/77 177/76/76
f 96/119/119 177/76/76 93/75/75
f 73/77/77 189/118/118 11/84/84
f 97/120/120 204/25/25 166/74/74
f 182/36/36 190/121/121 12/34/34
f 191/122/122 74/80/80 167/79/79
f 98/123/123 167/79/79 94/124/124
f 74/80/80 191/122/122 13/85/85
f 192/125/125 10/100/100 188/116/116
f 88/106/106 188/116/116 95/126/126
f 193/127/127 11/84/84 189/118/118
f 89/110/110 189/118/118 96/119/119
f 11/84/84 193/127/127 70/128/128
f 194/129/129 12/34/34 190/121/121
f 90/130/130 190/121/121 97/120/120
f 195/131/131 13/85/85 191/122/122
f 91/132/132 191/122/122 98/123/123
f 196/133/133 103/134/134 200/135/135
f 79/136/136 200/135/135 18/103/103
f 197/137/137 104/138/138 201/139/139
f 80/140/140 201/139/139 19/88/88
f 198/141/141 105/142/142 202/143/143
f 81/97/97 202/143/143 20/45/45
f 199/144/144 106/145/145 203/146/146
f 82/91/147 203/146/146 21/91/91
f 200/135/135 41/63/63 1/53/53
f 179/58/58 87/147/148 38/56/56
f 202/143/143 39/57/57 2/8/8
f 267/9/9 160/148/149 159/66/66
f 192/125/125 99/149/150 196/133/133
f 69/102/102 196/133/133 79/136/136
f 99/149/150 192/125/125 88/106/106
f 193/127/127 100/111/111 197/137/137
f 70/128/128 197/137/137 80/140/140
f 198/141/141 71/98/98 194/129/129
f 101/150/151 194/129/129 90/130/130
f 72/86/86 199/144/144 82/91/147
f 199/144/144 72/86/86 195/131/131
f 102/151/152 195/131/131 91/132/132
f 205/152/153 92/117/117 187/92/92
f 75/37/37 187/92/92 7/81/81
f 168/27/27 93/75/75 8/24/24
f 178/30/30 166/74/74 9/78/78
f 170/33/33 94/124/124 53/26/26
f 209/107/107 95/126/126 205/152/153
f 3/73/73 205/152/153 75/37/37
f 210/108/108 96/119/119 206/153/154
f 4/93/93 206/153/154 76/29/29
f 211/112/112 97/120/120 207/154/155
f 5/71/71 207/154/155 77/82/82
f 212/114/114 98/123/123 208/155/156
f 6/95/95 208/155/156 78/101/101
f 213/105/105 83/90/90 217/156/157
f 99/149/150 217/156/157 103/134/134
f 214/109/109 84/42/42 218/157/158
f 100/111/111 218/157/158 104/138/138
f 215/113/113 85/87/87 219/158/159
f 101/150/151 219/158/159 105/142/142
f 216/115/115 86/104/104 220/159/160
f 102/151/152 220/159/160 106/145/145
f 180/61/61 217/156/157 83/90/90
f 185/52/52 218/157/158 84/42/42
f 218/157/158 67/54/54 87/147/148
f 174/59/59 220/159/160 86/104/104
f 106/145/145 68/60/60 40/62/62
f 204/25/25 61/1/1 93/75/75
f 46/160/161 109/161/162 115/162/163
f 22/163/164 110/164/165 111/165/166
f 47/166/167 108/167/168 117/168/169
f 24/169/170 107/170/171 113/171/172
f 23/172/173 111/165/166 112/173/174
f 65/174/175 112/173/174 121/175/176
f 25/176/177 113/171/172 114/177/178
f 64/178/179 114/177/178 120/179/180
f 46/160/161 115/162/163 116/180/181
f 221/181/182 116/180/181 119/182/183
f 48/183/184 117/168/169 118/184/185
f 48/183/184 118/184/185 122/185/186
f 222/186/187 119/182/183 269/187/188
f 139/188/189 269/187/188 123/189/190
f 223/190/191 120/179/180 270/190/192
f 140/191/193 270/190/192 124/192/194
f 224/193/195 121/175/176 271/194/196
f 141/195/197 271/194/196 125/196/198
f 225/197/199 122/185/186 272/198/200
f 142/199/201 272/198/200 126/200/202
f 226/201/203 123/189/190 273/201/204
f 127/202/205 273/201/204 107/170/171
f 227/203/206 124/192/194 274/204/207
f 128/205/208 274/204/207 108/167/168
f 228/206/209 125/196/198 275/207/210
f 129/208/211 275/207/210 109/161/162
f 229/209/212 126/200/202 276/210/213
f 130/211/214 276/210/213 110/164/165
f 149/212/215 230/213/216 145/214/217
f 148/215/218 234/216/219 143/217/220
f 233/218/221 131/219/222 231/220/223
f 147/221/224 231/220/223 146/222/225
f 234/216/219 152/223/226 235/224/227
f 133/225/228 235/224/227 134/226/229
f 236/227/230 135/228/231 230/213/216
f 151/229/232 230/213/216 149/212/215
f 135/228/231 236/227/230 136/230/233
f 237/231/234 137/232/235 232/233/236
f 137/232/235 237/231/234 138/234/237
f 238/235/238 136/230/233 236/227/230
f 288/236/239 236/227/230 151/229/232
f 238/235/238 155/237/240 284/238/241
f 239/239/242 134/226/229 235/224/227
f 289/240/243 235/224/227 152/223/226
f 239/239/242 156/241/244 285/242/245
f 134/226/229 285/242/245 137/232/235
f 240/243/246 132/244/247 233/218/221
f 290/245/248 233/218/221 153/246/249
f 240/243/246 157/247/250 286/248/251
f 132/244/247 286/248/251 135/228/231
f 241/249/252 138/234/237 237/231/234
f 291/250/253 237/231/234 154/251/254
f 241/249/252 158/252/255 287/253/256
f 138/234/237 287/253/256 131/219/222
f 242/254/257 136/230/233 284/238/241
f 292/255/258 284/238/241 155/237/240
f 242/254/257 143/217/220 234/216/219
f 243/256/259 137/232/235 285/242/245
f 293/257/260 285/242/245 156/241/244
f 243/256/259 144/258/261 232/233/236
f 244/259/262 135/228/231 286/248/251
f 294/260/263 286/248/251 157/247/250
f 244/259/262 145/214/217 230/213/216
f 245/261/264 131/219/222 287/253/256
f 295/262/265 287/253/256 158/252/255
f 245/261/264 146/222/225 231/220/223
f 46/160/161 145/214/217 129/208/211
f 247/263/266 146/222/225 130/211/214
f 248/264/267 144/258/261 277/265/268
f 47/166/167 277/265/268 128/205/208
f 24/169/170 143/217/220 127/202/205
f 250/266/269 146/222/225 247/263/266
f 250/266/269 65/174/175 283/246/270
f 147/221/224 283/246/270 153/246/249
f 251/267/271 148/215/218 249/268/272
f 25/176/177 249/268/272 24/169/170
f 148/215/218 251/267/271 152/223/226
f 246/269/273 221/181/182 252/270/274
f 252/270/274 63/271/275 282/272/276
f 48/183/184 248/264/267 47/166/167
f 248/264/267 48/183/184 253/273/277
f 144/258/261 253/273/277 150/274/278
f 253/273/277 66/275/279 154/251/254
f 254/276/280 151/229/232 282/272/276
f 222/186/187 282/272/276 63/271/275
f 254/276/280 139/188/189 278/277/281
f 288/236/239 278/277/281 155/237/240
f 255/278/282 152/223/226 64/178/179
f 255/278/282 140/191/193 279/279/283
f 289/240/243 279/279/283 156/241/244
f 256/280/284 153/246/249 283/246/270
f 224/193/195 283/246/270 65/174/175
f 256/280/284 141/195/197 280/281/285
f 290/245/248 280/281/285 157/247/250
f 225/197/199 154/251/254 66/275/279
f 257/282/286 142/199/201 281/283/287
f 291/250/253 281/283/287 158/252/255
f 258/284/288 155/237/240 278/277/281
f 226/201/203 278/277/281 139/188/189
f 258/284/288 127/202/205 143/217/220
f 259/285/289 156/241/244 279/279/283
f 227/203/206 279/279/283 140/191/193
f 259/285/289 128/205/208 277/265/268
f 293/257/260 277/265/268 144/258/261
f 260/286/290 157/247/250 280/281/285
f 228/206/209 280/281/285 141/195/197
f 260/286/290 129/208/211 145/214/217
f 261/287/291 158/252/255 281/283/287
f 229/209/212 281/283/287 142/199/201
f 295/262/265 130/211/214 146/222/225
f 1/53/53 262/4/4 67/54/54
f 263/5/5 134/226/229 266/65/65
f 40/62/62 161/69/69 41/63/63
f 132/244/247 265/68/68 131/219/222
f 159/66/66 160/148/149 268/288/292
f 268/288/292 165/67/67 159/66/66
f 264/7/7 131/219/222 265/68/68
f 162/6/6 67/54/54 262/4/4
f 263/5/5 136/230/233 133/225/228
f 265/68/68 41/63/63 161/69/69
f 162/6/6 165/67/67 268/288/292
f 68/60/60 176/289/293 40/62/62
f 264/7/7 164/70/70 176/289/293
f 163/290/294 41/63/63 265/68/68
f 87/147/148 162/6/6 38/56/56
f 2/8/8 39/57/57 160/148/149
f 263/5/5 262/4/4 163/290/294
f 183/40/40 51/19/19 56/18/18
f 28/21/21 29/48/48 33/22/22
f 166/74/74 177/76/76 9/78/78
f 177/76/76 166/74/74 93/75/75
f 168/27/27 181/99/99 57/28/28
f 181/99/99 168/27/27 52/2/2
f 178/30/30 169/83/83 34/31/31
f 169/83/83 178/30/30 9/78/78
f 170/33/33 182/36/36 12/34/34
f 182/36/36 170/33/33 53/26/26
f 75/37/37 13/85/85 36/38/38
f 13/85/85 75/37/37 7/81/81
f 54/13/13 55/10/10 76/29/29
f 30/17/17 31/14/14 35/32/32
f 183/40/40 56/18/18 58/35/35
f 32/23/23 33/22/22 37/39/39
f 50/12/12 49/11/11 59/41/41
f 27/16/16 26/15/15 42/43/43
f 184/20/20 171/47/47 20/45/45
f 29/48/48 172/51/51 44/49/49
f 185/52/52 173/55/55 1/53/53
f 173/55/55 185/52/52 84/42/42
f 43/44/44 179/58/58 38/56/56
f 174/59/59 186/291/295 2/8/8
f 186/291/295 174/59/59 20/45/45
f 180/61/61 175/64/64 40/62/62
f 175/64/64 180/61/61 45/50/50
f 40/62/62 176/289/293 161/69/69
f 70/128/128 26/15/15 30/17/17
f 26/15/15 70/128/128 80/140/140
f 29/48/48 14/89/89 3/73/73
f 72/86/86 28/21/21 32/23/23
f 28/21/21 72/86/86 82/91/147
f 187/92/92 167/79/79 7/81/81
f 169/83/83 73/77/77 11/84/84
f 31/14/14 5/71/71 77/82/82
f 11/84/84 30/17/17 34/31/31
f 30/17/17 11/84/84 70/128/128
f 33/22/22 3/73/73 75/37/37
f 72/86/86 32/23/23 36/38/38
f 16/72/72 27/16/16 43/44/44
f 26/15/15 80/140/140 19/88/88
f 14/89/89 29/48/48 45/50/50
f 82/91/147 172/51/51 28/21/21
f 172/51/51 82/91/147 21/91/91
f 85/87/87 43/44/44 39/57/57
f 267/9/9 2/8/8 160/148/149
f 4/93/93 55/10/10 50/12/12
f 69/102/102 49/11/11 54/13/13
f 49/11/11 69/102/102 79/136/136
f 55/10/10 4/93/93 76/29/29
f 69/102/102 54/13/13 57/28/28
f 56/18/18 6/95/95 78/101/101
f 71/98/98 183/40/40 12/34/34
f 15/94/94 50/12/12 84/42/42
f 49/11/11 79/136/136 18/103/103
f 17/96/96 184/20/20 60/46/46
f 81/97/97 171/47/47 51/19/19
f 171/47/47 81/97/97 20/45/45
f 187/92/92 52/2/2 53/26/26
f 213/105/105 99/149/150 88/106/106
f 14/89/89 213/105/105 209/107/107
f 210/108/108 4/93/93 15/94/94
f 89/110/110 210/108/108 214/109/109
f 211/112/112 5/71/71 16/72/72
f 101/150/151 211/112/112 215/113/113
f 211/112/112 101/150/151 90/130/130
f 212/114/114 6/95/95 17/96/96
f 102/151/152 212/114/114 216/115/115
f 212/114/114 102/151/152 91/132/132
f 188/116/116 181/99/99 52/2/2
f 95/126/126 188/116/116 92/117/117
f 96/119/119 189/118/118 177/76/76
f 190/121/121 182/36/36 204/25/25
f 97/120/120 190/121/121 204/25/25
f 98/123/123 191/122/122 167/79/79
f 192/125/125 69/102/102 10/100/100
f 88/106/106 192/125/125 188/116/116
f 89/110/110 193/127/127 189/118/118
f 194/129/129 71/98/98 12/34/34
f 90/130/130 194/129/129 190/121/121
f 195/131/131 72/86/86 13/85/85
f 91/132/132 195/131/131 191/122/122
f 196/133/133 99/149/150 103/134/134
f 79/136/136 196/133/133 200/135/135
f 197/137/137 100/111/111 104/138/138
f 80/140/140 197/137/137 201/139/139
f 198/141/141 101/150/151 105/142/142
f 81/97/97 198/141/141 202/143/143
f 199/144/144 102/151/152 106/145/145
f 82/91/147 199/144/144 203/146/146
f 200/135/135 173/55/55 18/103/103
f 200/135/135 103/134/134 41/63/63
f 173/55/55 200/135/135 1/53/53
f 201/139/139 179/58/58 19/88/88
f 201/139/139 104/138/138 87/147/148
f 179/58/58 201/139/139 87/147/148
f 202/143/143 186/291/295 20/45/45
f 202/143/143 105/142/142 39/57/57
f 186/291/295 202/143/143 2/8/8
f 203/146/146 175/64/64 21/91/91
f 203/146/146 106/145/145 40/62/62
f 175/64/64 203/146/146 40/62/62
f 266/65/65 267/9/9 159/66/66
f 69/102/102 192/125/125 196/133/133
f 193/127/127 89/110/110 100/111/111
f 70/128/128 193/127/127 197/137/137
f 198/141/141 81/97/97 71/98/98
f 101/150/151 198/141/141 194/129/129
f 102/151/152 199/144/144 195/131/131
f 52/2/2 187/92/92 92/117/117
f 205/152/153 95/126/126 92/117/117
f 75/37/37 205/152/153 187/92/92
f 206/153/154 96/119/119 93/75/75
f 168/27/27 206/153/154 93/75/75
f 206/153/154 168/27/27 76/29/29
f 207/154/155 97/120/120 166/74/74
f 178/30/30 207/154/155 166/74/74
f 207/154/155 178/30/30 77/82/82
f 208/155/156 98/123/123 94/124/124
f 170/33/33 208/155/156 94/124/124
f 208/155/156 170/33/33 78/101/101
f 209/107/107 88/106/106 95/126/126
f 3/73/73 209/107/107 205/152/153
f 210/108/108 89/110/110 96/119/119
f 4/93/93 210/108/108 206/153/154
f 211/112/112 90/130/130 97/120/120
f 5/71/71 211/112/112 207/154/155
f 212/114/114 91/132/132 98/123/123
f 6/95/95 212/114/114 208/155/156
f 213/105/105 14/89/89 83/90/90
f 99/149/150 213/105/105 217/156/157
f 214/109/109 15/94/94 84/42/42
f 100/111/111 214/109/109 218/157/158
f 215/113/113 16/72/72 85/87/87
f 101/150/151 215/113/113 219/158/159
f 216/115/115 17/96/96 86/104/104
f 102/151/152 216/115/115 220/159/160
f 217/156/157 180/61/61 41/63/63
f 103/134/134 217/156/157 41/63/63
f 218/157/158 185/52/52 67/54/54
f 104/138/138 218/157/158 87/147/148
f 219/158/159 85/87/87 39/57/57
f 105/142/142 219/158/159 39/57/57
f 220/159/160 174/59/59 68/60/60
f 106/145/145 220/159/160 68/60/60
f 94/124/124 167/79/79 53/26/26
f 52/2/2 61/1/1 53/26/26
f 93/75/75 61/1/1 62/3/3
f 46/160/161 129/208/211 109/161/162
f 22/163/164 130/211/214 110/164/165
f 47/166/167 128/205/208 108/167/168
f 24/169/170 127/202/205 107/170/171
f 23/172/173 22/163/164 111/165/166
f 65/174/175 23/172/173 112/173/174
f 25/176/177 24/169/170 113/171/172
f 64/178/179 25/176/177 114/177/178
f 221/181/182 46/160/161 116/180/181
f 63/271/275 221/181/182 119/182/183
f 48/183/184 47/166/167 117/168/169
f 66/275/279 48/183/184 122/185/186
f 222/186/187 63/271/275 119/182/183
f 139/188/189 222/186/187 269/187/188
f 223/190/191 64/178/179 120/179/180
f 140/191/193 223/190/191 270/190/192
f 224/193/195 65/174/175 121/175/176
f 141/195/197 224/193/195 271/194/196
f 225/197/199 66/275/279 122/185/186
f 142/199/201 225/197/199 272/198/200
f 226/201/203 139/188/189 123/189/190
f 127/202/205 226/201/203 273/201/204
f 227/203/206 140/191/193 124/192/194
f 128/205/208 227/203/206 274/204/207
f 228/206/209 141/195/197 125/196/198
f 129/208/211 228/206/209 275/207/210
f 229/209/212 142/199/201 126/200/202
f 130/211/214 229/209/212 276/210/213
f 233/218/221 132/244/247 131/219/222
f 147/221/224 233/218/221 231/220/223
f 233/218/221 147/221/224 153/246/249
f 234/216/219 148/215/218 152/223/226
f 133/225/228 234/216/219 235/224/227
f 151/229/232 236/227/230 230/213/216
f 144/258/261 237/231/234 232/233/236
f 237/231/234 144/258/261 150/274/278
f 237/231/234 150/274/278 154/251/254
f 288/236/239 238/235/238 236/227/230
f 238/235/238 288/236/239 155/237/240
f 136/230/233 238/235/238 284/238/241
f 289/240/243 239/239/242 235/224/227
f 239/239/242 289/240/243 156/241/244
f 134/226/229 239/239/242 285/242/245
f 290/245/248 240/243/246 233/218/221
f 240/243/246 290/245/248 157/247/250
f 132/244/247 240/243/246 286/248/251
f 291/250/253 241/249/252 237/231/234
f 241/249/252 291/250/253 158/252/255
f 138/234/237 241/249/252 287/253/256
f 242/254/257 133/225/228 136/230/233
f 292/255/258 242/254/257 284/238/241
f 242/254/257 292/255/258 143/217/220
f 133/225/228 242/254/257 234/216/219
f 293/257/260 243/256/259 285/242/245
f 243/256/259 293/257/260 144/258/261
f 137/232/235 243/256/259 232/233/236
f 294/260/263 244/259/262 286/248/251
f 244/259/262 294/260/263 145/214/217
f 135/228/231 244/259/262 230/213/216
f 295/262/265 245/261/264 287/253/256
f 245/261/264 295/262/265 146/222/225
f 131/219/222 245/261/264 231/220/223
f 246/269/273 149/212/215 145/214/217
f 46/160/161 246/269/273 145/214/217
f 22/163/164 247/263/266 130/211/214
f 47/166/167 248/264/267 277/265/268
f 249/268/272 148/215/218 143/217/220
f 24/169/170 249/268/272 143/217/220
f 250/266/269 147/221/224 146/222/225
f 22/163/164 250/266/269 247/263/266
f 250/266/269 22/163/164 23/172/173
f 250/266/269 23/172/173 65/174/175
f 147/221/224 250/266/269 283/246/270
f 25/176/177 251/267/271 249/268/272
f 251/267/271 25/176/177 64/178/179
f 152/223/226 251/267/271 64/178/179
f 246/269/273 151/229/232 149/212/215
f 246/269/273 46/160/161 221/181/182
f 151/229/232 246/269/273 252/270/274
f 252/270/274 221/181/182 63/271/275
f 151/229/232 252/270/274 282/272/276
f 144/258/261 248/264/267 253/273/277
f 253/273/277 48/183/184 66/275/279
f 150/274/278 253/273/277 154/251/254
f 254/276/280 288/236/239 151/229/232
f 222/186/187 254/276/280 282/272/276
f 254/276/280 222/186/187 139/188/189
f 288/236/239 254/276/280 278/277/281
f 255/278/282 289/240/243 152/223/226
f 223/190/191 255/278/282 64/178/179
f 255/278/282 223/190/191 140/191/193
f 289/240/243 255/278/282 279/279/283
f 256/280/284 290/245/248 153/246/249
f 224/193/195 256/280/284 283/246/270
f 256/280/284 224/193/195 141/195/197
f 290/245/248 256/280/284 280/281/285
f 257/282/286 291/250/253 154/251/254
f 225/197/199 257/282/286 154/251/254
f 257/282/286 225/197/199 142/199/201
f 291/250/253 257/282/286 281/283/287
f 258/284/288 292/255/258 155/237/240
f 226/201/203 258/284/288 278/277/281
f 258/284/288 226/201/203 127/202/205
f 292/255/258 258/284/288 143/217/220
f 259/285/289 293/257/260 156/241/244
f 227/203/206 259/285/289 279/279/283
f 259/285/289 227/203/206 128/205/208
f 293/257/260 259/285/289 277/265/268
f 260/286/290 294/260/263 157/247/250
f 228/206/209 260/286/290 280/281/285
f 260/286/290 228/206/209 129/208/211
f 294/260/263 260/286/290 145/214/217
f 261/287/291 295/262/265 158/252/255
f 229/209/212 261/287/291 281/283/287
f 261/287/291 229/209/212 130/211/214
f 295/262/265 261/287/291 130/211/214
f 135/228/231 263/5/5 163/290/294
f 263/5/5 135/228/231 136/230/233
f 39/57/57 162/6/6 160/148/149
f 162/6/6 39/57/57 38/56/56
f 268/288/292 160/148/149 162/6/6
f 263/5/5 133/225/228 134/226/229
f 165/67/67 263/5/5 266/65/65
f 176/289/293 68/60/60 2/8/8
f 176/289/293 2/8/8 264/7/7
f 137/232/235 264/7/7 267/9/9
f 264/7/7 137/232/235 138/234/237
f 164/70/70 264/7/7 265/68/68
f 176/289/293 164/70/70 161/69/69
f 135/228/231 163/290/294 265/68/68
f 137/232/235 267/9/9 266/65/65
f 265/68/68 132/244/247 135/228/231
f 162/6/6 87/147/148 67/54/54
f 266/65/65 134/226/229 137/232/235
f 264/7/7 138/234/237 131/219/222
f 262/4/4 1/53/53 41/63/63
f 163/290/294 262/4/4 41/63/63
