# Blender 4.0.0
# www.blender.org
o door_Clear
v 0.098020 -0.131760 0.089619
v 0.098020 -0.131760 -0.090663
v 0.098020 -0.142480 -0.090663
v 0.098020 -0.142481 0.089619
v -0.212219 -0.131760 -0.090663
v -0.212219 -0.142480 -0.090663
v -0.212219 -0.131760 0.089619
v -0.212219 -0.142481 0.089619
v -0.057100 -0.131760 -0.000522
v -0.057100 -0.142481 -0.000522
vn 1.0000 -0.0000 -0.0000
vn -0.0000 -0.0000 -1.0000
vn -1.0000 -0.0000 -0.0000
vn -0.0000 -0.0000 1.0000
vn -0.0000 1.0000 -0.0000
vn -0.0000 -1.0000 -0.0000
vt 0.785487 0.200769
vt 0.791944 0.309406
vt 0.785487 0.309406
vt 0.583357 0.705181
vt 0.589813 0.518232
vt 0.589813 0.705181
vt 0.811317 0.309406
vt 0.804859 0.200769
vt 0.811317 0.200769
vt 0.583357 0.518232
vt 0.576901 0.705181
vt 0.576901 0.518232
vt 0.978298 0.513859
vt 0.869663 0.513859
vt 0.923981 0.420385
vt 0.766076 0.786386
vt 0.874713 0.786386
vt 0.820395 0.879860
vt 0.869663 0.326910
vt 0.766076 0.973335
vt 0.978298 0.326910
vt 0.874713 0.973335
vt 0.791944 0.200769
vt 0.583357 0.518232
vt 0.804859 0.309405
vt 0.583357 0.705181
s 1
f 1/1/1 3/2/1 2/3/1
f 3/4/2 5/5/2 2/6/2
f 5/7/3 8/8/3 7/9/3
f 8/10/4 1/11/4 7/12/4
s 0
f 1/13/5 2/14/5 9/15/5
f 3/16/6 4/17/6 10/18/6
f 2/14/5 5/19/5 9/15/5
f 6/20/6 3/16/6 10/18/6
f 5/19/5 7/21/5 9/15/5
f 8/22/6 6/20/6 10/18/6
f 7/21/5 1/13/5 9/15/5
f 4/17/6 8/22/6 10/18/6
s 1
f 1/1/1 4/23/1 3/2/1
f 3/4/2 6/24/2 5/5/2
f 5/7/3 6/25/3 8/8/3
f 8/10/4 4/26/4 1/11/4
