# Blender 4.0.0
# www.blender.org
o ToasterOven027_Button001
v 0.203997 -0.210235 0.098443
v 0.203997 -0.210746 0.099192
v 0.202026 -0.210235 0.099192
v 0.203997 -0.210746 0.111678
v 0.203997 -0.210235 0.112427
v 0.202026 -0.210235 0.111678
v 0.203997 -0.201749 0.098443
v 0.202026 -0.201749 0.099192
v 0.203997 -0.201240 0.099192
v 0.203997 -0.201749 0.112427
v 0.203997 -0.201240 0.111678
v 0.202026 -0.201749 0.111678
v 0.236850 -0.210235 0.098443
v 0.238821 -0.210235 0.099192
v 0.236850 -0.210746 0.099192
v 0.236850 -0.210235 0.112427
v 0.236850 -0.210746 0.111678
v 0.238821 -0.210235 0.111678
v 0.236850 -0.201749 0.098443
v 0.236850 -0.201240 0.099192
v 0.238821 -0.201749 0.099192
v 0.236850 -0.201749 0.112427
v 0.238821 -0.201749 0.111678
v 0.236850 -0.201240 0.111678
vn 0.1185 -0.9508 0.2861
vn -0.1185 -0.9508 -0.2861
vn 0.1185 -0.9508 -0.2861
vn 0.7173 0.5150 0.4693
vn 0.7173 -0.5150 -0.4693
vn 0.7173 0.5150 -0.4693
vn -0.1572 0.4443 0.8820
vn 0.1572 -0.4443 0.8820
vn 0.1572 0.4443 0.8820
vn -0.7173 -0.5150 0.4693
vn -0.7173 0.5150 -0.4693
vn -0.7173 -0.5150 -0.4693
vn -0.1185 0.9508 0.2861
vn 0.1185 0.9508 -0.2861
vn -0.1185 0.9508 -0.2861
vn -0.1572 -0.4443 -0.8820
vn -0.1185 -0.9508 0.2861
vn -0.1572 -0.4443 0.8820
vn -0.1572 0.4443 -0.8820
vn -0.7173 0.5150 0.4693
vn 0.1572 -0.4443 -0.8820
vn 0.7173 -0.5150 0.4693
vn 0.1572 0.4443 -0.8820
vn 0.1185 0.9508 0.2861
vt 0.866314 0.801205
vt 0.663041 0.719959
vt 0.866314 0.719959
vt 0.606532 0.800164
vt 0.637079 0.756964
vt 0.637079 0.800164
vt 0.733846 0.692205
vt 0.703299 0.735405
vt 0.703299 0.692205
vt 0.609124 0.689613
vt 0.652324 0.720160
vt 0.609124 0.720160
vt 0.613327 0.742708
vt 0.656527 0.699508
vt 0.656527 0.742708
vt 0.810445 0.732330
vt 0.807853 0.730498
vt 0.810445 0.728665
vt 0.840112 0.723636
vt 0.838280 0.721044
vt 0.841945 0.721044
vt 0.652324 0.723825
vt 0.654916 0.721993
vt 0.735678 0.689613
vt 0.737511 0.692205
vt 0.838965 0.734077
vt 0.835300 0.734077
vt 0.837132 0.731486
vt 0.860439 0.708013
vt 0.862272 0.705421
vt 0.864104 0.708013
vt 0.640744 0.800164
vt 0.638912 0.802756
vt 0.659118 0.742708
vt 0.662783 0.742708
vt 0.660951 0.745300
vt 0.609124 0.723825
vt 0.858828 0.700710
vt 0.902028 0.698118
vt 0.902028 0.700710
vt 0.737511 0.735405
vt 0.733846 0.735405
vt 0.613327 0.745300
vt 0.659118 0.699508
vt 0.610735 0.699508
vt 0.610735 0.742708
vt 0.656527 0.696916
vt 0.613327 0.699508
vt 0.613327 0.696916
vt 0.640744 0.756964
vt 0.902028 0.743910
vt 0.858828 0.746501
vt 0.858828 0.743910
vt 0.904620 0.743910
vt 0.904620 0.700710
vt 0.856236 0.700710
vt 0.856236 0.743910
vt 0.652324 0.754373
vt 0.663041 0.801205
vt 0.606532 0.756964
vt 0.652324 0.689613
vt 0.858828 0.698118
vt 0.656527 0.745300
vt 0.662783 0.699508
vt 0.902028 0.746501
vt 0.609124 0.754373
s 1
f 17/1/1 2/2/2 15/3/3
f 23/4/4 14/5/5 21/6/6
f 10/7/7 16/8/8 22/9/9
f 6/10/10 8/11/11 3/12/12
f 11/13/13 20/14/14 9/15/15
f 1/16/16 2/17/2 3/18/12
f 4/19/17 5/20/18 6/21/10
f 7/22/19 8/11/11 9/23/15
f 10/7/7 11/24/13 12/25/20
f 13/26/21 14/27/5 15/28/3
f 16/29/8 17/30/1 18/31/22
f 19/32/23 20/33/14 21/6/6
f 22/34/9 23/35/4 24/36/24
f 1/37/16 8/11/11 7/22/19
f 4/38/17 3/39/12 2/40/2
f 10/7/7 6/41/10 5/42/18
f 9/15/15 12/43/20 11/13/13
f 7/34/19 20/14/14 19/44/23
f 22/45/9 11/13/13 10/46/7
f 21/47/6 24/48/24 23/49/4
f 19/32/23 14/5/5 13/50/21
f 16/44/8 23/35/4 22/34/9
f 15/51/3 18/52/22 17/53/1
f 13/54/21 2/40/2 1/55/16
f 5/56/18 17/53/1 16/57/8
f 19/58/23 1/37/16 7/22/19
f 17/1/1 4/59/17 2/2/2
f 23/4/4 18/60/22 14/5/5
f 10/7/7 5/42/18 16/8/8
f 6/10/10 12/61/20 8/11/11
f 11/13/13 24/48/24 20/14/14
f 1/37/16 3/12/12 8/11/11
f 4/38/17 6/62/10 3/39/12
f 10/7/7 12/25/20 6/41/10
f 9/15/15 8/63/11 12/43/20
f 7/34/19 9/15/15 20/14/14
f 22/45/9 24/48/24 11/13/13
f 21/47/6 20/14/14 24/48/24
f 19/32/23 21/6/6 14/5/5
f 16/44/8 18/64/22 23/35/4
f 15/51/3 14/65/5 18/52/22
f 13/54/21 15/51/3 2/40/2
f 5/56/18 4/38/17 17/53/1
f 19/58/23 13/66/21 1/37/16
