# Blender 4.0.0
# www.blender.org
o ToasterOven027_Door001_Clear
v 0.140688 -0.196618 -0.073906
v -0.219427 -0.196618 -0.072761
v -0.219427 -0.196618 0.098712
v 0.141833 -0.196618 0.098712
v -0.227771 -0.196618 0.104336
v -0.227771 -0.196618 -0.080897
v 0.149032 -0.196618 -0.080897
v 0.149032 -0.196618 0.104336
v -0.219427 -0.196618 -0.080897
v 0.141833 -0.196618 -0.080897
v 0.140688 -0.196618 0.104336
v -0.220572 -0.196618 0.104336
v -0.227771 -0.196618 -0.073906
v 0.149032 -0.196618 -0.072761
v -0.227771 -0.196618 0.098712
v 0.149032 -0.196618 0.099857
v 0.141833 -0.196618 -0.073906
v 0.141833 -0.196618 -0.072761
v 0.140688 -0.196618 -0.072761
v -0.220572 -0.196618 -0.072761
v -0.220572 -0.196618 -0.073906
v -0.219427 -0.196618 -0.073906
v -0.219427 -0.196618 0.099857
v -0.220572 -0.196618 0.099857
v -0.220572 -0.196618 0.098712
v 0.141833 -0.196618 0.099857
v 0.140688 -0.196618 0.099857
v 0.140688 -0.196618 0.098712
v -0.220572 -0.196618 -0.080897
v 0.140688 -0.196618 -0.080897
v 0.141833 -0.196618 0.104336
v -0.219427 -0.196618 0.104336
v -0.227771 -0.196618 -0.072761
v 0.149032 -0.196618 -0.073906
v -0.227771 -0.196618 0.099857
v 0.149032 -0.196618 0.098712
v 0.140688 -0.184413 -0.073906
v -0.219427 -0.184413 -0.072761
v -0.219427 -0.184413 0.098712
v 0.141833 -0.184413 0.098712
v -0.227771 -0.184413 0.104336
v -0.227771 -0.184413 -0.080897
v 0.149032 -0.184413 -0.080897
v 0.149032 -0.184413 0.104336
v -0.219427 -0.184413 -0.080897
v 0.141833 -0.184413 -0.080897
v 0.140688 -0.184413 0.104336
v -0.220572 -0.184413 0.104336
v -0.227771 -0.184413 -0.073906
v 0.149032 -0.184413 -0.072761
v -0.227771 -0.184413 0.098712
v 0.149032 -0.184413 0.099857
v 0.141833 -0.184413 -0.073906
v 0.141833 -0.184413 -0.072761
v 0.140688 -0.184413 -0.072761
v -0.220572 -0.184413 -0.072761
v -0.220572 -0.184413 -0.073906
v -0.219427 -0.184413 -0.073906
v -0.219427 -0.184413 0.099857
v -0.220572 -0.184413 0.099857
v -0.220572 -0.184413 0.098712
v 0.141833 -0.184413 0.099857
v 0.140688 -0.184413 0.099857
v 0.140688 -0.184413 0.098712
v -0.220572 -0.184413 -0.080897
v 0.140688 -0.184413 -0.080897
v 0.141833 -0.184413 0.104336
v -0.219427 -0.184413 0.104336
v -0.227771 -0.184413 -0.072761
v 0.149032 -0.184413 -0.073906
v -0.227771 -0.184413 0.099857
v 0.149032 -0.184413 0.098712
vn -0.0000 -1.0000 -0.0000
vn -0.0000 1.0000 -0.0000
vt 0.943078 0.889078
vt 0.898469 0.889078
vt 0.943078 0.887205
vt 0.898469 0.887205
vt 0.898171 0.889376
vt 0.898171 0.983060
vt 0.896353 0.983060
vt 0.896353 0.889376
vt 0.898171 0.889078
vt 0.896353 0.889078
vt 0.898171 0.887205
vt 0.896353 0.887205
vt 0.898171 0.985231
vt 0.896353 0.985231
vt 0.898171 0.983358
vt 0.896353 0.983358
vt 0.943078 0.889376
vt 0.898469 0.983060
vt 0.898469 0.889376
vt 0.943078 0.983060
vt 0.943078 0.985231
vt 0.898469 0.985231
vt 0.943078 0.983358
vt 0.898469 0.983358
vt 0.944541 0.889376
vt 0.944541 0.983060
vt 0.943376 0.983060
vt 0.943376 0.889376
vt 0.944541 0.887205
vt 0.944541 0.889078
vt 0.943376 0.889078
vt 0.943376 0.887205
vt 0.944541 0.983358
vt 0.944541 0.985231
vt 0.943376 0.985231
vt 0.943376 0.983358
vt 0.916770 0.853382
vt 0.929199 0.853903
vt 0.916770 0.853903
vt 0.929199 0.853382
vt 0.929789 0.853987
vt 0.929789 0.880090
vt 0.929282 0.853987
vt 0.929282 0.880090
vt 0.929282 0.853903
vt 0.929282 0.853382
vt 0.929789 0.853903
vt 0.929789 0.853382
vt 0.929282 0.880695
vt 0.929282 0.880173
vt 0.929789 0.880695
vt 0.929789 0.880173
vt 0.916770 0.853987
vt 0.929199 0.880090
vt 0.916770 0.880090
vt 0.929199 0.853987
vt 0.916770 0.880173
vt 0.929199 0.880695
vt 0.916770 0.880695
vt 0.929199 0.880173
vt 0.916362 0.853987
vt 0.916687 0.880090
vt 0.916362 0.880090
vt 0.916687 0.853987
vt 0.916362 0.853382
vt 0.916687 0.853903
vt 0.916362 0.853903
vt 0.916687 0.853382
vt 0.916362 0.880173
vt 0.916687 0.880695
vt 0.916362 0.880695
vt 0.916687 0.880173
s 1
f 4/1/1 18/2/1 36/3/1
f 36/3/1 18/2/1 14/4/1
f 1/5/1 22/6/1 9/7/1
f 1/5/1 9/7/1 30/8/1
f 17/9/1 10/10/1 34/11/1
f 34/11/1 10/10/1 7/12/1
f 13/13/1 6/14/1 21/15/1
f 21/15/1 6/14/1 29/16/1
f 28/17/1 2/18/1 19/19/1
f 2/18/1 28/17/1 3/20/1
f 15/21/1 33/22/1 25/23/1
f 25/23/1 33/22/1 20/24/1
f 11/25/1 32/26/1 23/27/1
f 11/25/1 23/27/1 27/28/1
f 8/29/1 31/30/1 26/31/1
f 8/29/1 26/31/1 16/32/1
f 12/33/1 5/34/1 35/35/1
f 12/33/1 35/35/1 24/36/1
f 19/19/1 1/5/1 18/2/1
f 18/2/1 1/5/1 17/9/1
f 2/18/1 20/24/1 21/15/1
f 2/18/1 21/15/1 22/6/1
f 23/27/1 24/36/1 3/20/1
f 24/36/1 25/23/1 3/20/1
f 26/31/1 27/28/1 4/1/1
f 27/28/1 28/17/1 4/1/1
f 1/5/1 30/8/1 17/9/1
f 17/9/1 30/8/1 10/10/1
f 12/33/1 24/36/1 32/26/1
f 32/26/1 24/36/1 23/27/1
f 28/17/1 19/19/1 4/1/1
f 4/1/1 19/19/1 18/2/1
f 21/15/1 29/16/1 22/6/1
f 22/6/1 29/16/1 9/7/1
f 19/19/1 22/6/1 1/5/1
f 22/6/1 19/19/1 2/18/1
f 18/2/1 34/11/1 14/4/1
f 34/11/1 18/2/1 17/9/1
f 33/22/1 21/15/1 20/24/1
f 21/15/1 33/22/1 13/13/1
f 25/23/1 20/24/1 3/20/1
f 3/20/1 20/24/1 2/18/1
f 11/25/1 27/28/1 31/30/1
f 31/30/1 27/28/1 26/31/1
f 3/20/1 27/28/1 23/27/1
f 27/28/1 3/20/1 28/17/1
f 4/1/1 36/3/1 26/31/1
f 16/32/1 26/31/1 36/3/1
f 15/21/1 25/23/1 35/35/1
f 24/36/1 35/35/1 25/23/1
f 72/37/2 54/38/2 40/39/2
f 54/38/2 72/37/2 50/40/2
f 66/41/2 45/42/2 37/43/2
f 58/44/2 37/43/2 45/42/2
f 53/45/2 70/46/2 46/47/2
f 70/46/2 43/48/2 46/47/2
f 49/49/2 57/50/2 42/51/2
f 57/50/2 65/52/2 42/51/2
f 64/53/2 38/54/2 39/55/2
f 38/54/2 64/53/2 55/56/2
f 61/57/2 69/58/2 51/59/2
f 69/58/2 61/57/2 56/60/2
f 47/61/2 59/62/2 68/63/2
f 59/62/2 47/61/2 63/64/2
f 44/65/2 62/66/2 67/67/2
f 62/66/2 44/65/2 52/68/2
f 48/69/2 71/70/2 41/71/2
f 71/70/2 48/69/2 60/72/2
f 55/56/2 54/38/2 37/43/2
f 54/38/2 53/45/2 37/43/2
f 38/54/2 57/50/2 56/60/2
f 57/50/2 38/54/2 58/44/2
f 39/55/2 60/72/2 59/62/2
f 60/72/2 39/55/2 61/57/2
f 62/66/2 40/39/2 63/64/2
f 63/64/2 40/39/2 64/53/2
f 66/41/2 37/43/2 53/45/2
f 53/45/2 46/47/2 66/41/2
f 68/63/2 60/72/2 48/69/2
f 60/72/2 68/63/2 59/62/2
f 55/56/2 64/53/2 40/39/2
f 40/39/2 54/38/2 55/56/2
f 58/44/2 65/52/2 57/50/2
f 65/52/2 58/44/2 45/42/2
f 55/56/2 58/44/2 38/54/2
f 58/44/2 55/56/2 37/43/2
f 54/38/2 50/40/2 70/46/2
f 54/38/2 70/46/2 53/45/2
f 69/58/2 56/60/2 57/50/2
f 69/58/2 57/50/2 49/49/2
f 39/55/2 56/60/2 61/57/2
f 56/60/2 39/55/2 38/54/2
f 63/64/2 47/61/2 67/67/2
f 67/67/2 62/66/2 63/64/2
f 63/64/2 39/55/2 59/62/2
f 39/55/2 63/64/2 64/53/2
f 72/37/2 62/66/2 52/68/2
f 62/66/2 72/37/2 40/39/2
f 71/70/2 60/72/2 61/57/2
f 71/70/2 61/57/2 51/59/2
