# Blender 4.0.0
# www.blender.org
o door
v -0.27720400 -0.18384850 0.17040900
v -0.26538300 -0.19427150 0.17040900
v -0.27720400 -0.18384850 0.13428300
v -0.25752900 -0.20119750 0.13428300
v 0.15653800 -0.18384950 0.17040900
v -0.25495100 -0.18384850 0.17040900
v 0.15711500 -0.19427150 0.17040900
v -0.24370800 -0.19427150 0.17040900
v 0.15749800 -0.20119750 0.13428300
v -0.23623700 -0.20119750 0.13428300
v -0.27720400 -0.18384850 0.11280200
v -0.27720400 -0.18384850 -0.08936300
v -0.25752900 -0.20119750 0.11280200
v -0.25752900 -0.20119750 -0.08936300
v -0.23623700 -0.20119750 0.11280200
v -0.23623700 -0.20119750 -0.08936300
v 0.15749800 -0.20119750 -0.08936300
v 0.15749800 -0.20119750 0.11280200
v -0.22777100 -0.19661750 0.10433600
v -0.22777100 -0.19661750 -0.08089700
v 0.14903200 -0.19661750 -0.08089700
v 0.14903200 -0.19661750 0.10433600
v -0.27720400 -0.18258250 0.17040900
v -0.27603600 -0.18487850 0.17040900
v -0.27720400 -0.18258250 0.13428300
v -0.27625400 -0.18468650 0.13428300
v -0.25495100 -0.18258250 0.17040900
v 0.15653800 -0.18258250 0.17040900
v -0.25358500 -0.18511550 0.17040900
v 0.15660800 -0.18511550 0.17040900
v -0.27720400 -0.18258250 -0.08936300
v -0.27720400 -0.18258250 0.11280200
v -0.27625400 -0.18468650 0.11280200
v -0.27625400 -0.18468650 -0.08936300
v 0.14805100 -0.18384950 0.17040900
v -0.24646400 -0.18384850 0.17040900
v 0.14884800 -0.19427150 0.17040900
v -0.23544100 -0.19427150 0.17040900
v 0.14937800 -0.20119750 0.13428300
v -0.22811600 -0.20119750 0.13428300
v -0.22811600 -0.20119750 -0.08936300
v 0.14937800 -0.20119750 -0.08936300
v 0.14937800 -0.20119750 0.11280200
v -0.22811600 -0.20119750 0.11280200
v -0.21999900 -0.19661750 -0.08089700
v 0.14126100 -0.19661750 -0.08089700
v 0.14126100 -0.19661750 0.10433600
v -0.21999900 -0.19661750 0.10433600
v -0.24646400 -0.18258250 0.17040900
v 0.14805100 -0.18258250 0.17040900
v 0.14814800 -0.18511550 0.17040900
v -0.24512500 -0.18511550 0.17040900
v -0.27720400 -0.18384850 -0.08110800
v -0.25752900 -0.20119750 -0.08110800
v -0.23623700 -0.20119750 -0.08110800
v 0.15749800 -0.20119750 -0.08110800
v -0.22777100 -0.19661750 -0.07333300
v 0.14903200 -0.19661750 -0.07333300
v -0.27720400 -0.18258250 -0.08110800
v -0.27625400 -0.18468650 -0.08110800
v -0.23496800 -0.20051050 0.11153300
v -0.22903900 -0.19730350 0.10560400
v -0.23496800 -0.20051050 -0.08809500
v -0.22903900 -0.19730350 -0.08216500
v 0.15623000 -0.20051150 -0.08809500
v 0.15030100 -0.19730350 -0.08216500
v 0.15623000 -0.20051150 0.11153300
v 0.15030100 -0.19730350 0.10560400
v 0.14816100 -0.20051150 -0.08809500
v 0.14247700 -0.19730350 -0.08216500
v -0.22121500 -0.19730350 -0.08216500
v -0.22690000 -0.20051050 -0.08809500
v -0.22690000 -0.20051050 0.11153300
v -0.22121500 -0.19730350 0.10560400
v 0.14247700 -0.19730350 0.10560400
v 0.14816100 -0.20051150 0.11153300
v -0.23496800 -0.20051050 -0.07994300
v -0.22903900 -0.19730350 -0.07449800
v 0.15030100 -0.19730350 -0.07449800
v 0.15623000 -0.20051150 -0.07994300
v -0.25828500 -0.18384850 0.17040900
v -0.27387000 -0.18384850 0.17040900
v -0.24695500 -0.19427150 0.17040900
v -0.26213600 -0.19427150 0.17040900
v -0.23942700 -0.20119750 0.13428300
v -0.25433900 -0.20119750 0.13428300
v -0.25433900 -0.20119750 -0.08936300
v -0.23942700 -0.20119750 -0.08936300
v -0.23942700 -0.20119750 0.11280200
v -0.25433900 -0.20119750 0.11280200
v -0.27387000 -0.18258250 0.17040900
v -0.25828500 -0.18258250 0.17040900
v -0.25694900 -0.18507950 0.17040900
v -0.27267200 -0.18491450 0.17040900
v -0.25433900 -0.20119750 -0.08110800
v -0.23942700 -0.20119750 -0.08110800
v 0.17545700 -0.18384950 0.16983600
v 0.15987200 -0.18384950 0.17040900
v 0.16036300 -0.19427150 0.17040900
v 0.16068800 -0.20119750 0.13428300
v 0.17560100 -0.20062450 0.12359100
v 0.16068800 -0.20119750 0.11280200
v 0.16068800 -0.20119750 -0.08936300
v 0.17560100 -0.20062450 -0.08936300
v 0.15987200 -0.18258250 0.17040900
v 0.17546700 -0.18511550 0.16983600
v 0.15993200 -0.18511550 0.17040900
v 0.16068800 -0.20119750 -0.08110800
v -0.27720400 -0.18384850 0.13106500
v -0.27720400 -0.18384850 0.11602000
v -0.25752900 -0.20119750 0.13106500
v -0.25752900 -0.20119750 0.11602000
v -0.23623700 -0.20119750 0.13106500
v -0.23623700 -0.20119750 0.11602000
v 0.15749800 -0.20119750 0.11602000
v 0.15749800 -0.20119750 0.13106500
v -0.27720400 -0.18258250 0.11602000
v -0.27720400 -0.18258250 0.13106500
v -0.27625400 -0.18468650 0.13106500
v -0.27625400 -0.18468650 0.11602000
v -0.22811600 -0.20119750 0.13106500
v -0.22811600 -0.20119750 0.11602000
v 0.14937800 -0.20119750 0.11602000
v 0.14937800 -0.20119750 0.13106500
v -0.25433900 -0.20119750 0.13106500
v -0.25433900 -0.20119750 0.11602000
v -0.23942700 -0.20119750 0.11602000
v -0.23942700 -0.20119750 0.13106500
v 0.16068800 -0.20119750 0.13106500
v 0.16068800 -0.20119750 0.11602000
v 0.17560100 -0.20062450 0.13106500
v 0.15749800 -0.20119750 -0.09258100
v -0.27720400 -0.18384850 -0.09258100
v -0.25752900 -0.20119750 -0.09258100
v -0.25732700 -0.20066150 -0.10762600
v -0.23623700 -0.20119750 -0.09258100
v -0.23623700 -0.20062450 -0.10762600
v -0.27663100 -0.18258250 -0.10762600
v -0.27720400 -0.18258250 -0.09258100
v -0.27625400 -0.18468650 -0.09258100
v 0.14937800 -0.20062450 -0.10762600
v 0.14937800 -0.20119750 -0.09258100
v -0.22811600 -0.20119750 -0.09258100
v -0.23942700 -0.20062450 -0.10762600
v -0.23942700 -0.20119750 -0.09258100
v -0.25433900 -0.20119750 -0.09258100
v 0.17560100 -0.20062450 -0.09258100
v 0.16068800 -0.20119750 -0.09258100
v -0.27720400 -0.18384850 0.16710600
v -0.27720400 -0.18384850 0.13758600
v -0.26466500 -0.19490450 0.16710600
v -0.25824700 -0.20056350 0.13758600
v -0.24302500 -0.19490450 0.16710600
v -0.23692000 -0.20056350 0.13758600
v 0.15746300 -0.20056450 0.13758600
v 0.15715000 -0.19490450 0.16710600
v -0.27720400 -0.18258250 0.13758600
v -0.27720400 -0.18258250 0.16710600
v -0.27605600 -0.18486150 0.16710600
v -0.27623400 -0.18470450 0.13758600
v -0.23477100 -0.19490450 0.16710600
v -0.22878600 -0.20056350 0.13758600
v 0.14932900 -0.20056450 0.13758600
v 0.14889600 -0.19490450 0.16710600
v -0.26142300 -0.19490450 0.16710600
v -0.25505200 -0.20056350 0.13758600
v -0.24011500 -0.20056350 0.13758600
v -0.24626700 -0.19490450 0.16710600
v 0.17554800 -0.19434250 0.16699800
v 0.16039200 -0.19490450 0.16710600
v 0.16065900 -0.20056450 0.13758600
v -0.26635700 -0.19341250 0.17040900
v -0.25924100 -0.19968750 0.13428300
v -0.24461100 -0.19343450 0.17040900
v 0.15706900 -0.19343450 0.17040900
v -0.25924100 -0.19968750 0.11280200
v -0.25924100 -0.19968750 -0.08936300
v 0.14878400 -0.19343450 0.17040900
v -0.23632600 -0.19343450 0.17040900
v -0.25924100 -0.19968750 -0.08110800
v -0.24786900 -0.19343150 0.17040900
v -0.26309900 -0.19341650 0.17040900
v 0.16032300 -0.19343450 0.17040900
v -0.25924100 -0.19968750 0.13106500
v -0.25924100 -0.19968750 0.11602000
v -0.25924100 -0.19968750 -0.09258100
v -0.25886200 -0.19925850 -0.10762600
v -0.26570700 -0.19398650 0.16710600
v -0.25989200 -0.19911350 0.13758600
v 0.15749800 -0.20119750 -0.06413400
v 0.14903200 -0.19661750 -0.05778100
v 0.15030100 -0.19730350 -0.05873300
v 0.15623000 -0.20051150 -0.06318300
v 0.16068800 -0.20119750 -0.06413400
v -0.27720400 -0.18384850 0.10740500
v -0.25752900 -0.20119750 0.10740500
v -0.23623700 -0.20119750 0.10740500
v -0.22777100 -0.19661750 0.09928400
v -0.27625400 -0.18468650 0.10740500
v 0.15749800 -0.20119750 0.10740500
v 0.14903200 -0.19661750 0.09928400
v -0.27720400 -0.18258250 0.10740500
v -0.23496800 -0.20051050 0.10618800
v -0.22903900 -0.19730350 0.10050100
v 0.15030100 -0.19730350 0.10050100
v 0.15623000 -0.20051150 0.10618800
v -0.25433900 -0.20119750 0.10740500
v -0.23942700 -0.20119750 0.10740500
v 0.16068800 -0.20119750 0.10740500
v 0.17560100 -0.20062450 0.07421200
v -0.25924100 -0.19968750 0.10740500
v -0.27663100 -0.18107850 0.13428300
v 0.15653800 -0.18107850 0.16983600
v -0.27679900 -0.18107850 0.17000400
v -0.25495100 -0.18107850 0.16983600
v -0.27663100 -0.18107850 -0.08936300
v -0.24646400 -0.18107850 0.16983600
v -0.27663100 -0.18107850 -0.08110800
v 0.15987200 -0.18107850 0.16983600
v -0.27663100 -0.18107850 0.11602000
v -0.27663100 -0.18107850 0.13758600
v -0.27720400 -0.18131950 0.13428300
v 0.15653800 -0.18131950 0.17040900
v -0.27720400 -0.18131950 0.11280200
v 0.14805100 -0.18131950 0.17040900
v -0.25828500 -0.18131950 0.17040900
v -0.27720400 -0.18131950 0.13106500
v -0.27720400 -0.18131950 -0.09258100
v -0.27720400 -0.18131950 0.16710600
v -0.27720400 -0.18131950 0.10740500
v -0.27720400 -0.18131950 0.17040900
v -0.25495100 -0.18131950 0.17040900
v -0.27720400 -0.18131950 -0.08936300
v -0.24646400 -0.18131950 0.17040900
v -0.27720400 -0.18131950 -0.08110800
v -0.27387000 -0.18131950 0.17040900
v 0.15987200 -0.18131950 0.17040900
v -0.27720400 -0.18131950 0.11602000
v -0.27668400 -0.18156050 -0.10762600
v -0.27720400 -0.18131950 0.13758600
v -0.27663100 -0.18107850 0.11280200
v 0.14805100 -0.18107850 0.16983600
v -0.25828500 -0.18107850 0.16983600
v -0.27663100 -0.18107850 0.13106500
v -0.27663100 -0.18107850 -0.09258100
v -0.27663100 -0.18107850 0.16710600
v -0.27387000 -0.18107850 0.16983600
v -0.27663100 -0.18107850 0.10740500
v 0.17497100 -0.18384950 0.17040900
v 0.17505700 -0.19427150 0.17040900
v 0.17511500 -0.20119750 0.13428300
v 0.17511500 -0.20119750 0.12323900
v 0.17511500 -0.20119750 -0.08936300
v 0.17497100 -0.18258250 0.17040900
v 0.17498100 -0.18511550 0.17040900
v 0.17511500 -0.20119750 -0.08110800
v 0.17511500 -0.20119750 0.12645800
v 0.17511500 -0.20119750 0.13106500
v 0.17511500 -0.20119750 -0.09258100
v 0.17506300 -0.19490450 0.16710600
v 0.17511000 -0.20056450 0.13758600
v 0.17505000 -0.19343450 0.17040900
v 0.17511500 -0.20119750 -0.06413400
v 0.17511500 -0.20119750 0.07529300
v 0.17497100 -0.18131950 0.17040900
v 0.17497100 -0.18107850 0.16983600
v 0.17554300 -0.19390650 0.16996700
v 0.17560100 -0.20062750 0.13422900
v 0.17545700 -0.18258250 0.16983600
v 0.17560100 -0.20062450 -0.08110800
v 0.17560100 -0.20062450 0.12680900
v 0.17516400 -0.20025450 -0.10762600
v 0.17559500 -0.20000150 0.13747800
v 0.17553600 -0.19343450 0.16983600
v 0.17560100 -0.20062450 -0.06413400
v 0.15749800 -0.20119750 -0.10714000
v -0.27720400 -0.18384850 -0.10714000
v -0.25752900 -0.20119750 -0.10714000
v -0.23623700 -0.20119750 -0.10714000
v -0.27720400 -0.18258250 -0.10714000
v -0.27625400 -0.18468650 -0.10714000
v 0.14937800 -0.20119750 -0.10714000
v -0.22811600 -0.20119750 -0.10714000
v -0.23942700 -0.20119750 -0.10714000
v -0.25433900 -0.20119750 -0.10714000
v 0.17560100 -0.20062450 -0.10714000
v 0.16068800 -0.20119750 -0.10714000
v -0.25924100 -0.19968750 -0.10714000
v -0.27720400 -0.18131950 -0.10714000
v -0.27663100 -0.18107850 -0.10714000
v 0.17511500 -0.20119750 -0.10714000
v 0.15749800 -0.20062450 -0.10762600
v -0.27668200 -0.18361350 -0.10762600
v -0.27587500 -0.18425750 -0.10762600
v -0.22811600 -0.20062450 -0.10762600
v -0.25433900 -0.20062450 -0.10762600
v 0.16068800 -0.20062450 -0.10762600
v 0.17487400 -0.20067750 -0.10762600
v 0.15749800 -0.20119750 -0.10691500
v -0.27720400 -0.18384850 -0.10691500
v -0.25752900 -0.20119750 -0.10691500
v -0.23623700 -0.20119750 -0.10691500
v -0.27720400 -0.18258250 -0.10691500
v -0.27625400 -0.18468650 -0.10691500
v 0.14937800 -0.20119750 -0.10691500
v -0.22811600 -0.20119750 -0.10691500
v -0.23942700 -0.20119750 -0.10691500
v -0.25433900 -0.20119750 -0.10691500
v 0.17560100 -0.20062450 -0.10691500
v 0.16068800 -0.20119750 -0.10691500
v -0.25924100 -0.19968750 -0.10691500
v -0.27720400 -0.18131950 -0.10691500
v -0.27663100 -0.18107850 -0.10691500
v 0.17511500 -0.20119750 -0.10691500
v 0.15749800 -0.20102550 -0.10728600
v -0.27703900 -0.18377450 -0.10729400
v -0.25746600 -0.20103050 -0.10729200
v -0.23623700 -0.20102550 -0.10728600
v -0.27703200 -0.18258250 -0.10728600
v -0.27614000 -0.18455750 -0.10728600
v 0.14937800 -0.20102550 -0.10728600
v -0.22811600 -0.20102550 -0.10728600
v -0.23942700 -0.20102550 -0.10728600
v -0.25433900 -0.20102550 -0.10728600
v 0.17547000 -0.20051350 -0.10728600
v 0.16068800 -0.20102550 -0.10728600
v -0.25912700 -0.19955850 -0.10728600
v -0.27703900 -0.18139550 -0.10729400
v -0.27652000 -0.18108650 -0.10728600
v 0.17503900 -0.20103250 -0.10729400
v 0.17474500 -0.18384950 0.17040900
v 0.17483200 -0.19427150 0.17040900
v 0.17488900 -0.20119750 0.13428300
v 0.17488900 -0.20119750 0.12307600
v 0.17488900 -0.20119750 -0.08936300
v 0.17474600 -0.18258250 0.17040900
v 0.17475600 -0.18511550 0.17040900
v 0.17488900 -0.20119750 -0.08110800
v 0.17488900 -0.20119750 0.12629500
v 0.17488900 -0.20119750 0.13106500
v 0.17488900 -0.20119750 -0.09258100
v 0.17463600 -0.20067650 -0.10762600
v 0.17483700 -0.19490450 0.16710600
v 0.17488400 -0.20056450 0.13758600
v 0.17482500 -0.19343450 0.17040900
v 0.17488900 -0.20119750 -0.06413400
v 0.17488900 -0.20119750 0.07579500
v 0.17474600 -0.18131950 0.17040900
v 0.17474600 -0.18107850 0.16983600
v 0.17511700 -0.18384950 0.17023700
v 0.17522400 -0.19414650 0.17025700
v 0.17526100 -0.20102550 0.13426700
v 0.17526100 -0.20102550 0.12334500
v 0.17526100 -0.20102550 -0.08936300
v 0.17511700 -0.18258250 0.17023700
v 0.17512700 -0.18511550 0.17023700
v 0.17526100 -0.20102550 -0.08110800
v 0.17526100 -0.20102550 0.12656300
v 0.17526100 -0.20102550 0.13106500
v 0.17526100 -0.20102550 -0.09258100
v 0.17501300 -0.20047550 -0.10762600
v 0.17520900 -0.19473550 0.16707400
v 0.17525600 -0.20039550 0.13755300
v 0.17519600 -0.19343450 0.17023700
v 0.17526100 -0.20102550 -0.06413400
v 0.17526100 -0.20102550 0.07496800
v 0.17512500 -0.18139650 0.17024400
v 0.17511700 -0.18108650 0.16972500
v 0.17488300 -0.20119750 -0.10714000
v 0.17526500 -0.20102050 -0.10714000
v 0.17488900 -0.20119750 -0.10691500
v 0.17526100 -0.20102550 -0.10691500
v 0.17480100 -0.20103250 -0.10729400
v 0.17519100 -0.20084950 -0.10729100
v -0.27720400 -0.18154550 0.13428300
v 0.15653800 -0.18154550 0.17040900
v -0.27720400 -0.18154550 0.11280200
v 0.14805100 -0.18154550 0.17040900
v -0.25828500 -0.18154550 0.17040900
v -0.27720400 -0.18154550 0.13106500
v -0.27720400 -0.18154550 -0.09258100
v -0.27720400 -0.18154550 0.16710600
v -0.27720400 -0.18154550 0.10740500
v -0.27720400 -0.18154550 0.17040900
v -0.25495100 -0.18154550 0.17040900
v -0.27720400 -0.18154550 -0.08936300
v -0.24646400 -0.18154550 0.17040900
v -0.27720400 -0.18154550 -0.08110800
v -0.27387000 -0.18154550 0.17040900
v 0.15987200 -0.18154550 0.17040900
v -0.27720400 -0.18154550 0.11602000
v -0.27667200 -0.18180150 -0.10762600
v -0.27720400 -0.18154550 0.13758600
v -0.27703200 -0.18117350 0.13428300
v 0.15653800 -0.18117350 0.17023700
v -0.27703200 -0.18117350 0.11280200
v 0.14805100 -0.18117350 0.17023700
v -0.25828500 -0.18117350 0.17023700
v -0.27703200 -0.18117350 0.13106500
v -0.27703200 -0.18117350 -0.09258100
v -0.27703200 -0.18117350 0.16710600
v -0.27703200 -0.18117350 0.10740500
v -0.27705900 -0.18114650 0.17026400
v -0.25495100 -0.18117350 0.17023700
v -0.27703200 -0.18117350 -0.08936300
v -0.24646400 -0.18117350 0.17023700
v -0.27703200 -0.18117350 -0.08110800
v -0.27387000 -0.18117350 0.17023700
v 0.15987200 -0.18117350 0.17023700
v -0.27703200 -0.18117350 0.11602000
v -0.27703200 -0.18117350 0.13758600
v 0.17497100 -0.18155150 0.17040900
v 0.17497100 -0.18116950 0.17023200
v -0.27720400 -0.18155150 -0.10714000
v -0.27702700 -0.18116950 -0.10714000
v -0.27720400 -0.18154550 -0.10691500
v -0.27703200 -0.18117350 -0.10691500
v -0.27703800 -0.18163350 -0.10729200
v -0.27685600 -0.18124350 -0.10729100
v 0.17474600 -0.18154550 0.17040900
v 0.17474600 -0.18117350 0.17023700
v 0.17512300 -0.18163450 0.17024200
v 0.17512200 -0.18124350 0.17006100
v -0.26592700 -0.19057550 0.13552600
v -0.24478100 -0.19057550 0.13552600
v -0.26870300 -0.18666950 0.15589800
v -0.24478100 -0.18614750 0.15862400
v -0.26592700 -0.23688550 0.14440400
v -0.24478100 -0.23688550 0.14440400
v -0.26592700 -0.23245750 0.16750200
v -0.24478100 -0.23245750 0.16750200
v -0.24478100 -0.21611450 0.14042200
v -0.26592700 -0.21611450 0.14042200
v -0.24478100 -0.21168650 0.16352000
v -0.26870300 -0.21220950 0.16079400
v -0.23194300 -0.23245750 0.16750200
v -0.23194300 -0.23688550 0.14440400
v -0.23194300 -0.21611450 0.14042200
v -0.23194300 -0.21168650 0.16352000
v -0.26870300 -0.19005250 0.13825200
v -0.26592700 -0.18614750 0.15862400
v -0.26870300 -0.23363750 0.14660700
v -0.26870300 -0.23025450 0.16425300
v -0.26870300 -0.21559250 0.14314800
v -0.26592700 -0.21168650 0.16352000
v -0.23178900 -0.23245750 0.16750200
v -0.23178900 -0.23688550 0.14440400
v -0.23178900 -0.21611450 0.14042200
v -0.23178900 -0.21168650 0.16352000
v -0.24478100 -0.21464850 0.14014100
v -0.24478100 -0.21022050 0.16323900
v -0.26592700 -0.21022050 0.16323900
v -0.26592700 -0.21464850 0.14014100
v -0.26870300 -0.21074350 0.16051300
v -0.26870300 -0.21412650 0.14286700
v -0.26384000 -0.18614750 0.15862400
v -0.26384000 -0.19057550 0.13552600
v -0.26384000 -0.23688550 0.14440400
v -0.26384000 -0.23245750 0.16750200
v -0.26384000 -0.21611450 0.14042200
v -0.26384000 -0.21168650 0.16352000
v -0.26384000 -0.21464850 0.14014100
v -0.26384000 -0.21022050 0.16323900
v -0.24633400 -0.19057550 0.13552600
v -0.24633400 -0.23245750 0.16750200
v -0.24633400 -0.21611450 0.14042200
v -0.24633400 -0.21464850 0.14014100
v -0.24633400 -0.18614750 0.15862400
v -0.24633400 -0.23688550 0.14440400
v -0.24633400 -0.21168650 0.16352000
v -0.24633400 -0.21022050 0.16323900
v -0.24350200 -0.23245750 0.16750200
v -0.24350200 -0.23688550 0.14440400
v -0.24350200 -0.21611450 0.14042200
v -0.24350200 -0.21168650 0.16352000
v -0.26807500 -0.19017050 0.13763500
v -0.26655600 -0.19045750 0.13614300
v -0.26655600 -0.18626550 0.15800700
v -0.26807500 -0.18655150 0.15651500
v -0.26807500 -0.23437250 0.14610900
v -0.26655600 -0.23615050 0.14490200
v -0.26807500 -0.23075250 0.16498800
v -0.26655600 -0.23195950 0.16676700
v -0.26807500 -0.21571050 0.14253100
v -0.26655600 -0.21599650 0.14103900
v -0.26655600 -0.21180450 0.16290300
v -0.26807500 -0.21209050 0.16141100
v -0.26807500 -0.21062550 0.16113000
v -0.26655600 -0.21033950 0.16262200
v -0.26807500 -0.21424450 0.14225000
v -0.26655600 -0.21453050 0.14075800
v -0.23194300 -0.23124550 0.16571500
v -0.23194300 -0.23509950 0.14561600
v -0.23194300 -0.21732650 0.14220900
v -0.23194300 -0.21347350 0.16230800
v -0.23178900 -0.23509950 0.14561600
v -0.23178900 -0.23124550 0.16571500
v -0.23178900 -0.21347350 0.16230800
v -0.23178900 -0.21732650 0.14220900
v -0.23255300 -0.23245750 0.16750200
v -0.23255300 -0.23688550 0.14440400
v -0.23255300 -0.21611450 0.14042200
v -0.23255300 -0.21168650 0.16352000
v -0.23142300 -0.23688550 0.14440400
v -0.23142300 -0.23245750 0.16750200
v -0.23142300 -0.21611450 0.14042200
v -0.23142300 -0.21168650 0.16352000
v 0.16887000 -0.19057550 0.13552600
v 0.14772300 -0.19057550 0.13552600
v 0.17164600 -0.18666950 0.15589800
v 0.14772300 -0.18614750 0.15862400
v 0.16887000 -0.23688550 0.14440400
v 0.14772300 -0.23688550 0.14440400
v 0.16887000 -0.23245750 0.16750200
v 0.14772300 -0.23245750 0.16750200
v 0.14772300 -0.21611450 0.14042200
v 0.16887000 -0.21611450 0.14042200
v 0.14772300 -0.21168650 0.16352000
v 0.17164600 -0.21220950 0.16079400
v 0.13488500 -0.23245750 0.16750200
v 0.13488500 -0.23688550 0.14440400
v 0.13488500 -0.21611450 0.14042200
v 0.13488500 -0.21168650 0.16352000
v 0.17164600 -0.19005250 0.13825200
v 0.16887000 -0.18614750 0.15862400
v 0.17164600 -0.23363750 0.14660700
v 0.17164600 -0.23025450 0.16425300
v 0.17164600 -0.21559250 0.14314800
v 0.16887000 -0.21168650 0.16352000
v -0.05851600 -0.21168650 0.16352000
v -0.05851600 -0.23245750 0.16750200
v -0.05851600 -0.23688550 0.14440400
v -0.05851600 -0.21611450 0.14042200
v 0.13473100 -0.23245750 0.16750200
v 0.13473100 -0.23688550 0.14440400
v 0.13473100 -0.21611450 0.14042200
v 0.13473100 -0.21168650 0.16352000
v 0.14772300 -0.21464850 0.14014100
v 0.14772300 -0.21022050 0.16323900
v 0.16887000 -0.21022050 0.16323900
v 0.16887000 -0.21464850 0.14014100
v 0.17164600 -0.21074350 0.16051300
v 0.17164600 -0.21412650 0.14286700
v 0.16678200 -0.18614750 0.15862400
v 0.16678200 -0.19057550 0.13552600
v 0.16678200 -0.23688550 0.14440400
v 0.16678200 -0.23245750 0.16750200
v 0.16678200 -0.21611450 0.14042200
v 0.16678200 -0.21168650 0.16352000
v 0.16678200 -0.21464850 0.14014100
v 0.16678200 -0.21022050 0.16323900
v 0.14927600 -0.19057550 0.13552600
v 0.14927600 -0.23245750 0.16750200
v 0.14927600 -0.21611450 0.14042200
v 0.14927600 -0.21464850 0.14014100
v 0.14927600 -0.18614750 0.15862400
v 0.14927600 -0.23688550 0.14440400
v 0.14927600 -0.21168650 0.16352000
v 0.14927600 -0.21022050 0.16323900
v 0.14644500 -0.23245750 0.16750200
v 0.14644500 -0.23688550 0.14440400
v 0.14644500 -0.21611450 0.14042200
v 0.14644500 -0.21168650 0.16352000
v 0.17101700 -0.19017050 0.13763500
v 0.16949800 -0.19045750 0.13614300
v 0.16949800 -0.18626550 0.15800700
v 0.17101700 -0.18655150 0.15651500
v 0.17101700 -0.23437250 0.14610900
v 0.16949800 -0.23615050 0.14490200
v 0.17101700 -0.23075250 0.16498800
v 0.16949800 -0.23195950 0.16676700
v 0.17101700 -0.21571050 0.14253100
v 0.16949800 -0.21599650 0.14103900
v 0.16949800 -0.21180450 0.16290300
v 0.17101700 -0.21209050 0.16141100
v 0.17101700 -0.21062550 0.16113000
v 0.16949800 -0.21033950 0.16262200
v 0.17101700 -0.21424450 0.14225000
v 0.16949800 -0.21453050 0.14075800
v 0.13488500 -0.23124550 0.16571500
v 0.13488500 -0.23509950 0.14561600
v 0.13488500 -0.21732650 0.14220900
v 0.13488500 -0.21347350 0.16230800
v 0.13473100 -0.23509950 0.14561600
v 0.13473100 -0.23124550 0.16571500
v 0.13473100 -0.21347350 0.16230800
v 0.13473100 -0.21732650 0.14220900
v 0.13549500 -0.23245750 0.16750200
v 0.13549500 -0.23688550 0.14440400
v 0.13549500 -0.21611450 0.14042200
v 0.13549500 -0.21168650 0.16352000
v 0.13436500 -0.23688550 0.14440400
v 0.13436500 -0.23245750 0.16750200
v 0.13436500 -0.21611450 0.14042200
v 0.13436500 -0.21168650 0.16352000
v -0.22907600 -0.23688550 0.14440400
v -0.22907600 -0.23245750 0.16750200
v -0.22907600 -0.21611450 0.14042200
v -0.22907600 -0.21168650 0.16352000
v 0.13331500 -0.23688550 0.14440400
v 0.13331500 -0.23245750 0.16750200
v 0.13331500 -0.21611450 0.14042200
v 0.13331500 -0.21168650 0.16352000
v 0.17560100 -0.18110750 0.12359100
v 0.17560100 -0.18110750 -0.08936300
v 0.17560100 -0.18110750 0.13106500
v -0.24683200 -0.18110750 -0.10762600
v 0.14937800 -0.18110750 -0.10762600
v 0.17560100 -0.18110750 -0.09258100
v 0.17554800 -0.18110750 0.16699800
v 0.17560100 -0.18110750 0.07421200
v 0.17560100 -0.18110750 0.13422900
v 0.17560100 -0.18110750 -0.08110800
v 0.17560100 -0.18110750 0.12680900
v 0.17516400 -0.18110750 -0.10762600
v 0.17559500 -0.18110750 0.13747800
v 0.17560100 -0.18110750 -0.06413400
v 0.17560100 -0.18110750 -0.10714000
v 0.15749800 -0.18110750 -0.10762600
v -0.22811600 -0.18110750 -0.10762600
v 0.16068800 -0.18110750 -0.10762600
v 0.17487400 -0.18110750 -0.10762600
v 0.17560100 -0.18110750 -0.10691500
v 0.17547000 -0.18110750 -0.10728600
v 0.17463600 -0.18110750 -0.10762600
v 0.17501300 -0.18110750 -0.10762600
v -0.22777100 -0.17760950 0.10433600
v -0.22777100 -0.17760950 -0.08089700
v 0.14903200 -0.17760950 -0.08089700
v 0.14903200 -0.17760950 0.10433600
v -0.21999900 -0.17760950 -0.08089700
v 0.14126100 -0.17760950 -0.08089700
v 0.14126100 -0.17760950 0.10433600
v -0.21999900 -0.17760950 0.10433600
v -0.22777100 -0.17760950 -0.07333300
v 0.14903200 -0.17760950 -0.07333300
v 0.14903200 -0.17760950 -0.05778100
v -0.22777100 -0.17760950 0.09928400
v 0.14903200 -0.17760950 0.09928400
v -0.27626100 -0.18110450 -0.10762600
v 0.17545700 -0.18110450 0.16946600
v -0.27648200 -0.18142150 -0.10762600
v 0.17546000 -0.18186850 0.16966200
v -0.26233700 -0.18107850 0.14856800
v -0.27415700 -0.18107850 0.16389700
v -0.27431500 -0.18107850 0.16410200
v -0.25429500 -0.18109450 -0.09577100
v 0.17557700 -0.18110750 -0.09257200
v 0.17554300 -0.18110750 -0.09255800
v 0.17551400 -0.18110750 -0.09254600
v 0.17554900 -0.18110750 -0.08109200
v 0.15066000 -0.17782650 -0.05817000
vn -0.0000 -0.0000 1.0000
vn -0.6614 -0.7501 -0.0000
vn -0.0000 -0.9821 0.1883
vn -0.0000 -1.0000 -0.0000
vn 0.4758 -0.8795 -0.0000
vn -0.0000 -0.8795 0.4758
vn -0.0000 -0.8795 -0.4758
vn -1.0000 -0.0000 -0.0000
vn -0.6614 -0.7500 -0.0000
vn -0.4758 -0.8795 -0.0000
vn -0.0000 -0.9955 0.0946
vn -0.0000 -0.9949 0.1005
vn -0.4758 -0.8796 -0.0000
vn -0.1475 0.9891 0.0050
vn -0.2311 0.9729 -0.0000
vn -0.2312 0.9729 -0.0000
vn -0.1403 0.9901 -0.0025
vn -0.0000 0.9729 0.2313
vn -0.0000 0.9728 0.2315
vn -0.0000 0.9967 0.0813
vn -0.0000 0.9967 0.0812
vn -0.1173 0.9931 -0.0030
vn -0.2376 0.9713 -0.0061
vn -0.1164 0.9932 -0.0000
vn 0.0061 0.9713 0.2376
vn -0.0000 0.9932 0.1164
vn 0.0029 0.9931 0.1174
vn -0.0010 0.9968 0.0802
vn -0.0031 0.9732 0.2299
vn -0.0811 0.9967 -0.0000
vn -0.2294 0.9733 0.0031
vn -0.0799 0.9968 0.0010
vn -0.0000 0.9729 0.2312
vn -0.0062 0.9915 0.1298
vn -0.1159 0.9933 -0.0001
vn -0.1179 0.9860 0.1178
vn -0.0903 0.9918 0.0902
vn 0.7624 0.0063 0.6470
vn 0.7358 0.0372 0.6762
vn 0.7206 0.0355 0.6925
vn 0.7346 0.0093 0.6784
vn 0.7419 -0.6600 0.1180
vn 0.7621 -0.6357 0.1232
vn 0.7623 -0.6354 0.1232
vn 0.7412 -0.6601 0.1217
vn 0.7625 -0.6470 -0.0000
vn 0.7625 -0.6470 -0.0003
vn 0.7625 -0.6470 -0.0002
vn 0.7625 -0.6469 -0.0000
vn 0.7351 0.0092 0.6779
vn 0.7768 0.0118 0.6296
vn 0.7625 0.0032 0.6470
vn 0.7984 0.0273 0.6015
vn 0.7626 -0.6469 -0.0000
vn 0.7624 -0.6471 -0.0000
vn 0.7629 -0.6435 0.0617
vn 0.7631 -0.6433 0.0617
vn 0.7190 -0.6841 0.1227
vn 0.7202 -0.6845 0.1128
vn 0.7003 0.1015 0.7066
vn 0.7096 0.0546 0.7025
vn 0.8382 0.1440 0.5260
vn 0.7997 0.0052 0.6003
vn 0.7316 0.5005 0.4628
vn 0.7418 0.5545 0.3773
vn 0.7966 0.3080 0.5201
vn -0.4339 -0.4886 -0.7570
vn -0.4268 -0.4988 -0.7543
vn -0.4349 -0.4877 -0.7570
vn -0.4295 -0.4962 -0.7545
vn -0.0000 -0.6470 -0.7625
vn 0.0016 -0.6534 -0.7570
vn 0.0026 -0.6534 -0.7570
vn -0.0010 -0.6737 -0.7390
vn -0.0005 -0.6558 -0.7549
vn -0.0016 -0.6718 -0.7408
vn -0.0008 -0.6557 -0.7550
vn -0.6653 0.0104 -0.7465
vn -0.6639 -0.0002 -0.7478
vn -0.6659 0.0199 -0.7458
vn -0.6643 -0.0003 -0.7475
vn -0.4255 -0.5126 -0.7458
vn -0.4321 -0.5061 -0.7464
vn 0.0028 -0.6596 -0.7516
vn 0.0052 -0.6597 -0.7515
vn -0.4394 -0.4922 -0.7514
vn -0.4420 -0.4901 -0.7513
vn -0.6706 -0.0212 -0.7415
vn -0.6724 -0.0130 -0.7401
vn -0.4305 0.6761 -0.5979
vn -0.4614 0.5745 -0.6761
vn -0.3911 0.6551 -0.6464
vn -0.4960 0.5898 -0.6372
vn 0.5258 -0.3990 -0.7512
vn 0.5169 -0.4102 -0.7513
vn 0.5347 -0.4026 -0.7430
vn 0.5270 -0.4154 -0.7414
vn -1.0000 0.0001 -0.0000
vn -0.2278 0.9737 0.0063
vn -0.0452 0.9990 0.0024
vn -0.4327 -0.4894 -0.7571
vn -0.4323 -0.4934 -0.7548
vn 0.0006 -0.6533 -0.7571
vn -0.0004 -0.6758 -0.7370
vn -0.0002 -0.6560 -0.7548
vn -0.6649 0.0042 -0.7469
vn -0.6636 -0.0001 -0.7481
vn -0.4366 -0.5015 -0.7469
vn 0.0012 -0.6596 -0.7516
vn -0.4375 -0.4937 -0.7516
vn -0.6736 -0.0046 -0.7391
vn -0.3909 0.6313 -0.6699
vn -0.2769 0.8258 -0.4913
vn 0.5079 -0.4213 -0.7513
vn 0.5172 -0.4285 -0.7409
vn -0.0000 -0.9955 0.0945
vn 0.0001 -0.0000 1.0000
vn -0.0062 0.9736 0.2282
vn -0.0024 0.9990 0.0454
vn 0.7387 0.0157 0.6738
vn 0.7624 0.0063 0.6471
vn 0.7408 -0.6599 0.1254
vn 0.7625 -0.6351 0.1231
vn 0.7625 -0.6470 -0.0001
vn 0.7561 -0.0022 0.6545
vn 0.7633 -0.6431 0.0617
vn 0.7184 -0.6838 0.1277
vn 0.7140 0.0253 0.6997
vn 0.7391 -0.0045 0.6736
vn 0.6699 0.6311 0.3910
vn 0.4916 0.8255 0.2774
vn -0.0021 -0.6830 -0.7304
vn -0.0005 -0.6829 -0.7305
vn 0.5494 -0.4086 -0.7289
vn 0.5335 -0.4235 -0.7322
vn -0.0004 -0.6827 -0.7307
vn 0.5229 -0.4330 -0.7342
vn -1.0000 -0.0001 -0.0000
vn -0.6470 0.7625 -0.0000
vn -0.6471 0.7624 -0.0000
vn -0.0000 0.7625 0.6470
vn -0.6800 0.7332 -0.0030
vn 0.0030 0.7332 0.6800
vn 0.0060 0.7025 0.7116
vn -0.6470 0.7624 -0.0000
vn -0.7115 0.7026 -0.0060
vn -0.7115 0.7027 -0.0060
vn 0.8295 0.2436 0.5025
vn -0.6819 -0.0115 -0.7314
vn -0.6836 -0.0223 -0.7295
vn -0.4086 0.5493 -0.7289
vn -0.4234 0.5335 -0.7322
vn -0.6470 0.7625 -0.0001
vn -0.6807 -0.0046 -0.7326
vn -0.4330 0.5229 -0.7342
vn 0.7667 0.2709 0.5821
vn -0.0000 -0.1883 -0.9821
vn 1.0000 -0.0000 -0.0000
vn -0.0000 0.1883 0.9821
vn -0.0000 0.9821 -0.1883
vn -0.7071 -0.6945 0.1331
vn -0.7071 -0.6944 0.1331
vn -0.7071 -0.1331 -0.6945
vn -0.7071 0.1331 0.6945
vn -0.7071 0.1331 0.6944
vn -0.7071 -0.1331 -0.6944
vn 0.7071 -0.6945 0.1331
vn 0.7071 -0.1331 -0.6944
vn 0.7071 -0.1331 -0.6945
vn 0.7071 0.1331 0.6945
vn 0.7071 0.1331 0.6944
vn 1.0000 -0.0000 0.0016
vn 0.9998 0.0013 0.0177
vn 1.0000 0.0026 0.0034
vn 1.0000 -0.0000 0.0008
vn 1.0000 0.0069 0.0008
vn 0.9995 0.0012 0.0307
vn -0.0000 -0.0000 -1.0000
vn -0.0001 -0.0000 -1.0000
vn 0.7440 -0.0000 -0.6682
vn -0.0000 0.9915 -0.1297
vn 0.0010 0.9917 -0.1288
vn -0.0223 0.9932 -0.1141
vn 0.9994 0.0006 0.0333
vn 0.8383 0.1440 0.5259
vn 0.9998 -0.0000 0.0200
vn -0.0000 1.0000 -0.0000
vn -0.0271 0.9995 0.0151
vn 0.0318 0.9995 0.0057
vn 0.0349 0.9983 -0.0469
vn 0.0033 0.9938 -0.1108
vn 0.8510 0.5252 -0.0037
vn 0.8510 0.5252 -0.0036
vn -0.0298 0.9973 -0.0674
vn 0.0001 0.9985 -0.0540
vn 0.0149 0.9998 -0.0159
vn -0.0335 0.9991 -0.0267
vn -0.0592 0.9981 0.0197
vn -0.0708 0.9975 -0.0080
vn -0.0411 0.9968 -0.0692
vn -0.0161 0.9988 0.0463
vn -0.0000 0.9986 0.0531
vn 0.0776 0.9967 0.0220
vn 0.1313 0.9913 0.0001
vn 0.1321 0.9912 -0.0000
vn 0.0655 0.9979 -0.0002
vn 0.0681 0.9957 -0.0630
vn 0.1307 0.9914 -0.0000
vn 0.0548 0.9985 0.0010
vn 0.0489 0.9988 0.0001
vn 0.0448 0.9990 -0.0000
vn 0.0446 0.9990 -0.0000
vn 0.0431 0.9991 -0.0000
vn 0.0430 0.9991 -0.0000
vn 0.1304 0.9915 -0.0000
vt 0.516740 0.862150
vt 0.516740 0.890657
vt 0.516138 0.890019
vt 0.516138 0.862104
vt 0.498300 0.860258
vt 0.496200 0.861028
vt 0.496164 0.860271
vt 0.498356 0.861453
vt 0.496188 0.891080
vt 0.496202 0.863271
vt 0.498361 0.863708
vt 0.498347 0.891115
vt 0.500549 0.861856
vt 0.514192 0.862937
vt 0.500548 0.862937
vt 0.514193 0.861856
vt 0.516742 0.891514
vt 0.516754 0.892654
vt 0.516139 0.891960
vt 0.516138 0.890856
vt 0.516740 0.860221
vt 0.516740 0.861296
vt 0.516138 0.861268
vt 0.516138 0.860216
vt 0.496203 0.861339
vt 0.498362 0.861804
vt 0.496203 0.862437
vt 0.498362 0.862887
vt 0.496187 0.892961
vt 0.498347 0.891937
vt 0.498346 0.892968
vt 0.496187 0.891914
vt 0.498771 0.860257
vt 0.499920 0.861500
vt 0.498831 0.861500
vt 0.499860 0.860257
vt 0.514958 0.860257
vt 0.516055 0.861500
vt 0.515018 0.861500
vt 0.515996 0.860257
vt 0.516060 0.863757
vt 0.515008 0.891119
vt 0.515022 0.863757
vt 0.516046 0.891119
vt 0.498822 0.891119
vt 0.499924 0.863757
vt 0.499911 0.891119
vt 0.498836 0.863757
vt 0.515023 0.862937
vt 0.515023 0.861856
vt 0.516061 0.861856
vt 0.516060 0.862937
vt 0.499926 0.861856
vt 0.498836 0.862937
vt 0.498837 0.861856
vt 0.499925 0.862937
vt 0.498821 0.891939
vt 0.499166 0.892969
vt 0.498821 0.892969
vt 0.499910 0.891939
vt 0.515008 0.891939
vt 0.516045 0.892969
vt 0.515007 0.892969
vt 0.516045 0.891939
vt 0.501032 0.863688
vt 0.514105 0.863260
vt 0.513698 0.863688
vt 0.500634 0.863260
vt 0.514681 0.891031
vt 0.514253 0.864255
vt 0.514695 0.863845
vt 0.514239 0.890617
vt 0.500232 0.891031
vt 0.500663 0.864255
vt 0.500649 0.890617
vt 0.500246 0.863845
vt 0.472779 0.863122
vt 0.475214 0.871892
vt 0.472689 0.863128
vt 0.475304 0.871886
vt 0.516831 0.890754
vt 0.516831 0.862157
vt 0.516923 0.890754
vt 0.516923 0.862157
vt 0.471979 0.860347
vt 0.472374 0.861719
vt 0.471889 0.860352
vt 0.472284 0.861725
vt 0.496160 0.860187
vt 0.498296 0.860187
vt 0.516831 0.892741
vt 0.516831 0.891611
vt 0.516923 0.892741
vt 0.516923 0.891611
vt 0.516831 0.861300
vt 0.516831 0.860222
vt 0.516923 0.861300
vt 0.516923 0.860222
vt 0.475458 0.872419
vt 0.475650 0.873086
vt 0.475368 0.872425
vt 0.475560 0.873091
vt 0.472462 0.862022
vt 0.472663 0.862722
vt 0.472372 0.862028
vt 0.472573 0.862727
vt 0.498768 0.860187
vt 0.499857 0.860187
vt 0.515992 0.860187
vt 0.514955 0.860187
vt 0.516740 0.861537
vt 0.516138 0.861503
vt 0.516740 0.891271
vt 0.516138 0.890620
vt 0.496202 0.862672
vt 0.498361 0.863119
vt 0.496188 0.891678
vt 0.498347 0.891705
vt 0.515008 0.891708
vt 0.516046 0.891708
vt 0.515023 0.863168
vt 0.516060 0.863168
vt 0.499925 0.863168
vt 0.498836 0.863168
vt 0.498821 0.891708
vt 0.499910 0.891708
vt 0.514239 0.891184
vt 0.514681 0.891616
vt 0.514253 0.863688
vt 0.514695 0.863260
vt 0.500247 0.863260
vt 0.500663 0.863688
vt 0.500649 0.891184
vt 0.500232 0.891616
vt 0.516831 0.861542
vt 0.516923 0.861542
vt 0.516923 0.891369
vt 0.516831 0.891369
vt 0.500093 0.860257
vt 0.500543 0.861500
vt 0.500153 0.861500
vt 0.500484 0.860257
vt 0.514725 0.860257
vt 0.514785 0.861500
vt 0.514128 0.860257
vt 0.514187 0.861500
vt 0.514790 0.861856
vt 0.514790 0.862937
vt 0.500158 0.861856
vt 0.500158 0.862937
vt 0.502821 0.892969
vt 0.499399 0.892969
vt 0.500534 0.891939
vt 0.500143 0.891939
vt 0.514177 0.892969
vt 0.514775 0.891939
vt 0.514775 0.892969
vt 0.514178 0.891939
vt 0.501018 0.891184
vt 0.500619 0.891616
vt 0.514091 0.891616
vt 0.513684 0.891184
vt 0.475415 0.872270
vt 0.475325 0.872276
vt 0.514722 0.860187
vt 0.514125 0.860187
vt 0.501117 0.863779
vt 0.513611 0.863779
vt 0.514158 0.864342
vt 0.514145 0.890528
vt 0.514790 0.863757
vt 0.514775 0.891119
vt 0.512949 0.891708
vt 0.512878 0.891616
vt 0.500534 0.891708
vt 0.500752 0.864342
vt 0.500738 0.890528
vt 0.500157 0.863757
vt 0.500143 0.891119
vt 0.514144 0.891091
vt 0.514775 0.891708
vt 0.514790 0.863168
vt 0.514158 0.863779
vt 0.500752 0.863779
vt 0.500158 0.863168
vt 0.500143 0.891708
vt 0.500738 0.891091
vt 0.514192 0.863168
vt 0.500548 0.863168
vt 0.501104 0.891091
vt 0.514178 0.891708
vt 0.513597 0.891091
vt 0.516139 0.892196
vt 0.516757 0.892898
vt 0.496203 0.861104
vt 0.498362 0.861573
vt 0.515024 0.861625
vt 0.516061 0.861625
vt 0.498837 0.861625
vt 0.499926 0.861625
vt 0.516831 0.892982
vt 0.516923 0.892982
vt 0.514193 0.861625
vt 0.514791 0.861625
vt 0.500159 0.861625
vt 0.500549 0.861625
vt 0.498539 0.860257
vt 0.498598 0.861500
vt 0.498589 0.891119
vt 0.498603 0.863757
vt 0.498603 0.862937
vt 0.498604 0.861856
vt 0.498588 0.891939
vt 0.498588 0.892969
vt 0.472419 0.861873
vt 0.472329 0.861878
vt 0.472706 0.862871
vt 0.472616 0.862877
vt 0.500090 0.860187
vt 0.498535 0.860187
vt 0.498603 0.863168
vt 0.498588 0.891708
vt 0.498604 0.861625
vt 0.495958 0.860980
vt 0.495925 0.860273
vt 0.495946 0.891076
vt 0.495961 0.863222
vt 0.495961 0.862387
vt 0.495962 0.861287
vt 0.495945 0.892960
vt 0.495946 0.891911
vt 0.471935 0.860193
vt 0.471845 0.860199
vt 0.495921 0.860187
vt 0.495961 0.862622
vt 0.495946 0.891675
vt 0.495962 0.861051
vt 0.516077 0.889955
vt 0.516077 0.862099
vt 0.516077 0.891890
vt 0.516077 0.890790
vt 0.516077 0.861265
vt 0.516077 0.860216
vt 0.516077 0.861500
vt 0.516077 0.890554
vt 0.516077 0.892126
vt 0.512949 0.891939
vt 0.512949 0.892969
vt 0.512543 0.891184
vt 0.500481 0.860187
vt 0.512471 0.891091
vt 0.472852 0.863117
vt 0.475378 0.871881
vt 0.516998 0.862157
vt 0.516998 0.890754
vt 0.472053 0.860342
vt 0.472448 0.861714
vt 0.516998 0.891611
vt 0.516998 0.892741
vt 0.516998 0.860222
vt 0.516998 0.861300
vt 0.475531 0.872415
vt 0.475723 0.873081
vt 0.472535 0.862018
vt 0.472737 0.862717
vt 0.516998 0.891369
vt 0.516998 0.861542
vt 0.475488 0.872265
vt 0.516998 0.892982
vt 0.472780 0.862867
vt 0.472492 0.861868
vt 0.472008 0.860188
vt 0.491354 0.860229
vt 0.477690 0.860200
vt 0.491354 0.860200
vt 0.477690 0.860229
vt 0.495908 0.862415
vt 0.495900 0.891002
vt 0.495871 0.891003
vt 0.495879 0.862415
vt 0.495681 0.860229
vt 0.493542 0.860200
vt 0.495681 0.860200
vt 0.493542 0.860229
vt 0.495908 0.860429
vt 0.495908 0.861559
vt 0.495879 0.861559
vt 0.495879 0.860429
vt 0.495871 0.892937
vt 0.495871 0.891859
vt 0.495900 0.892937
vt 0.495900 0.891859
vt 0.476858 0.860229
vt 0.475819 0.860200
vt 0.476858 0.860200
vt 0.475819 0.860229
vt 0.493069 0.860229
vt 0.491978 0.860200
vt 0.493069 0.860200
vt 0.491978 0.860229
vt 0.495908 0.861800
vt 0.495879 0.861800
vt 0.495900 0.891617
vt 0.495871 0.891618
vt 0.477092 0.860200
vt 0.477092 0.860229
vt 0.495910 0.860198
vt 0.495891 0.860217
vt 0.491745 0.860200
vt 0.491745 0.860229
vt 0.493302 0.860229
vt 0.493302 0.860200
vt 0.485722 0.961585
vt 0.486325 0.961585
vt 0.486325 0.961614
vt 0.485722 0.961614
vt 0.486391 0.961820
vt 0.486829 0.963953
vt 0.486801 0.963959
vt 0.486419 0.961814
vt 0.486846 0.964732
vt 0.486846 0.964424
vt 0.486875 0.964423
vt 0.486875 0.964749
vt 0.486875 0.980628
vt 0.486875 0.981667
vt 0.486846 0.980629
vt 0.486846 0.981668
vt 0.485630 0.961614
vt 0.485538 0.961585
vt 0.485630 0.961585
vt 0.485538 0.961614
vt 0.486875 0.968488
vt 0.486846 0.964965
vt 0.486875 0.964982
vt 0.486846 0.968543
vt 0.486846 0.980396
vt 0.486846 0.979798
vt 0.486875 0.979797
vt 0.486875 0.980395
vt 0.486875 0.964191
vt 0.486846 0.964195
vt 0.477051 0.894782
vt 0.477051 0.895015
vt 0.477028 0.894802
vt 0.486359 0.961605
vt 0.476991 0.895019
vt 0.476991 0.894967
vt 0.477015 0.894985
vt 0.486846 0.978568
vt 0.486875 0.978567
vt 0.485487 0.961627
vt 0.485469 0.961584
vt 0.485430 0.961622
vt 0.485441 0.961598
vt 0.476950 0.894880
vt 0.476950 0.894819
vt 0.476972 0.894870
vt 0.474350 0.874181
vt 0.475533 0.873200
vt 0.474374 0.874210
vt 0.475509 0.873171
vt 0.474075 0.875907
vt 0.472033 0.896847
vt 0.472000 0.896833
vt 0.474108 0.875921
vt 0.474137 0.875280
vt 0.474219 0.874453
vt 0.474252 0.874467
vt 0.474170 0.875294
vt 0.471860 0.898243
vt 0.471938 0.897460
vt 0.471891 0.898247
vt 0.471971 0.897474
vt 0.475569 0.873118
vt 0.475654 0.873113
vt 0.475583 0.873152
vt 0.475656 0.873151
vt 0.471956 0.897283
vt 0.471989 0.897297
vt 0.474120 0.875457
vt 0.474153 0.875471
vt 0.474236 0.874280
vt 0.474266 0.874302
vt 0.475712 0.873145
vt 0.475721 0.873108
vt 0.475792 0.860237
vt 0.475768 0.860240
vt 0.475792 0.860213
vt 0.475738 0.873154
vt 0.475757 0.873134
vt 0.475759 0.873165
vt 0.486819 0.981718
vt 0.486838 0.981694
vt 0.486835 0.981718
vt 0.486862 0.981694
vt 0.516012 0.860257
vt 0.516071 0.861500
vt 0.516076 0.863757
vt 0.516062 0.891119
vt 0.516077 0.861856
vt 0.516077 0.862937
vt 0.516061 0.892968
vt 0.516062 0.891939
vt 0.475653 0.873096
vt 0.475563 0.873102
vt 0.516009 0.860187
vt 0.516062 0.891708
vt 0.516077 0.863168
vt 0.516077 0.861625
vt 0.475726 0.873092
vt 0.475803 0.860201
vt 0.475803 0.860229
vt 0.486875 0.981683
vt 0.486846 0.981684
vt 0.474339 0.874169
vt 0.475498 0.873158
vt 0.474061 0.875901
vt 0.471986 0.896827
vt 0.474205 0.874447
vt 0.474123 0.875274
vt 0.471846 0.898241
vt 0.471924 0.897454
vt 0.471941 0.897277
vt 0.474106 0.875451
vt 0.474223 0.874270
vt 0.516740 0.860205
vt 0.516138 0.860200
vt 0.496187 0.892977
vt 0.498346 0.892984
vt 0.499154 0.892985
vt 0.498821 0.892985
vt 0.515007 0.892985
vt 0.516045 0.892985
vt 0.516831 0.860206
vt 0.516923 0.860206
vt 0.499387 0.892985
vt 0.502857 0.892985
vt 0.514177 0.892985
vt 0.514775 0.892985
vt 0.498588 0.892985
vt 0.495945 0.892976
vt 0.516077 0.860199
vt 0.512949 0.892985
vt 0.516997 0.860206
vt 0.495899 0.892953
vt 0.495871 0.892953
vt 0.486325 0.961572
vt 0.485722 0.961572
vt 0.486431 0.961811
vt 0.486841 0.963950
vt 0.486887 0.964423
vt 0.486887 0.964757
vt 0.486887 0.981667
vt 0.486887 0.980628
vt 0.485630 0.961572
vt 0.485538 0.961572
vt 0.486887 0.968464
vt 0.486887 0.964990
vt 0.486887 0.979797
vt 0.486887 0.980395
vt 0.486887 0.964190
vt 0.495956 0.892988
vt 0.486376 0.961583
vt 0.516087 0.860187
vt 0.486887 0.978567
vt 0.485463 0.961572
vt 0.495887 0.892964
vt 0.495863 0.892964
vt 0.471889 0.898261
vt 0.471859 0.898256
vt 0.486849 0.981718
vt 0.486875 0.981694
vt 0.516061 0.892985
vt 0.486887 0.981683
vt 0.471845 0.898254
vt 0.472868 0.863117
vt 0.475394 0.871880
vt 0.517014 0.862157
vt 0.517014 0.890754
vt 0.472069 0.860341
vt 0.472464 0.861713
vt 0.517014 0.891611
vt 0.517014 0.892741
vt 0.517014 0.860222
vt 0.517014 0.861300
vt 0.475548 0.872414
vt 0.475740 0.873080
vt 0.472551 0.862017
vt 0.472753 0.862716
vt 0.517014 0.891369
vt 0.517014 0.861542
vt 0.475504 0.872264
vt 0.517014 0.892982
vt 0.472796 0.862866
vt 0.472508 0.861867
vt 0.472024 0.860187
vt 0.491354 0.860187
vt 0.477690 0.860187
vt 0.495912 0.891002
vt 0.495920 0.862415
vt 0.495681 0.860187
vt 0.493541 0.860187
vt 0.495920 0.861558
vt 0.495920 0.860429
vt 0.495912 0.892936
vt 0.495912 0.891859
vt 0.476858 0.860187
vt 0.475819 0.860187
vt 0.493069 0.860187
vt 0.491978 0.860187
vt 0.495920 0.861800
vt 0.495912 0.891617
vt 0.477091 0.860187
vt 0.517027 0.892972
vt 0.491745 0.860187
vt 0.493302 0.860187
vt 0.485452 0.961584
vt 0.475738 0.873107
vt 0.475729 0.873143
vt 0.475748 0.873117
vt 0.475743 0.873091
vt 0.475803 0.860187
vt 0.475752 0.873100
vt 0.517014 0.860206
vt 0.495912 0.892953
vt 0.485446 0.961572
vt 0.485436 0.961585
vt 0.726198 0.935343
vt 0.724177 0.935343
vt 0.724177 0.935164
vt 0.726198 0.935164
vt 0.713252 0.937056
vt 0.713431 0.939163
vt 0.713252 0.939163
vt 0.713431 0.937056
vt 0.730241 0.935238
vt 0.728219 0.937345
vt 0.728219 0.935238
vt 0.730241 0.937345
vt 0.709273 0.939163
vt 0.709407 0.937056
vt 0.709407 0.939163
vt 0.709273 0.937056
vt 0.718243 0.939163
vt 0.716699 0.937056
vt 0.718243 0.937056
vt 0.716699 0.939163
vt 0.711747 0.935110
vt 0.711747 0.936928
vt 0.711614 0.935110
vt 0.711614 0.936928
vt 0.707589 0.935110
vt 0.707769 0.936928
vt 0.707589 0.936928
vt 0.707769 0.935110
vt 0.716699 0.936928
vt 0.718243 0.935348
vt 0.718243 0.936928
vt 0.716699 0.935348
vt 0.726198 0.936981
vt 0.724177 0.937091
vt 0.724177 0.936981
vt 0.726198 0.937091
vt 0.711504 0.935110
vt 0.711504 0.936928
vt 0.733039 0.935110
vt 0.733039 0.937131
vt 0.732929 0.935110
vt 0.732929 0.937131
vt 0.709407 0.935110
vt 0.709517 0.936928
vt 0.709407 0.936928
vt 0.709517 0.935110
vt 0.716514 0.935164
vt 0.718427 0.935164
vt 0.718297 0.935294
vt 0.716645 0.935294
vt 0.716645 0.936928
vt 0.716514 0.936928
vt 0.718427 0.939163
vt 0.718297 0.937056
vt 0.718427 0.937056
vt 0.730371 0.935110
vt 0.730502 0.937217
vt 0.730371 0.937217
vt 0.716645 0.937056
vt 0.716514 0.937056
vt 0.718297 0.936928
vt 0.718427 0.936928
vt 0.113151 0.177728
vt 0.111462 0.177725
vt 0.113151 0.177701
vt 0.111462 0.177698
vt 0.114946 0.179561
vt 0.113415 0.179633
vt 0.113415 0.179613
vt 0.114946 0.179581
vt 0.164591 0.118382
vt 0.162913 0.118373
vt 0.164591 0.118355
vt 0.162913 0.118347
vt 0.111462 0.151158
vt 0.109941 0.151185
vt 0.109941 0.151158
vt 0.111462 0.151185
vt 0.711747 0.937056
vt 0.711614 0.937056
vt 0.730241 0.935110
vt 0.728219 0.935110
vt 0.707589 0.937056
vt 0.707769 0.937056
vt 0.730241 0.937221
vt 0.730371 0.937213
vt 0.716514 0.939163
vt 0.724177 0.936848
vt 0.726198 0.936848
vt 0.711747 0.939163
vt 0.707589 0.939163
vt 0.707769 0.939163
vt 0.713252 0.935110
vt 0.713431 0.936928
vt 0.713252 0.936928
vt 0.713431 0.935110
vt 0.709273 0.936928
vt 0.709273 0.935110
vt 0.711614 0.939163
vt 0.726198 0.938032
vt 0.724177 0.938032
vt 0.710563 0.936928
vt 0.710563 0.935110
vt 0.733980 0.935110
vt 0.733980 0.937131
vt 0.710458 0.935110
vt 0.710458 0.936928
vt 0.732875 0.936762
vt 0.732875 0.935110
vt 0.732929 0.935164
vt 0.724231 0.935110
vt 0.726144 0.935110
vt 0.716460 0.936928
vt 0.716460 0.935110
vt 0.718297 0.939163
vt 0.707535 0.937056
vt 0.707535 0.939163
vt 0.713485 0.936928
vt 0.713485 0.937056
vt 0.716460 0.937056
vt 0.718481 0.936928
vt 0.718481 0.935110
vt 0.718481 0.937056
vt 0.707535 0.936928
vt 0.713485 0.939163
vt 0.716645 0.939163
vt 0.732188 0.935241
vt 0.732319 0.937131
vt 0.732188 0.937000
vt 0.732319 0.935110
vt 0.730502 0.937131
vt 0.730633 0.937000
vt 0.730502 0.935110
vt 0.730633 0.935241
vt 0.113317 0.178523
vt 0.113434 0.178590
vt 0.113519 0.179538
vt 0.114848 0.178472
vt 0.114744 0.178546
vt 0.114829 0.179494
vt 0.726198 0.938085
vt 0.724177 0.938085
vt 0.710510 0.936928
vt 0.710510 0.935110
vt 0.734032 0.935110
vt 0.734032 0.937131
vt 0.113151 0.177531
vt 0.111462 0.177528
vt 0.114945 0.179712
vt 0.113414 0.179764
vt 0.164591 0.118552
vt 0.162913 0.118543
vt 0.111462 0.151355
vt 0.109941 0.151355
vt 0.722155 0.937851
vt 0.724177 0.937851
vt 0.722155 0.938031
vt 0.724177 0.938031
vt 0.713719 0.937056
vt 0.713719 0.939163
vt 0.713539 0.937056
vt 0.713539 0.939163
vt 0.726198 0.935238
vt 0.726198 0.937345
vt 0.705534 0.939196
vt 0.705737 0.937095
vt 0.705668 0.939201
vt 0.705603 0.937091
vt 0.720449 0.938924
vt 0.720449 0.936817
vt 0.721993 0.938924
vt 0.721993 0.936817
vt 0.715357 0.935110
vt 0.715223 0.936928
vt 0.715223 0.935110
vt 0.715357 0.936928
vt 0.707483 0.935205
vt 0.707424 0.937022
vt 0.707245 0.937016
vt 0.707304 0.935199
vt 0.720449 0.935110
vt 0.721993 0.935110
vt 0.720449 0.936689
vt 0.721993 0.936689
vt 0.724177 0.936213
vt 0.722155 0.936213
vt 0.722155 0.936103
vt 0.724177 0.936103
vt 0.715467 0.935110
vt 0.715467 0.936928
vt 0.733423 0.937131
vt 0.733313 0.939153
vt 0.733313 0.937131
vt 0.733423 0.939153
vt 0.705667 0.935146
vt 0.705607 0.936963
vt 0.705498 0.936959
vt 0.705557 0.935142
vt 0.720395 0.935110
vt 0.718612 0.935240
vt 0.720264 0.935240
vt 0.720395 0.936874
vt 0.720264 0.936874
vt 0.718612 0.937002
vt 0.718612 0.939109
vt 0.718481 0.937002
vt 0.707405 0.939258
vt 0.707474 0.937152
vt 0.707535 0.939262
vt 0.720395 0.937002
vt 0.720264 0.937002
vt 0.718481 0.936874
vt 0.718612 0.936874
vt 0.111475 0.151158
vt 0.113165 0.151161
vt 0.113165 0.151188
vt 0.111475 0.151185
vt 0.114848 0.199978
vt 0.113317 0.200030
vt 0.113318 0.200010
vt 0.114848 0.199958
vt 0.164584 0.144914
vt 0.162906 0.144879
vt 0.164584 0.144887
vt 0.162906 0.144906
vt 0.111462 0.177726
vt 0.109940 0.177726
vt 0.109940 0.177700
vt 0.111462 0.177700
vt 0.715223 0.937056
vt 0.715357 0.937056
vt 0.726198 0.935110
vt 0.707420 0.937150
vt 0.707240 0.937144
vt 0.720264 0.939109
vt 0.720395 0.939109
vt 0.722155 0.936347
vt 0.724177 0.936347
vt 0.715223 0.939163
vt 0.707172 0.939250
vt 0.707351 0.939256
vt 0.713719 0.935110
vt 0.713719 0.936928
vt 0.713539 0.935110
vt 0.713539 0.936928
vt 0.705741 0.936967
vt 0.705800 0.935150
vt 0.715357 0.939163
vt 0.722155 0.935162
vt 0.724177 0.935162
vt 0.716408 0.936928
vt 0.716408 0.935110
vt 0.732372 0.937131
vt 0.732372 0.939153
vt 0.704557 0.936928
vt 0.704616 0.935112
vt 0.732875 0.936709
vt 0.732823 0.935166
vt 0.720210 0.935294
vt 0.724123 0.938085
vt 0.722209 0.938085
vt 0.722101 0.935110
vt 0.722155 0.936689
vt 0.722101 0.936689
vt 0.713485 0.935164
vt 0.713485 0.936928
vt 0.722101 0.936871
vt 0.722047 0.938978
vt 0.722047 0.936871
vt 0.720395 0.938924
vt 0.722101 0.936817
vt 0.722155 0.936817
vt 0.713485 0.937056
vt 0.722047 0.936743
vt 0.722047 0.935110
vt 0.722101 0.935164
vt 0.722101 0.936743
vt 0.707535 0.935261
vt 0.707478 0.937024
vt 0.713485 0.939163
vt 0.722047 0.938924
vt 0.722155 0.938924
vt 0.730502 0.939153
vt 0.730633 0.937262
vt 0.730633 0.939021
vt 0.732319 0.939153
vt 0.732188 0.939021
vt 0.732188 0.937262
vt 0.156619 0.149120
vt 0.156619 0.150824
vt 0.156508 0.149231
vt 0.156508 0.150713
vt 0.155086 0.149120
vt 0.155196 0.149231
vt 0.155196 0.150714
vt 0.155086 0.150824
vt 0.722155 0.935110
vt 0.724177 0.935110
vt 0.716460 0.935110
vt 0.732319 0.937131
vt 0.704505 0.936927
vt 0.704564 0.935110
vt 0.113165 0.151264
vt 0.111475 0.151261
vt 0.113318 0.199951
vt 0.114848 0.199899
vt 0.164584 0.144811
vt 0.162906 0.144803
vt 0.109940 0.177624
vt 0.111462 0.177624
vt 0.113158 0.165169
vt 0.111468 0.165166
vt 0.113369 0.189265
vt 0.114899 0.189213
vt 0.162910 0.130903
vt 0.164588 0.130911
vt 0.111462 0.163718
vt 0.109941 0.163718
vt 0.485432 0.963959
vt 0.485431 0.961820
vt 0.485432 0.964733
vt 0.485432 0.964424
vt 0.485432 0.980629
vt 0.485432 0.981668
vt 0.485432 0.968544
vt 0.485432 0.964966
vt 0.485432 0.979798
vt 0.485432 0.980396
vt 0.485432 0.964195
vt 0.485432 0.978568
vt 0.473420 0.896760
vt 0.475494 0.875834
vt 0.475597 0.874796
vt 0.473281 0.898160
vt 0.473357 0.897387
vt 0.473375 0.897210
vt 0.471903 0.898267
vt 0.473279 0.898181
vt 0.471918 0.898275
vt 0.473278 0.898189
vt 0.485431 0.981695
vt 0.485431 0.981719
vt 0.485432 0.981684
vt 0.473279 0.898173
vt 0.481821 0.961938
vt 0.483199 0.974446
vt 0.481821 0.974446
vt 0.483199 0.961938
vt 0.481119 0.893562
vt 0.482493 0.919749
vt 0.481119 0.919749
vt 0.482493 0.893562
vt 0.504673 0.893485
vt 0.503760 0.913415
vt 0.502409 0.913481
vt 0.506025 0.893418
vt 0.482493 0.920312
vt 0.481119 0.920312
vt 0.481119 0.892999
vt 0.482493 0.892999
vt 0.504722 0.893054
vt 0.506073 0.892988
vt 0.502361 0.913911
vt 0.503712 0.913845
vt 0.483199 0.974994
vt 0.481821 0.974994
vt 0.502425 0.914147
vt 0.503776 0.914081
vt 0.505977 0.922137
vt 0.504722 0.922557
vt 0.504626 0.922204
vt 0.506073 0.922490
vt 0.505779 0.921411
vt 0.504427 0.921478
vt 0.483199 0.961572
vt 0.481821 0.961572
vt 0.475760 0.891099
vt 0.477707 0.864340
vt 0.477700 0.890517
vt 0.475767 0.863745
vt 0.485431 0.961641
vt 0.476950 0.892999
vt 0.476950 0.893627
vt 0.476944 0.893034
vt 0.495464 0.860397
vt 0.495449 0.860409
vt 0.494337 0.861265
vt 0.477083 0.892999
vt 0.476850 0.892999
vt 0.476850 0.892997
vt 0.475759 0.892956
vt 0.475784 0.892989
vt 0.475759 0.892967
vt 0.475759 0.892946
vt 0.475759 0.892929
vt 0.475759 0.891918
vt 0.475759 0.891687
vt 0.477434 0.892999
vt 0.477434 0.901350
vt 0.477434 0.901716
vt 0.475767 0.862389
vt 0.475768 0.860256
vt 0.476627 0.861848
vt 0.491133 0.863776
vt 0.490767 0.863776
vt 0.477707 0.863776
vt 0.491133 0.864340
vt 0.491126 0.890517
vt 0.491126 0.891080
vt 0.479347 0.891198
vt 0.490760 0.891080
vt 0.479375 0.891080
vt 0.476852 0.892993
vt 0.477700 0.891080
vt 0.477682 0.892995
vt 0.478248 0.891080
vt 0.495844 0.892988
vt 0.495665 0.892995
vt 0.493525 0.892998
vt 0.493060 0.892999
vt 0.492752 0.892999
vt 0.493290 0.892999
vt 0.488939 0.892999
vt 0.478911 0.892999
vt 0.492519 0.892999
vt 0.476851 0.892995
vt 0.477681 0.892999
vt 0.475811 0.892999
vt 0.475794 0.892999
s 1
f 51/1/1 52/2/1 179/3/1
f 51/1/1 179/3/1 178/4/1
f 160/5/2 188/6/2 159/7/2
f 188/6/2 160/5/2 189/8/2
f 164/9/3 161/10/3 162/11/3
f 164/9/3 162/11/3 163/12/3
f 207/13/4 96/14/4 208/15/4
f 96/14/4 207/13/4 95/16/4
f 93/17/1 94/18/1 182/19/1
f 182/19/1 181/20/1 93/17/1
f 337/21/1 107/22/1 183/23/1
f 337/21/1 183/23/1 345/24/1
f 165/25/3 166/26/3 168/27/3
f 168/27/3 166/26/3 167/28/3
f 343/29/3 171/30/3 344/31/3
f 171/30/3 343/29/3 170/32/3
f 119/33/2 185/34/2 184/35/2
f 185/34/2 119/33/2 120/36/2
f 140/37/2 311/38/2 186/39/2
f 311/38/2 140/37/2 304/40/2
f 306/41/4 142/42/4 143/43/4
f 142/42/4 306/41/4 305/44/4
f 124/45/4 122/46/4 123/47/4
f 122/46/4 124/45/4 121/48/4
f 145/49/4 146/50/4 308/51/4
f 145/49/4 308/51/4 307/52/4
f 126/53/4 128/54/4 125/55/4
f 128/54/4 126/53/4 127/56/4
f 129/57/4 339/58/4 340/59/4
f 129/57/4 130/60/4 339/58/4
f 148/61/4 371/62/4 341/63/4
f 371/62/4 148/61/4 310/64/4
f 204/65/5 77/66/5 78/67/5
f 77/66/5 204/65/5 203/68/5
f 69/69/6 71/70/6 72/71/6
f 71/70/6 69/69/6 70/72/6
f 76/73/7 74/74/7 75/75/7
f 74/74/7 76/73/7 73/76/7
f 202/77/8 53/78/8 195/79/8
f 53/78/8 202/77/8 59/80/8
f 36/81/1 35/82/1 49/83/1
f 50/84/1 49/83/1 35/82/1
f 35/82/1 52/2/1 51/1/1
f 52/2/1 35/82/1 36/81/1
f 158/85/8 157/86/8 149/87/8
f 149/87/8 157/86/8 150/88/8
f 149/89/2 160/5/2 159/7/2
f 160/5/2 149/89/2 150/90/9
f 82/91/1 81/92/1 91/93/1
f 92/94/1 91/93/1 81/92/1
f 98/95/1 331/96/1 105/97/1
f 336/98/1 105/97/1 331/96/1
f 81/92/1 82/91/1 94/18/1
f 94/18/1 93/17/1 81/92/1
f 331/96/1 107/22/1 337/21/1
f 107/22/1 331/96/1 98/95/1
f 139/99/8 303/100/8 133/101/8
f 133/101/8 303/100/8 300/102/8
f 118/103/8 117/104/8 109/105/8
f 109/105/8 117/104/8 110/106/8
f 109/107/2 110/108/2 119/33/2
f 119/33/2 110/108/2 120/36/2
f 300/109/2 140/37/2 133/110/2
f 140/37/2 300/109/2 304/40/2
f 30/111/1 51/1/1 178/4/1
f 30/111/1 178/4/1 175/112/1
f 29/113/1 174/114/1 52/2/1
f 52/2/1 174/114/1 179/3/1
f 153/115/3 154/116/3 161/10/3
f 161/10/3 154/116/3 162/11/3
f 164/9/3 163/12/3 156/117/3
f 156/117/3 163/12/3 155/118/3
f 142/42/4 305/44/4 132/119/4
f 132/119/4 305/44/4 299/120/4
f 136/121/4 302/122/4 143/43/4
f 143/43/4 302/122/4 306/41/4
f 114/123/4 121/48/4 113/124/4
f 121/48/4 114/123/4 122/46/4
f 124/45/4 123/47/4 116/125/4
f 116/125/4 123/47/4 115/126/4
f 70/72/6 69/69/6 66/127/6
f 69/69/6 65/128/6 66/127/6
f 71/70/6 64/129/6 72/71/6
f 72/71/6 64/129/6 63/130/6
f 61/131/7 62/132/7 73/76/7
f 73/76/7 62/132/7 74/74/7
f 68/133/7 67/134/7 76/73/7
f 76/73/7 75/75/7 68/133/7
f 35/82/1 5/135/1 50/84/1
f 28/136/1 50/84/1 5/135/1
f 27/137/1 36/81/1 49/83/1
f 36/81/1 27/137/1 6/138/1
f 36/81/1 6/138/1 29/113/1
f 29/113/1 52/2/1 36/81/1
f 5/135/1 35/82/1 51/1/1
f 5/135/1 51/1/1 30/111/1
f 33/139/2 211/140/2 176/141/2
f 211/140/2 33/139/2 199/142/2
f 34/143/2 177/144/2 60/145/2
f 180/146/2 60/145/2 177/144/2
f 87/147/4 88/148/4 95/16/4
f 96/14/4 95/16/4 88/148/4
f 90/149/4 208/15/4 89/150/4
f 208/15/4 90/149/4 207/13/4
f 347/151/4 334/152/4 209/153/4
f 334/152/4 102/154/4 209/153/4
f 338/155/4 103/156/4 335/157/4
f 103/156/4 338/155/4 108/158/4
f 63/130/5 64/129/5 77/66/5
f 78/67/5 77/66/5 64/129/5
f 62/132/5 203/68/5 204/65/5
f 62/132/5 61/131/5 203/68/5
f 205/159/10 206/160/10 68/133/10
f 206/160/10 67/134/10 68/133/10
f 65/128/10 80/161/10 66/127/10
f 80/161/10 79/162/10 66/127/10
f 59/80/8 31/163/8 53/78/8
f 53/78/8 31/163/8 12/164/8
f 12/165/2 60/145/2 53/166/2
f 60/145/2 12/165/2 34/143/2
f 204/65/5 78/67/5 198/167/5
f 198/167/5 78/67/5 57/168/5
f 70/72/6 45/169/6 71/70/6
f 45/169/6 70/72/6 46/170/6
f 69/69/6 72/71/6 41/171/6
f 69/69/6 41/171/6 42/172/6
f 190/173/10 206/160/10 193/174/10
f 206/160/10 190/173/10 200/175/10
f 75/75/7 48/176/7 47/177/7
f 48/176/7 75/75/7 74/74/7
f 76/73/7 44/178/7 73/76/7
f 43/179/7 44/178/7 76/73/7
f 21/180/6 46/170/6 70/72/6
f 70/72/6 66/127/6 21/180/6
f 65/128/6 69/69/6 42/172/6
f 65/128/6 42/172/6 17/181/6
f 72/71/6 63/130/6 41/171/6
f 41/171/6 63/130/6 16/182/6
f 64/129/6 71/70/6 20/183/6
f 45/169/6 20/183/6 71/70/6
f 74/74/7 62/132/7 19/184/7
f 74/74/7 19/184/7 48/176/7
f 44/178/7 15/185/7 61/131/7
f 61/131/7 73/76/7 44/178/7
f 76/73/7 67/134/7 43/179/7
f 18/186/7 43/179/7 67/134/7
f 68/133/7 75/75/7 22/187/7
f 22/187/7 75/75/7 47/177/7
f 20/183/5 57/168/5 78/67/5
f 78/67/5 64/129/5 20/183/5
f 55/188/5 16/182/5 63/130/5
f 63/130/5 77/66/5 55/188/5
f 15/185/5 197/189/5 61/131/5
f 61/131/5 197/189/5 203/68/5
f 22/187/10 201/190/10 205/159/10
f 205/159/10 68/133/10 22/187/10
f 80/161/10 65/128/10 56/191/10
f 17/181/10 56/191/10 65/128/10
f 58/192/10 21/180/10 79/162/10
f 79/162/10 21/180/10 66/127/10
f 208/15/4 55/188/4 197/189/4
f 55/188/4 208/15/4 96/14/4
f 181/20/1 29/113/1 93/17/1
f 29/113/1 181/20/1 174/114/1
f 172/193/1 94/18/1 24/194/1
f 94/18/1 172/193/1 182/19/1
f 151/195/3 152/196/3 165/25/3
f 165/25/3 152/196/3 166/26/3
f 154/116/3 153/115/3 167/28/3
f 168/27/3 167/28/3 153/115/3
f 145/49/4 307/52/4 136/121/4
f 136/121/4 307/52/4 302/122/4
f 134/197/4 301/198/4 146/50/4
f 146/50/4 301/198/4 308/51/4
f 111/199/4 112/200/4 125/55/4
f 125/55/4 112/200/4 126/53/4
f 128/54/4 127/56/4 113/124/4
f 113/124/4 127/56/4 114/123/4
f 81/92/1 6/138/1 92/94/1
f 27/137/1 92/94/1 6/138/1
f 91/93/1 1/201/1 82/91/1
f 1/201/1 91/93/1 23/202/1
f 82/91/1 1/201/1 24/194/1
f 24/194/1 94/18/1 82/91/1
f 81/92/1 93/17/1 6/138/1
f 6/138/1 93/17/1 29/113/1
f 16/182/4 55/188/4 96/14/4
f 96/14/4 88/148/4 16/182/4
f 54/203/4 87/147/4 95/16/4
f 87/147/4 54/203/4 14/204/4
f 13/205/4 207/13/4 90/149/4
f 207/13/4 13/205/4 196/206/4
f 107/22/1 175/112/1 183/23/1
f 175/112/1 107/22/1 30/111/1
f 156/117/3 155/118/3 170/32/3
f 170/32/3 155/118/3 171/30/3
f 116/125/4 115/126/4 129/57/4
f 129/57/4 115/126/4 130/60/4
f 299/120/4 148/61/4 132/119/4
f 148/61/4 299/120/4 310/64/4
f 28/136/1 98/95/1 105/97/1
f 98/95/1 28/136/1 5/135/1
f 98/95/1 5/135/1 30/111/1
f 98/95/1 30/111/1 107/22/1
f 18/186/4 209/153/4 102/154/4
f 209/153/4 18/186/4 200/175/4
f 56/191/4 103/156/4 108/158/4
f 103/156/4 56/191/4 17/181/4
f 26/207/2 184/35/2 173/208/2
f 184/35/2 26/207/2 119/33/2
f 185/34/2 120/36/2 33/139/2
f 185/34/2 33/139/2 176/141/2
f 122/46/4 43/179/4 123/47/4
f 43/179/4 122/46/4 44/178/4
f 39/209/11 40/210/11 121/48/4
f 39/209/11 121/48/4 124/45/4
f 127/56/4 126/53/4 90/149/4
f 127/56/4 90/149/4 89/150/4
f 85/211/11 86/212/11 125/55/4
f 85/211/11 125/55/4 128/54/4
f 102/154/4 334/152/4 130/60/4
f 334/152/4 339/58/4 130/60/4
f 100/213/11 340/59/4 333/214/11
f 340/59/4 100/213/11 129/57/4
f 25/215/8 118/103/8 3/216/8
f 3/216/8 118/103/8 109/105/8
f 32/217/8 110/106/8 117/104/8
f 110/106/8 32/217/8 11/218/8
f 110/108/2 11/219/2 120/36/2
f 120/36/2 11/219/2 33/139/2
f 3/220/2 109/107/2 26/207/2
f 26/207/2 109/107/2 119/33/2
f 122/46/4 114/123/4 15/185/4
f 122/46/4 15/185/4 44/178/4
f 40/210/11 10/221/11 113/124/4
f 40/210/11 113/124/4 121/48/4
f 9/222/11 39/209/11 124/45/4
f 9/222/11 124/45/4 116/125/4
f 43/179/4 115/126/4 123/47/4
f 115/126/4 43/179/4 18/186/4
f 112/200/4 13/205/4 126/53/4
f 126/53/4 13/205/4 90/149/4
f 86/212/11 4/223/12 111/199/4
f 86/212/11 111/199/4 125/55/4
f 10/221/11 85/211/11 128/54/4
f 10/221/11 128/54/4 113/124/4
f 127/56/4 89/150/4 114/123/4
f 114/123/4 89/150/4 15/185/4
f 115/126/4 18/186/4 130/60/4
f 130/60/4 18/186/4 102/154/4
f 100/213/11 9/222/11 116/125/4
f 100/213/11 116/125/4 129/57/4
f 177/144/2 34/143/2 140/37/2
f 177/144/2 140/37/2 186/39/2
f 42/172/4 41/171/4 143/43/4
f 42/172/4 143/43/4 142/42/4
f 88/148/4 87/147/4 146/50/4
f 88/148/4 146/50/4 145/49/4
f 335/157/4 148/61/4 341/63/4
f 148/61/4 335/157/4 103/156/4
f 31/163/8 139/99/8 12/164/8
f 12/164/8 139/99/8 133/101/8
f 12/165/2 133/110/2 34/143/2
f 34/143/2 133/110/2 140/37/2
f 17/181/4 42/172/4 142/42/4
f 17/181/4 142/42/4 132/119/4
f 41/171/4 16/182/4 136/121/4
f 41/171/4 136/121/4 143/43/4
f 16/182/4 88/148/4 145/49/4
f 16/182/4 145/49/4 136/121/4
f 87/147/4 14/204/4 134/197/4
f 87/147/4 134/197/4 146/50/4
f 103/156/4 17/181/4 132/119/4
f 103/156/4 132/119/4 148/61/4
f 172/224/2 24/225/2 159/7/2
f 172/224/2 159/7/2 188/6/2
f 189/8/2 160/5/2 26/207/2
f 189/8/2 26/207/2 173/208/2
f 163/12/3 40/210/11 39/209/11
f 40/210/11 163/12/3 162/11/3
f 37/226/3 38/227/3 161/10/3
f 37/226/3 161/10/3 164/9/3
f 167/28/3 166/26/3 86/212/11
f 167/28/3 86/212/11 85/211/11
f 83/228/3 84/229/3 165/25/3
f 83/228/3 165/25/3 168/27/3
f 332/230/3 170/32/3 343/29/3
f 170/32/3 332/230/3 99/231/3
f 344/31/3 171/30/3 100/213/11
f 344/31/3 100/213/11 333/214/11
f 23/232/8 158/85/8 1/233/8
f 1/233/8 158/85/8 149/87/8
f 25/215/8 150/88/8 157/86/8
f 150/88/8 25/215/8 3/216/8
f 150/90/9 26/207/2 160/5/2
f 26/207/2 150/90/9 3/220/2
f 1/234/9 159/7/2 24/225/2
f 159/7/2 1/234/9 149/89/2
f 162/11/3 154/116/3 10/221/11
f 162/11/3 10/221/11 40/210/11
f 38/227/3 8/235/3 153/115/3
f 38/227/3 153/115/3 161/10/3
f 7/236/3 37/226/3 164/9/3
f 7/236/3 164/9/3 156/117/3
f 155/118/3 163/12/3 39/209/11
f 155/118/3 39/209/11 9/222/11
f 152/196/3 4/223/12 166/26/3
f 166/26/3 4/223/12 86/212/11
f 84/229/3 2/237/3 151/195/3
f 151/195/3 165/25/3 84/229/3
f 8/235/3 83/228/3 168/27/3
f 168/27/3 153/115/3 8/235/3
f 167/28/3 85/211/11 154/116/3
f 154/116/3 85/211/11 10/221/11
f 155/118/3 9/222/11 171/30/3
f 171/30/3 9/222/11 100/213/11
f 99/231/3 7/236/3 156/117/3
f 99/231/3 156/117/3 170/32/3
f 211/140/2 54/203/2 196/206/2
f 54/203/2 211/140/2 180/146/2
f 178/4/1 38/238/1 37/239/1
f 38/238/1 178/4/1 179/3/1
f 188/6/2 189/8/2 151/195/2
f 151/195/2 189/8/2 152/196/2
f 181/20/1 182/19/1 84/240/1
f 181/20/1 84/240/1 83/241/1
f 345/24/1 183/23/1 99/242/1
f 345/24/1 99/242/1 332/243/1
f 112/200/2 111/199/2 184/35/2
f 184/35/2 185/34/2 112/200/2
f 186/39/2 311/38/2 134/197/2
f 134/197/2 311/38/2 301/198/2
f 175/112/1 178/4/1 37/239/1
f 175/112/1 37/239/1 7/244/1
f 179/3/1 174/114/1 8/245/1
f 179/3/1 8/245/1 38/238/1
f 14/204/2 54/203/2 180/146/2
f 180/146/2 177/144/2 14/204/2
f 174/114/1 181/20/1 83/241/1
f 174/114/1 83/241/1 8/245/1
f 182/19/1 172/193/1 2/246/1
f 182/19/1 2/246/1 84/240/1
f 183/23/1 175/112/1 7/244/1
f 183/23/1 7/244/1 99/242/1
f 111/199/2 4/223/2 173/208/2
f 173/208/2 184/35/2 111/199/2
f 13/205/2 112/200/2 185/34/2
f 185/34/2 176/141/2 13/205/2
f 134/197/2 14/204/2 177/144/2
f 177/144/2 186/39/2 134/197/2
f 172/224/2 188/6/2 2/237/2
f 2/237/2 188/6/2 151/195/2
f 189/8/2 173/208/2 152/196/2
f 152/196/2 173/208/2 4/223/2
f 199/142/2 180/146/2 211/140/2
f 180/146/2 199/142/2 60/145/2
f 194/247/4 108/158/4 346/248/4
f 346/248/4 108/158/4 338/155/4
f 209/153/4 194/247/4 347/151/4
f 347/151/4 194/247/4 346/248/4
f 192/249/10 79/162/10 193/174/10
f 80/161/10 193/174/10 79/162/10
f 193/174/10 206/160/10 205/159/10
f 193/174/10 205/159/10 192/249/10
f 195/250/9 53/166/2 199/142/2
f 199/142/2 53/166/2 60/145/2
f 197/189/5 55/188/5 203/68/5
f 203/68/5 55/188/5 77/66/5
f 191/251/13 58/192/10 192/249/10
f 79/162/10 192/249/10 58/192/10
f 192/249/10 201/190/10 191/251/13
f 201/190/10 192/249/10 205/159/10
f 193/174/10 80/161/10 190/173/10
f 56/191/10 190/173/10 80/161/10
f 196/206/4 54/203/4 207/13/4
f 207/13/4 54/203/4 95/16/4
f 190/173/4 56/191/4 194/247/4
f 194/247/4 56/191/4 108/158/4
f 200/175/4 190/173/4 209/153/4
f 209/153/4 190/173/4 194/247/4
f 32/217/8 202/77/8 11/218/8
f 11/218/8 202/77/8 195/79/8
f 11/219/2 195/250/9 33/139/2
f 33/139/2 195/250/9 199/142/2
f 62/132/5 204/65/5 19/184/5
f 19/184/5 204/65/5 198/167/5
f 200/175/10 18/186/10 67/134/10
f 67/134/10 206/160/10 200/175/10
f 15/185/4 89/150/4 208/15/4
f 15/185/4 208/15/4 197/189/4
f 176/141/2 211/140/2 13/205/2
f 13/205/2 211/140/2 196/206/2
f 59/80/8 202/77/8 383/252/8
f 383/252/8 388/253/8 59/80/8
f 378/254/1 49/83/1 50/84/1
f 49/83/1 378/254/1 387/255/1
f 157/86/8 158/85/8 382/256/8
f 382/256/8 393/257/8 157/86/8
f 379/258/1 389/259/1 91/93/1
f 379/258/1 91/93/1 92/94/1
f 420/260/1 390/261/1 105/97/1
f 420/260/1 105/97/1 336/98/1
f 381/262/8 416/263/8 139/99/8
f 139/99/8 416/263/8 303/100/8
f 117/104/8 118/103/8 380/264/8
f 380/264/8 391/265/8 117/104/8
f 387/255/1 385/266/1 27/137/1
f 387/255/1 27/137/1 49/83/1
f 376/267/1 378/254/1 50/84/1
f 376/267/1 50/84/1 28/136/1
f 31/163/8 59/80/8 388/253/8
f 388/253/8 386/268/8 31/163/8
f 389/259/1 384/269/1 23/202/1
f 389/259/1 23/202/1 91/93/1
f 385/266/1 379/258/1 92/94/1
f 385/266/1 92/94/1 27/137/1
f 390/261/1 376/267/1 28/136/1
f 390/261/1 28/136/1 105/97/1
f 32/217/8 117/104/8 391/265/8
f 391/265/8 377/270/8 32/217/8
f 118/103/8 25/215/8 375/271/8
f 375/271/8 380/264/8 118/103/8
f 139/99/8 31/163/8 386/268/8
f 386/268/8 381/262/8 139/99/8
f 25/215/8 157/86/8 393/257/8
f 393/257/8 375/271/8 25/215/8
f 158/85/8 23/232/8 384/272/8
f 384/272/8 382/256/8 158/85/8
f 202/77/8 32/217/8 377/270/8
f 377/270/8 383/252/8 202/77/8
f 248/273/14 407/274/15 402/275/16
f 407/274/15 248/273/14 218/276/17
f 406/277/18 397/278/19 242/279/20
f 406/277/18 242/279/20 217/280/21
f 246/281/22 411/282/16 401/283/23
f 411/282/16 246/281/22 221/284/24
f 408/285/25 398/286/18 243/287/26
f 408/285/25 243/287/26 247/288/27
f 349/289/28 219/290/20 421/291/29
f 409/292/19 421/291/29 219/290/20
f 245/293/30 417/294/31 400/295/15
f 417/294/31 245/293/30 313/296/32
f 244/297/24 410/298/16 399/299/16
f 410/298/16 244/297/24 220/300/24
f 217/280/21 404/301/33 406/277/18
f 404/301/33 217/280/21 215/302/34
f 397/278/19 395/303/19 213/304/20
f 397/278/19 213/304/20 242/279/20
f 218/276/17 405/305/15 407/274/15
f 405/305/15 218/276/17 216/306/35
f 403/307/36 408/285/25 214/308/37
f 214/308/37 408/285/25 247/288/27
f 398/286/18 404/301/33 215/302/34
f 398/286/18 215/302/34 243/287/26
f 395/303/19 409/292/19 219/290/20
f 395/303/19 219/290/20 213/304/20
f 220/300/24 396/309/16 410/298/16
f 396/309/16 220/300/24 241/310/24
f 212/311/24 399/299/16 394/312/16
f 399/299/16 212/311/24 244/297/24
f 216/306/35 400/295/15 405/305/15
f 400/295/15 216/306/35 245/293/30
f 221/284/24 394/312/16 411/282/16
f 394/312/16 221/284/24 212/311/24
f 401/283/23 403/307/36 214/308/37
f 401/283/23 214/308/37 246/281/22
f 241/310/24 402/275/16 396/309/16
f 402/275/16 241/310/24 248/273/14
f 356/313/38 364/314/39 274/315/40
f 356/313/38 274/315/40 106/316/41
f 169/317/42 363/318/43 273/319/44
f 363/318/43 169/317/42 362/320/45
f 271/321/46 131/322/47 359/323/48
f 359/323/48 358/324/46 271/321/46
f 360/325/46 372/326/49 147/327/46
f 147/327/46 372/326/49 309/328/46
f 97/329/50 355/330/51 350/331/52
f 355/330/51 97/329/50 269/332/53
f 350/331/52 356/313/38 106/316/41
f 350/331/52 106/316/41 97/329/50
f 366/333/54 101/334/46 353/335/54
f 210/336/55 101/334/46 366/333/54
f 104/337/46 270/338/46 357/339/46
f 357/339/46 354/340/46 104/337/46
f 101/334/46 271/321/46 358/324/46
f 358/324/46 353/335/54 101/334/46
f 352/341/56 359/323/48 268/342/57
f 268/342/57 359/323/48 131/322/47
f 147/327/46 104/337/46 354/340/46
f 354/340/46 360/325/46 147/327/46
f 351/343/58 362/344/45 267/345/59
f 267/346/59 362/320/45 169/317/42
f 268/342/57 273/319/44 363/318/43
f 363/318/43 352/341/56 268/342/57
f 274/315/40 364/314/39 267/346/60
f 364/347/39 351/348/61 267/349/60
f 270/338/46 275/350/46 365/351/46
f 365/351/46 357/339/46 270/338/46
f 366/333/54 365/351/46 210/336/55
f 210/336/55 365/351/46 275/350/46
f 355/330/51 643/352/62 422/353/63
f 643/352/62 355/330/51 269/332/53
f 643/352/62 368/354/64 423/355/65
f 368/356/64 643/357/62 641/358/66
f 327/359/67 294/360/68 187/361/69
f 294/360/68 327/359/67 320/362/70
f 322/363/71 141/364/71 321/365/71
f 141/364/71 322/363/71 295/366/71
f 323/367/71 324/368/72 296/369/73
f 323/367/71 296/369/73 144/370/71
f 373/371/74 326/372/75 342/373/76
f 342/373/76 326/372/75 297/374/77
f 316/375/78 319/376/79 293/377/80
f 293/377/80 319/376/79 138/378/81
f 320/362/70 293/377/82 294/360/68
f 293/377/82 320/362/70 316/375/83
f 315/379/71 321/365/71 141/364/71
f 315/379/71 141/364/71 292/380/71
f 322/363/71 318/381/71 137/382/71
f 322/363/71 137/382/71 295/366/71
f 144/370/71 318/381/71 323/367/71
f 318/381/71 144/370/71 137/382/71
f 324/368/72 317/383/84 135/384/85
f 324/368/72 135/384/85 296/369/73
f 326/372/75 315/379/71 292/380/71
f 326/372/75 292/380/71 297/374/77
f 317/383/86 327/359/67 135/384/87
f 187/361/69 135/384/87 327/359/67
f 392/385/88 138/378/81 319/376/79
f 319/376/79 418/386/89 392/385/88
f 329/387/90 642/388/91 419/389/92
f 642/390/91 329/391/90 640/392/93
f 272/393/94 325/394/95 361/395/96
f 325/394/95 374/396/97 361/395/96
f 281/397/2 288/398/2 304/40/2
f 311/38/2 304/40/2 288/398/2
f 305/44/4 306/41/4 283/399/4
f 305/44/4 283/399/4 282/400/4
f 285/401/4 284/402/4 308/51/4
f 307/52/4 308/51/4 284/402/4
f 310/64/4 369/403/4 371/62/4
f 369/403/4 310/64/4 287/404/4
f 280/405/8 277/406/8 303/100/8
f 300/102/8 303/100/8 277/406/8
f 277/407/2 281/397/2 300/109/2
f 304/40/2 300/109/2 281/397/2
f 282/400/4 276/408/4 305/44/4
f 299/120/4 305/44/4 276/408/4
f 279/409/4 283/399/4 302/122/4
f 306/41/4 302/122/4 283/399/4
f 284/402/4 279/409/4 307/52/4
f 302/122/4 307/52/4 279/409/4
f 278/410/4 285/401/4 301/198/4
f 308/51/4 301/198/4 285/401/4
f 276/408/4 287/404/4 299/120/4
f 310/64/4 299/120/4 287/404/4
f 288/398/2 278/410/2 311/38/2
f 301/198/2 311/38/2 278/410/2
f 414/411/98 303/100/8 416/263/8
f 303/100/8 414/411/98 280/405/8
f 313/296/32 415/412/99 417/294/31
f 415/412/99 313/296/32 290/413/100
f 370/414/49 309/328/46 372/326/49
f 309/328/46 370/414/49 286/415/46
f 288/416/101 281/417/102 327/359/67
f 320/362/70 327/359/67 281/417/102
f 322/363/71 321/365/71 283/418/71
f 282/419/71 283/418/71 321/365/71
f 285/420/103 323/367/71 284/421/71
f 323/367/71 285/420/103 324/368/72
f 369/422/104 287/423/105 373/371/74
f 373/371/74 287/423/105 326/372/75
f 277/406/106 280/405/107 316/375/78
f 316/375/78 280/405/107 319/376/79
f 281/417/102 316/375/83 320/362/70
f 316/375/83 281/417/102 277/406/108
f 282/419/71 315/379/71 276/424/71
f 315/379/71 282/419/71 321/365/71
f 279/425/71 322/363/71 283/418/71
f 322/363/71 279/425/71 318/381/71
f 284/421/71 318/381/71 279/425/71
f 318/381/71 284/421/71 323/367/71
f 285/420/103 317/383/84 324/368/72
f 317/383/84 285/420/103 278/426/109
f 276/424/71 326/372/75 287/423/105
f 326/372/75 276/424/71 315/379/71
f 278/426/110 288/416/101 317/383/86
f 327/359/67 317/383/86 288/416/101
f 280/405/107 418/386/89 319/376/79
f 280/405/107 414/411/111 418/386/89
f 415/412/112 290/413/113 419/389/92
f 419/389/92 290/413/113 329/387/90
f 286/415/114 374/396/97 325/394/95
f 374/396/97 286/415/114 370/414/115
f 337/21/1 345/24/1 255/427/1
f 345/24/1 262/428/1 255/427/1
f 343/29/3 344/31/3 260/429/3
f 260/429/3 344/31/3 261/430/3
f 340/59/4 257/431/4 258/432/4
f 257/431/4 340/59/4 339/58/4
f 341/63/4 371/62/4 259/433/4
f 259/433/4 371/62/4 314/434/4
f 336/98/1 249/435/1 254/436/1
f 249/435/1 336/98/1 331/96/1
f 331/96/1 337/21/1 249/435/1
f 249/435/1 337/21/1 255/427/1
f 334/152/4 347/151/4 252/437/4
f 264/438/4 252/437/4 347/151/4
f 338/155/4 335/157/4 256/439/4
f 256/439/4 335/157/4 253/440/4
f 339/58/4 252/437/4 257/431/4
f 252/437/4 339/58/4 334/152/4
f 333/214/11 340/59/4 251/441/116
f 251/441/116 340/59/4 258/432/4
f 335/157/4 341/63/4 253/440/4
f 253/440/4 341/63/4 259/433/4
f 332/230/3 343/29/3 250/442/3
f 250/442/3 343/29/3 260/429/3
f 344/31/3 333/214/11 261/430/3
f 261/430/3 333/214/11 251/441/116
f 345/24/1 332/243/1 262/428/1
f 262/428/1 332/243/1 250/443/1
f 346/248/4 338/155/4 263/444/4
f 263/444/4 338/155/4 256/439/4
f 347/151/4 346/248/4 264/438/4
f 264/438/4 346/248/4 263/444/4
f 412/445/117 336/98/1 254/436/1
f 336/98/1 412/445/117 420/260/1
f 413/446/118 349/289/28 421/291/29
f 349/289/28 413/446/118 266/447/119
f 262/448/120 356/313/38 255/449/121
f 356/313/38 262/448/120 364/314/39
f 260/450/122 261/451/123 362/320/45
f 362/320/45 261/451/123 363/318/43
f 258/452/124 358/324/46 359/323/48
f 358/324/46 258/452/124 257/453/46
f 314/454/49 360/325/46 259/455/46
f 360/325/46 314/454/49 372/326/49
f 249/456/52 355/330/51 254/457/125
f 355/330/51 249/456/52 350/331/52
f 255/449/121 350/331/52 249/456/52
f 350/331/52 255/449/121 356/313/38
f 264/458/54 353/335/54 252/459/54
f 366/333/54 353/335/54 264/458/54
f 256/460/49 253/461/46 357/339/46
f 357/339/46 253/461/46 354/340/46
f 257/453/46 353/335/54 358/324/46
f 353/335/54 257/453/46 252/459/54
f 251/462/126 258/452/124 352/341/56
f 352/341/56 258/452/124 359/323/48
f 253/461/46 259/455/46 354/340/46
f 354/340/46 259/455/46 360/325/46
f 250/442/127 260/429/122 351/463/58
f 351/464/58 260/450/122 362/320/45
f 261/451/123 352/341/56 363/318/43
f 352/341/56 261/451/123 251/462/126
f 262/448/120 351/464/61 364/314/39
f 351/465/61 262/428/120 250/443/128
f 263/466/46 256/460/49 365/351/46
f 365/351/46 256/460/49 357/339/46
f 264/458/54 263/466/46 366/333/54
f 366/333/54 263/466/46 365/351/46
f 412/467/129 254/457/125 422/353/63
f 422/353/63 254/457/125 355/330/51
f 413/446/130 423/468/65 266/447/131
f 423/468/65 368/469/64 266/447/131
f 373/371/74 298/470/132 330/471/133
f 298/470/132 373/371/74 342/373/76
f 361/395/96 374/396/97 298/472/134
f 374/396/97 330/473/135 298/472/134
f 371/62/4 291/474/4 314/434/4
f 291/474/4 371/62/4 369/403/4
f 314/454/49 291/475/54 372/326/49
f 372/326/49 291/475/54 370/414/49
f 369/422/104 330/471/133 291/476/136
f 330/471/133 369/422/104 373/371/74
f 330/473/135 374/396/97 370/414/115
f 370/414/115 291/475/137 330/473/135
f 230/477/8 388/253/8 383/252/8
f 388/253/8 230/477/8 235/478/8
f 387/255/1 225/479/1 234/480/1
f 225/479/1 387/255/1 378/254/1
f 229/481/8 240/482/8 382/256/8
f 382/256/8 240/482/8 393/257/8
f 226/483/1 389/259/1 379/258/1
f 389/259/1 226/483/1 236/484/1
f 348/485/1 390/261/1 420/260/1
f 390/261/1 348/485/1 237/486/1
f 228/487/8 312/488/138 381/262/8
f 381/262/8 312/488/138 416/263/8
f 227/489/8 238/490/8 380/264/8
f 380/264/8 238/490/8 391/265/8
f 234/480/1 385/266/1 387/255/1
f 385/266/1 234/480/1 232/491/1
f 225/479/1 376/267/1 223/492/1
f 376/267/1 225/479/1 378/254/1
f 235/478/8 233/493/8 388/253/8
f 388/253/8 233/493/8 386/268/8
f 231/494/1 389/259/1 236/484/1
f 389/259/1 231/494/1 384/269/1
f 226/483/1 385/266/1 232/491/1
f 385/266/1 226/483/1 379/258/1
f 223/492/1 390/261/1 237/486/1
f 390/261/1 223/492/1 376/267/1
f 238/490/8 224/495/8 391/265/8
f 391/265/8 224/495/8 377/270/8
f 222/496/8 227/489/8 375/271/8
f 375/271/8 227/489/8 380/264/8
f 233/493/8 228/487/8 386/268/8
f 386/268/8 228/487/8 381/262/8
f 240/482/8 222/496/8 393/257/8
f 393/257/8 222/496/8 375/271/8
f 231/497/8 229/481/8 384/272/8
f 384/272/8 229/481/8 382/256/8
f 224/495/8 230/477/8 377/270/8
f 377/270/8 230/477/8 383/252/8
f 402/275/139 407/274/140 230/498/139
f 230/498/139 407/274/140 235/499/140
f 397/278/141 406/277/141 225/500/141
f 234/501/141 225/500/141 406/277/141
f 401/283/142 411/282/140 229/502/142
f 229/502/142 411/282/140 240/503/140
f 226/504/141 408/285/143 236/505/143
f 408/285/143 226/504/141 398/286/141
f 348/506/141 409/292/141 237/507/141
f 409/292/141 348/506/141 421/291/141
f 400/295/140 417/294/139 228/508/140
f 228/508/140 417/294/139 312/509/139
f 399/299/140 410/298/140 227/510/140
f 227/510/140 410/298/140 238/511/140
f 234/501/141 404/301/141 232/512/141
f 404/301/141 234/501/141 406/277/141
f 223/513/141 397/278/141 225/500/141
f 397/278/141 223/513/141 395/303/141
f 407/274/140 405/305/140 235/499/140
f 235/499/140 405/305/140 233/514/140
f 231/494/144 236/484/143 403/515/144
f 408/285/143 403/307/144 236/505/143
f 232/512/141 398/286/141 226/504/141
f 398/286/141 232/512/141 404/301/141
f 237/507/141 395/303/141 223/513/141
f 395/303/141 237/507/141 409/292/141
f 410/298/140 396/309/145 238/511/140
f 238/511/140 396/309/145 224/516/139
f 394/312/140 399/299/140 222/517/140
f 222/517/140 399/299/140 227/510/140
f 405/305/140 400/295/140 233/514/140
f 233/514/140 400/295/140 228/508/140
f 411/282/140 394/312/140 240/503/140
f 240/503/140 394/312/140 222/517/140
f 403/307/146 229/502/142 231/234/147
f 229/502/142 403/307/146 401/283/142
f 396/309/145 402/275/139 224/516/139
f 224/516/139 402/275/139 230/498/139
f 643/352/62 367/518/148 422/353/63
f 423/355/65 367/518/148 643/352/62
f 328/519/149 239/520/150 418/386/89
f 392/385/88 418/386/89 239/520/150
f 419/521/92 239/520/151 328/519/152
f 239/520/151 419/521/92 642/390/91
f 312/488/138 289/522/8 416/263/8
f 416/263/8 289/522/8 414/411/98
f 417/294/139 289/523/139 312/509/139
f 289/523/139 417/294/139 415/412/153
f 418/386/89 414/411/111 328/519/149
f 414/411/111 289/522/154 328/519/149
f 415/524/112 328/519/152 289/522/155
f 328/519/152 415/524/112 419/521/92
f 265/525/117 420/260/1 412/445/117
f 420/260/1 265/525/117 348/485/1
f 265/526/141 421/291/141 348/506/141
f 421/291/141 265/526/141 413/446/141
f 412/467/129 367/518/148 265/527/156
f 367/518/148 412/467/129 422/353/63
f 367/518/148 423/355/65 413/528/130
f 413/528/130 265/527/156 367/518/148
f 458/529/3 459/530/3 430/531/3
f 430/531/3 428/532/3 458/529/3
f 462/533/157 424/534/157 457/535/157
f 424/534/157 462/533/157 453/536/157
f 450/537/158 427/538/158 451/539/158
f 427/538/158 450/537/158 425/540/158
f 468/541/159 451/542/159 427/543/159
f 451/542/159 468/541/159 471/544/159
f 426/545/8 455/546/8 454/547/8
f 455/546/8 426/545/8 440/548/8
f 469/549/157 466/550/157 429/551/157
f 429/551/157 466/550/157 432/552/157
f 430/553/159 461/554/159 445/555/159
f 461/554/159 430/553/159 459/556/159
f 444/557/8 443/558/8 435/559/8
f 443/558/8 444/557/8 442/560/8
f 429/561/3 472/562/3 431/563/3
f 472/562/3 429/561/3 473/564/3
f 432/552/157 473/565/157 429/551/157
f 473/565/157 432/552/157 474/566/157
f 475/567/160 474/568/160 434/569/160
f 434/569/160 474/568/160 432/570/160
f 431/571/159 475/572/159 434/573/159
f 475/572/159 431/571/159 472/574/159
f 481/575/161 483/576/161 482/577/162
f 481/575/161 482/577/162 480/578/161
f 480/578/163 484/579/163 485/580/163
f 485/580/163 481/575/163 480/578/163
f 478/581/164 488/582/165 489/583/164
f 488/584/165 478/585/164 479/586/164
f 484/579/163 490/587/163 491/588/163
f 491/588/163 485/580/163 484/579/163
f 487/589/165 482/577/164 486/590/164
f 483/576/165 486/590/164 482/577/164
f 446/591/3 447/592/3 505/593/3
f 505/593/3 447/592/3 504/594/3
f 448/595/157 504/596/157 447/597/157
f 504/596/157 448/595/157 506/598/157
f 507/599/160 506/600/160 449/601/160
f 449/601/160 506/600/160 448/602/160
f 446/603/159 507/604/159 449/605/159
f 507/604/159 446/603/159 505/606/159
f 432/552/157 466/550/157 467/607/157
f 432/552/157 467/607/157 450/608/157
f 451/539/158 432/609/158 450/537/158
f 432/609/158 451/539/158 434/610/158
f 452/611/159 445/555/159 463/612/159
f 463/612/159 445/555/159 461/554/159
f 444/557/8 435/559/8 454/547/8
f 454/547/8 455/546/8 444/557/8
f 489/583/164 487/589/165 486/590/164
f 487/589/165 489/583/164 488/582/165
f 477/613/163 490/609/163 476/614/163
f 490/587/163 477/615/163 491/588/163
f 465/616/3 459/530/3 469/617/3
f 459/530/3 458/529/3 469/617/3
f 467/607/157 462/533/157 464/618/157
f 462/533/157 457/535/157 464/618/157
f 441/619/159 463/612/159 456/620/159
f 463/612/159 441/619/159 452/611/159
f 458/621/157 433/622/157 460/623/157
f 433/622/157 458/621/157 428/624/157
f 470/625/159 461/554/159 465/626/159
f 461/554/159 459/556/159 465/626/159
f 433/622/157 462/533/157 460/623/157
f 462/533/157 433/622/157 453/536/157
f 461/554/159 470/625/159 463/612/159
f 471/544/159 463/612/159 470/625/159
f 456/620/159 471/544/159 468/541/159
f 471/544/159 456/620/159 463/612/159
f 469/549/157 460/623/157 466/550/157
f 460/623/157 469/549/157 458/621/157
f 460/623/157 467/607/157 466/550/157
f 467/607/157 460/623/157 462/533/157
f 429/561/3 431/563/3 465/616/3
f 465/616/3 469/617/3 429/561/3
f 425/627/157 450/608/157 467/607/157
f 467/607/157 464/618/157 425/627/157
f 431/571/159 434/573/159 470/625/159
f 470/625/159 465/626/159 431/571/159
f 451/542/159 471/544/159 434/573/159
f 471/544/159 470/625/159 434/573/159
f 501/628/3 500/629/3 472/562/3
f 472/562/3 473/564/3 501/628/3
f 502/630/157 501/631/157 473/565/157
f 473/565/157 474/566/157 502/630/157
f 503/632/160 474/568/160 475/567/160
f 474/568/160 503/632/160 502/633/160
f 500/634/159 503/635/159 475/572/159
f 475/572/159 472/574/159 500/634/159
f 480/636/161 482/637/162 443/638/162
f 480/578/161 443/558/162 442/560/161
f 428/532/162 430/531/161 483/639/161
f 428/532/162 483/639/161 481/640/161
f 442/560/163 444/557/166 484/579/163
f 484/579/163 480/578/163 442/560/163
f 433/641/163 481/575/163 485/580/163
f 433/641/163 428/642/166 481/575/163
f 426/545/164 488/582/165 479/643/164
f 488/582/165 426/545/165 454/547/165
f 441/619/164 489/644/164 452/611/164
f 489/644/164 441/619/164 478/645/164
f 455/546/163 484/579/163 444/557/166
f 484/579/163 455/546/163 490/587/163
f 453/536/163 485/646/163 491/647/163
f 485/580/163 453/648/163 433/641/163
f 435/559/165 443/558/164 487/589/165
f 482/577/164 487/589/165 443/558/164
f 486/590/164 483/576/165 445/649/164
f 430/650/165 445/649/164 483/576/165
f 452/651/164 486/590/164 445/649/164
f 486/652/164 452/611/164 489/644/164
f 488/582/165 435/559/165 487/589/165
f 435/559/165 488/582/165 454/547/165
f 477/653/163 453/536/163 491/647/163
f 453/536/163 477/653/163 424/534/163
f 440/548/166 490/587/163 455/546/163
f 490/587/163 440/548/166 476/654/163
f 492/655/158 437/656/158 493/657/158
f 437/656/158 492/655/158 436/658/158
f 438/659/158 493/657/158 437/656/158
f 493/657/158 438/659/158 494/660/158
f 439/661/158 494/660/158 438/659/158
f 494/660/158 439/661/158 495/662/158
f 436/658/158 495/662/158 439/661/158
f 495/662/158 436/658/158 492/655/158
f 447/597/8 446/663/8 497/664/8
f 447/597/8 497/664/8 496/665/8
f 446/663/8 449/666/8 498/667/8
f 446/663/8 498/667/8 497/664/8
f 449/666/8 448/595/8 499/668/8
f 449/666/8 499/668/8 498/667/8
f 448/595/8 496/665/8 499/668/8
f 448/595/8 447/597/8 496/665/8
f 437/669/3 436/670/3 500/629/3
f 500/629/3 501/628/3 437/669/3
f 438/671/157 437/672/157 501/631/157
f 501/631/157 502/630/157 438/671/157
f 439/673/160 502/633/160 503/632/160
f 502/633/160 439/673/160 438/674/160
f 436/672/159 439/671/159 503/635/159
f 503/635/159 500/634/159 436/672/159
f 597/675/3 504/594/3 596/676/3
f 504/594/3 597/675/3 505/593/3
f 598/677/157 596/678/157 504/596/157
f 504/596/157 506/598/157 598/677/157
f 599/679/160 506/600/160 507/599/160
f 506/600/160 599/679/160 598/680/160
f 597/681/159 599/682/159 507/604/159
f 507/604/159 505/606/159 597/681/159
f 547/683/3 546/684/3 514/685/3
f 514/685/3 546/684/3 512/686/3
f 550/687/157 545/688/157 541/689/157
f 541/689/157 545/688/157 508/690/157
f 538/691/8 511/538/8 509/692/8
f 511/538/8 538/691/8 539/539/8
f 511/693/159 559/694/159 556/695/159
f 559/694/159 511/693/159 539/696/159
f 510/697/158 542/698/158 524/699/158
f 542/698/158 543/700/158 524/699/158
f 513/701/157 554/702/157 557/703/157
f 554/702/157 513/701/157 516/704/157
f 514/705/159 529/706/159 549/707/159
f 549/707/159 547/708/159 514/705/159
f 527/709/158 526/710/158 519/711/158
f 519/711/158 526/710/158 528/712/158
f 513/713/3 515/714/3 560/715/3
f 560/715/3 561/716/3 513/713/3
f 516/704/157 513/701/157 561/717/157
f 561/717/157 562/718/157 516/704/157
f 518/719/160 562/720/160 563/721/160
f 562/720/160 518/719/160 516/722/160
f 515/723/159 518/724/159 563/725/159
f 563/725/159 560/726/159 515/723/159
f 571/650/167 569/727/167 570/728/167
f 570/728/167 569/727/167 568/729/167
f 568/729/168 573/730/169 572/731/169
f 569/727/169 573/730/169 568/729/168
f 576/732/170 567/733/170 577/734/170
f 566/735/170 577/736/170 567/737/170
f 572/731/169 579/738/169 578/739/169
f 579/738/169 572/731/169 573/730/169
f 574/740/170 571/650/170 570/728/170
f 574/740/170 570/728/170 575/741/170
f 535/742/3 534/743/3 593/744/3
f 593/744/3 592/745/3 535/742/3
f 536/746/157 535/747/157 592/748/157
f 592/748/157 594/749/157 536/746/157
f 537/750/160 594/751/160 595/752/160
f 594/751/160 537/750/160 536/753/160
f 534/754/159 537/755/159 595/756/159
f 595/756/159 593/757/159 534/754/159
f 516/704/157 555/758/157 554/702/157
f 555/758/157 516/704/157 538/759/157
f 516/760/8 539/539/8 538/691/8
f 539/539/8 516/760/8 518/610/8
f 540/761/159 551/762/159 529/706/159
f 551/762/159 549/707/159 529/706/159
f 519/711/158 528/712/158 542/698/158
f 542/698/158 528/712/158 543/700/158
f 577/734/170 575/741/170 576/732/170
f 575/741/170 577/734/170 574/740/170
f 579/738/169 564/763/169 578/739/169
f 564/763/169 579/738/169 565/764/169
f 553/765/3 557/766/3 547/683/3
f 547/683/3 557/766/3 546/684/3
f 555/758/157 545/688/157 550/687/157
f 545/688/157 555/758/157 552/767/157
f 544/768/159 551/762/159 525/769/159
f 525/769/159 551/762/159 540/761/159
f 546/770/157 548/771/157 512/772/157
f 512/772/157 548/771/157 517/773/157
f 558/774/159 553/775/159 549/707/159
f 549/707/159 553/775/159 547/708/159
f 517/773/157 548/771/157 550/687/157
f 517/773/157 550/687/157 541/689/157
f 551/762/159 559/694/159 558/774/159
f 551/762/159 558/774/159 549/707/159
f 544/768/159 556/695/159 559/694/159
f 544/768/159 559/694/159 551/762/159
f 546/770/157 557/703/157 554/702/157
f 546/770/157 554/702/157 548/771/157
f 548/771/157 554/702/157 555/758/157
f 548/771/157 555/758/157 550/687/157
f 515/714/3 513/713/3 553/765/3
f 553/765/3 513/713/3 557/766/3
f 538/759/157 509/776/157 555/758/157
f 555/758/157 509/776/157 552/767/157
f 518/724/159 515/723/159 558/774/159
f 558/774/159 515/723/159 553/775/159
f 539/696/159 518/724/159 559/694/159
f 559/694/159 518/724/159 558/774/159
f 588/777/3 561/716/3 560/715/3
f 561/716/3 588/777/3 589/778/3
f 590/779/157 561/717/157 589/780/157
f 561/717/157 590/779/157 562/718/157
f 563/721/160 562/720/160 591/781/160
f 591/781/160 562/720/160 590/782/160
f 591/783/159 588/784/159 563/725/159
f 563/725/159 588/784/159 560/726/159
f 570/637/167 526/785/167 527/786/167
f 526/787/167 570/728/167 568/729/167
f 514/685/167 569/788/167 571/789/167
f 569/788/167 514/685/167 512/686/167
f 526/790/168 572/791/169 528/792/169
f 568/729/168 572/731/169 526/787/168
f 512/772/169 517/773/169 569/793/169
f 573/794/169 569/793/169 517/773/169
f 542/795/170 567/796/170 576/797/170
f 567/798/170 542/698/170 510/697/171
f 525/769/170 577/736/170 566/735/170
f 577/736/170 525/769/170 540/761/170
f 543/799/169 572/791/169 578/800/169
f 572/791/169 543/799/169 528/792/169
f 579/801/169 573/794/169 541/689/169
f 573/794/169 517/773/169 541/689/169
f 575/802/170 570/803/170 527/804/170
f 575/802/170 527/804/170 519/805/170
f 571/806/170 574/807/170 529/706/170
f 529/706/170 514/705/170 571/806/170
f 540/761/170 574/807/170 577/736/170
f 574/807/170 540/761/170 529/706/170
f 576/797/170 519/805/170 542/795/170
f 519/805/170 576/797/170 575/802/170
f 541/689/169 508/690/169 579/801/169
f 565/808/169 579/801/169 508/690/169
f 543/700/169 564/809/169 524/699/168
f 564/810/169 543/799/169 578/800/169
f 521/811/8 580/812/8 581/813/8
f 580/812/8 521/811/8 520/659/8
f 522/814/8 581/813/8 582/815/8
f 581/813/8 522/814/8 521/811/8
f 523/656/8 522/814/8 583/816/8
f 583/816/8 522/814/8 582/815/8
f 583/816/8 580/812/8 523/656/8
f 520/659/8 523/656/8 580/812/8
f 534/817/158 535/818/158 585/819/158
f 585/819/158 535/818/158 584/820/158
f 537/821/158 534/817/158 586/822/158
f 586/822/158 534/817/158 585/819/158
f 586/822/158 587/823/158 537/821/158
f 536/824/158 537/821/158 587/823/158
f 535/818/158 536/824/158 584/820/158
f 584/820/158 536/824/158 587/823/158
f 520/825/3 521/826/3 588/777/3
f 588/777/3 521/826/3 589/778/3
f 521/827/157 522/641/157 589/780/157
f 589/780/157 522/641/157 590/779/157
f 591/781/160 590/782/160 523/828/160
f 523/828/160 590/782/160 522/814/160
f 523/829/159 520/830/159 591/783/159
f 591/783/159 520/830/159 588/784/159
f 601/831/3 600/832/3 593/744/3
f 593/744/3 600/832/3 592/745/3
f 600/833/157 602/834/157 592/748/157
f 592/748/157 602/834/157 594/749/157
f 595/752/160 594/751/160 603/835/160
f 603/835/160 594/751/160 602/836/160
f 603/837/159 593/757/159 595/756/159
f 593/757/159 603/837/159 601/838/159
f 596/676/3 531/839/3 597/675/3
f 531/839/3 596/676/3 532/840/3
f 598/677/157 532/841/157 596/678/157
f 532/841/157 598/677/157 533/842/157
f 599/679/160 533/843/160 598/680/160
f 533/843/160 599/679/160 530/844/160
f 597/681/159 531/845/159 599/682/159
f 530/846/159 599/682/159 531/845/159
f 531/839/3 600/832/3 601/831/3
f 600/832/3 531/839/3 532/840/3
f 600/833/157 533/842/157 602/834/157
f 533/842/157 600/833/157 532/841/157
f 602/836/160 533/843/160 603/835/160
f 530/844/160 603/835/160 533/843/160
f 530/846/159 601/838/159 603/837/159
f 601/838/159 530/846/159 531/845/159
f 616/847/172 610/848/173 169/317/174
f 169/317/174 273/319/172 616/847/172
f 271/321/158 614/849/158 131/322/158
f 606/850/158 131/322/158 614/849/158
f 609/851/158 309/328/158 623/852/158
f 309/328/158 609/851/158 147/327/158
f 611/853/158 604/854/158 101/334/158
f 101/334/158 210/336/158 611/853/158
f 104/337/158 613/855/158 270/338/158
f 613/855/158 104/337/158 605/856/158
f 101/334/158 604/854/158 271/321/158
f 614/849/158 271/321/158 604/854/158
f 131/322/158 612/857/175 268/342/175
f 612/857/175 131/322/158 606/850/158
f 147/327/158 605/856/158 104/337/158
f 605/856/158 147/327/158 609/851/158
f 267/346/176 169/317/174 643/352/177
f 268/342/175 612/857/175 273/319/172
f 616/847/172 273/319/172 612/857/175
f 617/858/158 270/338/158 613/855/158
f 270/338/158 617/858/158 275/350/158
f 611/853/158 275/350/158 617/858/158
f 275/350/158 611/853/158 210/336/158
f 295/366/178 608/859/178 141/364/178
f 608/859/178 295/366/178 620/860/178
f 144/370/178 296/369/178 607/861/178
f 297/374/178 625/862/178 342/373/178
f 625/862/178 297/374/178 621/863/178
f 141/364/178 608/859/178 292/380/178
f 292/380/178 608/859/178 619/864/178
f 137/382/178 620/860/178 295/366/178
f 620/860/178 137/382/178 607/861/178
f 137/382/178 144/370/178 607/861/178
f 296/369/178 135/384/178 607/861/178
f 292/380/178 619/864/178 297/374/178
f 297/374/178 619/864/178 621/863/178
f 642/390/178 640/392/178 607/861/178
f 361/865/179 626/866/179 272/867/179
f 272/867/179 626/866/179 615/868/179
f 272/393/180 624/869/180 325/394/180
f 624/869/180 272/393/180 615/870/180
f 286/415/158 623/852/158 309/328/158
f 623/852/158 286/415/158 618/871/158
f 325/394/180 618/871/180 286/415/180
f 618/871/180 325/394/180 624/869/180
f 342/373/178 622/872/179 298/470/178
f 622/872/179 342/373/178 625/862/178
f 298/470/178 622/872/179 361/865/179
f 361/865/179 622/872/179 626/866/179
f 638/873/158 57/874/158 635/875/158
f 57/874/158 638/873/158 198/876/158
f 631/877/1 46/878/1 632/879/1
f 46/878/1 631/877/1 45/880/1
f 48/881/178 633/882/178 47/883/178
f 633/882/178 48/881/178 634/884/178
f 632/879/1 21/885/1 629/886/1
f 21/885/1 632/879/1 46/878/1
f 628/887/1 20/888/1 631/877/1
f 631/877/1 20/888/1 45/880/1
f 19/889/178 627/890/178 48/881/178
f 48/881/178 627/890/178 634/884/178
f 47/883/178 633/882/178 22/891/178
f 22/891/178 633/882/178 630/892/178
f 20/893/158 628/894/158 57/874/158
f 635/875/158 57/874/158 628/894/158
f 630/892/8 201/895/8 22/891/8
f 201/895/8 630/892/8 639/896/8
f 636/897/8 21/898/8 58/899/8
f 21/898/8 636/897/8 629/900/8
f 637/901/8 58/899/8 191/902/8
f 58/899/8 637/901/8 636/897/8
f 639/896/8 191/902/8 201/895/8
f 191/902/8 639/896/8 637/901/8
f 198/876/158 638/873/158 19/903/158
f 627/904/158 19/903/158 638/873/158
f 608/905/181 631/906/181 632/907/182
f 631/906/181 608/905/181 620/908/183
f 607/861/178 135/384/178 187/361/178
f 607/861/178 187/361/178 642/390/178
f 642/390/178 187/361/178 294/360/178
f 138/378/178 294/360/178 293/377/178
f 642/390/178 294/360/178 138/378/178
f 643/352/177 610/848/173 641/909/184
f 169/317/174 610/848/173 643/352/177
f 106/316/41 267/346/60 643/352/185
f 106/316/41 643/352/185 97/329/50
f 267/910/60 106/911/41 274/912/40
f 642/390/178 138/378/178 392/385/178
f 642/390/178 392/385/178 239/520/178
f 643/352/186 269/332/186 97/329/186
f 247/288/27 246/281/22 214/308/37
f 247/288/27 646/913/187 246/281/22
f 646/913/187 247/288/27 645/914/187
f 243/287/26 645/914/187 247/288/27
f 644/915/188 243/287/26 215/302/34
f 243/287/26 644/915/188 645/914/187
f 368/469/189 213/304/20 219/290/20
f 368/469/189 219/290/20 349/289/28
f 368/469/189 349/289/28 266/447/119
f 217/280/21 368/469/189 215/302/34
f 242/279/20 368/469/189 217/280/21
f 368/469/189 242/279/20 213/304/20
f 605/916/187 609/917/187 648/918/187
f 626/919/187 624/920/190 615/921/187
f 622/922/187 624/920/190 626/919/187
f 625/923/191 624/920/190 622/922/187
f 632/907/182 625/923/191 621/924/181
f 632/907/182 621/924/181 619/925/181
f 632/907/182 619/925/181 608/905/181
f 638/926/192 635/927/192 628/928/193
f 607/929/194 640/930/195 329/387/196
f 313/296/32 329/387/196 290/413/100
f 329/387/196 245/293/30 216/306/35
f 245/293/30 329/387/196 313/296/32
f 647/931/197 216/306/35 218/276/17
f 647/931/197 329/387/196 216/306/35
f 218/276/17 627/932/198 638/933/199
f 628/934/200 647/931/197 218/276/17
f 218/276/17 638/933/199 628/934/200
f 634/935/201 368/469/189 633/936/202
f 368/469/189 630/937/203 633/936/202
f 215/302/34 368/469/189 634/935/201
f 368/469/189 652/938/204 639/939/205
f 639/939/205 652/938/204 637/940/205
f 368/469/189 639/939/205 630/937/203
f 650/941/206 629/942/207 651/943/206
f 636/944/208 651/943/206 629/942/207
f 368/469/189 641/945/209 610/946/210
f 368/469/189 610/946/210 616/947/211
f 368/469/189 606/948/212 614/949/213
f 368/469/189 612/950/212 606/948/212
f 612/950/212 368/469/189 616/947/211
f 368/469/189 611/951/214 617/952/215
f 368/469/189 604/953/214 611/951/214
f 604/953/214 368/469/189 614/949/213
f 649/954/187 613/955/187 605/916/187
f 605/916/187 648/918/187 649/954/187
f 650/941/206 613/955/187 649/954/187
f 613/955/187 650/941/206 651/943/206
f 625/923/191 629/942/207 624/920/190
f 629/942/207 625/923/191 632/907/182
f 627/932/198 218/276/17 248/273/14
f 627/932/198 248/273/14 644/915/188
f 241/310/24 645/914/187 644/915/188
f 644/915/188 248/273/14 241/310/24
f 645/914/187 212/311/24 646/913/187
f 220/300/24 645/914/187 241/310/24
f 244/297/24 645/914/187 220/300/24
f 645/914/187 244/297/24 212/311/24
f 221/284/24 246/281/22 646/913/187
f 646/913/187 212/311/24 221/284/24
f 634/935/201 644/915/188 215/302/34
f 644/915/188 634/935/201 627/932/198
f 628/934/200 631/906/181 620/908/183
f 647/931/197 628/934/200 607/929/194
f 628/934/200 620/908/183 607/929/194
f 647/931/197 607/929/194 329/387/196
f 624/920/190 648/918/187 623/956/187
f 623/956/187 648/918/187 609/917/187
f 624/920/190 623/956/187 618/957/187
f 648/918/187 624/920/190 649/954/187
f 649/954/187 624/920/190 650/941/206
f 650/941/206 624/920/190 629/942/207
f 652/938/204 368/469/189 617/952/215
f 651/943/206 617/952/215 613/955/187
f 651/943/206 636/944/208 617/952/215
f 652/938/204 617/952/215 636/944/208
f 652/938/204 636/944/208 637/940/205
