# Blender 4.0.0
# www.blender.org
o ToasterOven027_Konb002
v 0.240760 -0.201184 -0.054692
v 0.239334 -0.201184 -0.046605
v 0.235228 -0.201184 -0.039494
v 0.228938 -0.201184 -0.034215
v 0.221221 -0.201184 -0.031407
v 0.213009 -0.201184 -0.031407
v 0.205293 -0.201184 -0.034215
v 0.199002 -0.201184 -0.039494
v 0.194896 -0.201184 -0.046605
v 0.193470 -0.201184 -0.054692
v 0.194896 -0.201184 -0.062779
v 0.199002 -0.201184 -0.069891
v 0.205293 -0.201184 -0.075169
v 0.213009 -0.201184 -0.077978
v 0.221221 -0.201184 -0.077978
v 0.228938 -0.201184 -0.075169
v 0.235228 -0.201184 -0.069891
v 0.239334 -0.201184 -0.062779
v 0.240787 -0.208614 -0.054700
v 0.239363 -0.208614 -0.046604
v 0.235254 -0.208614 -0.039482
v 0.228958 -0.208614 -0.034196
v 0.221234 -0.208614 -0.031381
v 0.213013 -0.208614 -0.031378
v 0.205286 -0.208614 -0.034187
v 0.198986 -0.208614 -0.039470
v 0.194873 -0.208614 -0.046588
v 0.193443 -0.208614 -0.054684
v 0.194868 -0.208614 -0.062781
v 0.198976 -0.208614 -0.069902
v 0.205272 -0.208614 -0.075189
v 0.212997 -0.208614 -0.078003
v 0.221218 -0.208614 -0.078006
v 0.228944 -0.208614 -0.075197
v 0.235244 -0.208614 -0.069915
v 0.239357 -0.208614 -0.062796
v 0.238074 -0.212471 -0.054714
v 0.236817 -0.212471 -0.047544
v 0.233184 -0.212471 -0.041237
v 0.227613 -0.212471 -0.036552
v 0.220776 -0.212471 -0.034056
v 0.213497 -0.212471 -0.034048
v 0.206655 -0.212471 -0.036531
v 0.201074 -0.212471 -0.041204
v 0.197428 -0.212471 -0.047504
v 0.196156 -0.212471 -0.054671
v 0.197413 -0.212471 -0.061840
v 0.201046 -0.212471 -0.068148
v 0.206617 -0.212471 -0.072832
v 0.213455 -0.212471 -0.075329
v 0.220733 -0.212471 -0.075336
v 0.227576 -0.212471 -0.072854
v 0.233157 -0.212471 -0.068181
v 0.236803 -0.212471 -0.061881
v 0.238677 -0.211941 -0.054751
v 0.240260 -0.210361 -0.054751
v 0.237397 -0.211941 -0.047373
v 0.238885 -0.210361 -0.046832
v 0.233671 -0.211941 -0.040878
v 0.234883 -0.210361 -0.039860
v 0.227947 -0.211941 -0.036049
v 0.228739 -0.210361 -0.034677
v 0.220918 -0.211941 -0.033468
v 0.221192 -0.210361 -0.031909
v 0.213429 -0.211941 -0.033448
v 0.213154 -0.210361 -0.031888
v 0.206385 -0.211941 -0.035990
v 0.205594 -0.210361 -0.034618
v 0.200636 -0.211941 -0.040787
v 0.199423 -0.210361 -0.039770
v 0.196874 -0.211941 -0.047262
v 0.195386 -0.210361 -0.046721
v 0.195553 -0.211941 -0.054633
v 0.193970 -0.210361 -0.054633
v 0.196833 -0.211941 -0.062011
v 0.195346 -0.210361 -0.062553
v 0.200560 -0.211941 -0.068507
v 0.199347 -0.210361 -0.069524
v 0.206283 -0.211941 -0.073336
v 0.205491 -0.210361 -0.074707
v 0.213313 -0.211941 -0.075916
v 0.213038 -0.210361 -0.077476
v 0.220801 -0.211941 -0.075937
v 0.221076 -0.210361 -0.077496
v 0.227845 -0.211941 -0.073395
v 0.228637 -0.210361 -0.074766
v 0.233595 -0.211941 -0.068597
v 0.234808 -0.210361 -0.069615
v 0.237357 -0.211941 -0.062122
v 0.238844 -0.210361 -0.062664
v 0.237565 -0.212517 -0.055639
v 0.236010 -0.212517 -0.048364
v 0.233389 -0.212517 -0.042273
v 0.228029 -0.212517 -0.038877
v 0.221599 -0.212517 -0.034718
v 0.216468 -0.212517 -0.039187
v 0.207602 -0.212517 -0.040079
v 0.202058 -0.212517 -0.040822
v 0.199645 -0.212517 -0.048967
v 0.196665 -0.212517 -0.053746
v 0.199367 -0.212517 -0.061931
v 0.200841 -0.212517 -0.067112
v 0.206708 -0.212517 -0.071685
v 0.212632 -0.212517 -0.074667
v 0.217423 -0.212517 -0.070572
v 0.226628 -0.212517 -0.069305
v 0.232172 -0.212517 -0.068562
v 0.234574 -0.212517 -0.059557
v 0.240400 -0.201184 -0.050587
v 0.239442 -0.205379 -0.046567
v 0.240432 -0.205379 -0.050580
v 0.240408 -0.208770 -0.050592
v 0.240874 -0.205379 -0.054693
v 0.237591 -0.201184 -0.042870
v 0.235316 -0.205379 -0.039421
v 0.237620 -0.205379 -0.042853
v 0.237601 -0.208770 -0.042873
v 0.232313 -0.201184 -0.036580
v 0.228996 -0.205379 -0.034117
v 0.232334 -0.205379 -0.036554
v 0.232323 -0.208770 -0.036579
v 0.225202 -0.201184 -0.032474
v 0.221242 -0.205379 -0.031294
v 0.225213 -0.205379 -0.032443
v 0.225211 -0.208770 -0.032470
v 0.217115 -0.201184 -0.031048
v 0.212990 -0.205379 -0.031294
v 0.217115 -0.205379 -0.031015
v 0.217122 -0.208770 -0.031041
v 0.209029 -0.201184 -0.032474
v 0.205236 -0.205379 -0.034116
v 0.209017 -0.205379 -0.032443
v 0.209033 -0.208770 -0.032465
v 0.201917 -0.201184 -0.036580
v 0.198915 -0.205379 -0.039420
v 0.201896 -0.205379 -0.036555
v 0.201918 -0.208770 -0.036570
v 0.196639 -0.201184 -0.042870
v 0.194789 -0.205379 -0.046565
v 0.196610 -0.205379 -0.042854
v 0.196637 -0.208770 -0.042861
v 0.193830 -0.201184 -0.050586
v 0.193356 -0.205379 -0.054691
v 0.193798 -0.205379 -0.050581
v 0.193825 -0.208770 -0.050578
v 0.193830 -0.201184 -0.058798
v 0.194789 -0.205379 -0.062818
v 0.193798 -0.205379 -0.058804
v 0.193822 -0.208770 -0.058792
v 0.196639 -0.201184 -0.066514
v 0.198914 -0.205379 -0.069964
v 0.196611 -0.205379 -0.066531
v 0.196629 -0.208770 -0.066512
v 0.201917 -0.201184 -0.072805
v 0.205235 -0.205379 -0.075268
v 0.201896 -0.205379 -0.072830
v 0.201907 -0.208770 -0.072805
v 0.209028 -0.201184 -0.076910
v 0.212989 -0.205379 -0.078090
v 0.209018 -0.205379 -0.076941
v 0.209019 -0.208770 -0.076914
v 0.217115 -0.201184 -0.078336
v 0.221240 -0.205379 -0.078091
v 0.217116 -0.205379 -0.078369
v 0.217108 -0.208770 -0.078343
v 0.225202 -0.201184 -0.076910
v 0.228994 -0.205379 -0.075269
v 0.225214 -0.205379 -0.076941
v 0.225198 -0.208770 -0.076919
v 0.232313 -0.201184 -0.072805
v 0.235315 -0.205379 -0.069965
v 0.232335 -0.205379 -0.072829
v 0.232312 -0.208770 -0.072814
v 0.237591 -0.201184 -0.066514
v 0.239441 -0.205379 -0.062819
v 0.237620 -0.205379 -0.066530
v 0.237594 -0.208770 -0.066524
v 0.240400 -0.201184 -0.058798
v 0.240432 -0.205379 -0.058803
v 0.240406 -0.208770 -0.058806
v 0.223593 -0.212517 -0.035659
v 0.218842 -0.212517 -0.034835
v 0.222398 -0.212517 -0.038470
v 0.217102 -0.212517 -0.054729
v 0.222472 -0.212517 -0.069606
v 0.222241 -0.212517 -0.056461
v 0.230470 -0.212517 -0.069538
v 0.233716 -0.212517 -0.065888
v 0.230131 -0.212517 -0.063692
v 0.225636 -0.212517 -0.049560
v 0.230604 -0.212517 -0.047638
v 0.237023 -0.212517 -0.057472
v 0.237238 -0.212517 -0.052669
v 0.235654 -0.212517 -0.052792
v 0.232598 -0.212517 -0.044191
v 0.234355 -0.212517 -0.044171
v 0.231318 -0.212517 -0.040346
v 0.238304 -0.211973 -0.051008
v 0.239521 -0.211150 -0.054771
v 0.239124 -0.211150 -0.050929
v 0.239922 -0.210328 -0.050723
v 0.238197 -0.211150 -0.047103
v 0.235766 -0.211973 -0.043984
v 0.236509 -0.211150 -0.043628
v 0.237189 -0.210328 -0.043162
v 0.234330 -0.211150 -0.040351
v 0.230979 -0.211973 -0.038250
v 0.231556 -0.211150 -0.037662
v 0.232035 -0.210328 -0.036992
v 0.228387 -0.211150 -0.035328
v 0.224519 -0.211973 -0.034500
v 0.224860 -0.211150 -0.033750
v 0.225081 -0.210328 -0.032957
v 0.221084 -0.211150 -0.032641
v 0.217167 -0.211973 -0.033186
v 0.217231 -0.211150 -0.032364
v 0.217167 -0.210328 -0.031543
v 0.213302 -0.211150 -0.032613
v 0.209808 -0.211973 -0.034465
v 0.209587 -0.211150 -0.033671
v 0.209246 -0.210328 -0.032921
v 0.205981 -0.211150 -0.035249
v 0.203331 -0.211973 -0.038184
v 0.202852 -0.211150 -0.037514
v 0.202275 -0.210328 -0.036926
v 0.200002 -0.211150 -0.040230
v 0.198516 -0.211973 -0.043894
v 0.197836 -0.211150 -0.043428
v 0.197093 -0.210328 -0.043073
v 0.196088 -0.211150 -0.046955
v 0.195944 -0.211973 -0.050907
v 0.195147 -0.211150 -0.050701
v 0.194327 -0.210328 -0.050622
v 0.194710 -0.211150 -0.054613
v 0.195927 -0.211973 -0.058376
v 0.195107 -0.211150 -0.058456
v 0.194309 -0.210328 -0.058661
v 0.196034 -0.211150 -0.062281
v 0.198464 -0.211973 -0.065401
v 0.197721 -0.211150 -0.065756
v 0.197042 -0.210328 -0.066222
v 0.199901 -0.211150 -0.069034
v 0.203252 -0.211973 -0.071134
v 0.202675 -0.211150 -0.071722
v 0.202196 -0.210328 -0.072392
v 0.205844 -0.211150 -0.074057
v 0.209711 -0.211973 -0.074884
v 0.209370 -0.211150 -0.075634
v 0.209149 -0.210328 -0.076428
v 0.213147 -0.211150 -0.076744
v 0.217064 -0.211973 -0.076199
v 0.217000 -0.211150 -0.077020
v 0.217064 -0.210328 -0.077841
v 0.220928 -0.211150 -0.076771
v 0.224422 -0.211973 -0.074919
v 0.224643 -0.211150 -0.075713
v 0.224984 -0.210328 -0.076463
v 0.228250 -0.211150 -0.074136
v 0.230900 -0.211973 -0.071200
v 0.231379 -0.211150 -0.071871
v 0.231956 -0.210328 -0.072459
v 0.234228 -0.211150 -0.069155
v 0.235715 -0.211973 -0.065490
v 0.236394 -0.211150 -0.065956
v 0.237137 -0.210328 -0.066311
v 0.238143 -0.211150 -0.062430
v 0.238286 -0.211973 -0.058478
v 0.239084 -0.211150 -0.058683
v 0.239904 -0.210328 -0.058763
v 0.237739 -0.212477 -0.051075
v 0.238337 -0.212326 -0.054711
v 0.237947 -0.212326 -0.051048
v 0.237064 -0.212326 -0.047452
v 0.239281 -0.209866 -0.046643
v 0.240264 -0.209866 -0.050637
v 0.240698 -0.209866 -0.054710
v 0.235258 -0.212477 -0.044239
v 0.235444 -0.212326 -0.044143
v 0.233385 -0.212326 -0.041066
v 0.235192 -0.209866 -0.039547
v 0.237481 -0.209866 -0.042964
v 0.230589 -0.212477 -0.038665
v 0.230731 -0.212326 -0.038510
v 0.227743 -0.212326 -0.036323
v 0.228922 -0.209866 -0.034278
v 0.232241 -0.209866 -0.036706
v 0.224294 -0.212477 -0.035023
v 0.224375 -0.212326 -0.034829
v 0.220819 -0.212326 -0.033796
v 0.221228 -0.209866 -0.031471
v 0.225178 -0.209866 -0.032617
v 0.217134 -0.212477 -0.033754
v 0.217144 -0.212326 -0.033544
v 0.213449 -0.212326 -0.033789
v 0.213038 -0.209866 -0.031465
v 0.217141 -0.209866 -0.031191
v 0.209972 -0.212477 -0.035010
v 0.209909 -0.212326 -0.034810
v 0.206521 -0.212326 -0.036304
v 0.205339 -0.209866 -0.034260
v 0.209102 -0.209866 -0.032599
v 0.203671 -0.212477 -0.038640
v 0.203543 -0.212326 -0.038474
v 0.200870 -0.212326 -0.041036
v 0.199062 -0.209866 -0.039520
v 0.202029 -0.209866 -0.036672
v 0.198991 -0.212477 -0.044207
v 0.198815 -0.212326 -0.044094
v 0.197179 -0.212326 -0.047416
v 0.194961 -0.209866 -0.046610
v 0.196776 -0.209866 -0.042919
v 0.196498 -0.212477 -0.051038
v 0.196293 -0.212326 -0.050992
v 0.195893 -0.212326 -0.054673
v 0.193533 -0.209866 -0.054674
v 0.193976 -0.209866 -0.050586
v 0.196492 -0.212477 -0.058310
v 0.196284 -0.212326 -0.058337
v 0.197166 -0.212326 -0.061933
v 0.194949 -0.209866 -0.062741
v 0.193967 -0.209866 -0.058747
v 0.198973 -0.212477 -0.065145
v 0.198786 -0.212326 -0.065242
v 0.200846 -0.212326 -0.068319
v 0.199039 -0.209866 -0.069837
v 0.196750 -0.209866 -0.066420
v 0.203642 -0.212477 -0.070720
v 0.203500 -0.212326 -0.070874
v 0.206488 -0.212326 -0.073062
v 0.205309 -0.209866 -0.075106
v 0.201989 -0.209866 -0.072678
v 0.209936 -0.212477 -0.074362
v 0.209856 -0.212326 -0.074555
v 0.213411 -0.212326 -0.075589
v 0.213003 -0.209866 -0.077913
v 0.209053 -0.209866 -0.076767
v 0.217096 -0.212477 -0.075631
v 0.217087 -0.212326 -0.075840
v 0.220782 -0.212326 -0.075595
v 0.221193 -0.209866 -0.077919
v 0.217089 -0.209866 -0.078193
v 0.224259 -0.212477 -0.074374
v 0.224322 -0.212326 -0.074575
v 0.227710 -0.212326 -0.073081
v 0.228891 -0.209866 -0.075124
v 0.225128 -0.209866 -0.076785
v 0.230560 -0.212477 -0.070744
v 0.230687 -0.212326 -0.070911
v 0.233360 -0.212326 -0.068348
v 0.235169 -0.209866 -0.069864
v 0.232201 -0.209866 -0.072712
v 0.235239 -0.212477 -0.065178
v 0.235416 -0.212326 -0.065291
v 0.237051 -0.212326 -0.061969
v 0.239269 -0.209866 -0.062775
v 0.237455 -0.209866 -0.066465
v 0.237732 -0.212477 -0.058347
v 0.237937 -0.212326 -0.058392
v 0.240255 -0.209866 -0.058799
v 0.236597 -0.212513 -0.047648
v 0.237474 -0.212513 -0.051211
v 0.237873 -0.212513 -0.054830
v 0.233105 -0.212513 -0.041455
v 0.235087 -0.212513 -0.044431
v 0.227545 -0.212513 -0.036848
v 0.230508 -0.212513 -0.039015
v 0.220855 -0.212513 -0.034274
v 0.224287 -0.212513 -0.035280
v 0.213749 -0.212513 -0.034626
v 0.217365 -0.212513 -0.034303
v 0.206795 -0.212513 -0.036940
v 0.210152 -0.212513 -0.035553
v 0.211746 -0.212517 -0.039815
v 0.201303 -0.212513 -0.041244
v 0.203889 -0.212513 -0.038776
v 0.203760 -0.212517 -0.039846
v 0.197731 -0.212513 -0.047674
v 0.199350 -0.212513 -0.044380
v 0.200521 -0.212517 -0.043446
v 0.196358 -0.212513 -0.054554
v 0.196753 -0.212513 -0.051001
v 0.197246 -0.212517 -0.051867
v 0.197708 -0.212513 -0.061803
v 0.196832 -0.212513 -0.058239
v 0.197099 -0.212517 -0.056787
v 0.201125 -0.212513 -0.067929
v 0.199144 -0.212513 -0.064953
v 0.200004 -0.212517 -0.065343
v 0.206719 -0.212513 -0.072611
v 0.203757 -0.212513 -0.070445
v 0.203001 -0.212517 -0.069177
v 0.213375 -0.212513 -0.075111
v 0.209944 -0.212513 -0.074104
v 0.210671 -0.212517 -0.073834
v 0.220469 -0.212513 -0.074795
v 0.216852 -0.212513 -0.075118
v 0.215376 -0.212517 -0.074619
v 0.227436 -0.212513 -0.072444
v 0.224079 -0.212513 -0.073832
v 0.232928 -0.212513 -0.068140
v 0.230341 -0.212513 -0.070609
v 0.236506 -0.212513 -0.061660
v 0.234887 -0.212513 -0.064953
v 0.237478 -0.212513 -0.058384
v 0.200001 -0.212517 -0.056770
v 0.203979 -0.212517 -0.068001
v 0.211842 -0.212517 -0.072449
v 0.207661 -0.212517 -0.066500
v 0.207680 -0.212517 -0.058729
v 0.211955 -0.212517 -0.052935
v 0.204085 -0.212517 -0.045616
v 0.240196 -0.204018 -0.049214
v 0.240676 -0.206737 -0.051948
v 0.236930 -0.204018 -0.041650
v 0.238316 -0.206737 -0.044055
v 0.231275 -0.204018 -0.035659
v 0.233400 -0.206737 -0.037445
v 0.223911 -0.204018 -0.031964
v 0.226519 -0.206737 -0.032916
v 0.215728 -0.204018 -0.031011
v 0.218504 -0.206737 -0.031013
v 0.207712 -0.204018 -0.032913
v 0.210321 -0.206737 -0.031966
v 0.200830 -0.204018 -0.037443
v 0.202958 -0.206737 -0.035660
v 0.195913 -0.204018 -0.044053
v 0.197302 -0.206737 -0.041650
v 0.193553 -0.204018 -0.051946
v 0.194037 -0.206737 -0.049213
v 0.194034 -0.204018 -0.060171
v 0.193554 -0.206737 -0.057437
v 0.197300 -0.204018 -0.067734
v 0.195914 -0.206737 -0.065330
v 0.202956 -0.204018 -0.073725
v 0.200831 -0.206737 -0.071939
v 0.210319 -0.204018 -0.077420
v 0.207712 -0.206737 -0.076469
v 0.218502 -0.204018 -0.078374
v 0.215727 -0.206737 -0.078372
v 0.226518 -0.204018 -0.076471
v 0.223909 -0.206737 -0.077418
v 0.233400 -0.204018 -0.071942
v 0.231273 -0.206737 -0.073724
v 0.238318 -0.204018 -0.065332
v 0.236928 -0.206737 -0.067734
v 0.240678 -0.204018 -0.057438
v 0.240194 -0.206737 -0.060171
v 0.221022 -0.212517 -0.035596
v 0.220587 -0.212517 -0.060508
v 0.231991 -0.212517 -0.067022
v 0.225940 -0.212517 -0.056369
v 0.226027 -0.212517 -0.044657
v 0.236885 -0.212517 -0.054542
v 0.233328 -0.212517 -0.048491
v 0.232554 -0.212517 -0.042312
v 0.239031 -0.211464 -0.052227
v 0.239200 -0.210835 -0.049541
v 0.236866 -0.211464 -0.044880
v 0.236106 -0.210835 -0.042299
v 0.232319 -0.211464 -0.038717
v 0.230722 -0.210835 -0.036551
v 0.225938 -0.211464 -0.034480
v 0.223696 -0.210835 -0.032991
v 0.218493 -0.211464 -0.032681
v 0.215877 -0.210835 -0.032049
v 0.210882 -0.211464 -0.033537
v 0.208208 -0.210835 -0.033838
v 0.204022 -0.211464 -0.036945
v 0.201612 -0.210835 -0.038142
v 0.198742 -0.211464 -0.042493
v 0.196887 -0.210835 -0.044443
v 0.195678 -0.211464 -0.049513
v 0.194601 -0.210835 -0.051979
v 0.195199 -0.211464 -0.057157
v 0.195031 -0.210835 -0.059843
v 0.197364 -0.211464 -0.064504
v 0.198124 -0.210835 -0.067086
v 0.201911 -0.211464 -0.070668
v 0.203509 -0.210835 -0.072834
v 0.208292 -0.211464 -0.074905
v 0.210534 -0.210835 -0.076393
v 0.215737 -0.211464 -0.076703
v 0.218353 -0.210835 -0.077336
v 0.223349 -0.211464 -0.075847
v 0.226023 -0.210835 -0.075547
v 0.230208 -0.211464 -0.072439
v 0.232618 -0.210835 -0.071242
v 0.235488 -0.211464 -0.066891
v 0.237344 -0.210835 -0.064942
v 0.238553 -0.211464 -0.059871
v 0.239630 -0.210835 -0.057405
v 0.238088 -0.212393 -0.052267
v 0.237802 -0.212257 -0.049808
v 0.240088 -0.209722 -0.049256
v 0.240433 -0.210009 -0.051999
v 0.235994 -0.212393 -0.045240
v 0.234884 -0.212257 -0.043027
v 0.236843 -0.209722 -0.041727
v 0.238106 -0.210009 -0.044186
v 0.231622 -0.212393 -0.039353
v 0.229823 -0.212257 -0.037653
v 0.231219 -0.209722 -0.035762
v 0.233247 -0.210009 -0.037641
v 0.225501 -0.212393 -0.035317
v 0.223228 -0.212257 -0.034334
v 0.223894 -0.209722 -0.032080
v 0.226442 -0.210009 -0.033152
v 0.218369 -0.212393 -0.033617
v 0.215897 -0.212257 -0.033471
v 0.215751 -0.209722 -0.031125
v 0.218512 -0.210009 -0.031261
v 0.211085 -0.212393 -0.034459
v 0.208712 -0.212257 -0.035168
v 0.207773 -0.209722 -0.033013
v 0.210414 -0.210009 -0.032196
v 0.204528 -0.212393 -0.037742
v 0.202541 -0.212257 -0.039219
v 0.200921 -0.209722 -0.037516
v 0.203124 -0.210009 -0.035845
v 0.199490 -0.212393 -0.043069
v 0.198128 -0.212257 -0.045137
v 0.196023 -0.209722 -0.044090
v 0.197522 -0.210009 -0.041767
v 0.196578 -0.212393 -0.049798
v 0.196005 -0.212257 -0.052207
v 0.193669 -0.209722 -0.051943
v 0.194282 -0.210009 -0.049248
v 0.196142 -0.212393 -0.057118
v 0.196428 -0.212257 -0.059577
v 0.194143 -0.209722 -0.060128
v 0.193797 -0.210009 -0.057385
v 0.198237 -0.212393 -0.064144
v 0.199346 -0.212257 -0.066358
v 0.197388 -0.209722 -0.067658
v 0.196125 -0.210009 -0.065198
v 0.202608 -0.212393 -0.070031
v 0.204408 -0.212257 -0.071732
v 0.203012 -0.209722 -0.073623
v 0.200984 -0.210009 -0.071744
v 0.208729 -0.212393 -0.074068
v 0.211002 -0.212257 -0.075050
v 0.210337 -0.209722 -0.077305
v 0.207789 -0.210009 -0.076233
v 0.215862 -0.212393 -0.075768
v 0.218333 -0.212257 -0.075913
v 0.218480 -0.209722 -0.078260
v 0.215718 -0.210009 -0.078124
v 0.223146 -0.212393 -0.074925
v 0.225518 -0.212257 -0.074217
v 0.226458 -0.209722 -0.076372
v 0.223817 -0.210009 -0.077188
v 0.229702 -0.212393 -0.071643
v 0.231689 -0.212257 -0.070165
v 0.233309 -0.209722 -0.071869
v 0.231107 -0.210009 -0.073540
v 0.234740 -0.212393 -0.066315
v 0.236102 -0.212257 -0.064248
v 0.238207 -0.209722 -0.065294
v 0.236709 -0.210009 -0.067618
v 0.237653 -0.212393 -0.059586
v 0.238225 -0.212257 -0.057178
v 0.240561 -0.209722 -0.057441
v 0.239948 -0.210009 -0.060137
v 0.237362 -0.212510 -0.049928
v 0.237612 -0.212516 -0.052572
v 0.234532 -0.212510 -0.043296
v 0.235510 -0.212516 -0.045433
v 0.229576 -0.212510 -0.038056
v 0.231467 -0.212516 -0.039922
v 0.223132 -0.212510 -0.034766
v 0.225267 -0.212516 -0.035804
v 0.215992 -0.212510 -0.034025
v 0.218640 -0.212516 -0.034238
v 0.208907 -0.212510 -0.035659
v 0.211507 -0.212516 -0.035637
v 0.202867 -0.212510 -0.039519
v 0.204803 -0.212516 -0.038264
v 0.198568 -0.212510 -0.045368
v 0.200077 -0.212516 -0.043181
v 0.196447 -0.212510 -0.052227
v 0.197098 -0.212516 -0.050002
v 0.196896 -0.212510 -0.059482
v 0.196647 -0.212516 -0.056837
v 0.199698 -0.212510 -0.066089
v 0.198749 -0.212516 -0.063976
v 0.204668 -0.212510 -0.071357
v 0.202776 -0.212516 -0.069491
v 0.211099 -0.212510 -0.074618
v 0.208976 -0.212516 -0.073609
v 0.218233 -0.212510 -0.075374
v 0.215585 -0.212516 -0.075160
v 0.225323 -0.212510 -0.073725
v 0.222719 -0.212516 -0.073761
v 0.231363 -0.212510 -0.069866
v 0.229428 -0.212516 -0.071120
v 0.235665 -0.212510 -0.063997
v 0.234156 -0.212516 -0.066184
v 0.237783 -0.212510 -0.057157
v 0.237135 -0.212516 -0.059364
v 0.197570 -0.212517 -0.054882
v 0.202039 -0.212517 -0.067509
v 0.213216 -0.212517 -0.074028
v 0.208130 -0.212517 -0.069501
v 0.205227 -0.212517 -0.061167
v 0.213634 -0.212517 -0.048904
v 0.208162 -0.212517 -0.052859
v 0.202242 -0.212517 -0.042344
v 0.208213 -0.213544 -0.055771
v 0.208213 -0.213544 -0.053613
v 0.208213 -0.209432 -0.055771
v 0.208213 -0.209432 -0.053613
v 0.196029 -0.213544 -0.055771
v 0.196029 -0.213544 -0.053613
v 0.196029 -0.209432 -0.055771
v 0.196029 -0.209432 -0.053613
vn 0.9859 0.0199 0.1661
vn 0.9849 0.0003 0.1732
vn 0.9993 0.0321 0.0169
vn 0.9333 0.0322 0.3578
vn 0.9770 0.0067 0.2131
vn 0.9396 -0.0018 0.3422
vn 0.9396 -0.0385 0.3401
vn 0.9848 -0.0664 0.1604
vn 0.9993 -0.0385 -0.0018
vn 0.9916 -0.0109 0.1292
vn 1.0000 -0.0019 0.0001
vn 0.8697 0.0199 0.4933
vn 0.8667 -0.0000 0.4989
vn 0.7546 0.0322 0.6554
vn 0.8452 0.0067 0.5344
vn 0.7659 -0.0018 0.6429
vn 0.7666 -0.0385 0.6410
vn 0.8706 -0.0665 0.4874
vn 0.8875 -0.0109 0.4606
vn 0.6485 0.0199 0.7610
vn 0.6438 -0.0000 0.7652
vn 0.4850 0.0322 0.8739
vn 0.6115 0.0067 0.7913
vn 0.4998 -0.0019 0.8661
vn 0.5012 -0.0385 0.8645
vn 0.6514 -0.0665 0.7558
vn 0.6765 -0.0109 0.7364
vn 0.3491 0.0199 0.9369
vn 0.3425 0.0003 0.9395
vn 0.1568 0.0322 0.9871
vn 0.3040 0.0067 0.9527
vn 0.1735 -0.0018 0.9848
vn 0.1753 -0.0385 0.9838
vn 0.3536 -0.0665 0.9330
vn 0.3838 -0.0109 0.9233
vn 0.0076 0.0199 0.9998
vn 0.0010 0.0001 1.0000
vn -0.1903 0.0322 0.9812
vn -0.0402 0.0067 0.9992
vn -0.1738 -0.0019 0.9848
vn -0.1718 -0.0385 0.9844
vn 0.0133 -0.0665 0.9977
vn 0.0449 -0.0109 0.9989
vn -0.3348 0.0199 0.9421
vn -0.3416 0.0003 0.9399
vn -0.5144 0.0322 0.8570
vn -0.3795 0.0067 0.9252
vn -0.5002 -0.0019 0.8659
vn -0.4981 -0.0385 0.8663
vn -0.3288 -0.0665 0.9421
vn -0.2995 -0.0109 0.9540
vn -0.6368 0.0199 0.7708
vn -0.6421 0.0001 0.7667
vn -0.7765 0.0322 0.6293
vn -0.6730 0.0067 0.7396
vn -0.7662 -0.0018 0.6427
vn -0.7643 -0.0385 0.6437
vn -0.6312 -0.0665 0.7727
vn -0.6077 -0.0109 0.7941
vn -0.8620 0.0199 0.5065
vn -0.8655 0.0001 0.5010
vn -0.9449 0.0322 0.3258
vn -0.8854 0.0067 0.4648
vn -0.9398 -0.0018 0.3419
vn -0.9384 -0.0385 0.3434
vn -0.8575 -0.0665 0.5102
vn -0.8427 -0.0109 0.5383
vn -0.9833 0.0199 0.1811
vn -0.9847 0.0002 0.1744
vn -0.9993 0.0321 -0.0169
vn -0.9910 0.0067 0.1340
vn -1.0000 -0.0019 -0.0002
vn -0.9993 -0.0385 0.0018
vn -0.9803 -0.0665 0.1863
vn -0.9760 -0.0109 0.2177
vn -0.9859 0.0199 -0.1661
vn -0.9850 0.0001 -0.1726
vn -0.9333 0.0322 -0.3578
vn -0.9770 0.0067 -0.2131
vn -0.9396 -0.0018 -0.3422
vn -0.9396 -0.0385 -0.3401
vn -0.9848 -0.0665 -0.1603
vn -0.9916 -0.0109 -0.1292
vn -0.8697 0.0199 -0.4933
vn -0.8667 -0.0000 -0.4989
vn -0.7546 0.0322 -0.6554
vn -0.8452 0.0067 -0.5344
vn -0.7659 -0.0018 -0.6429
vn -0.7666 -0.0385 -0.6410
vn -0.8706 -0.0665 -0.4875
vn -0.8876 -0.0109 -0.4605
vn -0.6485 0.0199 -0.7610
vn -0.6434 0.0002 -0.7655
vn -0.4849 0.0322 -0.8740
vn -0.6115 0.0067 -0.7912
vn -0.4998 -0.0018 -0.8661
vn -0.5012 -0.0385 -0.8645
vn -0.6515 -0.0665 -0.7558
vn -0.6765 -0.0109 -0.7364
vn -0.3491 0.0199 -0.9369
vn -0.3425 0.0003 -0.9395
vn -0.1568 0.0322 -0.9871
vn -0.3040 0.0067 -0.9526
vn -0.1735 -0.0019 -0.9848
vn -0.1753 -0.0384 -0.9838
vn -0.3536 -0.0664 -0.9331
vn -0.3838 -0.0109 -0.9233
vn -0.0076 0.0199 -0.9998
vn -0.0010 0.0001 -1.0000
vn 0.1903 0.0322 -0.9812
vn 0.0402 0.0067 -0.9992
vn 0.1738 -0.0017 -0.9848
vn 0.1718 -0.0385 -0.9844
vn -0.0131 -0.0664 -0.9977
vn -0.0449 -0.0109 -0.9989
vn 0.3348 0.0199 -0.9421
vn 0.3410 0.0001 -0.9401
vn 0.5144 0.0322 -0.8569
vn 0.3795 0.0067 -0.9252
vn 0.5001 -0.0018 -0.8659
vn 0.4981 -0.0385 -0.8663
vn 0.3288 -0.0665 -0.9421
vn 0.2995 -0.0109 -0.9540
vn 0.6368 0.0199 -0.7708
vn 0.6424 0.0003 -0.7664
vn 0.7765 0.0322 -0.6293
vn 0.6731 0.0067 -0.7396
vn 0.7662 -0.0017 -0.6427
vn 0.7643 -0.0385 -0.6437
vn 0.6312 -0.0665 -0.7728
vn 0.6077 -0.0109 -0.7941
vn 0.8620 0.0199 -0.5065
vn 0.8655 0.0001 -0.5010
vn 0.9449 0.0322 -0.3258
vn 0.8854 0.0067 -0.4648
vn 0.9398 -0.0019 -0.3419
vn 0.9384 -0.0385 -0.3434
vn 0.8574 -0.0665 -0.5103
vn 0.8427 -0.0109 -0.5383
vn 0.9833 0.0199 -0.1811
vn 0.9846 0.0001 -0.1746
vn 0.9910 0.0067 -0.1340
vn 0.9802 -0.0665 -0.1863
vn 0.9760 -0.0109 -0.2177
vn 0.0012 -1.0000 0.0029
vn -0.0000 -1.0000 -0.0000
vn 0.0012 -1.0000 0.0015
vn 0.0024 -1.0000 0.0092
vn -0.0002 -1.0000 0.0004
vn -0.0005 -1.0000 0.0015
vn 0.0002 -1.0000 -0.0004
vn -0.0000 -1.0000 -0.0006
vn 0.0001 -1.0000 -0.0004
vn 0.0067 -1.0000 -0.0067
vn 0.0013 -1.0000 -0.0019
vn 0.0017 -1.0000 -0.0006
vn 0.0004 -1.0000 -0.0004
vn 0.0094 -1.0000 -0.0009
vn 0.0028 -1.0000 -0.0008
vn 0.0036 -1.0000 0.0006
vn 0.0031 -1.0000 0.0009
vn 0.0017 -1.0000 0.0020
vn 0.0034 -1.0000 0.0019
vn 0.0078 -1.0000 0.0054
vn 0.6949 -0.7094 0.1176
vn 0.6985 -0.7054 0.1206
vn 0.6891 -0.6815 0.2463
vn 0.7318 -0.6815 -0.0043
vn 0.7040 -0.7060 0.0768
vn 0.7317 -0.6816 -0.0049
vn 0.7105 -0.7036 -0.0024
vn 0.7389 -0.6596 0.1375
vn 0.6892 -0.6816 0.2456
vn 0.6941 -0.7004 0.1664
vn 0.6685 -0.7036 0.2408
vn 0.6128 -0.7094 0.3482
vn 0.6153 -0.7054 0.3520
vn 0.5633 -0.6815 0.4671
vn 0.6353 -0.7061 0.3129
vn 0.6473 -0.6596 0.3819
vn 0.5637 -0.6816 0.4665
vn 0.5953 -0.7004 0.3938
vn 0.5459 -0.7037 0.4549
vn 0.4567 -0.7094 0.5368
vn 0.4579 -0.7053 0.5412
vn 0.3696 -0.6815 0.6316
vn 0.4899 -0.7061 0.5113
vn 0.4777 -0.6596 0.5803
vn 0.3701 -0.6817 0.6312
vn 0.4247 -0.7004 0.5736
vn 0.3574 -0.7037 0.6141
vn 0.2456 -0.7094 0.6606
vn 0.2453 -0.7053 0.6651
vn 0.1313 -0.6815 0.7200
vn 0.2856 -0.7061 0.6480
vn 0.2503 -0.6597 0.7086
vn 0.1319 -0.6816 0.7197
vn 0.2029 -0.7004 0.6843
vn 0.1258 -0.7037 0.6993
vn 0.0049 -0.7094 0.7048
vn 0.0029 -0.7053 0.7089
vn -0.1229 -0.6815 0.7214
vn 0.0468 -0.7061 0.7066
vn -0.0072 -0.6597 0.7515
vn -0.1222 -0.6816 0.7214
vn -0.0434 -0.7004 0.7124
vn -0.1210 -0.7037 0.7002
vn -0.2366 -0.7094 0.6639
vn -0.2400 -0.7054 0.6670
vn -0.3622 -0.6815 0.6359
vn -0.1978 -0.7061 0.6800
vn -0.2637 -0.6596 0.7039
vn -0.3616 -0.6816 0.6361
vn -0.2844 -0.7004 0.6546
vn -0.3532 -0.7037 0.6165
vn -0.4492 -0.7094 0.5431
vn -0.4532 -0.7053 0.5451
vn -0.5579 -0.6815 0.4737
vn -0.4184 -0.7061 0.5713
vn -0.4886 -0.6596 0.5711
vn -0.5573 -0.6816 0.4741
vn -0.4912 -0.7004 0.5179
vn -0.5428 -0.7036 0.4586
vn -0.6080 -0.7094 0.3565
vn -0.6124 -0.7053 0.3571
vn -0.6862 -0.6815 0.2543
vn -0.5886 -0.7061 0.3938
vn -0.6544 -0.6596 0.3696
vn -0.6859 -0.6816 0.2549
vn -0.6387 -0.7004 0.3187
vn -0.6669 -0.7036 0.2453
vn -0.6932 -0.7094 0.1272
vn -0.6976 -0.7053 0.1259
vn -0.7318 -0.6815 0.0042
vn -0.6878 -0.7061 0.1687
vn -0.7413 -0.6597 0.1234
vn -0.7317 -0.6816 0.0049
vn -0.7092 -0.7004 0.0810
vn -0.7105 -0.7037 0.0024
vn -0.6949 -0.7094 -0.1176
vn -0.6985 -0.7054 -0.1204
vn -0.6891 -0.6815 -0.2463
vn -0.7040 -0.7061 -0.0767
vn -0.7389 -0.6596 -0.1375
vn -0.6892 -0.6816 -0.2456
vn -0.6941 -0.7004 -0.1664
vn -0.6685 -0.7036 -0.2408
vn -0.6128 -0.7094 -0.3482
vn -0.6153 -0.7054 -0.3520
vn -0.5633 -0.6815 -0.4671
vn -0.6353 -0.7061 -0.3128
vn -0.6474 -0.6596 -0.3819
vn -0.5637 -0.6816 -0.4665
vn -0.5953 -0.7004 -0.3938
vn -0.5459 -0.7037 -0.4549
vn -0.4567 -0.7094 -0.5368
vn -0.4577 -0.7054 -0.5412
vn -0.3696 -0.6815 -0.6316
vn -0.4900 -0.7061 -0.5112
vn -0.4776 -0.6597 -0.5803
vn -0.3701 -0.6817 -0.6312
vn -0.4247 -0.7004 -0.5736
vn -0.3574 -0.7036 -0.6142
vn -0.2457 -0.7094 -0.6606
vn -0.2452 -0.7053 -0.6651
vn -0.1313 -0.6815 -0.7200
vn -0.2856 -0.7061 -0.6480
vn -0.2504 -0.6596 -0.7087
vn -0.1319 -0.6817 -0.7197
vn -0.2029 -0.7004 -0.6843
vn -0.1257 -0.7036 -0.6994
vn -0.0048 -0.7094 -0.7048
vn -0.0032 -0.7053 -0.7089
vn 0.1229 -0.6815 -0.7214
vn -0.0468 -0.7061 -0.7066
vn 0.0072 -0.6597 -0.7515
vn 0.1222 -0.6816 -0.7214
vn 0.0434 -0.7004 -0.7124
vn 0.1210 -0.7037 -0.7002
vn 0.2366 -0.7094 -0.6639
vn 0.2399 -0.7054 -0.6670
vn 0.3622 -0.6815 -0.6359
vn 0.1977 -0.7061 -0.6800
vn 0.2638 -0.6598 -0.7036
vn 0.3616 -0.6817 -0.6361
vn 0.2844 -0.7004 -0.6546
vn 0.3532 -0.7037 -0.6165
vn 0.4494 -0.7094 -0.5430
vn 0.4534 -0.7053 -0.5449
vn 0.5579 -0.6815 -0.4737
vn 0.4184 -0.7061 -0.5713
vn 0.4885 -0.6596 -0.5712
vn 0.5573 -0.6817 -0.4741
vn 0.4912 -0.7004 -0.5179
vn 0.5428 -0.7037 -0.4586
vn 0.6080 -0.7094 -0.3565
vn 0.6125 -0.7054 -0.3568
vn 0.6862 -0.6815 -0.2543
vn 0.5885 -0.7061 -0.3938
vn 0.6544 -0.6597 -0.3695
vn 0.6859 -0.6816 -0.2549
vn 0.6387 -0.7004 -0.3187
vn 0.6668 -0.7037 -0.2453
vn 0.6933 -0.7094 -0.1271
vn 0.6976 -0.7053 -0.1262
vn 0.6878 -0.7061 -0.1687
vn 0.7414 -0.6596 -0.1235
vn 0.7092 -0.7004 -0.0810
vn 0.3669 -0.9270 0.0777
vn 0.6353 -0.7646 0.1085
vn 0.3076 -0.9457 0.1051
vn 0.3385 -0.9410 -0.0029
vn 0.6275 -0.7761 0.0621
vn 0.6405 -0.7679 0.0020
vn 0.6246 -0.7651 0.1564
vn 0.6012 -0.7679 0.2210
vn 0.9113 -0.3834 0.1502
vn 0.9057 -0.3624 0.2198
vn 0.8647 -0.3896 0.3169
vn 0.9021 -0.4216 0.0924
vn 0.9210 -0.3897 0.0021
vn 0.3266 -0.9231 0.2029
vn 0.5599 -0.7646 0.3193
vn 0.2618 -0.9404 0.2169
vn 0.5684 -0.7761 0.2730
vn 0.5334 -0.7651 0.3606
vn 0.4894 -0.7680 0.4132
vn 0.8050 -0.3834 0.4528
vn 0.7758 -0.3624 0.5165
vn 0.7042 -0.3896 0.5936
vn 0.8161 -0.4216 0.3954
vn 0.2273 -0.9292 0.2916
vn 0.4170 -0.7646 0.4915
vn 0.1589 -0.9515 0.2635
vn 0.4408 -0.7761 0.4509
vn 0.3779 -0.7651 0.5213
vn 0.3185 -0.7680 0.5557
vn 0.6016 -0.3834 0.7008
vn 0.5524 -0.3624 0.7507
vn 0.4587 -0.3897 0.7986
vn 0.6316 -0.4216 0.6506
vn 0.1198 -0.9231 0.3654
vn 0.2237 -0.7645 0.6046
vn 0.0570 -0.9349 0.3502
vn 0.2599 -0.7761 0.5745
vn 0.1768 -0.7651 0.6191
vn 0.1092 -0.7679 0.6311
vn 0.3255 -0.3834 0.8643
vn 0.2625 -0.3624 0.8943
vn 0.1579 -0.3897 0.9073
vn 0.3710 -0.4216 0.8274
vn -0.0148 -0.9376 0.3474
vn 0.0035 -0.7646 0.6445
vn -0.0401 -0.9646 0.2608
vn 0.0478 -0.7761 0.6288
vn -0.0456 -0.7651 0.6423
vn -0.1132 -0.7679 0.6304
vn 0.0103 -0.3834 0.9235
vn -0.0594 -0.3624 0.9301
vn -0.1620 -0.3896 0.9066
vn 0.0656 -0.4216 0.9044
vn -0.1318 -0.9384 0.3193
vn -0.2172 -0.7645 0.6069
vn -0.1380 -0.9575 0.2532
vn -0.1702 -0.7761 0.6072
vn -0.2625 -0.7651 0.5879
vn -0.3220 -0.7679 0.5537
vn -0.3061 -0.3834 0.8714
vn -0.3739 -0.3624 0.8537
vn -0.4623 -0.3897 0.7965
vn -0.2477 -0.4216 0.8723
vn -0.2566 -0.9231 0.2864
vn -0.4116 -0.7646 0.4960
vn -0.2638 -0.9388 0.2215
vn -0.3676 -0.7761 0.5124
vn -0.4477 -0.7651 0.4627
vn -0.4919 -0.7680 0.4102
vn -0.5857 -0.3834 0.7141
vn -0.6433 -0.3624 0.6744
vn -0.7068 -0.3897 0.5904
vn -0.5311 -0.4216 0.7350
vn -0.3168 -0.9337 0.1667
vn -0.5565 -0.7646 0.3253
vn -0.2804 -0.9536 0.1097
vn -0.5206 -0.7761 0.3558
vn -0.5790 -0.7651 0.2817
vn -0.6026 -0.7680 0.2172
vn -0.7946 -0.3834 0.4707
vn -0.8352 -0.3624 0.4136
vn -0.8661 -0.3897 0.3130
vn -0.7504 -0.4216 0.5091
vn -0.3806 -0.9231 0.0546
vn -0.6341 -0.7646 0.1154
vn -0.3417 -0.9398 0.0013
vn -0.6109 -0.7761 0.1562
vn -0.6404 -0.7651 0.0666
vn -0.6405 -0.7680 -0.0020
vn -0.9077 -0.3834 0.1706
vn -0.9263 -0.3624 0.1031
vn -0.9210 -0.3897 -0.0021
vn -0.8793 -0.4216 0.2217
vn -0.3555 -0.9315 -0.0766
vn -0.6353 -0.7646 -0.1085
vn -0.2974 -0.9495 -0.1003
vn -0.6275 -0.7761 -0.0621
vn -0.6246 -0.7651 -0.1564
vn -0.6012 -0.7680 -0.2210
vn -0.9113 -0.3834 -0.1502
vn -0.9057 -0.3624 -0.2199
vn -0.8647 -0.3897 -0.3169
vn -0.9021 -0.4216 -0.0924
vn -0.3267 -0.9231 -0.2028
vn -0.5599 -0.7646 -0.3193
vn -0.2612 -0.9409 -0.2154
vn -0.5684 -0.7761 -0.2730
vn -0.5334 -0.7651 -0.3606
vn -0.4894 -0.7680 -0.4133
vn -0.8050 -0.3834 -0.4528
vn -0.7759 -0.3624 -0.5164
vn -0.7042 -0.3897 -0.5936
vn -0.8160 -0.4216 -0.3954
vn -0.2310 -0.9270 -0.2955
vn -0.4170 -0.7645 -0.4916
vn -0.1681 -0.9457 -0.2782
vn -0.4408 -0.7761 -0.4510
vn -0.3779 -0.7651 -0.5213
vn -0.3185 -0.7680 -0.5557
vn -0.6016 -0.3834 -0.7008
vn -0.5524 -0.3624 -0.7507
vn -0.4587 -0.3897 -0.7986
vn -0.6316 -0.4216 -0.6506
vn -0.1199 -0.9231 -0.3654
vn -0.2237 -0.7645 -0.6045
vn -0.0578 -0.9361 -0.3470
vn -0.2599 -0.7761 -0.5745
vn -0.1768 -0.7651 -0.6191
vn -0.1092 -0.7679 -0.6311
vn -0.3256 -0.3834 -0.8643
vn -0.2624 -0.3624 -0.8943
vn -0.1579 -0.3897 -0.9073
vn -0.3710 -0.4216 -0.8274
vn 0.0145 -0.9367 -0.3498
vn -0.0035 -0.7646 -0.6445
vn 0.0404 -0.9642 -0.2619
vn -0.0478 -0.7761 -0.6288
vn 0.0456 -0.7651 -0.6423
vn 0.1132 -0.7680 -0.6304
vn -0.0104 -0.3834 -0.9235
vn 0.0593 -0.3624 -0.9301
vn 0.1620 -0.3897 -0.9066
vn -0.0656 -0.4216 -0.9044
vn 0.1318 -0.9384 -0.3193
vn 0.2171 -0.7646 -0.6069
vn 0.1380 -0.9575 -0.2532
vn 0.1701 -0.7761 -0.6072
vn 0.2625 -0.7651 -0.5879
vn 0.3220 -0.7679 -0.5537
vn 0.3060 -0.3834 -0.8714
vn 0.3738 -0.3624 -0.8538
vn 0.4623 -0.3897 -0.7965
vn 0.2477 -0.4216 -0.8723
vn 0.2566 -0.9231 -0.2865
vn 0.4116 -0.7646 -0.4960
vn 0.2652 -0.9383 -0.2218
vn 0.3676 -0.7761 -0.5124
vn 0.4477 -0.7651 -0.4627
vn 0.4920 -0.7679 -0.4102
vn 0.5857 -0.3834 -0.7141
vn 0.6433 -0.3624 -0.6745
vn 0.7068 -0.3897 -0.5904
vn 0.5311 -0.4216 -0.7350
vn 0.3147 -0.9346 -0.1655
vn 0.5564 -0.7646 -0.3253
vn 0.2794 -0.9539 -0.1096
vn 0.5206 -0.7761 -0.3558
vn 0.5790 -0.7651 -0.2817
vn 0.6026 -0.7680 -0.2172
vn 0.7946 -0.3834 -0.4707
vn 0.8352 -0.3624 -0.4137
vn 0.8661 -0.3897 -0.3130
vn 0.7504 -0.4216 -0.5091
vn 0.3807 -0.9231 -0.0545
vn 0.6341 -0.7646 -0.1154
vn 0.6109 -0.7761 -0.1562
vn 0.6404 -0.7651 -0.0666
vn 0.9077 -0.3834 -0.1706
vn 0.9263 -0.3624 -0.1032
vn 0.8793 -0.4216 -0.2217
vn 0.0690 -0.9976 0.0069
vn 0.1348 -0.9901 0.0382
vn 0.1064 -0.9936 0.0375
vn 0.1502 -0.9887 -0.0036
vn 0.1022 -0.9947 0.0115
vn 0.0737 -0.9966 0.0361
vn 0.1421 -0.9846 0.1015
vn 0.1179 -0.9885 0.0949
vn 0.0720 -0.9968 0.0336
vn 0.0433 -0.9981 0.0444
vn 0.0659 -0.9930 0.0979
vn 0.0501 -0.9953 0.0827
vn 0.0720 -0.9944 0.0772
vn 0.0331 -0.9967 0.0742
vn 0.0436 -0.9846 0.1691
vn 0.0265 -0.9865 0.1613
vn 0.0289 -0.9978 0.0596
vn 0.0033 -0.9994 0.0336
vn -0.0079 -0.9982 0.0589
vn -0.0073 -0.9992 0.0404
vn -0.0017 -0.9907 0.1361
vn -0.0071 -0.9995 0.0317
vn -0.0352 -0.9969 0.0704
vn -0.0000 -1.0000 0.0006
vn -0.0296 -0.9982 0.0524
vn -0.0001 -1.0000 0.0004
vn -0.0047 -0.9998 0.0183
vn -0.0465 -0.9967 0.0659
vn -0.1246 -0.9846 0.1223
vn -0.0064 -1.0000 0.0066
vn -0.1175 -0.9880 0.1007
vn -0.0013 -1.0000 0.0019
vn -0.0250 -0.9989 0.0401
vn -0.0393 -0.9989 0.0273
vn -0.0888 -0.9953 0.0390
vn -0.0007 -1.0000 0.0005
vn -0.0710 -0.9971 0.0261
vn -0.0023 -1.0000 0.0010
vn -0.0977 -0.9934 0.0604
vn -0.0786 -0.9967 0.0204
vn -0.1741 -0.9846 0.0136
vn -0.0094 -1.0000 0.0009
vn -0.1526 -0.9883 0.0025
vn -0.0027 -1.0000 0.0007
vn -0.0556 -0.9983 0.0167
vn -0.0547 -0.9985 -0.0052
vn -0.1096 -0.9935 -0.0316
vn -0.0012 -1.0000 -0.0001
vn -0.0839 -0.9960 -0.0308
vn -0.0030 -1.0000 -0.0007
vn -0.1086 -0.9940 -0.0142
vn -0.0737 -0.9966 -0.0355
vn -0.1421 -0.9846 -0.1015
vn -0.0078 -1.0000 -0.0054
vn -0.1173 -0.9887 -0.0938
vn -0.0030 -1.0000 -0.0015
vn -0.0623 -0.9977 -0.0281
vn -0.0484 -0.9976 -0.0496
vn -0.0787 -0.9901 -0.1159
vn -0.0017 -1.0000 -0.0028
vn -0.0574 -0.9936 -0.0971
vn -0.0024 -1.0000 -0.0028
vn -0.0705 -0.9947 -0.0744
vn -0.0338 -0.9966 -0.0749
vn -0.0436 -0.9846 -0.1691
vn -0.0024 -1.0000 -0.0092
vn -0.0271 -0.9869 -0.1588
vn -0.0013 -1.0000 -0.0043
vn -0.0336 -0.9968 -0.0720
vn -0.0035 -0.9993 -0.0366
vn 0.0082 -0.9980 -0.0624
vn 0.0078 -0.9990 -0.0434
vn 0.0006 -1.0000 -0.0021
vn 0.0003 -0.9916 -0.1297
vn 0.0069 -0.9995 -0.0316
vn 0.0352 -0.9969 -0.0704
vn 0.0297 -0.9982 -0.0524
vn 0.0050 -0.9998 -0.0189
vn 0.0467 -0.9967 -0.0657
vn 0.1246 -0.9846 -0.1223
vn 0.1185 -0.9878 -0.1010
vn 0.0249 -0.9989 -0.0401
vn 0.0365 -0.9990 -0.0256
vn 0.0855 -0.9956 -0.0374
vn 0.0675 -0.9974 -0.0245
vn 0.1002 -0.9931 -0.0612
vn 0.0790 -0.9967 -0.0197
vn 0.1741 -0.9846 -0.0136
vn 0.0541 -0.9984 -0.0164
vn 1.0000 -0.0000 -0.0000
vn -1.0000 -0.0000 -0.0000
vn -0.0000 -0.0000 1.0000
vn -0.0000 1.0000 -0.0000
vn -0.0000 -0.0000 -1.0000
vt 0.060239 0.283850
vt 0.061562 0.283851
vt 0.060239 0.285061
vt 0.060239 0.282639
vt 0.061121 0.283452
vt 0.061562 0.282685
vt 0.062884 0.282639
vt 0.062884 0.283850
vt 0.062884 0.285061
vt 0.062002 0.284255
vt 0.061562 0.285076
vt 0.060239 0.281652
vt 0.061562 0.281653
vt 0.060239 0.280665
vt 0.061121 0.281323
vt 0.061562 0.280665
vt 0.062884 0.280665
vt 0.062884 0.281652
vt 0.062002 0.281987
vt 0.052103 0.281652
vt 0.050781 0.281653
vt 0.052103 0.280665
vt 0.052103 0.282639
vt 0.051222 0.281987
vt 0.050781 0.282685
vt 0.049459 0.282639
vt 0.049459 0.281652
vt 0.049459 0.280665
vt 0.050340 0.281323
vt 0.050781 0.280665
vt 0.052103 0.283850
vt 0.050781 0.283851
vt 0.052103 0.285061
vt 0.051222 0.284255
vt 0.050787 0.285076
vt 0.049459 0.285061
vt 0.049459 0.283850
vt 0.050340 0.283452
vt 0.052103 0.286349
vt 0.050787 0.286349
vt 0.052103 0.287638
vt 0.051222 0.286776
vt 0.050781 0.287622
vt 0.049459 0.287638
vt 0.049718 0.286348
vt 0.050376 0.285922
vt 0.052103 0.288849
vt 0.050781 0.288848
vt 0.052103 0.290059
vt 0.051222 0.289252
vt 0.050781 0.290059
vt 0.049459 0.290059
vt 0.049459 0.288849
vt 0.050340 0.288443
vt 0.057493 0.281652
vt 0.056171 0.281653
vt 0.057493 0.280665
vt 0.057493 0.282639
vt 0.056612 0.281987
vt 0.056171 0.282685
vt 0.054849 0.282639
vt 0.054849 0.281652
vt 0.054849 0.280665
vt 0.055731 0.281323
vt 0.056171 0.280665
vt 0.057493 0.283850
vt 0.056171 0.283851
vt 0.057493 0.285061
vt 0.056612 0.284255
vt 0.056177 0.285076
vt 0.054849 0.285061
vt 0.054849 0.283850
vt 0.055731 0.283452
vt 0.057493 0.286349
vt 0.056177 0.286349
vt 0.057493 0.287638
vt 0.056612 0.286776
vt 0.056171 0.287622
vt 0.054849 0.287638
vt 0.055108 0.286348
vt 0.055766 0.285922
vt 0.057493 0.288849
vt 0.056171 0.288847
vt 0.057493 0.290059
vt 0.056612 0.289246
vt 0.056171 0.290014
vt 0.054849 0.290059
vt 0.054849 0.288849
vt 0.055731 0.288443
vt 0.057493 0.291046
vt 0.056171 0.291045
vt 0.057493 0.292034
vt 0.056612 0.291375
vt 0.056171 0.292034
vt 0.054849 0.292033
vt 0.054849 0.291046
vt 0.055731 0.290711
vt 0.042878 0.281652
vt 0.041556 0.281653
vt 0.042878 0.280665
vt 0.042878 0.282639
vt 0.041996 0.281987
vt 0.041556 0.282685
vt 0.040234 0.282639
vt 0.040234 0.281652
vt 0.040234 0.280665
vt 0.041115 0.281323
vt 0.041556 0.280665
vt 0.042878 0.283850
vt 0.041556 0.283851
vt 0.042878 0.285061
vt 0.041996 0.284255
vt 0.041562 0.285076
vt 0.040234 0.285061
vt 0.040234 0.283850
vt 0.041115 0.283452
vt 0.042878 0.286349
vt 0.041562 0.286349
vt 0.042878 0.287638
vt 0.041996 0.286776
vt 0.041556 0.287622
vt 0.040234 0.287638
vt 0.040493 0.286348
vt 0.041150 0.285922
vt 0.042878 0.288849
vt 0.041556 0.288847
vt 0.042878 0.290059
vt 0.041996 0.289246
vt 0.041556 0.290014
vt 0.040234 0.290059
vt 0.040234 0.288849
vt 0.041115 0.288443
vt 0.042878 0.291046
vt 0.041556 0.291045
vt 0.042878 0.292034
vt 0.041996 0.291375
vt 0.041556 0.292034
vt 0.040234 0.292033
vt 0.040234 0.291046
vt 0.041115 0.290711
vt 0.060239 0.288849
vt 0.061562 0.288848
vt 0.060239 0.290059
vt 0.060239 0.287638
vt 0.061121 0.288443
vt 0.061562 0.287622
vt 0.062884 0.287638
vt 0.062884 0.288849
vt 0.062884 0.290059
vt 0.062002 0.289252
vt 0.061562 0.290059
vt 0.060239 0.286349
vt 0.061562 0.286349
vt 0.061121 0.285922
vt 0.062884 0.286349
vt 0.062002 0.286776
vt 0.194328 0.282505
vt 0.192520 0.283680
vt 0.193685 0.280174
vt 0.194971 0.284836
vt 0.194192 0.284719
vt 0.194584 0.289658
vt 0.194777 0.287247
vt 0.181106 0.286150
vt 0.180185 0.282696
vt 0.167628 0.282643
vt 0.177018 0.283341
vt 0.169640 0.278244
vt 0.168634 0.280444
vt 0.173646 0.275444
vt 0.175554 0.276820
vt 0.173036 0.274800
vt 0.171338 0.276522
vt 0.175220 0.273762
vt 0.177405 0.272724
vt 0.185102 0.280785
vt 0.180442 0.280167
vt 0.188361 0.280769
vt 0.186545 0.277458
vt 0.182336 0.272913
vt 0.183330 0.273753
vt 0.182220 0.272268
vt 0.179812 0.272496
vt 0.184560 0.272877
vt 0.186901 0.273486
vt 0.189091 0.276389
vt 0.186131 0.275625
vt 0.192284 0.278203
vt 0.188892 0.274859
vt 0.190882 0.276232
vt 0.190319 0.276565
vt 0.060891 0.266729
vt 0.060824 0.266472
vt 0.062037 0.266614
vt 0.059774 0.266977
vt 0.060460 0.266633
vt 0.059552 0.266368
vt 0.059663 0.266673
vt 0.060800 0.266222
vt 0.062037 0.266127
vt 0.061219 0.266315
vt 0.062031 0.266354
vt 0.063188 0.266728
vt 0.063212 0.266476
vt 0.064306 0.267007
vt 0.062813 0.266505
vt 0.063276 0.266231
vt 0.064472 0.266550
vt 0.063639 0.266453
vt 0.064389 0.266761
vt 0.065348 0.267509
vt 0.065457 0.267280
vt 0.066303 0.268153
vt 0.065072 0.267170
vt 0.065601 0.267071
vt 0.066616 0.267780
vt 0.065866 0.267404
vt 0.066465 0.267951
vt 0.067116 0.268980
vt 0.067295 0.268803
vt 0.067831 0.269909
vt 0.066969 0.268569
vt 0.067511 0.268650
vt 0.068392 0.269586
vt 0.067640 0.269058
vt 0.068025 0.269772
vt 0.068227 0.270998
vt 0.068512 0.270858
vt 0.068624 0.272086
vt 0.068272 0.270533
vt 0.068826 0.270780
vt 0.069261 0.271974
vt 0.068748 0.271217
vt 0.068855 0.272023
vt 0.068672 0.273229
vt 0.068936 0.273208
vt 0.068588 0.274378
vt 0.068830 0.272820
vt 0.069190 0.273227
vt 0.069068 0.274463
vt 0.069024 0.273625
vt 0.068845 0.274417
vt 0.068275 0.275492
vt 0.068519 0.275559
vt 0.067806 0.276544
vt 0.068561 0.275161
vt 0.068750 0.275664
vt 0.068228 0.276788
vt 0.068468 0.275984
vt 0.068034 0.276668
vt 0.067133 0.277488
vt 0.067339 0.277636
vt 0.066342 0.278354
vt 0.067513 0.277272
vt 0.067528 0.277822
vt 0.066758 0.278849
vt 0.067153 0.278028
vt 0.066550 0.278602
vt 0.049061 0.287151
vt 0.049305 0.287043
vt 0.049305 0.288298
vt 0.048718 0.286057
vt 0.049116 0.286711
vt 0.049305 0.285787
vt 0.049012 0.285922
vt 0.065658 0.279485
vt 0.065547 0.279181
vt 0.064557 0.280120
vt 0.065216 0.279482
vt 0.064336 0.279512
vt 0.064439 0.279729
vt 0.063219 0.279758
vt 0.063286 0.280014
vt 0.062073 0.279875
vt 0.063649 0.279843
vt 0.063311 0.280268
vt 0.062073 0.280362
vt 0.062891 0.280173
vt 0.062079 0.280135
vt 0.060922 0.279760
vt 0.060898 0.280012
vt 0.059804 0.279482
vt 0.061297 0.279984
vt 0.060834 0.280258
vt 0.059638 0.279939
vt 0.060471 0.280036
vt 0.059721 0.279727
vt 0.058762 0.278980
vt 0.058653 0.279209
vt 0.057807 0.278336
vt 0.059037 0.279318
vt 0.058509 0.279417
vt 0.057494 0.278709
vt 0.058244 0.279084
vt 0.057645 0.278538
vt 0.056994 0.277509
vt 0.056815 0.277685
vt 0.056279 0.276579
vt 0.057141 0.277920
vt 0.056599 0.277839
vt 0.055718 0.276903
vt 0.056470 0.277431
vt 0.056085 0.276716
vt 0.055882 0.275491
vt 0.055598 0.275631
vt 0.055486 0.274403
vt 0.055838 0.275955
vt 0.055284 0.275709
vt 0.054849 0.274515
vt 0.055362 0.275271
vt 0.055255 0.274465
vt 0.055438 0.273259
vt 0.055174 0.273281
vt 0.055522 0.272111
vt 0.055280 0.273668
vt 0.054920 0.273262
vt 0.055042 0.272026
vt 0.055086 0.272864
vt 0.055265 0.272072
vt 0.055835 0.270997
vt 0.055591 0.270929
vt 0.056304 0.269945
vt 0.055549 0.271327
vt 0.055360 0.270824
vt 0.055882 0.269701
vt 0.055642 0.270505
vt 0.056076 0.269820
vt 0.056976 0.269001
vt 0.056771 0.268853
vt 0.057768 0.268135
vt 0.056597 0.269217
vt 0.056582 0.268667
vt 0.057352 0.267639
vt 0.056957 0.268460
vt 0.057560 0.267887
vt 0.049311 0.284470
vt 0.048995 0.284516
vt 0.049265 0.283313
vt 0.049357 0.285628
vt 0.049115 0.284899
vt 0.048725 0.285765
vt 0.049041 0.285696
vt 0.048729 0.284506
vt 0.048624 0.283226
vt 0.048878 0.284100
vt 0.048944 0.283269
vt 0.060929 0.266896
vt 0.060917 0.266838
vt 0.062048 0.266799
vt 0.059809 0.267074
vt 0.060549 0.266924
vt 0.059816 0.267103
vt 0.061291 0.266751
vt 0.062049 0.266718
vt 0.060786 0.266048
vt 0.060789 0.266118
vt 0.059517 0.266271
vt 0.062055 0.265824
vt 0.061208 0.266025
vt 0.062050 0.265982
vt 0.060378 0.266214
vt 0.059562 0.266407
vt 0.063167 0.266902
vt 0.063176 0.266838
vt 0.064253 0.267186
vt 0.062801 0.266795
vt 0.063557 0.266883
vt 0.064282 0.267110
vt 0.063324 0.266048
vt 0.063302 0.266115
vt 0.064593 0.266271
vt 0.063729 0.266171
vt 0.064534 0.266418
vt 0.062883 0.266070
vt 0.065269 0.267665
vt 0.065299 0.267608
vt 0.066193 0.268303
vt 0.064962 0.267439
vt 0.065642 0.267780
vt 0.066246 0.268241
vt 0.065709 0.266916
vt 0.065665 0.266972
vt 0.066825 0.267560
vt 0.066047 0.267170
vt 0.066719 0.267678
vt 0.065287 0.266786
vt 0.066992 0.269097
vt 0.067041 0.269052
vt 0.067742 0.269961
vt 0.066775 0.268782
vt 0.067309 0.269330
vt 0.067787 0.269935
vt 0.067653 0.268547
vt 0.067608 0.268578
vt 0.068481 0.269534
vt 0.067900 0.268894
vt 0.068437 0.269560
vt 0.067306 0.268278
vt 0.048420 0.284140
vt 0.048471 0.284134
vt 0.048420 0.285280
vt 0.048420 0.282999
vt 0.048454 0.283754
vt 0.048522 0.282981
vt 0.048471 0.282990
vt 0.048522 0.284140
vt 0.048522 0.285298
vt 0.048488 0.284520
vt 0.048471 0.285289
vt 0.049414 0.286344
vt 0.049460 0.286773
vt 0.049357 0.287620
vt 0.049408 0.287629
vt 0.049357 0.286349
vt 0.049357 0.285079
vt 0.049391 0.285920
vt 0.049408 0.285070
vt 0.068505 0.273237
vt 0.068563 0.273236
vt 0.068404 0.274357
vt 0.068522 0.272104
vt 0.068552 0.272857
vt 0.068573 0.272095
vt 0.068582 0.273619
vt 0.068483 0.274372
vt 0.069363 0.273244
vt 0.069295 0.273234
vt 0.069363 0.271956
vt 0.069363 0.274533
vt 0.069311 0.273664
vt 0.069208 0.274500
vt 0.069282 0.272812
vt 0.069312 0.271965
vt 0.068108 0.275441
vt 0.068169 0.275461
vt 0.067640 0.276461
vt 0.068277 0.275099
vt 0.068059 0.275828
vt 0.067710 0.276502
vt 0.068922 0.275744
vt 0.068859 0.275711
vt 0.068481 0.276954
vt 0.068730 0.276121
vt 0.068347 0.276871
vt 0.068977 0.275306
vt 0.066997 0.277386
vt 0.067049 0.277427
vt 0.066276 0.278274
vt 0.067270 0.277118
vt 0.066822 0.277739
vt 0.066309 0.278314
vt 0.067653 0.277942
vt 0.067615 0.277903
vt 0.066825 0.278929
vt 0.067354 0.278244
vt 0.066792 0.278889
vt 0.067857 0.277553
vt 0.048913 0.287204
vt 0.048962 0.287185
vt 0.049202 0.288307
vt 0.048624 0.286101
vt 0.048848 0.286822
vt 0.048671 0.286079
vt 0.049082 0.287551
vt 0.049254 0.288302
vt 0.054804 0.286344
vt 0.054850 0.286773
vt 0.054747 0.287620
vt 0.054798 0.287629
vt 0.054747 0.286349
vt 0.054747 0.285079
vt 0.054781 0.285920
vt 0.054798 0.285070
vt 0.063182 0.279595
vt 0.063193 0.279652
vt 0.062062 0.279690
vt 0.064301 0.279415
vt 0.063564 0.279575
vt 0.064319 0.279464
vt 0.062819 0.279737
vt 0.062061 0.279771
vt 0.063324 0.280441
vt 0.063322 0.280372
vt 0.064593 0.280217
vt 0.062055 0.280665
vt 0.062901 0.280463
vt 0.062060 0.280507
vt 0.063736 0.280287
vt 0.064575 0.280169
vt 0.060943 0.279586
vt 0.060934 0.279651
vt 0.059857 0.279303
vt 0.061309 0.279694
vt 0.060553 0.279606
vt 0.059828 0.279379
vt 0.060786 0.280441
vt 0.060808 0.280374
vt 0.059517 0.280217
vt 0.060381 0.280318
vt 0.059576 0.280071
vt 0.061227 0.280419
vt 0.058840 0.278824
vt 0.058811 0.278881
vt 0.057917 0.278186
vt 0.059148 0.279050
vt 0.058468 0.278709
vt 0.057864 0.278248
vt 0.058401 0.279573
vt 0.058445 0.279517
vt 0.057285 0.278929
vt 0.058063 0.279319
vt 0.057391 0.278811
vt 0.058823 0.279703
vt 0.057118 0.277392
vt 0.057069 0.277436
vt 0.056368 0.276528
vt 0.057335 0.277707
vt 0.056801 0.277159
vt 0.056323 0.276554
vt 0.056457 0.277942
vt 0.056502 0.277911
vt 0.055629 0.276955
vt 0.056210 0.277595
vt 0.055673 0.276929
vt 0.056804 0.278210
vt 0.048573 0.284134
vt 0.048522 0.285280
vt 0.048522 0.282999
vt 0.048556 0.283754
vt 0.048624 0.282981
vt 0.048573 0.282990
vt 0.048624 0.284140
vt 0.048624 0.285298
vt 0.048590 0.284520
vt 0.048573 0.285289
vt 0.040189 0.286344
vt 0.040235 0.286773
vt 0.040132 0.287620
vt 0.040183 0.287629
vt 0.040132 0.286349
vt 0.040132 0.285079
vt 0.040166 0.285920
vt 0.040183 0.285070
vt 0.055605 0.273252
vt 0.055547 0.273253
vt 0.055707 0.272132
vt 0.055588 0.274385
vt 0.055558 0.273631
vt 0.055537 0.274394
vt 0.055528 0.272869
vt 0.055627 0.272117
vt 0.054747 0.273244
vt 0.054815 0.273254
vt 0.054747 0.274533
vt 0.054747 0.271956
vt 0.054799 0.272824
vt 0.054902 0.271988
vt 0.054828 0.273677
vt 0.054798 0.274524
vt 0.056002 0.271047
vt 0.055941 0.271028
vt 0.056470 0.270028
vt 0.055833 0.271390
vt 0.056051 0.270660
vt 0.056400 0.269986
vt 0.055188 0.270745
vt 0.055251 0.270778
vt 0.055629 0.269534
vt 0.055380 0.270368
vt 0.055763 0.269618
vt 0.055133 0.271183
vt 0.057113 0.269103
vt 0.057061 0.269062
vt 0.057834 0.268214
vt 0.056840 0.269371
vt 0.057288 0.268750
vt 0.057801 0.268175
vt 0.056457 0.268547
vt 0.056495 0.268586
vt 0.057285 0.267560
vt 0.056755 0.268244
vt 0.057318 0.267600
vt 0.056253 0.268935
vt 0.048319 0.284365
vt 0.048268 0.284376
vt 0.048268 0.283226
vt 0.048369 0.285504
vt 0.048302 0.284752
vt 0.048268 0.285527
vt 0.048319 0.285515
vt 0.058771 0.267556
vt 0.058788 0.267604
vt 0.059120 0.267406
vt 0.058401 0.266916
vt 0.058419 0.266964
vt 0.058789 0.266745
vt 0.048624 0.284507
vt 0.048665 0.284928
vt 0.048624 0.285787
vt 0.048674 0.285776
vt 0.060938 0.266964
vt 0.061306 0.266882
vt 0.062055 0.266848
vt 0.062049 0.266852
vt 0.060961 0.267041
vt 0.059860 0.267231
vt 0.059867 0.267234
vt 0.060581 0.267062
vt 0.063153 0.266970
vt 0.063527 0.267013
vt 0.064242 0.267234
vt 0.064236 0.267235
vt 0.063149 0.267041
vt 0.062784 0.266935
vt 0.065233 0.267724
vt 0.065569 0.267892
vt 0.066166 0.268345
vt 0.066159 0.268343
vt 0.065204 0.267789
vt 0.064898 0.267564
vt 0.066930 0.269143
vt 0.067191 0.269415
vt 0.067594 0.270046
vt 0.067596 0.270039
vt 0.066880 0.269196
vt 0.066669 0.268879
vt 0.068132 0.271033
vt 0.068046 0.271054
vt 0.068195 0.271401
vt 0.068354 0.272134
vt 0.068358 0.272127
vt 0.067974 0.271090
vt 0.067887 0.270719
vt 0.068434 0.273235
vt 0.068451 0.273611
vt 0.068354 0.274355
vt 0.068351 0.274348
vt 0.068354 0.273244
vt 0.068399 0.272866
vt 0.068044 0.275416
vt 0.067937 0.275776
vt 0.067594 0.276442
vt 0.067594 0.276435
vt 0.067974 0.275399
vt 0.068142 0.275058
vt 0.066940 0.277333
vt 0.066718 0.277637
vt 0.066166 0.278144
vt 0.066174 0.278144
vt 0.066880 0.277293
vt 0.067155 0.277030
vt 0.065288 0.278845
vt 0.065252 0.278764
vt 0.064936 0.278971
vt 0.064242 0.279254
vt 0.064250 0.279258
vt 0.065204 0.278699
vt 0.065554 0.278549
vt 0.063172 0.279525
vt 0.062804 0.279607
vt 0.062055 0.279640
vt 0.062061 0.279637
vt 0.063149 0.279447
vt 0.063529 0.279426
vt 0.060957 0.279519
vt 0.060583 0.279476
vt 0.059867 0.279254
vt 0.059874 0.279253
vt 0.060961 0.279447
vt 0.061326 0.279554
vt 0.058877 0.278765
vt 0.058540 0.278597
vt 0.057944 0.278144
vt 0.057951 0.278145
vt 0.058906 0.278699
vt 0.059212 0.278924
vt 0.057180 0.277345
vt 0.056919 0.277074
vt 0.056516 0.276442
vt 0.056514 0.276450
vt 0.057230 0.277293
vt 0.057441 0.277609
vt 0.055978 0.275456
vt 0.056064 0.275435
vt 0.055915 0.275087
vt 0.055756 0.274355
vt 0.055752 0.274362
vt 0.056136 0.275399
vt 0.056223 0.275769
vt 0.055676 0.273254
vt 0.055659 0.272877
vt 0.055756 0.272134
vt 0.055758 0.272140
vt 0.055756 0.273244
vt 0.055711 0.273622
vt 0.056066 0.271073
vt 0.056173 0.270713
vt 0.056516 0.270046
vt 0.056516 0.270053
vt 0.056136 0.271090
vt 0.055968 0.271431
vt 0.057170 0.269156
vt 0.057392 0.268851
vt 0.057944 0.268345
vt 0.057936 0.268344
vt 0.057230 0.269196
vt 0.056955 0.269458
vt 0.058822 0.267644
vt 0.058858 0.267724
vt 0.059174 0.267517
vt 0.058906 0.267789
vt 0.058556 0.267939
vt 0.182400 0.299804
vt 0.178846 0.297643
vt 0.184807 0.299576
vt 0.179992 0.300032
vt 0.179863 0.299256
vt 0.177652 0.299423
vt 0.175311 0.298814
vt 0.173320 0.297441
vt 0.171461 0.294275
vt 0.171329 0.296069
vt 0.171655 0.295500
vt 0.169928 0.294098
vt 0.168527 0.292127
vt 0.167884 0.289795
vt 0.168742 0.288552
vt 0.167241 0.287464
vt 0.167888 0.287571
vt 0.167435 0.285053
vt 0.172539 0.291759
vt 0.170654 0.291327
vt 0.177783 0.292179
vt 0.176101 0.293750
vt 0.182043 0.289619
vt 0.185194 0.288959
vt 0.192571 0.294056
vt 0.193578 0.291857
vt 0.181864 0.292226
vt 0.186674 0.295496
vt 0.186992 0.298538
vt 0.188566 0.296857
vt 0.189176 0.297501
vt 0.190874 0.295778
vt 0.623047 0.749300
vt 0.621367 0.752501
vt 0.621367 0.749300
vt 0.619687 0.752501
vt 0.619687 0.749300
vt 0.628087 0.743016
vt 0.626407 0.752501
vt 0.626407 0.743016
vt 0.628087 0.761985
vt 0.618603 0.758785
vt 0.628087 0.758785
vt 0.624727 0.752501
vt 0.624727 0.743016
vt 0.628087 0.761985
vt 0.631288 0.752501
vt 0.631288 0.761985
vt 0.623047 0.752501
vt 0.628087 0.752501
vt 0.618603 0.761985
vt 0.626407 0.752501
s 1
f 109/1/1 111/2/2 1/3/3
f 2/4/4 412/5/5 109/1/1
f 111/2/2 110/6/6 20/7/7
f 112/8/8 111/2/2 20/7/7
f 19/9/9 413/10/10 112/8/8
f 111/2/2 113/11/11 1/3/3
f 114/12/12 116/13/13 2/4/4
f 3/14/14 414/15/15 114/12/12
f 116/13/13 115/16/16 21/17/17
f 117/18/18 116/13/13 21/17/17
f 20/7/7 415/19/19 117/18/18
f 116/13/13 110/6/6 2/4/4
f 118/20/20 120/21/21 3/22/14
f 4/23/22 416/24/23 118/20/20
f 120/21/21 119/25/24 22/26/25
f 121/27/26 120/21/21 22/26/25
f 21/28/17 417/29/27 121/27/26
f 120/21/21 115/30/16 3/22/14
f 122/31/28 124/32/29 4/23/22
f 5/33/30 418/34/31 122/31/28
f 124/32/29 123/35/32 23/36/33
f 125/37/34 124/32/29 23/36/33
f 22/26/25 419/38/35 125/37/34
f 124/32/29 119/25/24 4/23/22
f 126/39/36 128/40/37 5/33/30
f 6/41/38 420/42/39 126/39/36
f 128/40/37 127/43/40 24/44/41
f 129/45/42 128/40/37 24/44/41
f 23/36/33 421/46/43 129/45/42
f 128/40/37 123/35/32 5/33/30
f 130/47/44 132/48/45 6/41/38
f 7/49/46 422/50/47 130/47/44
f 132/48/45 131/51/48 25/52/49
f 133/53/50 132/48/45 25/52/49
f 24/44/41 423/54/51 133/53/50
f 132/48/45 127/43/40 6/41/38
f 134/55/52 136/56/53 7/57/46
f 8/58/54 424/59/55 134/55/52
f 136/56/53 135/60/56 26/61/57
f 137/62/58 136/56/53 26/61/57
f 25/63/49 425/64/59 137/62/58
f 136/56/53 131/65/48 7/57/46
f 138/66/60 140/67/61 8/58/54
f 9/68/62 426/69/63 138/66/60
f 140/67/61 139/70/64 27/71/65
f 141/72/66 140/67/61 27/71/65
f 26/61/57 427/73/67 141/72/66
f 140/67/61 135/60/56 8/58/54
f 142/74/68 144/75/69 9/68/62
f 10/76/70 428/77/71 142/74/68
f 144/75/69 143/78/72 28/79/73
f 145/80/74 144/75/69 28/79/73
f 27/71/65 429/81/75 145/80/74
f 144/75/69 139/70/64 9/68/62
f 146/82/76 148/83/77 10/76/70
f 11/84/78 430/85/79 146/82/76
f 148/83/77 147/86/80 29/87/81
f 149/88/82 148/83/77 29/87/81
f 28/79/73 431/89/83 149/88/82
f 148/83/77 143/78/72 10/76/70
f 150/90/84 152/91/85 11/84/78
f 12/92/86 432/93/87 150/90/84
f 152/91/85 151/94/88 30/95/89
f 153/96/90 152/91/85 30/95/89
f 29/87/81 433/97/91 153/96/90
f 152/91/85 147/86/80 11/84/78
f 154/98/92 156/99/93 12/100/86
f 13/101/94 434/102/95 154/98/92
f 156/99/93 155/103/96 31/104/97
f 157/105/98 156/99/93 31/104/97
f 30/106/89 435/107/99 157/105/98
f 156/99/93 151/108/88 12/100/86
f 158/109/100 160/110/101 13/101/94
f 14/111/102 436/112/103 158/109/100
f 160/110/101 159/113/104 32/114/105
f 161/115/106 160/110/101 32/114/105
f 31/104/97 437/116/107 161/115/106
f 160/110/101 155/103/96 13/101/94
f 162/117/108 164/118/109 14/111/102
f 15/119/110 438/120/111 162/117/108
f 164/118/109 163/121/112 33/122/113
f 165/123/114 164/118/109 33/122/113
f 32/114/105 439/124/115 165/123/114
f 164/118/109 159/113/104 14/111/102
f 166/125/116 168/126/117 15/119/110
f 16/127/118 440/128/119 166/125/116
f 168/126/117 167/129/120 34/130/121
f 169/131/122 168/126/117 34/130/121
f 33/122/113 441/132/123 169/131/122
f 168/126/117 163/121/112 15/119/110
f 170/133/124 172/134/125 16/127/118
f 17/135/126 442/136/127 170/133/124
f 172/134/125 171/137/128 35/138/129
f 173/139/130 172/134/125 35/138/129
f 34/130/121 443/140/131 173/139/130
f 172/134/125 167/129/120 16/127/118
f 174/141/132 176/142/133 17/143/126
f 18/144/134 444/145/135 174/141/132
f 176/142/133 175/146/136 36/147/137
f 177/148/138 176/142/133 36/147/137
f 35/149/129 445/150/139 177/148/138
f 176/142/133 171/151/128 17/143/126
f 178/152/140 179/153/141 18/144/134
f 1/3/3 446/154/142 178/152/140
f 179/153/141 113/11/11 19/9/9
f 180/155/143 179/153/141 19/9/9
f 36/147/137 447/156/144 180/155/143
f 179/153/141 175/146/136 18/144/134
f 181/157/145 183/158/146 94/159/147
f 95/160/148 448/161/146 181/157/145
f 96/162/149 448/161/146 182/163/150
f 184/164/146 186/165/146 96/162/149
f 105/166/151 449/167/146 184/164/146
f 106/168/152 449/167/146 185/169/153
f 106/168/152 450/170/146 189/171/146
f 107/172/154 450/170/146 187/173/155
f 189/171/146 188/174/156 108/175/157
f 186/165/146 190/176/146 96/162/149
f 189/171/146 186/165/146 106/168/152
f 108/175/157 451/177/146 189/171/146
f 94/159/147 452/178/146 191/179/146
f 96/162/149 452/178/146 183/158/146
f 191/179/146 190/176/146 108/175/157
f 108/175/157 453/180/146 194/181/146
f 91/182/158 453/180/146 192/183/159
f 194/181/146 193/184/160 92/185/161
f 191/179/146 195/186/146 94/159/147
f 194/181/146 191/179/146 108/175/157
f 92/185/161 454/187/146 194/181/146
f 195/186/146 197/188/162 94/159/147
f 196/189/163 195/186/146 92/185/161
f 93/190/164 455/191/146 196/189/163
f 198/192/165 200/193/166 57/194/167
f 55/195/168 456/196/169 198/192/165
f 56/197/170 456/196/169 199/198/171
f 201/199/172 200/193/166 56/197/170
f 58/200/173 457/201/174 201/199/172
f 57/194/167 457/201/174 202/202/175
f 203/203/176 204/204/177 59/205/178
f 57/194/167 458/206/179 203/203/176
f 58/200/173 458/206/179 202/202/175
f 205/207/180 204/204/177 58/200/173
f 60/208/181 459/209/182 205/207/180
f 59/205/178 459/209/182 206/210/183
f 207/211/184 208/212/185 61/213/186
f 59/205/178 460/214/187 207/211/184
f 60/208/181 460/214/187 206/210/183
f 209/215/188 208/212/185 60/208/181
f 62/216/189 461/217/190 209/215/188
f 61/213/186 461/217/190 210/218/191
f 211/219/192 212/220/193 63/221/194
f 61/213/186 462/222/195 211/219/192
f 62/216/189 462/222/195 210/218/191
f 213/223/196 212/220/193 62/216/189
f 64/224/197 463/225/198 213/223/196
f 63/221/194 463/225/198 214/226/199
f 215/227/200 216/228/201 65/229/202
f 63/221/194 464/230/203 215/227/200
f 64/224/197 464/230/203 214/226/199
f 217/231/204 216/228/201 64/224/197
f 66/232/205 465/233/206 217/231/204
f 65/229/202 465/233/206 218/234/207
f 219/235/208 220/236/209 67/237/210
f 65/229/202 466/238/211 219/235/208
f 66/232/205 466/238/211 218/234/207
f 221/239/212 220/236/209 66/232/205
f 68/240/213 467/241/214 221/239/212
f 67/237/210 467/241/214 222/242/215
f 223/243/216 224/244/217 69/245/218
f 67/237/210 468/246/219 223/243/216
f 68/240/213 468/246/219 222/242/215
f 225/247/220 224/244/217 68/240/213
f 70/248/221 469/249/222 225/247/220
f 69/245/218 469/249/222 226/250/223
f 227/251/224 228/252/225 71/253/226
f 69/245/218 470/254/227 227/251/224
f 70/248/221 470/254/227 226/250/223
f 229/255/228 228/252/225 70/248/221
f 72/256/229 471/257/230 229/255/228
f 71/253/226 471/257/230 230/258/231
f 231/259/232 232/260/233 73/261/234
f 71/262/226 472/263/235 231/259/232
f 72/264/229 472/263/235 230/265/231
f 233/266/236 232/267/233 72/256/229
f 74/268/237 473/269/238 233/266/236
f 73/270/234 473/269/238 234/271/239
f 235/272/240 236/273/241 75/274/242
f 73/270/234 474/275/243 235/272/240
f 74/268/237 474/275/243 234/271/239
f 237/276/244 236/273/241 74/268/237
f 76/277/245 475/278/246 237/276/244
f 75/274/242 475/278/246 238/279/247
f 239/280/248 240/281/249 77/282/250
f 75/274/242 476/283/251 239/280/248
f 76/277/245 476/283/251 238/279/247
f 241/284/252 240/281/249 76/277/245
f 78/285/253 477/286/254 241/284/252
f 77/282/250 477/286/254 242/287/255
f 243/288/256 244/289/257 79/290/258
f 77/282/250 478/291/259 243/288/256
f 78/285/253 478/291/259 242/287/255
f 245/292/260 244/289/257 78/285/253
f 80/293/261 479/294/262 245/292/260
f 79/290/258 479/294/262 246/295/263
f 247/296/264 248/297/265 81/298/266
f 79/290/258 480/299/267 247/296/264
f 80/293/261 480/299/267 246/295/263
f 249/300/268 248/297/265 80/293/261
f 82/301/269 481/302/270 249/300/268
f 81/298/266 481/302/270 250/303/271
f 251/304/272 252/305/273 83/306/274
f 81/298/266 482/307/275 251/304/272
f 82/301/269 482/307/275 250/303/271
f 253/308/276 252/305/273 82/301/269
f 84/309/277 483/310/278 253/308/276
f 83/306/274 483/310/278 254/311/279
f 255/312/280 256/313/281 85/314/282
f 83/306/274 484/315/283 255/312/280
f 84/309/277 484/315/283 254/311/279
f 257/316/284 256/313/281 84/309/277
f 86/317/285 485/318/286 257/316/284
f 85/314/282 485/318/286 258/319/287
f 259/320/288 260/321/289 87/322/290
f 85/314/282 486/323/291 259/320/288
f 86/317/285 486/323/291 258/319/287
f 261/324/292 260/321/289 86/317/285
f 88/325/293 487/326/294 261/324/292
f 87/322/290 487/326/294 262/327/295
f 263/328/296 264/329/297 89/330/298
f 87/322/290 488/331/299 263/328/296
f 88/325/293 488/331/299 262/327/295
f 265/332/300 264/329/297 88/325/293
f 90/333/301 489/334/302 265/332/300
f 89/330/298 489/334/302 266/335/303
f 267/336/304 268/337/305 55/338/168
f 89/339/298 490/340/306 267/336/304
f 90/341/301 490/340/306 266/342/303
f 269/343/307 268/337/305 90/341/301
f 56/344/170 491/345/308 269/343/307
f 55/338/168 491/345/308 199/346/171
f 270/347/309 272/348/310 38/349/311
f 37/350/312 492/351/313 270/347/309
f 55/195/168 492/351/313 271/352/314
f 198/192/165 272/348/310 55/195/168
f 57/194/167 493/353/315 198/192/165
f 38/349/311 493/353/315 273/354/316
f 112/355/8 275/356/317 19/357/9
f 20/358/7 494/359/318 112/355/8
f 58/200/173 494/359/318 274/360/319
f 201/199/172 275/356/317 58/200/173
f 56/197/170 495/361/320 201/199/172
f 19/357/9 495/361/320 276/362/321
f 277/363/322 278/364/323 39/365/324
f 38/349/311 496/366/325 277/363/322
f 57/194/167 496/366/325 273/354/316
f 203/203/176 278/364/323 57/194/167
f 59/205/178 497/367/326 203/203/176
f 39/365/324 497/367/326 279/368/327
f 117/369/18 281/370/328 20/358/7
f 21/371/17 498/372/329 117/369/18
f 60/208/181 498/372/329 280/373/330
f 205/207/180 281/370/328 60/208/181
f 58/200/173 499/374/331 205/207/180
f 20/358/7 499/374/331 274/360/319
f 282/375/332 283/376/333 40/377/334
f 39/365/324 500/378/335 282/375/332
f 59/205/178 500/378/335 279/368/327
f 207/211/184 283/376/333 59/205/178
f 61/213/186 501/379/336 207/211/184
f 40/377/334 501/379/336 284/380/337
f 121/381/26 286/382/338 21/371/17
f 22/383/25 502/384/339 121/381/26
f 62/216/189 502/384/339 285/385/340
f 209/215/188 286/382/338 62/216/189
f 60/208/181 503/386/341 209/215/188
f 21/371/17 503/386/341 280/373/330
f 287/387/342 288/388/343 41/389/344
f 40/377/334 504/390/345 287/387/342
f 61/213/186 504/390/345 284/380/337
f 211/219/192 288/388/343 61/213/186
f 63/221/194 505/391/346 211/219/192
f 41/389/344 505/391/346 289/392/347
f 125/393/34 291/394/348 22/383/25
f 23/395/33 506/396/349 125/393/34
f 64/224/197 506/396/349 290/397/350
f 213/223/196 291/394/348 64/224/197
f 62/216/189 507/398/351 213/223/196
f 22/383/25 507/398/351 285/385/340
f 292/399/352 293/400/353 42/401/354
f 41/402/344 508/403/355 292/399/352
f 63/404/194 508/403/355 289/405/347
f 215/406/200 293/400/353 63/404/194
f 65/407/202 509/408/356 215/406/200
f 42/401/354 509/408/356 294/409/357
f 129/45/42 296/410/358 23/36/33
f 24/44/41 510/411/359 129/45/42
f 66/412/205 510/411/359 295/413/360
f 217/414/204 296/410/358 66/412/205
f 64/415/197 511/416/361 217/414/204
f 23/36/33 511/416/361 290/417/350
f 297/418/362 298/419/363 43/420/364
f 42/421/354 512/422/365 297/418/362
f 65/229/202 512/422/365 294/423/357
f 219/235/208 298/419/363 65/229/202
f 67/237/210 513/424/366 219/235/208
f 43/420/364 513/424/366 299/425/367
f 133/426/50 301/427/368 24/428/41
f 25/429/49 514/430/369 133/426/50
f 68/240/213 514/430/369 300/431/370
f 221/239/212 301/427/368 68/240/213
f 66/232/205 515/432/371 221/239/212
f 24/428/41 515/432/371 295/433/360
f 302/434/372 303/435/373 44/436/374
f 43/420/364 516/437/375 302/434/372
f 67/237/210 516/437/375 299/425/367
f 223/243/216 303/435/373 67/237/210
f 69/245/218 517/438/376 223/243/216
f 44/436/374 517/438/376 304/439/377
f 137/440/58 306/441/378 25/429/49
f 26/442/57 518/443/379 137/440/58
f 70/248/221 518/443/379 305/444/380
f 225/247/220 306/441/378 70/248/221
f 68/240/213 519/445/381 225/247/220
f 25/429/49 519/445/381 300/431/370
f 307/446/382 308/447/383 45/448/384
f 44/436/374 520/449/385 307/446/382
f 69/245/218 520/449/385 304/439/377
f 227/251/224 308/447/383 69/245/218
f 71/253/226 521/450/386 227/251/224
f 45/448/384 521/450/386 309/451/387
f 141/452/66 311/453/388 26/442/57
f 27/454/65 522/455/389 141/452/66
f 72/256/229 522/455/389 310/456/390
f 229/255/228 311/453/388 72/256/229
f 70/248/221 523/457/391 229/255/228
f 26/442/57 523/457/391 305/444/380
f 312/458/392 313/459/393 46/460/394
f 45/461/384 524/462/395 312/458/392
f 71/262/226 524/462/395 309/463/387
f 231/259/232 313/459/393 71/262/226
f 73/261/234 525/464/396 231/259/232
f 46/460/394 525/464/396 314/465/397
f 145/80/74 316/466/398 27/71/65
f 28/79/73 526/467/399 145/80/74
f 74/468/237 526/467/399 315/469/400
f 233/470/236 316/466/398 74/468/237
f 72/471/229 527/472/401 233/470/236
f 27/71/65 527/472/401 310/473/390
f 317/474/402 318/475/403 47/476/404
f 46/477/394 528/478/405 317/474/402
f 73/270/234 528/478/405 314/479/397
f 235/272/240 318/475/403 73/270/234
f 75/274/242 529/480/406 235/272/240
f 47/476/404 529/480/406 319/481/407
f 149/482/82 321/483/408 28/484/73
f 29/485/81 530/486/409 149/482/82
f 76/277/245 530/486/409 320/487/410
f 237/276/244 321/483/408 76/277/245
f 74/268/237 531/488/411 237/276/244
f 28/484/73 531/488/411 315/489/400
f 322/490/412 323/491/413 48/492/414
f 47/476/404 532/493/415 322/490/412
f 75/274/242 532/493/415 319/481/407
f 239/280/248 323/491/413 75/274/242
f 77/282/250 533/494/416 239/280/248
f 48/492/414 533/494/416 324/495/417
f 153/496/90 326/497/418 29/485/81
f 30/498/89 534/499/419 153/496/90
f 78/285/253 534/499/419 325/500/420
f 241/284/252 326/497/418 78/285/253
f 76/277/245 535/501/421 241/284/252
f 29/485/81 535/501/421 320/487/410
f 327/502/422 328/503/423 49/504/424
f 48/492/414 536/505/425 327/502/422
f 77/282/250 536/505/425 324/495/417
f 243/288/256 328/503/423 77/282/250
f 79/290/258 537/506/426 243/288/256
f 49/504/424 537/506/426 329/507/427
f 157/508/98 331/509/428 30/498/89
f 31/510/97 538/511/429 157/508/98
f 80/293/261 538/511/429 330/512/430
f 245/292/260 331/509/428 80/293/261
f 78/285/253 539/513/431 245/292/260
f 30/498/89 539/513/431 325/500/420
f 332/514/432 333/515/433 50/516/434
f 49/504/424 540/517/435 332/514/432
f 79/290/258 540/517/435 329/507/427
f 247/296/264 333/515/433 79/290/258
f 81/298/266 541/518/436 247/296/264
f 50/516/434 541/518/436 334/519/437
f 161/520/106 336/521/438 31/510/97
f 32/522/105 542/523/439 161/520/106
f 82/301/269 542/523/439 335/524/440
f 249/300/268 336/521/438 82/301/269
f 80/293/261 543/525/441 249/300/268
f 31/510/97 543/525/441 330/512/430
f 337/406/442 338/526/443 51/527/444
f 50/528/434 544/529/445 337/406/442
f 81/530/266 544/529/445 334/531/437
f 251/532/272 338/526/443 81/530/266
f 83/533/274 545/534/446 251/532/272
f 51/527/444 545/534/446 339/535/447
f 165/123/114 341/536/448 32/114/105
f 33/122/113 546/537/449 165/123/114
f 84/538/277 546/537/449 340/539/450
f 253/540/276 341/536/448 84/538/277
f 82/541/269 547/542/451 253/540/276
f 32/114/105 547/542/451 335/543/440
f 342/544/452 343/545/453 52/546/454
f 51/547/444 548/548/455 342/544/452
f 83/306/274 548/548/455 339/549/447
f 255/312/280 343/545/453 83/306/274
f 85/314/282 549/550/456 255/312/280
f 52/546/454 549/550/456 344/551/457
f 169/552/122 346/553/458 33/554/113
f 34/555/121 550/556/459 169/552/122
f 86/317/285 550/556/459 345/557/460
f 257/316/284 346/553/458 86/317/285
f 84/309/277 551/558/461 257/316/284
f 33/554/113 551/558/461 340/559/450
f 347/560/462 348/561/463 53/562/464
f 52/546/454 552/563/465 347/560/462
f 85/314/282 552/563/465 344/551/457
f 259/320/288 348/561/463 85/314/282
f 87/322/290 553/564/466 259/320/288
f 53/562/464 553/564/466 349/565/467
f 173/566/130 351/567/468 34/555/121
f 35/568/129 554/569/469 173/566/130
f 88/325/293 554/569/469 350/570/470
f 261/324/292 351/567/468 88/325/293
f 86/317/285 555/571/471 261/324/292
f 34/555/121 555/571/471 345/557/460
f 352/572/472 353/573/473 54/574/474
f 53/562/464 556/575/475 352/572/472
f 87/322/290 556/575/475 349/565/467
f 263/328/296 353/573/473 87/322/290
f 89/330/298 557/576/476 263/328/296
f 54/574/474 557/576/476 354/577/477
f 177/578/138 356/579/478 35/568/129
f 36/580/137 558/581/479 177/578/138
f 90/333/301 558/581/479 355/582/480
f 265/332/300 356/579/478 90/333/301
f 88/325/293 559/583/481 265/332/300
f 35/568/129 559/583/481 350/570/470
f 357/584/482 358/585/483 37/586/312
f 54/587/474 560/588/484 357/584/482
f 89/589/298 560/588/484 354/590/477
f 267/591/304 358/592/483 89/330/298
f 55/195/168 561/593/485 267/591/304
f 37/350/312 561/593/485 271/352/314
f 180/594/143 359/595/486 36/580/137
f 19/357/9 562/596/487 180/594/143
f 56/197/170 562/596/487 276/362/321
f 269/343/307 359/597/486 56/344/170
f 90/341/301 563/598/488 269/343/307
f 36/599/137 563/598/488 355/600/480
f 270/347/309 361/601/489 37/350/312
f 38/349/311 564/602/490 270/347/309
f 92/603/161 564/602/490 360/604/491
f 193/605/160 361/601/489 92/603/161
f 362/606/492 193/605/160 91/607/158
f 37/350/312 565/608/493 362/606/492
f 277/363/322 364/609/494 38/349/311
f 39/365/324 566/610/495 277/363/322
f 93/611/164 566/610/495 363/612/496
f 196/613/163 364/609/494 93/611/164
f 92/603/161 567/614/497 196/613/163
f 38/349/311 567/614/497 360/604/491
f 282/375/332 366/615/498 39/365/324
f 40/377/334 568/616/499 282/375/332
f 94/617/147 568/616/499 365/618/500
f 197/619/162 366/615/498 94/617/147
f 363/612/496 197/619/162 93/611/164
f 39/365/324 569/620/501 363/612/496
f 287/387/342 368/621/502 40/377/334
f 41/389/344 570/622/503 287/387/342
f 95/623/148 570/622/503 367/624/504
f 181/625/145 368/621/502 95/623/148
f 94/617/147 571/626/505 181/625/145
f 40/377/334 571/626/505 365/618/500
f 292/627/352 370/628/506 41/389/344
f 42/421/354 572/629/507 292/627/352
f 96/630/149 572/629/507 369/631/508
f 182/632/150 370/628/506 96/630/149
f 367/624/504 182/632/150 95/623/148
f 41/389/344 573/633/509 367/624/504
f 297/418/362 372/634/510 42/421/354
f 43/420/364 574/635/511 297/418/362
f 97/636/512 574/635/511 371/637/513
f 373/638/514 372/634/510 97/636/512
f 369/631/508 373/638/514 96/630/149
f 42/421/354 575/639/515 369/631/508
f 302/434/372 375/640/516 43/420/364
f 44/436/374 576/641/517 302/434/372
f 98/642/518 576/641/517 374/643/519
f 376/644/520 375/640/516 98/642/518
f 97/636/512 577/645/521 376/644/520
f 43/420/364 577/645/521 371/637/513
f 307/446/382 378/646/522 44/436/374
f 45/448/384 578/647/523 307/446/382
f 99/648/524 578/647/523 377/649/525
f 379/650/526 378/646/522 99/648/524
f 374/643/519 379/650/526 98/642/518
f 44/436/374 579/651/527 374/643/519
f 312/652/392 381/653/528 45/448/384
f 46/477/394 580/654/529 312/652/392
f 100/655/530 580/654/529 380/656/531
f 382/657/532 381/653/528 100/655/530
f 99/648/524 581/658/533 382/657/532
f 45/448/384 581/658/533 377/649/525
f 317/474/402 384/659/534 46/477/394
f 47/476/404 582/660/535 317/474/402
f 101/661/536 582/660/535 383/662/537
f 385/663/538 384/659/534 101/661/536
f 380/656/531 385/663/538 100/655/530
f 46/477/394 583/664/539 380/656/531
f 322/490/412 387/665/540 47/476/404
f 48/492/414 584/666/541 322/490/412
f 102/667/542 584/666/541 386/668/543
f 388/669/544 387/665/540 102/667/542
f 101/661/536 585/670/545 388/669/544
f 47/476/404 585/670/545 383/662/537
f 327/502/422 390/671/546 48/492/414
f 49/504/424 586/672/547 327/502/422
f 103/673/548 586/672/547 389/674/549
f 391/675/550 390/671/546 103/673/548
f 386/668/543 391/675/550 102/667/542
f 48/492/414 587/676/551 386/668/543
f 332/514/432 393/677/552 49/504/424
f 50/516/434 588/678/553 332/514/432
f 104/679/554 588/678/553 392/680/555
f 394/681/556 393/677/552 104/679/554
f 103/673/548 589/682/557 394/681/556
f 49/504/424 589/682/557 389/674/549
f 337/683/442 396/684/558 50/516/434
f 51/547/444 590/685/559 337/683/442
f 105/686/151 590/685/559 395/687/560
f 397/688/561 396/684/558 105/686/151
f 392/680/555 397/688/561 104/679/554
f 50/516/434 591/689/562 392/680/555
f 342/544/452 399/690/563 51/547/444
f 52/546/454 592/691/564 342/544/452
f 106/692/152 592/691/564 398/693/565
f 185/694/153 399/690/563 106/692/152
f 395/687/560 185/694/153 105/686/151
f 51/547/444 593/695/566 395/687/560
f 347/560/462 401/696/567 52/546/454
f 53/562/464 594/697/568 347/560/462
f 107/698/154 594/697/568 400/699/569
f 187/700/155 401/696/567 107/698/154
f 106/692/152 595/701/570 187/700/155
f 52/546/454 595/701/570 398/693/565
f 352/572/472 403/702/571 53/562/464
f 54/574/474 596/703/572 352/572/472
f 108/704/157 596/703/572 402/705/573
f 188/706/156 403/702/571 108/704/157
f 400/699/569 188/706/156 107/698/154
f 53/562/464 597/707/574 400/699/569
f 357/708/482 404/709/575 54/574/474
f 37/350/312 598/710/576 357/708/482
f 91/607/158 598/710/576 362/606/492
f 192/711/159 404/709/575 91/607/158
f 108/704/157 599/712/577 192/711/159
f 54/574/474 599/712/577 402/705/573
f 382/713/532 405/714/146 99/715/524
f 100/716/530 600/717/146 382/713/532
f 405/714/146 385/718/538 101/719/536
f 388/720/544 406/721/146 101/719/536
f 102/722/542 601/723/146 388/720/544
f 406/721/146 391/724/550 103/725/548
f 394/726/556 407/727/146 103/725/548
f 104/728/554 602/729/146 394/726/556
f 105/166/151 602/729/146 397/730/561
f 406/721/146 408/731/146 101/719/536
f 103/725/548 603/732/146 406/721/146
f 408/731/146 407/727/146 105/166/151
f 405/714/146 409/733/146 99/715/524
f 101/719/536 604/734/146 405/714/146
f 409/733/146 408/731/146 105/166/151
f 184/164/146 410/735/146 105/166/151
f 96/162/149 605/736/146 184/164/146
f 97/737/512 605/736/146 373/738/514
f 99/715/524 606/739/146 411/740/146
f 410/735/146 409/733/146 105/166/151
f 411/740/146 410/735/146 97/737/512
f 411/740/146 379/741/526 99/715/524
f 97/737/512 607/742/146 411/740/146
f 98/743/518 607/742/146 376/744/520
s 0
f 611/745/578 608/746/578 610/747/578
f 613/747/579 614/748/579 612/749/579
f 609/750/146 612/751/146 608/752/146
f 611/753/580 613/754/580 609/755/580
f 610/752/581 615/756/581 611/757/581
f 608/758/582 614/759/582 610/760/582
s 1
f 109/1/1 412/5/5 111/2/2
f 2/4/4 110/6/6 412/5/5
f 111/2/2 412/5/5 110/6/6
f 112/8/8 413/10/10 111/2/2
f 19/9/9 113/11/11 413/10/10
f 111/2/2 413/10/10 113/11/11
f 114/12/12 414/15/15 116/13/13
f 3/14/14 115/16/16 414/15/15
f 116/13/13 414/15/15 115/16/16
f 117/18/18 415/19/19 116/13/13
f 20/7/7 110/6/6 415/19/19
f 116/13/13 415/19/19 110/6/6
f 118/20/20 416/24/23 120/21/21
f 4/23/22 119/25/24 416/24/23
f 120/21/21 416/24/23 119/25/24
f 121/27/26 417/29/27 120/21/21
f 21/28/17 115/30/16 417/29/27
f 120/21/21 417/29/27 115/30/16
f 122/31/28 418/34/31 124/32/29
f 5/33/30 123/35/32 418/34/31
f 124/32/29 418/34/31 123/35/32
f 125/37/34 419/38/35 124/32/29
f 22/26/25 119/25/24 419/38/35
f 124/32/29 419/38/35 119/25/24
f 126/39/36 420/42/39 128/40/37
f 6/41/38 127/43/40 420/42/39
f 128/40/37 420/42/39 127/43/40
f 129/45/42 421/46/43 128/40/37
f 23/36/33 123/35/32 421/46/43
f 128/40/37 421/46/43 123/35/32
f 130/47/44 422/50/47 132/48/45
f 7/49/46 131/51/48 422/50/47
f 132/48/45 422/50/47 131/51/48
f 133/53/50 423/54/51 132/48/45
f 24/44/41 127/43/40 423/54/51
f 132/48/45 423/54/51 127/43/40
f 134/55/52 424/59/55 136/56/53
f 8/58/54 135/60/56 424/59/55
f 136/56/53 424/59/55 135/60/56
f 137/62/58 425/64/59 136/56/53
f 25/63/49 131/65/48 425/64/59
f 136/56/53 425/64/59 131/65/48
f 138/66/60 426/69/63 140/67/61
f 9/68/62 139/70/64 426/69/63
f 140/67/61 426/69/63 139/70/64
f 141/72/66 427/73/67 140/67/61
f 26/61/57 135/60/56 427/73/67
f 140/67/61 427/73/67 135/60/56
f 142/74/68 428/77/71 144/75/69
f 10/76/70 143/78/72 428/77/71
f 144/75/69 428/77/71 143/78/72
f 145/80/74 429/81/75 144/75/69
f 27/71/65 139/70/64 429/81/75
f 144/75/69 429/81/75 139/70/64
f 146/82/76 430/85/79 148/83/77
f 11/84/78 147/86/80 430/85/79
f 148/83/77 430/85/79 147/86/80
f 149/88/82 431/89/83 148/83/77
f 28/79/73 143/78/72 431/89/83
f 148/83/77 431/89/83 143/78/72
f 150/90/84 432/93/87 152/91/85
f 12/92/86 151/94/88 432/93/87
f 152/91/85 432/93/87 151/94/88
f 153/96/90 433/97/91 152/91/85
f 29/87/81 147/86/80 433/97/91
f 152/91/85 433/97/91 147/86/80
f 154/98/92 434/102/95 156/99/93
f 13/101/94 155/103/96 434/102/95
f 156/99/93 434/102/95 155/103/96
f 157/105/98 435/107/99 156/99/93
f 30/106/89 151/108/88 435/107/99
f 156/99/93 435/107/99 151/108/88
f 158/109/100 436/112/103 160/110/101
f 14/111/102 159/113/104 436/112/103
f 160/110/101 436/112/103 159/113/104
f 161/115/106 437/116/107 160/110/101
f 31/104/97 155/103/96 437/116/107
f 160/110/101 437/116/107 155/103/96
f 162/117/108 438/120/111 164/118/109
f 15/119/110 163/121/112 438/120/111
f 164/118/109 438/120/111 163/121/112
f 165/123/114 439/124/115 164/118/109
f 32/114/105 159/113/104 439/124/115
f 164/118/109 439/124/115 159/113/104
f 166/125/116 440/128/119 168/126/117
f 16/127/118 167/129/120 440/128/119
f 168/126/117 440/128/119 167/129/120
f 169/131/122 441/132/123 168/126/117
f 33/122/113 163/121/112 441/132/123
f 168/126/117 441/132/123 163/121/112
f 170/133/124 442/136/127 172/134/125
f 17/135/126 171/137/128 442/136/127
f 172/134/125 442/136/127 171/137/128
f 173/139/130 443/140/131 172/134/125
f 34/130/121 167/129/120 443/140/131
f 172/134/125 443/140/131 167/129/120
f 174/141/132 444/145/135 176/142/133
f 18/144/134 175/146/136 444/145/135
f 176/142/133 444/145/135 175/146/136
f 177/148/138 445/150/139 176/142/133
f 35/149/129 171/151/128 445/150/139
f 176/142/133 445/150/139 171/151/128
f 178/152/140 446/154/142 179/153/141
f 1/3/3 113/11/11 446/154/142
f 179/153/141 446/154/142 113/11/11
f 180/155/143 447/156/144 179/153/141
f 36/147/137 175/146/136 447/156/144
f 179/153/141 447/156/144 175/146/136
f 181/157/145 448/161/146 183/158/146
f 95/160/148 182/163/150 448/161/146
f 96/162/149 183/158/146 448/161/146
f 184/164/146 449/167/146 186/165/146
f 105/166/151 185/169/153 449/167/146
f 106/168/152 186/165/146 449/167/146
f 106/168/152 187/173/155 450/170/146
f 107/172/154 188/174/156 450/170/146
f 189/171/146 450/170/146 188/174/156
f 186/165/146 451/177/146 190/176/146
f 189/171/146 451/177/146 186/165/146
f 108/175/157 190/176/146 451/177/146
f 94/159/147 183/158/146 452/178/146
f 96/162/149 190/176/146 452/178/146
f 191/179/146 452/178/146 190/176/146
f 108/175/157 192/183/159 453/180/146
f 91/182/158 193/184/160 453/180/146
f 194/181/146 453/180/146 193/184/160
f 191/179/146 454/187/146 195/186/146
f 194/181/146 454/187/146 191/179/146
f 92/185/161 195/186/146 454/187/146
f 195/186/146 455/191/146 197/188/162
f 196/189/163 455/191/146 195/186/146
f 93/190/164 197/188/162 455/191/146
f 198/192/165 456/196/169 200/193/166
f 55/195/168 199/198/171 456/196/169
f 56/197/170 200/193/166 456/196/169
f 201/199/172 457/201/174 200/193/166
f 58/200/173 202/202/175 457/201/174
f 57/194/167 200/193/166 457/201/174
f 203/203/176 458/206/179 204/204/177
f 57/194/167 202/202/175 458/206/179
f 58/200/173 204/204/177 458/206/179
f 205/207/180 459/209/182 204/204/177
f 60/208/181 206/210/183 459/209/182
f 59/205/178 204/204/177 459/209/182
f 207/211/184 460/214/187 208/212/185
f 59/205/178 206/210/183 460/214/187
f 60/208/181 208/212/185 460/214/187
f 209/215/188 461/217/190 208/212/185
f 62/216/189 210/218/191 461/217/190
f 61/213/186 208/212/185 461/217/190
f 211/219/192 462/222/195 212/220/193
f 61/213/186 210/218/191 462/222/195
f 62/216/189 212/220/193 462/222/195
f 213/223/196 463/225/198 212/220/193
f 64/224/197 214/226/199 463/225/198
f 63/221/194 212/220/193 463/225/198
f 215/227/200 464/230/203 216/228/201
f 63/221/194 214/226/199 464/230/203
f 64/224/197 216/228/201 464/230/203
f 217/231/204 465/233/206 216/228/201
f 66/232/205 218/234/207 465/233/206
f 65/229/202 216/228/201 465/233/206
f 219/235/208 466/238/211 220/236/209
f 65/229/202 218/234/207 466/238/211
f 66/232/205 220/236/209 466/238/211
f 221/239/212 467/241/214 220/236/209
f 68/240/213 222/242/215 467/241/214
f 67/237/210 220/236/209 467/241/214
f 223/243/216 468/246/219 224/244/217
f 67/237/210 222/242/215 468/246/219
f 68/240/213 224/244/217 468/246/219
f 225/247/220 469/249/222 224/244/217
f 70/248/221 226/250/223 469/249/222
f 69/245/218 224/244/217 469/249/222
f 227/251/224 470/254/227 228/252/225
f 69/245/218 226/250/223 470/254/227
f 70/248/221 228/252/225 470/254/227
f 229/255/228 471/257/230 228/252/225
f 72/256/229 230/258/231 471/257/230
f 71/253/226 228/252/225 471/257/230
f 231/259/232 472/263/235 232/260/233
f 71/262/226 230/265/231 472/263/235
f 72/264/229 232/260/233 472/263/235
f 233/266/236 473/269/238 232/267/233
f 74/268/237 234/271/239 473/269/238
f 73/270/234 232/267/233 473/269/238
f 235/272/240 474/275/243 236/273/241
f 73/270/234 234/271/239 474/275/243
f 74/268/237 236/273/241 474/275/243
f 237/276/244 475/278/246 236/273/241
f 76/277/245 238/279/247 475/278/246
f 75/274/242 236/273/241 475/278/246
f 239/280/248 476/283/251 240/281/249
f 75/274/242 238/279/247 476/283/251
f 76/277/245 240/281/249 476/283/251
f 241/284/252 477/286/254 240/281/249
f 78/285/253 242/287/255 477/286/254
f 77/282/250 240/281/249 477/286/254
f 243/288/256 478/291/259 244/289/257
f 77/282/250 242/287/255 478/291/259
f 78/285/253 244/289/257 478/291/259
f 245/292/260 479/294/262 244/289/257
f 80/293/261 246/295/263 479/294/262
f 79/290/258 244/289/257 479/294/262
f 247/296/264 480/299/267 248/297/265
f 79/290/258 246/295/263 480/299/267
f 80/293/261 248/297/265 480/299/267
f 249/300/268 481/302/270 248/297/265
f 82/301/269 250/303/271 481/302/270
f 81/298/266 248/297/265 481/302/270
f 251/304/272 482/307/275 252/305/273
f 81/298/266 250/303/271 482/307/275
f 82/301/269 252/305/273 482/307/275
f 253/308/276 483/310/278 252/305/273
f 84/309/277 254/311/279 483/310/278
f 83/306/274 252/305/273 483/310/278
f 255/312/280 484/315/283 256/313/281
f 83/306/274 254/311/279 484/315/283
f 84/309/277 256/313/281 484/315/283
f 257/316/284 485/318/286 256/313/281
f 86/317/285 258/319/287 485/318/286
f 85/314/282 256/313/281 485/318/286
f 259/320/288 486/323/291 260/321/289
f 85/314/282 258/319/287 486/323/291
f 86/317/285 260/321/289 486/323/291
f 261/324/292 487/326/294 260/321/289
f 88/325/293 262/327/295 487/326/294
f 87/322/290 260/321/289 487/326/294
f 263/328/296 488/331/299 264/329/297
f 87/322/290 262/327/295 488/331/299
f 88/325/293 264/329/297 488/331/299
f 265/332/300 489/334/302 264/329/297
f 90/333/301 266/335/303 489/334/302
f 89/330/298 264/329/297 489/334/302
f 267/336/304 490/340/306 268/337/305
f 89/339/298 266/342/303 490/340/306
f 90/341/301 268/337/305 490/340/306
f 269/343/307 491/345/308 268/337/305
f 56/344/170 199/346/171 491/345/308
f 55/338/168 268/337/305 491/345/308
f 270/347/309 492/351/313 272/348/310
f 37/350/312 271/352/314 492/351/313
f 55/195/168 272/348/310 492/351/313
f 198/192/165 493/353/315 272/348/310
f 57/194/167 273/354/316 493/353/315
f 38/349/311 272/348/310 493/353/315
f 112/355/8 494/359/318 275/356/317
f 20/358/7 274/360/319 494/359/318
f 58/200/173 275/356/317 494/359/318
f 201/199/172 495/361/320 275/356/317
f 56/197/170 276/362/321 495/361/320
f 19/357/9 275/356/317 495/361/320
f 277/363/322 496/366/325 278/364/323
f 38/349/311 273/354/316 496/366/325
f 57/194/167 278/364/323 496/366/325
f 203/203/176 497/367/326 278/364/323
f 59/205/178 279/368/327 497/367/326
f 39/365/324 278/364/323 497/367/326
f 117/369/18 498/372/329 281/370/328
f 21/371/17 280/373/330 498/372/329
f 60/208/181 281/370/328 498/372/329
f 205/207/180 499/374/331 281/370/328
f 58/200/173 274/360/319 499/374/331
f 20/358/7 281/370/328 499/374/331
f 282/375/332 500/378/335 283/376/333
f 39/365/324 279/368/327 500/378/335
f 59/205/178 283/376/333 500/378/335
f 207/211/184 501/379/336 283/376/333
f 61/213/186 284/380/337 501/379/336
f 40/377/334 283/376/333 501/379/336
f 121/381/26 502/384/339 286/382/338
f 22/383/25 285/385/340 502/384/339
f 62/216/189 286/382/338 502/384/339
f 209/215/188 503/386/341 286/382/338
f 60/208/181 280/373/330 503/386/341
f 21/371/17 286/382/338 503/386/341
f 287/387/342 504/390/345 288/388/343
f 40/377/334 284/380/337 504/390/345
f 61/213/186 288/388/343 504/390/345
f 211/219/192 505/391/346 288/388/343
f 63/221/194 289/392/347 505/391/346
f 41/389/344 288/388/343 505/391/346
f 125/393/34 506/396/349 291/394/348
f 23/395/33 290/397/350 506/396/349
f 64/224/197 291/394/348 506/396/349
f 213/223/196 507/398/351 291/394/348
f 62/216/189 285/385/340 507/398/351
f 22/383/25 291/394/348 507/398/351
f 292/399/352 508/403/355 293/400/353
f 41/402/344 289/405/347 508/403/355
f 63/404/194 293/400/353 508/403/355
f 215/406/200 509/408/356 293/400/353
f 65/407/202 294/409/357 509/408/356
f 42/401/354 293/400/353 509/408/356
f 129/45/42 510/411/359 296/410/358
f 24/44/41 295/413/360 510/411/359
f 66/412/205 296/410/358 510/411/359
f 217/414/204 511/416/361 296/410/358
f 64/415/197 290/417/350 511/416/361
f 23/36/33 296/410/358 511/416/361
f 297/418/362 512/422/365 298/419/363
f 42/421/354 294/423/357 512/422/365
f 65/229/202 298/419/363 512/422/365
f 219/235/208 513/424/366 298/419/363
f 67/237/210 299/425/367 513/424/366
f 43/420/364 298/419/363 513/424/366
f 133/426/50 514/430/369 301/427/368
f 25/429/49 300/431/370 514/430/369
f 68/240/213 301/427/368 514/430/369
f 221/239/212 515/432/371 301/427/368
f 66/232/205 295/433/360 515/432/371
f 24/428/41 301/427/368 515/432/371
f 302/434/372 516/437/375 303/435/373
f 43/420/364 299/425/367 516/437/375
f 67/237/210 303/435/373 516/437/375
f 223/243/216 517/438/376 303/435/373
f 69/245/218 304/439/377 517/438/376
f 44/436/374 303/435/373 517/438/376
f 137/440/58 518/443/379 306/441/378
f 26/442/57 305/444/380 518/443/379
f 70/248/221 306/441/378 518/443/379
f 225/247/220 519/445/381 306/441/378
f 68/240/213 300/431/370 519/445/381
f 25/429/49 306/441/378 519/445/381
f 307/446/382 520/449/385 308/447/383
f 44/436/374 304/439/377 520/449/385
f 69/245/218 308/447/383 520/449/385
f 227/251/224 521/450/386 308/447/383
f 71/253/226 309/451/387 521/450/386
f 45/448/384 308/447/383 521/450/386
f 141/452/66 522/455/389 311/453/388
f 27/454/65 310/456/390 522/455/389
f 72/256/229 311/453/388 522/455/389
f 229/255/228 523/457/391 311/453/388
f 70/248/221 305/444/380 523/457/391
f 26/442/57 311/453/388 523/457/391
f 312/458/392 524/462/395 313/459/393
f 45/461/384 309/463/387 524/462/395
f 71/262/226 313/459/393 524/462/395
f 231/259/232 525/464/396 313/459/393
f 73/261/234 314/465/397 525/464/396
f 46/460/394 313/459/393 525/464/396
f 145/80/74 526/467/399 316/466/398
f 28/79/73 315/469/400 526/467/399
f 74/468/237 316/466/398 526/467/399
f 233/470/236 527/472/401 316/466/398
f 72/471/229 310/473/390 527/472/401
f 27/71/65 316/466/398 527/472/401
f 317/474/402 528/478/405 318/475/403
f 46/477/394 314/479/397 528/478/405
f 73/270/234 318/475/403 528/478/405
f 235/272/240 529/480/406 318/475/403
f 75/274/242 319/481/407 529/480/406
f 47/476/404 318/475/403 529/480/406
f 149/482/82 530/486/409 321/483/408
f 29/485/81 320/487/410 530/486/409
f 76/277/245 321/483/408 530/486/409
f 237/276/244 531/488/411 321/483/408
f 74/268/237 315/489/400 531/488/411
f 28/484/73 321/483/408 531/488/411
f 322/490/412 532/493/415 323/491/413
f 47/476/404 319/481/407 532/493/415
f 75/274/242 323/491/413 532/493/415
f 239/280/248 533/494/416 323/491/413
f 77/282/250 324/495/417 533/494/416
f 48/492/414 323/491/413 533/494/416
f 153/496/90 534/499/419 326/497/418
f 30/498/89 325/500/420 534/499/419
f 78/285/253 326/497/418 534/499/419
f 241/284/252 535/501/421 326/497/418
f 76/277/245 320/487/410 535/501/421
f 29/485/81 326/497/418 535/501/421
f 327/502/422 536/505/425 328/503/423
f 48/492/414 324/495/417 536/505/425
f 77/282/250 328/503/423 536/505/425
f 243/288/256 537/506/426 328/503/423
f 79/290/258 329/507/427 537/506/426
f 49/504/424 328/503/423 537/506/426
f 157/508/98 538/511/429 331/509/428
f 31/510/97 330/512/430 538/511/429
f 80/293/261 331/509/428 538/511/429
f 245/292/260 539/513/431 331/509/428
f 78/285/253 325/500/420 539/513/431
f 30/498/89 331/509/428 539/513/431
f 332/514/432 540/517/435 333/515/433
f 49/504/424 329/507/427 540/517/435
f 79/290/258 333/515/433 540/517/435
f 247/296/264 541/518/436 333/515/433
f 81/298/266 334/519/437 541/518/436
f 50/516/434 333/515/433 541/518/436
f 161/520/106 542/523/439 336/521/438
f 32/522/105 335/524/440 542/523/439
f 82/301/269 336/521/438 542/523/439
f 249/300/268 543/525/441 336/521/438
f 80/293/261 330/512/430 543/525/441
f 31/510/97 336/521/438 543/525/441
f 337/406/442 544/529/445 338/526/443
f 50/528/434 334/531/437 544/529/445
f 81/530/266 338/526/443 544/529/445
f 251/532/272 545/534/446 338/526/443
f 83/533/274 339/535/447 545/534/446
f 51/527/444 338/526/443 545/534/446
f 165/123/114 546/537/449 341/536/448
f 33/122/113 340/539/450 546/537/449
f 84/538/277 341/536/448 546/537/449
f 253/540/276 547/542/451 341/536/448
f 82/541/269 335/543/440 547/542/451
f 32/114/105 341/536/448 547/542/451
f 342/544/452 548/548/455 343/545/453
f 51/547/444 339/549/447 548/548/455
f 83/306/274 343/545/453 548/548/455
f 255/312/280 549/550/456 343/545/453
f 85/314/282 344/551/457 549/550/456
f 52/546/454 343/545/453 549/550/456
f 169/552/122 550/556/459 346/553/458
f 34/555/121 345/557/460 550/556/459
f 86/317/285 346/553/458 550/556/459
f 257/316/284 551/558/461 346/553/458
f 84/309/277 340/559/450 551/558/461
f 33/554/113 346/553/458 551/558/461
f 347/560/462 552/563/465 348/561/463
f 52/546/454 344/551/457 552/563/465
f 85/314/282 348/561/463 552/563/465
f 259/320/288 553/564/466 348/561/463
f 87/322/290 349/565/467 553/564/466
f 53/562/464 348/561/463 553/564/466
f 173/566/130 554/569/469 351/567/468
f 35/568/129 350/570/470 554/569/469
f 88/325/293 351/567/468 554/569/469
f 261/324/292 555/571/471 351/567/468
f 86/317/285 345/557/460 555/571/471
f 34/555/121 351/567/468 555/571/471
f 352/572/472 556/575/475 353/573/473
f 53/562/464 349/565/467 556/575/475
f 87/322/290 353/573/473 556/575/475
f 263/328/296 557/576/476 353/573/473
f 89/330/298 354/577/477 557/576/476
f 54/574/474 353/573/473 557/576/476
f 177/578/138 558/581/479 356/579/478
f 36/580/137 355/582/480 558/581/479
f 90/333/301 356/579/478 558/581/479
f 265/332/300 559/583/481 356/579/478
f 88/325/293 350/570/470 559/583/481
f 35/568/129 356/579/478 559/583/481
f 357/584/482 560/588/484 358/585/483
f 54/587/474 354/590/477 560/588/484
f 89/589/298 358/585/483 560/588/484
f 267/591/304 561/593/485 358/592/483
f 55/195/168 271/352/314 561/593/485
f 37/350/312 358/592/483 561/593/485
f 180/594/143 562/596/487 359/595/486
f 19/357/9 276/362/321 562/596/487
f 56/197/170 359/595/486 562/596/487
f 269/343/307 563/598/488 359/597/486
f 90/341/301 355/600/480 563/598/488
f 36/599/137 359/597/486 563/598/488
f 270/347/309 564/602/490 361/601/489
f 38/349/311 360/604/491 564/602/490
f 92/603/161 361/601/489 564/602/490
f 193/605/160 565/608/493 361/601/489
f 362/606/492 565/608/493 193/605/160
f 37/350/312 361/601/489 565/608/493
f 277/363/322 566/610/495 364/609/494
f 39/365/324 363/612/496 566/610/495
f 93/611/164 364/609/494 566/610/495
f 196/613/163 567/614/497 364/609/494
f 92/603/161 360/604/491 567/614/497
f 38/349/311 364/609/494 567/614/497
f 282/375/332 568/616/499 366/615/498
f 40/377/334 365/618/500 568/616/499
f 94/617/147 366/615/498 568/616/499
f 197/619/162 569/620/501 366/615/498
f 363/612/496 569/620/501 197/619/162
f 39/365/324 366/615/498 569/620/501
f 287/387/342 570/622/503 368/621/502
f 41/389/344 367/624/504 570/622/503
f 95/623/148 368/621/502 570/622/503
f 181/625/145 571/626/505 368/621/502
f 94/617/147 365/618/500 571/626/505
f 40/377/334 368/621/502 571/626/505
f 292/627/352 572/629/507 370/628/506
f 42/421/354 369/631/508 572/629/507
f 96/630/149 370/628/506 572/629/507
f 182/632/150 573/633/509 370/628/506
f 367/624/504 573/633/509 182/632/150
f 41/389/344 370/628/506 573/633/509
f 297/418/362 574/635/511 372/634/510
f 43/420/364 371/637/513 574/635/511
f 97/636/512 372/634/510 574/635/511
f 373/638/514 575/639/515 372/634/510
f 369/631/508 575/639/515 373/638/514
f 42/421/354 372/634/510 575/639/515
f 302/434/372 576/641/517 375/640/516
f 44/436/374 374/643/519 576/641/517
f 98/642/518 375/640/516 576/641/517
f 376/644/520 577/645/521 375/640/516
f 97/636/512 371/637/513 577/645/521
f 43/420/364 375/640/516 577/645/521
f 307/446/382 578/647/523 378/646/522
f 45/448/384 377/649/525 578/647/523
f 99/648/524 378/646/522 578/647/523
f 379/650/526 579/651/527 378/646/522
f 374/643/519 579/651/527 379/650/526
f 44/436/374 378/646/522 579/651/527
f 312/652/392 580/654/529 381/653/528
f 46/477/394 380/656/531 580/654/529
f 100/655/530 381/653/528 580/654/529
f 382/657/532 581/658/533 381/653/528
f 99/648/524 377/649/525 581/658/533
f 45/448/384 381/653/528 581/658/533
f 317/474/402 582/660/535 384/659/534
f 47/476/404 383/662/537 582/660/535
f 101/661/536 384/659/534 582/660/535
f 385/663/538 583/664/539 384/659/534
f 380/656/531 583/664/539 385/663/538
f 46/477/394 384/659/534 583/664/539
f 322/490/412 584/666/541 387/665/540
f 48/492/414 386/668/543 584/666/541
f 102/667/542 387/665/540 584/666/541
f 388/669/544 585/670/545 387/665/540
f 101/661/536 383/662/537 585/670/545
f 47/476/404 387/665/540 585/670/545
f 327/502/422 586/672/547 390/671/546
f 49/504/424 389/674/549 586/672/547
f 103/673/548 390/671/546 586/672/547
f 391/675/550 587/676/551 390/671/546
f 386/668/543 587/676/551 391/675/550
f 48/492/414 390/671/546 587/676/551
f 332/514/432 588/678/553 393/677/552
f 50/516/434 392/680/555 588/678/553
f 104/679/554 393/677/552 588/678/553
f 394/681/556 589/682/557 393/677/552
f 103/673/548 389/674/549 589/682/557
f 49/504/424 393/677/552 589/682/557
f 337/683/442 590/685/559 396/684/558
f 51/547/444 395/687/560 590/685/559
f 105/686/151 396/684/558 590/685/559
f 397/688/561 591/689/562 396/684/558
f 392/680/555 591/689/562 397/688/561
f 50/516/434 396/684/558 591/689/562
f 342/544/452 592/691/564 399/690/563
f 52/546/454 398/693/565 592/691/564
f 106/692/152 399/690/563 592/691/564
f 185/694/153 593/695/566 399/690/563
f 395/687/560 593/695/566 185/694/153
f 51/547/444 399/690/563 593/695/566
f 347/560/462 594/697/568 401/696/567
f 53/562/464 400/699/569 594/697/568
f 107/698/154 401/696/567 594/697/568
f 187/700/155 595/701/570 401/696/567
f 106/692/152 398/693/565 595/701/570
f 52/546/454 401/696/567 595/701/570
f 352/572/472 596/703/572 403/702/571
f 54/574/474 402/705/573 596/703/572
f 108/704/157 403/702/571 596/703/572
f 188/706/156 597/707/574 403/702/571
f 400/699/569 597/707/574 188/706/156
f 53/562/464 403/702/571 597/707/574
f 357/708/482 598/710/576 404/709/575
f 37/350/312 362/606/492 598/710/576
f 91/607/158 404/709/575 598/710/576
f 192/711/159 599/712/577 404/709/575
f 108/704/157 402/705/573 599/712/577
f 54/574/474 404/709/575 599/712/577
f 382/713/532 600/717/146 405/714/146
f 100/716/530 385/718/538 600/717/146
f 405/714/146 600/717/146 385/718/538
f 388/720/544 601/723/146 406/721/146
f 102/722/542 391/724/550 601/723/146
f 406/721/146 601/723/146 391/724/550
f 394/726/556 602/729/146 407/727/146
f 104/728/554 397/730/561 602/729/146
f 105/166/151 407/727/146 602/729/146
f 406/721/146 603/732/146 408/731/146
f 103/725/548 407/727/146 603/732/146
f 408/731/146 603/732/146 407/727/146
f 405/714/146 604/734/146 409/733/146
f 101/719/536 408/731/146 604/734/146
f 409/733/146 604/734/146 408/731/146
f 184/164/146 605/736/146 410/735/146
f 96/162/149 373/738/514 605/736/146
f 97/737/512 410/735/146 605/736/146
f 99/715/524 409/733/146 606/739/146
f 410/735/146 606/739/146 409/733/146
f 411/740/146 606/739/146 410/735/146
f 411/740/146 607/742/146 379/741/526
f 97/737/512 376/744/520 607/742/146
f 98/743/518 379/741/526 607/742/146
s 0
f 611/745/578 609/761/578 608/746/578
f 613/747/579 615/746/579 614/748/579
f 609/750/146 613/762/146 612/751/146
f 611/753/580 615/763/580 613/754/580
f 610/752/581 614/764/581 615/756/581
f 608/758/582 612/762/582 614/759/582
