# Blender 4.0.0
# www.blender.org
o ToasterOven027_Shelf001
v 0.134016 -0.142196 0.017399
v 0.133503 -0.142170 0.018733
v 0.132264 -0.142107 0.019286
v 0.131025 -0.142045 0.018733
v 0.130512 -0.142019 0.017399
v 0.131025 -0.142045 0.016065
v 0.132264 -0.142107 0.015512
v 0.133503 -0.142170 0.016065
v 0.134016 0.124609 0.017399
v 0.133503 0.124583 0.018733
v 0.132264 0.124521 0.019286
v 0.131026 0.124458 0.018733
v 0.130512 0.124433 0.017399
v 0.131026 0.124458 0.016065
v 0.132264 0.124521 0.015512
v 0.133503 0.124583 0.016065
v 0.133778 0.126415 0.017399
v 0.133275 0.126311 0.018733
v 0.132061 0.126064 0.019286
v 0.130846 0.125816 0.018733
v 0.130343 0.125715 0.017399
v 0.130846 0.125816 0.016065
v 0.132061 0.126064 0.015512
v 0.133275 0.126311 0.016065
v 0.133064 0.128159 0.017399
v 0.132600 0.127961 0.018733
v 0.131480 0.127481 0.019286
v 0.130361 0.127003 0.018733
v 0.129897 0.126805 0.017399
v 0.130361 0.127003 0.016065
v 0.131480 0.127481 0.015512
v 0.132600 0.127961 0.016065
v 0.131945 0.129696 0.017399
v 0.131542 0.129414 0.018733
v 0.130570 0.128732 0.019286
v 0.129598 0.128051 0.018733
v 0.129195 0.127769 0.017399
v 0.129598 0.128051 0.016065
v 0.130570 0.128732 0.015512
v 0.131542 0.129414 0.016065
v 0.130479 0.130977 0.017399
v 0.130156 0.130626 0.018733
v 0.129376 0.129776 0.019286
v 0.128596 0.128926 0.018733
v 0.128273 0.128575 0.017399
v 0.128596 0.128926 0.016065
v 0.129376 0.129776 0.015512
v 0.130156 0.130626 0.016065
v 0.128720 0.131956 0.017399
v 0.128493 0.131550 0.018733
v 0.127945 0.130572 0.019286
v 0.127397 0.129592 0.018733
v 0.127170 0.129188 0.017399
v 0.127397 0.129592 0.016065
v 0.127945 0.130572 0.015512
v 0.128493 0.131550 0.016065
v 0.126724 0.132580 0.017399
v 0.126607 0.132139 0.018733
v 0.126323 0.131079 0.019286
v 0.126040 0.130018 0.018733
v 0.125923 0.129578 0.017399
v 0.126040 0.130018 0.016065
v 0.126323 0.131079 0.015512
v 0.126607 0.132139 0.016065
v 0.124658 0.132788 0.017399
v 0.124629 0.132339 0.018733
v 0.124557 0.131256 0.019286
v 0.124486 0.130173 0.018733
v 0.124457 0.129725 0.017399
v 0.124486 0.130173 0.016065
v 0.124557 0.131256 0.015512
v 0.124629 0.132339 0.016065
v -0.202266 0.132788 0.017399
v -0.202237 0.132339 0.018733
v -0.202165 0.131256 0.019286
v -0.202094 0.130173 0.018733
v -0.202064 0.129725 0.017399
v -0.202094 0.130173 0.016065
v -0.202165 0.131256 0.015512
v -0.202237 0.132339 0.016065
v -0.204332 0.132580 0.017399
v -0.204214 0.132139 0.018733
v -0.203931 0.131079 0.019286
v -0.203648 0.130018 0.018733
v -0.203530 0.129578 0.017399
v -0.203648 0.130018 0.016065
v -0.203931 0.131079 0.015512
v -0.204214 0.132139 0.016065
v -0.206328 0.131956 0.017399
v -0.206101 0.131550 0.018733
v -0.205553 0.130572 0.019286
v -0.205005 0.129592 0.018733
v -0.204778 0.129188 0.017399
v -0.205005 0.129592 0.016065
v -0.205553 0.130572 0.015512
v -0.206101 0.131550 0.016065
v -0.208087 0.130977 0.017399
v -0.207764 0.130626 0.018733
v -0.206984 0.129776 0.019286
v -0.206204 0.128926 0.018733
v -0.205881 0.128575 0.017399
v -0.206204 0.128926 0.016065
v -0.206984 0.129776 0.015512
v -0.207764 0.130626 0.016065
v -0.209553 0.129696 0.017399
v -0.209150 0.129415 0.018733
v -0.208178 0.128732 0.019286
v -0.207206 0.128051 0.018733
v -0.206803 0.127769 0.017399
v -0.207206 0.128051 0.016065
v -0.208178 0.128732 0.015512
v -0.209150 0.129415 0.016065
v -0.210672 0.128159 0.017399
v -0.210208 0.127961 0.018733
v -0.209088 0.127481 0.019286
v -0.207968 0.127003 0.018733
v -0.207505 0.126805 0.017399
v -0.207968 0.127003 0.016065
v -0.209088 0.127481 0.015512
v -0.210208 0.127961 0.016065
v -0.211386 0.126415 0.017399
v -0.210883 0.126312 0.018733
v -0.209668 0.126064 0.019286
v -0.208454 0.125816 0.018733
v -0.207951 0.125715 0.017399
v -0.208454 0.125816 0.016065
v -0.209668 0.126064 0.015512
v -0.210883 0.126312 0.016065
v -0.211624 0.124609 0.017399
v -0.211111 0.124583 0.018733
v -0.209872 0.124522 0.019286
v -0.208633 0.124458 0.018733
v -0.208120 0.124433 0.017399
v -0.208633 0.124458 0.016065
v -0.209872 0.124522 0.015512
v -0.211111 0.124583 0.016065
v -0.211624 -0.142196 0.017399
v -0.211111 -0.142170 0.018733
v -0.209872 -0.142107 0.019286
v -0.208633 -0.142045 0.018733
v -0.208120 -0.142019 0.017399
v -0.208633 -0.142045 0.016065
v -0.209872 -0.142107 0.015512
v -0.211111 -0.142170 0.016065
v -0.211386 -0.144001 0.017399
v -0.210883 -0.143898 0.018733
v -0.209668 -0.143650 0.019286
v -0.208454 -0.143403 0.018733
v -0.207951 -0.143300 0.017399
v -0.208454 -0.143403 0.016065
v -0.209668 -0.143650 0.015512
v -0.210883 -0.143898 0.016065
v -0.210672 -0.145746 0.017399
v -0.210208 -0.145547 0.018733
v -0.209088 -0.145068 0.019286
v -0.207969 -0.144589 0.018733
v -0.207505 -0.144391 0.017399
v -0.207969 -0.144589 0.016065
v -0.209088 -0.145068 0.015512
v -0.210208 -0.145547 0.016065
v -0.209553 -0.147282 0.017399
v -0.209150 -0.147001 0.018733
v -0.208178 -0.146318 0.019286
v -0.207206 -0.145638 0.018733
v -0.206803 -0.145354 0.017399
v -0.207206 -0.145638 0.016065
v -0.208178 -0.146318 0.015512
v -0.209150 -0.147001 0.016065
v -0.208087 -0.148563 0.017399
v -0.207764 -0.148211 0.018733
v -0.206984 -0.147363 0.019286
v -0.206204 -0.146512 0.018733
v -0.205881 -0.146160 0.017399
v -0.206204 -0.146512 0.016065
v -0.206984 -0.147363 0.015512
v -0.207764 -0.148211 0.016065
v -0.206328 -0.149541 0.017399
v -0.206101 -0.149137 0.018733
v -0.205553 -0.148157 0.019286
v -0.205005 -0.147179 0.018733
v -0.204778 -0.146775 0.017399
v -0.205005 -0.147179 0.016065
v -0.205553 -0.148157 0.015512
v -0.206101 -0.149137 0.016065
v -0.204332 -0.150166 0.017399
v -0.204214 -0.149726 0.018733
v -0.203931 -0.148666 0.019286
v -0.203648 -0.147603 0.018733
v -0.203531 -0.147165 0.017399
v -0.203648 -0.147603 0.016065
v -0.203931 -0.148666 0.015512
v -0.204214 -0.149726 0.016065
v -0.202266 -0.150374 0.017399
v -0.202237 -0.149925 0.018733
v -0.202165 -0.148843 0.019286
v -0.202094 -0.147760 0.018733
v -0.202064 -0.147311 0.017399
v -0.202094 -0.147760 0.016065
v -0.202165 -0.148843 0.015512
v -0.202237 -0.149925 0.016065
v 0.124658 -0.150374 0.017399
v 0.124629 -0.149925 0.018733
v 0.124557 -0.148843 0.019286
v 0.124486 -0.147760 0.018733
v 0.124456 -0.147311 0.017399
v 0.124486 -0.147760 0.016065
v 0.124557 -0.148843 0.015512
v 0.124629 -0.149925 0.016065
v 0.126724 -0.150166 0.017399
v 0.126607 -0.149726 0.018733
v 0.126323 -0.148666 0.019286
v 0.126040 -0.147603 0.018733
v 0.125923 -0.147165 0.017399
v 0.126040 -0.147603 0.016065
v 0.126323 -0.148666 0.015512
v 0.126607 -0.149726 0.016065
v 0.128720 -0.149541 0.017399
v 0.128493 -0.149137 0.018733
v 0.127945 -0.148157 0.019286
v 0.127397 -0.147179 0.018733
v 0.127170 -0.146775 0.017399
v 0.127397 -0.147179 0.016065
v 0.127945 -0.148157 0.015512
v 0.128493 -0.149137 0.016065
v 0.130479 -0.148563 0.017399
v 0.130156 -0.148211 0.018733
v 0.129376 -0.147363 0.019286
v 0.128596 -0.146512 0.018733
v 0.128273 -0.146160 0.017399
v 0.128596 -0.146512 0.016065
v 0.129376 -0.147363 0.015512
v 0.130156 -0.148211 0.016065
v 0.131945 -0.147282 0.017399
v 0.131542 -0.147001 0.018733
v 0.130570 -0.146318 0.019286
v 0.129598 -0.145638 0.018733
v 0.129195 -0.145354 0.017399
v 0.129598 -0.145638 0.016065
v 0.130570 -0.146318 0.015512
v 0.131542 -0.147001 0.016065
v 0.133064 -0.145746 0.017399
v 0.132600 -0.145547 0.018733
v 0.131480 -0.145068 0.019286
v 0.130361 -0.144589 0.018733
v 0.129897 -0.144391 0.017399
v 0.130361 -0.144589 0.016065
v 0.131480 -0.145068 0.015512
v 0.132600 -0.145547 0.016065
v 0.133778 -0.144002 0.017399
v 0.133275 -0.143898 0.018733
v 0.132061 -0.143650 0.019286
v 0.130846 -0.143403 0.018733
v 0.130343 -0.143300 0.017399
v 0.130846 -0.143403 0.016065
v 0.132061 -0.143650 0.015512
v 0.133275 -0.143898 0.016065
v -0.183152 0.131256 0.020486
v -0.182639 0.131256 0.021820
v -0.181400 0.131256 0.022373
v -0.180161 0.131256 0.021820
v -0.179648 0.131256 0.020486
v -0.180161 0.131256 0.019152
v -0.181400 0.131256 0.018599
v -0.182639 0.131256 0.019152
v -0.183152 -0.149423 0.020486
v -0.182639 -0.149423 0.021820
v -0.181400 -0.149423 0.022373
v -0.180161 -0.149423 0.021820
v -0.179648 -0.149423 0.020486
v -0.180161 -0.149423 0.019152
v -0.181400 -0.149423 0.018599
v -0.182639 -0.149423 0.019152
v -0.146299 0.131256 0.020486
v -0.145786 0.131256 0.021820
v -0.144547 0.131256 0.022373
v -0.143309 0.131256 0.021820
v -0.142795 0.131256 0.020486
v -0.143309 0.131256 0.019152
v -0.144547 0.131256 0.018599
v -0.145786 0.131256 0.019152
v -0.146299 -0.149423 0.020486
v -0.145786 -0.149423 0.021820
v -0.144547 -0.149423 0.022373
v -0.143309 -0.149423 0.021820
v -0.142796 -0.149423 0.020486
v -0.143309 -0.149423 0.019152
v -0.144547 -0.149423 0.018599
v -0.145786 -0.149423 0.019152
v -0.109683 0.131256 0.020486
v -0.109170 0.131256 0.021820
v -0.107931 0.131256 0.022373
v -0.106692 0.131256 0.021820
v -0.106179 0.131256 0.020486
v -0.106692 0.131256 0.019152
v -0.107931 0.131256 0.018599
v -0.109170 0.131256 0.019152
v -0.109683 -0.149423 0.020486
v -0.109170 -0.149423 0.021820
v -0.107931 -0.149423 0.022373
v -0.106692 -0.149423 0.021820
v -0.106179 -0.149423 0.020486
v -0.106692 -0.149423 0.019152
v -0.107931 -0.149423 0.018599
v -0.109170 -0.149423 0.019152
v -0.072669 0.131256 0.020486
v -0.072156 0.131256 0.021820
v -0.070918 0.131256 0.022373
v -0.069679 0.131256 0.021820
v -0.069166 0.131256 0.020486
v -0.069679 0.131256 0.019152
v -0.070918 0.131256 0.018599
v -0.072156 0.131256 0.019152
v -0.072670 -0.149423 0.020486
v -0.072156 -0.149423 0.021820
v -0.070918 -0.149423 0.022373
v -0.069679 -0.149423 0.021820
v -0.069166 -0.149423 0.020486
v -0.069679 -0.149423 0.019152
v -0.070918 -0.149423 0.018599
v -0.072156 -0.149423 0.019152
v -0.036053 0.131256 0.020486
v -0.035540 0.131256 0.021820
v -0.034301 0.131256 0.022373
v -0.033062 0.131256 0.021820
v -0.032549 0.131256 0.020486
v -0.033062 0.131256 0.019152
v -0.034301 0.131256 0.018599
v -0.035540 0.131256 0.019152
v -0.036053 -0.149423 0.020486
v -0.035540 -0.149423 0.021820
v -0.034301 -0.149423 0.022373
v -0.033062 -0.149423 0.021820
v -0.032549 -0.149423 0.020486
v -0.033062 -0.149423 0.019152
v -0.034301 -0.149423 0.018599
v -0.035540 -0.149423 0.019152
v 0.000832 0.131256 0.020486
v 0.001345 0.131256 0.021820
v 0.002584 0.131256 0.022373
v 0.003823 0.131256 0.021820
v 0.004336 0.131256 0.020486
v 0.003823 0.131256 0.019152
v 0.002584 0.131256 0.018599
v 0.001345 0.131256 0.019152
v 0.000832 -0.149423 0.020486
v 0.001345 -0.149423 0.021820
v 0.002584 -0.149423 0.022373
v 0.003823 -0.149423 0.021820
v 0.004336 -0.149423 0.020486
v 0.003823 -0.149423 0.019152
v 0.002584 -0.149423 0.018599
v 0.001345 -0.149423 0.019152
v 0.037449 0.131256 0.020486
v 0.037962 0.131256 0.021820
v 0.039201 0.131256 0.022373
v 0.040439 0.131256 0.021820
v 0.040952 0.131256 0.020486
v 0.040439 0.131256 0.019152
v 0.039201 0.131256 0.018599
v 0.037962 0.131256 0.019152
v 0.037449 -0.149423 0.020486
v 0.037962 -0.149423 0.021820
v 0.039200 -0.149423 0.022373
v 0.040439 -0.149423 0.021820
v 0.040952 -0.149423 0.020486
v 0.040439 -0.149423 0.019152
v 0.039200 -0.149423 0.018599
v 0.037962 -0.149423 0.019152
v 0.074462 0.131256 0.020486
v 0.074975 0.131256 0.021820
v 0.076214 0.131256 0.022373
v 0.077453 0.131256 0.021820
v 0.077966 0.131256 0.020486
v 0.077453 0.131256 0.019152
v 0.076214 0.131256 0.018599
v 0.074975 0.131256 0.019152
v 0.074462 -0.149423 0.020486
v 0.074975 -0.149423 0.021820
v 0.076214 -0.149423 0.022373
v 0.077453 -0.149423 0.021820
v 0.077966 -0.149423 0.020486
v 0.077453 -0.149423 0.019152
v 0.076214 -0.149423 0.018599
v 0.074975 -0.149423 0.019152
v 0.111078 0.131256 0.020486
v 0.111592 0.131256 0.021820
v 0.112830 0.131256 0.022373
v 0.114069 0.131256 0.021820
v 0.114582 0.131256 0.020486
v 0.114069 0.131256 0.019152
v 0.112830 0.131256 0.018599
v 0.111592 0.131256 0.019152
v 0.111078 -0.149423 0.020486
v 0.111592 -0.149423 0.021820
v 0.112830 -0.149423 0.022373
v 0.114069 -0.149423 0.021820
v 0.114582 -0.149423 0.020486
v 0.114069 -0.149423 0.019152
v 0.112830 -0.149423 0.018599
v 0.111592 -0.149423 0.019152
vn 0.7261 0.0075 0.6875
vn 0.7261 -0.0075 0.6875
vn 1.0000 -0.0087 0.0003
vn 1.0000 0.0087 0.0003
vn 0.0031 -0.0007 1.0000
vn 0.0031 0.0006 1.0000
vn -0.7241 0.0072 0.6896
vn -0.7244 -0.0073 0.6893
vn -1.0000 -0.0094 -0.0001
vn -1.0000 0.0095 0.0003
vn -0.7244 0.0073 -0.6894
vn -0.7244 -0.0073 -0.6893
vn 0.0031 0.0006 -1.0000
vn 0.0031 -0.0007 -1.0000
vn 0.7261 0.0075 -0.6875
vn 0.7258 -0.0076 -0.6878
vn 0.7139 0.1903 0.6739
vn 0.9668 0.2554 -0.0000
vn 0.0329 0.0113 0.9994
vn -0.6845 -0.1789 0.7068
vn -0.9673 -0.2536 -0.0005
vn -0.6843 -0.1790 -0.7069
vn 0.0330 0.0113 -0.9994
vn 0.7139 0.1903 -0.6739
vn 0.6503 0.3625 0.6676
vn 0.8750 0.4841 -0.0000
vn 0.0321 0.0217 0.9992
vn -0.6206 -0.3463 0.7035
vn -0.8719 -0.4898 -0.0000
vn -0.6206 -0.3463 -0.7035
vn 0.0321 0.0217 -0.9993
vn 0.6504 0.3624 -0.6676
vn 0.5539 0.5064 0.6609
vn 0.7399 0.6727 -0.0000
vn 0.0250 0.0282 0.9993
vn -0.5300 -0.4856 0.6952
vn -0.7357 -0.6773 -0.0000
vn -0.5300 -0.4856 -0.6952
vn 0.0250 0.0282 -0.9993
vn 0.5539 0.5064 -0.6609
vn 0.5775 0.8164 -0.0000
vn 0.4349 0.6189 0.6540
vn 0.0178 0.0320 0.9993
vn -0.4174 -0.5950 0.6868
vn -0.5727 -0.8198 -0.0000
vn -0.4174 -0.5950 -0.6868
vn 0.0178 0.0320 -0.9993
vn 0.4349 0.6190 -0.6540
vn 0.3959 0.9183 -0.0000
vn 0.2998 0.6998 0.6483
vn 0.0112 0.0341 0.9994
vn -0.2882 -0.6745 0.6797
vn -0.3921 -0.9199 -0.0000
vn -0.2877 -0.6747 -0.6797
vn 0.0111 0.0340 -0.9994
vn 0.2998 0.6999 -0.6483
vn 0.2016 0.9795 -0.0000
vn 0.1533 0.7480 0.6458
vn 0.0048 0.0299 0.9995
vn -0.1448 -0.7266 0.6717
vn -0.1940 -0.9810 -0.0000
vn -0.1449 -0.7266 -0.6717
vn 0.0048 0.0301 -0.9995
vn 0.1533 0.7480 -0.6458
vn -0.0052 1.0000 -0.0003
vn -0.0019 0.7558 0.6548
vn -0.0001 0.0005 1.0000
vn 0.0022 -0.7582 0.6520
vn 0.0061 -1.0000 -0.0000
vn 0.0019 -0.7590 -0.6511
vn 0.0006 0.0005 -1.0000
vn -0.0016 0.7549 -0.6558
vn 0.0054 1.0000 -0.0003
vn 0.0020 0.7562 0.6543
vn 0.0003 0.0006 1.0000
vn -0.0021 -0.7586 0.6516
vn -0.0060 -1.0000 -0.0000
vn -0.0021 -0.7586 -0.6515
vn 0.0003 0.0006 -1.0000
vn 0.0020 0.7562 -0.6543
vn -0.1533 0.7480 0.6458
vn -0.2023 0.9793 -0.0000
vn -0.0047 0.0300 0.9995
vn 0.1450 -0.7264 0.6718
vn 0.1940 -0.9810 -0.0002
vn 0.1449 -0.7265 -0.6717
vn -0.0049 0.0301 -0.9995
vn -0.1533 0.7481 -0.6457
vn -0.2998 0.7000 0.6481
vn -0.3959 0.9183 -0.0000
vn -0.0113 0.0340 0.9994
vn 0.2880 -0.6745 0.6797
vn 0.3921 -0.9199 -0.0000
vn 0.2880 -0.6745 -0.6797
vn -0.0117 0.0337 -0.9994
vn -0.2998 0.7001 -0.6480
vn -0.4349 0.6188 0.6541
vn -0.5775 0.8164 -0.0000
vn -0.0178 0.0320 0.9993
vn 0.4173 -0.5951 0.6868
vn 0.5727 -0.8198 -0.0000
vn 0.4173 -0.5951 -0.6868
vn -0.0178 0.0320 -0.9993
vn -0.4349 0.6187 -0.6543
vn -0.5538 0.5064 0.6610
vn -0.7399 0.6727 -0.0000
vn -0.0249 0.0282 0.9993
vn 0.5300 -0.4856 0.6952
vn 0.7357 -0.6773 -0.0000
vn 0.5302 -0.4854 -0.6952
vn -0.0249 0.0282 -0.9993
vn -0.5539 0.5064 -0.6608
vn -0.8746 0.4848 -0.0000
vn -0.6504 0.3624 0.6676
vn -0.0321 0.0218 0.9992
vn 0.6206 -0.3463 0.7035
vn 0.8719 -0.4898 -0.0000
vn 0.6208 -0.3459 -0.7035
vn -0.0320 0.0218 -0.9993
vn -0.6506 0.3624 -0.6673
vn -0.9668 0.2554 -0.0000
vn -0.7140 0.1902 0.6738
vn -0.0327 0.0111 0.9994
vn 0.6843 -0.1790 0.7068
vn 0.9673 -0.2536 -0.0000
vn 0.6846 -0.1788 -0.7067
vn -0.0328 0.0112 -0.9994
vn -0.7140 0.1902 -0.6738
vn -1.0000 0.0087 0.0003
vn -0.7264 0.0074 0.6872
vn -0.0031 0.0004 1.0000
vn 0.7247 -0.0074 0.6890
vn 1.0000 -0.0094 -0.0000
vn 0.7271 -0.0086 -0.6865
vn -0.0032 -0.0003 -1.0000
vn -0.7280 0.0070 -0.6855
vn -0.7261 -0.0075 0.6875
vn -1.0000 -0.0087 0.0003
vn -0.0031 -0.0006 1.0000
vn 0.7244 0.0073 0.6893
vn 1.0000 0.0095 -0.0000
vn 0.7244 0.0073 -0.6893
vn -0.0031 -0.0006 -1.0000
vn -0.7261 -0.0075 -0.6875
vn -0.7139 -0.1902 0.6739
vn -0.9668 -0.2554 -0.0000
vn -0.0329 -0.0112 0.9994
vn 0.6843 0.1790 0.7069
vn 0.9673 0.2536 -0.0005
vn 0.6843 0.1790 -0.7069
vn -0.0330 -0.0113 -0.9994
vn -0.7139 -0.1902 -0.6739
vn -0.6506 -0.3624 0.6674
vn -0.8750 -0.4841 -0.0000
vn -0.0321 -0.0217 0.9992
vn 0.6206 0.3463 0.7036
vn 0.8719 0.4897 -0.0000
vn 0.6206 0.3463 -0.7035
vn -0.0324 -0.0212 -0.9993
vn -0.6506 -0.3623 -0.6674
vn -0.5538 -0.5064 0.6609
vn -0.7399 -0.6727 -0.0000
vn -0.0250 -0.0282 0.9993
vn 0.5300 0.4856 0.6952
vn 0.7357 0.6773 -0.0000
vn 0.5300 0.4856 -0.6952
vn -0.0253 -0.0278 -0.9993
vn -0.5539 -0.5063 -0.6609
vn -0.5775 -0.8164 -0.0000
vn -0.4349 -0.6188 0.6542
vn -0.0179 -0.0318 0.9993
vn 0.4171 0.5953 0.6868
vn 0.5724 0.8200 -0.0000
vn 0.4168 0.5955 -0.6868
vn -0.0178 -0.0320 -0.9993
vn -0.4350 -0.6190 -0.6539
vn -0.3962 -0.9181 -0.0000
vn -0.2997 -0.7001 0.6481
vn -0.0115 -0.0339 0.9994
vn 0.2877 0.6747 0.6797
vn 0.3921 0.9199 -0.0000
vn 0.2877 0.6747 -0.6797
vn -0.0111 -0.0339 -0.9994
vn -0.2998 -0.6999 -0.6483
vn -0.2023 -0.9793 -0.0000
vn -0.1533 -0.7479 0.6458
vn -0.0048 -0.0300 0.9995
vn 0.1450 0.7264 0.6718
vn 0.1941 0.9810 -0.0000
vn 0.1449 0.7266 -0.6717
vn -0.0048 -0.0301 -0.9995
vn -0.1533 -0.7479 -0.6459
vn 0.0054 -1.0000 -0.0003
vn 0.0019 -0.7558 0.6548
vn 0.0001 -0.0005 1.0000
vn -0.0023 0.7582 0.6520
vn -0.0058 1.0000 -0.0000
vn -0.0019 0.7590 -0.6511
vn 0.0001 -0.0005 -1.0000
vn 0.0019 -0.7558 -0.6548
vn -0.0021 -0.7562 0.6543
vn -0.0052 -1.0000 -0.0003
vn -0.0003 -0.0005 1.0000
vn 0.0020 0.7586 0.6515
vn 0.0062 1.0000 -0.0000
vn 0.0020 0.7586 -0.6515
vn -0.0003 -0.0005 -1.0000
vn -0.0020 -0.7562 -0.6543
vn 0.1533 -0.7479 0.6459
vn 0.2016 -0.9795 -0.0000
vn 0.0047 -0.0298 0.9995
vn -0.1449 0.7265 0.6717
vn -0.1940 0.9810 -0.0002
vn -0.1449 0.7265 -0.6717
vn 0.0049 -0.0301 -0.9995
vn 0.1533 -0.7478 -0.6459
vn 0.2998 -0.7000 0.6482
vn 0.3955 -0.9184 -0.0000
vn 0.0112 -0.0339 0.9994
vn -0.2880 0.6745 0.6797
vn -0.3914 0.9202 -0.0000
vn -0.2880 0.6745 -0.6797
vn 0.0113 -0.0340 -0.9994
vn 0.2998 -0.7000 -0.6482
vn 0.4350 -0.6189 0.6540
vn 0.5775 -0.8164 -0.0000
vn 0.0178 -0.0320 0.9993
vn -0.4173 0.5951 0.6868
vn -0.5727 0.8198 -0.0000
vn -0.4173 0.5951 -0.6868
vn 0.0182 -0.0317 -0.9993
vn 0.4350 -0.6189 -0.6540
vn 0.7399 -0.6727 -0.0000
vn 0.5536 -0.5063 0.6612
vn 0.0251 -0.0280 0.9993
vn -0.5296 0.4860 0.6952
vn -0.7357 0.6773 -0.0000
vn -0.5300 0.4856 -0.6952
vn 0.0249 -0.0282 -0.9993
vn 0.5536 -0.5063 -0.6612
vn 0.8746 -0.4848 -0.0000
vn 0.6506 -0.3624 0.6674
vn 0.0323 -0.0214 0.9993
vn -0.6202 0.3469 0.7035
vn -0.8722 0.4892 -0.0000
vn -0.6208 0.3459 -0.7035
vn 0.0321 -0.0218 -0.9992
vn 0.6506 -0.3624 -0.6673
vn 0.9666 -0.2562 -0.0000
vn 0.7139 -0.1902 0.6739
vn 0.0326 -0.0109 0.9994
vn -0.6840 0.1793 0.7071
vn -0.9673 0.2536 -0.0000
vn -0.6846 0.1788 -0.7067
vn 0.0329 -0.0112 -0.9994
vn 0.7139 -0.1902 -0.6739
vn -0.7254 -0.0000 0.6883
vn -0.9334 -0.0000 0.3590
vn -0.9333 -0.0000 0.3590
vn -0.4074 -0.0000 0.9132
vn 0.7254 -0.0000 0.6883
vn 0.4074 -0.0000 0.9132
vn 0.9333 -0.0000 0.3590
vn 0.7254 -0.0000 -0.6883
vn 0.9333 -0.0000 -0.3590
vn -0.0000 -0.0000 -1.0000
vn -0.7254 -0.0000 -0.6883
vn -0.9333 -0.0000 -0.3590
vn -0.0000 1.0000 -0.0000
vn -0.0000 -1.0000 -0.0000
vn 0.9334 -0.0000 0.3590
vn 0.9334 -0.0000 -0.3590
vn 0.4074 -0.0000 -0.9132
vn 0.4074 -0.0000 -0.9133
vn -0.4074 -0.0000 -0.9132
vn 1.0000 -0.0000 -0.0000
vn -0.9334 -0.0000 -0.3590
vn -1.0000 -0.0000 -0.0000
vn 0.9334 -0.0000 0.3589
vt 0.739603 0.934926
vt 0.739603 0.963179
vt 0.739478 0.963182
vt 0.739478 0.934923
vt 0.705316 0.935110
vt 0.733222 0.934995
vt 0.733221 0.935110
vt 0.705330 0.934995
vt 0.733208 0.934880
vt 0.705329 0.934880
vt 0.742385 0.962949
vt 0.742385 0.934722
vt 0.742509 0.934725
vt 0.742509 0.962946
vt 0.742596 0.962949
vt 0.742596 0.934722
vt 0.763081 0.933863
vt 0.734861 0.934151
vt 0.734866 0.934028
vt 0.763072 0.933740
vt 0.763085 0.933960
vt 0.734853 0.934249
vt 0.739392 0.934926
vt 0.739392 0.963179
vt 0.739611 0.934743
vt 0.739487 0.934732
vt 0.705168 0.934976
vt 0.705135 0.935089
vt 0.705187 0.934864
vt 0.742392 0.934578
vt 0.742516 0.934589
vt 0.742603 0.934578
vt 0.763216 0.933722
vt 0.763244 0.933843
vt 0.763268 0.933938
vt 0.739400 0.934743
vt 0.739636 0.934568
vt 0.739513 0.934547
vt 0.704963 0.935026
vt 0.705020 0.934923
vt 0.705063 0.934819
vt 0.742410 0.934453
vt 0.742532 0.934474
vt 0.742620 0.934453
vt 0.763394 0.933789
vt 0.763341 0.933677
vt 0.763443 0.933876
vt 0.739425 0.934568
vt 0.739674 0.934415
vt 0.739554 0.934385
vt 0.704811 0.934928
vt 0.704889 0.934838
vt 0.704953 0.934748
vt 0.742438 0.934342
vt 0.742558 0.934372
vt 0.763418 0.933542
vt 0.763316 0.933606
vt 0.763452 0.933608
vt 0.763526 0.933707
vt 0.763597 0.933780
vt 0.739464 0.934415
vt 0.739608 0.934249
vt 0.739725 0.934286
vt 0.704780 0.934728
vt 0.704684 0.934800
vt 0.704862 0.934656
vt 0.742474 0.934249
vt 0.742592 0.934286
vt 0.764509 0.903333
vt 0.764387 0.903210
vt 0.764497 0.903247
vt 0.764400 0.903303
vt 0.763637 0.933599
vt 0.763545 0.933518
vt 0.763725 0.933655
vt 0.764273 0.903346
vt 0.764273 0.903210
vt 0.764387 0.903247
vt 0.764387 0.903376
vt 0.764158 0.903376
vt 0.764273 0.903509
vt 0.764158 0.903530
vt 0.704697 0.934595
vt 0.704587 0.934646
vt 0.704792 0.934545
vt 0.764637 0.903414
vt 0.764627 0.903303
vt 0.764517 0.903435
vt 0.764410 0.903414
vt 0.763615 0.933410
vt 0.763721 0.933471
vt 0.763823 0.933506
vt 0.764387 0.903530
vt 0.764273 0.903693
vt 0.764158 0.903704
vt 0.704525 0.934471
vt 0.704644 0.934445
vt 0.704747 0.934419
vt 0.764643 0.903540
vt 0.764523 0.903550
vt 0.764416 0.903540
vt 0.763660 0.933289
vt 0.763775 0.933325
vt 0.763885 0.933337
vt 0.764387 0.903704
vt 0.764273 0.903885
vt 0.764158 0.903887
vt 0.704505 0.934288
vt 0.704625 0.934282
vt 0.704731 0.934275
vt 0.764645 0.903683
vt 0.764525 0.903686
vt 0.764418 0.903683
vt 0.763793 0.933168
vt 0.763677 0.933150
vt 0.763906 0.933160
vt 0.764387 0.903887
vt 0.764273 0.934147
vt 0.764158 0.934144
vt 0.704505 0.904032
vt 0.704625 0.904038
vt 0.704731 0.904045
vt 0.764645 0.933914
vt 0.764525 0.933911
vt 0.764418 0.933914
vt 0.763677 0.904009
vt 0.763793 0.904014
vt 0.763906 0.903994
vt 0.764387 0.934144
vt 0.764158 0.934327
vt 0.764273 0.934338
vt 0.704644 0.903875
vt 0.704525 0.903849
vt 0.704747 0.903901
vt 0.764643 0.934057
vt 0.764523 0.934047
vt 0.764416 0.934057
vt 0.763660 0.903870
vt 0.763775 0.903857
vt 0.763885 0.903817
vt 0.764387 0.934327
vt 0.764158 0.934502
vt 0.764273 0.934523
vt 0.704587 0.903674
vt 0.704697 0.903725
vt 0.704792 0.903775
vt 0.764637 0.934183
vt 0.764517 0.934162
vt 0.764410 0.934183
vt 0.763615 0.903750
vt 0.763721 0.903712
vt 0.763823 0.903650
vt 0.764387 0.934502
vt 0.764158 0.934656
vt 0.764273 0.934686
vt 0.704684 0.903520
vt 0.704780 0.903592
vt 0.704862 0.903664
vt 0.764627 0.934294
vt 0.764509 0.934264
vt 0.764400 0.934294
vt 0.763637 0.903585
vt 0.763545 0.903643
vt 0.763725 0.903502
vt 0.764387 0.934656
vt 0.740008 0.963691
vt 0.740058 0.963819
vt 0.739941 0.963857
vt 0.739888 0.963721
vt 0.704811 0.903392
vt 0.704889 0.903482
vt 0.704953 0.903572
vt 0.742333 0.934342
vt 0.742179 0.934286
vt 0.742296 0.934249
vt 0.742213 0.934372
vt 0.764497 0.934350
vt 0.764387 0.934387
vt 0.763526 0.903480
vt 0.763452 0.903555
vt 0.763597 0.903380
vt 0.764387 0.934784
vt 0.764273 0.934821
vt 0.739847 0.963558
vt 0.739969 0.963537
vt 0.705020 0.903397
vt 0.704963 0.903294
vt 0.705063 0.903501
vt 0.742361 0.934453
vt 0.742239 0.934474
vt 0.742150 0.934453
vt 0.742122 0.934342
vt 0.763341 0.903488
vt 0.763394 0.903400
vt 0.763443 0.903287
vt 0.739797 0.963691
vt 0.739758 0.963537
vt 0.739820 0.963373
vt 0.739944 0.963362
vt 0.705168 0.903344
vt 0.705135 0.903231
vt 0.705187 0.903456
vt 0.742379 0.934578
vt 0.742255 0.934589
vt 0.742168 0.934578
vt 0.763216 0.903446
vt 0.763244 0.903350
vt 0.763268 0.903229
vt 0.739733 0.963362
vt 0.739812 0.963182
vt 0.739936 0.963179
vt 0.705316 0.903210
vt 0.705330 0.903325
vt 0.705329 0.903440
vt 0.742261 0.934725
vt 0.742175 0.934722
vt 0.763081 0.903333
vt 0.763072 0.903431
vt 0.763085 0.903210
vt 0.739725 0.963179
vt 0.739936 0.934926
vt 0.739812 0.934923
vt 0.733222 0.903325
vt 0.733221 0.903210
vt 0.733208 0.903440
vt 0.742261 0.962946
vt 0.742175 0.962949
vt 0.734861 0.903622
vt 0.734866 0.903720
vt 0.734853 0.903499
vt 0.739725 0.934926
vt 0.739944 0.934743
vt 0.739820 0.934732
vt 0.733383 0.903344
vt 0.733402 0.903231
vt 0.733350 0.903456
vt 0.742379 0.963093
vt 0.742255 0.963082
vt 0.742168 0.963093
vt 0.734722 0.903737
vt 0.734698 0.903642
vt 0.734670 0.903521
vt 0.739733 0.934743
vt 0.739969 0.934568
vt 0.739847 0.934547
vt 0.733574 0.903294
vt 0.733531 0.903397
vt 0.733474 0.903501
vt 0.742361 0.963218
vt 0.742239 0.963197
vt 0.742150 0.963218
vt 0.734548 0.903695
vt 0.734597 0.903782
vt 0.734496 0.903583
vt 0.739758 0.934568
vt 0.740008 0.934415
vt 0.739888 0.934385
vt 0.733726 0.903392
vt 0.733662 0.903482
vt 0.733584 0.903572
vt 0.742333 0.963329
vt 0.742213 0.963299
vt 0.742122 0.963329
vt 0.734486 0.903851
vt 0.734416 0.903777
vt 0.734342 0.903679
vt 0.734470 0.903511
vt 0.734307 0.903613
vt 0.739941 0.934249
vt 0.740058 0.934286
vt 0.733771 0.903592
vt 0.733853 0.903520
vt 0.733675 0.903664
vt 0.742296 0.963422
vt 0.742179 0.963385
vt 0.764760 0.903333
vt 0.764645 0.903303
vt 0.764760 0.903247
vt 0.764645 0.903210
vt 0.734393 0.903941
vt 0.734305 0.903885
vt 0.734214 0.903804
vt 0.764039 0.934686
vt 0.764058 0.934821
vt 0.763948 0.934784
vt 0.763931 0.934656
vt 0.764158 0.934656
vt 0.764025 0.934523
vt 0.764145 0.934502
vt 0.733855 0.903725
vt 0.733950 0.903674
vt 0.733745 0.903775
vt 0.764874 0.903414
vt 0.764874 0.903303
vt 0.764760 0.903435
vt 0.764645 0.903414
vt 0.734323 0.904049
vt 0.734221 0.904014
vt 0.734116 0.903953
vt 0.763918 0.934502
vt 0.764016 0.934338
vt 0.764136 0.934327
vt 0.733908 0.903875
vt 0.734011 0.903849
vt 0.733789 0.903901
vt 0.764874 0.903540
vt 0.764760 0.903550
vt 0.764645 0.903540
vt 0.734278 0.904170
vt 0.734167 0.904159
vt 0.734053 0.904122
vt 0.763909 0.934327
vt 0.764013 0.934147
vt 0.764133 0.934144
vt 0.734032 0.904032
vt 0.733926 0.904038
vt 0.733806 0.904045
vt 0.764874 0.903683
vt 0.764760 0.903686
vt 0.764645 0.903683
vt 0.734149 0.904317
vt 0.734261 0.904309
vt 0.734032 0.904299
vt 0.763906 0.934144
vt 0.764133 0.903887
vt 0.764013 0.903885
vt 0.734032 0.934288
vt 0.733926 0.934282
vt 0.733806 0.934275
vt 0.764874 0.933914
vt 0.764760 0.933911
vt 0.734149 0.933471
vt 0.734261 0.933450
vt 0.734032 0.933465
vt 0.763906 0.903887
vt 0.764136 0.903704
vt 0.764016 0.903693
vt 0.733908 0.934445
vt 0.734011 0.934471
vt 0.733789 0.934419
vt 0.764874 0.934057
vt 0.764760 0.934047
vt 0.764645 0.934057
vt 0.734278 0.933589
vt 0.734167 0.933628
vt 0.734053 0.933642
vt 0.763909 0.903704
vt 0.764145 0.903530
vt 0.764025 0.903509
vt 0.733950 0.934646
vt 0.733855 0.934595
vt 0.733745 0.934545
vt 0.764874 0.934183
vt 0.764760 0.934162
vt 0.764645 0.934183
vt 0.734221 0.933772
vt 0.734323 0.933710
vt 0.734116 0.933809
vt 0.763918 0.903530
vt 0.764158 0.903376
vt 0.764039 0.903346
vt 0.733853 0.934800
vt 0.733771 0.934728
vt 0.733675 0.934656
vt 0.764874 0.934294
vt 0.764760 0.934264
vt 0.764645 0.934294
vt 0.734305 0.933899
vt 0.734393 0.933816
vt 0.734214 0.933957
vt 0.763931 0.903376
vt 0.739725 0.963819
vt 0.739554 0.963721
vt 0.739674 0.963691
vt 0.739608 0.963857
vt 0.733726 0.934928
vt 0.733662 0.934838
vt 0.733584 0.934748
vt 0.742438 0.963329
vt 0.742558 0.963299
vt 0.742474 0.963422
vt 0.742592 0.963385
vt 0.764760 0.934350
vt 0.764645 0.934387
vt 0.734486 0.933904
vt 0.734416 0.934004
vt 0.734342 0.934079
vt 0.764058 0.903210
vt 0.763948 0.903247
vt 0.739513 0.963558
vt 0.739636 0.963537
vt 0.733574 0.935026
vt 0.733531 0.934923
vt 0.733474 0.934819
vt 0.742410 0.963218
vt 0.742532 0.963197
vt 0.742620 0.963218
vt 0.742648 0.963329
vt 0.734597 0.933971
vt 0.734548 0.934084
vt 0.734496 0.934172
vt 0.739464 0.963691
vt 0.739425 0.963537
vt 0.739487 0.963373
vt 0.739611 0.963362
vt 0.733383 0.934976
vt 0.733402 0.935089
vt 0.733350 0.934864
vt 0.742392 0.963093
vt 0.742516 0.963082
vt 0.742603 0.963093
vt 0.734722 0.934013
vt 0.734698 0.934134
vt 0.734670 0.934230
vt 0.739400 0.963362
vt 0.735717 0.963977
vt 0.735717 0.934249
vt 0.735841 0.934249
vt 0.735841 0.963977
vt 0.741778 0.934249
vt 0.741778 0.963611
vt 0.741664 0.963618
vt 0.741664 0.934256
vt 0.741893 0.934256
vt 0.741893 0.963618
vt 0.765085 0.932938
vt 0.765085 0.962667
vt 0.764961 0.962667
vt 0.764961 0.932938
vt 0.764874 0.962667
vt 0.764875 0.932938
vt 0.738950 0.934249
vt 0.739048 0.963960
vt 0.738950 0.963957
vt 0.739048 0.934252
vt 0.739171 0.963959
vt 0.739171 0.934251
vt 0.735928 0.934249
vt 0.735928 0.963977
vt 0.728657 0.937345
vt 0.728445 0.937433
vt 0.728533 0.937345
vt 0.728657 0.937644
vt 0.728745 0.937557
vt 0.728533 0.937644
vt 0.728745 0.937433
vt 0.728445 0.937557
vt 0.732525 0.935799
vt 0.732612 0.935711
vt 0.732736 0.935710
vt 0.732823 0.935921
vt 0.732525 0.935923
vt 0.732736 0.936009
vt 0.732612 0.936010
vt 0.732823 0.935797
vt 0.736052 0.934249
vt 0.736052 0.963977
vt 0.742008 0.934249
vt 0.742008 0.963611
vt 0.741893 0.963618
vt 0.741893 0.934256
vt 0.742122 0.934256
vt 0.742122 0.963618
vt 0.734664 0.934249
vt 0.734664 0.963977
vt 0.734540 0.963977
vt 0.734540 0.934249
vt 0.734453 0.963977
vt 0.734453 0.934249
vt 0.739171 0.934249
vt 0.739269 0.963960
vt 0.739171 0.963957
vt 0.739269 0.934252
vt 0.739392 0.963959
vt 0.739392 0.934251
vt 0.736139 0.934249
vt 0.736139 0.963977
vt 0.729644 0.937433
vt 0.729432 0.937345
vt 0.729556 0.937345
vt 0.729432 0.937644
vt 0.729556 0.937644
vt 0.729344 0.937557
vt 0.729644 0.937557
vt 0.729344 0.937433
vt 0.733720 0.937220
vt 0.733807 0.937132
vt 0.733930 0.937131
vt 0.734017 0.937342
vt 0.733720 0.937344
vt 0.733930 0.937430
vt 0.733807 0.937431
vt 0.734017 0.937218
vt 0.736981 0.963977
vt 0.736981 0.934249
vt 0.737105 0.934249
vt 0.737105 0.963977
vt 0.740861 0.934249
vt 0.740861 0.963611
vt 0.740746 0.963618
vt 0.740746 0.934256
vt 0.740976 0.934256
vt 0.740976 0.963618
vt 0.734329 0.963977
vt 0.734329 0.934249
vt 0.734243 0.963977
vt 0.734243 0.934249
vt 0.737844 0.934249
vt 0.737942 0.963960
vt 0.737844 0.963957
vt 0.737942 0.934252
vt 0.738065 0.963959
vt 0.738065 0.934251
vt 0.737192 0.934249
vt 0.737192 0.963977
vt 0.729943 0.937557
vt 0.729856 0.937345
vt 0.729943 0.937433
vt 0.729856 0.937644
vt 0.729732 0.937644
vt 0.729732 0.937345
vt 0.732525 0.935499
vt 0.732612 0.935411
vt 0.732736 0.935410
vt 0.732525 0.935623
vt 0.732823 0.935621
vt 0.732612 0.935710
vt 0.732736 0.935709
vt 0.732823 0.935497
vt 0.737316 0.934249
vt 0.737316 0.963977
vt 0.741090 0.934249
vt 0.741090 0.963611
vt 0.741205 0.934256
vt 0.741205 0.963618
vt 0.734119 0.963977
vt 0.734119 0.934249
vt 0.734032 0.963977
vt 0.734032 0.934249
vt 0.738729 0.934249
vt 0.738827 0.963960
vt 0.738729 0.963957
vt 0.738827 0.934252
vt 0.738950 0.963959
vt 0.738950 0.934251
vt 0.737402 0.934249
vt 0.737402 0.963977
vt 0.729256 0.937345
vt 0.729044 0.937433
vt 0.729132 0.937345
vt 0.729256 0.937644
vt 0.729044 0.937557
vt 0.729132 0.937644
vt 0.732525 0.936099
vt 0.732612 0.936011
vt 0.732736 0.936010
vt 0.732823 0.936221
vt 0.732525 0.936223
vt 0.732612 0.936310
vt 0.732736 0.936309
vt 0.732823 0.936097
vt 0.734788 0.934249
vt 0.734788 0.963977
vt 0.740173 0.934249
vt 0.740173 0.963611
vt 0.740058 0.963618
vt 0.740058 0.934256
vt 0.740288 0.934256
vt 0.740288 0.963618
vt 0.765085 0.903210
vt 0.764961 0.903210
vt 0.764874 0.932938
vt 0.764875 0.903210
vt 0.737500 0.963960
vt 0.737402 0.963957
vt 0.737500 0.934252
vt 0.737623 0.963959
vt 0.737623 0.934251
vt 0.734875 0.934249
vt 0.734875 0.963977
vt 0.726709 0.937345
vt 0.726498 0.937433
vt 0.726585 0.937345
vt 0.726709 0.937644
vt 0.726797 0.937433
vt 0.726797 0.937557
vt 0.726498 0.937557
vt 0.726585 0.937644
vt 0.732525 0.936399
vt 0.732612 0.936311
vt 0.732736 0.936310
vt 0.732823 0.936521
vt 0.732525 0.936523
vt 0.732612 0.936610
vt 0.732736 0.936609
vt 0.732823 0.936397
vt 0.736560 0.963977
vt 0.736560 0.934249
vt 0.736684 0.934249
vt 0.736684 0.963977
vt 0.741320 0.934249
vt 0.741320 0.963611
vt 0.741434 0.934256
vt 0.741434 0.963618
vt 0.735085 0.934249
vt 0.735085 0.963977
vt 0.734961 0.963977
vt 0.734961 0.934249
vt 0.738065 0.934249
vt 0.738163 0.963960
vt 0.738065 0.963957
vt 0.738163 0.934252
vt 0.738287 0.963959
vt 0.738287 0.934251
vt 0.736770 0.934249
vt 0.736770 0.963977
vt 0.727097 0.937433
vt 0.726885 0.937345
vt 0.727009 0.937345
vt 0.726885 0.937644
vt 0.727097 0.937557
vt 0.727009 0.937644
vt 0.732823 0.936699
vt 0.732823 0.936823
vt 0.732736 0.936910
vt 0.732525 0.936821
vt 0.732736 0.936611
vt 0.732525 0.936697
vt 0.732612 0.936909
vt 0.736263 0.934249
vt 0.736263 0.963977
vt 0.740402 0.934249
vt 0.740402 0.963611
vt 0.740517 0.934256
vt 0.740517 0.963618
vt 0.735296 0.934249
vt 0.735296 0.963977
vt 0.735172 0.963977
vt 0.735172 0.934249
vt 0.735085 0.963977
vt 0.735085 0.934249
vt 0.738287 0.934249
vt 0.738384 0.963960
vt 0.738287 0.963957
vt 0.738384 0.934252
vt 0.738508 0.963959
vt 0.738508 0.934251
vt 0.736349 0.934249
vt 0.736349 0.963977
vt 0.728233 0.937345
vt 0.728357 0.937345
vt 0.728233 0.937644
vt 0.728357 0.937644
vt 0.728145 0.937433
vt 0.728145 0.937557
vt 0.733423 0.937220
vt 0.733510 0.937132
vt 0.733633 0.937131
vt 0.733510 0.937431
vt 0.733720 0.937342
vt 0.733423 0.937344
vt 0.733633 0.937430
vt 0.733720 0.937218
vt 0.736894 0.934249
vt 0.736894 0.963977
vt 0.741549 0.934249
vt 0.741549 0.963611
vt 0.735593 0.963977
vt 0.735593 0.934249
vt 0.735507 0.963977
vt 0.735507 0.934249
vt 0.738508 0.934249
vt 0.738605 0.963960
vt 0.738508 0.963957
vt 0.738605 0.934252
vt 0.738729 0.963959
vt 0.738729 0.934251
vt 0.728833 0.937345
vt 0.728957 0.937345
vt 0.728833 0.937644
vt 0.728957 0.937644
vt 0.730241 0.937434
vt 0.730241 0.937558
vt 0.730154 0.937645
vt 0.729943 0.937556
vt 0.730154 0.937346
vt 0.729943 0.937432
vt 0.730030 0.937345
vt 0.730030 0.937644
vt 0.736473 0.934249
vt 0.736473 0.963977
vt 0.740632 0.934249
vt 0.740632 0.963611
vt 0.735382 0.963977
vt 0.735507 0.934249
vt 0.735382 0.934249
vt 0.735296 0.963977
vt 0.735296 0.934249
vt 0.737623 0.934249
vt 0.737721 0.963960
vt 0.737623 0.963957
vt 0.737721 0.934252
vt 0.737844 0.963959
vt 0.737844 0.934251
vt 0.726410 0.937345
vt 0.726198 0.937433
vt 0.726286 0.937345
vt 0.726410 0.937644
vt 0.726286 0.937644
vt 0.726198 0.937557
vt 0.732525 0.935199
vt 0.732612 0.935111
vt 0.732736 0.935110
vt 0.732525 0.935323
vt 0.732823 0.935321
vt 0.732612 0.935410
vt 0.732736 0.935409
vt 0.732823 0.935197
s 1
f 10/1/1 2/2/2 1/3/3
f 10/1/1 1/3/3 9/4/4
f 10/5/1 3/6/5 2/7/2
f 3/6/5 10/5/1 11/8/6
f 11/8/6 4/9/7 3/6/5
f 4/9/7 11/8/6 12/10/8
f 4/11/7 12/12/8 13/13/9
f 4/11/7 13/13/9 5/14/10
f 13/13/9 6/15/11 5/14/10
f 6/15/11 13/13/9 14/16/12
f 15/17/13 7/18/14 6/19/11
f 6/19/11 14/20/12 15/17/13
f 16/21/15 8/22/16 7/18/14
f 7/18/14 15/17/13 16/21/15
f 1/3/3 16/23/15 9/4/4
f 16/23/15 1/3/3 8/24/16
f 18/25/17 10/1/1 9/4/4
f 18/25/17 9/4/4 17/26/18
f 19/27/19 10/5/1 18/28/17
f 10/5/1 19/27/19 11/8/6
f 20/29/20 11/8/6 19/27/19
f 11/8/6 20/29/20 12/10/8
f 20/30/20 21/31/21 12/12/8
f 12/12/8 21/31/21 13/13/9
f 21/31/21 14/16/12 13/13/9
f 14/16/12 21/31/21 22/32/22
f 15/17/13 22/33/22 23/34/23
f 22/33/22 15/17/13 14/20/12
f 16/21/15 23/34/23 24/35/24
f 23/34/23 16/21/15 15/17/13
f 9/4/4 24/36/24 17/26/18
f 24/36/24 9/4/4 16/23/15
f 26/37/25 18/25/17 17/26/18
f 26/37/25 17/26/18 25/38/26
f 19/27/19 26/39/25 27/40/27
f 26/39/25 19/27/19 18/28/17
f 20/29/20 27/40/27 28/41/28
f 27/40/27 20/29/20 19/27/19
f 28/42/28 29/43/29 20/30/20
f 20/30/20 29/43/29 21/31/21
f 29/43/29 22/32/22 21/31/21
f 22/32/22 29/43/29 30/44/30
f 31/45/31 23/34/23 22/33/22
f 31/45/31 22/33/22 30/46/30
f 32/47/32 24/35/24 23/34/23
f 32/47/32 23/34/23 31/45/31
f 17/26/18 32/48/32 25/38/26
f 32/48/32 17/26/18 24/36/24
f 34/49/33 26/37/25 25/38/26
f 25/38/26 33/50/34 34/49/33
f 27/40/27 34/51/33 35/52/35
f 34/51/33 27/40/27 26/39/25
f 28/41/28 35/52/35 36/53/36
f 35/52/35 28/41/28 27/40/27
f 36/54/36 37/55/37 28/42/28
f 28/42/28 37/55/37 29/43/29
f 37/56/37 30/46/30 29/57/29
f 30/46/30 37/56/37 38/58/38
f 39/59/39 31/45/31 30/46/30
f 39/59/39 30/46/30 38/58/38
f 40/60/40 32/47/32 31/45/31
f 40/60/40 31/45/31 39/59/39
f 25/38/26 40/61/40 33/50/34
f 40/61/40 25/38/26 32/48/32
f 34/49/33 41/62/41 42/63/42
f 41/62/41 34/49/33 33/50/34
f 43/64/43 35/52/35 34/51/33
f 34/51/33 42/65/42 43/64/43
f 36/53/36 43/64/43 44/66/44
f 43/64/43 36/53/36 35/52/35
f 44/67/44 45/68/45 36/54/36
f 36/54/36 45/68/45 37/55/37
f 45/69/45 38/70/38 37/71/37
f 38/70/38 45/69/45 46/72/46
f 38/58/38 47/73/47 39/59/39
f 47/73/47 38/58/38 46/74/46
f 40/60/40 47/73/47 48/75/48
f 47/73/47 40/60/40 39/59/39
f 41/76/41 33/77/34 40/78/40
f 40/78/40 48/79/48 41/76/41
f 42/80/42 49/81/49 50/82/50
f 49/81/49 42/80/42 41/76/41
f 43/64/43 42/65/42 51/83/51
f 42/65/42 50/84/50 51/83/51
f 44/66/44 43/64/43 52/85/52
f 43/64/43 51/83/51 52/85/52
f 52/86/52 45/69/45 44/87/44
f 45/69/45 52/86/52 53/88/53
f 53/88/53 54/89/54 45/69/45
f 45/69/45 54/89/54 46/72/46
f 54/90/54 47/73/47 46/74/46
f 47/73/47 54/90/54 55/91/55
f 55/91/55 48/75/48 47/73/47
f 48/75/48 55/91/55 56/92/56
f 49/81/49 41/76/41 48/79/48
f 49/81/49 48/79/48 56/93/56
f 50/82/50 57/94/57 58/95/58
f 57/94/57 50/82/50 49/81/49
f 50/84/50 58/96/58 59/97/59
f 50/84/50 59/97/59 51/83/51
f 51/83/51 59/97/59 60/98/60
f 51/83/51 60/98/60 52/85/52
f 60/99/60 53/88/53 52/86/52
f 53/88/53 60/99/60 61/100/61
f 61/100/61 62/101/62 53/88/53
f 53/88/53 62/101/62 54/89/54
f 62/102/62 55/91/55 54/90/54
f 55/91/55 62/102/62 63/103/63
f 63/103/63 56/92/56 55/91/55
f 56/92/56 63/103/63 64/104/64
f 57/94/57 49/81/49 56/93/56
f 57/94/57 56/93/56 64/105/64
f 58/95/58 65/106/65 66/107/66
f 65/106/65 58/95/58 57/94/57
f 66/108/66 59/97/59 58/96/58
f 59/97/59 66/108/66 67/109/67
f 67/109/67 60/98/60 59/97/59
f 60/98/60 67/109/67 68/110/68
f 68/111/68 61/100/61 60/99/60
f 61/100/61 68/111/68 69/112/69
f 69/112/69 70/113/70 61/100/61
f 61/100/61 70/113/70 62/101/62
f 71/114/71 62/102/62 70/115/70
f 62/102/62 71/114/71 63/103/63
f 72/116/72 63/103/63 71/114/71
f 63/103/63 72/116/72 64/104/64
f 65/106/65 57/94/57 64/105/64
f 65/106/65 64/105/64 72/117/72
f 66/107/66 73/118/73 74/119/74
f 73/118/73 66/107/66 65/106/65
f 66/108/66 74/120/74 75/121/75
f 66/108/66 75/121/75 67/109/67
f 67/109/67 75/121/75 76/122/76
f 67/109/67 76/122/76 68/110/68
f 68/111/68 76/123/76 77/124/77
f 68/111/68 77/124/77 69/112/69
f 78/125/78 69/112/69 77/124/77
f 69/112/69 78/125/78 70/113/70
f 78/126/78 71/114/71 70/115/70
f 71/114/71 78/126/78 79/127/79
f 79/127/79 72/116/72 71/114/71
f 72/116/72 79/127/79 80/128/80
f 73/118/73 65/106/65 72/117/72
f 73/118/73 72/117/72 80/129/80
f 82/130/81 74/119/74 73/118/73
f 82/130/81 73/118/73 81/131/82
f 83/132/83 74/120/74 82/133/81
f 74/120/74 83/132/83 75/121/75
f 84/134/84 75/121/75 83/132/83
f 75/121/75 84/134/84 76/122/76
f 84/135/84 85/136/85 76/123/76
f 76/123/76 85/136/85 77/124/77
f 85/136/85 78/125/78 77/124/77
f 78/125/78 85/136/85 86/137/86
f 86/138/86 79/127/79 78/126/78
f 79/127/79 86/138/86 87/139/87
f 87/139/87 80/128/80 79/127/79
f 80/128/80 87/139/87 88/140/88
f 73/118/73 88/141/88 81/131/82
f 88/141/88 73/118/73 80/129/80
f 90/142/89 82/130/81 81/131/82
f 90/142/89 81/131/82 89/143/90
f 90/144/89 83/132/83 82/133/81
f 83/132/83 90/144/89 91/145/91
f 91/145/91 84/134/84 83/132/83
f 84/134/84 91/145/91 92/146/92
f 92/147/92 93/148/93 84/135/84
f 84/135/84 93/148/93 85/136/85
f 93/148/93 86/137/86 85/136/85
f 86/137/86 93/148/93 94/149/94
f 86/138/86 94/150/94 95/151/95
f 86/138/86 95/151/95 87/139/87
f 87/139/87 95/151/95 96/152/96
f 87/139/87 96/152/96 88/140/88
f 81/131/82 96/153/96 89/143/90
f 96/153/96 81/131/82 88/141/88
f 98/154/97 90/142/89 89/143/90
f 89/143/90 97/155/98 98/154/97
f 98/156/97 91/145/91 90/144/89
f 91/145/91 98/156/97 99/157/99
f 99/157/99 92/146/92 91/145/91
f 92/146/92 99/157/99 100/158/100
f 100/159/100 101/160/101 92/147/92
f 92/147/92 101/160/101 93/148/93
f 101/160/101 94/149/94 93/148/93
f 94/149/94 101/160/101 102/161/102
f 95/151/95 94/150/94 103/162/103
f 94/150/94 102/163/102 103/162/103
f 96/152/96 95/151/95 104/164/104
f 95/151/95 103/162/103 104/164/104
f 89/143/90 104/165/104 97/155/98
f 104/165/104 89/143/90 96/153/96
f 106/166/105 98/167/97 97/168/98
f 97/168/98 105/169/106 106/166/105
f 99/157/99 106/170/105 107/171/107
f 106/170/105 99/157/99 98/156/97
f 99/157/99 108/172/108 100/158/100
f 108/172/108 99/157/99 107/171/107
f 108/173/108 101/174/101 100/175/100
f 101/174/101 108/173/108 109/176/109
f 109/177/109 110/178/110 101/160/101
f 101/160/101 110/178/110 102/161/102
f 111/179/111 103/162/103 102/163/102
f 102/163/102 110/180/110 111/179/111
f 112/181/112 104/164/104 103/162/103
f 103/162/103 111/179/111 112/181/112
f 97/155/98 112/182/112 105/183/106
f 112/182/112 97/155/98 104/165/104
f 106/166/105 113/184/113 114/185/114
f 113/184/113 106/166/105 105/169/106
f 106/170/105 115/186/115 107/171/107
f 115/186/115 106/170/105 114/187/114
f 107/171/107 116/188/116 108/172/108
f 116/188/116 107/171/107 115/186/115
f 116/189/116 109/176/109 108/173/108
f 109/176/109 116/189/116 117/190/117
f 117/190/117 118/191/118 109/176/109
f 109/176/109 118/191/118 110/192/110
f 111/179/111 118/193/118 119/194/119
f 118/193/118 111/179/111 110/180/110
f 112/181/112 119/194/119 120/195/120
f 119/194/119 112/181/112 111/179/111
f 113/184/113 105/169/106 112/196/112
f 113/184/113 112/196/112 120/197/120
f 114/185/114 121/198/121 122/199/122
f 121/198/121 114/185/114 113/184/113
f 123/200/123 115/186/115 114/187/114
f 114/187/114 122/201/122 123/200/123
f 124/202/124 116/188/116 115/186/115
f 115/186/115 123/200/123 124/202/124
f 124/203/124 117/190/117 116/189/116
f 117/190/117 124/203/124 125/204/125
f 125/204/125 126/205/126 117/190/117
f 117/190/117 126/205/126 118/191/118
f 119/194/119 126/206/126 127/207/127
f 126/206/126 119/194/119 118/193/118
f 120/195/120 127/207/127 128/208/128
f 127/207/127 120/195/120 119/194/119
f 121/198/121 113/184/113 120/197/120
f 121/198/121 120/197/120 128/209/128
f 122/199/122 129/210/129 130/211/130
f 129/210/129 122/199/122 121/198/121
f 123/200/123 130/212/130 131/213/131
f 130/212/130 123/200/123 122/201/122
f 124/202/124 131/213/131 132/214/132
f 131/213/131 124/202/124 123/200/123
f 132/12/132 125/204/125 124/203/124
f 125/204/125 132/12/132 133/215/133
f 133/215/133 134/216/134 125/204/125
f 125/204/125 134/216/134 126/205/126
f 135/217/135 126/206/126 134/218/134
f 126/206/126 135/217/135 127/207/127
f 136/219/136 127/207/127 135/217/135
f 127/207/127 136/219/136 128/208/128
f 129/210/129 121/198/121 128/209/128
f 129/210/129 128/209/128 136/220/136
f 138/221/137 130/211/130 129/210/129
f 138/221/137 129/210/129 137/222/138
f 139/223/139 131/213/131 130/212/130
f 130/212/130 138/224/137 139/223/139
f 132/214/132 139/223/139 140/225/140
f 139/223/139 132/214/132 131/213/131
f 140/11/140 133/215/133 132/12/132
f 133/215/133 140/11/140 141/226/141
f 133/215/133 141/226/141 142/227/142
f 133/215/133 142/227/142 134/216/134
f 143/228/143 134/218/134 142/229/142
f 134/218/134 143/228/143 135/217/135
f 143/228/143 136/219/136 135/217/135
f 136/219/136 143/228/143 144/230/144
f 137/222/138 129/210/129 136/220/136
f 137/222/138 136/220/136 144/231/144
f 146/232/145 138/221/137 137/222/138
f 146/232/145 137/222/138 145/233/146
f 139/223/139 138/224/137 147/234/147
f 138/224/137 146/235/145 147/234/147
f 140/225/140 139/223/139 148/236/148
f 139/223/139 147/234/147 148/236/148
f 148/237/148 149/238/149 140/11/140
f 140/11/140 149/238/149 141/226/141
f 149/238/149 142/227/142 141/226/141
f 142/227/142 149/238/149 150/239/150
f 150/240/150 143/228/143 142/229/142
f 143/228/143 150/240/150 151/241/151
f 151/241/151 144/230/144 143/228/143
f 144/230/144 151/241/151 152/242/152
f 137/222/138 152/243/152 145/233/146
f 152/243/152 137/222/138 144/231/144
f 154/244/153 146/232/145 145/233/146
f 154/244/153 145/233/146 153/245/154
f 154/246/153 147/234/147 146/235/145
f 147/234/147 154/246/153 155/247/155
f 155/247/155 148/236/148 147/234/147
f 148/236/148 155/247/155 156/248/156
f 156/249/156 157/250/157 148/237/148
f 148/237/148 157/250/157 149/238/149
f 157/250/157 150/239/150 149/238/149
f 150/239/150 157/250/157 158/251/158
f 159/252/159 150/240/150 158/253/158
f 150/240/150 159/252/159 151/241/151
f 160/254/160 151/241/151 159/252/159
f 151/241/151 160/254/160 152/242/152
f 145/233/146 160/255/160 153/245/154
f 160/255/160 145/233/146 152/243/152
f 162/256/161 154/244/153 153/245/154
f 153/245/154 161/257/162 162/256/161
f 162/258/161 155/247/155 154/246/153
f 155/247/155 162/258/161 163/259/163
f 163/259/163 156/248/156 155/247/155
f 156/248/156 163/259/163 164/260/164
f 164/261/164 165/262/165 156/249/156
f 156/249/156 165/262/165 157/250/157
f 165/262/165 158/251/158 157/250/157
f 158/251/158 165/262/165 166/263/166
f 166/264/166 167/265/167 158/253/158
f 158/253/158 167/265/167 159/252/159
f 167/265/167 168/266/168 159/252/159
f 159/252/159 168/266/168 160/254/160
f 153/267/154 168/266/168 161/268/162
f 168/266/168 153/267/154 160/254/160
f 162/256/161 169/269/169 170/270/170
f 169/269/169 162/256/161 161/257/162
f 171/271/171 162/258/161 170/272/170
f 162/258/161 171/271/171 163/259/163
f 172/273/172 163/259/163 171/271/171
f 163/259/163 172/273/172 164/260/164
f 172/274/172 165/262/165 164/261/164
f 165/262/165 172/274/172 173/275/173
f 173/276/173 174/277/174 165/278/165
f 165/278/165 174/277/174 166/279/166
f 174/280/174 167/265/167 166/264/166
f 167/265/167 174/280/174 175/281/175
f 175/281/175 168/266/168 167/265/167
f 168/266/168 175/281/175 176/282/176
f 169/283/169 161/284/162 168/285/168
f 168/285/168 176/286/176 169/283/169
f 170/287/170 177/288/177 178/289/178
f 177/288/177 170/287/170 169/283/169
f 179/290/179 170/272/170 178/291/178
f 170/272/170 179/290/179 171/271/171
f 180/292/180 171/271/171 179/290/179
f 171/271/171 180/292/180 172/273/172
f 180/293/180 173/276/173 172/294/172
f 173/276/173 180/293/180 181/295/181
f 181/295/181 182/296/182 173/276/173
f 173/276/173 182/296/182 174/277/174
f 175/281/175 182/297/182 183/298/183
f 182/297/182 175/281/175 174/280/174
f 176/282/176 183/298/183 184/299/184
f 183/298/183 176/282/176 175/281/175
f 177/288/177 169/283/169 176/286/176
f 177/288/177 176/286/176 184/300/184
f 178/289/178 185/301/185 186/302/186
f 185/301/185 178/289/178 177/288/177
f 178/291/178 187/303/187 179/290/179
f 187/303/187 178/291/178 186/304/186
f 179/290/179 188/305/188 180/292/180
f 188/305/188 179/290/179 187/303/187
f 188/306/188 181/295/181 180/293/180
f 181/295/181 188/306/188 189/307/189
f 189/307/189 190/308/190 181/295/181
f 181/295/181 190/308/190 182/296/182
f 183/298/183 190/309/190 191/310/191
f 190/309/190 183/298/183 182/297/182
f 184/299/184 191/310/191 192/311/192
f 191/310/191 184/299/184 183/298/183
f 185/301/185 177/288/177 184/300/184
f 185/301/185 184/300/184 192/312/192
f 186/302/186 193/313/193 194/314/194
f 193/313/193 186/302/186 185/301/185
f 187/303/187 194/315/194 195/316/195
f 194/315/194 187/303/187 186/304/186
f 188/305/188 195/316/195 196/317/196
f 195/316/195 188/305/188 187/303/187
f 196/318/196 189/307/189 188/306/188
f 189/307/189 196/318/196 197/319/197
f 197/319/197 198/320/198 189/307/189
f 189/307/189 198/320/198 190/308/190
f 199/321/199 191/310/191 190/309/190
f 199/321/199 190/309/190 198/322/198
f 200/323/200 192/311/192 191/310/191
f 200/323/200 191/310/191 199/321/199
f 193/313/193 185/301/185 192/312/192
f 193/313/193 192/312/192 200/324/200
f 202/325/201 194/314/194 193/313/193
f 202/325/201 193/313/193 201/326/202
f 195/316/195 202/327/201 203/328/203
f 202/327/201 195/316/195 194/315/194
f 196/317/196 203/328/203 204/329/204
f 203/328/203 196/317/196 195/316/195
f 196/318/196 204/330/204 205/331/205
f 196/318/196 205/331/205 197/319/197
f 205/331/205 198/320/198 197/319/197
f 198/320/198 205/331/205 206/123/206
f 207/332/207 199/321/199 198/322/198
f 207/332/207 198/322/198 206/333/206
f 208/334/208 200/323/200 199/321/199
f 208/334/208 199/321/199 207/332/207
f 193/313/193 208/335/208 201/326/202
f 208/335/208 193/313/193 200/324/200
f 210/336/209 202/325/201 201/326/202
f 210/336/209 201/326/202 209/337/210
f 211/338/211 203/328/203 202/327/201
f 202/327/201 210/339/209 211/338/211
f 212/340/212 204/329/204 203/328/203
f 203/328/203 211/338/211 212/340/212
f 212/341/212 213/342/213 204/330/204
f 204/330/204 213/342/213 205/331/205
f 213/342/213 206/123/206 205/331/205
f 206/123/206 213/342/213 214/343/214
f 207/332/207 214/344/214 215/345/215
f 214/344/214 207/332/207 206/333/206
f 208/334/208 215/345/215 216/346/216
f 215/345/215 208/334/208 207/332/207
f 201/326/202 216/347/216 209/337/210
f 216/347/216 201/326/202 208/335/208
f 218/348/217 210/336/209 209/337/210
f 218/348/217 209/337/210 217/349/218
f 211/338/211 218/350/217 219/351/219
f 218/350/217 211/338/211 210/339/209
f 212/340/212 219/351/219 220/352/220
f 219/351/219 212/340/212 211/338/211
f 220/353/220 221/354/221 212/341/212
f 212/341/212 221/354/221 213/342/213
f 221/354/221 214/343/214 213/342/213
f 214/343/214 221/354/221 222/355/222
f 214/344/214 223/356/223 215/345/215
f 223/356/223 214/344/214 222/357/222
f 215/345/215 224/358/224 216/346/216
f 224/358/224 215/345/215 223/356/223
f 209/337/210 224/359/224 217/349/218
f 224/359/224 209/337/210 216/347/216
f 226/360/225 218/348/217 217/349/218
f 217/349/218 225/361/226 226/360/225
f 219/351/219 226/362/225 227/363/227
f 226/362/225 219/351/219 218/350/217
f 220/352/220 227/363/227 228/364/228
f 227/363/227 220/352/220 219/351/219
f 228/365/228 229/366/229 220/353/220
f 220/353/220 229/366/229 221/354/221
f 229/366/229 222/355/222 221/354/221
f 222/355/222 229/366/229 230/367/230
f 231/368/231 222/357/222 230/369/230
f 222/357/222 231/368/231 223/356/223
f 232/370/232 223/356/223 231/368/231
f 223/356/223 232/370/232 224/358/224
f 217/349/218 232/371/232 225/361/226
f 232/371/232 217/349/218 224/359/224
f 226/372/225 233/373/233 234/374/234
f 233/373/233 226/372/225 225/375/226
f 226/362/225 234/376/234 235/377/235
f 226/362/225 235/377/235 227/363/227
f 227/363/227 235/377/235 236/378/236
f 227/363/227 236/378/236 228/364/228
f 236/379/236 237/380/237 228/381/228
f 228/381/228 237/380/237 229/382/229
f 237/383/237 230/367/230 229/366/229
f 230/367/230 237/383/237 238/384/238
f 238/385/238 231/368/231 230/369/230
f 231/368/231 238/385/238 239/386/239
f 239/386/239 232/370/232 231/368/231
f 232/370/232 239/386/239 240/387/240
f 233/388/233 225/361/226 232/371/232
f 232/371/232 240/389/240 233/388/233
f 234/374/234 241/390/241 242/391/242
f 241/390/241 234/374/234 233/373/233
f 242/392/242 243/393/243 234/376/234
f 234/376/234 243/393/243 235/377/235
f 243/393/243 244/394/244 235/377/235
f 235/377/235 244/394/244 236/378/236
f 244/395/244 237/380/237 236/379/236
f 237/380/237 244/395/244 245/396/245
f 245/396/245 246/397/246 237/380/237
f 237/380/237 246/397/246 238/398/238
f 246/399/246 239/386/239 238/385/238
f 239/386/239 246/399/246 247/400/247
f 247/400/247 240/387/240 239/386/239
f 240/387/240 247/400/247 248/401/248
f 241/390/241 233/373/233 240/402/240
f 241/390/241 240/402/240 248/403/248
f 242/391/242 249/404/249 250/405/250
f 249/404/249 242/391/242 241/390/241
f 251/406/251 242/392/242 250/407/250
f 242/392/242 251/406/251 243/393/243
f 252/408/252 243/393/243 251/406/251
f 243/393/243 252/408/252 244/394/244
f 252/409/252 245/396/245 244/395/244
f 245/396/245 252/409/252 253/410/253
f 253/410/253 254/411/254 245/396/245
f 245/396/245 254/411/254 246/397/246
f 254/412/254 247/400/247 246/399/246
f 247/400/247 254/412/254 255/413/255
f 255/413/255 248/401/248 247/400/247
f 248/401/248 255/413/255 256/414/256
f 249/404/249 241/390/241 248/403/248
f 249/404/249 248/403/248 256/415/256
f 250/405/250 1/3/3 2/2/2
f 1/3/3 250/405/250 249/404/249
f 2/7/2 251/406/251 250/407/250
f 251/406/251 2/7/2 3/6/5
f 3/6/5 252/408/252 251/406/251
f 252/408/252 3/6/5 4/9/7
f 4/11/7 253/410/253 252/409/252
f 253/410/253 4/11/7 5/14/10
f 5/14/10 6/15/11 253/410/253
f 253/410/253 6/15/11 254/411/254
f 255/413/255 254/412/254 7/18/14
f 254/412/254 6/19/11 7/18/14
f 256/414/256 255/413/255 8/22/16
f 255/413/255 7/18/14 8/22/16
f 1/3/3 249/404/249 256/415/256
f 1/3/3 256/415/256 8/24/16
f 266/416/257 258/417/257 257/418/258
f 266/416/257 257/418/258 265/419/259
f 267/420/260 259/421/260 258/422/257
f 258/422/257 266/423/257 267/420/260
f 268/424/261 260/425/261 259/421/262
f 259/421/262 267/420/262 268/424/261
f 260/426/261 268/427/261 269/428/263
f 260/426/261 269/428/263 261/429/263
f 270/430/264 261/429/265 269/428/265
f 261/429/265 270/430/264 262/431/264
f 270/432/264 263/433/266 262/434/264
f 263/433/266 270/432/264 271/435/266
f 271/435/266 264/436/267 263/433/266
f 264/436/267 271/435/266 272/437/267
f 265/419/268 257/418/268 264/438/267
f 265/419/268 264/438/267 272/439/267
f 260/440/269 258/441/269 259/442/269
f 263/443/269 260/440/269 262/444/269
f 264/445/269 258/441/269 263/443/269
f 262/444/269 260/440/269 261/446/269
f 258/441/269 264/445/269 257/447/269
f 260/440/269 263/443/269 258/441/269
f 267/448/270 266/449/270 265/450/270
f 271/451/270 268/452/270 265/450/270
f 265/450/270 268/452/270 267/448/270
f 268/452/270 271/451/270 270/453/270
f 268/452/270 270/453/270 269/454/270
f 272/455/270 271/451/270 265/450/270
f 282/439/257 274/438/257 273/456/258
f 282/439/257 273/456/258 281/457/259
f 283/458/260 275/459/260 274/460/257
f 274/460/257 282/461/257 283/458/260
f 284/462/261 276/463/261 275/459/262
f 275/459/262 283/458/262 284/462/261
f 276/464/261 284/465/261 285/466/271
f 276/464/261 285/466/271 277/467/263
f 286/468/264 277/467/265 285/466/265
f 277/467/265 286/468/264 278/469/264
f 286/470/264 279/471/266 278/472/264
f 279/471/266 286/470/264 287/473/266
f 287/473/266 280/474/267 279/471/266
f 280/474/267 287/473/266 288/475/267
f 281/457/268 273/456/268 280/476/267
f 281/457/268 280/476/267 288/477/267
f 276/478/269 274/479/269 275/480/269
f 279/481/269 276/478/269 278/482/269
f 280/483/269 274/479/269 279/481/269
f 278/482/269 276/478/269 277/484/269
f 274/479/269 280/483/269 273/485/269
f 276/478/269 279/481/269 274/479/269
f 283/486/270 282/487/270 281/488/270
f 287/489/270 284/490/270 281/488/270
f 281/488/270 284/490/270 283/486/270
f 284/490/270 287/489/270 286/491/270
f 284/490/270 286/491/270 285/492/270
f 288/493/270 287/489/270 281/488/270
f 298/494/257 290/495/257 289/496/259
f 298/494/257 289/496/259 297/497/259
f 299/498/260 291/499/260 290/500/257
f 290/500/257 298/501/257 299/498/260
f 300/502/261 292/503/261 291/499/262
f 291/499/262 299/498/262 300/502/261
f 301/504/271 292/469/261 300/468/261
f 292/469/261 301/504/271 293/505/271
f 302/506/272 293/505/265 301/504/272
f 293/505/265 302/506/272 294/507/265
f 302/508/273 295/509/266 294/510/274
f 295/509/266 302/508/273 303/511/266
f 303/511/266 296/512/267 295/509/266
f 296/512/267 303/511/266 304/513/267
f 297/497/268 289/496/268 296/514/267
f 297/497/268 296/514/267 304/515/267
f 292/516/269 290/517/269 291/518/269
f 295/484/269 293/519/269 294/520/269
f 296/478/269 290/517/269 295/484/269
f 293/519/269 295/484/269 292/516/269
f 290/517/269 296/478/269 289/521/269
f 292/516/269 295/484/269 290/517/269
f 299/522/270 298/523/270 297/524/270
f 300/525/270 297/524/270 303/526/270
f 297/524/270 300/525/270 299/522/270
f 301/527/270 303/526/270 302/528/270
f 300/525/270 303/526/270 301/527/270
f 304/529/270 303/526/270 297/524/270
f 314/515/257 306/514/257 305/530/258
f 314/515/257 305/530/258 313/531/258
f 315/532/260 307/533/260 306/503/257
f 306/503/257 314/502/257 315/532/260
f 316/534/261 308/535/261 307/533/262
f 307/533/262 315/532/262 316/534/261
f 317/536/271 308/507/261 316/506/261
f 308/507/261 317/536/271 309/537/271
f 318/538/272 309/537/272 317/536/272
f 309/537/272 318/538/272 310/539/272
f 318/540/273 311/541/266 310/542/273
f 311/541/266 318/540/273 319/543/266
f 319/543/266 312/544/275 311/541/266
f 312/544/275 319/543/266 320/545/275
f 313/531/268 305/530/268 312/546/268
f 313/531/268 312/546/268 320/547/268
f 308/548/269 306/549/269 307/550/269
f 311/551/269 309/485/269 310/483/269
f 305/552/269 311/551/269 312/553/269
f 309/485/269 311/551/269 308/548/269
f 306/549/269 311/551/269 305/552/269
f 308/548/269 311/551/269 306/549/269
f 315/554/270 314/555/270 313/556/270
f 319/557/270 316/558/270 313/556/270
f 313/556/270 316/558/270 315/554/270
f 317/559/270 319/557/270 318/560/270
f 316/558/270 319/557/270 317/559/270
f 320/561/270 319/557/270 313/556/270
f 330/465/257 322/464/257 321/562/258
f 330/465/257 321/562/258 329/563/258
f 331/564/260 323/565/260 322/566/257
f 322/566/257 330/567/257 331/564/260
f 332/568/261 324/569/261 323/565/262
f 323/565/262 331/564/262 332/568/261
f 324/570/261 332/426/261 333/429/276
f 324/570/261 333/429/276 325/571/276
f 325/571/276 333/429/276 334/572/272
f 325/571/276 334/572/272 326/573/272
f 334/546/273 327/574/266 326/575/273
f 327/574/266 334/546/273 335/576/266
f 335/576/266 328/577/275 327/574/266
f 328/577/275 335/576/266 336/578/275
f 329/563/268 321/562/277 328/579/277
f 329/563/268 328/579/277 336/580/268
f 324/581/269 322/582/269 323/583/269
f 327/584/269 325/585/269 326/586/269
f 321/587/269 327/584/269 328/588/269
f 325/585/269 322/582/269 324/581/269
f 327/584/269 322/582/269 325/585/269
f 322/582/269 327/584/269 321/587/269
f 331/589/270 330/590/270 329/591/270
f 335/592/270 332/593/270 329/591/270
f 329/591/270 332/593/270 331/589/270
f 333/594/270 335/592/270 334/595/270
f 332/593/270 335/592/270 333/594/270
f 336/596/270 335/592/270 329/591/270
f 346/597/257 338/598/257 337/599/278
f 346/597/257 337/599/278 345/600/278
f 347/601/260 339/602/260 338/535/257
f 338/535/257 346/534/257 347/601/260
f 348/603/261 340/604/261 339/602/262
f 339/602/262 347/601/262 348/603/261
f 340/605/261 348/606/261 349/607/276
f 340/605/261 349/607/276 341/608/276
f 350/580/265 341/608/276 349/607/276
f 341/608/276 350/580/265 342/579/265
f 350/609/273 343/610/266 342/611/273
f 343/610/266 350/609/273 351/612/266
f 351/612/266 344/613/275 343/610/266
f 344/613/275 351/612/266 352/614/275
f 345/600/278 337/599/278 344/615/277
f 345/600/278 344/615/277 352/616/277
f 340/617/269 338/618/269 339/619/269
f 343/620/269 341/621/269 342/622/269
f 337/585/269 343/620/269 344/586/269
f 341/621/269 337/585/269 340/617/269
f 341/621/269 343/620/269 337/585/269
f 340/617/269 337/585/269 338/618/269
f 347/623/270 346/624/270 345/625/270
f 351/626/270 348/627/270 345/625/270
f 345/625/270 348/627/270 347/623/270
f 349/594/270 351/626/270 350/628/270
f 348/627/270 351/626/270 349/594/270
f 352/629/270 351/626/270 345/625/270
f 362/477/257 354/476/257 353/630/258
f 362/477/257 353/630/258 361/631/258
f 363/632/260 355/633/260 354/569/257
f 354/569/257 362/568/257 363/632/260
f 364/634/261 356/635/261 355/633/262
f 355/633/262 363/632/262 364/634/261
f 356/636/261 364/637/261 365/638/276
f 356/636/261 365/638/276 357/639/276
f 366/640/272 357/639/276 365/638/276
f 357/639/276 366/640/272 358/641/265
f 366/642/273 359/643/266 358/644/273
f 359/643/266 366/642/273 367/645/266
f 367/645/266 360/646/275 359/643/266
f 360/646/275 367/645/266 368/647/275
f 361/631/268 353/630/277 360/648/277
f 361/631/268 360/648/277 368/649/268
f 356/441/269 354/650/269 355/651/269
f 359/652/269 357/447/269 358/653/269
f 353/654/269 359/652/269 360/655/269
f 357/447/269 359/652/269 356/441/269
f 354/650/269 359/652/269 353/654/269
f 356/441/269 359/652/269 354/650/269
f 363/656/270 362/657/270 361/658/270
f 365/659/270 361/658/270 367/660/270
f 361/658/270 364/661/270 363/656/270
f 365/659/270 367/660/270 366/662/270
f 364/661/270 361/658/270 365/659/270
f 368/663/270 367/660/270 361/658/270
f 378/616/257 370/615/257 369/664/259
f 378/616/257 369/664/259 377/665/259
f 379/666/260 371/667/260 370/604/257
f 370/604/257 378/603/257 379/666/260
f 380/423/261 372/422/261 371/667/262
f 371/667/262 379/666/262 380/423/261
f 372/417/261 380/416/261 381/668/263
f 372/417/261 381/668/263 373/669/263
f 382/670/264 373/669/265 381/668/265
f 373/669/265 382/670/264 374/671/264
f 382/672/264 375/673/266 374/674/264
f 375/673/266 382/672/264 383/675/266
f 383/675/266 376/676/267 375/673/266
f 376/676/267 383/675/266 384/677/267
f 377/665/268 369/664/268 376/495/267
f 377/665/268 376/495/267 384/494/267
f 372/549/269 370/678/269 371/679/269
f 375/680/269 372/549/269 374/681/269
f 376/444/269 370/678/269 375/680/269
f 374/681/269 372/549/269 373/552/269
f 370/678/269 376/444/269 369/446/269
f 372/549/269 375/680/269 370/678/269
f 379/682/270 378/683/270 377/684/270
f 383/685/270 380/686/270 377/684/270
f 377/684/270 380/686/270 379/682/270
f 380/686/270 383/685/270 382/687/270
f 380/686/270 382/687/270 381/688/270
f 384/689/270 383/685/270 377/684/270
f 394/649/257 386/648/257 385/690/258
f 394/649/257 385/690/258 393/691/258
f 395/692/260 387/693/260 386/635/257
f 386/635/257 394/634/257 395/692/260
f 396/501/262 388/500/262 387/693/262
f 387/693/262 395/692/262 396/501/262
f 397/694/276 388/695/279 396/670/279
f 388/695/279 397/694/276 389/696/276
f 398/697/272 389/696/276 397/694/276
f 389/696/276 398/697/272 390/698/272
f 398/699/274 391/700/266 390/701/274
f 391/700/266 398/699/274 399/702/266
f 399/702/266 392/703/267 391/700/266
f 392/703/267 399/702/266 400/704/267
f 393/691/268 385/690/268 392/598/267
f 393/691/268 392/598/267 400/597/267
f 388/705/269 386/706/269 387/707/269
f 391/708/269 389/582/269 390/587/269
f 392/709/269 386/706/269 391/708/269
f 389/582/269 386/706/269 388/705/269
f 386/706/269 392/709/269 385/710/269
f 389/582/269 391/708/269 386/706/269
f 395/711/270 394/712/270 393/713/270
f 396/714/270 393/713/270 399/715/270
f 393/713/270 396/714/270 395/711/270
f 397/716/270 399/715/270 398/717/270
f 396/714/270 399/715/270 397/716/270
f 400/718/270 399/715/270 393/713/270
